  0
SECTION
  2
HEADER
  9
$ACADVER
  1
AC1009
  9
$DWGCODEPAGE
  3
ANSI_1252
  9
$INSBASE
 10
0.0
 20
0.0
 30
0.0
  9
$EXTMIN
 10
1e+20
 20
1e+20
 30
1e+20
  9
$EXTMAX
 10
-1e+20
 20
-1e+20
 30
-1e+20
  9
$LIMMIN
 10
0.0
 20
0.0
  9
$LIMMAX
 10
420.0
 20
297.0
  9
$ORTHOMODE
 70
0
  9
$REGENMODE
 70
1
  9
$FILLMODE
 70
1
  9
$DRAGMODE
 70
2
  9
$QTEXTMODE
 70
0
  9
$MIRRTEXT
 70
1
  9
$OSMODE
 70
20583
  9
$LTSCALE
 40
1.0
  9
$ATTMODE
 70
1
  9
$TEXTSIZE
 40
2.5
  9
$TRACEWID
 40
1.0
  9
$TEXTSTYLE
  7
Standard
  9
$CLAYER
  8
0
  9
$CELTYPE
  6
ByLayer
  9
$CECOLOR
 62
256
  9
$DIMSCALE
 40
1.0
  9
$DIMASZ
 40
2.5
  9
$DIMEXO
 40
0.625
  9
$DIMDLI
 40
3.75
  9
$DIMRND
 40
0.0
  9
$DIMDLE
 40
0.0
  9
$DIMEXE
 40
1.25
  9
$DIMTP
 40
0.0
  9
$DIMTM
 40
0.0
  9
$DIMTXT
 40
2.5
  9
$DIMCEN
 40
2.5
  9
$DIMTSZ
 40
0.0
  9
$DIMTOL
 70
0
  9
$DIMLIM
 70
0
  9
$DIMTIH
 70
0
  9
$DIMTOH
 70
0
  9
$DIMSE1
 70
0
  9
$DIMSE2
 70
0
  9
$DIMTAD
 70
1
  9
$DIMZIN
 70
8
  9
$DIMBLK
  1

  9
$DIMASO
 70
1
  9
$DIMSHO
 70
1
  9
$DIMPOST
  1

  9
$DIMAPOST
  1

  9
$DIMALT
 70
0
  9
$DIMALTD
 70
3
  9
$DIMALTF
 40
0.03937007874
  9
$DIMLFAC
 40
1.0
  9
$DIMTOFL
 70
1
  9
$DIMTVP
 40
0.0
  9
$DIMTIX
 70
0
  9
$DIMSOXD
 70
0
  9
$DIMSAH
 70
0
  9
$DIMBLK1
  1

  9
$DIMBLK2
  1

  9
$DIMSTYLE
  2
ISO-25
  9
$DIMCLRD
 70
0
  9
$DIMCLRE
 70
0
  9
$DIMCLRT
 70
0
  9
$DIMTFAC
 40
1.0
  9
$DIMGAP
 40
0.625
  9
$COORDS
 70
1
  9
$ATTDIA
 70
0
  9
$ATTREQ
 70
1
  9
$HANDLING
 70
1
  9
$LUNITS
 70
2
  9
$LUPREC
 70
4
  9
$SKETCHINC
 40
1.0
  9
$FILLETRAD
 40
10.0
  9
$AUNITS
 70
0
  9
$AUPREC
 70
2
  9
$MENU
  1
.
  9
$ELEVATION
 40
0.0
  9
$PELEVATION
 40
0.0
  9
$THICKNESS
 40
0.0
  9
$LIMCHECK
 70
0
  9
$CHAMFERA
 40
0.0
  9
$CHAMFERB
 40
0.0
  9
$SKPOLY
 70
0
  9
$TDCREATE
 40
2461276.7351967595
  9
$TDUPDATE
 40
2461276.7351967595
  9
$TDINDWG
 40
0.0
  9
$TDUSRTIMER
 40
0.0
  9
$USRTIMER
 70
1
  9
$ANGBASE
 50
0.0
  9
$ANGDIR
 70
0
  9
$PDMODE
 70
0
  9
$PDSIZE
 40
0.0
  9
$PLINEWID
 40
0.0
  9
$SPLFRAME
 70
0
  9
$SPLINETYPE
 70
6
  9
$SPLINESEGS
 70
8
  9
$HANDSEED
  5
3AD
  9
$SURFTAB1
 70
6
  9
$SURFTAB2
 70
6
  9
$SURFTYPE
 70
6
  9
$SURFU
 70
6
  9
$SURFV
 70
6
  9
$UCSNAME
  2

  9
$UCSORG
 10
0.0
 20
0.0
 30
0.0
  9
$UCSXDIR
 10
1.0
 20
0.0
 30
0.0
  9
$UCSYDIR
 10
0.0
 20
1.0
 30
0.0
  9
$PUCSNAME
  2

  9
$PUCSORG
 10
0.0
 20
0.0
 30
0.0
  9
$PUCSXDIR
 10
1.0
 20
0.0
 30
0.0
  9
$PUCSYDIR
 10
0.0
 20
1.0
 30
0.0
  9
$USERI1
 70
0
  9
$USERI2
 70
0
  9
$USERI3
 70
0
  9
$USERI4
 70
0
  9
$USERI5
 70
0
  9
$USERR1
 40
0.0
  9
$USERR2
 40
0.0
  9
$USERR3
 40
0.0
  9
$USERR4
 40
0.0
  9
$USERR5
 40
0.0
  9
$WORLDVIEW
 70
1
  9
$SHADEDGE
 70
3
  9
$SHADEDIF
 70
70
  9
$TILEMODE
 70
1
  9
$MAXACTVP
 70
64
  9
$PLIMCHECK
 70
0
  9
$PEXTMIN
 10
1e+20
 20
1e+20
 30
1e+20
  9
$PEXTMAX
 10
-1e+20
 20
-1e+20
 30
-1e+20
  9
$PLIMMIN
 10
0.0
 20
0.0
  9
$PLIMMAX
 10
420.0
 20
297.0
  9
$UNITMODE
 70
0
  9
$VISRETAIN
 70
1
  9
$PLINEGEN
 70
0
  9
$PSLTSCALE
 70
1
  0
ENDSEC
  0
SECTION
  2
TABLES
  0
TABLE
  2
VPORT
 70
1
  0
VPORT
  5
23
  2
*Active
 70
0
 10
0.0
 20
0.0
 11
1.0
 21
1.0
 12
0.0
 22
0.0
 13
0.0
 23
0.0
 14
0.5
 24
0.5
 15
0.5
 25
0.5
 16
0.0
 26
0.0
 36
1.0
 17
0.0
 27
0.0
 37
0.0
 40
1000.0
 41
1.34
 42
50.0
 43
0.0
 44
0.0
 50
0.0
 51
0.0
 71
0
 72
1000
 73
1
 74
3
 75
0
 76
0
 77
0
 78
0
  0
ENDTAB
  0
TABLE
  2
LTYPE
 70
3
  0
LTYPE
  5
24
  2
ByBlock
 70
0
  3

 72
65
 73
0
 40
0.0
  0
LTYPE
  5
25
  2
ByLayer
 70
0
  3

 72
65
 73
0
 40
0.0
  0
LTYPE
  5
26
  2
Continuous
 70
0
  3

 72
65
 73
0
 40
0.0
  0
ENDTAB
  0
TABLE
  2
LAYER
 70
6
  0
LAYER
  5
27
  2
0
 70
0
 62
7
  6
Continuous
  0
LAYER
  5
28
  2
Defpoints
 70
0
 62
7
  6
Continuous
  0
LAYER
  5
2D
  2
A-WALL
 70
0
 62
7
  6
Continuous
  0
LAYER
  5
2E
  2
A-FURN
 70
0
 62
30
  6
Continuous
  0
LAYER
  5
2F
  2
A-DIMS
 70
0
 62
1
  6
Continuous
  0
LAYER
  5
30
  2
A-ANNO
 70
0
 62
3
  6
Continuous
  0
ENDTAB
  0
TABLE
  2
STYLE
 70
1
  0
STYLE
  5
29
  2
Standard
 70
0
 40
0.0
 41
1.0
 50
0.0
 71
0
 42
2.5
  3
txt
  4

  0
ENDTAB
  0
TABLE
  2
VIEW
 70
0
  0
ENDTAB
  0
TABLE
  2
UCS
 70
0
  0
ENDTAB
  0
TABLE
  2
APPID
 70
3
  0
APPID
  5
2A
  2
ACAD
 70
0
  0
APPID
  5
3AB
  2
HATCHBACKGROUNDCOLOR
 70
0
  0
APPID
  5
3AC
  2
EZDXF
 70
0
  0
ENDTAB
  0
TABLE
  2
DIMSTYLE
 70
1
  0
DIMSTYLE
105
2B
  2
Standard
 70
0
  3

  4

  5

  6

  7

 40
1.0
 41
2.5
 42
0.625
 43
3.75
 44
1.25
 45
0.0
 46
0.0
 47
0.0
 48
0.0
140
2.5
141
2.5
142
0.0
143
0.03937007874
144
1.0
145
0.0
146
1.0
147
0.625
 71
0
 72
0
 73
0
 74
0
 75
0
 76
0
 77
1
 78
8
170
0
171
3
172
1
173
0
174
0
175
0
176
0
177
0
178
0
  0
ENDTAB
  0
ENDSEC
  0
SECTION
  2
BLOCKS
  0
BLOCK
  5
18
  8
0
  2
$Model_Space
 70
0
 10
0.0
 20
0.0
 30
0.0
  3
$Model_Space
  1

1001
EZDXF
1000
CREATED_BY_EZDXF
1000
1.4.4 @ 2026-08-23T14:08:41.910369+00:00
1000
WRITTEN_BY_EZDXF
1000
1.4.4 @ 2026-08-23T14:08:41.920280+00:00
  0
ENDBLK
  5
19
  8
0
  0
BLOCK
  5
1C
  8
0
  2
$Paper_Space
 70
0
 10
0.0
 20
0.0
 30
0.0
  3
$Paper_Space
  1

  0
ENDBLK
  5
1D
  8
0
  0
ENDSEC
  0
SECTION
  2
ENTITIES
  0
TEXT
  5
31
  8
A-ANNO
 10
4.308
 20
6.74053448275862
 30
0.0
 40
0.32
  1
Bedroom
 72
1
 11
4.308
 21
6.74053448275862
 31
0.0
 73
2
  0
TEXT
  5
32
  8
A-ANNO
 10
7.5761379310344825
 20
7.650413793103448
 30
0.0
 40
0.28
  1
Bathroom
 72
1
 11
7.5761379310344825
 21
7.650413793103448
 31
0.0
 73
2
  0
TEXT
  5
33
  8
A-ANNO
 10
10.732862068965517
 20
5.849224137931034
 30
0.0
 40
0.32
  1
Kitchen
 72
1
 11
10.732862068965517
 21
5.849224137931034
 31
0.0
 73
2
  0
TEXT
  5
34
  8
A-ANNO
 10
8.913103448275862
 20
2.6925
 30
0.0
 40
0.35
  1
Living Room
 72
1
 11
8.913103448275862
 21
2.6925
 31
0.0
 73
2
  0
TEXT
  5
35
  8
A-ANNO
 10
3.8623448275862065
 20
2.6925
 30
0.0
 40
0.32
  1
Entrance
 72
1
 11
3.8623448275862065
 21
2.6925
 31
0.0
 73
2
  0
TEXT
  5
36
  8
A-ANNO
 10
13.462499999999999
 20
5.849224137931034
 30
0.0
 40
0.32
  1
Balcony
 72
1
 11
13.462499999999999
 21
5.849224137931034
 31
0.0
 73
2
  0
TEXT
  5
37
  8
A-DIMS
 10
9.655862068965517
 20
1.522655172413793
 30
0.0
 40
0.26
  1
17'8" (5.39 m)
 72
1
 11
9.655862068965517
 21
1.522655172413793
 31
0.0
 73
2
  0
TEXT
  5
38
  8
A-DIMS
 10
4.122310344827586
 20
1.4112413793103447
 30
0.0
 40
0.24
  1
5'9" (1.75 m)
 72
1
 11
4.122310344827586
 21
1.4112413793103447
 31
0.0
 73
2
  0
TEXT
  5
39
  8
A-DIMS
 10
4.308
 20
7.94751724137931
 30
0.0
 40
0.24
  1
5'9" (1.75 m)
 72
1
 11
4.308
 21
7.94751724137931
 31
0.0
 73
2
  0
TEXT
  5
3A
  8
A-DIMS
 10
2.7110689655172413
 20
6.684827586206896
 30
0.0
 40
0.24
  1
5'9" (1.75 m)
 72
1
 11
2.7110689655172413
 21
6.684827586206896
 31
0.0
 73
2
  0
TEXT
  5
3B
  8
A-DIMS
 10
6.183465517241379
 20
7.650413793103448
 30
0.0
 40
0.24
  1
2'10" (0.86 m)
 72
1
 11
6.183465517241379
 21
7.650413793103448
 31
0.0
 73
2
  0
TEXT
  5
3C
  8
A-DIMS
 10
7.5761379310344825
 20
8.801689655172414
 30
0.0
 40
0.24
  1
3'2" (0.97 m)
 72
1
 11
7.5761379310344825
 21
8.801689655172414
 31
0.0
 73
2
  0
TEXT
  5
3D
  8
A-DIMS
 10
10.51003448275862
 20
8.801689655172414
 30
0.0
 40
0.24
  1
6'5" (1.96 m)
 72
1
 11
10.51003448275862
 21
8.801689655172414
 31
0.0
 73
2
  0
TEXT
  5
3E
  8
A-DIMS
 10
7.873241379310344
 20
5.0136206896551725
 30
0.0
 40
0.24
  1
2'10" (0.86 m)
 72
1
 11
7.873241379310344
 21
5.0136206896551725
 31
0.0
 73
2
  0
TEXT
  5
3F
  8
A-DIMS
 10
6.016344827586207
 20
3.7509310344827584
 30
0.0
 40
0.24
  1
3'9" (1.14 m)
 72
1
 11
6.016344827586207
 21
3.7509310344827584
 31
0.0
 73
2
  0
TEXT
  5
40
  8
A-DIMS
 10
1.7083448275862068
 20
2.6925
 30
0.0
 40
0.24
  1
5'0" (1.52 m)
 72
1
 11
1.7083448275862068
 21
2.6925
 31
0.0
 73
2
  0
TEXT
  5
41
  8
A-DIMS
 10
12.069827586206896
 20
5.607827586206896
 30
0.0
 40
0.24
  1
5'9" (1.75 m)
 72
1
 11
12.069827586206896
 21
5.607827586206896
 31
0.0
 73
2
  0
TEXT
  5
42
  8
A-DIMS
 10
12.069827586206896
 20
3.8994827586206893
 30
0.0
 40
0.24
  1
5'0" (1.52 m)
 72
1
 11
12.069827586206896
 21
3.8994827586206893
 31
0.0
 73
2
  0
TEXT
  5
43
  8
A-DIMS
 10
12.069827586206896
 20
2.1354310344827585
 30
0.0
 40
0.24
  1
5'9" (1.75 m)
 72
1
 11
12.069827586206896
 21
2.1354310344827585
 31
0.0
 73
2
  0
LINE
  5
44
  8
A-WALL
 10
14.279534482758619
 20
1.0305775862068964
 30
0.0
 11
14.242396551724138
 21
1.0491465517241378
 31
0.0
  0
LINE
  5
45
  8
A-WALL
 10
14.242396551724138
 20
1.0491465517241378
 30
0.0
 11
12.710456896551722
 21
1.0398620689655171
 31
0.0
  0
LINE
  5
46
  8
A-WALL
 10
12.710456896551722
 20
1.0398620689655171
 30
0.0
 11
12.710456896551722
 21
1.0212931034482757
 31
0.0
  0
LINE
  5
47
  8
A-WALL
 10
12.710456896551722
 20
1.0212931034482757
 30
0.0
 11
14.279534482758619
 21
1.0305775862068964
 31
0.0
  0
LINE
  5
48
  8
A-FURN
 10
9.553732758620688
 20
8.34675
 30
0.0
 11
9.56301724137931
 21
8.328181034482759
 31
0.0
  0
LINE
  5
49
  8
A-FURN
 10
9.56301724137931
 20
8.328181034482759
 30
0.0
 11
11.484905172413793
 21
8.337465517241379
 31
0.0
  0
LINE
  5
4A
  8
A-FURN
 10
11.484905172413793
 20
8.337465517241379
 30
0.0
 11
11.475620689655171
 21
8.35603448275862
 31
0.0
  0
LINE
  5
4B
  8
A-FURN
 10
11.475620689655171
 20
8.35603448275862
 30
0.0
 11
9.553732758620688
 21
8.34675
 31
0.0
  0
LINE
  5
4C
  8
A-FURN
 10
7.084060344827586
 20
8.337465517241379
 30
0.0
 11
8.003224137931033
 21
8.328181034482759
 31
0.0
  0
LINE
  5
4D
  8
A-FURN
 10
8.003224137931033
 20
8.328181034482759
 30
0.0
 11
8.012508620689655
 21
8.34675
 31
0.0
  0
LINE
  5
4E
  8
A-FURN
 10
8.012508620689655
 20
8.34675
 30
0.0
 11
7.1026293103448275
 21
8.35603448275862
 31
0.0
  0
LINE
  5
4F
  8
A-FURN
 10
7.1026293103448275
 20
8.35603448275862
 30
0.0
 11
7.084060344827586
 21
8.337465517241379
 31
0.0
  0
LINE
  5
50
  8
A-WALL
 10
0.7706120689655171
 20
7.8639568965517235
 30
0.0
 11
0.7798965517241379
 21
4.595818965517241
 31
0.0
  0
LINE
  5
51
  8
A-WALL
 10
0.7798965517241379
 20
4.595818965517241
 30
0.0
 11
0.7613275862068964
 21
4.345137931034483
 31
0.0
  0
LINE
  5
52
  8
A-WALL
 10
0.7613275862068964
 20
4.345137931034483
 30
0.0
 11
0.7891810344827586
 21
4.308
 31
0.0
  0
LINE
  5
53
  8
A-WALL
 10
0.7891810344827586
 20
4.308
 30
0.0
 11
0.7891810344827586
 21
4.196586206896551
 31
0.0
  0
LINE
  5
54
  8
A-WALL
 10
0.7891810344827586
 20
4.196586206896551
 30
0.0
 11
0.7520431034482759
 21
4.113025862068965
 31
0.0
  0
LINE
  5
55
  8
A-WALL
 10
0.7520431034482759
 20
4.113025862068965
 30
0.0
 11
0.7706120689655171
 21
4.122310344827586
 31
0.0
  0
LINE
  5
56
  8
A-WALL
 10
0.7706120689655171
 20
4.122310344827586
 30
0.0
 11
0.7984655172413793
 21
4.085172413793103
 31
0.0
  0
LINE
  5
57
  8
A-WALL
 10
0.7984655172413793
 20
4.085172413793103
 30
0.0
 11
0.7984655172413793
 21
1.2719741379310343
 31
0.0
  0
LINE
  5
58
  8
A-WALL
 10
0.7984655172413793
 20
1.2719741379310343
 30
0.0
 11
0.7798965517241379
 21
1.1419913793103447
 31
0.0
  0
LINE
  5
59
  8
A-WALL
 10
0.7798965517241379
 20
1.1419913793103447
 30
0.0
 11
0.7984655172413793
 21
1.0584310344827585
 31
0.0
  0
LINE
  5
5A
  8
A-WALL
 10
0.7984655172413793
 20
1.0584310344827585
 30
0.0
 11
0.7427586206896551
 21
1.0398620689655171
 31
0.0
  0
LINE
  5
5B
  8
A-WALL
 10
0.7427586206896551
 20
1.0398620689655171
 30
0.0
 11
0.7613275862068964
 21
1.0212931034482757
 31
0.0
  0
LINE
  5
5C
  8
A-WALL
 10
0.7613275862068964
 20
1.0212931034482757
 30
0.0
 11
2.1075775862068964
 21
1.0212931034482757
 31
0.0
  0
LINE
  5
5D
  8
A-WALL
 10
2.1075775862068964
 20
1.0212931034482757
 30
0.0
 11
2.1075775862068964
 21
1.0398620689655171
 31
0.0
  0
LINE
  5
5E
  8
A-WALL
 10
2.1075775862068964
 20
1.0398620689655171
 30
0.0
 11
0.956301724137931
 21
1.0398620689655171
 31
0.0
  0
LINE
  5
5F
  8
A-WALL
 10
0.956301724137931
 20
1.0398620689655171
 30
0.0
 11
0.9377327586206896
 21
1.0584310344827585
 31
0.0
  0
LINE
  5
60
  8
A-WALL
 10
0.9377327586206896
 20
1.0584310344827585
 30
0.0
 11
2.154
 21
1.0955689655172414
 31
0.0
  0
LINE
  5
61
  8
A-WALL
 10
2.154
 20
1.0955689655172414
 30
0.0
 11
2.1725689655172413
 21
1.077
 31
0.0
  0
LINE
  5
62
  8
A-WALL
 10
2.1725689655172413
 20
1.077
 30
0.0
 11
2.1632844827586206
 21
0.9655862068965516
 31
0.0
  0
LINE
  5
63
  8
A-WALL
 10
2.1632844827586206
 20
0.9655862068965516
 30
0.0
 11
12.645465517241378
 21
0.956301724137931
 31
0.0
  0
LINE
  5
64
  8
A-WALL
 10
12.645465517241378
 20
0.956301724137931
 30
0.0
 11
12.66403448275862
 21
0.9655862068965516
 31
0.0
  0
LINE
  5
65
  8
A-WALL
 10
12.66403448275862
 20
0.9655862068965516
 30
0.0
 11
12.66403448275862
 21
3.063879310344827
 31
0.0
  0
LINE
  5
66
  8
A-WALL
 10
12.66403448275862
 20
3.063879310344827
 30
0.0
 11
13.193249999999999
 21
3.602379310344827
 31
0.0
  0
LINE
  5
67
  8
A-WALL
 10
13.193249999999999
 20
3.602379310344827
 30
0.0
 11
13.128258620689655
 21
3.6859396551724135
 31
0.0
  0
LINE
  5
68
  8
A-WALL
 10
13.128258620689655
 20
3.6859396551724135
 30
0.0
 11
13.035413793103448
 21
3.7416465517241377
 31
0.0
  0
LINE
  5
69
  8
A-WALL
 10
13.035413793103448
 20
3.7416465517241377
 30
0.0
 11
12.812586206896551
 21
3.825206896551724
 31
0.0
  0
LINE
  5
6A
  8
A-WALL
 10
12.812586206896551
 20
3.825206896551724
 30
0.0
 11
13.016844827586207
 21
3.8994827586206893
 31
0.0
  0
LINE
  5
6B
  8
A-WALL
 10
13.016844827586207
 20
3.8994827586206893
 30
0.0
 11
13.128258620689655
 21
3.973758620689655
 31
0.0
  0
LINE
  5
6C
  8
A-WALL
 10
13.128258620689655
 20
3.973758620689655
 30
0.0
 11
13.193249999999999
 21
4.057318965517241
 31
0.0
  0
LINE
  5
6D
  8
A-WALL
 10
13.193249999999999
 20
4.057318965517241
 30
0.0
 11
12.66403448275862
 21
4.577249999999999
 31
0.0
  0
LINE
  5
6E
  8
A-WALL
 10
12.66403448275862
 20
4.577249999999999
 30
0.0
 11
12.645465517241378
 21
8.300327586206896
 31
0.0
  0
LINE
  5
6F
  8
A-WALL
 10
12.645465517241378
 20
8.300327586206896
 30
0.0
 11
14.01028448275862
 21
8.300327586206896
 31
0.0
  0
LINE
  5
70
  8
A-WALL
 10
14.01028448275862
 20
8.300327586206896
 30
0.0
 11
14.001
 21
8.09606896551724
 31
0.0
  0
LINE
  5
71
  8
A-WALL
 10
14.001
 20
8.09606896551724
 30
0.0
 11
14.214543103448275
 21
8.068215517241379
 31
0.0
  0
LINE
  5
72
  8
A-WALL
 10
14.214543103448275
 20
8.068215517241379
 30
0.0
 11
14.223827586206896
 21
1.3555344827586207
 31
0.0
  0
LINE
  5
73
  8
A-WALL
 10
14.223827586206896
 20
1.3555344827586207
 30
0.0
 11
14.01028448275862
 21
1.3369655172413792
 31
0.0
  0
LINE
  5
74
  8
A-WALL
 10
14.01028448275862
 20
1.3369655172413792
 30
0.0
 11
14.02885344827586
 21
1.1234224137931033
 31
0.0
  0
LINE
  5
75
  8
A-WALL
 10
14.02885344827586
 20
1.1234224137931033
 30
0.0
 11
14.168120689655172
 21
1.1419913793103447
 31
0.0
  0
LINE
  5
76
  8
A-WALL
 10
14.168120689655172
 20
1.1419913793103447
 30
0.0
 11
14.038137931034482
 21
1.1698448275862068
 31
0.0
  0
LINE
  5
77
  8
A-WALL
 10
14.038137931034482
 20
1.1698448275862068
 30
0.0
 11
14.038137931034482
 21
1.3091120689655171
 31
0.0
  0
LINE
  5
78
  8
A-WALL
 10
14.038137931034482
 20
1.3091120689655171
 30
0.0
 11
14.056706896551724
 21
1.3276810344827585
 31
0.0
  0
LINE
  5
79
  8
A-WALL
 10
14.056706896551724
 20
1.3276810344827585
 30
0.0
 11
14.205258620689655
 21
1.3091120689655171
 31
0.0
  0
LINE
  5
7A
  8
A-WALL
 10
14.205258620689655
 20
1.3091120689655171
 30
0.0
 11
14.205258620689655
 21
1.104853448275862
 31
0.0
  0
LINE
  5
7B
  8
A-WALL
 10
14.205258620689655
 20
1.104853448275862
 30
0.0
 11
12.701172413793103
 21
1.0955689655172414
 31
0.0
  0
LINE
  5
7C
  8
A-WALL
 10
12.701172413793103
 20
1.0955689655172414
 30
0.0
 11
12.766163793103447
 21
1.077
 31
0.0
  0
LINE
  5
7D
  8
A-WALL
 10
12.766163793103447
 20
1.077
 30
0.0
 11
14.214543103448275
 21
1.077
 31
0.0
  0
LINE
  5
7E
  8
A-WALL
 10
14.214543103448275
 20
1.077
 30
0.0
 11
14.242396551724138
 21
1.0955689655172414
 31
0.0
  0
LINE
  5
7F
  8
A-WALL
 10
14.242396551724138
 20
1.0955689655172414
 30
0.0
 11
14.242396551724138
 21
8.318896551724137
 31
0.0
  0
LINE
  5
80
  8
A-WALL
 10
14.242396551724138
 20
8.318896551724137
 30
0.0
 11
12.66403448275862
 21
8.318896551724137
 31
0.0
  0
LINE
  5
81
  8
A-WALL
 10
12.66403448275862
 20
8.318896551724137
 30
0.0
 11
12.645465517241378
 21
8.34675
 31
0.0
  0
LINE
  5
82
  8
A-WALL
 10
12.645465517241378
 20
8.34675
 30
0.0
 11
12.66403448275862
 21
8.365318965517242
 31
0.0
  0
LINE
  5
83
  8
A-WALL
 10
12.66403448275862
 20
8.365318965517242
 30
0.0
 11
14.279534482758619
 21
8.35603448275862
 31
0.0
  0
LINE
  5
84
  8
A-WALL
 10
14.279534482758619
 20
8.35603448275862
 30
0.0
 11
14.28881896551724
 21
8.374603448275861
 31
0.0
  0
LINE
  5
85
  8
A-WALL
 10
14.28881896551724
 20
8.374603448275861
 30
0.0
 11
12.66403448275862
 21
8.374603448275861
 31
0.0
  0
LINE
  5
86
  8
A-WALL
 10
12.66403448275862
 20
8.374603448275861
 30
0.0
 11
12.65475
 21
8.439594827586207
 31
0.0
  0
LINE
  5
87
  8
A-WALL
 10
12.65475
 20
8.439594827586207
 30
0.0
 11
11.531327586206896
 21
8.448879310344827
 31
0.0
  0
LINE
  5
88
  8
A-WALL
 10
11.531327586206896
 20
8.448879310344827
 30
0.0
 11
11.512758620689654
 21
8.439594827586207
 31
0.0
  0
LINE
  5
89
  8
A-WALL
 10
11.512758620689654
 20
8.439594827586207
 30
0.0
 11
11.531327586206896
 21
8.402456896551724
 31
0.0
  0
LINE
  5
8A
  8
A-WALL
 10
11.531327586206896
 20
8.402456896551724
 30
0.0
 11
11.512758620689654
 21
8.244620689655171
 31
0.0
  0
LINE
  5
8B
  8
A-WALL
 10
11.512758620689654
 20
8.244620689655171
 30
0.0
 11
9.516594827586205
 21
8.244620689655171
 31
0.0
  0
LINE
  5
8C
  8
A-WALL
 10
9.516594827586205
 20
8.244620689655171
 30
0.0
 11
9.498025862068966
 21
8.281758620689654
 31
0.0
  0
LINE
  5
8D
  8
A-WALL
 10
9.498025862068966
 20
8.281758620689654
 30
0.0
 11
9.525879310344827
 21
8.34675
 31
0.0
  0
LINE
  5
8E
  8
A-WALL
 10
9.525879310344827
 20
8.34675
 30
0.0
 11
9.498025862068966
 21
8.365318965517242
 31
0.0
  0
LINE
  5
8F
  8
A-WALL
 10
9.498025862068966
 20
8.365318965517242
 30
0.0
 11
9.516594827586205
 21
8.430310344827586
 31
0.0
  0
LINE
  5
90
  8
A-WALL
 10
9.516594827586205
 20
8.430310344827586
 30
0.0
 11
11.494189655172413
 21
8.439594827586207
 31
0.0
  0
LINE
  5
91
  8
A-WALL
 10
11.494189655172413
 20
8.439594827586207
 30
0.0
 11
11.475620689655171
 21
8.458163793103447
 31
0.0
  0
LINE
  5
92
  8
A-WALL
 10
11.475620689655171
 20
8.458163793103447
 30
0.0
 11
9.57230172413793
 21
8.458163793103447
 31
0.0
  0
LINE
  5
93
  8
A-WALL
 10
9.57230172413793
 20
8.458163793103447
 30
0.0
 11
9.516594827586205
 21
8.439594827586207
 31
0.0
  0
LINE
  5
94
  8
A-WALL
 10
9.516594827586205
 20
8.439594827586207
 30
0.0
 11
7.093344827586207
 21
8.458163793103447
 31
0.0
  0
LINE
  5
95
  8
A-WALL
 10
7.093344827586207
 20
8.458163793103447
 30
0.0
 11
7.074775862068965
 21
8.439594827586207
 31
0.0
  0
LINE
  5
96
  8
A-WALL
 10
7.074775862068965
 20
8.439594827586207
 30
0.0
 11
7.111913793103448
 21
8.421025862068966
 31
0.0
  0
LINE
  5
97
  8
A-WALL
 10
7.111913793103448
 20
8.421025862068966
 30
0.0
 11
8.031077586206896
 21
8.430310344827586
 31
0.0
  0
LINE
  5
98
  8
A-WALL
 10
8.031077586206896
 20
8.430310344827586
 30
0.0
 11
8.058931034482757
 21
8.300327586206896
 31
0.0
  0
LINE
  5
99
  8
A-WALL
 10
8.058931034482757
 20
8.300327586206896
 30
0.0
 11
8.031077586206896
 21
8.244620689655171
 31
0.0
  0
LINE
  5
9A
  8
A-WALL
 10
8.031077586206896
 20
8.244620689655171
 30
0.0
 11
7.056206896551724
 21
8.244620689655171
 31
0.0
  0
LINE
  5
9B
  8
A-WALL
 10
7.056206896551724
 20
8.244620689655171
 30
0.0
 11
7.0376379310344825
 21
8.281758620689654
 31
0.0
  0
LINE
  5
9C
  8
A-WALL
 10
7.0376379310344825
 20
8.281758620689654
 30
0.0
 11
7.056206896551724
 21
8.439594827586207
 31
0.0
  0
LINE
  5
9D
  8
A-WALL
 10
7.056206896551724
 20
8.439594827586207
 30
0.0
 11
5.273586206896551
 21
8.448879310344827
 31
0.0
  0
LINE
  5
9E
  8
A-WALL
 10
5.273586206896551
 20
8.448879310344827
 30
0.0
 11
5.245732758620689
 21
8.430310344827586
 31
0.0
  0
LINE
  5
9F
  8
A-WALL
 10
5.245732758620689
 20
8.430310344827586
 30
0.0
 11
5.208594827586206
 21
8.458163793103447
 31
0.0
  0
LINE
  5
A0
  8
A-WALL
 10
5.208594827586206
 20
8.458163793103447
 30
0.0
 11
3.50025
 21
8.458163793103447
 31
0.0
  0
LINE
  5
A1
  8
A-WALL
 10
3.50025
 20
8.458163793103447
 30
0.0
 11
3.463112068965517
 21
8.430310344827586
 31
0.0
  0
LINE
  5
A2
  8
A-WALL
 10
3.463112068965517
 20
8.430310344827586
 30
0.0
 11
2.1632844827586206
 21
8.439594827586207
 31
0.0
  0
LINE
  5
A3
  8
A-WALL
 10
2.1632844827586206
 20
8.439594827586207
 30
0.0
 11
2.1632844827586206
 21
7.520431034482758
 31
0.0
  0
LINE
  5
A4
  8
A-WALL
 10
2.1632844827586206
 20
7.520431034482758
 30
0.0
 11
2.126146551724138
 21
7.27903448275862
 31
0.0
  0
LINE
  5
A5
  8
A-WALL
 10
2.126146551724138
 20
7.27903448275862
 30
0.0
 11
1.5040862068965517
 21
7.27903448275862
 31
0.0
  0
LINE
  5
A6
  8
A-WALL
 10
1.5040862068965517
 20
7.27903448275862
 30
0.0
 11
1.4855172413793103
 21
7.306887931034482
 31
0.0
  0
LINE
  5
A7
  8
A-WALL
 10
1.4855172413793103
 20
7.306887931034482
 30
0.0
 11
1.4855172413793103
 21
7.54828448275862
 31
0.0
  0
LINE
  5
A8
  8
A-WALL
 10
1.4855172413793103
 20
7.54828448275862
 30
0.0
 11
1.5040862068965517
 21
7.566853448275862
 31
0.0
  0
LINE
  5
A9
  8
A-WALL
 10
1.5040862068965517
 20
7.566853448275862
 30
0.0
 11
2.1075775862068964
 21
7.557568965517241
 31
0.0
  0
LINE
  5
AA
  8
A-WALL
 10
2.1075775862068964
 20
7.557568965517241
 30
0.0
 11
2.116862068965517
 21
7.5761379310344825
 31
0.0
  0
LINE
  5
AB
  8
A-WALL
 10
2.116862068965517
 20
7.5761379310344825
 30
0.0
 11
1.5040862068965517
 21
7.5761379310344825
 31
0.0
  0
LINE
  5
AC
  8
A-WALL
 10
1.5040862068965517
 20
7.5761379310344825
 30
0.0
 11
1.4855172413793103
 21
7.594706896551724
 31
0.0
  0
LINE
  5
AD
  8
A-WALL
 10
1.4855172413793103
 20
7.594706896551724
 30
0.0
 11
1.494801724137931
 21
7.854672413793103
 31
0.0
  0
LINE
  5
AE
  8
A-WALL
 10
1.494801724137931
 20
7.854672413793103
 30
0.0
 11
2.1075775862068964
 21
7.854672413793103
 31
0.0
  0
LINE
  5
AF
  8
A-WALL
 10
2.1075775862068964
 20
7.854672413793103
 30
0.0
 11
2.126146551724138
 21
7.873241379310344
 31
0.0
  0
LINE
  5
B0
  8
A-WALL
 10
2.126146551724138
 20
7.873241379310344
 30
0.0
 11
0.7706120689655171
 21
7.8639568965517235
 31
0.0
  0
LINE
  5
B1
  8
A-WALL
 10
4.865068965517241
 20
1.077
 30
0.0
 11
4.883637931034483
 21
1.104853448275862
 31
0.0
  0
LINE
  5
B2
  8
A-WALL
 10
4.883637931034483
 20
1.104853448275862
 30
0.0
 11
5.51498275862069
 21
1.104853448275862
 31
0.0
  0
LINE
  5
B3
  8
A-WALL
 10
5.51498275862069
 20
1.104853448275862
 30
0.0
 11
5.626396551724137
 21
1.160560344827586
 31
0.0
  0
LINE
  5
B4
  8
A-WALL
 10
5.626396551724137
 20
1.160560344827586
 30
0.0
 11
5.719241379310344
 21
1.104853448275862
 31
0.0
  0
LINE
  5
B5
  8
A-WALL
 10
5.719241379310344
 20
1.104853448275862
 30
0.0
 11
6.833379310344827
 21
1.1141379310344828
 31
0.0
  0
LINE
  5
B6
  8
A-WALL
 10
6.833379310344827
 20
1.1141379310344828
 30
0.0
 11
6.907655172413793
 21
1.104853448275862
 31
0.0
  0
LINE
  5
B7
  8
A-WALL
 10
6.907655172413793
 20
1.104853448275862
 30
0.0
 11
6.926224137931034
 21
1.0305775862068964
 31
0.0
  0
LINE
  5
B8
  8
A-WALL
 10
6.926224137931034
 20
1.0305775862068964
 30
0.0
 11
6.898370689655172
 21
1.012008620689655
 31
0.0
  0
LINE
  5
B9
  8
A-WALL
 10
6.898370689655172
 20
1.012008620689655
 30
0.0
 11
4.902206896551724
 21
1.012008620689655
 31
0.0
  0
LINE
  5
BA
  8
A-WALL
 10
4.902206896551724
 20
1.012008620689655
 30
0.0
 11
4.865068965517241
 21
1.077
 31
0.0
  0
LINE
  5
BB
  8
A-WALL
 10
2.209706896551724
 20
1.281258620689655
 30
0.0
 11
2.1911379310344827
 21
1.104853448275862
 31
0.0
  0
LINE
  5
BC
  8
A-WALL
 10
2.1911379310344827
 20
1.104853448275862
 30
0.0
 11
2.0147327586206893
 21
1.1234224137931033
 31
0.0
  0
LINE
  5
BD
  8
A-WALL
 10
2.0147327586206893
 20
1.1234224137931033
 30
0.0
 11
2.0333017241379308
 21
1.281258620689655
 31
0.0
  0
LINE
  5
BE
  8
A-WALL
 10
2.0333017241379308
 20
1.281258620689655
 30
0.0
 11
2.144715517241379
 21
1.2998275862068964
 31
0.0
  0
LINE
  5
BF
  8
A-WALL
 10
2.144715517241379
 20
1.2998275862068964
 30
0.0
 11
2.209706896551724
 21
1.281258620689655
 31
0.0
  0
LINE
  5
C0
  8
A-WALL
 10
2.2468448275862065
 20
1.847612068965517
 30
0.0
 11
2.3118362068965514
 21
1.819758620689655
 31
0.0
  0
LINE
  5
C1
  8
A-WALL
 10
2.3118362068965514
 20
1.819758620689655
 30
0.0
 11
2.321120689655172
 21
1.160560344827586
 31
0.0
  0
LINE
  5
C2
  8
A-WALL
 10
2.321120689655172
 20
1.160560344827586
 30
0.0
 11
2.4046810344827585
 21
1.104853448275862
 31
0.0
  0
LINE
  5
C3
  8
A-WALL
 10
2.4046810344827585
 20
1.104853448275862
 30
0.0
 11
2.9338965517241378
 21
1.104853448275862
 31
0.0
  0
LINE
  5
C4
  8
A-WALL
 10
2.9338965517241378
 20
1.104853448275862
 30
0.0
 11
2.952465517241379
 21
1.0398620689655171
 31
0.0
  0
LINE
  5
C5
  8
A-WALL
 10
2.952465517241379
 20
1.0398620689655171
 30
0.0
 11
2.924612068965517
 21
1.012008620689655
 31
0.0
  0
LINE
  5
C6
  8
A-WALL
 10
2.924612068965517
 20
1.012008620689655
 30
0.0
 11
2.2375603448275863
 21
1.012008620689655
 31
0.0
  0
LINE
  5
C7
  8
A-WALL
 10
2.2375603448275863
 20
1.012008620689655
 30
0.0
 11
2.218991379310345
 21
1.0305775862068964
 31
0.0
  0
LINE
  5
C8
  8
A-WALL
 10
2.218991379310345
 20
1.0305775862068964
 30
0.0
 11
2.2468448275862065
 21
1.132706896551724
 31
0.0
  0
LINE
  5
C9
  8
A-WALL
 10
2.2468448275862065
 20
1.132706896551724
 30
0.0
 11
2.2468448275862065
 21
1.2719741379310343
 31
0.0
  0
LINE
  5
CA
  8
A-WALL
 10
2.2468448275862065
 20
1.2719741379310343
 30
0.0
 11
2.218991379310345
 21
1.3276810344827585
 31
0.0
  0
LINE
  5
CB
  8
A-WALL
 10
2.218991379310345
 20
1.3276810344827585
 30
0.0
 11
2.218991379310345
 21
1.819758620689655
 31
0.0
  0
LINE
  5
CC
  8
A-WALL
 10
2.218991379310345
 20
1.819758620689655
 30
0.0
 11
2.2468448275862065
 21
1.847612068965517
 31
0.0
  0
LINE
  5
CD
  8
A-WALL
 10
12.496913793103447
 20
3.0545948275862065
 30
0.0
 11
12.552620689655171
 21
3.026741379310345
 31
0.0
  0
LINE
  5
CE
  8
A-WALL
 10
12.552620689655171
 20
3.026741379310345
 30
0.0
 11
12.552620689655171
 21
1.2626896551724136
 31
0.0
  0
LINE
  5
CF
  8
A-WALL
 10
12.552620689655171
 20
1.2626896551724136
 30
0.0
 11
12.571189655172413
 21
1.3091120689655171
 31
0.0
  0
LINE
  5
D0
  8
A-WALL
 10
12.571189655172413
 20
1.3091120689655171
 30
0.0
 11
12.561905172413793
 21
3.026741379310345
 31
0.0
  0
LINE
  5
D1
  8
A-WALL
 10
12.561905172413793
 20
3.026741379310345
 30
0.0
 11
12.580474137931034
 21
3.0545948275862065
 31
0.0
  0
LINE
  5
D2
  8
A-WALL
 10
12.580474137931034
 20
3.0545948275862065
 30
0.0
 11
12.645465517241378
 21
3.0360258620689655
 31
0.0
  0
LINE
  5
D3
  8
A-WALL
 10
12.645465517241378
 20
3.0360258620689655
 30
0.0
 11
12.645465517241378
 21
1.2534051724137931
 31
0.0
  0
LINE
  5
D4
  8
A-WALL
 10
12.645465517241378
 20
1.2534051724137931
 30
0.0
 11
12.617612068965517
 21
1.2348362068965517
 31
0.0
  0
LINE
  5
D5
  8
A-WALL
 10
12.617612068965517
 20
1.2348362068965517
 30
0.0
 11
12.469060344827586
 21
1.2534051724137931
 31
0.0
  0
LINE
  5
D6
  8
A-WALL
 10
12.469060344827586
 20
1.2534051724137931
 30
0.0
 11
12.469060344827586
 21
3.026741379310345
 31
0.0
  0
LINE
  5
D7
  8
A-WALL
 10
12.469060344827586
 20
3.026741379310345
 30
0.0
 11
12.496913793103447
 21
3.0545948275862065
 31
0.0
  0
LINE
  5
D8
  8
A-FURN
 10
1.4855172413793103
 20
4.595818965517241
 30
0.0
 11
1.5133706896551724
 21
4.614387931034482
 31
0.0
  0
LINE
  5
D9
  8
A-FURN
 10
1.5133706896551724
 20
4.614387931034482
 30
0.0
 11
2.144715517241379
 21
4.614387931034482
 31
0.0
  0
LINE
  5
DA
  8
A-FURN
 10
2.144715517241379
 20
4.614387931034482
 30
0.0
 11
2.1632844827586206
 21
4.595818965517241
 31
0.0
  0
LINE
  5
DB
  8
A-FURN
 10
2.1632844827586206
 20
4.595818965517241
 30
0.0
 11
2.1632844827586206
 21
4.2244396551724135
 31
0.0
  0
LINE
  5
DC
  8
A-FURN
 10
2.1632844827586206
 20
4.2244396551724135
 30
0.0
 11
2.144715517241379
 21
4.215155172413793
 31
0.0
  0
LINE
  5
DD
  8
A-FURN
 10
2.144715517241379
 20
4.215155172413793
 30
0.0
 11
2.1725689655172413
 21
4.196586206896551
 31
0.0
  0
LINE
  5
DE
  8
A-FURN
 10
2.1725689655172413
 20
4.196586206896551
 30
0.0
 11
2.1725689655172413
 21
4.131594827586206
 31
0.0
  0
LINE
  5
DF
  8
A-FURN
 10
2.1725689655172413
 20
4.131594827586206
 30
0.0
 11
1.968310344827586
 21
4.140879310344827
 31
0.0
  0
LINE
  5
E0
  8
A-FURN
 10
1.968310344827586
 20
4.140879310344827
 30
0.0
 11
1.968310344827586
 21
4.289431034482758
 31
0.0
  0
LINE
  5
E1
  8
A-FURN
 10
1.968310344827586
 20
4.289431034482758
 30
0.0
 11
2.0982931034482757
 21
4.298715517241379
 31
0.0
  0
LINE
  5
E2
  8
A-FURN
 10
2.0982931034482757
 20
4.298715517241379
 30
0.0
 11
2.089008620689655
 21
4.335853448275862
 31
0.0
  0
LINE
  5
E3
  8
A-FURN
 10
2.089008620689655
 20
4.335853448275862
 30
0.0
 11
1.6155
 21
4.345137931034483
 31
0.0
  0
LINE
  5
E4
  8
A-FURN
 10
1.6155
 20
4.345137931034483
 30
0.0
 11
1.5319396551724136
 21
4.3172844827586205
 31
0.0
  0
LINE
  5
E5
  8
A-FURN
 10
1.5319396551724136
 20
4.3172844827586205
 30
0.0
 11
1.5133706896551724
 21
4.363706896551724
 31
0.0
  0
LINE
  5
E6
  8
A-FURN
 10
1.5133706896551724
 20
4.363706896551724
 30
0.0
 11
1.6247844827586206
 21
4.419413793103448
 31
0.0
  0
LINE
  5
E7
  8
A-FURN
 10
1.6247844827586206
 20
4.419413793103448
 30
0.0
 11
1.6340689655172413
 21
4.44726724137931
 31
0.0
  0
LINE
  5
E8
  8
A-FURN
 10
1.6340689655172413
 20
4.44726724137931
 30
0.0
 11
1.6247844827586206
 21
4.465836206896552
 31
0.0
  0
LINE
  5
E9
  8
A-FURN
 10
1.6247844827586206
 20
4.465836206896552
 30
0.0
 11
1.5783620689655171
 21
4.44726724137931
 31
0.0
  0
LINE
  5
EA
  8
A-FURN
 10
1.5783620689655171
 20
4.44726724137931
 30
0.0
 11
1.5040862068965517
 21
4.372991379310345
 31
0.0
  0
LINE
  5
EB
  8
A-FURN
 10
1.5040862068965517
 20
4.372991379310345
 30
0.0
 11
1.4855172413793103
 21
4.391560344827586
 31
0.0
  0
LINE
  5
EC
  8
A-FURN
 10
1.4855172413793103
 20
4.391560344827586
 30
0.0
 11
1.4855172413793103
 21
4.595818965517241
 31
0.0
  0
LINE
  5
ED
  8
A-FURN
 10
1.4669482758620689
 20
4.595818965517241
 30
0.0
 11
1.4483793103448275
 21
4.335853448275862
 31
0.0
  0
LINE
  5
EE
  8
A-FURN
 10
1.4483793103448275
 20
4.335853448275862
 30
0.0
 11
0.8170344827586207
 21
4.326568965517241
 31
0.0
  0
LINE
  5
EF
  8
A-FURN
 10
0.8170344827586207
 20
4.326568965517241
 30
0.0
 11
0.7984655172413793
 21
4.345137931034483
 31
0.0
  0
LINE
  5
F0
  8
A-FURN
 10
0.7984655172413793
 20
4.345137931034483
 30
0.0
 11
0.80775
 21
4.6051034482758615
 31
0.0
  0
LINE
  5
F1
  8
A-FURN
 10
0.80775
 20
4.6051034482758615
 30
0.0
 11
1.4483793103448275
 21
4.614387931034482
 31
0.0
  0
LINE
  5
F2
  8
A-FURN
 10
1.4483793103448275
 20
4.614387931034482
 30
0.0
 11
1.4669482758620689
 21
4.595818965517241
 31
0.0
  0
LINE
  5
F3
  8
A-WALL
 10
5.644965517241379
 20
4.632956896551724
 30
0.0
 11
5.66353448275862
 21
4.6051034482758615
 31
0.0
  0
LINE
  5
F4
  8
A-WALL
 10
5.66353448275862
 20
4.6051034482758615
 30
0.0
 11
5.644965517241379
 21
4.58653448275862
 31
0.0
  0
LINE
  5
F5
  8
A-WALL
 10
5.644965517241379
 20
4.58653448275862
 30
0.0
 11
5.626396551724137
 21
4.6051034482758615
 31
0.0
  0
LINE
  5
F6
  8
A-WALL
 10
5.626396551724137
 20
4.6051034482758615
 30
0.0
 11
5.644965517241379
 21
4.632956896551724
 31
0.0
  0
LINE
  5
F7
  8
A-FURN
 10
0.7984655172413793
 20
5.190025862068965
 30
0.0
 11
0.8170344827586207
 21
5.208594827586206
 31
0.0
  0
LINE
  5
F8
  8
A-FURN
 10
0.8170344827586207
 20
5.208594827586206
 30
0.0
 11
1.4483793103448275
 21
5.208594827586206
 31
0.0
  0
LINE
  5
F9
  8
A-FURN
 10
1.4483793103448275
 20
5.208594827586206
 30
0.0
 11
1.4669482758620689
 21
5.190025862068965
 31
0.0
  0
LINE
  5
FA
  8
A-FURN
 10
1.4669482758620689
 20
5.190025862068965
 30
0.0
 11
1.4669482758620689
 21
4.642241379310344
 31
0.0
  0
LINE
  5
FB
  8
A-FURN
 10
1.4669482758620689
 20
4.642241379310344
 30
0.0
 11
1.4483793103448275
 21
4.623672413793103
 31
0.0
  0
LINE
  5
FC
  8
A-FURN
 10
1.4483793103448275
 20
4.623672413793103
 30
0.0
 11
0.80775
 21
4.623672413793103
 31
0.0
  0
LINE
  5
FD
  8
A-FURN
 10
0.80775
 20
4.623672413793103
 30
0.0
 11
0.7891810344827586
 21
4.651525862068965
 31
0.0
  0
LINE
  5
FE
  8
A-FURN
 10
0.7891810344827586
 20
4.651525862068965
 30
0.0
 11
0.8170344827586207
 21
4.902206896551724
 31
0.0
  0
LINE
  5
FF
  8
A-FURN
 10
0.8170344827586207
 20
4.902206896551724
 30
0.0
 11
1.4205258620689654
 21
4.892922413793103
 31
0.0
  0
LINE
  5
100
  8
A-FURN
 10
1.4205258620689654
 20
4.892922413793103
 30
0.0
 11
1.429810344827586
 21
4.911491379310345
 31
0.0
  0
LINE
  5
101
  8
A-FURN
 10
1.429810344827586
 20
4.911491379310345
 30
0.0
 11
1.401956896551724
 21
4.930060344827586
 31
0.0
  0
LINE
  5
102
  8
A-FURN
 10
1.401956896551724
 20
4.930060344827586
 30
0.0
 11
0.80775
 21
4.9207758620689654
 31
0.0
  0
LINE
  5
103
  8
A-FURN
 10
0.80775
 20
4.9207758620689654
 30
0.0
 11
0.7984655172413793
 21
5.190025862068965
 31
0.0
  0
LINE
  5
104
  8
A-FURN
 10
2.2282758620689656
 20
5.626396551724137
 30
0.0
 11
2.2839827586206893
 21
5.626396551724137
 31
0.0
  0
LINE
  5
105
  8
A-FURN
 10
2.2839827586206893
 20
5.626396551724137
 30
0.0
 11
2.3118362068965514
 21
5.598543103448275
 31
0.0
  0
LINE
  5
106
  8
A-FURN
 10
2.3118362068965514
 20
5.598543103448275
 30
0.0
 11
2.3118362068965514
 21
5.004336206896552
 31
0.0
  0
LINE
  5
107
  8
A-FURN
 10
2.3118362068965514
 20
5.004336206896552
 30
0.0
 11
2.3489741379310343
 21
4.939344827586207
 31
0.0
  0
LINE
  5
108
  8
A-FURN
 10
2.3489741379310343
 20
4.939344827586207
 30
0.0
 11
2.3118362068965514
 21
4.8557844827586205
 31
0.0
  0
LINE
  5
109
  8
A-FURN
 10
2.3118362068965514
 20
4.8557844827586205
 30
0.0
 11
2.321120689655172
 21
3.5373879310344827
 31
0.0
  0
LINE
  5
10A
  8
A-FURN
 10
2.321120689655172
 20
3.5373879310344827
 30
0.0
 11
2.29326724137931
 21
3.490965517241379
 31
0.0
  0
LINE
  5
10B
  8
A-FURN
 10
2.29326724137931
 20
3.490965517241379
 30
0.0
 11
2.218991379310345
 21
3.5095344827586206
 31
0.0
  0
LINE
  5
10C
  8
A-FURN
 10
2.218991379310345
 20
3.5095344827586206
 30
0.0
 11
2.2004224137931034
 21
5.570689655172413
 31
0.0
  0
LINE
  5
10D
  8
A-FURN
 10
2.2004224137931034
 20
5.570689655172413
 30
0.0
 11
2.2282758620689656
 21
5.626396551724137
 31
0.0
  0
LINE
  5
10E
  8
A-FURN
 10
1.5040862068965517
 20
5.79351724137931
 30
0.0
 11
2.126146551724138
 21
5.79351724137931
 31
0.0
  0
LINE
  5
10F
  8
A-FURN
 10
2.126146551724138
 20
5.79351724137931
 30
0.0
 11
2.144715517241379
 21
5.7749482758620685
 31
0.0
  0
LINE
  5
110
  8
A-FURN
 10
2.144715517241379
 20
5.7749482758620685
 30
0.0
 11
2.1632844827586206
 21
5.635681034482758
 31
0.0
  0
LINE
  5
111
  8
A-FURN
 10
2.1632844827586206
 20
5.635681034482758
 30
0.0
 11
2.144715517241379
 21
5.52426724137931
 31
0.0
  0
LINE
  5
112
  8
A-FURN
 10
2.144715517241379
 20
5.52426724137931
 30
0.0
 11
2.1632844827586206
 21
5.496413793103448
 31
0.0
  0
LINE
  5
113
  8
A-FURN
 10
2.1632844827586206
 20
5.496413793103448
 30
0.0
 11
2.154
 21
4.623672413793103
 31
0.0
  0
LINE
  5
114
  8
A-FURN
 10
2.154
 20
4.623672413793103
 30
0.0
 11
1.5040862068965517
 21
4.623672413793103
 31
0.0
  0
LINE
  5
115
  8
A-FURN
 10
1.5040862068965517
 20
4.623672413793103
 30
0.0
 11
1.4855172413793103
 21
4.642241379310344
 31
0.0
  0
LINE
  5
116
  8
A-FURN
 10
1.4855172413793103
 20
4.642241379310344
 30
0.0
 11
1.494801724137931
 21
5.199310344827586
 31
0.0
  0
LINE
  5
117
  8
A-FURN
 10
1.494801724137931
 20
5.199310344827586
 30
0.0
 11
2.116862068965517
 21
5.208594827586206
 31
0.0
  0
LINE
  5
118
  8
A-FURN
 10
2.116862068965517
 20
5.208594827586206
 30
0.0
 11
2.1075775862068964
 21
5.227163793103448
 31
0.0
  0
LINE
  5
119
  8
A-FURN
 10
2.1075775862068964
 20
5.227163793103448
 30
0.0
 11
1.5040862068965517
 21
5.217879310344827
 31
0.0
  0
LINE
  5
11A
  8
A-FURN
 10
1.5040862068965517
 20
5.217879310344827
 30
0.0
 11
1.4855172413793103
 21
5.2364482758620685
 31
0.0
  0
LINE
  5
11B
  8
A-FURN
 10
1.4855172413793103
 20
5.2364482758620685
 30
0.0
 11
1.4855172413793103
 21
5.4871293103448275
 31
0.0
  0
LINE
  5
11C
  8
A-FURN
 10
1.4855172413793103
 20
5.4871293103448275
 30
0.0
 11
1.5040862068965517
 21
5.505698275862069
 31
0.0
  0
LINE
  5
11D
  8
A-FURN
 10
1.5040862068965517
 20
5.505698275862069
 30
0.0
 11
2.116862068965517
 21
5.51498275862069
 31
0.0
  0
LINE
  5
11E
  8
A-FURN
 10
2.116862068965517
 20
5.51498275862069
 30
0.0
 11
2.1075775862068964
 21
5.533551724137931
 31
0.0
  0
LINE
  5
11F
  8
A-FURN
 10
2.1075775862068964
 20
5.533551724137931
 30
0.0
 11
1.5133706896551724
 21
5.52426724137931
 31
0.0
  0
LINE
  5
120
  8
A-FURN
 10
1.5133706896551724
 20
5.52426724137931
 30
0.0
 11
1.4855172413793103
 21
5.542836206896552
 31
0.0
  0
LINE
  5
121
  8
A-FURN
 10
1.4855172413793103
 20
5.542836206896552
 30
0.0
 11
1.4855172413793103
 21
5.7749482758620685
 31
0.0
  0
LINE
  5
122
  8
A-FURN
 10
1.4855172413793103
 20
5.7749482758620685
 30
0.0
 11
1.5040862068965517
 21
5.79351724137931
 31
0.0
  0
LINE
  5
123
  8
A-FURN
 10
1.5319396551724136
 20
4.9207758620689654
 30
0.0
 11
1.5412241379310343
 21
4.892922413793103
 31
0.0
  0
LINE
  5
124
  8
A-FURN
 10
1.5412241379310343
 20
4.892922413793103
 30
0.0
 11
2.1075775862068964
 21
4.892922413793103
 31
0.0
  0
LINE
  5
125
  8
A-FURN
 10
2.1075775862068964
 20
4.892922413793103
 30
0.0
 11
2.1075775862068964
 21
4.9207758620689654
 31
0.0
  0
LINE
  5
126
  8
A-FURN
 10
2.1075775862068964
 20
4.9207758620689654
 30
0.0
 11
2.02401724137931
 21
4.930060344827586
 31
0.0
  0
LINE
  5
127
  8
A-FURN
 10
2.02401724137931
 20
4.930060344827586
 30
0.0
 11
1.5319396551724136
 21
4.9207758620689654
 31
0.0
  0
LINE
  5
128
  8
A-FURN
 10
1.4855172413793103
 20
6.072051724137931
 30
0.0
 11
1.522655172413793
 21
6.090620689655172
 31
0.0
  0
LINE
  5
129
  8
A-FURN
 10
1.522655172413793
 20
6.090620689655172
 30
0.0
 11
2.1354310344827585
 21
6.081336206896551
 31
0.0
  0
LINE
  5
12A
  8
A-FURN
 10
2.1354310344827585
 20
6.081336206896551
 30
0.0
 11
2.144715517241379
 21
5.821370689655172
 31
0.0
  0
LINE
  5
12B
  8
A-FURN
 10
2.144715517241379
 20
5.821370689655172
 30
0.0
 11
1.5133706896551724
 21
5.812086206896551
 31
0.0
  0
LINE
  5
12C
  8
A-FURN
 10
1.5133706896551724
 20
5.812086206896551
 30
0.0
 11
1.4855172413793103
 21
5.830655172413793
 31
0.0
  0
LINE
  5
12D
  8
A-FURN
 10
1.4855172413793103
 20
5.830655172413793
 30
0.0
 11
1.4855172413793103
 21
6.072051724137931
 31
0.0
  0
LINE
  5
12E
  8
A-FURN
 10
1.4483793103448275
 20
6.090620689655172
 30
0.0
 11
1.4669482758620689
 21
6.072051724137931
 31
0.0
  0
LINE
  5
12F
  8
A-FURN
 10
1.4669482758620689
 20
6.072051724137931
 30
0.0
 11
1.4669482758620689
 21
5.2364482758620685
 31
0.0
  0
LINE
  5
130
  8
A-FURN
 10
1.4669482758620689
 20
5.2364482758620685
 30
0.0
 11
1.4483793103448275
 21
5.217879310344827
 31
0.0
  0
LINE
  5
131
  8
A-FURN
 10
1.4483793103448275
 20
5.217879310344827
 30
0.0
 11
0.80775
 21
5.217879310344827
 31
0.0
  0
LINE
  5
132
  8
A-FURN
 10
0.80775
 20
5.217879310344827
 30
0.0
 11
0.80775
 21
5.505698275862069
 31
0.0
  0
LINE
  5
133
  8
A-FURN
 10
0.80775
 20
5.505698275862069
 30
0.0
 11
1.4390948275862068
 21
5.51498275862069
 31
0.0
  0
LINE
  5
134
  8
A-FURN
 10
1.4390948275862068
 20
5.51498275862069
 30
0.0
 11
1.429810344827586
 21
5.533551724137931
 31
0.0
  0
LINE
  5
135
  8
A-FURN
 10
1.429810344827586
 20
5.533551724137931
 30
0.0
 11
0.80775
 21
5.533551724137931
 31
0.0
  0
LINE
  5
136
  8
A-FURN
 10
0.80775
 20
5.533551724137931
 30
0.0
 11
0.7891810344827586
 21
5.765663793103448
 31
0.0
  0
LINE
  5
137
  8
A-FURN
 10
0.7891810344827586
 20
5.765663793103448
 30
0.0
 11
0.8170344827586207
 21
5.79351724137931
 31
0.0
  0
LINE
  5
138
  8
A-FURN
 10
0.8170344827586207
 20
5.79351724137931
 30
0.0
 11
1.401956896551724
 21
5.784232758620689
 31
0.0
  0
LINE
  5
139
  8
A-FURN
 10
1.401956896551724
 20
5.784232758620689
 30
0.0
 11
1.4390948275862068
 21
5.812086206896551
 31
0.0
  0
LINE
  5
13A
  8
A-FURN
 10
1.4390948275862068
 20
5.812086206896551
 30
0.0
 11
0.8170344827586207
 21
5.812086206896551
 31
0.0
  0
LINE
  5
13B
  8
A-FURN
 10
0.8170344827586207
 20
5.812086206896551
 30
0.0
 11
0.7984655172413793
 21
5.830655172413793
 31
0.0
  0
LINE
  5
13C
  8
A-FURN
 10
0.7984655172413793
 20
5.830655172413793
 30
0.0
 11
0.7984655172413793
 21
6.072051724137931
 31
0.0
  0
LINE
  5
13D
  8
A-FURN
 10
0.7984655172413793
 20
6.072051724137931
 30
0.0
 11
1.4483793103448275
 21
6.090620689655172
 31
0.0
  0
LINE
  5
13E
  8
A-FURN
 10
1.4855172413793103
 20
6.359870689655172
 30
0.0
 11
1.5040862068965517
 21
6.378439655172413
 31
0.0
  0
LINE
  5
13F
  8
A-FURN
 10
1.5040862068965517
 20
6.378439655172413
 30
0.0
 11
2.126146551724138
 21
6.378439655172413
 31
0.0
  0
LINE
  5
140
  8
A-FURN
 10
2.126146551724138
 20
6.378439655172413
 30
0.0
 11
2.144715517241379
 21
6.359870689655172
 31
0.0
  0
LINE
  5
141
  8
A-FURN
 10
2.144715517241379
 20
6.359870689655172
 30
0.0
 11
2.144715517241379
 21
6.118474137931034
 31
0.0
  0
LINE
  5
142
  8
A-FURN
 10
2.144715517241379
 20
6.118474137931034
 30
0.0
 11
1.5133706896551724
 21
6.099905172413792
 31
0.0
  0
LINE
  5
143
  8
A-FURN
 10
1.5133706896551724
 20
6.099905172413792
 30
0.0
 11
1.4855172413793103
 21
6.118474137931034
 31
0.0
  0
LINE
  5
144
  8
A-FURN
 10
1.4855172413793103
 20
6.118474137931034
 30
0.0
 11
1.4855172413793103
 21
6.359870689655172
 31
0.0
  0
LINE
  5
145
  8
A-WALL
 10
12.571189655172413
 20
6.434146551724138
 30
0.0
 11
12.626896551724137
 21
6.434146551724138
 31
0.0
  0
LINE
  5
146
  8
A-WALL
 10
12.626896551724137
 20
6.434146551724138
 30
0.0
 11
12.65475
 21
6.4062931034482755
 31
0.0
  0
LINE
  5
147
  8
A-WALL
 10
12.65475
 20
6.4062931034482755
 30
0.0
 11
12.636181034482759
 21
6.33201724137931
 31
0.0
  0
LINE
  5
148
  8
A-WALL
 10
12.636181034482759
 20
6.33201724137931
 30
0.0
 11
12.636181034482759
 21
4.623672413793103
 31
0.0
  0
LINE
  5
149
  8
A-WALL
 10
12.636181034482759
 20
4.623672413793103
 30
0.0
 11
12.561905172413793
 21
4.632956896551724
 31
0.0
  0
LINE
  5
14A
  8
A-WALL
 10
12.561905172413793
 20
4.632956896551724
 30
0.0
 11
12.571189655172413
 21
6.434146551724138
 31
0.0
  0
LINE
  5
14B
  8
A-FURN
 10
1.4855172413793103
 20
6.647689655172413
 30
0.0
 11
1.5133706896551724
 21
6.675543103448275
 31
0.0
  0
LINE
  5
14C
  8
A-FURN
 10
1.5133706896551724
 20
6.675543103448275
 30
0.0
 11
2.1354310344827585
 21
6.666258620689654
 31
0.0
  0
LINE
  5
14D
  8
A-FURN
 10
2.1354310344827585
 20
6.666258620689654
 30
0.0
 11
2.154
 21
6.638405172413792
 31
0.0
  0
LINE
  5
14E
  8
A-FURN
 10
2.154
 20
6.638405172413792
 30
0.0
 11
2.144715517241379
 21
6.4062931034482755
 31
0.0
  0
LINE
  5
14F
  8
A-FURN
 10
2.144715517241379
 20
6.4062931034482755
 30
0.0
 11
1.5133706896551724
 21
6.387724137931034
 31
0.0
  0
LINE
  5
150
  8
A-FURN
 10
1.5133706896551724
 20
6.387724137931034
 30
0.0
 11
1.4855172413793103
 21
6.415577586206896
 31
0.0
  0
LINE
  5
151
  8
A-FURN
 10
1.4855172413793103
 20
6.415577586206896
 30
0.0
 11
1.4855172413793103
 21
6.647689655172413
 31
0.0
  0
LINE
  5
152
  8
A-FURN
 10
1.4576637931034482
 20
6.675543103448275
 30
0.0
 11
1.4669482758620689
 21
6.118474137931034
 31
0.0
  0
LINE
  5
153
  8
A-FURN
 10
1.4669482758620689
 20
6.118474137931034
 30
0.0
 11
1.4483793103448275
 21
6.099905172413792
 31
0.0
  0
LINE
  5
154
  8
A-FURN
 10
1.4483793103448275
 20
6.099905172413792
 30
0.0
 11
0.7984655172413793
 21
6.118474137931034
 31
0.0
  0
LINE
  5
155
  8
A-FURN
 10
0.7984655172413793
 20
6.118474137931034
 30
0.0
 11
0.80775
 21
6.369155172413793
 31
0.0
  0
LINE
  5
156
  8
A-FURN
 10
0.80775
 20
6.369155172413793
 30
0.0
 11
1.4390948275862068
 21
6.378439655172413
 31
0.0
  0
LINE
  5
157
  8
A-FURN
 10
1.4390948275862068
 20
6.378439655172413
 30
0.0
 11
1.429810344827586
 21
6.397008620689655
 31
0.0
  0
LINE
  5
158
  8
A-FURN
 10
1.429810344827586
 20
6.397008620689655
 30
0.0
 11
0.80775
 21
6.397008620689655
 31
0.0
  0
LINE
  5
159
  8
A-FURN
 10
0.80775
 20
6.397008620689655
 30
0.0
 11
0.80775
 21
6.666258620689654
 31
0.0
  0
LINE
  5
15A
  8
A-FURN
 10
0.80775
 20
6.666258620689654
 30
0.0
 11
1.4576637931034482
 21
6.675543103448275
 31
0.0
  0
LINE
  5
15B
  8
A-FURN
 10
7.0376379310344825
 20
6.749818965517241
 30
0.0
 11
7.139767241379309
 21
6.805525862068965
 31
0.0
  0
LINE
  5
15C
  8
A-FURN
 10
7.139767241379309
 20
6.805525862068965
 30
0.0
 11
7.260465517241379
 21
6.805525862068965
 31
0.0
  0
LINE
  5
15D
  8
A-FURN
 10
7.260465517241379
 20
6.805525862068965
 30
0.0
 11
7.362594827586206
 21
6.749818965517241
 31
0.0
  0
LINE
  5
15E
  8
A-FURN
 10
7.362594827586206
 20
6.749818965517241
 30
0.0
 11
7.40901724137931
 21
6.619836206896551
 31
0.0
  0
LINE
  5
15F
  8
A-FURN
 10
7.40901724137931
 20
6.619836206896551
 30
0.0
 11
7.399732758620689
 21
6.424862068965517
 31
0.0
  0
LINE
  5
160
  8
A-FURN
 10
7.399732758620689
 20
6.424862068965517
 30
0.0
 11
7.00978448275862
 21
6.424862068965517
 31
0.0
  0
LINE
  5
161
  8
A-FURN
 10
7.00978448275862
 20
6.424862068965517
 30
0.0
 11
6.991215517241379
 21
6.443431034482758
 31
0.0
  0
LINE
  5
162
  8
A-FURN
 10
6.991215517241379
 20
6.443431034482758
 30
0.0
 11
6.991215517241379
 21
6.675543103448275
 31
0.0
  0
LINE
  5
163
  8
A-FURN
 10
6.991215517241379
 20
6.675543103448275
 30
0.0
 11
7.0376379310344825
 21
6.749818965517241
 31
0.0
  0
LINE
  5
164
  8
A-FURN
 10
1.4855172413793103
 20
6.954077586206896
 30
0.0
 11
1.5040862068965517
 21
6.972646551724138
 31
0.0
  0
LINE
  5
165
  8
A-FURN
 10
1.5040862068965517
 20
6.972646551724138
 30
0.0
 11
2.1354310344827585
 21
6.972646551724138
 31
0.0
  0
LINE
  5
166
  8
A-FURN
 10
2.1354310344827585
 20
6.972646551724138
 30
0.0
 11
2.154
 21
6.954077586206896
 31
0.0
  0
LINE
  5
167
  8
A-FURN
 10
2.154
 20
6.954077586206896
 30
0.0
 11
2.144715517241379
 21
6.703396551724137
 31
0.0
  0
LINE
  5
168
  8
A-FURN
 10
2.144715517241379
 20
6.703396551724137
 30
0.0
 11
1.5040862068965517
 21
6.6941120689655165
 31
0.0
  0
LINE
  5
169
  8
A-FURN
 10
1.5040862068965517
 20
6.6941120689655165
 30
0.0
 11
1.4855172413793103
 21
6.712681034482758
 31
0.0
  0
LINE
  5
16A
  8
A-FURN
 10
1.4855172413793103
 20
6.712681034482758
 30
0.0
 11
1.4855172413793103
 21
6.954077586206896
 31
0.0
  0
LINE
  5
16B
  8
A-FURN
 10
0.7891810344827586
 20
6.954077586206896
 30
0.0
 11
0.80775
 21
6.972646551724138
 31
0.0
  0
LINE
  5
16C
  8
A-FURN
 10
0.80775
 20
6.972646551724138
 30
0.0
 11
1.4483793103448275
 21
6.972646551724138
 31
0.0
  0
LINE
  5
16D
  8
A-FURN
 10
1.4483793103448275
 20
6.972646551724138
 30
0.0
 11
1.4669482758620689
 21
6.954077586206896
 31
0.0
  0
LINE
  5
16E
  8
A-FURN
 10
1.4669482758620689
 20
6.954077586206896
 30
0.0
 11
1.4669482758620689
 21
6.712681034482758
 31
0.0
  0
LINE
  5
16F
  8
A-FURN
 10
1.4669482758620689
 20
6.712681034482758
 30
0.0
 11
1.4483793103448275
 21
6.684827586206896
 31
0.0
  0
LINE
  5
170
  8
A-FURN
 10
1.4483793103448275
 20
6.684827586206896
 30
0.0
 11
0.80775
 21
6.6941120689655165
 31
0.0
  0
LINE
  5
171
  8
A-FURN
 10
0.80775
 20
6.6941120689655165
 30
0.0
 11
0.7891810344827586
 21
6.954077586206896
 31
0.0
  0
LINE
  5
172
  8
A-FURN
 10
11.884137931034482
 20
7.028353448275862
 30
0.0
 11
12.459775862068964
 21
7.019068965517241
 31
0.0
  0
LINE
  5
173
  8
A-FURN
 10
12.459775862068964
 20
7.019068965517241
 30
0.0
 11
12.459775862068964
 21
6.452715517241379
 31
0.0
  0
LINE
  5
174
  8
A-FURN
 10
12.459775862068964
 20
6.452715517241379
 30
0.0
 11
12.431922413793103
 21
6.424862068965517
 31
0.0
  0
LINE
  5
175
  8
A-FURN
 10
12.431922413793103
 20
6.424862068965517
 30
0.0
 11
11.884137931034482
 21
6.434146551724138
 31
0.0
  0
LINE
  5
176
  8
A-FURN
 10
11.884137931034482
 20
6.434146551724138
 30
0.0
 11
11.865568965517241
 21
6.452715517241379
 31
0.0
  0
LINE
  5
177
  8
A-FURN
 10
11.865568965517241
 20
6.452715517241379
 30
0.0
 11
11.865568965517241
 21
7.00978448275862
 31
0.0
  0
LINE
  5
178
  8
A-FURN
 10
11.865568965517241
 20
7.00978448275862
 30
0.0
 11
11.884137931034482
 21
7.028353448275862
 31
0.0
  0
LINE
  5
179
  8
A-FURN
 10
1.4855172413793103
 20
7.241896551724137
 30
0.0
 11
1.5133706896551724
 21
7.269749999999999
 31
0.0
  0
LINE
  5
17A
  8
A-FURN
 10
1.5133706896551724
 20
7.269749999999999
 30
0.0
 11
2.126146551724138
 21
7.269749999999999
 31
0.0
  0
LINE
  5
17B
  8
A-FURN
 10
2.126146551724138
 20
7.269749999999999
 30
0.0
 11
2.154
 21
7.019068965517241
 31
0.0
  0
LINE
  5
17C
  8
A-FURN
 10
2.154
 20
7.019068965517241
 30
0.0
 11
2.1354310344827585
 21
6.991215517241379
 31
0.0
  0
LINE
  5
17D
  8
A-FURN
 10
2.1354310344827585
 20
6.991215517241379
 30
0.0
 11
1.494801724137931
 21
6.991215517241379
 31
0.0
  0
LINE
  5
17E
  8
A-FURN
 10
1.494801724137931
 20
6.991215517241379
 30
0.0
 11
1.4855172413793103
 21
7.241896551724137
 31
0.0
  0
LINE
  5
17F
  8
A-FURN
 10
8.606715517241378
 20
7.3254568965517235
 30
0.0
 11
8.959525862068965
 21
7.316172413793103
 31
0.0
  0
LINE
  5
180
  8
A-FURN
 10
8.959525862068965
 20
7.316172413793103
 30
0.0
 11
8.978094827586206
 21
7.297603448275861
 31
0.0
  0
LINE
  5
181
  8
A-FURN
 10
8.978094827586206
 20
7.297603448275861
 30
0.0
 11
8.978094827586206
 21
7.251181034482758
 31
0.0
  0
LINE
  5
182
  8
A-FURN
 10
8.978094827586206
 20
7.251181034482758
 30
0.0
 11
8.913103448275862
 21
7.195474137931034
 31
0.0
  0
LINE
  5
183
  8
A-FURN
 10
8.913103448275862
 20
7.195474137931034
 30
0.0
 11
8.810974137931034
 21
7.186189655172413
 31
0.0
  0
LINE
  5
184
  8
A-FURN
 10
8.810974137931034
 20
7.186189655172413
 30
0.0
 11
8.736698275862068
 21
7.269749999999999
 31
0.0
  0
LINE
  5
185
  8
A-FURN
 10
8.736698275862068
 20
7.269749999999999
 30
0.0
 11
8.718129310344827
 21
7.214043103448275
 31
0.0
  0
LINE
  5
186
  8
A-FURN
 10
8.718129310344827
 20
7.214043103448275
 30
0.0
 11
8.653137931034482
 21
7.186189655172413
 31
0.0
  0
LINE
  5
187
  8
A-FURN
 10
8.653137931034482
 20
7.186189655172413
 30
0.0
 11
8.699560344827585
 21
7.139767241379309
 31
0.0
  0
LINE
  5
188
  8
A-FURN
 10
8.699560344827585
 20
7.139767241379309
 30
0.0
 11
8.718129310344827
 21
7.214043103448275
 31
0.0
  0
LINE
  5
189
  8
A-FURN
 10
8.718129310344827
 20
7.214043103448275
 30
0.0
 11
8.77383620689655
 21
7.204758620689654
 31
0.0
  0
LINE
  5
18A
  8
A-FURN
 10
8.77383620689655
 20
7.204758620689654
 30
0.0
 11
8.783120689655172
 21
7.14905172413793
 31
0.0
  0
LINE
  5
18B
  8
A-FURN
 10
8.783120689655172
 20
7.14905172413793
 30
0.0
 11
8.718129310344827
 21
7.130482758620689
 31
0.0
  0
LINE
  5
18C
  8
A-FURN
 10
8.718129310344827
 20
7.130482758620689
 30
0.0
 11
8.727413793103448
 21
7.065491379310345
 31
0.0
  0
LINE
  5
18D
  8
A-FURN
 10
8.727413793103448
 20
7.065491379310345
 30
0.0
 11
8.810974137931034
 21
7.1676206896551715
 31
0.0
  0
LINE
  5
18E
  8
A-FURN
 10
8.810974137931034
 20
7.1676206896551715
 30
0.0
 11
8.90381896551724
 21
7.1676206896551715
 31
0.0
  0
LINE
  5
18F
  8
A-FURN
 10
8.90381896551724
 20
7.1676206896551715
 30
0.0
 11
8.968810344827586
 21
7.1026293103448275
 31
0.0
  0
LINE
  5
190
  8
A-FURN
 10
8.968810344827586
 20
7.1026293103448275
 30
0.0
 11
8.950241379310345
 21
7.028353448275862
 31
0.0
  0
LINE
  5
191
  8
A-FURN
 10
8.950241379310345
 20
7.028353448275862
 30
0.0
 11
8.764551724137931
 21
7.028353448275862
 31
0.0
  0
LINE
  5
192
  8
A-FURN
 10
8.764551724137931
 20
7.028353448275862
 30
0.0
 11
8.74598275862069
 21
7.046922413793103
 31
0.0
  0
LINE
  5
193
  8
A-FURN
 10
8.74598275862069
 20
7.046922413793103
 30
0.0
 11
8.662422413793102
 21
7.028353448275862
 31
0.0
  0
LINE
  5
194
  8
A-FURN
 10
8.662422413793102
 20
7.028353448275862
 30
0.0
 11
8.736698275862068
 21
6.991215517241379
 31
0.0
  0
LINE
  5
195
  8
A-FURN
 10
8.736698275862068
 20
6.991215517241379
 30
0.0
 11
8.727413793103448
 21
6.7869568965517235
 31
0.0
  0
LINE
  5
196
  8
A-FURN
 10
8.727413793103448
 20
6.7869568965517235
 30
0.0
 11
8.662422413793102
 21
6.712681034482758
 31
0.0
  0
LINE
  5
197
  8
A-FURN
 10
8.662422413793102
 20
6.712681034482758
 30
0.0
 11
8.736698275862068
 21
6.647689655172413
 31
0.0
  0
LINE
  5
198
  8
A-FURN
 10
8.736698275862068
 20
6.647689655172413
 30
0.0
 11
8.764551724137931
 21
6.656974137931034
 31
0.0
  0
LINE
  5
199
  8
A-FURN
 10
8.764551724137931
 20
6.656974137931034
 30
0.0
 11
8.801689655172414
 21
6.731249999999999
 31
0.0
  0
LINE
  5
19A
  8
A-FURN
 10
8.801689655172414
 20
6.731249999999999
 30
0.0
 11
8.74598275862069
 21
6.796241379310344
 31
0.0
  0
LINE
  5
19B
  8
A-FURN
 10
8.74598275862069
 20
6.796241379310344
 30
0.0
 11
8.74598275862069
 21
6.8519482758620684
 31
0.0
  0
LINE
  5
19C
  8
A-FURN
 10
8.74598275862069
 20
6.8519482758620684
 30
0.0
 11
8.922387931034482
 21
6.87051724137931
 31
0.0
  0
LINE
  5
19D
  8
A-FURN
 10
8.922387931034482
 20
6.87051724137931
 30
0.0
 11
8.922387931034482
 21
6.889086206896551
 31
0.0
  0
LINE
  5
19E
  8
A-FURN
 10
8.922387931034482
 20
6.889086206896551
 30
0.0
 11
8.764551724137931
 21
6.879801724137931
 31
0.0
  0
LINE
  5
19F
  8
A-FURN
 10
8.764551724137931
 20
6.879801724137931
 30
0.0
 11
8.74598275862069
 21
6.991215517241379
 31
0.0
  0
LINE
  5
1A0
  8
A-FURN
 10
8.74598275862069
 20
6.991215517241379
 30
0.0
 11
8.940956896551723
 21
7.019068965517241
 31
0.0
  0
LINE
  5
1A1
  8
A-FURN
 10
8.940956896551723
 20
7.019068965517241
 30
0.0
 11
8.978094827586206
 21
6.991215517241379
 31
0.0
  0
LINE
  5
1A2
  8
A-FURN
 10
8.978094827586206
 20
6.991215517241379
 30
0.0
 11
8.950241379310345
 21
6.879801724137931
 31
0.0
  0
LINE
  5
1A3
  8
A-FURN
 10
8.950241379310345
 20
6.879801724137931
 30
0.0
 11
8.959525862068965
 21
6.768387931034482
 31
0.0
  0
LINE
  5
1A4
  8
A-FURN
 10
8.959525862068965
 20
6.768387931034482
 30
0.0
 11
8.913103448275862
 21
6.731249999999999
 31
0.0
  0
LINE
  5
1A5
  8
A-FURN
 10
8.913103448275862
 20
6.731249999999999
 30
0.0
 11
8.829543103448275
 21
6.74053448275862
 31
0.0
  0
LINE
  5
1A6
  8
A-FURN
 10
8.829543103448275
 20
6.74053448275862
 30
0.0
 11
8.829543103448275
 21
6.712681034482758
 31
0.0
  0
LINE
  5
1A7
  8
A-FURN
 10
8.829543103448275
 20
6.712681034482758
 30
0.0
 11
8.922387931034482
 21
6.703396551724137
 31
0.0
  0
LINE
  5
1A8
  8
A-FURN
 10
8.922387931034482
 20
6.703396551724137
 30
0.0
 11
8.978094827586206
 21
6.61055172413793
 31
0.0
  0
LINE
  5
1A9
  8
A-FURN
 10
8.978094827586206
 20
6.61055172413793
 30
0.0
 11
9.061655172413792
 21
6.712681034482758
 31
0.0
  0
LINE
  5
1AA
  8
A-FURN
 10
9.061655172413792
 20
6.712681034482758
 30
0.0
 11
9.108077586206896
 21
6.712681034482758
 31
0.0
  0
LINE
  5
1AB
  8
A-FURN
 10
9.108077586206896
 20
6.712681034482758
 30
0.0
 11
9.135931034482757
 21
6.684827586206896
 31
0.0
  0
LINE
  5
1AC
  8
A-FURN
 10
9.135931034482757
 20
6.684827586206896
 30
0.0
 11
9.135931034482757
 21
6.619836206896551
 31
0.0
  0
LINE
  5
1AD
  8
A-FURN
 10
9.135931034482757
 20
6.619836206896551
 30
0.0
 11
9.154499999999999
 21
6.638405172413792
 31
0.0
  0
LINE
  5
1AE
  8
A-FURN
 10
9.154499999999999
 20
6.638405172413792
 30
0.0
 11
9.135931034482757
 21
7.297603448275861
 31
0.0
  0
LINE
  5
1AF
  8
A-FURN
 10
9.135931034482757
 20
7.297603448275861
 30
0.0
 11
9.154499999999999
 21
7.316172413793103
 31
0.0
  0
LINE
  5
1B0
  8
A-FURN
 10
9.154499999999999
 20
7.316172413793103
 30
0.0
 11
9.191637931034482
 21
7.297603448275861
 31
0.0
  0
LINE
  5
1B1
  8
A-FURN
 10
9.191637931034482
 20
7.297603448275861
 30
0.0
 11
9.182353448275862
 21
7.241896551724137
 31
0.0
  0
LINE
  5
1B2
  8
A-FURN
 10
9.182353448275862
 20
7.241896551724137
 30
0.0
 11
9.191637931034482
 21
7.260465517241379
 31
0.0
  0
LINE
  5
1B3
  8
A-FURN
 10
9.191637931034482
 20
7.260465517241379
 30
0.0
 11
9.219491379310345
 21
7.130482758620689
 31
0.0
  0
LINE
  5
1B4
  8
A-FURN
 10
9.219491379310345
 20
7.130482758620689
 30
0.0
 11
9.219491379310345
 21
6.759103448275861
 31
0.0
  0
LINE
  5
1B5
  8
A-FURN
 10
9.219491379310345
 20
6.759103448275861
 30
0.0
 11
9.182353448275862
 21
6.638405172413792
 31
0.0
  0
LINE
  5
1B6
  8
A-FURN
 10
9.182353448275862
 20
6.638405172413792
 30
0.0
 11
9.191637931034482
 21
6.582698275862069
 31
0.0
  0
LINE
  5
1B7
  8
A-FURN
 10
9.191637931034482
 20
6.582698275862069
 30
0.0
 11
8.597431034482758
 21
6.582698275862069
 31
0.0
  0
LINE
  5
1B8
  8
A-FURN
 10
8.597431034482758
 20
6.582698275862069
 30
0.0
 11
8.606715517241378
 21
7.3254568965517235
 31
0.0
  0
LINE
  5
1B9
  8
A-FURN
 10
0.80775
 20
7.854672413793103
 30
0.0
 11
1.4483793103448275
 21
7.8639568965517235
 31
0.0
  0
LINE
  5
1BA
  8
A-FURN
 10
1.4483793103448275
 20
7.8639568965517235
 30
0.0
 11
1.4669482758620689
 21
7.845387931034482
 31
0.0
  0
LINE
  5
1BB
  8
A-FURN
 10
1.4669482758620689
 20
7.845387931034482
 30
0.0
 11
1.4669482758620689
 21
7.0005
 31
0.0
  0
LINE
  5
1BC
  8
A-FURN
 10
1.4669482758620689
 20
7.0005
 30
0.0
 11
1.4483793103448275
 21
6.981931034482758
 31
0.0
  0
LINE
  5
1BD
  8
A-FURN
 10
1.4483793103448275
 20
6.981931034482758
 30
0.0
 11
0.7984655172413793
 21
7.0005
 31
0.0
  0
LINE
  5
1BE
  8
A-FURN
 10
0.7984655172413793
 20
7.0005
 30
0.0
 11
0.80775
 21
7.260465517241379
 31
0.0
  0
LINE
  5
1BF
  8
A-FURN
 10
0.80775
 20
7.260465517241379
 30
0.0
 11
1.429810344827586
 21
7.260465517241379
 31
0.0
  0
LINE
  5
1C0
  8
A-FURN
 10
1.429810344827586
 20
7.260465517241379
 30
0.0
 11
1.429810344827586
 21
7.288318965517241
 31
0.0
  0
LINE
  5
1C1
  8
A-FURN
 10
1.429810344827586
 20
7.288318965517241
 30
0.0
 11
0.80775
 21
7.288318965517241
 31
0.0
  0
LINE
  5
1C2
  8
A-FURN
 10
0.80775
 20
7.288318965517241
 30
0.0
 11
0.7984655172413793
 21
7.54828448275862
 31
0.0
  0
LINE
  5
1C3
  8
A-FURN
 10
0.7984655172413793
 20
7.54828448275862
 30
0.0
 11
0.8170344827586207
 21
7.566853448275862
 31
0.0
  0
LINE
  5
1C4
  8
A-FURN
 10
0.8170344827586207
 20
7.566853448275862
 30
0.0
 11
1.4390948275862068
 21
7.566853448275862
 31
0.0
  0
LINE
  5
1C5
  8
A-FURN
 10
1.4390948275862068
 20
7.566853448275862
 30
0.0
 11
1.429810344827586
 21
7.585422413793103
 31
0.0
  0
LINE
  5
1C6
  8
A-FURN
 10
1.429810344827586
 20
7.585422413793103
 30
0.0
 11
0.8170344827586207
 21
7.5761379310344825
 31
0.0
  0
LINE
  5
1C7
  8
A-FURN
 10
0.8170344827586207
 20
7.5761379310344825
 30
0.0
 11
0.7984655172413793
 21
7.594706896551724
 31
0.0
  0
LINE
  5
1C8
  8
A-FURN
 10
0.7984655172413793
 20
7.594706896551724
 30
0.0
 11
0.80775
 21
7.854672413793103
 31
0.0
  0
LINE
  5
1C9
  8
A-FURN
 10
2.2375603448275863
 20
8.133206896551723
 30
0.0
 11
2.3118362068965514
 21
8.114637931034482
 31
0.0
  0
LINE
  5
1CA
  8
A-FURN
 10
2.3118362068965514
 20
8.114637931034482
 30
0.0
 11
2.3118362068965514
 21
7.557568965517241
 31
0.0
  0
LINE
  5
1CB
  8
A-FURN
 10
2.3118362068965514
 20
7.557568965517241
 30
0.0
 11
2.29326724137931
 21
7.539
 31
0.0
  0
LINE
  5
1CC
  8
A-FURN
 10
2.29326724137931
 20
7.539
 30
0.0
 11
2.209706896551724
 21
7.557568965517241
 31
0.0
  0
LINE
  5
1CD
  8
A-FURN
 10
2.209706896551724
 20
7.557568965517241
 30
0.0
 11
2.218991379310345
 21
8.114637931034482
 31
0.0
  0
LINE
  5
1CE
  8
A-FURN
 10
2.218991379310345
 20
8.114637931034482
 30
0.0
 11
2.2375603448275863
 21
8.133206896551723
 31
0.0
  0
LINE
  5
1CF
  8
A-FURN
 10
8.578862068965517
 20
8.22605172413793
 30
0.0
 11
8.597431034482758
 21
8.253905172413793
 31
0.0
  0
LINE
  5
1D0
  8
A-FURN
 10
8.597431034482758
 20
8.253905172413793
 30
0.0
 11
9.535163793103447
 21
8.22605172413793
 31
0.0
  0
LINE
  5
1D1
  8
A-FURN
 10
9.535163793103447
 20
8.22605172413793
 30
0.0
 11
11.475620689655171
 21
8.22605172413793
 31
0.0
  0
LINE
  5
1D2
  8
A-FURN
 10
11.475620689655171
 20
8.22605172413793
 30
0.0
 11
12.441206896551723
 21
8.253905172413793
 31
0.0
  0
LINE
  5
1D3
  8
A-FURN
 10
12.441206896551723
 20
8.253905172413793
 30
0.0
 11
12.469060344827586
 21
8.22605172413793
 31
0.0
  0
LINE
  5
1D4
  8
A-FURN
 10
12.469060344827586
 20
8.22605172413793
 30
0.0
 11
12.469060344827586
 21
7.056206896551724
 31
0.0
  0
LINE
  5
1D5
  8
A-FURN
 10
12.469060344827586
 20
7.056206896551724
 30
0.0
 11
12.450491379310344
 21
7.0376379310344825
 31
0.0
  0
LINE
  5
1D6
  8
A-FURN
 10
12.450491379310344
 20
7.0376379310344825
 30
0.0
 11
11.884137931034482
 21
7.0376379310344825
 31
0.0
  0
LINE
  5
1D7
  8
A-FURN
 10
11.884137931034482
 20
7.0376379310344825
 30
0.0
 11
11.865568965517241
 21
7.056206896551724
 31
0.0
  0
LINE
  5
1D8
  8
A-FURN
 10
11.865568965517241
 20
7.056206896551724
 30
0.0
 11
11.87485344827586
 21
7.622560344827586
 31
0.0
  0
LINE
  5
1D9
  8
A-FURN
 10
11.87485344827586
 20
7.622560344827586
 30
0.0
 11
11.847
 21
7.650413793103448
 31
0.0
  0
LINE
  5
1DA
  8
A-FURN
 10
11.847
 20
7.650413793103448
 30
0.0
 11
9.191637931034482
 21
7.650413793103448
 31
0.0
  0
LINE
  5
1DB
  8
A-FURN
 10
9.191637931034482
 20
7.650413793103448
 30
0.0
 11
9.191637931034482
 21
7.362594827586206
 31
0.0
  0
LINE
  5
1DC
  8
A-FURN
 10
9.191637931034482
 20
7.362594827586206
 30
0.0
 11
9.16378448275862
 21
7.334741379310344
 31
0.0
  0
LINE
  5
1DD
  8
A-FURN
 10
9.16378448275862
 20
7.334741379310344
 30
0.0
 11
8.606715517241378
 21
7.334741379310344
 31
0.0
  0
LINE
  5
1DE
  8
A-FURN
 10
8.606715517241378
 20
7.334741379310344
 30
0.0
 11
8.578862068965517
 21
7.362594827586206
 31
0.0
  0
LINE
  5
1DF
  8
A-FURN
 10
8.578862068965517
 20
7.362594827586206
 30
0.0
 11
8.578862068965517
 21
8.22605172413793
 31
0.0
  0
LINE
  5
1E0
  8
A-WALL
 10
6.619836206896551
 20
8.253905172413793
 30
0.0
 11
7.111913793103448
 21
8.22605172413793
 31
0.0
  0
LINE
  5
1E1
  8
A-WALL
 10
7.111913793103448
 20
8.22605172413793
 30
0.0
 11
8.003224137931033
 21
8.22605172413793
 31
0.0
  0
LINE
  5
1E2
  8
A-WALL
 10
8.003224137931033
 20
8.22605172413793
 30
0.0
 11
8.448879310344827
 21
8.253905172413793
 31
0.0
  0
LINE
  5
1E3
  8
A-WALL
 10
8.448879310344827
 20
8.253905172413793
 30
0.0
 11
8.49530172413793
 21
8.235336206896552
 31
0.0
  0
LINE
  5
1E4
  8
A-WALL
 10
8.49530172413793
 20
8.235336206896552
 30
0.0
 11
8.48601724137931
 21
6.322732758620689
 31
0.0
  0
LINE
  5
1E5
  8
A-WALL
 10
8.48601724137931
 20
6.322732758620689
 30
0.0
 11
8.430310344827586
 21
6.267025862068965
 31
0.0
  0
LINE
  5
1E6
  8
A-WALL
 10
8.430310344827586
 20
6.267025862068965
 30
0.0
 11
8.328181034482759
 21
6.4712844827586204
 31
0.0
  0
LINE
  5
1E7
  8
A-WALL
 10
8.328181034482759
 20
6.4712844827586204
 30
0.0
 11
8.309612068965517
 21
6.462
 31
0.0
  0
LINE
  5
1E8
  8
A-WALL
 10
8.309612068965517
 20
6.462
 30
0.0
 11
8.337465517241379
 21
6.4062931034482755
 31
0.0
  0
LINE
  5
1E9
  8
A-WALL
 10
8.337465517241379
 20
6.4062931034482755
 30
0.0
 11
8.328181034482759
 21
6.359870689655172
 31
0.0
  0
LINE
  5
1EA
  8
A-WALL
 10
8.328181034482759
 20
6.359870689655172
 30
0.0
 11
8.272474137931034
 21
6.434146551724138
 31
0.0
  0
LINE
  5
1EB
  8
A-WALL
 10
8.272474137931034
 20
6.434146551724138
 30
0.0
 11
8.244620689655171
 21
6.424862068965517
 31
0.0
  0
LINE
  5
1EC
  8
A-WALL
 10
8.244620689655171
 20
6.424862068965517
 30
0.0
 11
8.309612068965517
 21
6.359870689655172
 31
0.0
  0
LINE
  5
1ED
  8
A-WALL
 10
8.309612068965517
 20
6.359870689655172
 30
0.0
 11
8.318896551724137
 21
6.285594827586206
 31
0.0
  0
LINE
  5
1EE
  8
A-WALL
 10
8.318896551724137
 20
6.285594827586206
 30
0.0
 11
8.337465517241379
 21
6.350586206896551
 31
0.0
  0
LINE
  5
1EF
  8
A-WALL
 10
8.337465517241379
 20
6.350586206896551
 30
0.0
 11
8.393172413793103
 21
6.3134482758620685
 31
0.0
  0
LINE
  5
1F0
  8
A-WALL
 10
8.393172413793103
 20
6.3134482758620685
 30
0.0
 11
8.374603448275861
 21
6.285594827586206
 31
0.0
  0
LINE
  5
1F1
  8
A-WALL
 10
8.374603448275861
 20
6.285594827586206
 30
0.0
 11
8.411741379310344
 21
6.239172413793103
 31
0.0
  0
LINE
  5
1F2
  8
A-WALL
 10
8.411741379310344
 20
6.239172413793103
 30
0.0
 11
8.34675
 21
6.174181034482758
 31
0.0
  0
LINE
  5
1F3
  8
A-WALL
 10
8.34675
 20
6.174181034482758
 30
0.0
 11
7.4183017241379305
 21
6.174181034482758
 31
0.0
  0
LINE
  5
1F4
  8
A-WALL
 10
7.4183017241379305
 20
6.174181034482758
 30
0.0
 11
7.399732758620689
 21
6.192749999999999
 31
0.0
  0
LINE
  5
1F5
  8
A-WALL
 10
7.399732758620689
 20
6.192749999999999
 30
0.0
 11
7.399732758620689
 21
6.387724137931034
 31
0.0
  0
LINE
  5
1F6
  8
A-WALL
 10
7.399732758620689
 20
6.387724137931034
 30
0.0
 11
7.427586206896551
 21
6.424862068965517
 31
0.0
  0
LINE
  5
1F7
  8
A-WALL
 10
7.427586206896551
 20
6.424862068965517
 30
0.0
 11
7.427586206896551
 21
6.675543103448275
 31
0.0
  0
LINE
  5
1F8
  8
A-WALL
 10
7.427586206896551
 20
6.675543103448275
 30
0.0
 11
7.399732758620689
 21
6.759103448275861
 31
0.0
  0
LINE
  5
1F9
  8
A-WALL
 10
7.399732758620689
 20
6.759103448275861
 30
0.0
 11
7.316172413793103
 21
6.824094827586206
 31
0.0
  0
LINE
  5
1FA
  8
A-WALL
 10
7.316172413793103
 20
6.824094827586206
 30
0.0
 11
7.2326120689655164
 21
6.842663793103448
 31
0.0
  0
LINE
  5
1FB
  8
A-WALL
 10
7.2326120689655164
 20
6.842663793103448
 30
0.0
 11
7.084060344827586
 21
6.824094827586206
 31
0.0
  0
LINE
  5
1FC
  8
A-WALL
 10
7.084060344827586
 20
6.824094827586206
 30
0.0
 11
6.981931034482758
 21
6.721965517241379
 31
0.0
  0
LINE
  5
1FD
  8
A-WALL
 10
6.981931034482758
 20
6.721965517241379
 30
0.0
 11
6.972646551724138
 21
6.480568965517241
 31
0.0
  0
LINE
  5
1FE
  8
A-WALL
 10
6.972646551724138
 20
6.480568965517241
 30
0.0
 11
7.0005
 21
6.183465517241379
 31
0.0
  0
LINE
  5
1FF
  8
A-WALL
 10
7.0005
 20
6.183465517241379
 30
0.0
 11
6.619836206896551
 21
6.164896551724137
 31
0.0
  0
LINE
  5
200
  8
A-WALL
 10
6.619836206896551
 20
6.164896551724137
 30
0.0
 11
6.60126724137931
 21
6.183465517241379
 31
0.0
  0
LINE
  5
201
  8
A-WALL
 10
6.60126724137931
 20
6.183465517241379
 30
0.0
 11
6.61055172413793
 21
7.158336206896551
 31
0.0
  0
LINE
  5
202
  8
A-WALL
 10
6.61055172413793
 20
7.158336206896551
 30
0.0
 11
6.59198275862069
 21
7.195474137931034
 31
0.0
  0
LINE
  5
203
  8
A-WALL
 10
6.59198275862069
 20
7.195474137931034
 30
0.0
 11
6.5641293103448275
 21
7.158336206896551
 31
0.0
  0
LINE
  5
204
  8
A-WALL
 10
6.5641293103448275
 20
7.158336206896551
 30
0.0
 11
6.526991379310345
 21
7.176905172413792
 31
0.0
  0
LINE
  5
205
  8
A-WALL
 10
6.526991379310345
 20
7.176905172413792
 30
0.0
 11
6.526991379310345
 21
8.049646551724138
 31
0.0
  0
LINE
  5
206
  8
A-WALL
 10
6.526991379310345
 20
8.049646551724138
 30
0.0
 11
6.5641293103448275
 21
8.077499999999999
 31
0.0
  0
LINE
  5
207
  8
A-WALL
 10
6.5641293103448275
 20
8.077499999999999
 30
0.0
 11
6.60126724137931
 21
8.031077586206896
 31
0.0
  0
LINE
  5
208
  8
A-WALL
 10
6.60126724137931
 20
8.031077586206896
 30
0.0
 11
6.59198275862069
 21
8.21676724137931
 31
0.0
  0
LINE
  5
209
  8
A-WALL
 10
6.59198275862069
 20
8.21676724137931
 30
0.0
 11
6.619836206896551
 21
8.253905172413793
 31
0.0
  0
LINE
  5
20A
  8
A-FURN
 10
8.439594827586207
 20
7.093344827586207
 30
0.0
 11
7.5761379310344825
 21
7.093344827586207
 31
0.0
  0
LINE
  5
20B
  8
A-FURN
 10
7.5761379310344825
 20
7.093344827586207
 30
0.0
 11
7.5761379310344825
 21
6.220603448275861
 31
0.0
  0
LINE
  5
20C
  8
A-FURN
 10
7.5761379310344825
 20
6.220603448275861
 30
0.0
 11
7.594706896551724
 21
6.229887931034482
 31
0.0
  0
LINE
  5
20D
  8
A-FURN
 10
7.594706896551724
 20
6.229887931034482
 30
0.0
 11
7.594706896551724
 21
7.046922413793103
 31
0.0
  0
LINE
  5
20E
  8
A-FURN
 10
7.594706896551724
 20
7.046922413793103
 30
0.0
 11
7.6411293103448275
 21
7.074775862068965
 31
0.0
  0
LINE
  5
20F
  8
A-FURN
 10
7.6411293103448275
 20
7.074775862068965
 30
0.0
 11
8.402456896551724
 21
7.065491379310345
 31
0.0
  0
LINE
  5
210
  8
A-FURN
 10
8.402456896551724
 20
7.065491379310345
 30
0.0
 11
8.439594827586207
 21
7.093344827586207
 31
0.0
  0
LINE
  5
211
  8
A-WALL
 10
14.065991379310343
 20
8.291043103448276
 30
0.0
 11
14.195974137931033
 21
8.281758620689654
 31
0.0
  0
LINE
  5
212
  8
A-WALL
 10
14.195974137931033
 20
8.281758620689654
 30
0.0
 11
14.205258620689655
 21
8.114637931034482
 31
0.0
  0
LINE
  5
213
  8
A-WALL
 10
14.205258620689655
 20
8.114637931034482
 30
0.0
 11
14.186689655172414
 21
8.09606896551724
 31
0.0
  0
LINE
  5
214
  8
A-WALL
 10
14.186689655172414
 20
8.09606896551724
 30
0.0
 11
14.038137931034482
 21
8.114637931034482
 31
0.0
  0
LINE
  5
215
  8
A-WALL
 10
14.038137931034482
 20
8.114637931034482
 30
0.0
 11
14.038137931034482
 21
8.263189655172413
 31
0.0
  0
LINE
  5
216
  8
A-WALL
 10
14.038137931034482
 20
8.263189655172413
 30
0.0
 11
14.065991379310343
 21
8.291043103448276
 31
0.0
  0
LINE
  5
217
  8
A-WALL
 10
2.209706896551724
 20
8.365318965517242
 30
0.0
 11
2.2282758620689656
 21
8.383887931034483
 31
0.0
  0
LINE
  5
218
  8
A-WALL
 10
2.2282758620689656
 20
8.383887931034483
 30
0.0
 11
2.4046810344827585
 21
8.374603448275861
 31
0.0
  0
LINE
  5
219
  8
A-WALL
 10
2.4046810344827585
 20
8.374603448275861
 30
0.0
 11
2.4046810344827585
 21
8.22605172413793
 31
0.0
  0
LINE
  5
21A
  8
A-WALL
 10
2.4046810344827585
 20
8.22605172413793
 30
0.0
 11
2.4325344827586206
 21
8.244620689655171
 31
0.0
  0
LINE
  5
21B
  8
A-WALL
 10
2.4325344827586206
 20
8.244620689655171
 30
0.0
 11
5.227163793103448
 21
8.22605172413793
 31
0.0
  0
LINE
  5
21C
  8
A-WALL
 10
5.227163793103448
 20
8.22605172413793
 30
0.0
 11
5.25501724137931
 21
8.244620689655171
 31
0.0
  0
LINE
  5
21D
  8
A-WALL
 10
5.25501724137931
 20
8.244620689655171
 30
0.0
 11
6.499137931034483
 21
8.253905172413793
 31
0.0
  0
LINE
  5
21E
  8
A-WALL
 10
6.499137931034483
 20
8.253905172413793
 30
0.0
 11
6.517706896551724
 21
8.235336206896552
 31
0.0
  0
LINE
  5
21F
  8
A-WALL
 10
6.517706896551724
 20
8.235336206896552
 30
0.0
 11
6.499137931034483
 21
7.993939655172413
 31
0.0
  0
LINE
  5
220
  8
A-WALL
 10
6.499137931034483
 20
7.993939655172413
 30
0.0
 11
6.508422413793103
 21
6.090620689655172
 31
0.0
  0
LINE
  5
221
  8
A-WALL
 10
6.508422413793103
 20
6.090620689655172
 30
0.0
 11
8.48601724137931
 21
6.090620689655172
 31
0.0
  0
LINE
  5
222
  8
A-WALL
 10
8.48601724137931
 20
6.090620689655172
 30
0.0
 11
8.504586206896551
 21
4.670094827586206
 31
0.0
  0
LINE
  5
223
  8
A-WALL
 10
8.504586206896551
 20
4.670094827586206
 30
0.0
 11
8.48601724137931
 21
4.651525862068965
 31
0.0
  0
LINE
  5
224
  8
A-WALL
 10
8.48601724137931
 20
4.651525862068965
 30
0.0
 11
8.263189655172413
 21
4.660810344827586
 31
0.0
  0
LINE
  5
225
  8
A-WALL
 10
8.263189655172413
 20
4.660810344827586
 30
0.0
 11
8.263189655172413
 21
4.632956896551724
 31
0.0
  0
LINE
  5
226
  8
A-WALL
 10
8.263189655172413
 20
4.632956896551724
 30
0.0
 11
8.300327586206896
 21
4.642241379310344
 31
0.0
  0
LINE
  5
227
  8
A-WALL
 10
8.300327586206896
 20
4.642241379310344
 30
0.0
 11
8.309612068965517
 21
4.558681034482758
 31
0.0
  0
LINE
  5
228
  8
A-WALL
 10
8.309612068965517
 20
4.558681034482758
 30
0.0
 11
8.578862068965517
 21
4.558681034482758
 31
0.0
  0
LINE
  5
229
  8
A-WALL
 10
8.578862068965517
 20
4.558681034482758
 30
0.0
 11
8.597431034482758
 21
4.58653448275862
 31
0.0
  0
LINE
  5
22A
  8
A-WALL
 10
8.597431034482758
 20
4.58653448275862
 30
0.0
 11
8.578862068965517
 21
6.545560344827586
 31
0.0
  0
LINE
  5
22B
  8
A-WALL
 10
8.578862068965517
 20
6.545560344827586
 30
0.0
 11
8.597431034482758
 21
6.5641293103448275
 31
0.0
  0
LINE
  5
22C
  8
A-WALL
 10
8.597431034482758
 20
6.5641293103448275
 30
0.0
 11
9.182353448275862
 21
6.554844827586207
 31
0.0
  0
LINE
  5
22D
  8
A-WALL
 10
9.182353448275862
 20
6.554844827586207
 30
0.0
 11
9.17306896551724
 21
6.090620689655172
 31
0.0
  0
LINE
  5
22E
  8
A-WALL
 10
9.17306896551724
 20
6.090620689655172
 30
0.0
 11
8.653137931034482
 21
6.099905172413792
 31
0.0
  0
LINE
  5
22F
  8
A-WALL
 10
8.653137931034482
 20
6.099905172413792
 30
0.0
 11
8.64385344827586
 21
6.072051724137931
 31
0.0
  0
LINE
  5
230
  8
A-WALL
 10
8.64385344827586
 20
6.072051724137931
 30
0.0
 11
9.210206896551723
 21
6.081336206896551
 31
0.0
  0
LINE
  5
231
  8
A-WALL
 10
9.210206896551723
 20
6.081336206896551
 30
0.0
 11
9.200922413793103
 21
6.61055172413793
 31
0.0
  0
LINE
  5
232
  8
A-WALL
 10
9.200922413793103
 20
6.61055172413793
 30
0.0
 11
9.238060344827586
 21
6.712681034482758
 31
0.0
  0
LINE
  5
233
  8
A-WALL
 10
9.238060344827586
 20
6.712681034482758
 30
0.0
 11
9.238060344827586
 21
7.1676206896551715
 31
0.0
  0
LINE
  5
234
  8
A-WALL
 10
9.238060344827586
 20
7.1676206896551715
 30
0.0
 11
9.200922413793103
 21
7.269749999999999
 31
0.0
  0
LINE
  5
235
  8
A-WALL
 10
9.200922413793103
 20
7.269749999999999
 30
0.0
 11
9.200922413793103
 21
7.594706896551724
 31
0.0
  0
LINE
  5
236
  8
A-WALL
 10
9.200922413793103
 20
7.594706896551724
 30
0.0
 11
9.228775862068964
 21
7.631844827586207
 31
0.0
  0
LINE
  5
237
  8
A-WALL
 10
9.228775862068964
 20
7.631844827586207
 30
0.0
 11
9.265913793103447
 21
7.613275862068965
 31
0.0
  0
LINE
  5
238
  8
A-WALL
 10
9.265913793103447
 20
7.613275862068965
 30
0.0
 11
11.819146551724137
 21
7.622560344827586
 31
0.0
  0
LINE
  5
239
  8
A-WALL
 10
11.819146551724137
 20
7.622560344827586
 30
0.0
 11
11.837715517241378
 21
7.603991379310345
 31
0.0
  0
LINE
  5
23A
  8
A-WALL
 10
11.837715517241378
 20
7.603991379310345
 30
0.0
 11
11.847
 21
7.056206896551724
 31
0.0
  0
LINE
  5
23B
  8
A-WALL
 10
11.847
 20
7.056206896551724
 30
0.0
 11
11.828431034482758
 21
7.0376379310344825
 31
0.0
  0
LINE
  5
23C
  8
A-WALL
 10
11.828431034482758
 20
7.0376379310344825
 30
0.0
 11
11.847
 21
7.00978448275862
 31
0.0
  0
LINE
  5
23D
  8
A-WALL
 10
11.847
 20
7.00978448275862
 30
0.0
 11
11.837715517241378
 21
6.415577586206896
 31
0.0
  0
LINE
  5
23E
  8
A-WALL
 10
11.837715517241378
 20
6.415577586206896
 30
0.0
 11
12.051258620689655
 21
6.415577586206896
 31
0.0
  0
LINE
  5
23F
  8
A-WALL
 10
12.051258620689655
 20
6.415577586206896
 30
0.0
 11
12.069827586206896
 21
6.397008620689655
 31
0.0
  0
LINE
  5
240
  8
A-WALL
 10
12.069827586206896
 20
6.397008620689655
 30
0.0
 11
12.032689655172414
 21
6.304163793103448
 31
0.0
  0
LINE
  5
241
  8
A-WALL
 10
12.032689655172414
 20
6.304163793103448
 30
0.0
 11
12.069827586206896
 21
6.285594827586206
 31
0.0
  0
LINE
  5
242
  8
A-WALL
 10
12.069827586206896
 20
6.285594827586206
 30
0.0
 11
12.069827586206896
 21
5.672818965517241
 31
0.0
  0
LINE
  5
243
  8
A-WALL
 10
12.069827586206896
 20
5.672818965517241
 30
0.0
 11
12.069827586206896
 21
6.276310344827586
 31
0.0
  0
LINE
  5
244
  8
A-WALL
 10
12.069827586206896
 20
6.276310344827586
 30
0.0
 11
12.13481896551724
 21
6.3134482758620685
 31
0.0
  0
LINE
  5
245
  8
A-WALL
 10
12.13481896551724
 20
6.3134482758620685
 30
0.0
 11
12.088396551724138
 21
6.4062931034482755
 31
0.0
  0
LINE
  5
246
  8
A-WALL
 10
12.088396551724138
 20
6.4062931034482755
 30
0.0
 11
12.552620689655171
 21
6.424862068965517
 31
0.0
  0
LINE
  5
247
  8
A-WALL
 10
12.552620689655171
 20
6.424862068965517
 30
0.0
 11
12.552620689655171
 21
4.632956896551724
 31
0.0
  0
LINE
  5
248
  8
A-WALL
 10
12.552620689655171
 20
4.632956896551724
 30
0.0
 11
12.459775862068964
 21
4.642241379310344
 31
0.0
  0
LINE
  5
249
  8
A-WALL
 10
12.459775862068964
 20
4.642241379310344
 30
0.0
 11
12.469060344827586
 21
6.378439655172413
 31
0.0
  0
LINE
  5
24A
  8
A-WALL
 10
12.469060344827586
 20
6.378439655172413
 30
0.0
 11
12.450491379310344
 21
6.378439655172413
 31
0.0
  0
LINE
  5
24B
  8
A-WALL
 10
12.450491379310344
 20
6.378439655172413
 30
0.0
 11
12.459775862068964
 21
4.567965517241379
 31
0.0
  0
LINE
  5
24C
  8
A-WALL
 10
12.459775862068964
 20
4.567965517241379
 30
0.0
 11
12.561905172413793
 21
4.577249999999999
 31
0.0
  0
LINE
  5
24D
  8
A-WALL
 10
12.561905172413793
 20
4.577249999999999
 30
0.0
 11
12.589758620689654
 21
4.6051034482758615
 31
0.0
  0
LINE
  5
24E
  8
A-WALL
 10
12.589758620689654
 20
4.6051034482758615
 30
0.0
 11
12.589758620689654
 21
4.577249999999999
 31
0.0
  0
LINE
  5
24F
  8
A-WALL
 10
12.589758620689654
 20
4.577249999999999
 30
0.0
 11
12.626896551724137
 21
4.577249999999999
 31
0.0
  0
LINE
  5
250
  8
A-WALL
 10
12.626896551724137
 20
4.577249999999999
 30
0.0
 11
13.146827586206896
 21
4.057318965517241
 31
0.0
  0
LINE
  5
251
  8
A-WALL
 10
13.146827586206896
 20
4.057318965517241
 30
0.0
 11
13.109689655172414
 21
4.001612068965517
 31
0.0
  0
LINE
  5
252
  8
A-WALL
 10
13.109689655172414
 20
4.001612068965517
 30
0.0
 11
12.961137931034482
 21
3.90876724137931
 31
0.0
  0
LINE
  5
253
  8
A-WALL
 10
12.961137931034482
 20
3.90876724137931
 30
0.0
 11
12.80330172413793
 21
3.843775862068965
 31
0.0
  0
LINE
  5
254
  8
A-WALL
 10
12.80330172413793
 20
3.843775862068965
 30
0.0
 11
12.645465517241378
 21
3.825206896551724
 31
0.0
  0
LINE
  5
255
  8
A-WALL
 10
12.645465517241378
 20
3.825206896551724
 30
0.0
 11
12.905431034482758
 21
3.7787844827586206
 31
0.0
  0
LINE
  5
256
  8
A-WALL
 10
12.905431034482758
 20
3.7787844827586206
 30
0.0
 11
13.100405172413792
 21
3.667370689655172
 31
0.0
  0
LINE
  5
257
  8
A-WALL
 10
13.100405172413792
 20
3.667370689655172
 30
0.0
 11
13.146827586206896
 21
3.5930948275862065
 31
0.0
  0
LINE
  5
258
  8
A-WALL
 10
13.146827586206896
 20
3.5930948275862065
 30
0.0
 11
12.626896551724137
 21
3.073163793103448
 31
0.0
  0
LINE
  5
259
  8
A-WALL
 10
12.626896551724137
 20
3.073163793103448
 30
0.0
 11
12.450491379310344
 21
3.0824482758620686
 31
0.0
  0
LINE
  5
25A
  8
A-WALL
 10
12.450491379310344
 20
3.0824482758620686
 30
0.0
 11
12.450491379310344
 21
1.2719741379310343
 31
0.0
  0
LINE
  5
25B
  8
A-WALL
 10
12.450491379310344
 20
1.2719741379310343
 30
0.0
 11
12.469060344827586
 21
1.1884137931034482
 31
0.0
  0
LINE
  5
25C
  8
A-WALL
 10
12.469060344827586
 20
1.1884137931034482
 30
0.0
 11
12.441206896551723
 21
1.1512758620689654
 31
0.0
  0
LINE
  5
25D
  8
A-WALL
 10
12.441206896551723
 20
1.1512758620689654
 30
0.0
 11
12.40406896551724
 21
1.160560344827586
 31
0.0
  0
LINE
  5
25E
  8
A-WALL
 10
12.40406896551724
 20
1.160560344827586
 30
0.0
 11
12.413353448275862
 21
0.9934396551724137
 31
0.0
  0
LINE
  5
25F
  8
A-WALL
 10
12.413353448275862
 20
0.9934396551724137
 30
0.0
 11
12.385499999999999
 21
0.9655862068965516
 31
0.0
  0
LINE
  5
260
  8
A-WALL
 10
12.385499999999999
 20
0.9655862068965516
 30
0.0
 11
10.621448275862068
 21
0.9748706896551723
 31
0.0
  0
LINE
  5
261
  8
A-WALL
 10
10.621448275862068
 20
0.9748706896551723
 30
0.0
 11
10.602879310344827
 21
0.9934396551724137
 31
0.0
  0
LINE
  5
262
  8
A-WALL
 10
10.602879310344827
 20
0.9934396551724137
 30
0.0
 11
10.630732758620688
 21
1.1512758620689654
 31
0.0
  0
LINE
  5
263
  8
A-WALL
 10
10.630732758620688
 20
1.1512758620689654
 30
0.0
 11
12.348362068965516
 21
1.1419913793103447
 31
0.0
  0
LINE
  5
264
  8
A-WALL
 10
12.348362068965516
 20
1.1419913793103447
 30
0.0
 11
12.357646551724137
 21
1.1791293103448275
 31
0.0
  0
LINE
  5
265
  8
A-WALL
 10
12.357646551724137
 20
1.1791293103448275
 30
0.0
 11
8.829543103448275
 21
1.1791293103448275
 31
0.0
  0
LINE
  5
266
  8
A-WALL
 10
8.829543103448275
 20
1.1791293103448275
 30
0.0
 11
8.820258620689655
 21
1.160560344827586
 31
0.0
  0
LINE
  5
267
  8
A-WALL
 10
8.820258620689655
 20
1.160560344827586
 30
0.0
 11
8.866681034482758
 21
1.1419913793103447
 31
0.0
  0
LINE
  5
268
  8
A-WALL
 10
8.866681034482758
 20
1.1419913793103447
 30
0.0
 11
10.565741379310344
 21
1.1512758620689654
 31
0.0
  0
LINE
  5
269
  8
A-WALL
 10
10.565741379310344
 20
1.1512758620689654
 30
0.0
 11
10.584310344827585
 21
1.132706896551724
 31
0.0
  0
LINE
  5
26A
  8
A-WALL
 10
10.584310344827585
 20
1.132706896551724
 30
0.0
 11
10.565741379310344
 21
1.0677155172413793
 31
0.0
  0
LINE
  5
26B
  8
A-WALL
 10
10.565741379310344
 20
1.0677155172413793
 30
0.0
 11
8.848112068965516
 21
1.077
 31
0.0
  0
LINE
  5
26C
  8
A-WALL
 10
8.848112068965516
 20
1.077
 30
0.0
 11
8.829543103448275
 21
1.0584310344827585
 31
0.0
  0
LINE
  5
26D
  8
A-WALL
 10
8.829543103448275
 20
1.0584310344827585
 30
0.0
 11
10.528603448275861
 21
1.0491465517241378
 31
0.0
  0
LINE
  5
26E
  8
A-WALL
 10
10.528603448275861
 20
1.0491465517241378
 30
0.0
 11
10.565741379310344
 21
1.0677155172413793
 31
0.0
  0
LINE
  5
26F
  8
A-WALL
 10
10.565741379310344
 20
1.0677155172413793
 30
0.0
 11
10.593594827586205
 21
0.9934396551724137
 31
0.0
  0
LINE
  5
270
  8
A-WALL
 10
10.593594827586205
 20
0.9934396551724137
 30
0.0
 11
10.575025862068964
 21
0.9748706896551723
 31
0.0
  0
LINE
  5
271
  8
A-WALL
 10
10.575025862068964
 20
0.9748706896551723
 30
0.0
 11
8.820258620689655
 21
0.9655862068965516
 31
0.0
  0
LINE
  5
272
  8
A-WALL
 10
8.820258620689655
 20
0.9655862068965516
 30
0.0
 11
8.792405172413792
 21
0.984155172413793
 31
0.0
  0
LINE
  5
273
  8
A-WALL
 10
8.792405172413792
 20
0.984155172413793
 30
0.0
 11
8.792405172413792
 21
1.1791293103448275
 31
0.0
  0
LINE
  5
274
  8
A-WALL
 10
8.792405172413792
 20
1.1791293103448275
 30
0.0
 11
8.77383620689655
 21
1.1698448275862068
 31
0.0
  0
LINE
  5
275
  8
A-WALL
 10
8.77383620689655
 20
1.1698448275862068
 30
0.0
 11
8.783120689655172
 21
0.984155172413793
 31
0.0
  0
LINE
  5
276
  8
A-WALL
 10
8.783120689655172
 20
0.984155172413793
 30
0.0
 11
8.764551724137931
 21
0.9655862068965516
 31
0.0
  0
LINE
  5
277
  8
A-WALL
 10
8.764551724137931
 20
0.9655862068965516
 30
0.0
 11
6.991215517241379
 21
0.9655862068965516
 31
0.0
  0
LINE
  5
278
  8
A-WALL
 10
6.991215517241379
 20
0.9655862068965516
 30
0.0
 11
6.972646551724138
 21
0.984155172413793
 31
0.0
  0
LINE
  5
279
  8
A-WALL
 10
6.972646551724138
 20
0.984155172413793
 30
0.0
 11
6.972646551724138
 21
1.1698448275862068
 31
0.0
  0
LINE
  5
27A
  8
A-WALL
 10
6.972646551724138
 20
1.1698448275862068
 30
0.0
 11
5.6821034482758614
 21
1.1512758620689654
 31
0.0
  0
LINE
  5
27B
  8
A-WALL
 10
5.6821034482758614
 20
1.1512758620689654
 30
0.0
 11
5.66353448275862
 21
1.1698448275862068
 31
0.0
  0
LINE
  5
27C
  8
A-WALL
 10
5.66353448275862
 20
1.1698448275862068
 30
0.0
 11
5.672818965517241
 21
3.221715517241379
 31
0.0
  0
LINE
  5
27D
  8
A-WALL
 10
5.672818965517241
 20
3.221715517241379
 30
0.0
 11
5.589258620689654
 21
3.231
 31
0.0
  0
LINE
  5
27E
  8
A-WALL
 10
5.589258620689654
 20
3.231
 30
0.0
 11
5.589258620689654
 21
3.2681379310344827
 31
0.0
  0
LINE
  5
27F
  8
A-WALL
 10
5.589258620689654
 20
3.2681379310344827
 30
0.0
 11
5.570689655172413
 21
3.2681379310344827
 31
0.0
  0
LINE
  5
280
  8
A-WALL
 10
5.570689655172413
 20
3.2681379310344827
 30
0.0
 11
5.579974137931034
 21
1.1698448275862068
 31
0.0
  0
LINE
  5
281
  8
A-WALL
 10
5.579974137931034
 20
1.1698448275862068
 30
0.0
 11
5.552120689655172
 21
1.1419913793103447
 31
0.0
  0
LINE
  5
282
  8
A-WALL
 10
5.552120689655172
 20
1.1419913793103447
 30
0.0
 11
5.51498275862069
 21
1.160560344827586
 31
0.0
  0
LINE
  5
283
  8
A-WALL
 10
5.51498275862069
 20
1.160560344827586
 30
0.0
 11
4.818646551724138
 21
1.1698448275862068
 31
0.0
  0
LINE
  5
284
  8
A-WALL
 10
4.818646551724138
 20
1.1698448275862068
 30
0.0
 11
4.800077586206896
 21
1.1512758620689654
 31
0.0
  0
LINE
  5
285
  8
A-WALL
 10
4.800077586206896
 20
1.1512758620689654
 30
0.0
 11
4.818646551724138
 21
0.9934396551724137
 31
0.0
  0
LINE
  5
286
  8
A-WALL
 10
4.818646551724138
 20
0.9934396551724137
 30
0.0
 11
4.781508620689655
 21
0.9655862068965516
 31
0.0
  0
LINE
  5
287
  8
A-WALL
 10
4.781508620689655
 20
0.9655862068965516
 30
0.0
 11
3.0360258620689655
 21
0.9655862068965516
 31
0.0
  0
LINE
  5
288
  8
A-WALL
 10
3.0360258620689655
 20
0.9655862068965516
 30
0.0
 11
2.9988879310344827
 21
0.984155172413793
 31
0.0
  0
LINE
  5
289
  8
A-WALL
 10
2.9988879310344827
 20
0.984155172413793
 30
0.0
 11
2.9988879310344827
 21
1.1698448275862068
 31
0.0
  0
LINE
  5
28A
  8
A-WALL
 10
2.9988879310344827
 20
1.1698448275862068
 30
0.0
 11
2.358258620689655
 21
1.160560344827586
 31
0.0
  0
LINE
  5
28B
  8
A-WALL
 10
2.358258620689655
 20
1.160560344827586
 30
0.0
 11
2.3675431034482757
 21
1.8940344827586206
 31
0.0
  0
LINE
  5
28C
  8
A-WALL
 10
2.3675431034482757
 20
1.8940344827586206
 30
0.0
 11
2.1632844827586206
 21
1.8940344827586206
 31
0.0
  0
LINE
  5
28D
  8
A-WALL
 10
2.1632844827586206
 20
1.8940344827586206
 30
0.0
 11
2.1725689655172413
 21
1.3276810344827585
 31
0.0
  0
LINE
  5
28E
  8
A-WALL
 10
2.1725689655172413
 20
1.3276810344827585
 30
0.0
 11
2.154
 21
1.2998275862068964
 31
0.0
  0
LINE
  5
28F
  8
A-WALL
 10
2.154
 20
1.2998275862068964
 30
0.0
 11
1.9961637931034482
 21
1.2998275862068964
 31
0.0
  0
LINE
  5
290
  8
A-WALL
 10
1.9961637931034482
 20
1.2998275862068964
 30
0.0
 11
2.0054482758620686
 21
1.1234224137931033
 31
0.0
  0
LINE
  5
291
  8
A-WALL
 10
2.0054482758620686
 20
1.1234224137931033
 30
0.0
 11
1.9868793103448275
 21
1.104853448275862
 31
0.0
  0
LINE
  5
292
  8
A-WALL
 10
1.9868793103448275
 20
1.104853448275862
 30
0.0
 11
1.012008620689655
 21
1.104853448275862
 31
0.0
  0
LINE
  5
293
  8
A-WALL
 10
1.012008620689655
 20
1.104853448275862
 30
0.0
 11
0.9934396551724137
 21
1.2719741379310343
 31
0.0
  0
LINE
  5
294
  8
A-WALL
 10
0.9934396551724137
 20
1.2719741379310343
 30
0.0
 11
0.8170344827586207
 21
1.2905431034482757
 31
0.0
  0
LINE
  5
295
  8
A-WALL
 10
0.8170344827586207
 20
1.2905431034482757
 30
0.0
 11
0.8170344827586207
 21
4.085172413793103
 31
0.0
  0
LINE
  5
296
  8
A-WALL
 10
0.8170344827586207
 20
4.085172413793103
 30
0.0
 11
0.9934396551724137
 21
4.094456896551724
 31
0.0
  0
LINE
  5
297
  8
A-WALL
 10
0.9934396551724137
 20
4.094456896551724
 30
0.0
 11
0.9934396551724137
 21
4.298715517241379
 31
0.0
  0
LINE
  5
298
  8
A-WALL
 10
0.9934396551724137
 20
4.298715517241379
 30
0.0
 11
1.012008620689655
 21
4.3172844827586205
 31
0.0
  0
LINE
  5
299
  8
A-WALL
 10
1.012008620689655
 20
4.3172844827586205
 30
0.0
 11
1.9218879310344825
 21
4.3172844827586205
 31
0.0
  0
LINE
  5
29A
  8
A-WALL
 10
1.9218879310344825
 20
4.3172844827586205
 30
0.0
 11
1.9497413793103446
 21
4.289431034482758
 31
0.0
  0
LINE
  5
29B
  8
A-WALL
 10
1.9497413793103446
 20
4.289431034482758
 30
0.0
 11
1.9497413793103446
 21
4.103741379310344
 31
0.0
  0
LINE
  5
29C
  8
A-WALL
 10
1.9497413793103446
 20
4.103741379310344
 30
0.0
 11
2.181853448275862
 21
4.103741379310344
 31
0.0
  0
LINE
  5
29D
  8
A-WALL
 10
2.181853448275862
 20
4.103741379310344
 30
0.0
 11
2.1725689655172413
 21
3.5188189655172413
 31
0.0
  0
LINE
  5
29E
  8
A-WALL
 10
2.1725689655172413
 20
3.5188189655172413
 30
0.0
 11
2.144715517241379
 21
3.3609827586206893
 31
0.0
  0
LINE
  5
29F
  8
A-WALL
 10
2.144715517241379
 20
3.3609827586206893
 30
0.0
 11
2.154
 21
1.9218879310344825
 31
0.0
  0
LINE
  5
2A0
  8
A-WALL
 10
2.154
 20
1.9218879310344825
 30
0.0
 11
2.2004224137931034
 21
1.9311724137931032
 31
0.0
  0
LINE
  5
2A1
  8
A-WALL
 10
2.2004224137931034
 20
1.9311724137931032
 30
0.0
 11
2.1725689655172413
 21
1.9497413793103446
 31
0.0
  0
LINE
  5
2A2
  8
A-WALL
 10
2.1725689655172413
 20
1.9497413793103446
 30
0.0
 11
2.1725689655172413
 21
3.3888362068965514
 31
0.0
  0
LINE
  5
2A3
  8
A-WALL
 10
2.1725689655172413
 20
3.3888362068965514
 30
0.0
 11
2.218991379310345
 21
3.4538275862068963
 31
0.0
  0
LINE
  5
2A4
  8
A-WALL
 10
2.218991379310345
 20
3.4538275862068963
 30
0.0
 11
2.3025517241379307
 21
3.4538275862068963
 31
0.0
  0
LINE
  5
2A5
  8
A-WALL
 10
2.3025517241379307
 20
3.4538275862068963
 30
0.0
 11
2.3489741379310343
 21
3.398120689655172
 31
0.0
  0
LINE
  5
2A6
  8
A-WALL
 10
2.3489741379310343
 20
3.398120689655172
 30
0.0
 11
2.3675431034482757
 21
3.4166896551724135
 31
0.0
  0
LINE
  5
2A7
  8
A-WALL
 10
2.3675431034482757
 20
3.4166896551724135
 30
0.0
 11
2.358258620689655
 21
3.5373879310344827
 31
0.0
  0
LINE
  5
2A8
  8
A-WALL
 10
2.358258620689655
 20
3.5373879310344827
 30
0.0
 11
2.386112068965517
 21
3.602379310344827
 31
0.0
  0
LINE
  5
2A9
  8
A-WALL
 10
2.386112068965517
 20
3.602379310344827
 30
0.0
 11
2.358258620689655
 21
3.6488017241379307
 31
0.0
  0
LINE
  5
2AA
  8
A-WALL
 10
2.358258620689655
 20
3.6488017241379307
 30
0.0
 11
2.358258620689655
 21
4.874353448275862
 31
0.0
  0
LINE
  5
2AB
  8
A-WALL
 10
2.358258620689655
 20
4.874353448275862
 30
0.0
 11
2.3768275862068964
 21
4.892922413793103
 31
0.0
  0
LINE
  5
2AC
  8
A-WALL
 10
2.3768275862068964
 20
4.892922413793103
 30
0.0
 11
5.561405172413792
 21
4.892922413793103
 31
0.0
  0
LINE
  5
2AD
  8
A-WALL
 10
5.561405172413792
 20
4.892922413793103
 30
0.0
 11
5.579974137931034
 21
4.865068965517241
 31
0.0
  0
LINE
  5
2AE
  8
A-WALL
 10
5.579974137931034
 20
4.865068965517241
 30
0.0
 11
5.570689655172413
 21
4.391560344827586
 31
0.0
  0
LINE
  5
2AF
  8
A-WALL
 10
5.570689655172413
 20
4.391560344827586
 30
0.0
 11
5.598543103448275
 21
4.428698275862069
 31
0.0
  0
LINE
  5
2B0
  8
A-WALL
 10
5.598543103448275
 20
4.428698275862069
 30
0.0
 11
5.635681034482758
 21
4.428698275862069
 31
0.0
  0
LINE
  5
2B1
  8
A-WALL
 10
5.635681034482758
 20
4.428698275862069
 30
0.0
 11
5.66353448275862
 21
4.3822758620689655
 31
0.0
  0
LINE
  5
2B2
  8
A-WALL
 10
5.66353448275862
 20
4.3822758620689655
 30
0.0
 11
5.654249999999999
 21
3.258853448275862
 31
0.0
  0
LINE
  5
2B3
  8
A-WALL
 10
5.654249999999999
 20
3.258853448275862
 30
0.0
 11
5.6821034482758614
 21
3.258853448275862
 31
0.0
  0
LINE
  5
2B4
  8
A-WALL
 10
5.6821034482758614
 20
3.258853448275862
 30
0.0
 11
5.672818965517241
 21
4.567965517241379
 31
0.0
  0
LINE
  5
2B5
  8
A-WALL
 10
5.672818965517241
 20
4.567965517241379
 30
0.0
 11
7.399732758620689
 21
4.558681034482758
 31
0.0
  0
LINE
  5
2B6
  8
A-WALL
 10
7.399732758620689
 20
4.558681034482758
 30
0.0
 11
7.390448275862068
 21
4.632956896551724
 31
0.0
  0
LINE
  5
2B7
  8
A-WALL
 10
7.390448275862068
 20
4.632956896551724
 30
0.0
 11
7.4183017241379305
 21
4.642241379310344
 31
0.0
  0
LINE
  5
2B8
  8
A-WALL
 10
7.4183017241379305
 20
4.642241379310344
 30
0.0
 11
7.4183017241379305
 21
4.660810344827586
 31
0.0
  0
LINE
  5
2B9
  8
A-WALL
 10
7.4183017241379305
 20
4.660810344827586
 30
0.0
 11
5.6821034482758614
 21
4.651525862068965
 31
0.0
  0
LINE
  5
2BA
  8
A-WALL
 10
5.6821034482758614
 20
4.651525862068965
 30
0.0
 11
5.654249999999999
 21
4.670094827586206
 31
0.0
  0
LINE
  5
2BB
  8
A-WALL
 10
5.654249999999999
 20
4.670094827586206
 30
0.0
 11
5.672818965517241
 21
4.97648275862069
 31
0.0
  0
LINE
  5
2BC
  8
A-WALL
 10
5.672818965517241
 20
4.97648275862069
 30
0.0
 11
2.358258620689655
 21
4.97648275862069
 31
0.0
  0
LINE
  5
2BD
  8
A-WALL
 10
2.358258620689655
 20
4.97648275862069
 30
0.0
 11
2.3675431034482757
 21
7.464724137931034
 31
0.0
  0
LINE
  5
2BE
  8
A-WALL
 10
2.3675431034482757
 20
7.464724137931034
 30
0.0
 11
2.3489741379310343
 21
7.427586206896551
 31
0.0
  0
LINE
  5
2BF
  8
A-WALL
 10
2.3489741379310343
 20
7.427586206896551
 30
0.0
 11
2.358258620689655
 21
5.691387931034482
 31
0.0
  0
LINE
  5
2C0
  8
A-WALL
 10
2.358258620689655
 20
5.691387931034482
 30
0.0
 11
2.3025517241379307
 21
5.66353448275862
 31
0.0
  0
LINE
  5
2C1
  8
A-WALL
 10
2.3025517241379307
 20
5.66353448275862
 30
0.0
 11
2.1725689655172413
 21
5.691387931034482
 31
0.0
  0
LINE
  5
2C2
  8
A-WALL
 10
2.1725689655172413
 20
5.691387931034482
 30
0.0
 11
2.1725689655172413
 21
7.474008620689655
 31
0.0
  0
LINE
  5
2C3
  8
A-WALL
 10
2.1725689655172413
 20
7.474008620689655
 30
0.0
 11
2.1911379310344827
 21
7.492577586206896
 31
0.0
  0
LINE
  5
2C4
  8
A-WALL
 10
2.1911379310344827
 20
7.492577586206896
 30
0.0
 11
2.3675431034482757
 21
7.4832931034482755
 31
0.0
  0
LINE
  5
2C5
  8
A-WALL
 10
2.3675431034482757
 20
7.4832931034482755
 30
0.0
 11
2.3675431034482757
 21
8.179629310344827
 31
0.0
  0
LINE
  5
2C6
  8
A-WALL
 10
2.3675431034482757
 20
8.179629310344827
 30
0.0
 11
2.209706896551724
 21
8.198198275862069
 31
0.0
  0
LINE
  5
2C7
  8
A-WALL
 10
2.209706896551724
 20
8.198198275862069
 30
0.0
 11
2.209706896551724
 21
8.365318965517242
 31
0.0
  0
LINE
  5
2C8
  8
A-WALL
 10
10.64001724137931
 20
1.0677155172413793
 30
0.0
 11
10.667870689655171
 21
1.0491465517241378
 31
0.0
  0
LINE
  5
2C9
  8
A-WALL
 10
10.667870689655171
 20
1.0491465517241378
 30
0.0
 11
12.348362068965516
 21
1.0584310344827585
 31
0.0
  0
LINE
  5
2CA
  8
A-WALL
 10
12.348362068965516
 20
1.0584310344827585
 30
0.0
 11
12.348362068965516
 21
1.077
 31
0.0
  0
LINE
  5
2CB
  8
A-WALL
 10
12.348362068965516
 20
1.077
 30
0.0
 11
10.64001724137931
 21
1.0677155172413793
 31
0.0
  0
LINE
  5
2CC
  8
A-WALL
 10
3.063879310344827
 20
1.077
 30
0.0
 11
3.063879310344827
 21
1.0491465517241378
 31
0.0
  0
LINE
  5
2CD
  8
A-WALL
 10
3.063879310344827
 20
1.0491465517241378
 30
0.0
 11
4.753655172413793
 21
1.0584310344827585
 31
0.0
  0
LINE
  5
2CE
  8
A-WALL
 10
4.753655172413793
 20
1.0584310344827585
 30
0.0
 11
4.753655172413793
 21
1.077
 31
0.0
  0
LINE
  5
2CF
  8
A-WALL
 10
4.753655172413793
 20
1.077
 30
0.0
 11
3.063879310344827
 21
1.077
 31
0.0
  0
LINE
  5
2D0
  8
A-WALL
 10
7.028353448275862
 20
1.077
 30
0.0
 11
7.0376379310344825
 21
1.0491465517241378
 31
0.0
  0
LINE
  5
2D1
  8
A-WALL
 10
7.0376379310344825
 20
1.0491465517241378
 30
0.0
 11
8.736698275862068
 21
1.0584310344827585
 31
0.0
  0
LINE
  5
2D2
  8
A-WALL
 10
8.736698275862068
 20
1.0584310344827585
 30
0.0
 11
8.736698275862068
 21
1.077
 31
0.0
  0
LINE
  5
2D3
  8
A-WALL
 10
8.736698275862068
 20
1.077
 30
0.0
 11
7.028353448275862
 21
1.077
 31
0.0
  0
LINE
  5
2D4
  8
A-WALL
 10
7.00978448275862
 20
1.1698448275862068
 30
0.0
 11
7.046922413793103
 21
1.1419913793103447
 31
0.0
  0
LINE
  5
2D5
  8
A-WALL
 10
7.046922413793103
 20
1.1419913793103447
 30
0.0
 11
8.718129310344827
 21
1.1419913793103447
 31
0.0
  0
LINE
  5
2D6
  8
A-WALL
 10
8.718129310344827
 20
1.1419913793103447
 30
0.0
 11
8.75526724137931
 21
1.160560344827586
 31
0.0
  0
LINE
  5
2D7
  8
A-WALL
 10
8.75526724137931
 20
1.160560344827586
 30
0.0
 11
8.74598275862069
 21
1.1791293103448275
 31
0.0
  0
LINE
  5
2D8
  8
A-WALL
 10
8.74598275862069
 20
1.1791293103448275
 30
0.0
 11
7.00978448275862
 21
1.1698448275862068
 31
0.0
  0
LINE
  5
2D9
  8
A-DIMS
 10
3.045310344827586
 20
1.1698448275862068
 30
0.0
 11
3.073163793103448
 21
1.1419913793103447
 31
0.0
  0
LINE
  5
2DA
  8
A-DIMS
 10
3.073163793103448
 20
1.1419913793103447
 30
0.0
 11
4.772224137931034
 21
1.1512758620689654
 31
0.0
  0
LINE
  5
2DB
  8
A-DIMS
 10
4.772224137931034
 20
1.1512758620689654
 30
0.0
 11
4.7629396551724135
 21
1.1791293103448275
 31
0.0
  0
LINE
  5
2DC
  8
A-DIMS
 10
4.7629396551724135
 20
1.1791293103448275
 30
0.0
 11
3.045310344827586
 21
1.1698448275862068
 31
0.0
  0
LINE
  5
2DD
  8
A-WALL
 10
3.1845775862068963
 20
1.5040862068965517
 30
0.0
 11
3.193862068965517
 21
1.4762327586206896
 31
0.0
  0
LINE
  5
2DE
  8
A-WALL
 10
3.193862068965517
 20
1.4762327586206896
 30
0.0
 11
3.704508620689655
 21
1.4855172413793103
 31
0.0
  0
LINE
  5
2DF
  8
A-WALL
 10
3.704508620689655
 20
1.4855172413793103
 30
0.0
 11
3.695224137931034
 21
1.5040862068965517
 31
0.0
  0
LINE
  5
2E0
  8
A-WALL
 10
3.695224137931034
 20
1.5040862068965517
 30
0.0
 11
3.1845775862068963
 21
1.5040862068965517
 31
0.0
  0
LINE
  5
2E1
  8
A-WALL
 10
9.95296551724138
 20
1.5040862068965517
 30
0.0
 11
10.008672413793104
 21
1.4855172413793103
 31
0.0
  0
LINE
  5
2E2
  8
A-WALL
 10
10.008672413793104
 20
1.4855172413793103
 30
0.0
 11
12.032689655172414
 21
1.4855172413793103
 31
0.0
  0
LINE
  5
2E3
  8
A-WALL
 10
12.032689655172414
 20
1.4855172413793103
 30
0.0
 11
12.032689655172414
 21
1.5133706896551724
 31
0.0
  0
LINE
  5
2E4
  8
A-WALL
 10
12.032689655172414
 20
1.5133706896551724
 30
0.0
 11
9.95296551724138
 21
1.5040862068965517
 31
0.0
  0
LINE
  5
2E5
  8
A-WALL
 10
7.111913793103448
 20
1.5133706896551724
 30
0.0
 11
7.111913793103448
 21
1.494801724137931
 31
0.0
  0
LINE
  5
2E6
  8
A-WALL
 10
7.111913793103448
 20
1.494801724137931
 30
0.0
 11
9.386612068965517
 21
1.494801724137931
 31
0.0
  0
LINE
  5
2E7
  8
A-WALL
 10
9.386612068965517
 20
1.494801724137931
 30
0.0
 11
9.377327586206896
 21
1.5133706896551724
 31
0.0
  0
LINE
  5
2E8
  8
A-WALL
 10
9.377327586206896
 20
1.5133706896551724
 30
0.0
 11
7.111913793103448
 21
1.5133706896551724
 31
0.0
  0
LINE
  5
2E9
  8
A-WALL
 10
4.140879310344827
 20
1.5040862068965517
 30
0.0
 11
4.150163793103448
 21
1.4762327586206896
 31
0.0
  0
LINE
  5
2EA
  8
A-WALL
 10
4.150163793103448
 20
1.4762327586206896
 30
0.0
 11
4.651525862068965
 21
1.4762327586206896
 31
0.0
  0
LINE
  5
2EB
  8
A-WALL
 10
4.651525862068965
 20
1.4762327586206896
 30
0.0
 11
4.651525862068965
 21
1.5040862068965517
 31
0.0
  0
LINE
  5
2EC
  8
A-WALL
 10
4.651525862068965
 20
1.5040862068965517
 30
0.0
 11
4.614387931034482
 21
1.5133706896551724
 31
0.0
  0
LINE
  5
2ED
  8
A-WALL
 10
4.614387931034482
 20
1.5133706896551724
 30
0.0
 11
4.140879310344827
 21
1.5040862068965517
 31
0.0
  0
LINE
  5
2EE
  8
A-DIMS
 10
4.6979482758620685
 20
1.522655172413793
 30
0.0
 11
4.707232758620689
 21
1.4483793103448275
 31
0.0
  0
LINE
  5
2EF
  8
A-DIMS
 10
4.707232758620689
 20
1.4483793103448275
 30
0.0
 11
4.809362068965517
 21
1.4855172413793103
 31
0.0
  0
LINE
  5
2F0
  8
A-DIMS
 10
4.809362068965517
 20
1.4855172413793103
 30
0.0
 11
4.744370689655172
 21
1.5319396551724136
 31
0.0
  0
LINE
  5
2F1
  8
A-DIMS
 10
4.744370689655172
 20
1.5319396551724136
 30
0.0
 11
4.6979482758620685
 21
1.522655172413793
 31
0.0
  0
LINE
  5
2F2
  8
A-DIMS
 10
3.0360258620689655
 20
1.5040862068965517
 30
0.0
 11
3.0360258620689655
 21
1.4762327586206896
 31
0.0
  0
LINE
  5
2F3
  8
A-DIMS
 10
3.0360258620689655
 20
1.4762327586206896
 30
0.0
 11
3.138155172413793
 21
1.4483793103448275
 31
0.0
  0
LINE
  5
2F4
  8
A-DIMS
 10
3.138155172413793
 20
1.4483793103448275
 30
0.0
 11
3.128870689655172
 21
1.5412241379310343
 31
0.0
  0
LINE
  5
2F5
  8
A-DIMS
 10
3.128870689655172
 20
1.5412241379310343
 30
0.0
 11
3.0360258620689655
 21
1.5040862068965517
 31
0.0
  0
LINE
  5
2F6
  8
A-DIMS
 10
6.963362068965517
 20
1.5133706896551724
 30
0.0
 11
7.0376379310344825
 21
1.4576637931034482
 31
0.0
  0
LINE
  5
2F7
  8
A-DIMS
 10
7.0376379310344825
 20
1.4576637931034482
 30
0.0
 11
7.074775862068965
 21
1.4762327586206896
 31
0.0
  0
LINE
  5
2F8
  8
A-DIMS
 10
7.074775862068965
 20
1.4762327586206896
 30
0.0
 11
7.065491379310345
 21
1.550508620689655
 31
0.0
  0
LINE
  5
2F9
  8
A-DIMS
 10
7.065491379310345
 20
1.550508620689655
 30
0.0
 11
6.963362068965517
 21
1.5133706896551724
 31
0.0
  0
LINE
  5
2FA
  8
A-WALL
 10
12.069827586206896
 20
1.9775948275862067
 30
0.0
 11
12.060543103448275
 21
1.4855172413793103
 31
0.0
  0
LINE
  5
2FB
  8
A-WALL
 10
12.060543103448275
 20
1.4855172413793103
 30
0.0
 11
12.079112068965516
 21
1.3648189655172414
 31
0.0
  0
LINE
  5
2FC
  8
A-WALL
 10
12.079112068965516
 20
1.3648189655172414
 30
0.0
 11
12.088396551724138
 21
1.9311724137931032
 31
0.0
  0
LINE
  5
2FD
  8
A-WALL
 10
12.088396551724138
 20
1.9311724137931032
 30
0.0
 11
12.069827586206896
 21
1.9775948275862067
 31
0.0
  0
LINE
  5
2FE
  8
A-DIMS
 10
1.7826206896551722
 20
2.5160948275862065
 30
0.0
 11
1.7826206896551722
 21
2.0054482758620686
 31
0.0
  0
LINE
  5
2FF
  8
A-DIMS
 10
1.7826206896551722
 20
2.0054482758620686
 30
0.0
 11
1.7361982758620689
 21
1.9775948275862067
 31
0.0
  0
LINE
  5
300
  8
A-DIMS
 10
1.7361982758620689
 20
1.9775948275862067
 30
0.0
 11
1.7919051724137929
 21
1.88475
 31
0.0
  0
LINE
  5
301
  8
A-DIMS
 10
1.7919051724137929
 20
1.88475
 30
0.0
 11
1.8383275862068964
 21
1.9868793103448275
 31
0.0
  0
LINE
  5
302
  8
A-DIMS
 10
1.8383275862068964
 20
1.9868793103448275
 30
0.0
 11
1.7919051724137929
 21
2.0054482758620686
 31
0.0
  0
LINE
  5
303
  8
A-DIMS
 10
1.7919051724137929
 20
2.0054482758620686
 30
0.0
 11
1.8011896551724136
 21
2.5068103448275862
 31
0.0
  0
LINE
  5
304
  8
A-DIMS
 10
1.8011896551724136
 20
2.5068103448275862
 30
0.0
 11
1.7826206896551722
 21
2.5160948275862065
 31
0.0
  0
LINE
  5
305
  8
A-DIMS
 10
12.051258620689655
 20
3.1474396551724135
 30
0.0
 11
12.032689655172414
 21
3.1103017241379307
 31
0.0
  0
LINE
  5
306
  8
A-DIMS
 10
12.032689655172414
 20
3.1103017241379307
 30
0.0
 11
12.079112068965516
 21
3.0081724137931034
 31
0.0
  0
LINE
  5
307
  8
A-DIMS
 10
12.079112068965516
 20
3.0081724137931034
 30
0.0
 11
12.032689655172414
 21
2.9060431034482757
 31
0.0
  0
LINE
  5
308
  8
A-DIMS
 10
12.032689655172414
 20
2.9060431034482757
 30
0.0
 11
12.069827586206896
 21
2.896758620689655
 31
0.0
  0
LINE
  5
309
  8
A-DIMS
 10
12.069827586206896
 20
2.896758620689655
 30
0.0
 11
12.079112068965516
 21
2.265413793103448
 31
0.0
  0
LINE
  5
30A
  8
A-DIMS
 10
12.079112068965516
 20
2.265413793103448
 30
0.0
 11
12.079112068965516
 21
2.896758620689655
 31
0.0
  0
LINE
  5
30B
  8
A-DIMS
 10
12.079112068965516
 20
2.896758620689655
 30
0.0
 11
12.12553448275862
 21
2.9060431034482757
 31
0.0
  0
LINE
  5
30C
  8
A-DIMS
 10
12.12553448275862
 20
2.9060431034482757
 30
0.0
 11
12.079112068965516
 21
3.0360258620689655
 31
0.0
  0
LINE
  5
30D
  8
A-DIMS
 10
12.079112068965516
 20
3.0360258620689655
 30
0.0
 11
12.12553448275862
 21
3.138155172413793
 31
0.0
  0
LINE
  5
30E
  8
A-DIMS
 10
12.12553448275862
 20
3.138155172413793
 30
0.0
 11
12.051258620689655
 21
3.1474396551724135
 31
0.0
  0
LINE
  5
30F
  8
A-DIMS
 10
1.7826206896551722
 20
3.4445431034482756
 30
0.0
 11
1.7454827586206896
 21
3.333129310344827
 31
0.0
  0
LINE
  5
310
  8
A-DIMS
 10
1.7454827586206896
 20
3.333129310344827
 30
0.0
 11
1.7826206896551722
 21
3.3238448275862065
 31
0.0
  0
LINE
  5
311
  8
A-DIMS
 10
1.7826206896551722
 20
3.3238448275862065
 30
0.0
 11
1.7733362068965517
 21
2.8224827586206893
 31
0.0
  0
LINE
  5
312
  8
A-DIMS
 10
1.7733362068965517
 20
2.8224827586206893
 30
0.0
 11
1.7919051724137929
 21
2.803913793103448
 31
0.0
  0
LINE
  5
313
  8
A-DIMS
 10
1.7919051724137929
 20
2.803913793103448
 30
0.0
 11
1.7919051724137929
 21
3.3238448275862065
 31
0.0
  0
LINE
  5
314
  8
A-DIMS
 10
1.7919051724137929
 20
3.3238448275862065
 30
0.0
 11
1.8383275862068964
 21
3.333129310344827
 31
0.0
  0
LINE
  5
315
  8
A-DIMS
 10
1.8383275862068964
 20
3.333129310344827
 30
0.0
 11
1.8383275862068964
 21
3.3609827586206893
 31
0.0
  0
LINE
  5
316
  8
A-DIMS
 10
1.8383275862068964
 20
3.3609827586206893
 30
0.0
 11
1.7826206896551722
 21
3.4445431034482756
 31
0.0
  0
LINE
  5
317
  8
A-WALL
 10
12.069827586206896
 20
3.667370689655172
 30
0.0
 11
12.069827586206896
 21
3.1845775862068963
 31
0.0
  0
LINE
  5
318
  8
A-WALL
 10
12.069827586206896
 20
3.1845775862068963
 30
0.0
 11
12.088396551724138
 21
3.1845775862068963
 31
0.0
  0
LINE
  5
319
  8
A-WALL
 10
12.088396551724138
 20
3.1845775862068963
 30
0.0
 11
12.088396551724138
 21
3.6488017241379307
 31
0.0
  0
LINE
  5
31A
  8
A-WALL
 10
12.088396551724138
 20
3.6488017241379307
 30
0.0
 11
12.069827586206896
 21
3.667370689655172
 31
0.0
  0
LINE
  5
31B
  8
A-WALL
 10
6.05348275862069
 20
3.676655172413793
 30
0.0
 11
6.05348275862069
 21
3.3609827586206893
 31
0.0
  0
LINE
  5
31C
  8
A-WALL
 10
6.05348275862069
 20
3.3609827586206893
 30
0.0
 11
6.007060344827586
 21
3.3238448275862065
 31
0.0
  0
LINE
  5
31D
  8
A-WALL
 10
6.007060344827586
 20
3.3238448275862065
 30
0.0
 11
6.06276724137931
 21
3.2402844827586206
 31
0.0
  0
LINE
  5
31E
  8
A-WALL
 10
6.06276724137931
 20
3.2402844827586206
 30
0.0
 11
6.109189655172413
 21
3.333129310344827
 31
0.0
  0
LINE
  5
31F
  8
A-WALL
 10
6.109189655172413
 20
3.333129310344827
 30
0.0
 11
6.06276724137931
 21
3.3609827586206893
 31
0.0
  0
LINE
  5
320
  8
A-WALL
 10
6.06276724137931
 20
3.3609827586206893
 30
0.0
 11
6.072051724137931
 21
3.6580862068965514
 31
0.0
  0
LINE
  5
321
  8
A-WALL
 10
6.072051724137931
 20
3.6580862068965514
 30
0.0
 11
6.05348275862069
 21
3.676655172413793
 31
0.0
  0
LINE
  5
322
  8
A-FURN
 10
2.5068103448275862
 20
4.410129310344828
 30
0.0
 11
2.4975258620689655
 21
3.843775862068965
 31
0.0
  0
LINE
  5
323
  8
A-FURN
 10
2.4975258620689655
 20
3.843775862068965
 30
0.0
 11
2.5160948275862065
 21
3.8344913793103443
 31
0.0
  0
LINE
  5
324
  8
A-FURN
 10
2.5160948275862065
 20
3.8344913793103443
 30
0.0
 11
2.5068103448275862
 21
4.410129310344828
 31
0.0
  0
LINE
  5
325
  8
A-WALL
 10
6.05348275862069
 20
4.419413793103448
 30
0.0
 11
6.016344827586207
 21
4.298715517241379
 31
0.0
  0
LINE
  5
326
  8
A-WALL
 10
6.016344827586207
 20
4.298715517241379
 30
0.0
 11
6.05348275862069
 21
4.280146551724138
 31
0.0
  0
LINE
  5
327
  8
A-WALL
 10
6.05348275862069
 20
4.280146551724138
 30
0.0
 11
6.044198275862069
 21
3.9923275862068963
 31
0.0
  0
LINE
  5
328
  8
A-WALL
 10
6.044198275862069
 20
3.9923275862068963
 30
0.0
 11
6.06276724137931
 21
3.9551896551724135
 31
0.0
  0
LINE
  5
329
  8
A-WALL
 10
6.06276724137931
 20
3.9551896551724135
 30
0.0
 11
6.06276724137931
 21
4.280146551724138
 31
0.0
  0
LINE
  5
32A
  8
A-WALL
 10
6.06276724137931
 20
4.280146551724138
 30
0.0
 11
6.109189655172413
 21
4.3172844827586205
 31
0.0
  0
LINE
  5
32B
  8
A-WALL
 10
6.109189655172413
 20
4.3172844827586205
 30
0.0
 11
6.05348275862069
 21
4.419413793103448
 31
0.0
  0
LINE
  5
32C
  8
A-FURN
 10
2.627508620689655
 20
4.419413793103448
 30
0.0
 11
2.6089396551724136
 21
4.400844827586207
 31
0.0
  0
LINE
  5
32D
  8
A-FURN
 10
2.6089396551724136
 20
4.400844827586207
 30
0.0
 11
2.6182241379310343
 21
3.825206896551724
 31
0.0
  0
LINE
  5
32E
  8
A-FURN
 10
2.6182241379310343
 20
3.825206896551724
 30
0.0
 11
2.6367931034482757
 21
3.8344913793103443
 31
0.0
  0
LINE
  5
32F
  8
A-FURN
 10
2.6367931034482757
 20
3.8344913793103443
 30
0.0
 11
2.627508620689655
 21
4.419413793103448
 31
0.0
  0
LINE
  5
330
  8
A-WALL
 10
12.069827586206896
 20
4.456551724137931
 30
0.0
 11
12.079112068965516
 21
3.945905172413793
 31
0.0
  0
LINE
  5
331
  8
A-WALL
 10
12.079112068965516
 20
3.945905172413793
 30
0.0
 11
12.088396551724138
 21
4.419413793103448
 31
0.0
  0
LINE
  5
332
  8
A-WALL
 10
12.088396551724138
 20
4.419413793103448
 30
0.0
 11
12.069827586206896
 21
4.456551724137931
 31
0.0
  0
LINE
  5
333
  8
A-FURN
 10
2.413965517241379
 20
4.484405172413793
 30
0.0
 11
2.413965517241379
 21
4.456551724137931
 31
0.0
  0
LINE
  5
334
  8
A-FURN
 10
2.413965517241379
 20
4.456551724137931
 30
0.0
 11
2.4603879310344827
 21
4.44726724137931
 31
0.0
  0
LINE
  5
335
  8
A-FURN
 10
2.4603879310344827
 20
4.44726724137931
 30
0.0
 11
2.794629310344827
 21
4.456551724137931
 31
0.0
  0
LINE
  5
336
  8
A-FURN
 10
2.794629310344827
 20
4.456551724137931
 30
0.0
 11
2.803913793103448
 21
3.797353448275862
 31
0.0
  0
LINE
  5
337
  8
A-FURN
 10
2.803913793103448
 20
3.797353448275862
 30
0.0
 11
2.7853448275862065
 21
3.7787844827586206
 31
0.0
  0
LINE
  5
338
  8
A-FURN
 10
2.7853448275862065
 20
3.7787844827586206
 30
0.0
 11
2.413965517241379
 21
3.7880689655172413
 31
0.0
  0
LINE
  5
339
  8
A-FURN
 10
2.413965517241379
 20
3.7880689655172413
 30
0.0
 11
2.4046810344827585
 21
3.760215517241379
 31
0.0
  0
LINE
  5
33A
  8
A-FURN
 10
2.4046810344827585
 20
3.760215517241379
 30
0.0
 11
2.989603448275862
 21
3.7695
 31
0.0
  0
LINE
  5
33B
  8
A-FURN
 10
2.989603448275862
 20
3.7695
 30
0.0
 11
2.989603448275862
 21
4.4751206896551725
 31
0.0
  0
LINE
  5
33C
  8
A-FURN
 10
2.989603448275862
 20
4.4751206896551725
 30
0.0
 11
2.413965517241379
 21
4.484405172413793
 31
0.0
  0
LINE
  5
33D
  8
A-FURN
 10
2.83176724137931
 20
4.465836206896552
 30
0.0
 11
2.9710344827586206
 21
4.43798275862069
 31
0.0
  0
LINE
  5
33E
  8
A-FURN
 10
2.9710344827586206
 20
4.43798275862069
 30
0.0
 11
2.9710344827586206
 21
3.797353448275862
 31
0.0
  0
LINE
  5
33F
  8
A-FURN
 10
2.9710344827586206
 20
3.797353448275862
 30
0.0
 11
2.952465517241379
 21
3.7787844827586206
 31
0.0
  0
LINE
  5
340
  8
A-FURN
 10
2.952465517241379
 20
3.7787844827586206
 30
0.0
 11
2.8131982758620686
 21
3.797353448275862
 31
0.0
  0
LINE
  5
341
  8
A-FURN
 10
2.8131982758620686
 20
3.797353448275862
 30
0.0
 11
2.8131982758620686
 21
4.43798275862069
 31
0.0
  0
LINE
  5
342
  8
A-FURN
 10
2.8131982758620686
 20
4.43798275862069
 30
0.0
 11
2.83176724137931
 21
4.465836206896552
 31
0.0
  0
LINE
  5
343
  8
A-WALL
 10
8.272474137931034
 20
4.577249999999999
 30
0.0
 11
7.427586206896551
 21
4.577249999999999
 31
0.0
  0
LINE
  5
344
  8
A-WALL
 10
7.427586206896551
 20
4.577249999999999
 30
0.0
 11
7.4183017241379305
 21
4.558681034482758
 31
0.0
  0
LINE
  5
345
  8
A-WALL
 10
7.4183017241379305
 20
4.558681034482758
 30
0.0
 11
8.263189655172413
 21
4.549396551724137
 31
0.0
  0
LINE
  5
346
  8
A-WALL
 10
8.263189655172413
 20
4.549396551724137
 30
0.0
 11
8.272474137931034
 21
4.577249999999999
 31
0.0
  0
LINE
  5
347
  8
A-DIMS
 10
2.7017844827586206
 20
5.830655172413793
 30
0.0
 11
2.7296379310344827
 21
5.737810344827586
 31
0.0
  0
LINE
  5
348
  8
A-DIMS
 10
2.7296379310344827
 20
5.737810344827586
 30
0.0
 11
2.757491379310345
 21
5.728525862068965
 31
0.0
  0
LINE
  5
349
  8
A-DIMS
 10
2.757491379310345
 20
5.728525862068965
 30
0.0
 11
2.794629310344827
 21
5.830655172413793
 31
0.0
  0
LINE
  5
34A
  8
A-DIMS
 10
2.794629310344827
 20
5.830655172413793
 30
0.0
 11
2.7017844827586206
 21
5.830655172413793
 31
0.0
  0
LINE
  5
34B
  8
A-DIMS
 10
2.748206896551724
 20
6.4712844827586204
 30
0.0
 11
2.7389224137931034
 21
5.877077586206896
 31
0.0
  0
LINE
  5
34C
  8
A-DIMS
 10
2.7389224137931034
 20
5.877077586206896
 30
0.0
 11
2.757491379310345
 21
5.8677931034482755
 31
0.0
  0
LINE
  5
34D
  8
A-DIMS
 10
2.757491379310345
 20
5.8677931034482755
 30
0.0
 11
2.748206896551724
 21
6.4712844827586204
 31
0.0
  0
LINE
  5
34E
  8
A-DIMS
 10
2.748206896551724
 20
7.362594827586206
 30
0.0
 11
2.7389224137931034
 21
6.768387931034482
 31
0.0
  0
LINE
  5
34F
  8
A-DIMS
 10
2.7389224137931034
 20
6.768387931034482
 30
0.0
 11
2.757491379310345
 21
6.759103448275861
 31
0.0
  0
LINE
  5
350
  8
A-DIMS
 10
2.757491379310345
 20
6.759103448275861
 30
0.0
 11
2.748206896551724
 21
7.362594827586206
 31
0.0
  0
LINE
  5
351
  8
A-FURN
 10
2.256129310344827
 20
7.446155172413793
 30
0.0
 11
2.256129310344827
 21
5.719241379310344
 31
0.0
  0
LINE
  5
352
  8
A-FURN
 10
2.256129310344827
 20
5.719241379310344
 30
0.0
 11
2.2746982758620686
 21
5.709956896551724
 31
0.0
  0
LINE
  5
353
  8
A-FURN
 10
2.2746982758620686
 20
5.709956896551724
 30
0.0
 11
2.2839827586206893
 21
7.427586206896551
 31
0.0
  0
LINE
  5
354
  8
A-FURN
 10
2.2839827586206893
 20
7.427586206896551
 30
0.0
 11
2.256129310344827
 21
7.446155172413793
 31
0.0
  0
LINE
  5
355
  8
A-DIMS
 10
2.7389224137931034
 20
7.501862068965517
 30
0.0
 11
2.6925
 21
7.399732758620689
 31
0.0
  0
LINE
  5
356
  8
A-DIMS
 10
2.6925
 20
7.399732758620689
 30
0.0
 11
2.794629310344827
 21
7.399732758620689
 31
0.0
  0
LINE
  5
357
  8
A-DIMS
 10
2.794629310344827
 20
7.399732758620689
 30
0.0
 11
2.7667758620689655
 21
7.492577586206896
 31
0.0
  0
LINE
  5
358
  8
A-DIMS
 10
2.7667758620689655
 20
7.492577586206896
 30
0.0
 11
2.7389224137931034
 21
7.501862068965517
 31
0.0
  0
LINE
  5
359
  8
A-WALL
 10
4.540112068965517
 20
7.891810344827586
 30
0.0
 11
5.060043103448275
 21
7.882525862068965
 31
0.0
  0
LINE
  5
35A
  8
A-WALL
 10
5.060043103448275
 20
7.882525862068965
 30
0.0
 11
5.069327586206896
 21
7.901094827586206
 31
0.0
  0
LINE
  5
35B
  8
A-WALL
 10
5.069327586206896
 20
7.901094827586206
 30
0.0
 11
4.6051034482758615
 21
7.910379310344827
 31
0.0
  0
LINE
  5
35C
  8
A-WALL
 10
4.6051034482758615
 20
7.910379310344827
 30
0.0
 11
4.540112068965517
 21
7.891810344827586
 31
0.0
  0
LINE
  5
35D
  8
A-WALL
 10
3.602379310344827
 20
7.901094827586206
 30
0.0
 11
3.6209482758620686
 21
7.882525862068965
 31
0.0
  0
LINE
  5
35E
  8
A-WALL
 10
3.6209482758620686
 20
7.882525862068965
 30
0.0
 11
4.103741379310344
 21
7.891810344827586
 31
0.0
  0
LINE
  5
35F
  8
A-WALL
 10
4.103741379310344
 20
7.891810344827586
 30
0.0
 11
4.094456896551724
 21
7.910379310344827
 31
0.0
  0
LINE
  5
360
  8
A-WALL
 10
4.094456896551724
 20
7.910379310344827
 30
0.0
 11
3.602379310344827
 21
7.901094827586206
 31
0.0
  0
LINE
  5
361
  8
A-DIMS
 10
5.106465517241379
 20
7.928948275862068
 30
0.0
 11
5.115749999999999
 21
7.845387931034482
 31
0.0
  0
LINE
  5
362
  8
A-DIMS
 10
5.115749999999999
 20
7.845387931034482
 30
0.0
 11
5.227163793103448
 21
7.891810344827586
 31
0.0
  0
LINE
  5
363
  8
A-DIMS
 10
5.227163793103448
 20
7.891810344827586
 30
0.0
 11
5.134318965517241
 21
7.94751724137931
 31
0.0
  0
LINE
  5
364
  8
A-DIMS
 10
5.134318965517241
 20
7.94751724137931
 30
0.0
 11
5.106465517241379
 21
7.928948275862068
 31
0.0
  0
LINE
  5
365
  8
A-DIMS
 10
3.4445431034482756
 20
7.901094827586206
 30
0.0
 11
3.5095344827586206
 21
7.854672413793103
 31
0.0
  0
LINE
  5
366
  8
A-DIMS
 10
3.5095344827586206
 20
7.854672413793103
 30
0.0
 11
3.555956896551724
 21
7.854672413793103
 31
0.0
  0
LINE
  5
367
  8
A-DIMS
 10
3.555956896551724
 20
7.854672413793103
 30
0.0
 11
3.555956896551724
 21
7.94751724137931
 31
0.0
  0
LINE
  5
368
  8
A-DIMS
 10
3.555956896551724
 20
7.94751724137931
 30
0.0
 11
3.4445431034482756
 21
7.901094827586206
 31
0.0
  0
LINE
  5
369
  8
A-FURN
 10
11.58703448275862
 20
8.383887931034483
 30
0.0
 11
12.571189655172413
 21
8.393172413793103
 31
0.0
  0
LINE
  5
36A
  8
A-FURN
 10
12.571189655172413
 20
8.393172413793103
 30
0.0
 11
12.608327586206896
 21
8.365318965517242
 31
0.0
  0
LINE
  5
36B
  8
A-FURN
 10
12.608327586206896
 20
8.365318965517242
 30
0.0
 11
12.599043103448276
 21
6.499137931034483
 31
0.0
  0
LINE
  5
36C
  8
A-FURN
 10
12.599043103448276
 20
6.499137931034483
 30
0.0
 11
12.580474137931034
 21
6.480568965517241
 31
0.0
  0
LINE
  5
36D
  8
A-FURN
 10
12.580474137931034
 20
6.480568965517241
 30
0.0
 11
12.52476724137931
 21
6.480568965517241
 31
0.0
  0
LINE
  5
36E
  8
A-FURN
 10
12.52476724137931
 20
6.480568965517241
 30
0.0
 11
12.506198275862069
 21
6.508422413793103
 31
0.0
  0
LINE
  5
36F
  8
A-FURN
 10
12.506198275862069
 20
6.508422413793103
 30
0.0
 11
12.506198275862069
 21
8.207482758620689
 31
0.0
  0
LINE
  5
370
  8
A-FURN
 10
12.506198275862069
 20
8.207482758620689
 30
0.0
 11
12.487629310344827
 21
8.253905172413793
 31
0.0
  0
LINE
  5
371
  8
A-FURN
 10
12.487629310344827
 20
8.253905172413793
 30
0.0
 11
12.422637931034481
 21
8.291043103448276
 31
0.0
  0
LINE
  5
372
  8
A-FURN
 10
12.422637931034481
 20
8.291043103448276
 30
0.0
 11
11.596318965517241
 21
8.291043103448276
 31
0.0
  0
LINE
  5
373
  8
A-FURN
 10
11.596318965517241
 20
8.291043103448276
 30
0.0
 11
11.568465517241378
 21
8.337465517241379
 31
0.0
  0
LINE
  5
374
  8
A-FURN
 10
11.568465517241378
 20
8.337465517241379
 30
0.0
 11
11.58703448275862
 21
8.383887931034483
 31
0.0
  0
LINE
  5
375
  8
A-FURN
 10
8.09606896551724
 20
8.365318965517242
 30
0.0
 11
8.142491379310345
 21
8.393172413793103
 31
0.0
  0
LINE
  5
376
  8
A-FURN
 10
8.142491379310345
 20
8.393172413793103
 30
0.0
 11
9.42375
 21
8.393172413793103
 31
0.0
  0
LINE
  5
377
  8
A-FURN
 10
9.42375
 20
8.393172413793103
 30
0.0
 11
9.460887931034483
 21
8.328181034482759
 31
0.0
  0
LINE
  5
378
  8
A-FURN
 10
9.460887931034483
 20
8.328181034482759
 30
0.0
 11
9.43303448275862
 21
8.291043103448276
 31
0.0
  0
LINE
  5
379
  8
A-FURN
 10
9.43303448275862
 20
8.291043103448276
 30
0.0
 11
8.62528448275862
 21
8.291043103448276
 31
0.0
  0
LINE
  5
37A
  8
A-FURN
 10
8.62528448275862
 20
8.291043103448276
 30
0.0
 11
8.523155172413793
 21
8.244620689655171
 31
0.0
  0
LINE
  5
37B
  8
A-FURN
 10
8.523155172413793
 20
8.244620689655171
 30
0.0
 11
8.458163793103447
 21
8.291043103448276
 31
0.0
  0
LINE
  5
37C
  8
A-FURN
 10
8.458163793103447
 20
8.291043103448276
 30
0.0
 11
8.133206896551723
 21
8.291043103448276
 31
0.0
  0
LINE
  5
37D
  8
A-FURN
 10
8.133206896551723
 20
8.291043103448276
 30
0.0
 11
8.09606896551724
 21
8.365318965517242
 31
0.0
  0
LINE
  5
37E
  8
A-WALL
 10
7.0005
 20
8.35603448275862
 30
0.0
 11
6.972646551724138
 21
8.300327586206896
 31
0.0
  0
LINE
  5
37F
  8
A-WALL
 10
6.972646551724138
 20
8.300327586206896
 30
0.0
 11
6.6941120689655165
 21
8.300327586206896
 31
0.0
  0
LINE
  5
380
  8
A-WALL
 10
6.6941120689655165
 20
8.300327586206896
 30
0.0
 11
6.5641293103448275
 21
8.244620689655171
 31
0.0
  0
LINE
  5
381
  8
A-WALL
 10
6.5641293103448275
 20
8.244620689655171
 30
0.0
 11
6.499137931034483
 21
8.291043103448276
 31
0.0
  0
LINE
  5
382
  8
A-WALL
 10
6.499137931034483
 20
8.291043103448276
 30
0.0
 11
5.347862068965517
 21
8.291043103448276
 31
0.0
  0
LINE
  5
383
  8
A-WALL
 10
5.347862068965517
 20
8.291043103448276
 30
0.0
 11
5.310724137931034
 21
8.328181034482759
 31
0.0
  0
LINE
  5
384
  8
A-WALL
 10
5.310724137931034
 20
8.328181034482759
 30
0.0
 11
5.329293103448276
 21
8.383887931034483
 31
0.0
  0
LINE
  5
385
  8
A-WALL
 10
5.329293103448276
 20
8.383887931034483
 30
0.0
 11
6.954077586206896
 21
8.393172413793103
 31
0.0
  0
LINE
  5
386
  8
A-WALL
 10
6.954077586206896
 20
8.393172413793103
 30
0.0
 11
7.0005
 21
8.35603448275862
 31
0.0
  0
LINE
  5
387
  8
A-WALL
 10
2.451103448275862
 20
8.374603448275861
 30
0.0
 11
2.478956896551724
 21
8.393172413793103
 31
0.0
  0
LINE
  5
388
  8
A-WALL
 10
2.478956896551724
 20
8.393172413793103
 30
0.0
 11
3.3795517241379307
 21
8.383887931034483
 31
0.0
  0
LINE
  5
389
  8
A-WALL
 10
3.3795517241379307
 20
8.383887931034483
 30
0.0
 11
3.398120689655172
 21
8.328181034482759
 31
0.0
  0
LINE
  5
38A
  8
A-WALL
 10
3.398120689655172
 20
8.328181034482759
 30
0.0
 11
3.3516982758620686
 21
8.291043103448276
 31
0.0
  0
LINE
  5
38B
  8
A-WALL
 10
3.3516982758620686
 20
8.291043103448276
 30
0.0
 11
2.478956896551724
 21
8.291043103448276
 31
0.0
  0
LINE
  5
38C
  8
A-WALL
 10
2.478956896551724
 20
8.291043103448276
 30
0.0
 11
2.451103448275862
 21
8.318896551724137
 31
0.0
  0
LINE
  5
38D
  8
A-WALL
 10
2.451103448275862
 20
8.318896551724137
 30
0.0
 11
2.451103448275862
 21
8.374603448275861
 31
0.0
  0
LINE
  5
38E
  8
A-WALL
 10
3.435258620689655
 20
8.374603448275861
 30
0.0
 11
3.4723965517241377
 21
8.439594827586207
 31
0.0
  0
LINE
  5
38F
  8
A-WALL
 10
3.4723965517241377
 20
8.439594827586207
 30
0.0
 11
5.2364482758620685
 21
8.439594827586207
 31
0.0
  0
LINE
  5
390
  8
A-WALL
 10
5.2364482758620685
 20
8.439594827586207
 30
0.0
 11
5.273586206896551
 21
8.383887931034483
 31
0.0
  0
LINE
  5
391
  8
A-WALL
 10
5.273586206896551
 20
8.383887931034483
 30
0.0
 11
5.25501724137931
 21
8.34675
 31
0.0
  0
LINE
  5
392
  8
A-WALL
 10
5.25501724137931
 20
8.34675
 30
0.0
 11
5.273586206896551
 21
8.300327586206896
 31
0.0
  0
LINE
  5
393
  8
A-WALL
 10
5.273586206896551
 20
8.300327586206896
 30
0.0
 11
5.245732758620689
 21
8.235336206896552
 31
0.0
  0
LINE
  5
394
  8
A-WALL
 10
5.245732758620689
 20
8.235336206896552
 30
0.0
 11
5.171456896551724
 21
8.253905172413793
 31
0.0
  0
LINE
  5
395
  8
A-WALL
 10
5.171456896551724
 20
8.253905172413793
 30
0.0
 11
3.463112068965517
 21
8.244620689655171
 31
0.0
  0
LINE
  5
396
  8
A-WALL
 10
3.463112068965517
 20
8.244620689655171
 30
0.0
 11
3.435258620689655
 21
8.374603448275861
 31
0.0
  0
LINE
  5
397
  8
A-WALL
 10
3.490965517241379
 20
8.34675
 30
0.0
 11
3.50025
 21
8.328181034482759
 31
0.0
  0
LINE
  5
398
  8
A-WALL
 10
3.50025
 20
8.328181034482759
 30
0.0
 11
5.217879310344827
 21
8.337465517241379
 31
0.0
  0
LINE
  5
399
  8
A-WALL
 10
5.217879310344827
 20
8.337465517241379
 30
0.0
 11
5.208594827586206
 21
8.35603448275862
 31
0.0
  0
LINE
  5
39A
  8
A-WALL
 10
5.208594827586206
 20
8.35603448275862
 30
0.0
 11
3.490965517241379
 21
8.34675
 31
0.0
  0
LINE
  5
39B
  8
A-WALL
 10
11.512758620689654
 20
8.764551724137931
 30
0.0
 11
11.44776724137931
 21
8.820258620689655
 31
0.0
  0
LINE
  5
39C
  8
A-WALL
 10
11.44776724137931
 20
8.820258620689655
 30
0.0
 11
11.410629310344827
 21
8.820258620689655
 31
0.0
  0
LINE
  5
39D
  8
A-WALL
 10
11.410629310344827
 20
8.820258620689655
 30
0.0
 11
11.392060344827586
 21
8.783120689655172
 31
0.0
  0
LINE
  5
39E
  8
A-WALL
 10
11.392060344827586
 20
8.783120689655172
 30
0.0
 11
10.732862068965517
 21
8.783120689655172
 31
0.0
  0
LINE
  5
39F
  8
A-WALL
 10
10.732862068965517
 20
8.783120689655172
 30
0.0
 11
10.742146551724137
 21
8.764551724137931
 31
0.0
  0
LINE
  5
3A0
  8
A-WALL
 10
10.742146551724137
 20
8.764551724137931
 30
0.0
 11
11.392060344827586
 21
8.77383620689655
 31
0.0
  0
LINE
  5
3A1
  8
A-WALL
 10
11.392060344827586
 20
8.77383620689655
 30
0.0
 11
11.419913793103447
 21
8.727413793103448
 31
0.0
  0
LINE
  5
3A2
  8
A-WALL
 10
11.419913793103447
 20
8.727413793103448
 30
0.0
 11
11.512758620689654
 21
8.764551724137931
 31
0.0
  0
LINE
  5
3A3
  8
A-WALL
 10
9.525879310344827
 20
8.792405172413792
 30
0.0
 11
9.600155172413793
 21
8.727413793103448
 31
0.0
  0
LINE
  5
3A4
  8
A-WALL
 10
9.600155172413793
 20
8.727413793103448
 30
0.0
 11
9.646577586206895
 21
8.77383620689655
 31
0.0
  0
LINE
  5
3A5
  8
A-WALL
 10
9.646577586206895
 20
8.77383620689655
 30
0.0
 11
10.287206896551723
 21
8.77383620689655
 31
0.0
  0
LINE
  5
3A6
  8
A-WALL
 10
10.287206896551723
 20
8.77383620689655
 30
0.0
 11
10.277922413793103
 21
8.792405172413792
 31
0.0
  0
LINE
  5
3A7
  8
A-WALL
 10
10.277922413793103
 20
8.792405172413792
 30
0.0
 11
9.813698275862068
 21
8.792405172413792
 31
0.0
  0
LINE
  5
3A8
  8
A-WALL
 10
9.813698275862068
 20
8.792405172413792
 30
0.0
 11
9.637293103448275
 21
8.764551724137931
 31
0.0
  0
LINE
  5
3A9
  8
A-WALL
 10
9.637293103448275
 20
8.764551724137931
 30
0.0
 11
9.628008620689654
 21
8.820258620689655
 31
0.0
  0
LINE
  5
3AA
  8
A-WALL
 10
9.628008620689654
 20
8.820258620689655
 30
0.0
 11
9.525879310344827
 21
8.792405172413792
 31
0.0
  0
ENDSEC
  0
EOF
