  0
SECTION
  2
HEADER
  9
$ACADVER
  1
AC1024
  9
$ACADMAINTVER
 70
6
  9
$DWGCODEPAGE
  3
ANSI_1252
  9
$LASTSAVEDBY
  1
ezdxf
  9
$INSBASE
 10
0.0
 20
0.0
 30
0.0
  9
$EXTMIN
 10
1e+20
 20
1e+20
 30
1e+20
  9
$EXTMAX
 10
-1e+20
 20
-1e+20
 30
-1e+20
  9
$LIMMIN
 10
0.0
 20
0.0
  9
$LIMMAX
 10
420.0
 20
297.0
  9
$ORTHOMODE
 70
0
  9
$REGENMODE
 70
1
  9
$FILLMODE
 70
1
  9
$QTEXTMODE
 70
0
  9
$MIRRTEXT
 70
1
  9
$LTSCALE
 40
1.0
  9
$ATTMODE
 70
1
  9
$TEXTSIZE
 40
2.5
  9
$TRACEWID
 40
1.0
  9
$TEXTSTYLE
  7
Standard
  9
$CLAYER
  8
0
  9
$CELTYPE
  6
ByLayer
  9
$CECOLOR
 62
256
  9
$CELTSCALE
 40
1.0
  9
$DISPSILH
 70
0
  9
$DIMSCALE
 40
1.0
  9
$DIMASZ
 40
2.5
  9
$DIMEXO
 40
0.625
  9
$DIMDLI
 40
3.75
  9
$DIMRND
 40
0.0
  9
$DIMDLE
 40
0.0
  9
$DIMEXE
 40
1.25
  9
$DIMTP
 40
0.0
  9
$DIMTM
 40
0.0
  9
$DIMTXT
 40
2.5
  9
$DIMCEN
 40
2.5
  9
$DIMTSZ
 40
0.0
  9
$DIMTOL
 70
0
  9
$DIMLIM
 70
0
  9
$DIMTIH
 70
0
  9
$DIMTOH
 70
0
  9
$DIMSE1
 70
0
  9
$DIMSE2
 70
0
  9
$DIMTAD
 70
1
  9
$DIMZIN
 70
8
  9
$DIMBLK
  1

  9
$DIMASO
 70
1
  9
$DIMSHO
 70
1
  9
$DIMPOST
  1

  9
$DIMAPOST
  1

  9
$DIMALT
 70
0
  9
$DIMALTD
 70
3
  9
$DIMALTF
 40
0.03937007874
  9
$DIMLFAC
 40
1.0
  9
$DIMTOFL
 70
1
  9
$DIMTVP
 40
0.0
  9
$DIMTIX
 70
0
  9
$DIMSOXD
 70
0
  9
$DIMSAH
 70
0
  9
$DIMBLK1
  1

  9
$DIMBLK2
  1

  9
$DIMSTYLE
  2
ISO-25
  9
$DIMCLRD
 70
0
  9
$DIMCLRE
 70
0
  9
$DIMCLRT
 70
0
  9
$DIMTFAC
 40
1.0
  9
$DIMGAP
 40
0.625
  9
$DIMJUST
 70
0
  9
$DIMSD1
 70
0
  9
$DIMSD2
 70
0
  9
$DIMTOLJ
 70
0
  9
$DIMTZIN
 70
8
  9
$DIMALTZ
 70
0
  9
$DIMALTTZ
 70
0
  9
$DIMUPT
 70
0
  9
$DIMDEC
 70
2
  9
$DIMTDEC
 70
2
  9
$DIMALTU
 70
2
  9
$DIMALTTD
 70
3
  9
$DIMTXSTY
  7
Standard
  9
$DIMAUNIT
 70
0
  9
$DIMADEC
 70
0
  9
$DIMALTRND
 40
0.0
  9
$DIMAZIN
 70
0
  9
$DIMDSEP
 70
44
  9
$DIMATFIT
 70
3
  9
$DIMFRAC
 70
0
  9
$DIMLDRBLK
  1

  9
$DIMLUNIT
 70
2
  9
$DIMLWD
 70
-2
  9
$DIMLWE
 70
-2
  9
$DIMTMOVE
 70
0
  9
$DIMFXL
 40
1.0
  9
$DIMFXLON
 70
0
  9
$DIMJOGANG
 40
0.785398163397
  9
$DIMTFILL
 70
0
  9
$DIMTFILLCLR
 70
0
  9
$DIMARCSYM
 70
0
  9
$DIMLTYPE
  6

  9
$DIMLTEX1
  6

  9
$DIMLTEX2
  6

  9
$DIMTXTDIRECTION
 70
0
  9
$LUNITS
 70
2
  9
$LUPREC
 70
4
  9
$SKETCHINC
 40
1.0
  9
$FILLETRAD
 40
10.0
  9
$AUNITS
 70
0
  9
$AUPREC
 70
2
  9
$MENU
  1
.
  9
$ELEVATION
 40
0.0
  9
$PELEVATION
 40
0.0
  9
$THICKNESS
 40
0.0
  9
$LIMCHECK
 70
0
  9
$CHAMFERA
 40
0.0
  9
$CHAMFERB
 40
0.0
  9
$CHAMFERC
 40
0.0
  9
$CHAMFERD
 40
0.0
  9
$SKPOLY
 70
0
  9
$TDCREATE
 40
2461276.716898148
  9
$TDUCREATE
 40
2458532.153996898
  9
$TDUPDATE
 40
2461276.716898148
  9
$TDUUPDATE
 40
2458532.1544311
  9
$TDINDWG
 40
0.0
  9
$TDUSRTIMER
 40
0.0
  9
$USRTIMER
 70
1
  9
$ANGBASE
 50
0.0
  9
$ANGDIR
 70
0
  9
$PDMODE
 70
0
  9
$PDSIZE
 40
0.0
  9
$PLINEWID
 40
0.0
  9
$SPLFRAME
 70
0
  9
$SPLINETYPE
 70
6
  9
$SPLINESEGS
 70
8
  9
$HANDSEED
  5
177
  9
$SURFTAB1
 70
6
  9
$SURFTAB2
 70
6
  9
$SURFTYPE
 70
6
  9
$SURFU
 70
6
  9
$SURFV
 70
6
  9
$UCSBASE
  2

  9
$UCSNAME
  2

  9
$UCSORG
 10
0.0
 20
0.0
 30
0.0
  9
$UCSXDIR
 10
1.0
 20
0.0
 30
0.0
  9
$UCSYDIR
 10
0.0
 20
1.0
 30
0.0
  9
$UCSORTHOREF
  2

  9
$UCSORTHOVIEW
 70
0
  9
$UCSORGTOP
 10
0.0
 20
0.0
 30
0.0
  9
$UCSORGBOTTOM
 10
0.0
 20
0.0
 30
0.0
  9
$UCSORGLEFT
 10
0.0
 20
0.0
 30
0.0
  9
$UCSORGRIGHT
 10
0.0
 20
0.0
 30
0.0
  9
$UCSORGFRONT
 10
0.0
 20
0.0
 30
0.0
  9
$UCSORGBACK
 10
0.0
 20
0.0
 30
0.0
  9
$PUCSBASE
  2

  9
$PUCSNAME
  2

  9
$PUCSORG
 10
0.0
 20
0.0
 30
0.0
  9
$PUCSXDIR
 10
1.0
 20
0.0
 30
0.0
  9
$PUCSYDIR
 10
0.0
 20
1.0
 30
0.0
  9
$PUCSORTHOREF
  2

  9
$PUCSORTHOVIEW
 70
0
  9
$PUCSORGTOP
 10
0.0
 20
0.0
 30
0.0
  9
$PUCSORGBOTTOM
 10
0.0
 20
0.0
 30
0.0
  9
$PUCSORGLEFT
 10
0.0
 20
0.0
 30
0.0
  9
$PUCSORGRIGHT
 10
0.0
 20
0.0
 30
0.0
  9
$PUCSORGFRONT
 10
0.0
 20
0.0
 30
0.0
  9
$PUCSORGBACK
 10
0.0
 20
0.0
 30
0.0
  9
$USERI1
 70
0
  9
$USERI2
 70
0
  9
$USERI3
 70
0
  9
$USERI4
 70
0
  9
$USERI5
 70
0
  9
$USERR1
 40
0.0
  9
$USERR2
 40
0.0
  9
$USERR3
 40
0.0
  9
$USERR4
 40
0.0
  9
$USERR5
 40
0.0
  9
$WORLDVIEW
 70
1
  9
$SHADEDGE
 70
3
  9
$SHADEDIF
 70
70
  9
$TILEMODE
 70
1
  9
$MAXACTVP
 70
64
  9
$PINSBASE
 10
0.0
 20
0.0
 30
0.0
  9
$PLIMCHECK
 70
0
  9
$PEXTMIN
 10
1e+20
 20
1e+20
 30
1e+20
  9
$PEXTMAX
 10
-1e+20
 20
-1e+20
 30
-1e+20
  9
$PLIMMIN
 10
0.0
 20
0.0
  9
$PLIMMAX
 10
420.0
 20
297.0
  9
$UNITMODE
 70
0
  9
$VISRETAIN
 70
1
  9
$PLINEGEN
 70
0
  9
$PSLTSCALE
 70
1
  9
$TREEDEPTH
 70
3020
  9
$CMLSTYLE
  2
Standard
  9
$CMLJUST
 70
0
  9
$CMLSCALE
 40
20.0
  9
$PROXYGRAPHICS
 70
1
  9
$MEASUREMENT
 70
1
  9
$CELWEIGHT
370
-1
  9
$ENDCAPS
280
0
  9
$JOINSTYLE
280
0
  9
$LWDISPLAY
290
0
  9
$INSUNITS
 70
6
  9
$HYPERLINKBASE
  1

  9
$STYLESHEET
  1

  9
$XEDIT
290
1
  9
$CEPSNTYPE
380
0
  9
$PSTYLEMODE
290
1
  9
$FINGERPRINTGUID
  2
{2068D08C-DC50-467B-A258-A65CE8F6304B}
  9
$VERSIONGUID
  2
{0CFA3755-9695-46B7-B2C4-9AEDD245B4F2}
  9
$EXTNAMES
290
1
  9
$PSVPSCALE
 40
0.0
  9
$OLESTARTUP
290
0
  9
$SORTENTS
280
127
  9
$INDEXCTL
280
0
  9
$HIDETEXT
280
1
  9
$XCLIPFRAME
280
1
  9
$HALOGAP
280
0
  9
$OBSCOLOR
 70
257
  9
$OBSLTYPE
280
0
  9
$INTERSECTIONDISPLAY
280
0
  9
$INTERSECTIONCOLOR
 70
257
  9
$DIMASSOC
280
2
  9
$PROJECTNAME
  1

  9
$CAMERADISPLAY
290
0
  9
$LENSLENGTH
 40
50.0
  9
$CAMERAHEIGHT
 40
0.0
  9
$STEPSPERSEC
 40
24.0
  9
$STEPSIZE
 40
100.0
  9
$3DDWFPREC
 40
2.0
  9
$PSOLWIDTH
 40
0.005
  9
$PSOLHEIGHT
 40
0.08
  9
$LOFTANG1
 40
1.570796326795
  9
$LOFTANG2
 40
1.570796326795
  9
$LOFTMAG1
 40
0.0
  9
$LOFTMAG2
 40
0.0
  9
$LOFTPARAM
 70
7
  9
$LOFTNORMALS
280
1
  9
$LATITUDE
 40
37.795
  9
$LONGITUDE
 40
-122.394
  9
$NORTHDIRECTION
 40
0.0
  9
$TIMEZONE
 70
-8000
  9
$LIGHTGLYPHDISPLAY
280
1
  9
$TILEMODELIGHTSYNCH
280
1
  9
$CMATERIAL
347
20
  9
$SOLIDHIST
280
0
  9
$SHOWHIST
280
1
  9
$DWFFRAME
280
2
  9
$DGNFRAME
280
2
  9
$REALWORLDSCALE
290
1
  9
$INTERFERECOLOR
 62
256
  9
$CSHADOW
280
0
  9
$SHADOWPLANELOCATION
 40
0.0
  0
ENDSEC
  0
SECTION
  2
CLASSES
  0
CLASS
  1
ACDBDICTIONARYWDFLT
  2
AcDbDictionaryWithDefault
  3
ObjectDBX Classes
 90
0
 91
0
280
0
281
0
  0
CLASS
  1
SUN
  2
AcDbSun
  3
SCENEOE
 90
1153
 91
0
280
0
281
0
  0
CLASS
  1
VISUALSTYLE
  2
AcDbVisualStyle
  3
ObjectDBX Classes
 90
4095
 91
0
280
0
281
0
  0
CLASS
  1
MATERIAL
  2
AcDbMaterial
  3
ObjectDBX Classes
 90
1153
 91
0
280
0
281
0
  0
CLASS
  1
SCALE
  2
AcDbScale
  3
ObjectDBX Classes
 90
1153
 91
0
280
0
281
0
  0
CLASS
  1
TABLESTYLE
  2
AcDbTableStyle
  3
ObjectDBX Classes
 90
4095
 91
0
280
0
281
0
  0
CLASS
  1
MLEADERSTYLE
  2
AcDbMLeaderStyle
  3
ACDB_MLEADERSTYLE_CLASS
 90
4095
 91
0
280
0
281
0
  0
CLASS
  1
DICTIONARYVAR
  2
AcDbDictionaryVar
  3
ObjectDBX Classes
 90
0
 91
0
280
0
281
0
  0
CLASS
  1
CELLSTYLEMAP
  2
AcDbCellStyleMap
  3
ObjectDBX Classes
 90
1152
 91
0
280
0
281
0
  0
CLASS
  1
MENTALRAYRENDERSETTINGS
  2
AcDbMentalRayRenderSettings
  3
SCENEOE
 90
1024
 91
0
280
0
281
0
  0
CLASS
  1
ACDBDETAILVIEWSTYLE
  2
AcDbDetailViewStyle
  3
ObjectDBX Classes
 90
1025
 91
0
280
0
281
0
  0
CLASS
  1
ACDBSECTIONVIEWSTYLE
  2
AcDbSectionViewStyle
  3
ObjectDBX Classes
 90
1025
 91
0
280
0
281
0
  0
CLASS
  1
RASTERVARIABLES
  2
AcDbRasterVariables
  3
ISM
 90
0
 91
0
280
0
281
0
  0
CLASS
  1
LAYOUT
  2
AcDbLayout
  3
ObjectDBX Classes
 90
0
 91
0
280
0
281
0
  0
CLASS
  1
ACDBPLACEHOLDER
  2
AcDbPlaceHolder
  3
ObjectDBX Classes
 90
0
 91
0
280
0
281
0
  0
ENDSEC
  0
SECTION
  2
TABLES
  0
TABLE
  2
VPORT
  5
8
330
0
100
AcDbSymbolTable
 70
1
  0
VPORT
  5
23
330
8
100
AcDbSymbolTableRecord
100
AcDbViewportTableRecord
  2
*Active
 70
0
 10
0.0
 20
0.0
 11
1.0
 21
1.0
 12
0.0
 22
0.0
 13
0.0
 23
0.0
 14
0.5
 24
0.5
 15
0.5
 25
0.5
 16
0.0
 26
0.0
 36
1.0
 17
0.0
 27
0.0
 37
0.0
 40
1000.0
 41
1.34
 42
50.0
 43
0.0
 44
0.0
 50
0.0
 51
0.0
 71
0
 72
1000
 73
1
 74
3
 75
0
 76
0
 77
0
 78
0
281
0
 65
0
146
0.0
  0
ENDTAB
  0
TABLE
  2
LTYPE
  5
2
330
0
100
AcDbSymbolTable
 70
3
  0
LTYPE
  5
24
330
2
100
AcDbSymbolTableRecord
100
AcDbLinetypeTableRecord
  2
ByBlock
 70
0
  3

 72
65
 73
0
 40
0.0
  0
LTYPE
  5
25
330
2
100
AcDbSymbolTableRecord
100
AcDbLinetypeTableRecord
  2
ByLayer
 70
0
  3

 72
65
 73
0
 40
0.0
  0
LTYPE
  5
26
330
2
100
AcDbSymbolTableRecord
100
AcDbLinetypeTableRecord
  2
Continuous
 70
0
  3

 72
65
 73
0
 40
0.0
  0
ENDTAB
  0
TABLE
  2
LAYER
  5
1
330
0
100
AcDbSymbolTable
 70
4
  0
LAYER
  5
27
330
1
100
AcDbSymbolTableRecord
100
AcDbLayerTableRecord
  2
0
 70
0
 62
7
  6
Continuous
370
-3
390
13
347
21
  0
LAYER
  5
28
330
1
100
AcDbSymbolTableRecord
100
AcDbLayerTableRecord
  2
Defpoints
 70
0
 62
7
  6
Continuous
290
0
370
-3
390
13
347
21
  0
LAYER
  5
2F
330
1
100
AcDbSymbolTableRecord
100
AcDbLayerTableRecord
  2
A-WALL
 70
0
 62
7
  6
Continuous
370
-3
390
13
347
21
  0
LAYER
  5
30
330
1
100
AcDbSymbolTableRecord
100
AcDbLayerTableRecord
  2
A-DIMS
 70
0
 62
1
  6
Continuous
370
-3
390
13
347
21
  0
ENDTAB
  0
TABLE
  2
STYLE
  5
5
330
0
100
AcDbSymbolTable
 70
1
  0
STYLE
  5
29
330
5
100
AcDbSymbolTableRecord
100
AcDbTextStyleTableRecord
  2
Standard
 70
0
 40
0.0
 41
1.0
 50
0.0
 71
0
 42
2.5
  3
txt
  4

  0
ENDTAB
  0
TABLE
  2
VIEW
  5
7
330
0
100
AcDbSymbolTable
 70
0
  0
ENDTAB
  0
TABLE
  2
UCS
  5
6
330
0
100
AcDbSymbolTable
 70
0
  0
ENDTAB
  0
TABLE
  2
APPID
  5
3
330
0
100
AcDbSymbolTable
 70
3
  0
APPID
  5
2A
330
3
100
AcDbSymbolTableRecord
100
AcDbRegAppTableRecord
  2
ACAD
 70
0
  0
APPID
  5
174
330
3
100
AcDbSymbolTableRecord
100
AcDbRegAppTableRecord
  2
HATCHBACKGROUNDCOLOR
 70
0
  0
APPID
  5
175
330
3
100
AcDbSymbolTableRecord
100
AcDbRegAppTableRecord
  2
EZDXF
 70
0
  0
ENDTAB
  0
TABLE
  2
DIMSTYLE
  5
4
330
0
100
AcDbSymbolTable
 70
1
100
AcDbDimStyleTable
  0
DIMSTYLE
105
2B
330
4
100
AcDbSymbolTableRecord
100
AcDbDimStyleTableRecord
  2
Standard
 70
0
 40
1.0
 41
2.5
 42
0.625
 43
3.75
 44
1.25
 45
0.0
 46
0.0
 47
0.0
 48
0.0
 49
2.5
140
2.5
141
2.5
142
0.0
143
0.03937007874
144
1.0
145
0.0
146
1.0
147
0.625
148
0.0
 69
0
 70
0
 71
0
 72
0
 73
0
 74
0
 75
0
 76
0
 77
1
 78
8
 79
3
170
0
171
3
172
1
173
0
174
0
175
0
176
0
177
0
178
0
179
2
271
2
272
2
273
2
274
3
275
0
276
0
277
2
278
44
279
0
280
0
281
0
282
0
283
0
284
8
285
0
286
0
288
0
289
3
290
0
371
-2
372
-2
  0
ENDTAB
  0
TABLE
  2
BLOCK_RECORD
  5
9
330
0
100
AcDbSymbolTable
 70
2
  0
BLOCK_RECORD
  5
17
330
9
100
AcDbSymbolTableRecord
100
AcDbBlockTableRecord
  2
*Model_Space
340
1A
 70
0
280
1
281
0
  0
BLOCK_RECORD
  5
1B
330
9
100
AcDbSymbolTableRecord
100
AcDbBlockTableRecord
  2
*Paper_Space
340
1E
 70
0
280
1
281
0
  0
ENDTAB
  0
ENDSEC
  0
SECTION
  2
BLOCKS
  0
BLOCK
  5
18
330
17
100
AcDbEntity
  8
0
100
AcDbBlockBegin
  2
*Model_Space
 70
0
 10
0.0
 20
0.0
 30
0.0
  3
*Model_Space
  1

  0
ENDBLK
  5
19
330
17
100
AcDbEntity
  8
0
100
AcDbBlockEnd
  0
BLOCK
  5
1C
330
1B
100
AcDbEntity
  8
0
100
AcDbBlockBegin
  2
*Paper_Space
 70
0
 10
0.0
 20
0.0
 30
0.0
  3
*Paper_Space
  1

  0
ENDBLK
  5
1D
330
1B
100
AcDbEntity
  8
0
100
AcDbBlockEnd
  0
ENDSEC
  0
SECTION
  2
ENTITIES
  0
LWPOLYLINE
  5
31
330
17
100
AcDbEntity
  8
A-WALL
100
AcDbPolyline
 90
4
 70
1
 10
5.9572
 20
0.35125
 10
5.9572
 20
0.330175
 10
6.104725
 20
0.330175
 10
6.104725
 20
0.35125
  0
LWPOLYLINE
  5
32
330
17
100
AcDbEntity
  8
A-WALL
100
AcDbPolyline
 90
4
 70
1
 10
5.9572
 20
0.40745
 10
5.9572
 20
0.386375
 10
6.104725
 20
0.386375
 10
6.104725
 20
0.40745
  0
LWPOLYLINE
  5
33
330
17
100
AcDbEntity
  8
A-WALL
100
AcDbPolyline
 90
18
 70
1
 10
6.61755
 20
0.428525
 10
6.61755
 20
0.281
 10
6.638625
 20
0.288025
 10
6.638625
 20
0.39339999999999997
 10
6.6597
 20
0.40745
 10
6.70185
 20
0.39339999999999997
 10
6.70185
 20
0.281
 10
6.722925
 20
0.288025
 10
6.7159
 20
0.37935
 10
6.744
 20
0.40745
 10
6.779125
 20
0.39339999999999997
 10
6.779125
 20
0.288025
 10
6.807225
 20
0.288025
 10
6.8002
 20
0.40745
 10
6.779125
 20
0.428525
 10
6.722925
 20
0.40745
 10
6.694825
 20
0.428525
 10
6.64565
 20
0.414475
  0
LWPOLYLINE
  5
34
330
17
100
AcDbEntity
  8
A-WALL
100
AcDbPolyline
 90
9
 70
1
 10
6.84235
 20
0.4777
 10
6.8283
 20
0.456625
 10
6.8564
 20
0.46365
 10
6.87045
 20
0.43555
 10
6.8283
 20
0.37935
 10
6.89855
 20
0.372325
 10
6.8564
 20
0.386375
 10
6.891525
 20
0.428525
 10
6.891525
 20
0.46365
  0
LWPOLYLINE
  5
35
330
17
100
AcDbEntity
  8
A-WALL
100
AcDbPolyline
 90
9
 70
1
 10
6.44895
 20
0.484725
 10
6.39275
 20
0.46365
 10
6.39275
 20
0.442575
 10
6.427875
 20
0.43555
 10
6.427875
 20
0.3091
 10
6.39275
 20
0.302075
 10
6.39275
 20
0.281
 10
6.484075
 20
0.288025
 10
6.44895
 20
0.3091
  0
LWPOLYLINE
  5
36
330
17
100
AcDbEntity
  8
A-WALL
100
AcDbPolyline
 90
6
 70
1
 10
6.343575
 20
0.484725
 10
6.22415
 20
0.4777
 10
6.329525
 20
0.456625
 10
6.2382
 20
0.281
 10
6.273325
 20
0.29505
 10
6.3506
 20
0.4496
  0
LWPOLYLINE
  5
37
330
17
100
AcDbEntity
  8
A-WALL
100
AcDbPolyline
 90
18
 70
1
 10
5.556775
 20
0.4777
 10
5.570825
 20
0.281
 10
5.7043
 20
0.281
 10
5.7324
 20
0.344225
 10
5.795625
 20
0.344225
 10
5.8167
 20
0.288025
 10
5.8448
 20
0.288025
 10
5.77455
 20
0.484725
 10
5.74645
 20
0.4777
 10
5.683225
 20
0.29505
 10
5.5919
 20
0.302075
 10
5.57785
 20
0.372325
 10
5.669175
 20
0.386375
 10
5.669175
 20
0.40745
 10
5.5919
 20
0.400425
 10
5.57785
 20
0.4496
 10
5.6762
 20
0.46365
 10
5.6762
 20
0.484725
  0
LWPOLYLINE
  5
38
330
17
100
AcDbEntity
  8
A-WALL
100
AcDbPolyline
 90
4
 70
1
 10
5.7605
 20
0.4496
 10
5.781575
 20
0.428525
 10
5.7886
 20
0.358275
 10
5.7324
 20
0.3653
  0
LWPOLYLINE
  5
39
330
17
100
AcDbEntity
  8
A-WALL
100
AcDbPolyline
 90
11
 70
1
 10
5.3952
 20
0.484725
 10
5.3952
 20
0.288025
 10
5.416275
 20
0.288025
 10
5.40925
 20
0.35125
 10
5.444375
 20
0.3653
 10
5.514625
 20
0.281
 10
5.5357
 20
0.281
 10
5.472475
 20
0.358275
 10
5.514625
 20
0.414475
 10
5.514625
 20
0.4496
 10
5.472475
 20
0.484725
  0
LWPOLYLINE
  5
3A
330
17
100
AcDbEntity
  8
A-WALL
100
AcDbPolyline
 90
5
 70
1
 10
5.4233
 20
0.46365
 10
5.486525
 20
0.4496
 10
5.49355
 20
0.414475
 10
5.46545
 20
0.37935
 10
5.40925
 20
0.39339999999999997
  0
LWPOLYLINE
  5
3B
330
17
100
AcDbEntity
  8
A-WALL
100
AcDbPolyline
 90
8
 70
1
 10
5.275775
 20
0.484725
 10
5.21255
 20
0.288025
 10
5.24065
 20
0.288025
 10
5.261725
 20
0.344225
 10
5.32495
 20
0.344225
 10
5.346025
 20
0.288025
 10
5.3671
 20
0.281
 10
5.3109
 20
0.4777
  0
LWPOLYLINE
  5
3C
330
17
100
AcDbEntity
  8
A-WALL
100
AcDbPolyline
 90
4
 70
1
 10
5.2898249999999996
 20
0.4496
 10
5.32495
 20
0.37935
 10
5.317925
 20
0.358275
 10
5.261725
 20
0.3653
  0
LWPOLYLINE
  5
3D
330
17
100
AcDbEntity
  8
A-WALL
100
AcDbPolyline
 90
6
 70
1
 10
5.01585
 20
0.484725
 10
5.01585
 20
0.288025
 10
5.121225
 20
0.281
 10
5.121225
 20
0.3091
 10
5.0299
 20
0.3091
 10
5.036925
 20
0.4777
  0
LWPOLYLINE
  5
3E
330
17
100
AcDbEntity
  8
A-WALL
100
AcDbPolyline
 90
7
 70
1
 10
4.896425
 20
0.484725
 10
4.826175
 20
0.288025
 10
4.8613
 20
0.29505
 10
4.87535
 20
0.344225
 10
4.9456
 20
0.344225
 10
4.980725
 20
0.281
 10
4.93155
 20
0.470675
  0
LWPOLYLINE
  5
3F
330
17
100
AcDbEntity
  8
A-WALL
100
AcDbPolyline
 90
3
 70
1
 10
4.910475
 20
0.4496
 10
4.938575
 20
0.3653
 10
4.882375
 20
0.358275
  0
LWPOLYLINE
  5
40
330
17
100
AcDbEntity
  8
A-WALL
100
AcDbPolyline
 90
7
 70
1
 10
4.67865
 20
0.484725
 10
4.67865
 20
0.46365
 10
4.741875
 20
0.456625
 10
4.741875
 20
0.288025
 10
4.76295
 20
0.281
 10
4.76295
 20
0.456625
 10
4.8332
 20
0.4777
  0
LWPOLYLINE
  5
41
330
17
100
AcDbEntity
  8
A-WALL
100
AcDbPolyline
 90
8
 70
1
 10
4.5522
 20
0.484725
 10
4.496
 20
0.4215
 10
4.496
 20
0.35125
 10
4.531125
 20
0.29505
 10
4.601375
 20
0.281
 10
4.6646
 20
0.35125
 10
4.6646
 20
0.414475
 10
4.6084
 20
0.484725
  0
LWPOLYLINE
  5
42
330
17
100
AcDbEntity
  8
A-WALL
100
AcDbPolyline
 90
8
 70
1
 10
4.559225
 20
0.46365
 10
4.601375
 20
0.46365
 10
4.643525
 20
0.400425
 10
4.6365
 20
0.344225
 10
4.601375
 20
0.302075
 10
4.559225
 20
0.302075
 10
4.517075
 20
0.358275
 10
4.5241
 20
0.428525
  0
LWPOLYLINE
  5
43
330
17
100
AcDbEntity
  8
A-WALL
100
AcDbPolyline
 90
8
 70
1
 10
4.3274
 20
0.484725
 10
4.3274
 20
0.46365
 10
4.39765
 20
0.456625
 10
4.390625
 20
0.288025
 10
4.4117
 20
0.281
 10
4.4117
 20
0.456625
 10
4.474925
 20
0.46365
 10
4.48195
 20
0.484725
  0
LWPOLYLINE
  5
44
330
17
100
AcDbEntity
  8
A-WALL
100
AcDbPolyline
 90
34
 70
1
 10
1.967
 20
0.80085
 10
2.00915
 20
0.779775
 10
2.00915
 20
0.74465
 10
2.030225
 20
0.7867999999999999
 10
7.12335
 20
0.7867999999999999
 10
7.12335
 20
0.7587
 10
7.144425
 20
0.751675
 10
7.15145
 20
0.7867999999999999
 10
10.628825
 20
0.793825
 10
10.6499
 20
0.74465
 10
10.678
 20
0.793825
 10
10.656925
 20
0.807875
 10
10.656925
 20
0.934325
 10
10.63585
 20
0.9273
 10
10.63585
 20
0.80085
 10
8.703975
 20
0.80085
 10
8.711
 20
0.8711
 10
8.689925
 20
0.864075
 10
8.689925
 20
0.80085
 10
7.15145
 20
0.80085
 10
7.1374
 20
0.8149
 10
7.144425
 20
0.934325
 10
7.12335
 20
0.9273
 10
7.12335
 20
0.80085
 10
4.3836
 20
0.80085
 10
4.390625
 20
0.8711
 10
4.36955
 20
0.864075
 10
4.3836
 20
0.835975
 10
4.36955
 20
0.80085
 10
2.030225
 20
0.80085
 10
2.016175
 20
0.8149
 10
2.0232
 20
0.934325
 10
2.00915
 20
0.934325
 10
2.00915
 20
0.807875
  0
LWPOLYLINE
  5
45
330
17
100
AcDbEntity
  8
A-WALL
100
AcDbPolyline
 90
14
 70
1
 10
4.7489
 20
0.9554
 10
4.755925
 20
0.843
 10
4.777
 20
0.850025
 10
4.769975
 20
0.9273
 10
4.79105
 20
0.948375
 10
4.81915
 20
0.934325
 10
4.826175
 20
0.843
 10
4.840225
 20
0.850025
 10
4.840225
 20
0.9273
 10
4.8613
 20
0.948375
 10
4.8894
 20
0.934325
 10
4.8894
 20
0.850025
 10
4.910475
 20
0.850025
 10
4.90345
 20
0.9554
  0
LWPOLYLINE
  5
46
330
17
100
AcDbEntity
  8
A-WALL
100
AcDbPolyline
 90
17
 70
1
 10
9.069275
 20
0.9554
 10
9.0763
 20
0.843
 10
9.09035
 20
0.850025
 10
9.09035
 20
0.9273
 10
9.111425
 20
0.948375
 10
9.139525
 20
0.934325
 10
9.14655
 20
0.843
 10
9.1606
 20
0.850025
 10
9.153575
 20
0.920275
 10
9.181675
 20
0.948375
 10
9.209775
 20
0.934325
 10
9.209775
 20
0.850025
 10
9.23085
 20
0.850025
 10
9.223825
 20
0.9554
 10
9.195725
 20
0.96945
 10
9.1606
 20
0.948375
 10
9.125475
 20
0.96945
  0
LWPOLYLINE
  5
47
330
17
100
AcDbEntity
  8
A-WALL
100
AcDbPolyline
 90
10
 70
1
 10
8.914725
 20
1.0116
 10
8.8796
 20
0.9835
 10
8.89365
 20
0.94135
 10
8.8796
 20
0.864075
 10
8.942825
 20
0.843
 10
8.97795
 20
0.8711
 10
8.97795
 20
0.91325
 10
8.956875
 20
0.934325
 10
8.97795
 20
0.96945
 10
8.94985
 20
1.004575
  0
LWPOLYLINE
  5
48
330
17
100
AcDbEntity
  8
A-WALL
100
AcDbPolyline
 90
5
 70
1
 10
8.914725
 20
0.9273
 10
8.942825
 20
0.9273
 10
8.9639
 20
0.892175
 10
8.9358
 20
0.85705
 10
8.89365
 20
0.878125
  0
LWPOLYLINE
  5
49
330
17
100
AcDbEntity
  8
A-WALL
100
AcDbPolyline
 90
4
 70
1
 10
8.914725
 20
0.990525
 10
8.956875
 20
0.96945
 10
8.9358
 20
0.94135
 10
8.900675
 20
0.9554
  0
LWPOLYLINE
  5
4A
330
17
100
AcDbEntity
  8
A-WALL
100
AcDbPolyline
 90
13
 70
1
 10
8.7953
 20
1.0116
 10
8.75315
 20
0.976475
 10
8.746125
 20
0.892175
 10
8.774225
 20
0.850025
 10
8.816375
 20
0.843
 10
8.8515
 20
0.878125
 10
8.8515
 20
0.920275
 10
8.816375
 20
0.948375
 10
8.7672
 20
0.934325
 10
8.760175
 20
0.9554
 10
8.788275
 20
0.990525
 10
8.83745
 20
0.96945
 10
8.8515
 20
0.9835
  0
LWPOLYLINE
  5
4B
330
17
100
AcDbEntity
  8
A-WALL
100
AcDbPolyline
 90
4
 70
1
 10
8.7953
 20
0.934325
 10
8.83745
 20
0.906225
 10
8.80935
 20
0.85705
 10
8.7672
 20
0.88515
  0
LWPOLYLINE
  5
4C
330
17
100
AcDbEntity
  8
A-WALL
100
AcDbPolyline
 90
17
 70
1
 10
8.5986
 20
1.0116
 10
8.55645
 20
0.96945
 10
8.577525
 20
0.962425
 10
8.5986
 20
0.990525
 10
8.633725
 20
0.976475
 10
8.5986
 20
0.920275
 10
8.619675
 20
0.9273
 10
8.64075
 20
0.878125
 10
8.5986
 20
0.85705
 10
8.55645
 20
0.892175
 10
8.55645
 20
0.8711
 10
8.591575
 20
0.843
 10
8.6267
 20
0.843
 10
8.661825
 20
0.878125
 10
8.661825
 20
0.91325
 10
8.64075
 20
0.9273
 10
8.6548
 20
0.976475
  0
LWPOLYLINE
  5
4D
330
17
100
AcDbEntity
  8
A-WALL
100
AcDbPolyline
 90
5
 70
1
 10
4.657575
 20
1.0116
 10
4.5522
 20
1.004575
 10
4.629475
 20
0.9835
 10
4.5803
 20
0.843
 10
4.601375
 20
0.850025
  0
LWPOLYLINE
  5
4E
330
17
100
AcDbEntity
  8
A-WALL
100
AcDbPolyline
 90
16
 70
1
 10
4.474925
 20
1.0116
 10
4.432775
 20
0.9835
 10
4.432775
 20
0.962425
 10
4.488975
 20
0.990525
 10
4.51005
 20
0.9554
 10
4.4679
 20
0.9273
 10
4.503025
 20
0.920275
 10
4.517075
 20
0.88515
 10
4.488975
 20
0.85705
 10
4.4398
 20
0.892175
 10
4.42575
 20
0.878125
 10
4.446825
 20
0.850025
 10
4.496
 20
0.843
 10
4.53815
 20
0.8992
 10
4.51005
 20
0.934325
 10
4.5241
 20
0.9835
  0
LWPOLYLINE
  5
4F
330
17
100
AcDbEntity
  8
A-WALL
100
AcDbPolyline
 90
15
 70
1
 10
4.264175
 20
1.0116
 10
4.2431
 20
0.9273
 10
4.306325
 20
0.934325
 10
4.3274
 20
0.88515
 10
4.2993
 20
0.85705
 10
4.250125
 20
0.892175
 10
4.236075
 20
0.8711
 10
4.2712
 20
0.843
 10
4.306325
 20
0.843
 10
4.348475
 20
0.88515
 10
4.348475
 20
0.91325
 10
4.306325
 20
0.9554
 10
4.2712
 20
0.948375
 10
4.264175
 20
0.976475
 10
4.34145
 20
1.004575
  0
LWPOLYLINE
  5
50
330
17
100
AcDbEntity
  8
A-WALL
100
AcDbPolyline
 90
11
 70
1
 10
10.937925
 20
2.297175
 10
10.937925
 20
2.255025
 10
10.97305
 20
2.2199
 10
10.9871
 20
2.23395
 10
10.951975
 20
2.283125
 10
10.980075
 20
2.311225
 10
11.0995
 20
2.2199
 10
11.0995
 20
2.325275
 10
11.078425
 20
2.31825
 10
11.078425
 20
2.248
 10
10.994125
 20
2.325275
  0
LWPOLYLINE
  5
51
330
17
100
AcDbEntity
  8
A-WALL
100
AcDbPolyline
 90
4
 70
1
 10
11.078425
 20
2.37445
 10
11.08545
 20
2.353375
 10
11.1276
 20
2.3604
 10
11.11355
 20
2.381475
  0
LWPOLYLINE
  5
52
330
17
100
AcDbEntity
  8
A-WALL
100
AcDbPolyline
 90
8
 70
1
 10
10.937925
 20
2.51495
 10
10.937925
 20
2.409575
 10
10.959
 20
2.4166
 10
10.959
 20
2.48685
 10
11.0152
 20
2.451725
 10
11.106525
 20
2.437675
 10
11.092475
 20
2.45875
 10
11.050325
 20
2.45875
  0
LWPOLYLINE
  5
53
330
17
100
AcDbEntity
  8
A-WALL
100
AcDbPolyline
 90
11
 70
1
 10
10.9309
 20
2.592225
 10
10.951975
 20
2.550075
 10
10.9871
 20
2.54305
 10
11.008175
 20
2.564125
 10
11.036275
 20
2.536025
 10
11.078425
 20
2.54305
 10
11.106525
 20
2.5852
 10
11.0714
 20
2.6414
 10
11.02925
 20
2.6414
 10
11.0152
 20
2.620325
 10
10.97305
 20
2.6414
  0
LWPOLYLINE
  5
54
330
17
100
AcDbEntity
  8
A-WALL
100
AcDbPolyline
 90
4
 70
1
 10
10.97305
 20
2.620325
 10
11.00115
 20
2.606275
 10
10.9871
 20
2.564125
 10
10.951975
 20
2.578175
  0
LWPOLYLINE
  5
55
330
17
100
AcDbEntity
  8
A-WALL
100
AcDbPolyline
 90
4
 70
1
 10
11.02925
 20
2.620325
 10
11.08545
 20
2.606275
 10
11.064375
 20
2.5571
 10
11.022225
 20
2.57115
  0
LWPOLYLINE
  5
56
330
17
100
AcDbEntity
  8
A-WALL
100
AcDbPolyline
 90
12
 70
1
 10
10.994125
 20
2.887275
 10
10.980075
 20
2.873225
 10
10.994125
 20
2.82405
 10
10.980075
 20
2.732725
 10
11.0995
 20
2.732725
 10
11.0995
 20
2.7538
 10
11.0152
 20
2.7538
 10
10.994125
 20
2.788925
 10
11.106525
 20
2.817025
 10
11.0152
 20
2.82405
 10
10.994125
 20
2.859175
 10
11.106525
 20
2.887275
  0
LWPOLYLINE
  5
57
330
17
100
AcDbEntity
  8
A-WALL
100
AcDbPolyline
 90
13
 70
1
 10
10.9309
 20
4.784025
 10
10.959
 20
4.73485
 10
10.9871
 20
4.73485
 10
10.951975
 20
4.777
 10
10.980075
 20
4.81915
 10
11.0714
 20
4.73485
 10
11.106525
 20
4.73485
 10
11.0995
 20
4.8332
 10
11.078425
 20
4.8332
 10
11.08545
 20
4.769975
 10
11.0714
 20
4.755925
 10
11.00115
 20
4.8332
 10
10.959
 20
4.8332
  0
LWPOLYLINE
  5
58
330
17
100
AcDbEntity
  8
A-WALL
100
AcDbPolyline
 90
7
 70
1
 10
11.106525
 20
5.0018
 10
11.0433
 20
5.022875
 10
11.036275
 20
5.0018
 10
10.937925
 20
5.008825
 10
10.9309
 20
4.994775
 10
11.05735
 20
4.910475
 10
11.05735
 20
4.9737
  0
LWPOLYLINE
  5
59
330
17
100
AcDbEntity
  8
A-WALL
100
AcDbPolyline
 90
3
 70
1
 10
10.980075
 20
4.980725
 10
11.036275
 20
4.98775
 10
11.0433
 20
4.9456
  0
LWPOLYLINE
  5
5A
330
17
100
AcDbEntity
  8
A-WALL
100
AcDbPolyline
 90
11
 70
1
 10
10.9309
 20
5.10015
 10
10.966025
 20
5.050975
 10
11.0152
 20
5.050975
 10
11.036275
 20
5.07205
 10
11.036275
 20
5.135275
 10
11.08545
 20
5.107175
 10
11.064375
 20
5.050975
 10
11.106525
 20
5.0861
 10
11.0995
 20
5.121225
 10
11.0433
 20
5.15635
 10
10.966025
 20
5.149325
  0
LWPOLYLINE
  5
5B
330
17
100
AcDbEntity
  8
A-WALL
100
AcDbPolyline
 90
4
 70
1
 10
10.980075
 20
5.135275
 10
11.02925
 20
5.107175
 10
11.00115
 20
5.065025
 10
10.951975
 20
5.093125
  0
LWPOLYLINE
  5
5C
330
17
100
AcDbEntity
  8
A-WALL
100
AcDbPolyline
 90
14
 70
1
 10
10.9871
 20
5.3952
 10
10.980075
 20
5.247675
 10
11.106525
 20
5.247675
 10
11.0995
 20
5.261725
 10
11.022225
 20
5.261725
 10
10.994125
 20
5.2898249999999996
 10
11.0152
 20
5.317925
 10
11.106525
 20
5.317925
 10
11.092475
 20
5.339
 10
11.008175
 20
5.339
 10
10.994125
 20
5.3671
 10
11.0152
 20
5.388175
 10
11.106525
 20
5.3952
 10
11.092475
 20
5.40925
  0
LWPOLYLINE
  5
5D
330
17
100
AcDbEntity
  8
A-WALL
100
AcDbPolyline
 90
6
 70
1
 10
10.9309
 20
6.765075
 10
10.97305
 20
6.708875
 10
10.994125
 20
6.708875
 10
10.9871
 20
6.751025
 10
11.106525
 20
6.751025
 10
11.092475
 20
6.7721
  0
LWPOLYLINE
  5
5E
330
17
100
AcDbEntity
  8
A-WALL
100
AcDbPolyline
 90
4
 70
1
 10
11.078425
 20
6.849375
 10
11.078425
 20
6.8283
 10
11.1276
 20
6.835325
 10
11.106525
 20
6.8564
  0
LWPOLYLINE
  5
5F
330
17
100
AcDbEntity
  8
A-WALL
100
AcDbPolyline
 90
12
 70
1
 10
11.106525
 20
6.947725
 10
11.078425
 20
6.98285
 10
11.02925
 20
6.989875
 10
10.994125
 20
6.95475
 10
11.00115
 20
6.89855
 10
10.951975
 20
6.92665
 10
10.980075
 20
6.98285
 10
10.959
 20
6.98285
 10
10.9309
 20
6.9407
 10
10.966025
 20
6.891525
 10
11.05735
 20
6.8845
 10
11.092475
 20
6.905575
  0
LWPOLYLINE
  5
60
330
17
100
AcDbEntity
  8
A-WALL
100
AcDbPolyline
 90
4
 70
1
 10
11.05735
 20
6.975825
 10
11.08545
 20
6.92665
 10
11.0433
 20
6.89855
 10
11.008175
 20
6.947725
  0
LWPOLYLINE
  5
61
330
17
100
AcDbEntity
  8
A-WALL
100
AcDbPolyline
 90
18
 70
1
 10
11.106525
 20
7.06715
 10
11.078425
 20
7.1093
 10
11.036275
 20
7.116325
 10
11.0152
 20
7.09525
 10
10.966025
 20
7.1093
 10
10.9309
 20
7.0531
 10
10.97305
 20
7.01095
 10
10.980075
 20
7.032025
 10
10.951975
 20
7.0531
 10
10.966025
 20
7.0882249999999996
 10
10.9871
 20
7.0882249999999996
 10
11.0152
 20
7.046075
 10
11.022225
 20
7.0812
 10
11.064375
 20
7.09525
 10
11.08545
 20
7.074175
 10
11.08545
 20
7.046075
 10
11.05735
 20
7.032025
 10
11.0714
 20
7.01095
  0
LWPOLYLINE
  5
62
330
17
100
AcDbEntity
  8
A-WALL
100
AcDbPolyline
 90
15
 70
1
 10
11.106525
 20
7.3622
 10
10.980075
 20
7.34815
 10
10.994125
 20
7.298975
 10
10.980075
 20
7.20765
 10
11.106525
 20
7.214675
 10
11.0995
 20
7.228725
 10
11.0152
 20
7.228725
 10
10.994125
 20
7.2498
 10
11.008175
 20
7.2779
 10
11.092475
 20
7.270875
 10
11.106525
 20
7.29195
 10
11.022225
 20
7.29195
 10
10.994125
 20
7.327075
 10
11.0152
 20
7.34815
 10
11.092475
 20
7.341125
  0
LWPOLYLINE
  5
63
330
17
100
AcDbEntity
  8
A-WALL
100
AcDbPolyline
 90
39
 70
1
 10
11.148675
 20
7.85395
 10
11.134625
 20
7.8118
 10
11.008175
 20
7.8118
 10
11.0152
 20
7.79775
 10
11.134625
 20
7.804775
 10
11.148675
 20
7.790725
 10
11.148675
 20
6.273325
 10
11.1276
 20
6.259275
 10
11.008175
 20
6.2663
 10
11.008175
 20
6.245225
 10
11.134625
 20
6.25225
 10
11.148675
 20
6.2382
 10
11.148675
 20
4.87535
 10
11.078425
 20
4.8894
 10
11.078425
 20
4.868325
 10
11.148675
 20
4.8613
 10
11.148675
 20
3.898875
 10
11.008175
 20
3.884825
 10
11.008175
 20
3.870775
 10
11.148675
 20
3.86375
 10
11.148675
 20
1.25045
 10
11.134625
 20
1.2364
 10
11.0152
 20
1.243425
 10
11.008175
 20
1.229375
 10
11.134625
 20
1.229375
 10
11.14165
 20
1.187225
 10
11.162725
 20
1.1802
 10
11.162725
 20
1.22235
 10
11.19785
 20
1.229375
 10
11.162725
 20
1.243425
 10
11.162725
 20
3.86375
 10
11.19785
 20
3.8778
 10
11.162725
 20
3.89185
 10
11.162725
 20
6.245225
 10
11.19785
 20
6.25225
 10
11.162725
 20
6.273325
 10
11.162725
 20
7.79775
 10
11.19785
 20
7.8118
 10
11.16975
 20
7.8118
  0
LWPOLYLINE
  5
64
330
17
100
AcDbEntity
  8
A-WALL
100
AcDbPolyline
 90
20
 70
1
 10
0.007025
 20
5.8448
 10
0.007025
 20
1.2083
 10
0.0281
 20
1.19425
 10
1.95295
 20
1.2083
 10
1.974025
 20
1.1802
 10
10.699075
 20
1.187225
 10
10.699075
 20
4.06045
 10
10.60775
 20
4.06045
 10
9.898225
 20
4.250125
 10
9.87715
 20
4.2712
 10
9.98955
 20
4.503025
 10
10.137075
 20
4.657575
 10
10.35485
 20
4.777
 10
10.488325
 20
4.812125
 10
10.699075
 20
4.826175
 10
10.699075
 20
6.2943999999999996
 10
9.0482
 20
6.2943999999999996
 10
9.041175
 20
7.85395
 10
1.974025
 20
7.85395
 10
1.974025
 20
5.851825
  0
LWPOLYLINE
  5
65
330
17
100
AcDbEntity
  8
A-WALL
100
AcDbPolyline
 90
10
 70
1
 10
4.48195
 20
1.257475
 10
4.496
 20
1.271525
 10
5.99935
 20
1.271525
 10
6.0134
 20
1.25045
 10
5.992325
 20
1.229375
 10
4.503025
 20
1.229375
 10
5.99935
 20
1.229375
 10
6.0134
 20
1.2083
 10
5.99935
 20
1.19425
 10
4.488975
 20
1.19425
  0
LWPOLYLINE
  5
66
330
17
100
AcDbEntity
  8
A-WALL
100
AcDbPolyline
 90
10
 70
1
 10
2.6695
 20
1.257475
 10
2.68355
 20
1.271525
 10
4.1869
 20
1.271525
 10
4.20095
 20
1.2083
 10
4.1869
 20
1.19425
 10
2.676525
 20
1.19425
 10
2.676525
 20
1.229375
 10
4.1588
 20
1.22235
 10
4.17285
 20
1.2364
 10
2.68355
 20
1.229375
  0
LWPOLYLINE
  5
67
330
17
100
AcDbEntity
  8
A-WALL
100
AcDbPolyline
 90
4
 70
1
 10
2.00915
 20
1.271525
 10
2.0232
 20
1.27855
 10
2.06535
 20
1.2364
 10
2.030225
 20
1.22235
  0
LWPOLYLINE
  5
68
330
17
100
AcDbEntity
  8
A-WALL
100
AcDbPolyline
 90
4
 70
1
 10
10.642875
 20
1.285575
 10
10.656925
 20
1.25045
 10
10.6218
 20
1.22235
 10
10.60775
 20
1.243425
  0
LWPOLYLINE
  5
69
330
17
100
AcDbEntity
  8
A-WALL
100
AcDbPolyline
 90
3
 70
1
 10
7.1374
 20
1.30665
 10
7.17955
 20
1.22235
 10
7.0882249999999996
 20
1.229375
  0
LWPOLYLINE
  5
6A
330
17
100
AcDbEntity
  8
A-WALL
100
AcDbPolyline
 90
6
 70
1
 10
3.61085
 20
1.44715
 10
3.6249
 20
1.4612
 10
5.458425
 20
1.4612
 10
5.4795
 20
1.299625
 10
5.46545
 20
1.285575
 10
3.617875
 20
1.285575
  0
LWPOLYLINE
  5
6B
330
17
100
AcDbEntity
  8
A-WALL
100
AcDbPolyline
 90
6
 70
1
 10
10.04575
 20
1.636825
 10
10.0598
 20
1.650875
 10
10.404025
 20
1.650875
 10
10.418075
 20
1.636825
 10
10.418075
 20
1.299625
 10
10.052775
 20
1.2926
  0
LWPOLYLINE
  5
6C
330
17
100
AcDbEntity
  8
A-WALL
100
AcDbPolyline
 90
4
 70
1
 10
8.3457
 20
2.030225
 10
8.5424
 20
2.016175
 10
8.535375
 20
1.81245
 10
8.338675
 20
2.00915
  0
LWPOLYLINE
  5
6D
330
17
100
AcDbEntity
  8
A-WALL
100
AcDbPolyline
 90
5
 70
1
 10
5.500575
 20
2.100475
 10
5.598925
 20
2.086425
 10
5.5919
 20
1.285575
 10
5.486525
 20
1.2926
 10
5.486525
 20
2.086425
  0
LWPOLYLINE
  5
6E
330
17
100
AcDbEntity
  8
A-WALL
100
AcDbPolyline
 90
6
 70
1
 10
3.49845
 20
2.100475
 10
3.5968
 20
2.086425
 10
3.5968
 20
1.2926
 10
3.58275
 20
1.27855
 10
3.4844
 20
1.2926
 10
3.4844
 20
2.086425
  0
LWPOLYLINE
  5
6F
330
17
100
AcDbEntity
  8
A-WALL
100
AcDbPolyline
 90
5
 70
1
 10
4.868325
 20
2.1356
 10
5.472475
 20
2.128575
 10
5.4795
 20
1.4893
 10
5.46545
 20
1.47525
 10
4.8613
 20
1.482275
  0
LWPOLYLINE
  5
70
330
17
100
AcDbEntity
  8
A-WALL
100
AcDbPolyline
 90
5
 70
1
 10
4.2431
 20
2.1356
 10
4.84725
 20
2.128575
 10
4.840225
 20
1.47525
 10
4.250125
 20
1.468225
 10
4.236075
 20
1.482275
  0
LWPOLYLINE
  5
71
330
17
100
AcDbEntity
  8
A-WALL
100
AcDbPolyline
 90
5
 70
1
 10
3.617875
 20
2.1356
 10
4.222025
 20
2.128575
 10
4.22905
 20
1.4893
 10
4.215
 20
1.47525
 10
3.61085
 20
1.482275
  0
LWPOLYLINE
  5
72
330
17
100
AcDbEntity
  8
A-WALL
100
AcDbPolyline
 90
6
 70
1
 10
2.030225
 20
3.0067
 10
2.058325
 20
2.985625
 10
2.058325
 20
1.496325
 10
2.044275
 20
1.47525
 10
2.016175
 20
1.4893
 10
2.016175
 20
2.99265
  0
LWPOLYLINE
  5
73
330
17
100
AcDbEntity
  8
A-WALL
100
AcDbPolyline
 90
6
 70
1
 10
1.9951
 20
3.0067
 10
2.016175
 20
2.99265
 10
2.016175
 20
1.4893
 10
2.002125
 20
1.47525
 10
1.974025
 20
1.4893
 10
1.974025
 20
2.985625
  0
LWPOLYLINE
  5
74
330
17
100
AcDbEntity
  8
A-WALL
100
AcDbPolyline
 90
5
 70
1
 10
7.03905
 20
3.16125
 10
7.09525
 20
3.098025
 10
7.09525
 20
2.156675
 10
7.046075
 20
2.100475
 10
7.032025
 20
2.1075
  0
LWPOLYLINE
  5
75
330
17
100
AcDbEntity
  8
A-WALL
100
AcDbPolyline
 90
4
 70
1
 10
1.974025
 20
3.154225
 10
1.988075
 20
3.168275
 10
2.0513
 20
3.16125
 10
2.044275
 20
3.140175
  0
LWPOLYLINE
  5
76
330
17
100
AcDbEntity
  8
A-WALL
100
AcDbPolyline
 90
6
 70
1
 10
10.66395
 20
3.2034
 10
10.69205
 20
3.18935
 10
10.69205
 20
1.693025
 10
10.670975
 20
1.67195
 10
10.6499
 20
1.686
 10
10.6499
 20
3.18935
  0
LWPOLYLINE
  5
77
330
17
100
AcDbEntity
  8
A-WALL
100
AcDbPolyline
 90
6
 70
1
 10
10.6218
 20
3.2034
 10
10.6499
 20
3.18935
 10
10.6499
 20
1.693025
 10
10.628825
 20
1.67195
 10
10.60775
 20
1.686
 10
10.60775
 20
3.18935
  0
LWPOLYLINE
  5
78
330
17
100
AcDbEntity
  8
A-WALL
100
AcDbPolyline
 90
8
 70
1
 10
8.324625
 20
3.2877
 10
9.96145
 20
3.294725
 10
9.968475
 20
1.805425
 10
9.954425
 20
1.791375
 10
8.563475
 20
1.791375
 10
8.549425
 20
1.805425
 10
8.55645
 20
2.030225
 10
8.324625
 20
2.044275
  0
LWPOLYLINE
  5
79
330
17
100
AcDbEntity
  8
A-WALL
100
AcDbPolyline
 90
12
 70
1
 10
6.680775
 20
3.519525
 10
7.09525
 20
3.5125
 10
7.09525
 20
3.13315
 10
7.0812
 20
3.126125
 10
7.03905
 20
3.18935
 10
7.017975
 20
3.18935
 10
7.025
 20
2.058325
 10
7.0882249999999996
 20
2.1356
 10
7.0882249999999996
 20
1.686
 10
6.680775
 20
1.686
 10
6.666725
 20
1.70005
 10
6.666725
 20
3.505475
  0
LWPOLYLINE
  5
7A
330
17
100
AcDbEntity
  8
A-WALL
100
AcDbPolyline
 90
40
 70
1
 10
7.17955
 20
3.828625
 10
7.37625
 20
3.83565
 10
7.40435
 20
3.814575
 10
7.579975
 20
3.126125
 10
7.60105
 20
3.091
 10
7.62915
 20
3.091
 10
7.85395
 20
3.2034
 10
8.015525
 20
3.35795
 10
8.141975
 20
3.589775
 10
8.184125
 20
3.828625
 10
10.600725
 20
3.83565
 10
10.5937
 20
1.70005
 10
10.60775
 20
1.285575
 10
10.5937
 20
1.271525
 10
10.418075
 20
1.27855
 10
10.432125
 20
1.30665
 10
10.432125
 20
1.6579
 10
10.418075
 20
1.67195
 10
10.04575
 20
1.67195
 10
10.0317
 20
1.6579
 10
10.0317
 20
1.30665
 10
10.04575
 20
1.27855
 10
9.9755
 20
1.285575
 10
9.9755
 20
3.308775
 10
8.3176
 20
3.308775
 10
8.310575
 20
1.313675
 10
8.324625
 20
1.30665
 10
8.3176
 20
1.9951
 10
8.33165
 20
2.002125
 10
8.55645
 20
1.777325
 10
9.96145
 20
1.777325
 10
9.9755
 20
1.2926
 10
9.96145
 20
1.27855
 10
8.3176
 20
1.285575
 10
8.310575
 20
1.271525
 10
7.242775
 20
1.27855
 10
7.1936
 20
1.2645
 10
7.17955
 20
1.27855
 10
7.1936
 20
2.676525
 10
7.17955
 20
2.690575
  0
LWPOLYLINE
  5
7B
330
17
100
AcDbEntity
  8
A-WALL
100
AcDbPolyline
 90
10
 70
1
 10
7.889075
 20
1.664925
 10
7.889075
 20
1.299625
 10
7.903125
 20
1.299625
 10
7.903125
 20
1.64385
 10
7.917175
 20
1.6579
 10
8.2614
 20
1.650875
 10
8.27545
 20
1.636825
 10
8.268425
 20
1.299625
 10
8.282475
 20
1.299625
 10
8.27545
 20
1.67195
  0
LWPOLYLINE
  5
7C
330
17
100
AcDbEntity
  8
A-WALL
100
AcDbPolyline
 90
6
 70
1
 10
9.1887
 20
1.3769
 10
9.2168
 20
1.355825
 10
9.842025
 20
1.355825
 10
9.8631
 20
1.369875
 10
9.856075
 20
1.70005
 10
9.195725
 20
1.70005
  0
LWPOLYLINE
  5
7D
330
17
100
AcDbEntity
  8
A-WALL
100
AcDbPolyline
 90
4
 70
1
 10
9.209775
 20
1.678975
 10
9.842025
 20
1.686
 10
9.84905
 20
1.383925
 10
9.2168
 20
1.3769
  0
LWPOLYLINE
  5
7E
330
17
100
AcDbEntity
  8
A-WALL
100
AcDbPolyline
 90
6
 70
1
 10
8.43
 20
1.693025
 10
8.43
 20
1.369875
 10
8.451075
 20
1.355825
 10
9.0763
 20
1.355825
 10
9.097375
 20
1.369875
 10
9.09035
 20
1.70005
  0
LWPOLYLINE
  5
7F
330
17
100
AcDbEntity
  8
A-WALL
100
AcDbPolyline
 90
5
 70
1
 10
8.44405
 20
1.678975
 10
9.069275
 20
1.686
 10
9.083325
 20
1.39095
 10
9.069275
 20
1.3769
 10
8.451075
 20
1.3769
  0
LWPOLYLINE
  5
80
330
17
100
AcDbEntity
  8
A-WALL
100
AcDbPolyline
 90
8
 70
1
 10
7.2217
 20
2.690575
 10
7.214675
 20
2.676525
 10
7.762625
 20
2.676525
 10
7.776675
 20
2.662475
 10
7.76965
 20
1.355825
 10
7.776675
 20
1.30665
 10
7.790725
 20
1.30665
 10
7.790725
 20
2.68355
  0
LWPOLYLINE
  5
81
330
17
100
AcDbEntity
  8
A-WALL
100
AcDbPolyline
 90
3
 70
1
 10
8.999025
 20
3.379025
 10
8.97795
 20
3.379025
 10
8.984975
 20
3.322825
  0
LWPOLYLINE
  5
82
330
17
100
AcDbEntity
  8
A-WALL
100
AcDbPolyline
 90
17
 70
1
 10
9.23085
 20
3.477375
 10
9.23085
 20
3.350925
 10
9.251925
 20
3.35795
 10
9.2449
 20
3.435225
 10
9.265975
 20
3.4563
 10
9.3011
 20
3.44225
 10
9.3011
 20
3.350925
 10
9.322175
 20
3.35795
 10
9.336225
 20
3.4563
 10
9.37135
 20
3.44225
 10
9.37135
 20
3.350925
 10
9.392425
 20
3.35795
 10
9.378375
 20
3.47035
 10
9.34325
 20
3.477375
 10
9.31515
 20
3.4563
 10
9.28705
 20
3.477375
 10
9.25895
 20
3.463325
  0
LWPOLYLINE
  5
83
330
17
100
AcDbEntity
  8
A-WALL
100
AcDbPolyline
 90
8
 70
1
 10
9.420525
 20
3.519525
 10
9.4135
 20
3.49845
 10
9.448625
 20
3.505475
 10
9.45565
 20
3.4844
 10
9.4135
 20
3.44225
 10
9.476725
 20
3.435225
 10
9.448625
 20
3.4563
 10
9.476725
 20
3.505475
  0
LWPOLYLINE
  5
84
330
17
100
AcDbEntity
  8
A-WALL
100
AcDbPolyline
 90
13
 70
1
 10
9.0763
 20
3.519525
 10
9.03415
 20
3.477375
 10
9.03415
 20
3.393075
 10
9.06225
 20
3.35795
 10
9.1044
 20
3.350925
 10
9.139525
 20
3.38605
 10
9.1325
 20
3.44225
 10
9.097375
 20
3.463325
 10
9.0482
 20
3.4563
 10
9.083325
 20
3.505475
 10
9.11845
 20
3.477375
 10
9.139525
 20
3.4844
 10
9.111425
 20
3.519525
  0
LWPOLYLINE
  5
85
330
17
100
AcDbEntity
  8
A-WALL
100
AcDbPolyline
 90
4
 70
1
 10
9.06225
 20
3.435225
 10
9.11845
 20
3.4282
 10
9.1044
 20
3.372
 10
9.055225
 20
3.393075
  0
LWPOLYLINE
  5
86
330
17
100
AcDbEntity
  8
A-WALL
100
AcDbPolyline
 90
13
 70
1
 10
8.8796
 20
3.519525
 10
8.844475
 20
3.491425
 10
8.844475
 20
3.44225
 10
8.8796
 20
3.41415
 10
8.92175
 20
3.4282
 10
8.9358
 20
3.41415
 10
8.9077
 20
3.372
 10
8.8515
 20
3.4001
 10
8.844475
 20
3.379025
 10
8.9077
 20
3.350925
 10
8.942825
 20
3.38605
 10
8.94985
 20
3.463325
 10
8.914725
 20
3.519525
  0
LWPOLYLINE
  5
87
330
17
100
AcDbEntity
  8
A-WALL
100
AcDbPolyline
 90
5
 70
1
 10
8.89365
 20
3.505475
 10
8.928775
 20
3.477375
 10
8.9077
 20
3.4282
 10
8.86555
 20
3.449275
 10
8.86555
 20
3.4844
  0
LWPOLYLINE
  5
88
330
17
100
AcDbEntity
  8
A-WALL
100
AcDbPolyline
 90
16
 70
1
 10
9.4416
 20
3.730275
 10
9.448625
 20
3.61085
 10
9.462675
 20
3.617875
 10
9.462675
 20
3.69515
 10
9.48375
 20
3.716225
 10
9.518875
 20
3.702175
 10
9.518875
 20
3.61085
 10
9.532925
 20
3.61085
 10
9.546975
 20
3.716225
 10
9.589125
 20
3.702175
 10
9.5821
 20
3.617875
 10
9.6102
 20
3.617875
 10
9.589125
 20
3.730275
 10
9.561025
 20
3.7373
 10
9.532925
 20
3.716225
 10
9.504825
 20
3.7373
  0
LWPOLYLINE
  5
89
330
17
100
AcDbEntity
  8
A-WALL
100
AcDbPolyline
 90
7
 70
1
 10
9.350275
 20
3.7373
 10
9.31515
 20
3.7092
 10
9.31515
 20
3.645975
 10
9.336225
 20
3.617875
 10
9.378375
 20
3.61085
 10
9.4135
 20
3.63895
 10
9.4135
 20
3.7092
  0
LWPOLYLINE
  5
8A
330
17
100
AcDbEntity
  8
A-WALL
100
AcDbPolyline
 90
6
 70
1
 10
9.350275
 20
3.716225
 10
9.39945
 20
3.69515
 10
9.39945
 20
3.653
 10
9.378375
 20
3.631925
 10
9.350275
 20
3.631925
 10
9.3292
 20
3.660025
  0
LWPOLYLINE
  5
8B
330
17
100
AcDbEntity
  8
A-WALL
100
AcDbPolyline
 90
7
 70
1
 10
9.223825
 20
3.7373
 10
9.1887
 20
3.702175
 10
9.181675
 20
3.660025
 10
9.209775
 20
3.617875
 10
9.251925
 20
3.61085
 10
9.28705
 20
3.63895
 10
9.28705
 20
3.7092
  0
LWPOLYLINE
  5
8C
330
17
100
AcDbEntity
  8
A-WALL
100
AcDbPolyline
 90
5
 70
1
 10
9.223825
 20
3.716225
 10
9.273
 20
3.69515
 10
9.273
 20
3.645975
 10
9.223825
 20
3.631925
 10
9.20275
 20
3.660025
  0
LWPOLYLINE
  5
8D
330
17
100
AcDbEntity
  8
A-WALL
100
AcDbPolyline
 90
6
 70
1
 10
9.167625
 20
3.7373
 10
9.11845
 20
3.730275
 10
9.11845
 20
3.61085
 10
9.139525
 20
3.617875
 10
9.1325
 20
3.69515
 10
9.17465
 20
3.716225
  0
LWPOLYLINE
  5
8E
330
17
100
AcDbEntity
  8
A-WALL
100
AcDbPolyline
 90
11
 70
1
 10
8.89365
 20
3.7373
 10
8.858525
 20
3.69515
 10
8.858525
 20
3.653
 10
8.89365
 20
3.61085
 10
8.928775
 20
3.61085
 10
8.956875
 20
3.653
 10
8.89365
 20
3.631925
 10
8.872575
 20
3.660025
 10
8.956875
 20
3.674075
 10
8.9639
 20
3.69515
 10
8.928775
 20
3.7373
  0
LWPOLYLINE
  5
8F
330
17
100
AcDbEntity
  8
A-WALL
100
AcDbPolyline
 90
4
 70
1
 10
8.8796
 20
3.702175
 10
8.928775
 20
3.716225
 10
8.942825
 20
3.688125
 10
8.886625
 20
3.6811
  0
LWPOLYLINE
  5
90
330
17
100
AcDbEntity
  8
A-WALL
100
AcDbPolyline
 90
8
 70
1
 10
9.083325
 20
3.77945
 10
9.06225
 20
3.772425
 10
9.06225
 20
3.72325
 10
9.0201
 20
3.7373
 10
8.992
 20
3.716225
 10
8.984975
 20
3.653
 10
9.0201
 20
3.61085
 10
9.083325
 20
3.617875
  0
LWPOLYLINE
  5
91
330
17
100
AcDbEntity
  8
A-WALL
100
AcDbPolyline
 90
6
 70
1
 10
9.0201
 20
3.716225
 10
9.0482
 20
3.716225
 10
9.069275
 20
3.688125
 10
9.0482
 20
3.631925
 10
9.0201
 20
3.631925
 10
8.999025
 20
3.660025
  0
LWPOLYLINE
  5
92
330
17
100
AcDbEntity
  8
A-WALL
100
AcDbPolyline
 90
9
 70
1
 10
8.711
 20
3.77945
 10
8.711
 20
3.617875
 10
8.80935
 20
3.617875
 10
8.830425
 20
3.63895
 10
8.830425
 20
3.6811
 10
8.80935
 20
3.702175
 10
8.830425
 20
3.730275
 10
8.8234
 20
3.758375
 10
8.7953
 20
3.77945
  0
LWPOLYLINE
  5
93
330
17
100
AcDbEntity
  8
A-WALL
100
AcDbPolyline
 90
5
 70
1
 10
8.732075
 20
3.688125
 10
8.802325
 20
3.688125
 10
8.816375
 20
3.653
 10
8.788275
 20
3.631925
 10
8.7391
 20
3.631925
  0
LWPOLYLINE
  5
94
330
17
100
AcDbEntity
  8
A-WALL
100
AcDbPolyline
 90
5
 70
1
 10
8.732075
 20
3.75135
 10
8.7953
 20
3.758375
 10
8.80935
 20
3.730275
 10
8.7953
 20
3.7092
 10
8.7391
 20
3.7092
  0
LWPOLYLINE
  5
95
330
17
100
AcDbEntity
  8
A-WALL
100
AcDbPolyline
 90
3
 70
1
 10
7.17955
 20
3.884825
 10
7.1374
 20
3.83565
 10
7.130375
 20
3.86375
  0
LWPOLYLINE
  5
96
330
17
100
AcDbEntity
  8
A-WALL
100
AcDbPolyline
 90
4
 70
1
 10
8.1771
 20
3.912925
 10
8.198175
 20
3.9059
 10
8.184125
 20
3.83565
 10
8.170075
 20
3.8497
  0
LWPOLYLINE
  5
97
330
17
100
AcDbEntity
  8
A-WALL
100
AcDbPolyline
 90
4
 70
1
 10
7.383275
 20
3.912925
 10
7.40435
 20
3.898875
 10
7.3903
 20
3.842675
 10
7.369225
 20
3.856725
  0
LWPOLYLINE
  5
98
330
17
100
AcDbEntity
  8
A-WALL
100
AcDbPolyline
 90
4
 70
1
 10
10.642875
 20
3.934
 10
10.656925
 20
3.91995
 10
10.6499
 20
3.828625
 10
10.586675
 20
3.8778
  0
LWPOLYLINE
  5
99
330
17
100
AcDbEntity
  8
A-WALL
100
AcDbPolyline
 90
4
 70
1
 10
10.60775
 20
4.039375
 10
10.6218
 20
4.053425
 10
10.685025
 20
4.0464
 10
10.670975
 20
4.025325
  0
LWPOLYLINE
  5
9A
330
17
100
AcDbEntity
  8
A-WALL
100
AcDbPolyline
 90
4
 70
1
 10
10.614775
 20
4.840225
 10
10.678
 20
4.84725
 10
10.685025
 20
4.8332
 10
10.628825
 20
4.81915
  0
LWPOLYLINE
  5
9B
330
17
100
AcDbEntity
  8
A-WALL
100
AcDbPolyline
 90
4
 70
1
 10
1.974025
 20
5.036925
 10
1.988075
 20
5.050975
 10
2.0513
 20
5.04395
 10
2.044275
 20
5.022875
  0
LWPOLYLINE
  5
9C
330
17
100
AcDbEntity
  8
A-WALL
100
AcDbPolyline
 90
4
 70
1
 10
8.05065
 20
5.163375
 10
8.071725
 20
5.149325
 10
8.057675
 20
5.0861
 10
8.043625
 20
5.10015
  0
LWPOLYLINE
  5
9D
330
17
100
AcDbEntity
  8
A-WALL
100
AcDbPolyline
 90
4
 70
1
 10
8.999025
 20
5.1704
 10
8.999025
 20
5.135275
 10
8.9639
 20
5.121225
 10
8.94985
 20
5.135275
  0
LWPOLYLINE
  5
9E
330
17
100
AcDbEntity
  8
A-WALL
100
AcDbPolyline
 90
6
 70
1
 10
10.66395
 20
5.24065
 10
10.69205
 20
5.219575
 10
10.69205
 20
4.87535
 10
10.678
 20
4.8613
 10
10.6499
 20
4.87535
 10
10.6499
 20
5.2266
  0
LWPOLYLINE
  5
9F
330
17
100
AcDbEntity
  8
A-WALL
100
AcDbPolyline
 90
5
 70
1
 10
10.628825
 20
5.24065
 10
10.6499
 20
5.2266
 10
10.6499
 20
4.87535
 10
10.614775
 20
4.8613
 10
10.60775
 20
5.2266
  0
LWPOLYLINE
  5
A0
330
17
100
AcDbEntity
  8
A-WALL
100
AcDbPolyline
 90
4
 70
1
 10
7.439475
 20
5.612975
 10
7.495675
 20
5.627025
 10
7.565925
 20
5.60595
 10
7.453525
 20
5.5919
  0
LWPOLYLINE
  5
A1
330
17
100
AcDbEntity
  8
A-WALL
100
AcDbPolyline
 90
25
 70
1
 10
0.035125
 20
5.837775
 10
1.974025
 20
5.83075
 10
1.959975
 20
5.795625
 10
0.0562
 20
5.795625
 10
0.0562
 20
1.25045
 10
1.9108
 20
1.243425
 10
1.95295
 20
1.257475
 10
0.077275
 20
1.257475
 10
0.063225
 20
1.271525
 10
0.063225
 20
5.781575
 10
0.077275
 20
5.795625
 10
1.959975
 20
5.795625
 10
1.974025
 20
5.781575
 10
1.967
 20
5.01585
 10
1.50335
 20
4.222025
 10
1.6579
 20
4.137725
 10
1.8265
 20
4.095575
 10
1.608725
 20
4.03235
 10
1.50335
 20
3.9621
 10
1.967
 20
3.1753
 10
1.974025
 20
1.22235
 10
1.959975
 20
1.2083
 10
0.035125
 20
1.2083
 10
0.021075
 20
1.22235
 10
0.021075
 20
5.823725
  0
LWPOLYLINE
  5
A2
330
17
100
AcDbEntity
  8
A-WALL
100
AcDbPolyline
 90
18
 70
1
 10
0.091325
 20
1.861625
 10
0.49175
 20
1.50335
 10
0.667375
 20
1.70005
 10
0.751675
 20
1.58765
 10
0.85705
 20
1.524425
 10
0.920275
 20
1.510375
 10
1.08185
 20
1.524425
 10
1.159125
 20
1.566575
 10
1.243425
 20
1.650875
 10
1.397975
 20
1.440125
 10
1.833525
 20
1.749225
 10
1.468225
 20
2.26205
 10
1.201275
 20
2.072375
 10
1.02565
 20
2.1637
 10
0.91325
 20
2.1637
 10
0.77275
 20
2.100475
 10
0.512825
 20
2.3323
 10
0.470675
 20
2.3042
  0
LWPOLYLINE
  5
A3
330
17
100
AcDbEntity
  8
A-WALL
100
AcDbPolyline
 90
4
 70
1
 10
1.749225
 20
1.8546
 10
1.81245
 20
1.75625
 10
1.405
 20
1.4612
 10
1.33475
 20
1.55955
  0
LWPOLYLINE
  5
A4
330
17
100
AcDbEntity
  8
A-WALL
100
AcDbPolyline
 90
4
 70
1
 10
0.18265
 20
1.945925
 10
0.569025
 20
1.61575
 10
0.498775
 20
1.524425
 10
0.105375
 20
1.8546
  0
LWPOLYLINE
  5
A5
330
17
100
AcDbEntity
  8
A-WALL
100
AcDbPolyline
 90
15
 70
1
 10
0.8711
 20
2.1356
 10
1.032675
 20
2.142625
 10
1.116975
 20
2.114525
 10
1.2364
 20
2.002125
 10
1.27855
 20
1.89675
 10
1.27855
 20
1.7703
 10
1.2364
 20
1.67195
 10
1.1521
 20
1.580625
 10
1.05375
 20
1.53145
 10
0.9273
 20
1.524425
 10
0.793825
 20
1.5735999999999999
 10
0.6744
 20
1.721125
 10
0.66035
 20
1.889725
 10
0.681425
 20
1.967
 10
0.779775
 20
2.086425
  0
LWPOLYLINE
  5
A6
330
17
100
AcDbEntity
  8
A-WALL
100
AcDbPolyline
 90
7
 70
1
 10
1.4612
 20
2.248
 10
1.735175
 20
1.861625
 10
1.327725
 20
1.566575
 10
1.25045
 20
1.664925
 10
1.2926
 20
1.763275
 10
1.2926
 20
1.903775
 10
1.2083
 20
2.06535
  0
LWPOLYLINE
  5
A7
330
17
100
AcDbEntity
  8
A-WALL
100
AcDbPolyline
 90
8
 70
1
 10
0.498775
 20
2.311225
 10
0.7587
 20
2.09345
 10
0.68845
 20
2.00915
 10
0.6463
 20
1.917825
 10
0.639275
 20
1.805425
 10
0.66035
 20
1.707075
 10
0.583075
 20
1.622775
 10
0.19669999999999999
 20
1.95295
  0
LWPOLYLINE
  5
A8
330
17
100
AcDbEntity
  8
A-WALL
100
AcDbPolyline
 90
4
 70
1
 10
0.892175
 20
3.2596
 10
0.8711
 20
3.252575
 10
0.8711
 20
3.2034
 10
0.8992
 20
3.21745
  0
LWPOLYLINE
  5
A9
330
17
100
AcDbEntity
  8
A-WALL
100
AcDbPolyline
 90
14
 70
1
 10
1.124
 20
3.350925
 10
1.124
 20
3.238525
 10
1.145075
 20
3.238525
 10
1.145075
 20
3.322825
 10
1.173175
 20
3.3439
 10
1.19425
 20
3.32985
 10
1.19425
 20
3.238525
 10
1.215325
 20
3.238525
 10
1.215325
 20
3.322825
 10
1.243425
 20
3.3439
 10
1.2645
 20
3.32985
 10
1.2645
 20
3.238525
 10
1.285575
 20
3.238525
 10
1.271525
 20
3.350925
  0
LWPOLYLINE
  5
AA
330
17
100
AcDbEntity
  8
A-WALL
100
AcDbPolyline
 90
10
 70
1
 10
0.962425
 20
3.4001
 10
0.934325
 20
3.372
 10
0.948375
 20
3.322825
 10
0.9273
 20
3.27365
 10
0.9554
 20
3.238525
 10
0.990525
 20
3.2315
 10
1.032675
 20
3.266625
 10
1.0116
 20
3.322825
 10
1.032675
 20
3.364975
 10
1.0116
 20
3.393075
  0
LWPOLYLINE
  5
AB
330
17
100
AcDbEntity
  8
A-WALL
100
AcDbPolyline
 90
4
 70
1
 10
0.96945
 20
3.322825
 10
1.018625
 20
3.2877
 10
0.9835
 20
3.24555
 10
0.948375
 20
3.27365
  0
LWPOLYLINE
  5
AC
330
17
100
AcDbEntity
  8
A-WALL
100
AcDbPolyline
 90
4
 70
1
 10
0.948375
 20
3.364975
 10
0.990525
 20
3.38605
 10
1.0116
 20
3.350925
 10
0.96945
 20
3.336875
  0
LWPOLYLINE
  5
AD
330
17
100
AcDbEntity
  8
A-WALL
100
AcDbPolyline
 90
14
 70
1
 10
0.77275
 20
3.4001
 10
0.737625
 20
3.364975
 10
0.74465
 20
3.3158
 10
0.77275
 20
3.294725
 10
0.8149
 20
3.308775
 10
0.82895
 20
3.294725
 10
0.7867999999999999
 20
3.24555
 10
0.74465
 20
3.280675
 10
0.737625
 20
3.266625
 10
0.7587
 20
3.238525
 10
0.793825
 20
3.2315
 10
0.835975
 20
3.266625
 10
0.843
 20
3.35795
 10
0.807875
 20
3.4001
  0
LWPOLYLINE
  5
AE
330
17
100
AcDbEntity
  8
A-WALL
100
AcDbPolyline
 90
6
 70
1
 10
0.7867999999999999
 20
3.38605
 10
0.821925
 20
3.364975
 10
0.821925
 20
3.32985
 10
0.793825
 20
3.308775
 10
0.7587
 20
3.32985
 10
0.7587
 20
3.364975
  0
LWPOLYLINE
  5
AF
330
17
100
AcDbEntity
  8
A-WALL
100
AcDbPolyline
 90
8
 70
1
 10
1.33475
 20
3.407125
 10
1.30665
 20
3.379025
 10
1.3488
 20
3.38605
 10
1.355825
 20
3.372
 10
1.30665
 20
3.322825
 10
1.369875
 20
3.3158
 10
1.341775
 20
3.336875
 10
1.369875
 20
3.393075
  0
LWPOLYLINE
  5
B0
330
17
100
AcDbEntity
  8
A-WALL
100
AcDbPolyline
 90
9
 70
1
 10
1.454175
 20
3.617875
 10
1.426075
 20
3.603825
 10
1.405
 20
3.533575
 10
1.383925
 20
3.547625
 10
1.369875
 20
3.61085
 10
1.3488
 20
3.617875
 10
1.39095
 20
3.505475
 10
1.355825
 20
3.449275
 10
1.397975
 20
3.463325
  0
LWPOLYLINE
  5
B1
330
17
100
AcDbEntity
  8
A-WALL
100
AcDbPolyline
 90
9
 70
1
 10
1.2364
 20
3.617875
 10
1.229375
 20
3.505475
 10
1.25045
 20
3.49845
 10
1.25045
 20
3.575725
 10
1.285575
 20
3.603825
 10
1.30665
 20
3.58275
 10
1.30665
 20
3.49845
 10
1.327725
 20
3.49845
 10
1.3207
 20
3.603825
  0
LWPOLYLINE
  5
B2
330
17
100
AcDbEntity
  8
A-WALL
100
AcDbPolyline
 90
8
 70
1
 10
1.13805
 20
3.617875
 10
1.102925
 20
3.58275
 10
1.102925
 20
3.52655
 10
1.124
 20
3.49845
 10
1.159125
 20
3.491425
 10
1.201275
 20
3.519525
 10
1.2083
 20
3.5687
 10
1.1802
 20
3.61085
  0
LWPOLYLINE
  5
B3
330
17
100
AcDbEntity
  8
A-WALL
100
AcDbPolyline
 90
5
 70
1
 10
1.145075
 20
3.603825
 10
1.19425
 20
3.561675
 10
1.16615
 20
3.5125
 10
1.116975
 20
3.533575
 10
1.116975
 20
3.575725
  0
LWPOLYLINE
  5
B4
330
17
100
AcDbEntity
  8
A-WALL
100
AcDbPolyline
 90
11
 70
1
 10
1.02565
 20
3.617875
 10
0.990525
 20
3.589775
 10
0.990525
 20
3.519525
 10
1.046725
 20
3.491425
 10
1.08185
 20
3.533575
 10
1.02565
 20
3.5125
 10
1.004575
 20
3.533575
 10
1.004575
 20
3.575725
 10
1.032675
 20
3.603825
 10
1.0678
 20
3.575725
 10
1.08185
 20
3.5968
  0
LWPOLYLINE
  5
B5
330
17
100
AcDbEntity
  8
A-WALL
100
AcDbPolyline
 90
10
 70
1
 10
0.82895
 20
3.61085
 10
0.8149
 20
3.575725
 10
0.850025
 20
3.603825
 10
0.88515
 20
3.5968
 10
0.892175
 20
3.575725
 10
0.8149
 20
3.547625
 10
0.8149
 20
3.505475
 10
0.91325
 20
3.49845
 10
0.906225
 20
3.5968
 10
0.878125
 20
3.617875
  0
LWPOLYLINE
  5
B6
330
17
100
AcDbEntity
  8
A-WALL
100
AcDbPolyline
 90
4
 70
1
 10
0.892175
 20
3.547625
 10
0.85705
 20
3.505475
 10
0.82895
 20
3.519525
 10
0.843
 20
3.547625
  0
LWPOLYLINE
  5
B7
330
17
100
AcDbEntity
  8
A-WALL
100
AcDbPolyline
 90
4
 70
1
 10
0.94135
 20
3.660025
 10
0.94135
 20
3.49845
 10
0.962425
 20
3.49845
 10
0.962425
 20
3.660025
  0
LWPOLYLINE
  5
B8
330
17
100
AcDbEntity
  8
A-WALL
100
AcDbPolyline
 90
7
 70
1
 10
0.667375
 20
3.660025
 10
0.66035
 20
3.505475
 10
0.7587
 20
3.49845
 10
0.7867999999999999
 20
3.5406
 10
0.7587
 20
3.58275
 10
0.779775
 20
3.631925
 10
0.74465
 20
3.660025
  0
LWPOLYLINE
  5
B9
330
17
100
AcDbEntity
  8
A-WALL
100
AcDbPolyline
 90
4
 70
1
 10
0.681425
 20
3.5687
 10
0.74465
 20
3.575725
 10
0.765725
 20
3.533575
 10
0.695475
 20
3.5125
  0
LWPOLYLINE
  5
BA
330
17
100
AcDbEntity
  8
A-WALL
100
AcDbPolyline
 90
4
 70
1
 10
0.681425
 20
3.631925
 10
0.7306
 20
3.645975
 10
0.7587
 20
3.603825
 10
0.68845
 20
3.589775
  0
LWPOLYLINE
  5
BB
330
17
100
AcDbEntity
  8
A-WALL
100
AcDbPolyline
 90
12
 70
1
 10
7.5027
 20
5.8729
 10
7.7837
 20
5.8729
 10
7.79775
 20
5.85885
 10
7.79775
 20
5.339
 10
7.7837
 20
5.32495
 10
7.509725
 20
5.32495
 10
7.495675
 20
5.339
 10
7.495675
 20
5.5638
 10
7.565925
 20
5.57785
 10
7.587
 20
5.60595
 10
7.565925
 20
5.63405
 10
7.495675
 20
5.641075
  0
LWPOLYLINE
  5
BC
330
17
100
AcDbEntity
  8
A-WALL
100
AcDbPolyline
 90
10
 70
1
 10
7.397325
 20
5.879925
 10
7.481625
 20
5.865875
 10
7.48865
 20
5.6481
 10
7.425425
 20
5.612975
 10
7.4465
 20
5.57785
 10
7.481625
 20
5.570825
 10
7.481625
 20
5.339
 10
7.4184
 20
5.32495
 10
7.383275
 20
5.339
 10
7.383275
 20
5.865875
  0
LWPOLYLINE
  5
BD
330
17
100
AcDbEntity
  8
A-WALL
100
AcDbPolyline
 90
12
 70
1
 10
7.397325
 20
6.020425
 10
7.818825
 20
6.020425
 10
7.832875
 20
6.006375
 10
7.832875
 20
5.191475
 10
7.818825
 20
5.177425
 10
7.383275
 20
5.18445
 10
7.3903
 20
5.317925
 10
7.804775
 20
5.317925
 10
7.8118
 20
5.331975
 10
7.804775
 20
5.88695
 10
7.397325
 20
5.879925
 10
7.383275
 20
5.893975
  0
LWPOLYLINE
  5
BE
330
17
100
AcDbEntity
  8
A-WALL
100
AcDbPolyline
 90
4
 70
1
 10
10.586675
 20
6.245225
 10
10.63585
 20
6.259275
 10
10.656925
 20
6.22415
 10
10.642875
 20
6.203075
  0
LWPOLYLINE
  5
BF
330
17
100
AcDbEntity
  8
A-WALL
100
AcDbPolyline
 90
4
 70
1
 10
9.00605
 20
6.2943999999999996
 10
9.069275
 20
6.25225
 10
8.999025
 20
6.19605
 10
8.992
 20
6.28035
  0
LWPOLYLINE
  5
C0
330
17
100
AcDbEntity
  8
A-WALL
100
AcDbPolyline
 90
10
 70
1
 10
7.51675
 20
6.540275
 10
7.692375
 20
6.540275
 10
7.748575
 20
6.5192
 10
7.804775
 20
6.463
 10
7.82585
 20
6.39275
 10
7.818825
 20
6.3225
 10
7.7556
 20
6.2382
 10
7.551875
 20
6.217125
 10
7.5027
 20
6.231175
 10
7.5027
 20
6.526225
  0
LWPOLYLINE
  5
C1
330
17
100
AcDbEntity
  8
A-WALL
100
AcDbPolyline
 90
5
 70
1
 10
2.030225
 20
7.54485
 10
2.058325
 20
7.523775
 10
2.044275
 20
6.0134
 10
2.016175
 20
6.02745
 10
2.016175
 20
7.5308
  0
LWPOLYLINE
  5
C2
330
17
100
AcDbEntity
  8
A-WALL
100
AcDbPolyline
 90
6
 70
1
 10
1.988075
 20
7.54485
 10
2.016175
 20
7.5308
 10
2.016175
 20
6.02745
 10
2.002125
 20
6.0134
 10
1.974025
 20
6.02745
 10
1.974025
 20
7.5308
  0
LWPOLYLINE
  5
C3
330
17
100
AcDbEntity
  8
A-WALL
100
AcDbPolyline
 90
3
 70
1
 10
7.804775
 20
7.7275
 10
7.846925
 20
7.6432
 10
7.762625
 20
7.650225
  0
LWPOLYLINE
  5
C4
330
17
100
AcDbEntity
  8
A-WALL
100
AcDbPolyline
 90
7
 70
1
 10
8.380825
 20
7.734525
 10
8.394875
 20
7.748575
 10
8.942825
 20
7.748575
 10
8.94985
 20
7.29195
 10
8.9358
 20
7.2779
 10
8.394875
 20
7.284925
 10
8.380825
 20
7.298975
  0
LWPOLYLINE
  5
C5
330
17
100
AcDbEntity
  8
A-WALL
100
AcDbPolyline
 90
12
 70
1
 10
8.549425
 20
7.565925
 10
8.563475
 20
7.48865
 10
8.58455
 20
7.481625
 10
8.605625
 20
7.537825
 10
8.633725
 20
7.481625
 10
8.6548
 20
7.5589
 10
8.64075
 20
7.565925
 10
8.64075
 20
7.537825
 10
8.619675
 20
7.5308
 10
8.5986
 20
7.565925
 10
8.5705
 20
7.51675
 10
8.563475
 20
7.565925
  0
LWPOLYLINE
  5
C6
330
17
100
AcDbEntity
  8
A-WALL
100
AcDbPolyline
 90
8
 70
1
 10
8.760175
 20
7.54485
 10
8.72505
 20
7.57295
 10
8.6829
 20
7.565925
 10
8.6548
 20
7.481625
 10
8.689925
 20
7.54485
 10
8.689925
 20
7.48865
 10
8.732075
 20
7.4746
 10
8.760175
 20
7.495675
  0
LWPOLYLINE
  5
C7
330
17
100
AcDbEntity
  8
A-WALL
100
AcDbPolyline
 90
4
 70
1
 10
8.711
 20
7.551875
 10
8.75315
 20
7.523775
 10
8.72505
 20
7.48865
 10
8.703975
 20
7.5027
  0
LWPOLYLINE
  5
C8
330
17
100
AcDbEntity
  8
A-WALL
100
AcDbPolyline
 90
14
 70
1
 10
7.397325
 20
7.7556
 10
7.790725
 20
7.7556
 10
7.804775
 20
7.734525
 10
7.734525
 20
7.6432
 10
7.790725
 20
7.622125
 10
7.875025
 20
7.62915
 10
7.8118
 20
7.734525
 10
7.82585
 20
7.7556
 10
8.2333
 20
7.74155
 10
8.21925
 20
7.270875
 10
7.875025
 20
6.92665
 10
7.43245
 20
6.905575
 10
7.383275
 20
6.919625
 10
7.383275
 20
7.74155
  0
LWPOLYLINE
  5
C9
330
17
100
AcDbEntity
  8
A-WALL
100
AcDbPolyline
 90
39
 70
1
 10
8.24735
 20
7.762625
 10
8.3738
 20
7.7556
 10
8.3738
 20
7.270875
 10
8.956875
 20
7.26385
 10
8.956875
 20
5.177425
 10
8.86555
 20
5.1704
 10
8.872575
 20
5.10015
 10
8.858525
 20
5.0861
 10
8.844475
 20
5.093125
 10
8.8515
 20
5.177425
 10
8.647775
 20
5.91505
 10
8.535375
 20
5.88695
 10
8.408925
 20
5.8167
 10
8.212225
 20
5.627025
 10
8.10685
 20
5.430325
 10
8.057675
 20
5.1704
 10
7.846925
 20
5.1704
 10
7.846925
 20
6.02745
 10
7.37625
 20
6.034475
 10
7.37625
 20
6.512175
 10
7.3903
 20
6.526225
 10
7.495675
 20
6.512175
 10
7.495675
 20
6.245225
 10
7.40435
 20
6.231175
 10
7.411375
 20
6.217125
 10
7.71345
 20
6.203075
 10
7.8118
 20
6.273325
 10
7.8399
 20
6.357625
 10
7.82585
 20
6.455975
 10
7.776675
 20
6.5192
 10
7.7275
 20
6.5473
 10
7.37625
 20
6.540275
 10
7.37625
 20
6.891525
 10
7.82585
 20
6.891525
 10
7.88205
 20
6.9126
 10
7.973375
 20
6.989875
 10
8.240325
 20
7.2779
 10
8.24735
 20
7.706425
 10
8.2333
 20
7.748575
  0
LWPOLYLINE
  5
CA
330
17
100
AcDbEntity
  8
A-WALL
100
AcDbPolyline
 90
4
 70
1
 10
8.16305
 20
6.287375
 10
8.141975
 20
6.28035
 10
8.141975
 20
6.231175
 10
8.170075
 20
6.25225
  0
LWPOLYLINE
  5
CB
330
17
100
AcDbEntity
  8
A-WALL
100
AcDbPolyline
 90
15
 70
1
 10
8.394875
 20
6.3787
 10
8.4019
 20
6.259275
 10
8.43
 20
6.36465
 10
8.465125
 20
6.3506
 10
8.465125
 20
6.259275
 10
8.4862
 20
6.2663
 10
8.479175
 20
6.343575
 10
8.50025
 20
6.36465
 10
8.535375
 20
6.3506
 10
8.52835
 20
6.273325
 10
8.55645
 20
6.2663
 10
8.549425
 20
6.36465
 10
8.52835
 20
6.385725
 10
8.479175
 20
6.36465
 10
8.4581
 20
6.385725
  0
LWPOLYLINE
  5
CC
330
17
100
AcDbEntity
  8
A-WALL
100
AcDbPolyline
 90
16
 70
1
 10
8.21925
 20
6.427875
 10
8.2052
 20
6.343575
 10
8.2614
 20
6.357625
 10
8.282475
 20
6.301425
 10
8.2614
 20
6.28035
 10
8.2333
 20
6.28035
 10
8.212225
 20
6.30845
 10
8.198175
 20
6.2943999999999996
 10
8.21925
 20
6.2663
 10
8.2614
 20
6.259275
 10
8.30355
 20
6.2943999999999996
 10
8.30355
 20
6.343575
 10
8.268425
 20
6.371675
 10
8.2333
 20
6.36465
 10
8.226275
 20
6.399775
 10
8.30355
 20
6.42085
  0
LWPOLYLINE
  5
CD
330
17
100
AcDbEntity
  8
A-WALL
100
AcDbPolyline
 90
7
 70
1
 10
8.071725
 20
6.427875
 10
8.001475
 20
6.30845
 10
8.0647
 20
6.301425
 10
8.085775
 20
6.259275
 10
8.113875
 20
6.315475
 10
8.085775
 20
6.329525
 10
8.0928
 20
6.42085
  0
LWPOLYLINE
  5
CE
330
17
100
AcDbEntity
  8
A-WALL
100
AcDbPolyline
 90
3
 70
1
 10
8.0647
 20
6.385725
 10
8.071725
 20
6.3225
 10
8.029575
 20
6.315475
  0
LWPOLYLINE
  5
CF
330
17
100
AcDbEntity
  8
A-WALL
100
AcDbPolyline
 90
9
 70
1
 10
8.58455
 20
6.427875
 10
8.577525
 20
6.4068
 10
8.61265
 20
6.413825
 10
8.619675
 20
6.39275
 10
8.577525
 20
6.343575
 10
8.64075
 20
6.343575
 10
8.61265
 20
6.36465
 10
8.64075
 20
6.413825
 10
8.61265
 20
6.4349
  0
LWPOLYLINE
  5
D0
330
17
100
AcDbEntity
  8
A-WALL
100
AcDbPolyline
 90
17
 70
1
 10
8.64075
 20
6.64565
 10
8.64075
 20
6.5192
 10
8.661825
 20
6.526225
 10
8.66885
 20
6.624575
 10
8.711
 20
6.610525
 10
8.711
 20
6.5192
 10
8.732075
 20
6.526225
 10
8.72505
 20
6.6035
 10
8.746125
 20
6.624575
 10
8.78125
 20
6.610525
 10
8.774225
 20
6.526225
 10
8.802325
 20
6.526225
 10
8.7953
 20
6.624575
 10
8.774225
 20
6.64565
 10
8.732075
 20
6.624575
 10
8.703975
 20
6.64565
 10
8.66885
 20
6.6316
  0
LWPOLYLINE
  5
D1
330
17
100
AcDbEntity
  8
A-WALL
100
AcDbPolyline
 90
8
 70
1
 10
8.549425
 20
6.64565
 10
8.5143
 20
6.624575
 10
8.507275
 20
6.554325
 10
8.52835
 20
6.526225
 10
8.577525
 20
6.5192
 10
8.605625
 20
6.540275
 10
8.61265
 20
6.6035
 10
8.58455
 20
6.638625
  0
LWPOLYLINE
  5
D2
330
17
100
AcDbEntity
  8
A-WALL
100
AcDbPolyline
 90
6
 70
1
 10
8.5424
 20
6.624575
 10
8.577525
 20
6.624575
 10
8.5986
 20
6.596475
 10
8.591575
 20
6.554325
 10
8.563475
 20
6.53325
 10
8.521325
 20
6.568375
  0
LWPOLYLINE
  5
D3
330
17
100
AcDbEntity
  8
A-WALL
100
AcDbPolyline
 90
8
 70
1
 10
8.422975
 20
6.64565
 10
8.380825
 20
6.6035
 10
8.380825
 20
6.554325
 10
8.4019
 20
6.526225
 10
8.451075
 20
6.5192
 10
8.479175
 20
6.540275
 10
8.4862
 20
6.6035
 10
8.47215
 20
6.6316
  0
LWPOLYLINE
  5
D4
330
17
100
AcDbEntity
  8
A-WALL
100
AcDbPolyline
 90
6
 70
1
 10
8.41595
 20
6.624575
 10
8.451075
 20
6.624575
 10
8.47215
 20
6.596475
 10
8.451075
 20
6.540275
 10
8.4019
 20
6.554325
 10
8.394875
 20
6.58945
  0
LWPOLYLINE
  5
D5
330
17
100
AcDbEntity
  8
A-WALL
100
AcDbPolyline
 90
6
 70
1
 10
8.35975
 20
6.64565
 10
8.310575
 20
6.638625
 10
8.3176
 20
6.5192
 10
8.33165
 20
6.526225
 10
8.324625
 20
6.596475
 10
8.366775
 20
6.624575
  0
LWPOLYLINE
  5
D6
330
17
100
AcDbEntity
  8
A-WALL
100
AcDbPolyline
 90
12
 70
1
 10
8.02255
 20
6.64565
 10
7.99445
 20
6.6035
 10
8.02255
 20
6.624575
 10
8.057675
 20
6.624575
 10
8.071725
 20
6.6035
 10
8.015525
 20
6.58945
 10
7.987425
 20
6.5473
 10
8.0085
 20
6.5192
 10
8.057675
 20
6.53325
 10
8.085775
 20
6.5192
 10
8.085775
 20
6.61755
 10
8.057675
 20
6.64565
  0
LWPOLYLINE
  5
D7
330
17
100
AcDbEntity
  8
A-WALL
100
AcDbPolyline
 90
4
 70
1
 10
8.0085
 20
6.5473
 10
8.0366
 20
6.582425
 10
8.071725
 20
6.5754
 10
8.0366
 20
6.53325
  0
LWPOLYLINE
  5
D8
330
17
100
AcDbEntity
  8
A-WALL
100
AcDbPolyline
 90
5
 70
1
 10
8.127925
 20
6.680775
 10
8.1209
 20
6.540275
 10
8.156025
 20
6.5192
 10
8.141975
 20
6.5473
 10
8.156025
 20
6.638625
  0
LWPOLYLINE
  5
D9
330
17
100
AcDbEntity
  8
A-WALL
100
AcDbPolyline
 90
11
 70
1
 10
8.184125
 20
6.6878
 10
8.184125
 20
6.526225
 10
8.2052
 20
6.526225
 10
8.2052
 20
6.610525
 10
8.24735
 20
6.624575
 10
8.2614
 20
6.5192
 10
8.27545
 20
6.5192
 10
8.27545
 20
6.624575
 10
8.24735
 20
6.64565
 10
8.2052
 20
6.6316
 10
8.2052
 20
6.680775
  0
LWPOLYLINE
  5
DA
330
17
100
AcDbEntity
  8
A-WALL
100
AcDbPolyline
 90
7
 70
1
 10
7.846925
 20
6.6878
 10
7.8399
 20
6.526225
 10
7.93825
 20
6.526225
 10
7.96635
 20
6.56135
 10
7.93825
 20
6.610525
 10
7.9523
 20
6.666725
 10
7.9242
 20
6.6878
  0
LWPOLYLINE
  5
DB
330
17
100
AcDbEntity
  8
A-WALL
100
AcDbPolyline
 90
5
 70
1
 10
7.860975
 20
6.596475
 10
7.917175
 20
6.6035
 10
7.945275
 20
6.56135
 10
7.9242
 20
6.540275
 10
7.868
 20
6.540275
  0
LWPOLYLINE
  5
DC
330
17
100
AcDbEntity
  8
A-WALL
100
AcDbPolyline
 90
4
 70
1
 10
7.860975
 20
6.6597
 10
7.9242
 20
6.666725
 10
7.93825
 20
6.6316
 10
7.868
 20
6.61755
  0
LWPOLYLINE
  5
DD
330
17
100
AcDbEntity
  8
A-WALL
100
AcDbPolyline
 90
13
 70
1
 10
6.30845
 20
7.762625
 10
7.1374
 20
7.762625
 10
7.15145
 20
7.748575
 10
7.15145
 20
5.1142
 10
7.1374
 20
5.10015
 10
6.582425
 20
5.1142
 10
6.582425
 20
7.186575
 10
6.2943999999999996
 20
7.200625
 10
6.301425
 20
7.40435
 10
6.385725
 20
7.4184
 10
6.385725
 20
7.43245
 10
6.315475
 20
7.425425
 10
6.301425
 20
7.439475
  0
LWPOLYLINE
  5
DE
330
17
100
AcDbEntity
  8
A-WALL
100
AcDbPolyline
 90
4
 70
1
 10
6.821275
 20
5.275775
 10
6.807225
 20
5.26875
 10
6.807225
 20
5.177425
 10
6.821275
 20
5.177425
  0
LWPOLYLINE
  5
DF
330
17
100
AcDbEntity
  8
A-WALL
100
AcDbPolyline
 90
4
 70
1
 10
6.807225
 20
5.46545
 10
6.807225
 20
5.374125
 10
6.821275
 20
5.3671
 10
6.821275
 20
5.46545
  0
LWPOLYLINE
  5
E0
330
17
100
AcDbEntity
  8
A-WALL
100
AcDbPolyline
 90
4
 70
1
 10
6.807225
 20
5.655125
 10
6.807225
 20
5.5638
 10
6.821275
 20
5.556775
 10
6.821275
 20
5.655125
  0
LWPOLYLINE
  5
E1
330
17
100
AcDbEntity
  8
A-WALL
100
AcDbPolyline
 90
4
 70
1
 10
6.807225
 20
6.610525
 10
6.807225
 20
6.512175
 10
6.821275
 20
6.512175
 10
6.821275
 20
6.610525
  0
LWPOLYLINE
  5
E2
330
17
100
AcDbEntity
  8
A-WALL
100
AcDbPolyline
 90
4
 70
1
 10
6.95475
 20
6.61755
 10
6.919625
 20
6.568375
 10
6.9688
 20
6.540275
 10
6.989875
 20
6.596475
  0
LWPOLYLINE
  5
E3
330
17
100
AcDbEntity
  8
A-WALL
100
AcDbPolyline
 90
4
 70
1
 10
6.947725
 20
6.596475
 10
6.98285
 20
6.582425
 10
6.961775
 20
6.554325
 10
6.933675
 20
6.5754
  0
LWPOLYLINE
  5
E4
330
17
100
AcDbEntity
  8
A-WALL
100
AcDbPolyline
 90
30
 70
1
 10
7.0531
 20
6.8283
 10
6.67375
 20
6.8283
 10
6.6597
 20
6.81425
 10
6.6597
 20
6.343575
 10
6.81425
 20
6.3225
 10
6.6597
 20
6.301425
 10
6.666725
 20
5.823725
 10
6.8002
 20
5.823725
 10
6.81425
 20
5.74645
 10
6.8283
 20
5.823725
 10
7.060125
 20
5.83075
 10
7.060125
 20
6.30845
 10
6.835325
 20
6.30845
 10
6.821275
 20
6.42085
 10
6.807225
 20
6.42085
 10
6.8002
 20
6.343575
 10
6.680775
 20
6.357625
 10
6.67375
 20
6.793175
 10
6.694825
 20
6.81425
 10
6.807225
 20
6.81425
 10
6.807225
 20
6.708875
 10
6.821275
 20
6.70185
 10
6.8283
 20
6.81425
 10
7.032025
 20
6.81425
 10
7.046075
 20
6.8002
 10
7.046075
 20
6.357625
 10
7.025
 20
6.343575
 10
6.849375
 20
6.3506
 10
6.84235
 20
6.33655
 10
7.0531
 20
6.33655
  0
LWPOLYLINE
  5
E5
330
17
100
AcDbEntity
  8
A-WALL
100
AcDbPolyline
 90
5
 70
1
 10
6.6878
 20
6.301425
 10
7.032025
 20
6.301425
 10
7.046075
 20
6.287375
 10
7.03905
 20
5.837775
 10
6.680775
 20
5.8448
  0
LWPOLYLINE
  5
E6
330
17
100
AcDbEntity
  8
A-WALL
100
AcDbPolyline
 90
3
 70
1
 10
6.81425
 20
6.0415
 10
6.807225
 20
5.94315
 10
6.821275
 20
5.936125
  0
LWPOLYLINE
  5
E7
330
17
100
AcDbEntity
  8
A-WALL
100
AcDbPolyline
 90
5
 70
1
 10
6.95475
 20
6.11175
 10
6.919625
 20
6.062575
 10
6.9407
 20
6.034475
 10
6.975825
 20
6.034475
 10
6.989875
 20
6.090675
  0
LWPOLYLINE
  5
E8
330
17
100
AcDbEntity
  8
A-WALL
100
AcDbPolyline
 90
4
 70
1
 10
6.933675
 20
6.076625
 10
6.961775
 20
6.090675
 10
6.98285
 20
6.062575
 10
6.95475
 20
6.048525
  0
LWPOLYLINE
  5
E9
330
17
100
AcDbEntity
  8
A-WALL
100
AcDbPolyline
 90
3
 70
1
 10
6.821275
 20
6.231175
 10
6.807225
 20
6.22415
 10
6.81425
 20
6.1258
  0
LWPOLYLINE
  5
EA
330
17
100
AcDbEntity
  8
A-WALL
100
AcDbPolyline
 90
3
 70
1
 10
6.81425
 20
6.9969
 10
6.807225
 20
6.89855
 10
6.821275
 20
6.891525
  0
LWPOLYLINE
  5
EB
330
17
100
AcDbEntity
  8
A-WALL
100
AcDbPolyline
 90
3
 70
1
 10
6.81425
 20
7.186575
 10
6.807225
 20
7.0882249999999996
 10
6.821275
 20
7.0812
  0
LWPOLYLINE
  5
EC
330
17
100
AcDbEntity
  8
A-WALL
100
AcDbPolyline
 90
4
 70
1
 10
6.807225
 20
7.37625
 10
6.807225
 20
7.2779
 10
6.821275
 20
7.270875
 10
6.821275
 20
7.37625
  0
LWPOLYLINE
  5
ED
330
17
100
AcDbEntity
  8
A-WALL
100
AcDbPolyline
 90
4
 70
1
 10
6.67375
 20
7.43245
 10
6.67375
 20
7.411375
 10
6.765075
 20
7.411375
 10
6.765075
 20
7.43245
  0
LWPOLYLINE
  5
EE
330
17
100
AcDbEntity
  8
A-WALL
100
AcDbPolyline
 90
4
 70
1
 10
6.484075
 20
7.43245
 10
6.484075
 20
7.411375
 10
6.5754
 20
7.411375
 10
6.5754
 20
7.43245
  0
LWPOLYLINE
  5
EF
330
17
100
AcDbEntity
  8
A-WALL
100
AcDbPolyline
 90
7
 70
1
 10
5.444375
 20
7.748575
 10
5.458425
 20
7.762625
 10
6.28035
 20
7.762625
 10
6.2943999999999996
 20
7.748575
 10
6.2943999999999996
 20
7.2217
 10
6.28035
 20
7.20765
 10
5.458425
 20
7.214675
  0
LWPOLYLINE
  5
F0
330
17
100
AcDbEntity
  8
A-WALL
100
AcDbPolyline
 90
5
 70
1
 10
6.02745
 20
7.734525
 10
6.0134
 20
7.720475
 10
6.0134
 20
7.2498
 10
6.2663
 20
7.242775
 10
6.2663
 20
7.7275
  0
LWPOLYLINE
  5
F1
330
17
100
AcDbEntity
  8
A-WALL
100
AcDbPolyline
 90
5
 70
1
 10
6.174975
 20
7.355175
 10
6.259275
 20
7.34815
 10
6.245225
 20
7.2498
 10
6.146875
 20
7.256825
 10
6.146875
 20
7.32005
  0
LWPOLYLINE
  5
F2
330
17
100
AcDbEntity
  8
A-WALL
100
AcDbPolyline
 90
5
 70
1
 10
6.0977
 20
7.3622
 10
6.13985
 20
7.313025
 10
6.13985
 20
7.26385
 10
6.0415
 20
7.2498
 10
6.02745
 20
7.34815
  0
LWPOLYLINE
  5
F3
330
17
100
AcDbEntity
  8
A-WALL
100
AcDbPolyline
 90
4
 70
1
 10
6.13985
 20
7.3903
 10
6.16795
 20
7.369225
 10
6.146875
 20
7.341125
 10
6.118775
 20
7.355175
  0
LWPOLYLINE
  5
F4
330
17
100
AcDbEntity
  8
A-WALL
100
AcDbPolyline
 90
9
 70
1
 10
6.189025
 20
7.579975
 10
6.259275
 20
7.565925
 10
6.259275
 20
7.383275
 10
6.2382
 20
7.369225
 10
6.174975
 20
7.37625
 10
6.146875
 20
7.40435
 10
6.19605
 20
7.4184
 10
6.146875
 20
7.439475
 10
6.146875
 20
7.537825
  0
LWPOLYLINE
  5
F5
330
17
100
AcDbEntity
  8
A-WALL
100
AcDbPolyline
 90
9
 70
1
 10
6.0415
 20
7.579975
 10
6.0977
 20
7.579975
 10
6.132825
 20
7.537825
 10
6.13985
 20
7.4465
 10
6.0977
 20
7.425425
 10
6.132825
 20
7.397325
 10
6.0977
 20
7.369225
 10
6.02745
 20
7.383275
 10
6.020425
 20
7.565925
  0
LWPOLYLINE
  5
F6
330
17
100
AcDbEntity
  8
A-WALL
100
AcDbPolyline
 90
4
 70
1
 10
6.13985
 20
7.622125
 10
6.16795
 20
7.60105
 10
6.146875
 20
7.5589
 10
6.11175
 20
7.587
  0
LWPOLYLINE
  5
F7
330
17
100
AcDbEntity
  8
A-WALL
100
AcDbPolyline
 90
6
 70
1
 10
6.034475
 20
7.720475
 10
6.13985
 20
7.706425
 10
6.132825
 20
7.636175
 10
6.0977
 20
7.594025
 10
6.02745
 20
7.608075
 10
6.020425
 20
7.706425
  0
LWPOLYLINE
  5
F8
330
17
100
AcDbEntity
  8
A-WALL
100
AcDbPolyline
 90
5
 70
1
 10
6.160925
 20
7.7275
 10
6.259275
 20
7.71345
 10
6.245225
 20
7.594025
 10
6.189025
 20
7.594025
 10
6.146875
 20
7.636175
  0
LWPOLYLINE
  5
F9
330
17
100
AcDbEntity
  8
A-WALL
100
AcDbPolyline
 90
23
 70
1
 10
5.4795
 20
7.7275
 10
5.4795
 20
7.242775
 10
5.7324
 20
7.2498
 10
5.725375
 20
7.40435
 10
5.809675
 20
7.411375
 10
5.809675
 20
7.43245
 10
5.753475
 20
7.439475
 10
5.7605
 20
7.579975
 10
5.7886
 20
7.565925
 10
5.795625
 20
7.523775
 10
5.865875
 20
7.4746
 10
5.865875
 20
7.3903
 10
5.851825
 20
7.37625
 10
5.74645
 20
7.383275
 10
5.753475
 20
7.3622
 10
5.992325
 20
7.3622
 10
5.99935
 20
7.71345
 10
5.9853
 20
7.734525
 10
5.753475
 20
7.734525
 10
5.753475
 20
7.4465
 10
5.739425
 20
7.43245
 10
5.725375
 20
7.439475
 10
5.725375
 20
7.7275
  0
LWPOLYLINE
  5
FA
330
17
100
AcDbEntity
  8
A-WALL
100
AcDbPolyline
 90
5
 70
1
 10
5.486525
 20
7.34815
 10
5.5638
 20
7.355175
 10
5.5919
 20
7.327075
 10
5.5919
 20
7.256825
 10
5.500575
 20
7.2498
  0
LWPOLYLINE
  5
FB
330
17
100
AcDbEntity
  8
A-WALL
100
AcDbPolyline
 90
5
 70
1
 10
5.7043
 20
7.3622
 10
5.71835
 20
7.26385
 10
5.62
 20
7.2498
 10
5.60595
 20
7.32005
 10
5.641075
 20
7.355175
  0
LWPOLYLINE
  5
FC
330
17
100
AcDbEntity
  8
A-WALL
100
AcDbPolyline
 90
4
 70
1
 10
5.598925
 20
7.3903
 10
5.62
 20
7.37625
 10
5.60595
 20
7.341125
 10
5.584875
 20
7.355175
  0
LWPOLYLINE
  5
FD
330
17
100
AcDbEntity
  8
A-WALL
100
AcDbPolyline
 90
7
 70
1
 10
5.655125
 20
7.579975
 10
5.71835
 20
7.57295
 10
5.71835
 20
7.383275
 10
5.7043
 20
7.369225
 10
5.63405
 20
7.37625
 10
5.612975
 20
7.397325
 10
5.60595
 20
7.523775
  0
LWPOLYLINE
  5
FE
330
17
100
AcDbEntity
  8
A-WALL
100
AcDbPolyline
 90
9
 70
1
 10
5.49355
 20
7.579975
 10
5.54975
 20
7.579975
 10
5.5919
 20
7.5308
 10
5.5919
 20
7.439475
 10
5.528675
 20
7.43245
 10
5.5357
 20
7.411375
 10
5.5919
 20
7.411375
 10
5.556775
 20
7.369225
 10
5.486525
 20
7.383275
  0
LWPOLYLINE
  5
FF
330
17
100
AcDbEntity
  8
A-WALL
100
AcDbPolyline
 90
9
 70
1
 10
5.978275
 20
7.587
 10
5.992325
 20
7.57295
 10
5.9853
 20
7.439475
 10
5.908025
 20
7.4184
 10
5.97125
 20
7.4184
 10
5.992325
 20
7.3903
 10
5.88695
 20
7.37625
 10
5.879925
 20
7.4746
 10
5.94315
 20
7.51675
  0
LWPOLYLINE
  5
100
330
17
100
AcDbEntity
  8
A-WALL
100
AcDbPolyline
 90
5
 70
1
 10
5.94315
 20
7.587
 10
5.9572
 20
7.57295
 10
5.94315
 20
7.537825
 10
5.88695
 20
7.5027
 10
5.879925
 20
7.5308
  0
LWPOLYLINE
  5
101
330
17
100
AcDbEntity
  8
A-WALL
100
AcDbPolyline
 90
5
 70
1
 10
5.80265
 20
7.587
 10
5.865875
 20
7.5308
 10
5.85885
 20
7.5027
 10
5.80265
 20
7.537825
 10
5.7886
 20
7.565925
  0
LWPOLYLINE
  5
102
330
17
100
AcDbEntity
  8
A-WALL
100
AcDbPolyline
 90
4
 70
1
 10
5.865875
 20
7.62915
 10
5.908025
 20
7.594025
 10
5.879925
 20
7.551875
 10
5.837775
 20
7.57295
  0
LWPOLYLINE
  5
103
330
17
100
AcDbEntity
  8
A-WALL
100
AcDbPolyline
 90
4
 70
1
 10
5.598925
 20
7.62915
 10
5.641075
 20
7.587
 10
5.60595
 20
7.54485
 10
5.5638
 20
7.587
  0
LWPOLYLINE
  5
104
330
17
100
AcDbEntity
  8
A-WALL
100
AcDbPolyline
 90
4
 70
1
 10
5.88695
 20
7.678325
 10
5.9572
 20
7.6151
 10
5.94315
 20
7.594025
 10
5.879925
 20
7.6432
  0
LWPOLYLINE
  5
105
330
17
100
AcDbEntity
  8
A-WALL
100
AcDbPolyline
 90
5
 70
1
 10
5.85885
 20
7.678325
 10
5.865875
 20
7.650225
 10
5.80265
 20
7.594025
 10
5.795625
 20
7.62915
 10
5.837775
 20
7.678325
  0
LWPOLYLINE
  5
106
330
17
100
AcDbEntity
  8
A-WALL
100
AcDbPolyline
 90
6
 70
1
 10
5.893975
 20
7.7275
 10
5.9853
 20
7.71345
 10
5.992325
 20
7.608075
 10
5.978275
 20
7.594025
 10
5.936125
 20
7.6713
 10
5.8729
 20
7.706425
  0
LWPOLYLINE
  5
107
330
17
100
AcDbEntity
  8
A-WALL
100
AcDbPolyline
 90
6
 70
1
 10
5.85885
 20
7.720475
 10
5.8729
 20
7.706425
 10
5.8167
 20
7.678325
 10
5.7886
 20
7.6151
 10
5.7605
 20
7.60105
 10
5.753475
 20
7.71345
  0
LWPOLYLINE
  5
108
330
17
100
AcDbEntity
  8
A-WALL
100
AcDbPolyline
 90
5
 70
1
 10
5.7043
 20
7.7275
 10
5.71835
 20
7.60105
 10
5.655125
 20
7.594025
 10
5.60595
 20
7.650225
 10
5.60595
 20
7.71345
  0
LWPOLYLINE
  5
109
330
17
100
AcDbEntity
  8
A-WALL
100
AcDbPolyline
 90
5
 70
1
 10
5.57785
 20
7.7275
 10
5.5919
 20
7.6432
 10
5.54975
 20
7.594025
 10
5.500575
 20
7.594025
 10
5.486525
 20
7.71345
  0
LWPOLYLINE
  5
10A
330
17
100
AcDbEntity
  8
A-WALL
100
AcDbPolyline
 90
16
 70
1
 10
5.163375
 20
7.762625
 10
5.4233
 20
7.762625
 10
5.43735
 20
7.748575
 10
5.43735
 20
7.439475
 10
5.4233
 20
7.425425
 10
5.339
 20
7.43245
 10
5.339
 20
7.411375
 10
5.4233
 20
7.4184
 10
5.43735
 20
7.40435
 10
5.430325
 20
7.1936
 10
5.15635
 20
7.200625
 10
5.149325
 20
7.397325
 10
5.24065
 20
7.4184
 10
5.24065
 20
7.43245
 10
5.149325
 20
7.4465
 10
5.149325
 20
7.748575
  0
LWPOLYLINE
  5
10B
330
17
100
AcDbEntity
  8
A-WALL
100
AcDbPolyline
 90
6
 70
1
 10
4.5803
 20
7.7556
 10
5.135275
 20
7.762625
 10
5.1423
 20
7.20765
 10
5.12825
 20
7.1936
 10
4.59435
 20
7.1936
 10
4.5803
 20
7.20765
  0
LWPOLYLINE
  5
10C
330
17
100
AcDbEntity
  8
A-WALL
100
AcDbPolyline
 90
18
 70
1
 10
4.769975
 20
7.425425
 10
4.784025
 20
7.4184
 10
4.798075
 20
7.46055
 10
4.840225
 20
7.4184
 10
4.8613
 20
7.425425
 10
4.882375
 20
7.48865
 10
4.8894
 20
7.425425
 10
4.90345
 20
7.425425
 10
4.90345
 20
7.453525
 10
4.938575
 20
7.4746
 10
4.896425
 20
7.48865
 10
4.9456
 20
7.495675
 10
4.9456
 20
7.509725
 10
4.87535
 20
7.5027
 10
4.84725
 20
7.439475
 10
4.826175
 20
7.453525
 10
4.840225
 20
7.495675
 10
4.777
 20
7.509725
  0
LWPOLYLINE
  5
10D
330
17
100
AcDbEntity
  8
A-WALL
100
AcDbPolyline
 90
4
 70
1
 10
4.784025
 20
7.48865
 10
4.8051
 20
7.5027
 10
4.826175
 20
7.4746
 10
4.798075
 20
7.467575
  0
LWPOLYLINE
  5
10E
330
17
100
AcDbEntity
  8
A-WALL
100
AcDbPolyline
 90
8
 70
1
 10
4.151775
 20
7.762625
 10
4.559225
 20
7.762625
 10
4.573275
 20
7.748575
 10
4.559225
 20
7.1936
 10
4.1588
 20
7.1936
 10
4.14475
 20
7.20765
 10
4.151775
 20
7.6994
 10
4.137725
 20
7.748575
  0
LWPOLYLINE
  5
10F
330
17
100
AcDbEntity
  8
A-WALL
100
AcDbPolyline
 90
75
 70
1
 10
2.058325
 20
7.7556
 10
4.1307
 20
7.762625
 10
4.137725
 20
7.17955
 10
5.4514
 20
7.17955
 10
5.46545
 20
7.1936
 10
5.472475
 20
7.17955
 10
6.554325
 20
7.17955
 10
6.568375
 20
7.1655
 10
6.5754
 20
5.093125
 10
8.071725
 20
5.079075
 10
8.113875
 20
5.402225
 10
8.240325
 20
5.641075
 10
8.35975
 20
5.7605
 10
8.47215
 20
5.837775
 10
8.633725
 20
5.901
 10
8.830425
 20
5.191475
 10
8.830425
 20
5.0861
 10
9.041175
 20
5.079075
 10
9.0482
 20
6.2101
 10
10.600725
 20
6.203075
 10
10.600725
 20
4.84725
 10
10.579649999999999
 20
4.826175
 10
10.4813
 20
4.826175
 10
10.32675
 20
4.784025
 10
10.13005
 20
4.671625
 10
10.0317
 20
4.5803
 10
9.93335
 20
4.446825
 10
9.8631
 20
4.292275
 10
9.8631
 20
4.250125
 10
10.586675
 20
4.06045
 10
10.60775
 20
3.934
 10
10.5937
 20
3.91995
 10
8.170075
 20
3.926975
 10
8.141975
 20
3.653
 10
8.05065
 20
3.435225
 10
7.875025
 20
3.238525
 10
7.62915
 20
3.10505
 10
7.594025
 20
3.1191
 10
7.579975
 20
3.224475
 10
7.411375
 20
3.8216
 10
7.411375
 20
3.91995
 10
7.09525
 20
3.926975
 10
7.09525
 20
3.5406
 10
7.0812
 20
3.52655
 10
6.6597
 20
3.533575
 10
6.6597
 20
1.678975
 10
7.0812
 20
1.678975
 10
7.09525
 20
1.664925
 10
7.0882249999999996
 20
1.271525
 10
5.62
 20
1.27855
 10
5.612975
 20
2.1075
 10
5.49355
 20
2.114525
 10
5.4795
 20
2.14965
 10
3.603825
 20
2.14965
 10
3.589775
 20
2.114525
 10
3.47035
 20
2.100475
 10
3.463325
 20
1.27855
 10
2.072375
 20
1.271525
 10
2.058325
 20
1.285575
 10
2.072375
 20
1.538475
 10
2.06535
 20
3.168275
 10
1.967
 20
3.18935
 10
1.524425
 20
3.955075
 10
1.53145
 20
3.97615
 10
1.693025
 20
4.0464
 10
1.833525
 20
4.081525
 10
1.974025
 20
4.08855
 10
1.974025
 20
4.1026
 10
1.847575
 20
4.1026
 10
1.664925
 20
4.151775
 10
1.538475
 20
4.207975
 10
1.524425
 20
4.236075
 10
1.988075
 20
5.01585
 10
2.06535
 20
5.01585
 10
2.072375
 20
7.48865
  0
LWPOLYLINE
  5
110
330
17
100
AcDbEntity
  8
A-WALL
100
AcDbPolyline
 90
4
 70
1
 10
5.823725
 20
2.6414
 10
5.80265
 20
2.634375
 10
5.809675
 20
2.5852
 10
5.83075
 20
2.59925
  0
LWPOLYLINE
  5
111
330
17
100
AcDbEntity
  8
A-WALL
100
AcDbPolyline
 90
17
 70
1
 10
6.05555
 20
2.732725
 10
6.05555
 20
2.620325
 10
6.076625
 20
2.620325
 10
6.076625
 20
2.704625
 10
6.104725
 20
2.7257
 10
6.1258
 20
2.71165
 10
6.1258
 20
2.620325
 10
6.146875
 20
2.620325
 10
6.146875
 20
2.704625
 10
6.174975
 20
2.7257
 10
6.19605
 20
2.71165
 10
6.19605
 20
2.620325
 10
6.217125
 20
2.620325
 10
6.203075
 20
2.732725
 10
6.16795
 20
2.73975
 10
6.146875
 20
2.718675
 10
6.118775
 20
2.73975
  0
LWPOLYLINE
  5
112
330
17
100
AcDbEntity
  8
A-WALL
100
AcDbPolyline
 90
8
 70
1
 10
5.9291
 20
2.7819
 10
5.851825
 20
2.662475
 10
5.91505
 20
2.662475
 10
5.922075
 20
2.620325
 10
5.94315
 20
2.620325
 10
5.964225
 20
2.676525
 10
5.94315
 20
2.68355
 10
5.94315
 20
2.7819
  0
LWPOLYLINE
  5
113
330
17
100
AcDbEntity
  8
A-WALL
100
AcDbPolyline
 90
4
 70
1
 10
5.922075
 20
2.73975
 10
5.9291
 20
2.68355
 10
5.88695
 20
2.6695
 10
5.879925
 20
2.690575
  0
LWPOLYLINE
  5
114
330
17
100
AcDbEntity
  8
A-WALL
100
AcDbPolyline
 90
6
 70
1
 10
5.7324
 20
2.7819
 10
5.683225
 20
2.7257
 10
5.725375
 20
2.732725
 10
5.725375
 20
2.620325
 10
5.74645
 20
2.620325
 10
5.74645
 20
2.7819
  0
LWPOLYLINE
  5
115
330
17
100
AcDbEntity
  8
A-WALL
100
AcDbPolyline
 90
11
 70
1
 10
5.5638
 20
2.774875
 10
5.542725
 20
2.732725
 10
5.5919
 20
2.76785
 10
5.63405
 20
2.732725
 10
5.542725
 20
2.620325
 10
5.655125
 20
2.620325
 10
5.6481
 20
2.6414
 10
5.57785
 20
2.6414
 10
5.63405
 20
2.6976
 10
5.6481
 20
2.7538
 10
5.62
 20
2.7819
  0
LWPOLYLINE
  5
116
330
17
100
AcDbEntity
  8
A-WALL
100
AcDbPolyline
 90
8
 70
1
 10
6.2663
 20
2.788925
 10
6.2382
 20
2.760825
 10
6.273325
 20
2.774875
 10
6.287375
 20
2.7538
 10
6.2382
 20
2.704625
 10
6.301425
 20
2.6976
 10
6.273325
 20
2.718675
 10
6.301425
 20
2.774875
  0
LWPOLYLINE
  5
117
330
17
100
AcDbEntity
  8
A-WALL
100
AcDbPolyline
 90
4
 70
1
 10
5.669175
 20
2.99265
 10
5.66215
 20
2.88025
 10
5.683225
 20
2.88025
 10
5.683225
 20
2.99265
  0
LWPOLYLINE
  5
118
330
17
100
AcDbEntity
  8
A-WALL
100
AcDbPolyline
 90
4
 70
1
 10
5.500575
 20
2.99265
 10
5.500575
 20
2.88025
 10
5.514625
 20
2.88025
 10
5.514625
 20
2.99265
  0
LWPOLYLINE
  5
119
330
17
100
AcDbEntity
  8
A-WALL
100
AcDbPolyline
 90
10
 70
1
 10
6.3787
 20
2.985625
 10
6.3787
 20
2.957525
 10
6.413825
 20
2.985625
 10
6.44895
 20
2.957525
 10
6.385725
 20
2.93645
 10
6.371675
 20
2.8943
 10
6.399775
 20
2.873225
 10
6.470025
 20
2.88025
 10
6.470025
 20
2.9786
 10
6.441925
 20
2.999675
  0
LWPOLYLINE
  5
11A
330
17
100
AcDbEntity
  8
A-WALL
100
AcDbPolyline
 90
4
 70
1
 10
6.455975
 20
2.9224
 10
6.427875
 20
2.8943
 10
6.385725
 20
2.90835
 10
6.427875
 20
2.93645
  0
LWPOLYLINE
  5
11B
330
17
100
AcDbEntity
  8
A-WALL
100
AcDbPolyline
 90
11
 70
1
 10
6.28035
 20
2.999675
 10
6.25225
 20
2.9786
 10
6.2382
 20
2.929425
 10
6.2663
 20
2.88025
 10
6.30845
 20
2.873225
 10
6.343575
 20
2.90835
 10
6.28035
 20
2.8943
 10
6.259275
 20
2.929425
 10
6.33655
 20
2.93645
 10
6.3506
 20
2.957525
 10
6.3225
 20
2.99265
  0
LWPOLYLINE
  5
11C
330
17
100
AcDbEntity
  8
A-WALL
100
AcDbPolyline
 90
4
 70
1
 10
6.2663
 20
2.96455
 10
6.301425
 20
2.985625
 10
6.329525
 20
2.957525
 10
6.273325
 20
2.9505
  0
LWPOLYLINE
  5
11D
330
17
100
AcDbEntity
  8
A-WALL
100
AcDbPolyline
 90
6
 70
1
 10
6.22415
 20
2.999675
 10
6.16795
 20
2.99265
 10
6.174975
 20
2.88025
 10
6.189025
 20
2.88025
 10
6.189025
 20
2.957525
 10
6.231175
 20
2.9786
  0
LWPOLYLINE
  5
11E
330
17
100
AcDbEntity
  8
A-WALL
100
AcDbPolyline
 90
12
 70
1
 10
5.8729
 20
2.999675
 10
5.837775
 20
2.971575
 10
5.837775
 20
2.90835
 10
5.865875
 20
2.88025
 10
5.908025
 20
2.887275
 10
5.91505
 20
2.8662
 10
5.893975
 20
2.845125
 10
5.851825
 20
2.8662
 10
5.837775
 20
2.85215
 10
5.901
 20
2.831075
 10
5.936125
 20
2.8662
 10
5.936125
 20
2.99265
  0
LWPOLYLINE
  5
11F
330
17
100
AcDbEntity
  8
A-WALL
100
AcDbPolyline
 90
5
 70
1
 10
5.879925
 20
2.985625
 10
5.91505
 20
2.96455
 10
5.901
 20
2.8943
 10
5.851825
 20
2.915375
 10
5.851825
 20
2.957525
  0
LWPOLYLINE
  5
120
330
17
100
AcDbEntity
  8
A-WALL
100
AcDbPolyline
 90
9
 70
1
 10
5.71835
 20
2.999675
 10
5.711325
 20
2.887275
 10
5.7324
 20
2.88025
 10
5.7324
 20
2.957525
 10
5.767525
 20
2.985625
 10
5.7886
 20
2.96455
 10
5.7886
 20
2.88025
 10
5.80265
 20
2.88025
 10
5.80265
 20
2.985625
  0
LWPOLYLINE
  5
121
330
17
100
AcDbEntity
  8
A-WALL
100
AcDbPolyline
 90
6
 70
1
 10
5.542725
 20
2.999675
 10
5.5638
 20
2.915375
 10
5.598925
 20
2.88025
 10
5.641075
 20
2.99265
 10
5.62
 20
2.99265
 10
5.5919
 20
2.90835
  0
LWPOLYLINE
  5
122
330
17
100
AcDbEntity
  8
A-WALL
100
AcDbPolyline
 90
7
 70
1
 10
6.0696
 20
3.041825
 10
6.006375
 20
2.88025
 10
6.034475
 20
2.887275
 10
6.048525
 20
2.929425
 10
6.104725
 20
2.929425
 10
6.146875
 20
2.88025
 10
6.0977
 20
3.027775
  0
LWPOLYLINE
  5
123
330
17
100
AcDbEntity
  8
A-WALL
100
AcDbPolyline
 90
4
 70
1
 10
6.076625
 20
3.013725
 10
6.104725
 20
2.96455
 10
6.0977
 20
2.943475
 10
6.048525
 20
2.957525
  0
LWPOLYLINE
  5
124
330
17
100
AcDbEntity
  8
A-WALL
100
AcDbPolyline
 90
6
 70
1
 10
5.374125
 20
3.041825
 10
5.374125
 20
2.887275
 10
5.472475
 20
2.88025
 10
5.46545
 20
2.901325
 10
5.3952
 20
2.90835
 10
5.3952
 20
3.041825
  0
LWPOLYLINE
  5
125
330
17
100
AcDbEntity
  8
A-WALL
100
AcDbPolyline
 90
3
 70
1
 10
5.5076
 20
3.04885
 10
5.49355
 20
3.027775
 10
5.52165
 20
3.02075
  0
LWPOLYLINE
  5
126
330
17
100
AcDbEntity
  8
A-WALL
100
AcDbPolyline
 90
5
 70
1
 10
4.011275
 20
3.210425
 10
4.011275
 20
2.5571
 10
5.149325
 20
2.550075
 10
5.163375
 20
2.564125
 10
5.15635
 20
3.21745
  0
LWPOLYLINE
  5
127
330
17
100
AcDbEntity
  8
A-WALL
100
AcDbPolyline
 90
5
 70
1
 10
4.025325
 20
3.196375
 10
5.135275
 20
3.2034
 10
5.1423
 20
2.57115
 10
4.039375
 20
2.564125
 10
4.025325
 20
2.578175
  0
LWPOLYLINE
  5
128
330
17
100
AcDbEntity
  8
A-WALL
100
AcDbPolyline
 90
14
 70
1
 10
3.140175
 20
3.266625
 10
2.578175
 20
3.013725
 10
2.536025
 20
2.9786
 10
2.5009
 20
2.90835
 10
2.507925
 20
2.817025
 10
2.774875
 20
2.248
 10
2.8381
 20
2.1918
 10
2.8943
 20
2.170725
 10
3.0067
 20
2.198825
 10
3.519525
 20
2.4447
 10
3.477375
 20
2.529
 10
3.5125
 20
2.5852
 10
3.238525
 20
3.168275
 10
3.18935
 20
3.1753
  0
LWPOLYLINE
  5
129
330
17
100
AcDbEntity
  8
A-WALL
100
AcDbPolyline
 90
4
 70
1
 10
3.21745
 20
3.16125
 10
3.491425
 20
2.57115
 10
2.96455
 20
2.3323
 10
2.690575
 20
2.915375
  0
LWPOLYLINE
  5
12A
330
17
100
AcDbEntity
  8
A-WALL
100
AcDbPolyline
 90
15
 70
1
 10
3.126125
 20
3.252575
 10
3.168275
 20
3.1753
 10
3.16125
 20
3.154225
 10
2.71165
 20
2.9505
 10
2.6695
 20
2.915375
 10
2.957525
 20
2.311225
 10
3.4563
 20
2.54305
 10
3.49845
 20
2.451725
 10
2.985625
 20
2.20585
 10
2.873225
 20
2.1918
 10
2.82405
 20
2.2199
 10
2.760825
 20
2.3042
 10
2.536025
 20
2.788925
 10
2.521975
 20
2.915375
 10
2.5852
 20
2.999675
  0
LWPOLYLINE
  5
12B
330
17
100
AcDbEntity
  8
A-WALL
100
AcDbPolyline
 90
6
 70
1
 10
4.65055
 20
4.236075
 10
4.65055
 20
3.49845
 10
5.514625
 20
3.491425
 10
5.528675
 20
3.505475
 10
5.528675
 20
4.22905
 10
5.514625
 20
4.2431
  0
LWPOLYLINE
  5
12C
330
17
100
AcDbEntity
  8
A-WALL
100
AcDbPolyline
 90
7
 70
1
 10
4.6646
 20
4.215
 10
4.67865
 20
4.22905
 10
5.5076
 20
4.222025
 10
5.52165
 20
4.207975
 10
5.52165
 20
3.52655
 10
5.5076
 20
3.5125
 10
4.671625
 20
3.5125
  0
LWPOLYLINE
  5
12D
330
17
100
AcDbEntity
  8
A-WALL
100
AcDbPolyline
 90
6
 70
1
 10
3.716225
 20
4.22905
 10
3.716225
 20
3.505475
 10
3.730275
 20
3.491425
 10
4.59435
 20
3.49845
 10
4.587325
 20
4.2431
 10
3.730275
 20
4.2431
  0
LWPOLYLINE
  5
12E
330
17
100
AcDbEntity
  8
A-WALL
100
AcDbPolyline
 90
6
 70
1
 10
3.730275
 20
4.215
 10
3.744325
 20
4.22905
 10
4.573275
 20
4.222025
 10
4.587325
 20
3.52655
 10
4.573275
 20
3.5125
 10
3.7373
 20
3.5125
  0
LWPOLYLINE
  5
12F
330
17
100
AcDbEntity
  8
A-WALL
100
AcDbPolyline
 90
3
 70
1
 10
9.069275
 20
4.432775
 10
9.055225
 20
4.376575
 10
9.083325
 20
4.390625
  0
LWPOLYLINE
  5
130
330
17
100
AcDbEntity
  8
A-WALL
100
AcDbPolyline
 90
14
 70
1
 10
9.3011
 20
4.517075
 10
9.308125
 20
4.404675
 10
9.3292
 20
4.4117
 10
9.322175
 20
4.488975
 10
9.350275
 20
4.51005
 10
9.378375
 20
4.488975
 10
9.378375
 20
4.404675
 10
9.39945
 20
4.4117
 10
9.392425
 20
4.48195
 10
9.420525
 20
4.51005
 10
9.448625
 20
4.488975
 10
9.448625
 20
4.404675
 10
9.4697
 20
4.4117
 10
9.45565
 20
4.517075
  0
LWPOLYLINE
  5
131
330
17
100
AcDbEntity
  8
A-WALL
100
AcDbPolyline
 90
14
 70
1
 10
9.139525
 20
4.56625
 10
9.111425
 20
4.53815
 10
9.11845
 20
4.517075
 10
9.153575
 20
4.5522
 10
9.17465
 20
4.5522
 10
9.195725
 20
4.517075
 10
9.111425
 20
4.404675
 10
9.209775
 20
4.404675
 10
9.209775
 20
4.42575
 10
9.14655
 20
4.418725
 10
9.139525
 20
4.432775
 10
9.20275
 20
4.488975
 10
9.2168
 20
4.53815
 10
9.1887
 20
4.56625
  0
LWPOLYLINE
  5
132
330
17
100
AcDbEntity
  8
A-WALL
100
AcDbPolyline
 90
13
 70
1
 10
8.999025
 20
4.56625
 10
8.94985
 20
4.56625
 10
8.92175
 20
4.531125
 10
8.92175
 20
4.432775
 10
8.970925
 20
4.39765
 10
9.013075
 20
4.418725
 10
9.027125
 20
4.474925
 10
8.992
 20
4.51005
 10
8.942825
 20
4.496
 10
8.9358
 20
4.517075
 10
8.97795
 20
4.559225
 10
9.013075
 20
4.5241
 10
9.0201
 20
4.545175
  0
LWPOLYLINE
  5
133
330
17
100
AcDbEntity
  8
A-WALL
100
AcDbPolyline
 90
5
 70
1
 10
8.94985
 20
4.488975
 10
8.97795
 20
4.496
 10
9.00605
 20
4.474925
 10
8.984975
 20
4.418725
 10
8.942825
 20
4.4398
  0
LWPOLYLINE
  5
134
330
17
100
AcDbEntity
  8
A-WALL
100
AcDbPolyline
 90
9
 70
1
 10
9.51185
 20
4.573275
 10
9.490775
 20
4.545175
 10
9.5259
 20
4.559225
 10
9.532925
 20
4.53815
 10
9.490775
 20
4.488975
 10
9.546975
 20
4.48195
 10
9.554
 20
4.496
 10
9.518875
 20
4.51005
 10
9.554
 20
4.559225
  0
LWPOLYLINE
  5
135
330
17
100
AcDbEntity
  8
A-WALL
100
AcDbPolyline
 90
9
 70
1
 10
9.532925
 20
4.777
 10
9.518875
 20
4.7489
 10
9.5821
 20
4.769975
 10
9.59615
 20
4.741875
 10
9.5259
 20
4.7208
 10
9.518875
 20
4.67865
 10
9.554
 20
4.657575
 10
9.617225
 20
4.6646
 10
9.6102
 20
4.769975
  0
LWPOLYLINE
  5
136
330
17
100
AcDbEntity
  8
A-WALL
100
AcDbPolyline
 90
4
 70
1
 10
9.603175
 20
4.713775
 10
9.575075
 20
4.67865
 10
9.532925
 20
4.6927
 10
9.5821
 20
4.727825
  0
LWPOLYLINE
  5
137
330
17
100
AcDbEntity
  8
A-WALL
100
AcDbPolyline
 90
12
 70
1
 10
9.1044
 20
4.777
 10
9.1044
 20
4.6646
 10
9.125475
 20
4.671625
 10
9.125475
 20
4.755925
 10
9.1606
 20
4.769975
 10
9.209775
 20
4.67865
 10
9.17465
 20
4.62245
 10
9.209775
 20
4.62245
 10
9.273
 20
4.777
 10
9.251925
 20
4.784025
 10
9.223825
 20
4.699725
 10
9.181675
 20
4.784025
  0
LWPOLYLINE
  5
138
330
17
100
AcDbEntity
  8
A-WALL
100
AcDbPolyline
 90
9
 70
1
 10
8.914725
 20
4.784025
 10
8.9077
 20
4.671625
 10
8.928775
 20
4.6646
 10
8.928775
 20
4.7489
 10
8.9639
 20
4.769975
 10
8.984975
 20
4.7489
 10
8.984975
 20
4.671625
 10
8.999025
 20
4.6646
 10
8.999025
 20
4.769975
  0
LWPOLYLINE
  5
139
330
17
100
AcDbEntity
  8
A-WALL
100
AcDbPolyline
 90
4
 70
1
 10
9.6945
 20
4.826175
 10
9.6945
 20
4.671625
 10
9.715575
 20
4.6646
 10
9.715575
 20
4.826175
  0
LWPOLYLINE
  5
13A
330
17
100
AcDbEntity
  8
A-WALL
100
AcDbPolyline
 90
7
 70
1
 10
9.055225
 20
4.826175
 10
9.027125
 20
4.769975
 10
9.041175
 20
4.67865
 10
9.069275
 20
4.657575
 10
9.055225
 20
4.76295
 10
9.0763
 20
4.777
 10
9.055225
 20
4.79105
  0
LWPOLYLINE
  5
13B
330
17
100
AcDbEntity
  8
A-WALL
100
AcDbPolyline
 90
4
 70
1
 10
9.659375
 20
4.8332
 10
9.645325
 20
4.826175
 10
9.645325
 20
4.6646
 10
9.6664
 20
4.671625
  0
LWPOLYLINE
  5
13C
330
17
100
AcDbEntity
  8
A-WALL
100
AcDbPolyline
 90
12
 70
1
 10
9.364325
 20
4.8332
 10
9.3573
 20
4.671625
 10
9.3854
 20
4.671625
 10
9.3854
 20
4.741875
 10
9.45565
 20
4.741875
 10
9.462675
 20
4.671625
 10
9.48375
 20
4.6646
 10
9.490775
 20
4.81915
 10
9.462675
 20
4.826175
 10
9.45565
 20
4.755925
 10
9.392425
 20
4.755925
 10
9.3854
 20
4.81915
  0
LWPOLYLINE
  5
13D
330
17
100
AcDbEntity
  8
A-WALL
100
AcDbPolyline
 90
13
 70
1
 10
8.872575
 20
4.8332
 10
8.760175
 20
4.826175
 10
8.7672
 20
4.6646
 10
8.8796
 20
4.6646
 10
8.872575
 20
4.685675
 10
8.774225
 20
4.699725
 10
8.788275
 20
4.741875
 10
8.872575
 20
4.741875
 10
8.86555
 20
4.76295
 10
8.788275
 20
4.755925
 10
8.774225
 20
4.798075
 10
8.788275
 20
4.812125
 10
8.872575
 20
4.8051
  0
LWPOLYLINE
  5
13E
330
17
100
AcDbEntity
  8
A-WALL
100
AcDbPolyline
 90
4
 70
1
 10
9.0763
 20
5.63405
 10
10.5656
 20
5.63405
 10
10.572625
 20
5.6481
 10
9.083325
 20
5.6481
  0
LWPOLYLINE
  5
13F
330
17
100
AcDbEntity
  8
A-WALL
100
AcDbPolyline
 90
4
 70
1
 10
5.1985
 20
5.936125
 10
5.191475
 20
5.879925
 10
5.21255
 20
5.879925
 10
5.219575
 20
5.9291
  0
LWPOLYLINE
  5
140
330
17
100
AcDbEntity
  8
A-WALL
100
AcDbPolyline
 90
15
 70
1
 10
5.444375
 20
6.020425
 10
5.444375
 20
5.908025
 10
5.46545
 20
5.908025
 10
5.46545
 20
5.992325
 10
5.486525
 20
6.0134
 10
5.52165
 20
5.992325
 10
5.52165
 20
5.908025
 10
5.5357
 20
5.908025
 10
5.5357
 20
5.992325
 10
5.556775
 20
6.0134
 10
5.5919
 20
5.992325
 10
5.584875
 20
5.908025
 10
5.60595
 20
5.908025
 10
5.60595
 20
6.006375
 10
5.584875
 20
6.02745
  0
LWPOLYLINE
  5
141
330
17
100
AcDbEntity
  8
A-WALL
100
AcDbPolyline
 90
10
 70
1
 10
5.275775
 20
6.0696
 10
5.2547
 20
6.0415
 10
5.275775
 20
5.99935
 10
5.247675
 20
5.94315
 10
5.2828
 20
5.908025
 10
5.32495
 20
5.908025
 10
5.360075
 20
5.94315
 10
5.331975
 20
5.99935
 10
5.346025
 20
6.048525
 10
5.32495
 20
6.0696
  0
LWPOLYLINE
  5
142
330
17
100
AcDbEntity
  8
A-WALL
100
AcDbPolyline
 90
4
 70
1
 10
5.2898249999999996
 20
5.992325
 10
5.339
 20
5.97125
 10
5.317925
 20
5.922075
 10
5.26875
 20
5.94315
  0
LWPOLYLINE
  5
143
330
17
100
AcDbEntity
  8
A-WALL
100
AcDbPolyline
 90
4
 70
1
 10
5.2898249999999996
 20
6.05555
 10
5.331975
 20
6.034475
 10
5.3109
 20
6.006375
 10
5.275775
 20
6.020425
  0
LWPOLYLINE
  5
144
330
17
100
AcDbEntity
  8
A-WALL
100
AcDbPolyline
 90
8
 70
1
 10
5.12825
 20
6.0696
 10
5.050975
 20
5.9572
 10
5.1142
 20
5.950175
 10
5.121225
 20
5.91505
 10
5.1423
 20
5.908025
 10
5.163375
 20
5.964225
 10
5.1423
 20
5.97125
 10
5.1423
 20
6.0696
  0
LWPOLYLINE
  5
145
330
17
100
AcDbEntity
  8
A-WALL
100
AcDbPolyline
 90
4
 70
1
 10
5.121225
 20
6.02745
 10
5.12825
 20
5.97125
 10
5.0861
 20
5.964225
 10
5.079075
 20
5.9853
  0
LWPOLYLINE
  5
146
330
17
100
AcDbEntity
  8
A-WALL
100
AcDbPolyline
 90
7
 70
1
 10
4.994775
 20
6.0696
 10
4.9456
 20
6.0134
 10
4.980725
 20
6.034475
 10
4.994775
 20
6.020425
 10
4.98775
 20
5.908025
 10
5.008825
 20
5.908025
 10
5.008825
 20
6.0696
  0
LWPOLYLINE
  5
147
330
17
100
AcDbEntity
  8
A-WALL
100
AcDbPolyline
 90
9
 70
1
 10
5.63405
 20
6.0696
 10
5.63405
 20
6.048525
 10
5.6762
 20
6.05555
 10
5.63405
 20
5.992325
 10
5.69025
 20
5.9853
 10
5.697275
 20
5.99935
 10
5.66215
 20
6.0134
 10
5.697275
 20
6.05555
 10
5.669175
 20
6.076625
  0
LWPOLYLINE
  5
148
330
17
100
AcDbEntity
  8
A-WALL
100
AcDbPolyline
 90
4
 70
1
 10
5.598925
 20
6.28035
 10
5.598925
 20
6.16795
 10
5.612975
 20
6.16795
 10
5.62
 20
6.273325
  0
LWPOLYLINE
  5
149
330
17
100
AcDbEntity
  8
A-WALL
100
AcDbPolyline
 90
4
 70
1
 10
5.4233
 20
6.28035
 10
5.4233
 20
6.16795
 10
5.43735
 20
6.16795
 10
5.444375
 20
6.28035
  0
LWPOLYLINE
  5
14A
330
17
100
AcDbEntity
  8
A-WALL
100
AcDbPolyline
 90
4
 70
1
 10
4.36955
 20
6.28035
 10
4.36955
 20
6.174975
 10
4.390625
 20
6.16795
 10
4.390625
 20
6.28035
  0
LWPOLYLINE
  5
14B
330
17
100
AcDbEntity
  8
A-WALL
100
AcDbPolyline
 90
9
 70
1
 10
6.3225
 20
6.28035
 10
6.30845
 20
6.25225
 10
6.36465
 20
6.273325
 10
6.385725
 20
6.245225
 10
6.315475
 20
6.22415
 10
6.30845
 20
6.182
 10
6.33655
 20
6.160925
 10
6.4068
 20
6.16795
 10
6.399775
 20
6.273325
  0
LWPOLYLINE
  5
14C
330
17
100
AcDbEntity
  8
A-WALL
100
AcDbPolyline
 90
4
 70
1
 10
6.3225
 20
6.19605
 10
6.33655
 20
6.217125
 10
6.385725
 20
6.217125
 10
6.36465
 20
6.182
  0
LWPOLYLINE
  5
14D
330
17
100
AcDbEntity
  8
A-WALL
100
AcDbPolyline
 90
11
 70
1
 10
6.25225
 20
6.287375
 10
6.217125
 20
6.287375
 10
6.182
 20
6.259275
 10
6.182
 20
6.19605
 10
6.231175
 20
6.160925
 10
6.28035
 20
6.189025
 10
6.2663
 20
6.203075
 10
6.217125
 20
6.182
 10
6.19605
 20
6.203075
 10
6.203075
 20
6.22415
 10
6.287375
 20
6.2382
  0
LWPOLYLINE
  5
14E
330
17
100
AcDbEntity
  8
A-WALL
100
AcDbPolyline
 90
4
 70
1
 10
6.19605
 20
6.25225
 10
6.2382
 20
6.273325
 10
6.2663
 20
6.245225
 10
6.203075
 20
6.2382
  0
LWPOLYLINE
  5
14F
330
17
100
AcDbEntity
  8
A-WALL
100
AcDbPolyline
 90
6
 70
1
 10
6.160925
 20
6.287375
 10
6.104725
 20
6.28035
 10
6.11175
 20
6.16795
 10
6.1258
 20
6.16795
 10
6.1258
 20
6.245225
 10
6.16795
 20
6.273325
  0
LWPOLYLINE
  5
150
330
17
100
AcDbEntity
  8
A-WALL
100
AcDbPolyline
 90
12
 70
1
 10
5.80265
 20
6.287375
 10
5.77455
 20
6.2663
 10
5.767525
 20
6.2101
 10
5.809675
 20
6.16795
 10
5.8448
 20
6.182
 10
5.85885
 20
6.16795
 10
5.837775
 20
6.13985
 10
5.7886
 20
6.1539
 10
5.77455
 20
6.13985
 10
5.837775
 20
6.118775
 10
5.8729
 20
6.160925
 10
5.8729
 20
6.28035
  0
LWPOLYLINE
  5
151
330
17
100
AcDbEntity
  8
A-WALL
100
AcDbPolyline
 90
5
 70
1
 10
5.809675
 20
6.273325
 10
5.851825
 20
6.245225
 10
5.851825
 20
6.203075
 10
5.83075
 20
6.182
 10
5.781575
 20
6.217125
  0
LWPOLYLINE
  5
152
330
17
100
AcDbEntity
  8
A-WALL
100
AcDbPolyline
 90
9
 70
1
 10
5.6481
 20
6.28035
 10
5.6481
 20
6.16795
 10
5.669175
 20
6.16795
 10
5.669175
 20
6.25225
 10
5.69025
 20
6.273325
 10
5.725375
 20
6.25225
 10
5.725375
 20
6.16795
 10
5.739425
 20
6.16795
 10
5.739425
 20
6.273325
  0
LWPOLYLINE
  5
153
330
17
100
AcDbEntity
  8
A-WALL
100
AcDbPolyline
 90
9
 70
1
 10
5.472475
 20
6.28035
 10
5.472475
 20
6.16795
 10
5.49355
 20
6.16795
 10
5.49355
 20
6.25225
 10
5.514625
 20
6.273325
 10
5.54975
 20
6.259275
 10
5.54975
 20
6.16795
 10
5.5638
 20
6.16795
 10
5.5638
 20
6.273325
  0
LWPOLYLINE
  5
154
330
17
100
AcDbEntity
  8
A-WALL
100
AcDbPolyline
 90
10
 70
1
 10
4.84725
 20
6.28035
 10
4.84725
 20
6.174975
 10
4.87535
 20
6.174975
 10
4.868325
 20
6.25225
 10
4.90345
 20
6.273325
 10
4.924525
 20
6.259275
 10
4.924525
 20
6.174975
 10
4.9456
 20
6.16795
 10
4.9456
 20
6.2663
 10
4.924525
 20
6.287375
  0
LWPOLYLINE
  5
155
330
17
100
AcDbEntity
  8
A-WALL
100
AcDbPolyline
 90
10
 70
1
 10
4.755925
 20
6.287375
 10
4.7208
 20
6.25225
 10
4.7208
 20
6.203075
 10
4.777
 20
6.160925
 10
4.81915
 20
6.203075
 10
4.76295
 20
6.182
 10
4.73485
 20
6.217125
 10
4.812125
 20
6.22415
 10
4.826175
 20
6.245225
 10
4.8051
 20
6.28035
  0
LWPOLYLINE
  5
156
330
17
100
AcDbEntity
  8
A-WALL
100
AcDbPolyline
 90
4
 70
1
 10
4.741875
 20
6.259275
 10
4.784025
 20
6.273325
 10
4.8051
 20
6.245225
 10
4.7489
 20
6.2382
  0
LWPOLYLINE
  5
157
330
17
100
AcDbEntity
  8
A-WALL
100
AcDbPolyline
 90
10
 70
1
 10
4.51005
 20
6.287375
 10
4.48195
 20
6.259275
 10
4.48195
 20
6.19605
 10
4.53815
 20
6.160925
 10
4.573275
 20
6.2101
 10
4.517075
 20
6.182
 10
4.496
 20
6.2382
 10
4.5241
 20
6.273325
 10
4.559225
 20
6.25225
 10
4.573275
 20
6.2663
  0
LWPOLYLINE
  5
158
330
17
100
AcDbEntity
  8
A-WALL
100
AcDbPolyline
 90
8
 70
1
 10
4.42575
 20
6.3225
 10
4.4117
 20
6.28035
 10
4.42575
 20
6.174975
 10
4.45385
 20
6.160925
 10
4.4398
 20
6.259275
 10
4.460875
 20
6.28035
 10
4.4398
 20
6.2943999999999996
 10
4.446825
 20
6.3225
  0
LWPOLYLINE
  5
159
330
17
100
AcDbEntity
  8
A-WALL
100
AcDbPolyline
 90
8
 70
1
 10
6.006375
 20
6.329525
 10
5.94315
 20
6.16795
 10
5.964225
 20
6.16795
 10
5.9853
 20
6.217125
 10
6.048525
 20
6.217125
 10
6.062575
 20
6.174975
 10
6.08365
 20
6.16795
 10
6.034475
 20
6.315475
  0
LWPOLYLINE
  5
15A
330
17
100
AcDbEntity
  8
A-WALL
100
AcDbPolyline
 90
4
 70
1
 10
6.0134
 20
6.301425
 10
6.0415
 20
6.25225
 10
6.02745
 20
6.231175
 10
5.9853
 20
6.245225
  0
LWPOLYLINE
  5
15B
330
17
100
AcDbEntity
  8
A-WALL
100
AcDbPolyline
 90
6
 70
1
 10
5.261725
 20
6.329525
 10
5.261725
 20
6.174975
 10
5.360075
 20
6.174975
 10
5.3952
 20
6.231175
 10
5.38115
 20
6.30845
 10
5.35305
 20
6.329525
  0
LWPOLYLINE
  5
15C
330
17
100
AcDbEntity
  8
A-WALL
100
AcDbPolyline
 90
7
 70
1
 10
5.2898249999999996
 20
6.315475
 10
5.35305
 20
6.30845
 10
5.374125
 20
6.28035
 10
5.374125
 20
6.217125
 10
5.346025
 20
6.189025
 10
5.2828
 20
6.189025
 10
5.275775
 20
6.301425
  0
LWPOLYLINE
  5
15D
330
17
100
AcDbEntity
  8
A-WALL
100
AcDbPolyline
 90
3
 70
1
 10
5.60595
 20
6.33655
 10
5.5919
 20
6.315475
 10
5.62
 20
6.30845
  0
LWPOLYLINE
  5
15E
330
17
100
AcDbEntity
  8
A-WALL
100
AcDbPolyline
 90
14
 70
1
 10
5.07205
 20
6.329525
 10
5.058
 20
6.30845
 10
5.07205
 20
6.259275
 10
5.036925
 20
6.22415
 10
5.04395
 20
6.189025
 10
5.07205
 20
6.16795
 10
5.12825
 20
6.189025
 10
5.1704
 20
6.16795
 10
5.149325
 20
6.203075
 10
5.163375
 20
6.2382
 10
5.12825
 20
6.22415
 10
5.107175
 20
6.245225
 10
5.135275
 20
6.287375
 10
5.12825
 20
6.3225
  0
LWPOLYLINE
  5
15F
330
17
100
AcDbEntity
  8
A-WALL
100
AcDbPolyline
 90
4
 70
1
 10
5.079075
 20
6.25225
 10
5.121225
 20
6.2101
 10
5.10015
 20
6.182
 10
5.050975
 20
6.2101
  0
LWPOLYLINE
  5
160
330
17
100
AcDbEntity
  8
A-WALL
100
AcDbPolyline
 90
4
 70
1
 10
5.079075
 20
6.30845
 10
5.107175
 20
6.315475
 10
5.1142
 20
6.287375
 10
5.0861
 20
6.273325
  0
LWPOLYLINE
  5
161
330
17
100
AcDbEntity
  8
A-WALL
100
AcDbPolyline
 90
12
 70
1
 10
4.6084
 20
6.33655
 10
4.59435
 20
6.3225
 10
4.59435
 20
6.174975
 10
4.615425
 20
6.16795
 10
4.615425
 20
6.245225
 10
4.657575
 20
6.273325
 10
4.67865
 20
6.25225
 10
4.671625
 20
6.174975
 10
4.6927
 20
6.16795
 10
4.6927
 20
6.2663
 10
4.671625
 20
6.287375
 10
4.62245
 20
6.273325
  0
LWPOLYLINE
  5
162
330
17
100
AcDbEntity
  8
A-WALL
100
AcDbPolyline
 90
12
 70
1
 10
4.34145
 20
6.33655
 10
4.250125
 20
6.25225
 10
4.236075
 20
6.259275
 10
4.2431
 20
6.3225
 10
4.215
 20
6.3225
 10
4.222025
 20
6.16795
 10
4.2431
 20
6.174975
 10
4.236075
 20
6.22415
 10
4.264175
 20
6.25225
 10
4.31335
 20
6.182
 10
4.348475
 20
6.16795
 10
4.28525
 20
6.259275
  0
LWPOLYLINE
  5
163
330
17
100
AcDbEntity
  8
A-WALL
100
AcDbPolyline
 90
35
 70
1
 10
3.041825
 20
7.383275
 10
3.02075
 20
7.369225
 10
3.0067
 20
7.0812
 10
2.7819
 20
7.074175
 10
2.76785
 20
7.060125
 10
2.774875
 20
6.72995
 10
2.45875
 20
6.6878
 10
2.45875
 20
6.287375
 10
2.774875
 20
6.25225
 10
2.774875
 20
6.0977
 10
2.760825
 20
6.08365
 10
2.45875
 20
6.062575
 10
2.45875
 20
5.66215
 10
2.774875
 20
5.627025
 10
2.76785
 20
5.29685
 10
2.7819
 20
5.2828
 10
3.0067
 20
5.275775
 10
3.02075
 20
4.980725
 10
3.0348
 20
4.966675
 10
3.4282
 20
4.966675
 10
3.449275
 20
5.0299
 10
3.4563
 20
5.26875
 10
3.69515
 20
5.29685
 10
3.688125
 20
5.627025
 10
4.011275
 20
5.66215
 10
4.011275
 20
6.062575
 10
3.688125
 20
6.090675
 10
3.688125
 20
6.25225
 10
3.702175
 20
6.2663
 10
4.011275
 20
6.287375
 10
4.011275
 20
6.6878
 10
3.688125
 20
6.722925
 10
3.69515
 20
7.060125
 10
3.4563
 20
7.0882249999999996
 10
3.435225
 20
7.37625
  0
LWPOLYLINE
  5
164
330
17
100
AcDbEntity
  8
A-WALL
100
AcDbPolyline
 90
5
 70
1
 10
3.0348
 20
5.050975
 10
3.421175
 20
5.058
 10
3.4282
 20
4.994775
 10
3.41415
 20
4.980725
 10
3.04885
 20
4.98775
  0
LWPOLYLINE
  5
165
330
17
100
AcDbEntity
  8
A-WALL
100
AcDbPolyline
 90
4
 70
1
 10
3.02075
 20
5.275775
 10
3.435225
 20
5.2828
 10
3.435225
 20
5.079075
 10
3.041825
 20
5.07205
  0
LWPOLYLINE
  5
166
330
17
100
AcDbEntity
  8
A-WALL
100
AcDbPolyline
 90
6
 70
1
 10
3.934
 20
6.062575
 10
3.997225
 20
6.0415
 10
3.997225
 20
5.6762
 10
3.941025
 20
5.66215
 10
3.91995
 20
5.6762
 10
3.91995
 20
6.048525
  0
LWPOLYLINE
  5
167
330
17
100
AcDbEntity
  8
A-WALL
100
AcDbPolyline
 90
6
 70
1
 10
2.521975
 20
6.062575
 10
2.550075
 20
6.048525
 10
2.550075
 20
5.6762
 10
2.536025
 20
5.66215
 10
2.465775
 20
5.683225
 10
2.465775
 20
6.034475
  0
LWPOLYLINE
  5
168
330
17
100
AcDbEntity
  8
A-WALL
100
AcDbPolyline
 90
5
 70
1
 10
3.69515
 20
6.0696
 10
3.9059
 20
6.05555
 10
3.898875
 20
5.66215
 10
3.7092
 20
5.6481
 10
3.688125
 20
5.66215
  0
LWPOLYLINE
  5
169
330
17
100
AcDbEntity
  8
A-WALL
100
AcDbPolyline
 90
6
 70
1
 10
2.57115
 20
6.062575
 10
2.774875
 20
6.062575
 10
2.774875
 20
5.66215
 10
2.760825
 20
5.6481
 10
2.564125
 20
5.669175
 10
2.5571
 20
6.048525
  0
LWPOLYLINE
  5
16A
330
17
100
AcDbEntity
  8
A-WALL
100
AcDbPolyline
 90
6
 70
1
 10
3.934
 20
6.6878
 10
3.997225
 20
6.67375
 10
3.997225
 20
6.30845
 10
3.983175
 20
6.2943999999999996
 10
3.91995
 20
6.30845
 10
3.91995
 20
6.67375
  0
LWPOLYLINE
  5
16B
330
17
100
AcDbEntity
  8
A-WALL
100
AcDbPolyline
 90
5
 70
1
 10
2.536025
 20
6.6878
 10
2.54305
 20
6.301425
 10
2.48685
 20
6.2943999999999996
 10
2.465775
 20
6.30845
 10
2.465775
 20
6.666725
  0
LWPOLYLINE
  5
16C
330
17
100
AcDbEntity
  8
A-WALL
100
AcDbPolyline
 90
5
 70
1
 10
3.702175
 20
6.70185
 10
3.9059
 20
6.680775
 10
3.898875
 20
6.287375
 10
3.688125
 20
6.287375
 10
3.688125
 20
6.6878
  0
LWPOLYLINE
  5
16D
330
17
100
AcDbEntity
  8
A-WALL
100
AcDbPolyline
 90
6
 70
1
 10
2.760825
 20
6.70185
 10
2.774875
 20
6.6878
 10
2.774875
 20
6.287375
 10
2.7538
 20
6.273325
 10
2.57115
 20
6.287375
 10
2.564125
 20
6.680775
  0
LWPOLYLINE
  5
16E
330
17
100
AcDbEntity
  8
A-WALL
100
AcDbPolyline
 90
6
 70
1
 10
2.79595
 20
7.060125
 10
3.66705
 20
7.060125
 10
3.6811
 20
7.046075
 10
3.6811
 20
5.3109
 10
3.66705
 20
5.29685
 10
2.788925
 20
5.303875
  0
LWPOLYLINE
  5
16F
330
17
100
AcDbEntity
  8
A-WALL
100
AcDbPolyline
 90
4
 70
1
 10
3.0348
 20
7.2779
 10
3.421175
 20
7.284925
 10
3.44225
 20
7.0812
 10
3.027775
 20
7.074175
  0
LWPOLYLINE
  5
170
330
17
100
AcDbEntity
  8
A-WALL
100
AcDbPolyline
 90
5
 70
1
 10
3.0348
 20
7.355175
 10
3.055875
 20
7.369225
 10
3.41415
 20
7.369225
 10
3.4282
 20
7.298975
 10
3.041825
 20
7.29195
  0
LWPOLYLINE
  5
171
330
17
100
AcDbEntity
  8
A-WALL
100
AcDbPolyline
 90
8
 70
1
 10
8.380825
 20
7.79775
 10
8.408925
 20
7.8118
 10
8.984975
 20
7.8118
 10
9.00605
 20
7.790725
 10
9.00605
 20
7.748575
 10
8.992
 20
7.7275
 10
8.9358
 20
7.7837
 10
8.41595
 20
7.7837
  0
LWPOLYLINE
  5
172
330
17
100
AcDbEntity
  8
A-WALL
100
AcDbPolyline
 90
13
 70
1
 10
8.21925
 20
7.804775
 10
8.21925
 20
7.790725
 10
7.82585
 20
7.7837
 10
7.4184
 20
7.790725
 10
7.355175
 20
7.748575
 10
7.34815
 20
5.205525
 10
7.3622
 20
5.1704
 10
7.411375
 20
5.135275
 10
7.397325
 20
5.121225
 10
7.200625
 20
5.121225
 10
7.186575
 20
5.135275
 10
7.186575
 20
7.74155
 10
7.1374
 20
7.804775
  0
LWPOLYLINE
  5
173
330
17
100
AcDbEntity
  8
A-WALL
100
AcDbPolyline
 90
4
 70
1
 10
2.058325
 20
7.8118
 10
2.06535
 20
7.79775
 10
2.0232
 20
7.7556
 10
2.016175
 20
7.79775
  0
ENDSEC
  0
SECTION
  2
OBJECTS
  0
DICTIONARY
  5
A
330
0
100
AcDbDictionary
281
1
  3
ACAD_COLOR
350
B
  3
ACAD_GROUP
350
C
  3
ACAD_LAYOUT
350
D
  3
ACAD_MATERIAL
350
E
  3
ACAD_MLEADERSTYLE
350
F
  3
ACAD_MLINESTYLE
350
10
  3
ACAD_PLOTSETTINGS
350
11
  3
ACAD_PLOTSTYLENAME
350
12
  3
ACAD_SCALELIST
350
14
  3
ACAD_TABLESTYLE
350
15
  3
ACAD_VISUALSTYLE
350
16
  3
EZDXF_META
350
2D
  0
DICTIONARY
  5
B
330
A
100
AcDbDictionary
281
1
  0
DICTIONARY
  5
C
330
A
100
AcDbDictionary
281
1
  0
DICTIONARY
  5
D
330
A
100
AcDbDictionary
281
1
  3
Model
350
1A
  3
Layout1
350
1E
  0
DICTIONARY
  5
E
330
A
100
AcDbDictionary
281
1
  3
ByBlock
350
1F
  3
ByLayer
350
20
  3
Global
350
21
  0
DICTIONARY
  5
F
330
A
100
AcDbDictionary
281
1
  3
Standard
350
2C
  0
DICTIONARY
  5
10
330
A
100
AcDbDictionary
281
1
  3
Standard
350
22
  0
DICTIONARY
  5
11
330
A
100
AcDbDictionary
281
1
  0
ACDBDICTIONARYWDFLT
  5
12
330
A
100
AcDbDictionary
281
1
  3
Normal
350
13
100
AcDbDictionaryWithDefault
340
13
  0
ACDBPLACEHOLDER
  5
13
330
12
  0
DICTIONARY
  5
14
330
A
100
AcDbDictionary
281
1
  0
DICTIONARY
  5
15
330
A
100
AcDbDictionary
281
1
  0
DICTIONARY
  5
16
330
A
100
AcDbDictionary
281
1
  0
LAYOUT
  5
1A
330
D
100
AcDbPlotSettings
  1

  4
A3
  6

 40
7.5
 41
20.0
 42
7.5
 43
20.0
 44
420.0
 45
297.0
 46
0.0
 47
0.0
 48
0.0
 49
0.0
140
0.0
141
0.0
142
1.0
143
1.0
 70
1024
 72
1
 73
0
 74
5
  7

 75
16
 76
0
 77
2
 78
300
147
1.0
148
0.0
149
0.0
100
AcDbLayout
  1
Model
 70
1
 71
0
 10
0.0
 20
0.0
 11
420.0
 21
297.0
 12
0.0
 22
0.0
 32
0.0
 14
1e+20
 24
1e+20
 34
1e+20
 15
-1e+20
 25
-1e+20
 35
-1e+20
146
0.0
 13
0.0
 23
0.0
 33
0.0
 16
1.0
 26
0.0
 36
0.0
 17
0.0
 27
1.0
 37
0.0
 76
1
330
17
  0
LAYOUT
  5
1E
330
D
100
AcDbPlotSettings
  1

  4
A3
  6

 40
7.5
 41
20.0
 42
7.5
 43
20.0
 44
420.0
 45
297.0
 46
0.0
 47
0.0
 48
0.0
 49
0.0
140
0.0
141
0.0
142
1.0
143
1.0
 70
0
 72
1
 73
0
 74
5
  7

 75
16
 76
0
 77
2
 78
300
147
1.0
148
0.0
149
0.0
100
AcDbLayout
  1
Layout1
 70
1
 71
1
 10
0.0
 20
0.0
 11
420.0
 21
297.0
 12
0.0
 22
0.0
 32
0.0
 14
1e+20
 24
1e+20
 34
1e+20
 15
-1e+20
 25
-1e+20
 35
-1e+20
146
0.0
 13
0.0
 23
0.0
 33
0.0
 16
1.0
 26
0.0
 36
0.0
 17
0.0
 27
1.0
 37
0.0
 76
1
330
1B
  0
MATERIAL
  5
1F
102
{ACAD_REACTORS
330
E
102
}
330
E
100
AcDbMaterial
  1
ByBlock
  2

 70
0
 40
1.0
 71
1
 41
1.0
 91
-1023410177
 42
1.0
 72
1
  3

 73
1
 74
1
 75
1
 44
0.5
 73
0
 45
1.0
 46
1.0
 77
1
  4

 78
1
 79
1
170
1
 48
1.0
171
1
  6

172
1
173
1
174
1
140
1.0
141
1.0
175
1
  7

176
1
177
1
178
1
143
1.0
179
1
  8

270
1
271
1
272
1
145
1.0
146
1.0
273
1
  9

274
1
275
1
276
1
 42
1.0
 72
1
  3

 73
1
 74
1
 75
1
 94
63
  0
MATERIAL
  5
20
102
{ACAD_REACTORS
330
E
102
}
330
E
100
AcDbMaterial
  1
ByLayer
  2

 70
0
 40
1.0
 71
1
 41
1.0
 91
-1023410177
 42
1.0
 72
1
  3

 73
1
 74
1
 75
1
 44
0.5
 73
0
 45
1.0
 46
1.0
 77
1
  4

 78
1
 79
1
170
1
 48
1.0
171
1
  6

172
1
173
1
174
1
140
1.0
141
1.0
175
1
  7

176
1
177
1
178
1
143
1.0
179
1
  8

270
1
271
1
272
1
145
1.0
146
1.0
273
1
  9

274
1
275
1
276
1
 42
1.0
 72
1
  3

 73
1
 74
1
 75
1
 94
63
  0
MATERIAL
  5
21
102
{ACAD_REACTORS
330
E
102
}
330
E
100
AcDbMaterial
  1
Global
  2

 70
0
 40
1.0
 71
1
 41
1.0
 91
-1023410177
 42
1.0
 72
1
  3

 73
1
 74
1
 75
1
 44
0.5
 73
0
 45
1.0
 46
1.0
 77
1
  4

 78
1
 79
1
170
1
 48
1.0
171
1
  6

172
1
173
1
174
1
140
1.0
141
1.0
175
1
  7

176
1
177
1
178
1
143
1.0
179
1
  8

270
1
271
1
272
1
145
1.0
146
1.0
273
1
  9

274
1
275
1
276
1
 42
1.0
 72
1
  3

 73
1
 74
1
 75
1
 94
63
  0
MLINESTYLE
  5
22
102
{ACAD_REACTORS
330
10
102
}
330
10
100
AcDbMlineStyle
  2
Standard
 70
0
  3

 62
256
 51
90.0
 52
90.0
 71
2
 49
0.5
 62
256
  6
BYLAYER
 49
-0.5
 62
256
  6
BYLAYER
  0
MLEADERSTYLE
  5
2C
102
{ACAD_REACTORS
330
F
102
}
330
F
100
AcDbMLeaderStyle
179
2
170
2
171
1
172
0
 90
2
 40
0.0
 41
0.0
173
1
 91
-1056964608
 92
-2
290
1
 42
2.0
291
1
 43
8.0
  3
Standard
 44
4.0
300

342
29
174
1
175
1
176
0
178
1
 93
-1056964608
 45
4.0
292
0
297
0
 46
4.0
 94
-1056964608
 47
1.0
 49
1.0
140
1.0
294
1
141
0.0
177
0
142
1.0
295
0
296
0
143
3.75
271
0
272
9
273
9
  0
DICTIONARY
  5
2D
330
A
100
AcDbDictionary
280
1
281
1
  3
CREATED_BY_EZDXF
350
2E
  3
WRITTEN_BY_EZDXF
350
176
  0
DICTIONARYVAR
  5
2E
330
2D
100
DictionaryVariables
280
0
  1
1.4.4 @ 2026-08-23T13:42:20.066716+00:00
  0
DICTIONARYVAR
  5
176
330
2D
100
DictionaryVariables
280
0
  1
1.4.4 @ 2026-08-23T13:42:20.075895+00:00
  0
ENDSEC
  0
EOF
