  0
SECTION
  2
HEADER
  9
$ACADVER
  1
AC1024
  9
$ACADMAINTVER
 70
6
  9
$DWGCODEPAGE
  3
ANSI_1252
  9
$LASTSAVEDBY
  1
ezdxf
  9
$INSBASE
 10
0.0
 20
0.0
 30
0.0
  9
$EXTMIN
 10
1e+20
 20
1e+20
 30
1e+20
  9
$EXTMAX
 10
-1e+20
 20
-1e+20
 30
-1e+20
  9
$LIMMIN
 10
0.0
 20
0.0
  9
$LIMMAX
 10
420.0
 20
297.0
  9
$ORTHOMODE
 70
0
  9
$REGENMODE
 70
1
  9
$FILLMODE
 70
1
  9
$QTEXTMODE
 70
0
  9
$MIRRTEXT
 70
1
  9
$LTSCALE
 40
1.0
  9
$ATTMODE
 70
1
  9
$TEXTSIZE
 40
2.5
  9
$TRACEWID
 40
1.0
  9
$TEXTSTYLE
  7
Standard
  9
$CLAYER
  8
0
  9
$CELTYPE
  6
ByLayer
  9
$CECOLOR
 62
256
  9
$CELTSCALE
 40
1.0
  9
$DISPSILH
 70
0
  9
$DIMSCALE
 40
1.0
  9
$DIMASZ
 40
2.5
  9
$DIMEXO
 40
0.625
  9
$DIMDLI
 40
3.75
  9
$DIMRND
 40
0.0
  9
$DIMDLE
 40
0.0
  9
$DIMEXE
 40
1.25
  9
$DIMTP
 40
0.0
  9
$DIMTM
 40
0.0
  9
$DIMTXT
 40
2.5
  9
$DIMCEN
 40
2.5
  9
$DIMTSZ
 40
0.0
  9
$DIMTOL
 70
0
  9
$DIMLIM
 70
0
  9
$DIMTIH
 70
0
  9
$DIMTOH
 70
0
  9
$DIMSE1
 70
0
  9
$DIMSE2
 70
0
  9
$DIMTAD
 70
1
  9
$DIMZIN
 70
8
  9
$DIMBLK
  1

  9
$DIMASO
 70
1
  9
$DIMSHO
 70
1
  9
$DIMPOST
  1

  9
$DIMAPOST
  1

  9
$DIMALT
 70
0
  9
$DIMALTD
 70
3
  9
$DIMALTF
 40
0.03937007874
  9
$DIMLFAC
 40
1.0
  9
$DIMTOFL
 70
1
  9
$DIMTVP
 40
0.0
  9
$DIMTIX
 70
0
  9
$DIMSOXD
 70
0
  9
$DIMSAH
 70
0
  9
$DIMBLK1
  1

  9
$DIMBLK2
  1

  9
$DIMSTYLE
  2
ISO-25
  9
$DIMCLRD
 70
0
  9
$DIMCLRE
 70
0
  9
$DIMCLRT
 70
0
  9
$DIMTFAC
 40
1.0
  9
$DIMGAP
 40
0.625
  9
$DIMJUST
 70
0
  9
$DIMSD1
 70
0
  9
$DIMSD2
 70
0
  9
$DIMTOLJ
 70
0
  9
$DIMTZIN
 70
8
  9
$DIMALTZ
 70
0
  9
$DIMALTTZ
 70
0
  9
$DIMUPT
 70
0
  9
$DIMDEC
 70
2
  9
$DIMTDEC
 70
2
  9
$DIMALTU
 70
2
  9
$DIMALTTD
 70
3
  9
$DIMTXSTY
  7
Standard
  9
$DIMAUNIT
 70
0
  9
$DIMADEC
 70
0
  9
$DIMALTRND
 40
0.0
  9
$DIMAZIN
 70
0
  9
$DIMDSEP
 70
44
  9
$DIMATFIT
 70
3
  9
$DIMFRAC
 70
0
  9
$DIMLDRBLK
  1

  9
$DIMLUNIT
 70
2
  9
$DIMLWD
 70
-2
  9
$DIMLWE
 70
-2
  9
$DIMTMOVE
 70
0
  9
$DIMFXL
 40
1.0
  9
$DIMFXLON
 70
0
  9
$DIMJOGANG
 40
0.785398163397
  9
$DIMTFILL
 70
0
  9
$DIMTFILLCLR
 70
0
  9
$DIMARCSYM
 70
0
  9
$DIMLTYPE
  6

  9
$DIMLTEX1
  6

  9
$DIMLTEX2
  6

  9
$DIMTXTDIRECTION
 70
0
  9
$LUNITS
 70
2
  9
$LUPREC
 70
4
  9
$SKETCHINC
 40
1.0
  9
$FILLETRAD
 40
10.0
  9
$AUNITS
 70
0
  9
$AUPREC
 70
2
  9
$MENU
  1
.
  9
$ELEVATION
 40
0.0
  9
$PELEVATION
 40
0.0
  9
$THICKNESS
 40
0.0
  9
$LIMCHECK
 70
0
  9
$CHAMFERA
 40
0.0
  9
$CHAMFERB
 40
0.0
  9
$CHAMFERC
 40
0.0
  9
$CHAMFERD
 40
0.0
  9
$SKPOLY
 70
0
  9
$TDCREATE
 40
2461276.7009027777
  9
$TDUCREATE
 40
2458532.153996898
  9
$TDUPDATE
 40
2461276.7009027777
  9
$TDUUPDATE
 40
2458532.1544311
  9
$TDINDWG
 40
0.0
  9
$TDUSRTIMER
 40
0.0
  9
$USRTIMER
 70
1
  9
$ANGBASE
 50
0.0
  9
$ANGDIR
 70
0
  9
$PDMODE
 70
0
  9
$PDSIZE
 40
0.0
  9
$PLINEWID
 40
0.0
  9
$SPLFRAME
 70
0
  9
$SPLINETYPE
 70
6
  9
$SPLINESEGS
 70
8
  9
$HANDSEED
  5
127
  9
$SURFTAB1
 70
6
  9
$SURFTAB2
 70
6
  9
$SURFTYPE
 70
6
  9
$SURFU
 70
6
  9
$SURFV
 70
6
  9
$UCSBASE
  2

  9
$UCSNAME
  2

  9
$UCSORG
 10
0.0
 20
0.0
 30
0.0
  9
$UCSXDIR
 10
1.0
 20
0.0
 30
0.0
  9
$UCSYDIR
 10
0.0
 20
1.0
 30
0.0
  9
$UCSORTHOREF
  2

  9
$UCSORTHOVIEW
 70
0
  9
$UCSORGTOP
 10
0.0
 20
0.0
 30
0.0
  9
$UCSORGBOTTOM
 10
0.0
 20
0.0
 30
0.0
  9
$UCSORGLEFT
 10
0.0
 20
0.0
 30
0.0
  9
$UCSORGRIGHT
 10
0.0
 20
0.0
 30
0.0
  9
$UCSORGFRONT
 10
0.0
 20
0.0
 30
0.0
  9
$UCSORGBACK
 10
0.0
 20
0.0
 30
0.0
  9
$PUCSBASE
  2

  9
$PUCSNAME
  2

  9
$PUCSORG
 10
0.0
 20
0.0
 30
0.0
  9
$PUCSXDIR
 10
1.0
 20
0.0
 30
0.0
  9
$PUCSYDIR
 10
0.0
 20
1.0
 30
0.0
  9
$PUCSORTHOREF
  2

  9
$PUCSORTHOVIEW
 70
0
  9
$PUCSORGTOP
 10
0.0
 20
0.0
 30
0.0
  9
$PUCSORGBOTTOM
 10
0.0
 20
0.0
 30
0.0
  9
$PUCSORGLEFT
 10
0.0
 20
0.0
 30
0.0
  9
$PUCSORGRIGHT
 10
0.0
 20
0.0
 30
0.0
  9
$PUCSORGFRONT
 10
0.0
 20
0.0
 30
0.0
  9
$PUCSORGBACK
 10
0.0
 20
0.0
 30
0.0
  9
$USERI1
 70
0
  9
$USERI2
 70
0
  9
$USERI3
 70
0
  9
$USERI4
 70
0
  9
$USERI5
 70
0
  9
$USERR1
 40
0.0
  9
$USERR2
 40
0.0
  9
$USERR3
 40
0.0
  9
$USERR4
 40
0.0
  9
$USERR5
 40
0.0
  9
$WORLDVIEW
 70
1
  9
$SHADEDGE
 70
3
  9
$SHADEDIF
 70
70
  9
$TILEMODE
 70
1
  9
$MAXACTVP
 70
64
  9
$PINSBASE
 10
0.0
 20
0.0
 30
0.0
  9
$PLIMCHECK
 70
0
  9
$PEXTMIN
 10
1e+20
 20
1e+20
 30
1e+20
  9
$PEXTMAX
 10
-1e+20
 20
-1e+20
 30
-1e+20
  9
$PLIMMIN
 10
0.0
 20
0.0
  9
$PLIMMAX
 10
420.0
 20
297.0
  9
$UNITMODE
 70
0
  9
$VISRETAIN
 70
1
  9
$PLINEGEN
 70
0
  9
$PSLTSCALE
 70
1
  9
$TREEDEPTH
 70
3020
  9
$CMLSTYLE
  2
Standard
  9
$CMLJUST
 70
0
  9
$CMLSCALE
 40
20.0
  9
$PROXYGRAPHICS
 70
1
  9
$MEASUREMENT
 70
1
  9
$CELWEIGHT
370
-1
  9
$ENDCAPS
280
0
  9
$JOINSTYLE
280
0
  9
$LWDISPLAY
290
0
  9
$INSUNITS
 70
6
  9
$HYPERLINKBASE
  1

  9
$STYLESHEET
  1

  9
$XEDIT
290
1
  9
$CEPSNTYPE
380
0
  9
$PSTYLEMODE
290
1
  9
$FINGERPRINTGUID
  2
{71A027C4-E615-4C02-A86C-B6C82DA060AC}
  9
$VERSIONGUID
  2
{EA20CC60-741B-4EA8-BC26-4B587B06B221}
  9
$EXTNAMES
290
1
  9
$PSVPSCALE
 40
0.0
  9
$OLESTARTUP
290
0
  9
$SORTENTS
280
127
  9
$INDEXCTL
280
0
  9
$HIDETEXT
280
1
  9
$XCLIPFRAME
280
1
  9
$HALOGAP
280
0
  9
$OBSCOLOR
 70
257
  9
$OBSLTYPE
280
0
  9
$INTERSECTIONDISPLAY
280
0
  9
$INTERSECTIONCOLOR
 70
257
  9
$DIMASSOC
280
2
  9
$PROJECTNAME
  1

  9
$CAMERADISPLAY
290
0
  9
$LENSLENGTH
 40
50.0
  9
$CAMERAHEIGHT
 40
0.0
  9
$STEPSPERSEC
 40
24.0
  9
$STEPSIZE
 40
100.0
  9
$3DDWFPREC
 40
2.0
  9
$PSOLWIDTH
 40
0.005
  9
$PSOLHEIGHT
 40
0.08
  9
$LOFTANG1
 40
1.570796326795
  9
$LOFTANG2
 40
1.570796326795
  9
$LOFTMAG1
 40
0.0
  9
$LOFTMAG2
 40
0.0
  9
$LOFTPARAM
 70
7
  9
$LOFTNORMALS
280
1
  9
$LATITUDE
 40
37.795
  9
$LONGITUDE
 40
-122.394
  9
$NORTHDIRECTION
 40
0.0
  9
$TIMEZONE
 70
-8000
  9
$LIGHTGLYPHDISPLAY
280
1
  9
$TILEMODELIGHTSYNCH
280
1
  9
$CMATERIAL
347
20
  9
$SOLIDHIST
280
0
  9
$SHOWHIST
280
1
  9
$DWFFRAME
280
2
  9
$DGNFRAME
280
2
  9
$REALWORLDSCALE
290
1
  9
$INTERFERECOLOR
 62
256
  9
$CSHADOW
280
0
  9
$SHADOWPLANELOCATION
 40
0.0
  0
ENDSEC
  0
SECTION
  2
CLASSES
  0
CLASS
  1
ACDBDICTIONARYWDFLT
  2
AcDbDictionaryWithDefault
  3
ObjectDBX Classes
 90
0
 91
0
280
0
281
0
  0
CLASS
  1
SUN
  2
AcDbSun
  3
SCENEOE
 90
1153
 91
0
280
0
281
0
  0
CLASS
  1
VISUALSTYLE
  2
AcDbVisualStyle
  3
ObjectDBX Classes
 90
4095
 91
0
280
0
281
0
  0
CLASS
  1
MATERIAL
  2
AcDbMaterial
  3
ObjectDBX Classes
 90
1153
 91
0
280
0
281
0
  0
CLASS
  1
SCALE
  2
AcDbScale
  3
ObjectDBX Classes
 90
1153
 91
0
280
0
281
0
  0
CLASS
  1
TABLESTYLE
  2
AcDbTableStyle
  3
ObjectDBX Classes
 90
4095
 91
0
280
0
281
0
  0
CLASS
  1
MLEADERSTYLE
  2
AcDbMLeaderStyle
  3
ACDB_MLEADERSTYLE_CLASS
 90
4095
 91
0
280
0
281
0
  0
CLASS
  1
DICTIONARYVAR
  2
AcDbDictionaryVar
  3
ObjectDBX Classes
 90
0
 91
0
280
0
281
0
  0
CLASS
  1
CELLSTYLEMAP
  2
AcDbCellStyleMap
  3
ObjectDBX Classes
 90
1152
 91
0
280
0
281
0
  0
CLASS
  1
MENTALRAYRENDERSETTINGS
  2
AcDbMentalRayRenderSettings
  3
SCENEOE
 90
1024
 91
0
280
0
281
0
  0
CLASS
  1
ACDBDETAILVIEWSTYLE
  2
AcDbDetailViewStyle
  3
ObjectDBX Classes
 90
1025
 91
0
280
0
281
0
  0
CLASS
  1
ACDBSECTIONVIEWSTYLE
  2
AcDbSectionViewStyle
  3
ObjectDBX Classes
 90
1025
 91
0
280
0
281
0
  0
CLASS
  1
RASTERVARIABLES
  2
AcDbRasterVariables
  3
ISM
 90
0
 91
0
280
0
281
0
  0
CLASS
  1
ACDBPLACEHOLDER
  2
AcDbPlaceHolder
  3
ObjectDBX Classes
 90
0
 91
0
280
0
281
0
  0
CLASS
  1
LAYOUT
  2
AcDbLayout
  3
ObjectDBX Classes
 90
0
 91
0
280
0
281
0
  0
ENDSEC
  0
SECTION
  2
TABLES
  0
TABLE
  2
VPORT
  5
8
330
0
100
AcDbSymbolTable
 70
1
  0
VPORT
  5
23
330
8
100
AcDbSymbolTableRecord
100
AcDbViewportTableRecord
  2
*Active
 70
0
 10
0.0
 20
0.0
 11
1.0
 21
1.0
 12
0.0
 22
0.0
 13
0.0
 23
0.0
 14
0.5
 24
0.5
 15
0.5
 25
0.5
 16
0.0
 26
0.0
 36
1.0
 17
0.0
 27
0.0
 37
0.0
 40
1000.0
 41
1.34
 42
50.0
 43
0.0
 44
0.0
 50
0.0
 51
0.0
 71
0
 72
1000
 73
1
 74
3
 75
0
 76
0
 77
0
 78
0
281
0
 65
0
146
0.0
  0
ENDTAB
  0
TABLE
  2
LTYPE
  5
2
330
0
100
AcDbSymbolTable
 70
3
  0
LTYPE
  5
24
330
2
100
AcDbSymbolTableRecord
100
AcDbLinetypeTableRecord
  2
ByBlock
 70
0
  3

 72
65
 73
0
 40
0.0
  0
LTYPE
  5
25
330
2
100
AcDbSymbolTableRecord
100
AcDbLinetypeTableRecord
  2
ByLayer
 70
0
  3

 72
65
 73
0
 40
0.0
  0
LTYPE
  5
26
330
2
100
AcDbSymbolTableRecord
100
AcDbLinetypeTableRecord
  2
Continuous
 70
0
  3

 72
65
 73
0
 40
0.0
  0
ENDTAB
  0
TABLE
  2
LAYER
  5
1
330
0
100
AcDbSymbolTable
 70
6
  0
LAYER
  5
27
330
1
100
AcDbSymbolTableRecord
100
AcDbLayerTableRecord
  2
0
 70
0
 62
7
  6
Continuous
370
-3
390
13
347
21
  0
LAYER
  5
28
330
1
100
AcDbSymbolTableRecord
100
AcDbLayerTableRecord
  2
Defpoints
 70
0
 62
7
  6
Continuous
290
0
370
-3
390
13
347
21
  0
LAYER
  5
2F
330
1
100
AcDbSymbolTableRecord
100
AcDbLayerTableRecord
  2
A-WALL
 70
0
 62
7
  6
Continuous
370
-3
390
13
347
21
  0
LAYER
  5
30
330
1
100
AcDbSymbolTableRecord
100
AcDbLayerTableRecord
  2
A-CENTERLINE
 70
0
 62
3
  6
Continuous
370
-3
390
13
347
21
  0
LAYER
  5
31
330
1
100
AcDbSymbolTableRecord
100
AcDbLayerTableRecord
  2
A-DIMS
 70
0
 62
1
  6
Continuous
370
-3
390
13
347
21
  0
LAYER
  5
32
330
1
100
AcDbSymbolTableRecord
100
AcDbLayerTableRecord
  2
A-ANNO
 70
0
 62
6
  6
Continuous
370
-3
390
13
347
21
  0
ENDTAB
  0
TABLE
  2
STYLE
  5
5
330
0
100
AcDbSymbolTable
 70
1
  0
STYLE
  5
29
330
5
100
AcDbSymbolTableRecord
100
AcDbTextStyleTableRecord
  2
Standard
 70
0
 40
0.0
 41
1.0
 50
0.0
 71
0
 42
2.5
  3
txt
  4

  0
ENDTAB
  0
TABLE
  2
VIEW
  5
7
330
0
100
AcDbSymbolTable
 70
0
  0
ENDTAB
  0
TABLE
  2
UCS
  5
6
330
0
100
AcDbSymbolTable
 70
0
  0
ENDTAB
  0
TABLE
  2
APPID
  5
3
330
0
100
AcDbSymbolTable
 70
3
  0
APPID
  5
2A
330
3
100
AcDbSymbolTableRecord
100
AcDbRegAppTableRecord
  2
ACAD
 70
0
  0
APPID
  5
124
330
3
100
AcDbSymbolTableRecord
100
AcDbRegAppTableRecord
  2
HATCHBACKGROUNDCOLOR
 70
0
  0
APPID
  5
125
330
3
100
AcDbSymbolTableRecord
100
AcDbRegAppTableRecord
  2
EZDXF
 70
0
  0
ENDTAB
  0
TABLE
  2
DIMSTYLE
  5
4
330
0
100
AcDbSymbolTable
 70
1
100
AcDbDimStyleTable
  0
DIMSTYLE
105
2B
330
4
100
AcDbSymbolTableRecord
100
AcDbDimStyleTableRecord
  2
Standard
 70
0
 40
1.0
 41
2.5
 42
0.625
 43
3.75
 44
1.25
 45
0.0
 46
0.0
 47
0.0
 48
0.0
 49
2.5
140
2.5
141
2.5
142
0.0
143
0.03937007874
144
1.0
145
0.0
146
1.0
147
0.625
148
0.0
 69
0
 70
0
 71
0
 72
0
 73
0
 74
0
 75
0
 76
0
 77
1
 78
8
 79
3
170
0
171
3
172
1
173
0
174
0
175
0
176
0
177
0
178
0
179
2
271
2
272
2
273
2
274
3
275
0
276
0
277
2
278
44
279
0
280
0
281
0
282
0
283
0
284
8
285
0
286
0
288
0
289
3
290
0
371
-2
372
-2
  0
ENDTAB
  0
TABLE
  2
BLOCK_RECORD
  5
9
330
0
100
AcDbSymbolTable
 70
2
  0
BLOCK_RECORD
  5
17
330
9
100
AcDbSymbolTableRecord
100
AcDbBlockTableRecord
  2
*Model_Space
340
1A
 70
0
280
1
281
0
  0
BLOCK_RECORD
  5
1B
330
9
100
AcDbSymbolTableRecord
100
AcDbBlockTableRecord
  2
*Paper_Space
340
1E
 70
0
280
1
281
0
  0
ENDTAB
  0
ENDSEC
  0
SECTION
  2
BLOCKS
  0
BLOCK
  5
18
330
17
100
AcDbEntity
  8
0
100
AcDbBlockBegin
  2
*Model_Space
 70
0
 10
0.0
 20
0.0
 30
0.0
  3
*Model_Space
  1

  0
ENDBLK
  5
19
330
17
100
AcDbEntity
  8
0
100
AcDbBlockEnd
  0
BLOCK
  5
1C
330
1B
100
AcDbEntity
  8
0
100
AcDbBlockBegin
  2
*Paper_Space
 70
0
 10
0.0
 20
0.0
 30
0.0
  3
*Paper_Space
  1

  0
ENDBLK
  5
1D
330
1B
100
AcDbEntity
  8
0
100
AcDbBlockEnd
  0
ENDSEC
  0
SECTION
  2
ENTITIES
  0
LWPOLYLINE
  5
33
330
17
100
AcDbEntity
  8
A-WALL
100
AcDbPolyline
 90
3
 70
1
 10
12.15
 20
0.8763157894736843
 10
12.110526315789475
 20
0.8921052631578947
 10
10.8
 20
0.8763157894736843
  0
LWPOLYLINE
  5
34
330
17
100
AcDbEntity
  8
A-WALL
100
AcDbPolyline
 90
4
 70
1
 10
2.6052631578947367
 20
0.9157894736842106
 10
2.6052631578947367
 20
0.8921052631578947
 10
4.042105263157895
 20
0.8921052631578947
 10
4.042105263157895
 20
0.9157894736842106
  0
LWPOLYLINE
  5
35
330
17
100
AcDbEntity
  8
A-WALL
100
AcDbPolyline
 90
4
 70
1
 10
5.976315789473684
 20
0.9157894736842106
 10
5.98421052631579
 20
0.8921052631578947
 10
7.421052631578948
 20
0.8921052631578947
 10
7.436842105263158
 20
0.9078947368421053
  0
LWPOLYLINE
  5
36
330
17
100
AcDbEntity
  8
A-WALL
100
AcDbPolyline
 90
5
 70
1
 10
5.9605263157894735
 20
0.9947368421052631
 10
5.992105263157895
 20
0.9710526315789474
 10
7.413157894736842
 20
0.9710526315789474
 10
7.4447368421052635
 20
0.986842105263158
 10
7.436842105263158
 20
1.0026315789473685
  0
LWPOLYLINE
  5
37
330
17
100
AcDbEntity
  8
A-WALL
100
AcDbPolyline
 90
5
 70
1
 10
2.5894736842105264
 20
0.9947368421052631
 10
2.613157894736842
 20
0.9710526315789474
 10
4.042105263157895
 20
0.9710526315789474
 10
4.065789473684211
 20
0.986842105263158
 10
4.05
 20
1.0026315789473685
  0
LWPOLYLINE
  5
38
330
17
100
AcDbEntity
  8
A-WALL
100
AcDbPolyline
 90
4
 70
1
 10
10.263157894736842
 20
1.1447368421052633
 10
10.23157894736842
 20
1.1368421052631579
 10
10.271052631578948
 20
1.0421052631578949
 10
10.310526315789474
 20
1.1289473684210527
  0
LWPOLYLINE
  5
39
330
17
100
AcDbEntity
  8
A-WALL
100
AcDbPolyline
 90
4
 70
1
 10
2.707894736842105
 20
1.2789473684210526
 10
2.7157894736842105
 20
1.2552631578947369
 10
3.15
 20
1.263157894736842
 10
3.142105263157895
 20
1.2789473684210526
  0
LWPOLYLINE
  5
3A
330
17
100
AcDbEntity
  8
A-WALL
100
AcDbPolyline
 90
4
 70
1
 10
10.302631578947368
 20
1.286842105263158
 10
10.302631578947368
 20
1.263157894736842
 10
10.389473684210527
 20
1.263157894736842
 10
10.389473684210527
 20
1.286842105263158
  0
LWPOLYLINE
  5
3B
330
17
100
AcDbEntity
  8
A-WALL
100
AcDbPolyline
 90
4
 70
1
 10
8.463157894736842
 20
1.2789473684210526
 10
8.50263157894737
 20
1.263157894736842
 10
10.23157894736842
 20
1.263157894736842
 10
10.23157894736842
 20
1.286842105263158
  0
LWPOLYLINE
  5
3C
330
17
100
AcDbEntity
  8
A-WALL
100
AcDbPolyline
 90
4
 70
1
 10
6.0473684210526315
 20
1.286842105263158
 10
6.0473684210526315
 20
1.2710526315789474
 10
7.981578947368421
 20
1.2710526315789474
 10
7.973684210526316
 20
1.286842105263158
  0
LWPOLYLINE
  5
3D
330
17
100
AcDbEntity
  8
A-WALL
100
AcDbPolyline
 90
5
 70
1
 10
3.5210526315789474
 20
1.2789473684210526
 10
3.528947368421053
 20
1.2552631578947369
 10
3.955263157894737
 20
1.2552631578947369
 10
3.963157894736842
 20
1.2710526315789474
 10
3.923684210526316
 20
1.286842105263158
  0
LWPOLYLINE
  5
3E
330
17
100
AcDbEntity
  8
A-WALL
100
AcDbPolyline
 90
4
 70
1
 10
3.9947368421052634
 20
1.2947368421052632
 10
4.010526315789474
 20
1.223684210526316
 10
4.089473684210526
 20
1.263157894736842
 10
4.018421052631579
 20
1.3105263157894738
  0
LWPOLYLINE
  5
3F
330
17
100
AcDbEntity
  8
A-WALL
100
AcDbPolyline
 90
4
 70
1
 10
2.581578947368421
 20
1.2789473684210526
 10
2.581578947368421
 20
1.2552631578947369
 10
2.668421052631579
 20
1.231578947368421
 10
2.6605263157894736
 20
1.3105263157894738
  0
LWPOLYLINE
  5
40
330
17
100
AcDbEntity
  8
A-WALL
100
AcDbPolyline
 90
4
 70
1
 10
5.921052631578948
 20
1.286842105263158
 10
5.98421052631579
 20
1.2394736842105263
 10
6.015789473684211
 20
1.2552631578947369
 10
6.007894736842106
 20
1.318421052631579
  0
LWPOLYLINE
  5
41
330
17
100
AcDbEntity
  8
A-WALL
100
AcDbPolyline
 90
4
 70
1
 10
10.436842105263159
 20
1.318421052631579
 10
10.444736842105263
 20
1.2394736842105263
 10
10.531578947368422
 20
1.2710526315789474
 10
10.523684210526316
 20
1.2947368421052632
  0
LWPOLYLINE
  5
42
330
17
100
AcDbEntity
  8
A-WALL
100
AcDbPolyline
 90
6
 70
1
 10
3.442105263157895
 20
1.3578947368421053
 10
3.4342105263157894
 20
1.3105263157894738
 10
3.4578947368421056
 20
1.318421052631579
 10
3.4815789473684213
 20
1.2947368421052632
 10
3.4815789473684213
 20
1.3578947368421053
 10
3.4578947368421056
 20
1.3342105263157895
  0
LWPOLYLINE
  5
43
330
17
100
AcDbEntity
  8
A-WALL
100
AcDbPolyline
 90
11
 70
1
 10
3.2842105263157895
 20
1.3578947368421053
 10
3.2763157894736845
 20
1.318421052631579
 10
3.3394736842105264
 20
1.2552631578947369
 10
3.3947368421052633
 20
1.2394736842105263
 10
3.386842105263158
 20
1.223684210526316
 10
3.3157894736842106
 20
1.231578947368421
 10
3.323684210526316
 20
1.2078947368421054
 10
3.4026315789473687
 20
1.2078947368421054
 10
3.4105263157894736
 20
1.3263157894736843
 10
3.363157894736842
 20
1.3578947368421053
 10
3.331578947368421
 20
1.3342105263157895
  0
LWPOLYLINE
  5
44
330
17
100
AcDbEntity
  8
A-WALL
100
AcDbPolyline
 90
4
 70
1
 10
3.363157894736842
 20
1.3263157894736843
 10
3.3947368421052633
 20
1.318421052631579
 10
3.378947368421053
 20
1.2710526315789474
 10
3.3394736842105264
 20
1.2947368421052632
  0
LWPOLYLINE
  5
45
330
17
100
AcDbEntity
  8
A-WALL
100
AcDbPolyline
 90
12
 70
1
 10
3.1894736842105265
 20
1.3578947368421053
 10
3.173684210526316
 20
1.2789473684210526
 10
3.236842105263158
 20
1.2789473684210526
 10
3.2447368421052634
 20
1.231578947368421
 10
3.205263157894737
 20
1.223684210526316
 10
3.173684210526316
 20
1.2473684210526317
 10
3.173684210526316
 20
1.2078947368421054
 10
3.2605263157894737
 20
1.2078947368421054
 10
3.268421052631579
 20
1.2789473684210526
 10
3.205263157894737
 20
1.3105263157894738
 10
3.213157894736842
 20
1.3342105263157895
 10
3.2605263157894737
 20
1.3421052631578947
  0
LWPOLYLINE
  5
46
330
17
100
AcDbEntity
  8
A-WALL
100
AcDbPolyline
 90
4
 70
1
 10
8.38421052631579
 20
1.3578947368421053
 10
8.392105263157895
 20
1.3105263157894738
 10
8.439473684210526
 20
1.318421052631579
 10
8.439473684210526
 20
1.3578947368421053
  0
LWPOLYLINE
  5
47
330
17
100
AcDbEntity
  8
A-WALL
100
AcDbPolyline
 90
5
 70
1
 10
8.289473684210527
 20
1.3657894736842107
 10
8.273684210526316
 20
1.223684210526316
 10
8.352631578947369
 20
1.2157894736842105
 10
8.368421052631579
 20
1.231578947368421
 10
8.352631578947369
 20
1.35
  0
LWPOLYLINE
  5
48
330
17
100
AcDbEntity
  8
A-WALL
100
AcDbPolyline
 90
4
 70
1
 10
8.305263157894737
 20
1.286842105263158
 10
8.344736842105263
 20
1.2710526315789474
 10
8.328947368421053
 20
1.231578947368421
 10
8.289473684210527
 20
1.2473684210526317
  0
LWPOLYLINE
  5
49
330
17
100
AcDbEntity
  8
A-WALL
100
AcDbPolyline
 90
4
 70
1
 10
8.313157894736843
 20
1.35
 10
8.336842105263159
 20
1.3342105263157895
 10
8.328947368421053
 20
1.3026315789473684
 10
8.297368421052632
 20
1.3105263157894738
  0
LWPOLYLINE
  5
4A
330
17
100
AcDbEntity
  8
A-WALL
100
AcDbPolyline
 90
4
 70
1
 10
8.25
 20
1.3657894736842107
 10
8.226315789473684
 20
1.35
 10
8.23421052631579
 20
1.3105263157894738
 10
8.257894736842106
 20
1.3342105263157895
  0
LWPOLYLINE
  5
4B
330
17
100
AcDbEntity
  8
A-WALL
100
AcDbPolyline
 90
5
 70
1
 10
8.202631578947368
 20
1.3657894736842107
 10
8.115789473684211
 20
1.3578947368421053
 10
8.171052631578947
 20
1.3263157894736843
 10
8.131578947368421
 20
1.2394736842105263
 10
8.147368421052631
 20
1.2078947368421054
  0
LWPOLYLINE
  5
4C
330
17
100
AcDbEntity
  8
A-WALL
100
AcDbPolyline
 90
7
 70
1
 10
8.060526315789474
 20
1.3657894736842107
 10
8.013157894736842
 20
1.3263157894736843
 10
8.052631578947368
 20
1.2947368421052632
 10
8.044736842105264
 20
1.223684210526316
 10
8.060526315789474
 20
1.2078947368421054
 10
8.08421052631579
 20
1.223684210526316
 10
8.076315789473684
 20
1.3578947368421053
  0
LWPOLYLINE
  5
4D
330
17
100
AcDbEntity
  8
A-WALL
100
AcDbPolyline
 90
4
 70
1
 10
10.263157894736842
 20
1.681578947368421
 10
10.255263157894737
 20
1.263157894736842
 10
10.271052631578948
 20
1.1605263157894736
 10
10.278947368421052
 20
1.6500000000000001
  0
LWPOLYLINE
  5
4E
330
17
100
AcDbEntity
  8
A-WALL
100
AcDbPolyline
 90
9
 70
1
 10
10.421052631578947
 20
1.8868421052631579
 10
10.357894736842105
 20
1.8631578947368421
 10
10.286842105263158
 20
1.8868421052631579
 10
10.263157894736842
 20
1.8631578947368421
 10
10.263157894736842
 20
1.7447368421052631
 10
10.278947368421052
 20
1.7289473684210528
 10
10.342105263157896
 20
1.7447368421052631
 10
10.35
 20
1.8473684210526315
 10
10.421052631578947
 20
1.8394736842105264
  0
LWPOLYLINE
  5
4F
330
17
100
AcDbEntity
  8
A-WALL
100
AcDbPolyline
 90
6
 70
1
 10
10.294736842105264
 20
1.8631578947368421
 10
10.33421052631579
 20
1.8394736842105264
 10
10.31842105263158
 20
1.7526315789473685
 10
10.278947368421052
 20
1.7763157894736843
 10
10.310526315789474
 20
1.8
 10
10.278947368421052
 20
1.8157894736842106
  0
LWPOLYLINE
  5
50
330
17
100
AcDbEntity
  8
A-WALL
100
AcDbPolyline
 90
11
 70
1
 10
10.128947368421054
 20
1.8868421052631579
 10
10.113157894736842
 20
1.8078947368421052
 10
10.16842105263158
 20
1.8157894736842106
 10
10.176315789473685
 20
1.7684210526315791
 10
10.113157894736842
 20
1.7763157894736843
 10
10.105263157894736
 20
1.7605263157894737
 10
10.144736842105264
 20
1.7289473684210528
 10
10.192105263157895
 20
1.736842105263158
 10
10.200000000000001
 20
1.8078947368421052
 10
10.144736842105264
 20
1.8394736842105264
 10
10.192105263157895
 20
1.8789473684210527
  0
LWPOLYLINE
  5
51
330
17
100
AcDbEntity
  8
A-WALL
100
AcDbPolyline
 90
7
 70
1
 10
1.5157894736842106
 20
2.139473684210526
 10
1.5157894736842106
 20
1.7052631578947368
 10
1.4763157894736842
 20
1.681578947368421
 10
1.5236842105263158
 20
1.6026315789473684
 10
1.563157894736842
 20
1.6894736842105265
 10
1.5236842105263158
 20
1.7052631578947368
 10
1.5315789473684212
 20
2.1315789473684212
  0
LWPOLYLINE
  5
52
330
17
100
AcDbEntity
  8
A-WALL
100
AcDbPolyline
 90
12
 70
1
 10
7.973684210526316
 20
2.2736842105263158
 10
7.973684210526316
 20
2.186842105263158
 10
7.997368421052632
 20
2.186842105263158
 10
8.013157894736842
 20
2.265789473684211
 10
8.036842105263158
 20
2.25
 10
8.036842105263158
 20
2.186842105263158
 10
8.060526315789474
 20
2.186842105263158
 10
8.06842105263158
 20
2.265789473684211
 10
8.1
 20
2.25
 10
8.1
 20
2.1789473684210527
 10
8.123684210526315
 20
2.186842105263158
 10
8.107894736842105
 20
2.2736842105263158
  0
LWPOLYLINE
  5
53
330
17
100
AcDbEntity
  8
A-WALL
100
AcDbPolyline
 90
6
 70
1
 10
7.894736842105264
 20
2.281578947368421
 10
7.863157894736842
 20
2.218421052631579
 10
7.894736842105264
 20
2.1789473684210527
 10
7.926315789473684
 20
2.1789473684210527
 10
7.95
 20
2.2026315789473685
 10
7.95
 20
2.2578947368421054
  0
LWPOLYLINE
  5
54
330
17
100
AcDbEntity
  8
A-WALL
100
AcDbPolyline
 90
4
 70
1
 10
7.894736842105264
 20
2.2578947368421054
 10
7.934210526315789
 20
2.25
 10
7.9184210526315795
 20
2.194736842105263
 10
7.878947368421053
 20
2.2263157894736842
  0
LWPOLYLINE
  5
55
330
17
100
AcDbEntity
  8
A-WALL
100
AcDbPolyline
 90
6
 70
1
 10
7.792105263157895
 20
2.281578947368421
 10
7.760526315789474
 20
2.25
 10
7.760526315789474
 20
2.210526315789474
 10
7.815789473684211
 20
2.1789473684210527
 10
7.839473684210526
 20
2.194736842105263
 10
7.847368421052632
 20
2.25
  0
LWPOLYLINE
  5
56
330
17
100
AcDbEntity
  8
A-WALL
100
AcDbPolyline
 90
4
 70
1
 10
7.792105263157895
 20
2.265789473684211
 10
7.831578947368421
 20
2.2421052631578946
 10
7.807894736842106
 20
2.194736842105263
 10
7.776315789473684
 20
2.218421052631579
  0
LWPOLYLINE
  5
57
330
17
100
AcDbEntity
  8
A-WALL
100
AcDbPolyline
 90
6
 70
1
 10
7.563157894736842
 20
2.281578947368421
 10
7.48421052631579
 20
2.265789473684211
 10
7.5
 20
2.186842105263158
 10
7.48421052631579
 20
2.1631578947368424
 10
7.523684210526316
 20
2.139473684210526
 10
7.571052631578947
 20
2.1710526315789473
  0
LWPOLYLINE
  5
58
330
17
100
AcDbEntity
  8
A-WALL
100
AcDbPolyline
 90
4
 70
1
 10
7.5
 20
2.1789473684210527
 10
7.5394736842105265
 20
2.186842105263158
 10
7.5473684210526315
 20
2.1710526315789473
 10
7.507894736842106
 20
2.1631578947368424
  0
LWPOLYLINE
  5
59
330
17
100
AcDbEntity
  8
A-WALL
100
AcDbPolyline
 90
4
 70
1
 10
7.523684210526316
 20
2.265789473684211
 10
7.5473684210526315
 20
2.25
 10
7.5394736842105265
 20
2.2026315789473685
 10
7.492105263157895
 20
2.2263157894736842
  0
LWPOLYLINE
  5
5A
330
17
100
AcDbEntity
  8
A-WALL
100
AcDbPolyline
 90
8
 70
1
 10
7.4447368421052635
 20
2.2736842105263158
 10
7.373684210526316
 20
2.2736842105263158
 10
7.373684210526316
 20
2.186842105263158
 10
7.397368421052632
 20
2.186842105263158
 10
7.405263157894737
 20
2.265789473684211
 10
7.436842105263158
 20
2.25
 10
7.436842105263158
 20
2.186842105263158
 10
7.460526315789474
 20
2.186842105263158
  0
LWPOLYLINE
  5
5B
330
17
100
AcDbEntity
  8
A-WALL
100
AcDbPolyline
 90
5
 70
1
 10
7.239473684210527
 20
2.281578947368421
 10
7.247368421052632
 20
2.194736842105263
 10
7.286842105263158
 20
2.186842105263158
 10
7.310526315789474
 20
2.281578947368421
 10
7.271052631578947
 20
2.218421052631579
  0
LWPOLYLINE
  5
5C
330
17
100
AcDbEntity
  8
A-WALL
100
AcDbPolyline
 90
5
 70
1
 10
7.326315789473685
 20
2.3131578947368423
 10
7.342105263157895
 20
2.2894736842105265
 10
7.326315789473685
 20
2.186842105263158
 10
7.3500000000000005
 20
2.186842105263158
 10
7.3500000000000005
 20
2.3131578947368423
  0
LWPOLYLINE
  5
5D
330
17
100
AcDbEntity
  8
A-WALL
100
AcDbPolyline
 90
7
 70
1
 10
7.642105263157895
 20
2.3210526315789473
 10
7.63421052631579
 20
2.186842105263158
 10
7.657894736842105
 20
2.186842105263158
 10
7.665789473684211
 20
2.2342105263157896
 10
7.705263157894737
 20
2.2342105263157896
 10
7.728947368421053
 20
2.1789473684210527
 10
7.736842105263158
 20
2.2973684210526315
  0
LWPOLYLINE
  5
5E
330
17
100
AcDbEntity
  8
A-WALL
100
AcDbPolyline
 90
4
 70
1
 10
7.657894736842105
 20
2.2578947368421054
 10
7.665789473684211
 20
2.2973684210526315
 10
7.721052631578948
 20
2.281578947368421
 10
7.697368421052632
 20
2.25
  0
LWPOLYLINE
  5
5F
330
17
100
AcDbEntity
  8
A-WALL
100
AcDbPolyline
 90
9
 70
1
 10
7.089473684210526
 20
2.3210526315789473
 10
7.089473684210526
 20
2.186842105263158
 10
7.207894736842105
 20
2.186842105263158
 10
7.207894736842105
 20
2.3131578947368423
 10
7.184210526315789
 20
2.3131578947368423
 10
7.192105263157895
 20
2.210526315789474
 10
7.121052631578948
 20
2.2026315789473685
 10
7.105263157894737
 20
2.218421052631579
 10
7.113157894736842
 20
2.3131578947368423
  0
LWPOLYLINE
  5
60
330
17
100
AcDbEntity
  8
A-WALL
100
AcDbPolyline
 90
6
 70
1
 10
3.6078947368421055
 20
2.3289473684210527
 10
3.5763157894736843
 20
2.2973684210526315
 10
3.5763157894736843
 20
2.2578947368421054
 10
3.6394736842105266
 20
2.2263157894736842
 10
3.6710526315789473
 20
2.281578947368421
 10
3.655263157894737
 20
2.3210526315789473
  0
LWPOLYLINE
  5
61
330
17
100
AcDbEntity
  8
A-WALL
100
AcDbPolyline
 90
4
 70
1
 10
3.6
 20
2.25
 10
3.623684210526316
 20
2.281578947368421
 10
3.6473684210526316
 20
2.265789473684211
 10
3.6315789473684212
 20
2.2421052631578946
  0
LWPOLYLINE
  5
62
330
17
100
AcDbEntity
  8
A-WALL
100
AcDbPolyline
 90
4
 70
1
 10
3.6
 20
2.2894736842105265
 10
3.6078947368421055
 20
2.3131578947368423
 10
3.6394736842105266
 20
2.305263157894737
 10
3.623684210526316
 20
2.281578947368421
  0
LWPOLYLINE
  5
63
330
17
100
AcDbEntity
  8
A-WALL
100
AcDbPolyline
 90
8
 70
1
 10
3.505263157894737
 20
2.3289473684210527
 10
3.473684210526316
 20
2.2894736842105265
 10
3.4815789473684213
 20
2.2421052631578946
 10
3.528947368421053
 20
2.2263157894736842
 10
3.560526315789474
 20
2.2578947368421054
 10
3.513157894736842
 20
2.2421052631578946
 10
3.4973684210526317
 20
2.2973684210526315
 10
3.560526315789474
 20
2.305263157894737
  0
LWPOLYLINE
  5
64
330
17
100
AcDbEntity
  8
A-WALL
100
AcDbPolyline
 90
8
 70
1
 10
3.378947368421053
 20
2.3289473684210527
 10
3.3710526315789475
 20
2.2342105263157896
 10
3.3947368421052633
 20
2.2421052631578946
 10
3.4026315789473687
 20
2.3131578947368423
 10
3.4342105263157894
 20
2.2973684210526315
 10
3.4342105263157894
 20
2.2342105263157896
 10
3.45
 20
2.2342105263157896
 10
3.45
 20
2.3210526315789473
  0
LWPOLYLINE
  5
65
330
17
100
AcDbEntity
  8
A-WALL
100
AcDbPolyline
 90
11
 70
1
 10
3.205263157894737
 20
2.3210526315789473
 10
3.205263157894737
 20
2.2342105263157896
 10
3.2289473684210526
 20
2.2342105263157896
 10
3.2210526315789476
 20
2.2894736842105265
 10
3.268421052631579
 20
2.3131578947368423
 10
3.323684210526316
 20
2.305263157894737
 10
3.3157894736842106
 20
2.281578947368421
 10
3.268421052631579
 20
2.2736842105263158
 10
3.268421052631579
 20
2.2421052631578946
 10
3.3473684210526318
 20
2.2342105263157896
 10
3.3394736842105264
 20
2.3210526315789473
  0
LWPOLYLINE
  5
66
330
17
100
AcDbEntity
  8
A-WALL
100
AcDbPolyline
 90
4
 70
1
 10
3.3000000000000003
 20
2.281578947368421
 10
3.331578947368421
 20
2.265789473684211
 10
3.3157894736842106
 20
2.2421052631578946
 10
3.2842105263157895
 20
2.2578947368421054
  0
LWPOLYLINE
  5
67
330
17
100
AcDbEntity
  8
A-WALL
100
AcDbPolyline
 90
14
 70
1
 10
1.4921052631578948
 20
2.3447368421052635
 10
1.3657894736842107
 20
2.336842105263158
 10
1.3578947368421053
 20
2.281578947368421
 10
1.4210526315789473
 20
2.2736842105263158
 10
1.436842105263158
 20
2.25
 10
1.4131578947368422
 20
2.218421052631579
 10
1.3736842105263158
 20
2.2421052631578946
 10
1.35
 20
2.218421052631579
 10
1.4289473684210527
 20
2.194736842105263
 10
1.4605263157894737
 20
2.2342105263157896
 10
1.4526315789473685
 20
2.2736842105263158
 10
1.381578947368421
 20
2.3131578947368423
 10
1.4605263157894737
 20
2.3289473684210527
 10
1.4842105263157894
 20
2.2973684210526315
  0
LWPOLYLINE
  5
68
330
17
100
AcDbEntity
  8
A-WALL
100
AcDbPolyline
 90
4
 70
1
 10
1.6263157894736842
 20
2.3526315789473684
 10
1.6263157894736842
 20
2.305263157894737
 10
1.6736842105263159
 20
2.2973684210526315
 10
1.681578947368421
 20
2.3447368421052635
  0
LWPOLYLINE
  5
69
330
17
100
AcDbEntity
  8
A-WALL
100
AcDbPolyline
 90
8
 70
1
 10
1.563157894736842
 20
2.3526315789473684
 10
1.5315789473684212
 20
2.3447368421052635
 10
1.5078947368421054
 20
2.305263157894737
 10
1.5078947368421054
 20
2.2421052631578946
 10
1.5394736842105263
 20
2.186842105263158
 10
1.5789473684210527
 20
2.194736842105263
 10
1.6105263157894738
 20
2.25
 10
1.6026315789473684
 20
2.305263157894737
  0
LWPOLYLINE
  5
6A
330
17
100
AcDbEntity
  8
A-WALL
100
AcDbPolyline
 90
4
 70
1
 10
1.5473684210526317
 20
2.3289473684210527
 10
1.586842105263158
 20
2.2973684210526315
 10
1.563157894736842
 20
2.210526315789474
 10
1.5236842105263158
 20
2.265789473684211
  0
LWPOLYLINE
  5
6B
330
17
100
AcDbEntity
  8
A-WALL
100
AcDbPolyline
 90
6
 70
1
 10
3.1578947368421053
 20
2.360526315789474
 10
3.1342105263157896
 20
2.3210526315789473
 10
3.15
 20
2.2421052631578946
 10
3.181578947368421
 20
2.2342105263157896
 10
3.1657894736842107
 20
2.2578947368421054
 10
3.181578947368421
 20
2.3210526315789473
  0
LWPOLYLINE
  5
6C
330
17
100
AcDbEntity
  8
A-WALL
100
AcDbPolyline
 90
17
 70
1
 10
2.9210526315789473
 20
2.360526315789474
 10
2.9210526315789473
 20
2.2342105263157896
 10
3.055263157894737
 20
2.2342105263157896
 10
3.0710526315789473
 20
2.3131578947368423
 10
3.1026315789473684
 20
2.2973684210526315
 10
3.0947368421052635
 20
2.2342105263157896
 10
3.118421052631579
 20
2.2342105263157896
 10
3.118421052631579
 20
2.3131578947368423
 10
3.0947368421052635
 20
2.3289473684210527
 10
3.0394736842105265
 20
2.3210526315789473
 10
3.0236842105263158
 20
2.2421052631578946
 10
2.9526315789473685
 20
2.25
 10
2.936842105263158
 20
2.281578947368421
 10
3.0078947368421054
 20
2.305263157894737
 10
2.9526315789473685
 20
2.305263157894737
 10
2.936842105263158
 20
2.3289473684210527
 10
3.0236842105263158
 20
2.3526315789473684
  0
LWPOLYLINE
  5
6D
330
17
100
AcDbEntity
  8
A-WALL
100
AcDbPolyline
 90
10
 70
1
 10
10.302631578947368
 20
2.6763157894736844
 10
10.23157894736842
 20
2.668421052631579
 10
10.271052631578948
 20
2.5657894736842106
 10
10.23157894736842
 20
2.486842105263158
 10
10.263157894736842
 20
2.463157894736842
 10
10.263157894736842
 20
1.9263157894736842
 10
10.271052631578948
 20
2.463157894736842
 10
10.310526315789474
 20
2.4710526315789476
 10
10.271052631578948
 20
2.581578947368421
 10
10.310526315789474
 20
2.6447368421052633
  0
LWPOLYLINE
  5
6E
330
17
100
AcDbEntity
  8
A-WALL
100
AcDbPolyline
 90
8
 70
1
 10
1.5157894736842106
 20
2.9289473684210527
 10
1.4763157894736842
 20
2.8421052631578947
 10
1.5157894736842106
 20
2.8263157894736843
 10
1.5078947368421054
 20
2.4
 10
1.5236842105263158
 20
2.3842105263157896
 10
1.5236842105263158
 20
2.8263157894736843
 10
1.563157894736842
 20
2.8342105263157897
 10
1.563157894736842
 20
2.8578947368421055
  0
LWPOLYLINE
  5
6F
330
17
100
AcDbEntity
  8
A-WALL
100
AcDbPolyline
 90
4
 70
1
 10
10.263157894736842
 20
3.118421052631579
 10
10.263157894736842
 20
2.707894736842105
 10
10.278947368421052
 20
2.707894736842105
 10
10.278947368421052
 20
3.1026315789473684
  0
LWPOLYLINE
  5
70
330
17
100
AcDbEntity
  8
A-WALL
100
AcDbPolyline
 90
7
 70
1
 10
5.147368421052632
 20
3.1342105263157896
 10
5.147368421052632
 20
2.8578947368421055
 10
5.1078947368421055
 20
2.8263157894736843
 10
5.155263157894737
 20
2.755263157894737
 10
5.1947368421052635
 20
2.8342105263157897
 10
5.155263157894737
 20
2.8578947368421055
 10
5.163157894736842
 20
3.110526315789474
  0
LWPOLYLINE
  5
71
330
17
100
AcDbEntity
  8
A-WALL
100
AcDbPolyline
 90
4
 70
1
 10
10.373684210526315
 20
3.323684210526316
 10
10.373684210526315
 20
3.2763157894736845
 10
10.428947368421053
 20
3.2842105263157895
 10
10.428947368421053
 20
3.323684210526316
  0
LWPOLYLINE
  5
72
330
17
100
AcDbEntity
  8
A-WALL
100
AcDbPolyline
 90
5
 70
1
 10
10.278947368421052
 20
3.323684210526316
 10
10.263157894736842
 20
3.1894736842105265
 10
10.342105263157896
 20
3.181578947368421
 10
10.35
 20
3.3000000000000003
 10
10.33421052631579
 20
3.323684210526316
  0
LWPOLYLINE
  5
73
330
17
100
AcDbEntity
  8
A-WALL
100
AcDbPolyline
 90
5
 70
1
 10
10.302631578947368
 20
3.307894736842105
 10
10.33421052631579
 20
3.2763157894736845
 10
10.31842105263158
 20
3.197368421052632
 10
10.294736842105264
 20
3.197368421052632
 10
10.271052631578948
 20
3.236842105263158
  0
LWPOLYLINE
  5
74
330
17
100
AcDbEntity
  8
A-WALL
100
AcDbPolyline
 90
3
 70
1
 10
10.239473684210527
 20
3.323684210526316
 10
10.223684210526317
 20
3.323684210526316
 10
10.23157894736842
 20
3.268421052631579
  0
LWPOLYLINE
  5
75
330
17
100
AcDbEntity
  8
A-WALL
100
AcDbPolyline
 90
11
 70
1
 10
10.121052631578948
 20
3.323684210526316
 10
10.113157894736842
 20
3.2526315789473683
 10
10.16842105263158
 20
3.2526315789473683
 10
10.18421052631579
 20
3.2289473684210526
 10
10.16842105263158
 20
3.197368421052632
 10
10.121052631578948
 20
3.2210526315789476
 10
10.105263157894736
 20
3.181578947368421
 10
10.200000000000001
 20
3.181578947368421
 10
10.192105263157895
 20
3.268421052631579
 10
10.136842105263158
 20
3.2842105263157895
 10
10.192105263157895
 20
3.3157894736842106
  0
LWPOLYLINE
  5
76
330
17
100
AcDbEntity
  8
A-WALL
100
AcDbPolyline
 90
14
 70
1
 10
5.305263157894737
 20
3.3394736842105264
 10
5.257894736842106
 20
3.331578947368421
 10
5.242105263157895
 20
3.3000000000000003
 10
5.1947368421052635
 20
3.3394736842105264
 10
5.155263157894737
 20
3.323684210526316
 10
5.147368421052632
 20
3.2447368421052634
 10
5.2026315789473685
 20
3.2447368421052634
 10
5.2105263157894735
 20
3.2210526315789476
 10
5.186842105263158
 20
3.197368421052632
 10
5.147368421052632
 20
3.2210526315789476
 10
5.147368421052632
 20
3.1894736842105265
 10
5.2105263157894735
 20
3.181578947368421
 10
5.242105263157895
 20
3.2842105263157895
 10
5.313157894736842
 20
3.292105263157895
  0
LWPOLYLINE
  5
77
330
17
100
AcDbEntity
  8
A-WALL
100
AcDbPolyline
 90
4
 70
1
 10
5.186842105263158
 20
3.3157894736842106
 10
5.218421052631579
 20
3.2763157894736845
 10
5.1947368421052635
 20
3.2526315789473683
 10
5.163157894736842
 20
3.268421052631579
  0
LWPOLYLINE
  5
78
330
17
100
AcDbEntity
  8
A-WALL
100
AcDbPolyline
 90
4
 70
1
 10
5.1078947368421055
 20
3.3394736842105264
 10
5.1000000000000005
 20
3.292105263157895
 10
5.11578947368421
 20
3.2842105263157895
 10
5.123684210526316
 20
3.331578947368421
  0
LWPOLYLINE
  5
79
330
17
100
AcDbEntity
  8
A-WALL
100
AcDbPolyline
 90
12
 70
1
 10
5.028947368421052
 20
3.3394736842105264
 10
4.989473684210527
 20
3.3157894736842106
 10
4.989473684210527
 20
3.292105263157895
 10
5.036842105263158
 20
3.3157894736842106
 10
5.052631578947368
 20
3.3000000000000003
 10
5.036842105263158
 20
3.2526315789473683
 10
5.060526315789474
 20
3.213157894736842
 10
4.981578947368421
 20
3.213157894736842
 10
5.0131578947368425
 20
3.181578947368421
 10
5.052631578947368
 20
3.181578947368421
 10
5.08421052631579
 20
3.205263157894737
 10
5.076315789473685
 20
3.3000000000000003
  0
LWPOLYLINE
  5
7A
330
17
100
AcDbEntity
  8
A-WALL
100
AcDbPolyline
 90
3
 70
1
 10
0.6394736842105263
 20
3.473684210526316
 10
0.631578947368421
 20
1.1289473684210527
 10
0.6473684210526316
 20
0.9157894736842106
  0
LWPOLYLINE
  5
7B
330
17
100
AcDbEntity
  8
A-WALL
100
AcDbPolyline
 90
3
 70
1
 10
2.139473684210526
 20
3.75
 10
2.123684210526316
 20
3.742105263157895
 10
2.1315789473684212
 20
3.2526315789473683
  0
LWPOLYLINE
  5
7C
330
17
100
AcDbEntity
  8
A-WALL
100
AcDbPolyline
 90
8
 70
1
 10
5.147368421052632
 20
3.7578947368421054
 10
5.11578947368421
 20
3.655263157894737
 10
5.147368421052632
 20
3.6394736842105266
 10
5.139473684210526
 20
3.3947368421052633
 10
5.155263157894737
 20
3.363157894736842
 10
5.155263157894737
 20
3.6394736842105266
 10
5.186842105263158
 20
3.6473684210526316
 10
5.1947368421052635
 20
3.6789473684210527
  0
LWPOLYLINE
  5
7D
330
17
100
AcDbEntity
  8
A-WALL
100
AcDbPolyline
 90
3
 70
1
 10
2.2342105263157896
 20
3.7578947368421054
 10
2.218421052631579
 20
3.742105263157895
 10
2.2342105263157896
 20
3.2447368421052634
  0
LWPOLYLINE
  5
7E
330
17
100
AcDbEntity
  8
A-WALL
100
AcDbPolyline
 90
3
 70
1
 10
10.263157894736842
 20
3.7894736842105265
 10
10.271052631578948
 20
3.355263157894737
 10
10.278947368421052
 20
3.7578947368421054
  0
LWPOLYLINE
  5
7F
330
17
100
AcDbEntity
  8
A-WALL
100
AcDbPolyline
 90
3
 70
1
 10
1.1289473684210527
 20
3.7973684210526315
 10
1.1368421052631579
 20
3.7578947368421054
 10
1.223684210526316
 20
3.718421052631579
  0
LWPOLYLINE
  5
80
330
17
100
AcDbEntity
  8
A-WALL
100
AcDbPolyline
 90
10
 70
1
 10
2.0526315789473686
 20
3.8131578947368423
 10
2.0526315789473686
 20
3.7894736842105265
 10
2.0921052631578947
 20
3.781578947368421
 10
2.376315789473684
 20
3.7894736842105265
 10
2.3842105263157896
 20
3.2289473684210526
 10
2.368421052631579
 20
3.213157894736842
 10
2.0526315789473686
 20
3.2210526315789476
 10
2.044736842105263
 20
3.197368421052632
 10
2.5342105263157895
 20
3.197368421052632
 10
2.542105263157895
 20
3.805263157894737
  0
LWPOLYLINE
  5
81
330
17
100
AcDbEntity
  8
A-WALL
100
AcDbPolyline
 90
6
 70
1
 10
2.4078947368421053
 20
3.7894736842105265
 10
2.526315789473684
 20
3.7736842105263158
 10
2.526315789473684
 20
3.2289473684210526
 10
2.5105263157894737
 20
3.213157894736842
 10
2.392105263157895
 20
3.2289473684210526
 10
2.392105263157895
 20
3.7736842105263158
  0
LWPOLYLINE
  5
82
330
17
100
AcDbEntity
  8
A-WALL
100
AcDbPolyline
 90
4
 70
1
 10
10.263157894736842
 20
3.9
 10
10.23157894736842
 20
3.8131578947368423
 10
10.302631578947368
 20
3.805263157894737
 10
10.310526315789474
 20
3.836842105263158
  0
LWPOLYLINE
  5
83
330
17
100
AcDbEntity
  8
A-WALL
100
AcDbPolyline
 90
6
 70
1
 10
7.03421052631579
 20
3.892105263157895
 10
7.026315789473684
 20
3.9078947368421053
 10
7.002631578947368
 20
3.8842105263157896
 10
6.315789473684211
 20
3.892105263157895
 10
6.307894736842106
 20
3.876315789473684
 10
7.026315789473684
 20
3.868421052631579
  0
LWPOLYLINE
  5
84
330
17
100
AcDbEntity
  8
A-WALL
100
AcDbPolyline
 90
4
 70
1
 10
10.23157894736842
 20
4.026315789473684
 10
10.255263157894737
 20
3.947368421052632
 10
10.278947368421052
 20
3.9394736842105265
 10
10.310526315789474
 20
4.026315789473684
  0
LWPOLYLINE
  5
85
330
17
100
AcDbEntity
  8
A-WALL
100
AcDbPolyline
 90
6
 70
1
 10
1.3026315789473684
 20
4.184210526315789
 10
1.3105263157894738
 20
4.160526315789474
 10
1.3578947368421053
 20
4.152631578947369
 10
1.7921052631578949
 20
4.160526315789474
 10
1.7921052631578949
 20
4.184210526315789
 10
1.7447368421052631
 20
4.192105263157895
  0
LWPOLYLINE
  5
86
330
17
100
AcDbEntity
  8
A-WALL
100
AcDbPolyline
 90
4
 70
1
 10
6.923684210526316
 20
4.247368421052632
 10
6.947368421052632
 20
4.207894736842105
 10
7.042105263157895
 20
4.239473684210527
 10
6.963157894736843
 20
4.286842105263158
  0
LWPOLYLINE
  5
87
330
17
100
AcDbEntity
  8
A-WALL
100
AcDbPolyline
 90
4
 70
1
 10
6.3
 20
4.247368421052632
 10
6.378947368421053
 20
4.2
 10
6.394736842105264
 20
4.223684210526316
 10
6.378947368421053
 20
4.286842105263158
  0
LWPOLYLINE
  5
88
330
17
100
AcDbEntity
  8
A-WALL
100
AcDbPolyline
 90
4
 70
1
 10
6.821052631578947
 20
4.318421052631579
 10
6.860526315789474
 20
4.278947368421052
 10
6.892105263157895
 20
4.302631578947368
 10
6.88421052631579
 20
4.326315789473685
  0
LWPOLYLINE
  5
89
330
17
100
AcDbEntity
  8
A-WALL
100
AcDbPolyline
 90
5
 70
1
 10
6.647368421052632
 20
4.326315789473685
 10
6.6078947368421055
 20
4.286842105263158
 10
6.647368421052632
 20
4.271052631578947
 10
6.663157894736842
 20
4.1684210526315795
 10
6.671052631578948
 20
4.318421052631579
  0
LWPOLYLINE
  5
8A
330
17
100
AcDbEntity
  8
A-WALL
100
AcDbPolyline
 90
6
 70
1
 10
6.765789473684211
 20
4.33421052631579
 10
6.710526315789474
 20
4.294736842105263
 10
6.73421052631579
 20
4.176315789473684
 10
6.781578947368422
 20
4.176315789473684
 10
6.813157894736842
 20
4.215789473684211
 10
6.805263157894737
 20
4.294736842105263
  0
LWPOLYLINE
  5
8B
330
17
100
AcDbEntity
  8
A-WALL
100
AcDbPolyline
 90
5
 70
1
 10
6.75
 20
4.310526315789474
 10
6.781578947368422
 20
4.294736842105263
 10
6.7894736842105265
 20
4.247368421052632
 10
6.757894736842106
 20
4.2
 10
6.73421052631579
 20
4.223684210526316
  0
LWPOLYLINE
  5
8C
330
17
100
AcDbEntity
  8
A-WALL
100
AcDbPolyline
 90
11
 70
1
 10
6.457894736842105
 20
4.326315789473685
 10
6.45
 20
4.286842105263158
 10
6.497368421052632
 20
4.310526315789474
 10
6.521052631578947
 20
4.286842105263158
 10
6.442105263157895
 20
4.192105263157895
 10
6.544736842105263
 20
4.176315789473684
 10
6.552631578947369
 20
4.192105263157895
 10
6.497368421052632
 20
4.223684210526316
 10
6.552631578947369
 20
4.286842105263158
 10
6.58421052631579
 20
4.286842105263158
 10
6.58421052631579
 20
4.326315789473685
  0
LWPOLYLINE
  5
8D
330
17
100
AcDbEntity
  8
A-WALL
100
AcDbPolyline
 90
3
 70
1
 10
10.263157894736842
 20
4.571052631578947
 10
10.271052631578948
 20
4.057894736842106
 10
10.278947368421052
 20
4.5394736842105265
  0
LWPOLYLINE
  5
8E
330
17
100
AcDbEntity
  8
A-WALL
100
AcDbPolyline
 90
14
 70
1
 10
10.421052631578947
 20
4.776315789473684
 10
10.373684210526315
 20
4.776315789473684
 10
10.357894736842105
 20
4.736842105263158
 10
10.31842105263158
 20
4.776315789473684
 10
10.271052631578948
 20
4.760526315789474
 10
10.263157894736842
 20
4.689473684210527
 10
10.33421052631579
 20
4.66578947368421
 10
10.310526315789474
 20
4.6421052631578945
 10
10.271052631578948
 20
4.657894736842105
 10
10.278947368421052
 20
4.618421052631579
 10
10.31842105263158
 20
4.618421052631579
 10
10.35
 20
4.65
 10
10.365789473684211
 20
4.728947368421053
 10
10.428947368421053
 20
4.736842105263158
  0
LWPOLYLINE
  5
8F
330
17
100
AcDbEntity
  8
A-WALL
100
AcDbPolyline
 90
4
 70
1
 10
10.294736842105264
 20
4.752631578947368
 10
10.33421052631579
 20
4.736842105263158
 10
10.31842105263158
 20
4.689473684210527
 10
10.278947368421052
 20
4.705263157894737
  0
LWPOLYLINE
  5
90
330
17
100
AcDbEntity
  8
A-WALL
100
AcDbPolyline
 90
11
 70
1
 10
10.128947368421054
 20
4.776315789473684
 10
10.105263157894736
 20
4.713157894736843
 10
10.160526315789474
 20
4.705263157894737
 10
10.18421052631579
 20
4.66578947368421
 10
10.16842105263158
 20
4.65
 10
10.113157894736842
 20
4.66578947368421
 10
10.105263157894736
 20
4.6421052631578945
 10
10.18421052631579
 20
4.626315789473685
 10
10.207894736842105
 20
4.681578947368421
 10
10.136842105263158
 20
4.744736842105263
 10
10.200000000000001
 20
4.768421052631579
  0
LWPOLYLINE
  5
91
330
17
100
AcDbEntity
  8
A-WALL
100
AcDbPolyline
 90
8
 70
1
 10
9.307894736842105
 20
4.902631578947369
 10
9.221052631578948
 20
4.910526315789474
 10
9.221052631578948
 20
4.823684210526316
 10
9.244736842105263
 20
4.831578947368421
 10
9.25263157894737
 20
4.902631578947369
 10
9.284210526315789
 20
4.886842105263158
 10
9.284210526315789
 20
4.823684210526316
 10
9.307894736842105
 20
4.823684210526316
  0
LWPOLYLINE
  5
92
330
17
100
AcDbEntity
  8
A-WALL
100
AcDbPolyline
 90
5
 70
1
 10
9.13421052631579
 20
4.9184210526315795
 10
9.110526315789475
 20
4.847368421052631
 10
9.16578947368421
 20
4.815789473684211
 10
9.197368421052632
 20
4.878947368421053
 10
9.181578947368422
 20
4.910526315789474
  0
LWPOLYLINE
  5
93
330
17
100
AcDbEntity
  8
A-WALL
100
AcDbPolyline
 90
4
 70
1
 10
9.126315789473685
 20
4.847368421052631
 10
9.13421052631579
 20
4.863157894736842
 10
9.181578947368422
 20
4.855263157894737
 10
9.157894736842106
 20
4.831578947368421
  0
LWPOLYLINE
  5
94
330
17
100
AcDbEntity
  8
A-WALL
100
AcDbPolyline
 90
4
 70
1
 10
9.126315789473685
 20
4.894736842105264
 10
9.16578947368421
 20
4.902631578947369
 10
9.173684210526316
 20
4.886842105263158
 10
9.142105263157895
 20
4.871052631578948
  0
LWPOLYLINE
  5
95
330
17
100
AcDbEntity
  8
A-WALL
100
AcDbPolyline
 90
10
 70
1
 10
8.936842105263159
 20
4.9184210526315795
 10
8.905263157894737
 20
4.902631578947369
 10
8.897368421052631
 20
4.863157894736842
 10
8.913157894736843
 20
4.823684210526316
 10
8.952631578947368
 20
4.815789473684211
 10
8.98421052631579
 20
4.839473684210526
 10
8.976315789473684
 20
4.855263157894737
 10
8.928947368421053
 20
4.839473684210526
 10
8.921052631578947
 20
4.886842105263158
 10
8.98421052631579
 20
4.894736842105264
  0
LWPOLYLINE
  5
96
330
17
100
AcDbEntity
  8
A-WALL
100
AcDbPolyline
 90
7
 70
1
 10
11.755263157894737
 20
4.934210526315789
 10
11.715789473684211
 20
4.863157894736842
 10
11.692105263157895
 20
4.934210526315789
 10
11.66842105263158
 20
4.926315789473684
 10
11.700000000000001
 20
4.863157894736842
 10
11.676315789473685
 20
4.8
 10
11.723684210526317
 20
4.815789473684211
  0
LWPOLYLINE
  5
97
330
17
100
AcDbEntity
  8
A-WALL
100
AcDbPolyline
 90
8
 70
1
 10
11.644736842105264
 20
4.926315789473684
 10
11.573684210526316
 20
4.926315789473684
 10
11.573684210526316
 20
4.839473684210526
 10
11.597368421052632
 20
4.839473684210526
 10
11.605263157894738
 20
4.9184210526315795
 10
11.636842105263158
 20
4.902631578947369
 10
11.636842105263158
 20
4.839473684210526
 10
11.660526315789474
 20
4.839473684210526
  0
LWPOLYLINE
  5
98
330
17
100
AcDbEntity
  8
A-WALL
100
AcDbPolyline
 90
6
 70
1
 10
11.50263157894737
 20
4.934210526315789
 10
11.471052631578948
 20
4.9184210526315795
 10
11.463157894736842
 20
4.863157894736842
 10
11.51842105263158
 20
4.831578947368421
 10
11.542105263157895
 20
4.847368421052631
 10
11.55
 20
4.902631578947369
  0
LWPOLYLINE
  5
99
330
17
100
AcDbEntity
  8
A-WALL
100
AcDbPolyline
 90
4
 70
1
 10
11.50263157894737
 20
4.9184210526315795
 10
11.534210526315789
 20
4.886842105263158
 10
11.510526315789473
 20
4.847368421052631
 10
11.478947368421053
 20
4.871052631578948
  0
LWPOLYLINE
  5
9A
330
17
100
AcDbEntity
  8
A-WALL
100
AcDbPolyline
 90
8
 70
1
 10
11.38421052631579
 20
4.934210526315789
 10
11.352631578947369
 20
4.871052631578948
 10
11.368421052631579
 20
4.839473684210526
 10
11.407894736842106
 20
4.831578947368421
 10
11.439473684210526
 20
4.863157894736842
 10
11.392105263157895
 20
4.847368421052631
 10
11.376315789473685
 20
4.902631578947369
 10
11.439473684210526
 20
4.910526315789474
  0
LWPOLYLINE
  5
9B
330
17
100
AcDbEntity
  8
A-WALL
100
AcDbPolyline
 90
6
 70
1
 10
11.21842105263158
 20
4.926315789473684
 10
11.242105263157896
 20
4.894736842105264
 10
11.210526315789474
 20
4.871052631578948
 10
11.21842105263158
 20
4.839473684210526
 10
11.289473684210527
 20
4.839473684210526
 10
11.289473684210527
 20
4.926315789473684
  0
LWPOLYLINE
  5
9C
330
17
100
AcDbEntity
  8
A-WALL
100
AcDbPolyline
 90
4
 70
1
 10
11.25
 20
4.886842105263158
 10
11.273684210526316
 20
4.878947368421053
 10
11.257894736842106
 20
4.847368421052631
 10
11.23421052631579
 20
4.855263157894737
  0
LWPOLYLINE
  5
9D
330
17
100
AcDbEntity
  8
A-WALL
100
AcDbPolyline
 90
3
 70
1
 10
11.23421052631579
 20
4.910526315789474
 10
11.273684210526316
 20
4.902631578947369
 10
11.25
 20
4.886842105263158
  0
LWPOLYLINE
  5
9E
330
17
100
AcDbEntity
  8
A-WALL
100
AcDbPolyline
 90
4
 70
1
 10
8.842105263157896
 20
4.942105263157895
 10
8.85
 20
4.823684210526316
 10
8.881578947368421
 20
4.823684210526316
 10
8.873684210526315
 20
4.926315789473684
  0
LWPOLYLINE
  5
9F
330
17
100
AcDbEntity
  8
A-WALL
100
AcDbPolyline
 90
5
 70
1
 10
8.794736842105264
 20
4.95
 10
8.794736842105264
 20
4.823684210526316
 10
8.81842105263158
 20
4.823684210526316
 10
8.802631578947368
 20
4.9184210526315795
 10
8.81842105263158
 20
4.942105263157895
  0
LWPOLYLINE
  5
A0
330
17
100
AcDbEntity
  8
A-WALL
100
AcDbPolyline
 90
10
 70
1
 10
9.007894736842106
 20
4.957894736842105
 10
9.0
 20
4.831578947368421
 10
9.023684210526316
 20
4.823684210526316
 10
9.023684210526316
 20
4.894736842105264
 10
9.047368421052632
 20
4.902631578947369
 10
9.071052631578947
 20
4.878947368421053
 10
9.063157894736843
 20
4.823684210526316
 10
9.086842105263159
 20
4.823684210526316
 10
9.086842105263159
 20
4.902631578947369
 10
9.031578947368422
 20
4.910526315789474
  0
LWPOLYLINE
  5
A1
330
17
100
AcDbEntity
  8
A-WALL
100
AcDbPolyline
 90
9
 70
1
 10
8.66842105263158
 20
4.957894736842105
 10
8.66842105263158
 20
4.815789473684211
 10
8.700000000000001
 20
4.878947368421053
 10
8.763157894736842
 20
4.815789473684211
 10
8.771052631578948
 20
4.839473684210526
 10
8.73157894736842
 20
4.902631578947369
 10
8.771052631578948
 20
4.95
 10
8.747368421052633
 20
4.95
 10
8.700000000000001
 20
4.894736842105264
  0
LWPOLYLINE
  5
A2
330
17
100
AcDbEntity
  8
A-WALL
100
AcDbPolyline
 90
4
 70
1
 10
2.2973684210526315
 20
4.957894736842105
 10
2.3210526315789473
 20
4.878947368421053
 10
2.3447368421052635
 20
4.871052631578948
 10
2.376315789473684
 20
4.957894736842105
  0
LWPOLYLINE
  5
A3
330
17
100
AcDbEntity
  8
A-WALL
100
AcDbPolyline
 90
3
 70
1
 10
11.321052631578947
 20
4.973684210526316
 10
11.328947368421053
 20
4.839473684210526
 10
11.336842105263159
 20
4.965789473684211
  0
LWPOLYLINE
  5
A4
330
17
100
AcDbEntity
  8
A-WALL
100
AcDbPolyline
 90
5
 70
1
 10
11.08421052631579
 20
4.965789473684211
 10
11.08421052631579
 20
4.839473684210526
 10
11.171052631578947
 20
4.839473684210526
 10
11.194736842105263
 20
4.871052631578948
 10
11.186842105263159
 20
4.957894736842105
  0
LWPOLYLINE
  5
A5
330
17
100
AcDbEntity
  8
A-WALL
100
AcDbPolyline
 90
4
 70
1
 10
11.107894736842105
 20
4.886842105263158
 10
11.131578947368421
 20
4.902631578947369
 10
11.171052631578947
 20
4.871052631578948
 10
11.123684210526315
 20
4.847368421052631
  0
LWPOLYLINE
  5
A6
330
17
100
AcDbEntity
  8
A-WALL
100
AcDbPolyline
 90
4
 70
1
 10
11.107894736842105
 20
4.942105263157895
 10
11.155263157894737
 20
4.95
 10
11.171052631578947
 20
4.926315789473684
 10
11.115789473684211
 20
4.910526315789474
  0
LWPOLYLINE
  5
A7
330
17
100
AcDbEntity
  8
A-WALL
100
AcDbPolyline
 90
3
 70
1
 10
6.086842105263158
 20
5.328947368421053
 10
6.102631578947369
 20
5.305263157894737
 10
6.15
 20
5.321052631578947
  0
LWPOLYLINE
  5
A8
330
17
100
AcDbEntity
  8
A-WALL
100
AcDbPolyline
 90
4
 70
1
 10
5.98421052631579
 20
5.38421052631579
 10
6.031578947368422
 20
5.360526315789474
 10
6.260526315789474
 20
5.376315789473685
 10
6.252631578947368
 20
5.3921052631578945
  0
LWPOLYLINE
  5
A9
330
17
100
AcDbEntity
  8
A-WALL
100
AcDbPolyline
 90
4
 70
1
 10
6.971052631578948
 20
5.41578947368421
 10
6.978947368421053
 20
5.3921052631578945
 10
7.026315789473684
 20
5.376315789473685
 10
7.018421052631579
 20
5.407894736842105
  0
LWPOLYLINE
  5
AA
330
17
100
AcDbEntity
  8
A-WALL
100
AcDbPolyline
 90
3
 70
1
 10
2.336842105263158
 20
5.502631578947368
 10
2.3289473684210527
 20
4.997368421052632
 10
2.3447368421052635
 20
4.989473684210527
  0
LWPOLYLINE
  5
AB
330
17
100
AcDbEntity
  8
A-WALL
100
AcDbPolyline
 90
10
 70
1
 10
3.923684210526316
 20
5.6684210526315795
 10
3.931578947368421
 20
5.573684210526316
 10
3.955263157894737
 20
5.660526315789474
 10
3.986842105263158
 20
5.644736842105264
 10
3.9947368421052634
 20
5.573684210526316
 10
4.018421052631579
 20
5.660526315789474
 10
4.042105263157895
 20
5.652631578947369
 10
4.042105263157895
 20
5.581578947368421
 10
4.065789473684211
 20
5.581578947368421
 10
4.057894736842106
 20
5.6684210526315795
  0
LWPOLYLINE
  5
AC
330
17
100
AcDbEntity
  8
A-WALL
100
AcDbPolyline
 90
6
 70
1
 10
3.836842105263158
 20
5.676315789473684
 10
3.8131578947368423
 20
5.605263157894737
 10
3.836842105263158
 20
5.573684210526316
 10
3.868421052631579
 20
5.573684210526316
 10
3.9
 20
5.605263157894737
 10
3.9
 20
5.644736842105264
  0
LWPOLYLINE
  5
AD
330
17
100
AcDbEntity
  8
A-WALL
100
AcDbPolyline
 90
4
 70
1
 10
3.8526315789473684
 20
5.660526315789474
 10
3.8842105263157896
 20
5.636842105263158
 10
3.868421052631579
 20
5.589473684210526
 10
3.8289473684210527
 20
5.613157894736842
  0
LWPOLYLINE
  5
AE
330
17
100
AcDbEntity
  8
A-WALL
100
AcDbPolyline
 90
5
 70
1
 10
3.742105263157895
 20
5.676315789473684
 10
3.710526315789474
 20
5.660526315789474
 10
3.7026315789473685
 20
5.597368421052631
 10
3.7578947368421054
 20
5.573684210526316
 10
3.7894736842105265
 20
5.636842105263158
  0
LWPOLYLINE
  5
AF
330
17
100
AcDbEntity
  8
A-WALL
100
AcDbPolyline
 90
4
 70
1
 10
3.7342105263157896
 20
5.652631578947369
 10
3.7736842105263158
 20
5.636842105263158
 10
3.7578947368421054
 20
5.597368421052631
 10
3.718421052631579
 20
5.613157894736842
  0
LWPOLYLINE
  5
B0
330
17
100
AcDbEntity
  8
A-WALL
100
AcDbPolyline
 90
3
 70
1
 10
3.686842105263158
 20
5.676315789473684
 10
3.6394736842105266
 20
5.6684210526315795
 10
3.6394736842105266
 20
5.581578947368421
  0
LWPOLYLINE
  5
B1
330
17
100
AcDbEntity
  8
A-WALL
100
AcDbPolyline
 90
5
 70
1
 10
3.4815789473684213
 20
5.676315789473684
 10
3.418421052631579
 20
5.644736842105264
 10
3.418421052631579
 20
5.605263157894737
 10
3.45
 20
5.573684210526316
 10
3.4973684210526317
 20
5.589473684210526
  0
LWPOLYLINE
  5
B2
330
17
100
AcDbEntity
  8
A-WALL
100
AcDbPolyline
 90
4
 70
1
 10
3.4342105263157894
 20
5.613157894736842
 10
3.473684210526316
 20
5.621052631578948
 10
3.4815789473684213
 20
5.605263157894737
 10
3.45
 20
5.589473684210526
  0
LWPOLYLINE
  5
B3
330
17
100
AcDbEntity
  8
A-WALL
100
AcDbPolyline
 90
3
 70
1
 10
3.4342105263157894
 20
5.644736842105264
 10
3.4815789473684213
 20
5.652631578947369
 10
3.473684210526316
 20
5.628947368421053
  0
LWPOLYLINE
  5
B4
330
17
100
AcDbEntity
  8
A-WALL
100
AcDbPolyline
 90
4
 70
1
 10
2.4394736842105265
 20
5.707894736842105
 10
2.447368421052632
 20
5.660526315789474
 10
2.4947368421052634
 20
5.660526315789474
 10
2.4947368421052634
 20
5.707894736842105
  0
LWPOLYLINE
  5
B5
330
17
100
AcDbEntity
  8
A-WALL
100
AcDbPolyline
 90
11
 70
1
 10
2.194736842105263
 20
5.707894736842105
 10
2.1710526315789473
 20
5.636842105263158
 10
2.2263157894736842
 20
5.636842105263158
 10
2.25
 20
5.597368421052631
 10
2.2342105263157896
 20
5.581578947368421
 10
2.1789473684210527
 20
5.597368421052631
 10
2.1710526315789473
 20
5.565789473684211
 10
2.2421052631578946
 20
5.557894736842106
 10
2.2736842105263158
 20
5.621052631578948
 10
2.210526315789474
 20
5.676315789473684
 10
2.2578947368421054
 20
5.7
  0
LWPOLYLINE
  5
B6
330
17
100
AcDbEntity
  8
A-WALL
100
AcDbPolyline
 90
6
 70
1
 10
3.6078947368421055
 20
5.715789473684211
 10
3.5921052631578947
 20
5.6684210526315795
 10
3.5368421052631582
 20
5.6684210526315795
 10
3.5210526315789474
 20
5.636842105263158
 10
3.5368421052631582
 20
5.581578947368421
 10
3.6157894736842104
 20
5.581578947368421
  0
LWPOLYLINE
  5
B7
330
17
100
AcDbEntity
  8
A-WALL
100
AcDbPolyline
 90
5
 70
1
 10
3.560526315789474
 20
5.660526315789474
 10
3.6
 20
5.636842105263158
 10
3.5842105263157897
 20
5.597368421052631
 10
3.544736842105263
 20
5.605263157894737
 10
3.5368421052631582
 20
5.636842105263158
  0
LWPOLYLINE
  5
B8
330
17
100
AcDbEntity
  8
A-WALL
100
AcDbPolyline
 90
4
 70
1
 10
3.292105263157895
 20
5.715789473684211
 10
3.2842105263157895
 20
5.581578947368421
 10
3.378947368421053
 20
5.581578947368421
 10
3.386842105263158
 20
5.7
  0
LWPOLYLINE
  5
B9
330
17
100
AcDbEntity
  8
A-WALL
100
AcDbPolyline
 90
4
 70
1
 10
3.307894736842105
 20
5.628947368421053
 10
3.355263157894737
 20
5.644736842105264
 10
3.378947368421053
 20
5.613157894736842
 10
3.3157894736842106
 20
5.597368421052631
  0
LWPOLYLINE
  5
BA
330
17
100
AcDbEntity
  8
A-WALL
100
AcDbPolyline
 90
4
 70
1
 10
3.307894736842105
 20
5.684210526315789
 10
3.355263157894737
 20
5.692105263157895
 10
3.3710526315789475
 20
5.660526315789474
 10
3.3157894736842106
 20
5.652631578947369
  0
LWPOLYLINE
  5
BB
330
17
100
AcDbEntity
  8
A-WALL
100
AcDbPolyline
 90
5
 70
1
 10
2.376315789473684
 20
5.715789473684211
 10
2.3289473684210527
 20
5.684210526315789
 10
2.336842105263158
 20
5.557894736842106
 10
2.4157894736842107
 20
5.573684210526316
 10
2.4157894736842107
 20
5.676315789473684
  0
LWPOLYLINE
  5
BC
330
17
100
AcDbEntity
  8
A-WALL
100
AcDbPolyline
 90
7
 70
1
 10
2.368421052631579
 20
5.692105263157895
 10
2.4
 20
5.660526315789474
 10
2.4
 20
5.597368421052631
 10
2.376315789473684
 20
5.573684210526316
 10
2.336842105263158
 20
5.597368421052631
 10
2.376315789473684
 20
5.621052631578948
 10
2.3447368421052635
 20
5.644736842105264
  0
LWPOLYLINE
  5
BD
330
17
100
AcDbEntity
  8
A-WALL
100
AcDbPolyline
 90
3
 70
1
 10
2.2894736842105265
 20
5.715789473684211
 10
2.281578947368421
 20
5.6684210526315795
 10
2.305263157894737
 20
5.660526315789474
  0
LWPOLYLINE
  5
BE
330
17
100
AcDbEntity
  8
A-WALL
100
AcDbPolyline
 90
7
 70
1
 10
7.176315789473684
 20
6.031578947368422
 10
6.442105263157895
 20
6.031578947368422
 10
6.442105263157895
 20
5.2894736842105265
 10
6.457894736842105
 20
5.2894736842105265
 10
6.457894736842105
 20
5.992105263157895
 10
6.497368421052632
 20
6.015789473684211
 10
7.144736842105264
 20
6.007894736842106
  0
LWPOLYLINE
  5
BF
330
17
100
AcDbEntity
  8
A-WALL
100
AcDbPolyline
 90
4
 70
1
 10
5.186842105263158
 20
6.221052631578948
 10
5.2026315789473685
 20
6.1421052631578945
 10
5.234210526315789
 20
6.13421052631579
 10
5.265789473684211
 20
6.213157894736843
  0
LWPOLYLINE
  5
C0
330
17
100
AcDbEntity
  8
A-WALL
100
AcDbPolyline
 90
3
 70
1
 10
2.336842105263158
 20
6.260526315789474
 10
2.3289473684210527
 20
5.755263157894737
 10
2.3447368421052635
 20
5.747368421052632
  0
LWPOLYLINE
  5
C1
330
17
100
AcDbEntity
  8
A-WALL
100
AcDbPolyline
 90
4
 70
1
 10
1.918421052631579
 20
6.331578947368421
 10
1.918421052631579
 20
4.863157894736842
 10
1.9342105263157896
 20
4.855263157894737
 10
1.9421052631578948
 20
6.315789473684211
  0
LWPOLYLINE
  5
C2
330
17
100
AcDbEntity
  8
A-WALL
100
AcDbPolyline
 90
3
 70
1
 10
5.218421052631579
 20
6.371052631578948
 10
5.2105263157894735
 20
6.260526315789474
 10
5.234210526315789
 20
6.276315789473684
  0
LWPOLYLINE
  5
C3
330
17
100
AcDbEntity
  8
A-WALL
100
AcDbPolyline
 90
4
 70
1
 10
2.3289473684210527
 20
6.378947368421053
 10
2.2894736842105265
 20
6.292105263157895
 10
2.376315789473684
 20
6.292105263157895
 10
2.3526315789473684
 20
6.371052631578948
  0
LWPOLYLINE
  5
C4
330
17
100
AcDbEntity
  8
A-WALL
100
AcDbPolyline
 90
12
 70
1
 10
6.718421052631579
 20
6.489473684210527
 10
6.718421052631579
 20
6.402631578947369
 10
6.742105263157895
 20
6.410526315789474
 10
6.75
 20
6.481578947368421
 10
6.781578947368422
 20
6.465789473684211
 10
6.773684210526316
 20
6.402631578947369
 10
6.7973684210526315
 20
6.402631578947369
 10
6.813157894736842
 20
6.481578947368421
 10
6.836842105263158
 20
6.473684210526316
 10
6.836842105263158
 20
6.402631578947369
 10
6.860526315789474
 20
6.402631578947369
 10
6.852631578947369
 20
6.489473684210527
  0
LWPOLYLINE
  5
C5
330
17
100
AcDbEntity
  8
A-WALL
100
AcDbPolyline
 90
6
 70
1
 10
6.639473684210526
 20
6.497368421052632
 10
6.6078947368421055
 20
6.465789473684211
 10
6.6078947368421055
 20
6.426315789473684
 10
6.663157894736842
 20
6.394736842105264
 10
6.6947368421052635
 20
6.457894736842105
 10
6.678947368421053
 20
6.489473684210527
  0
LWPOLYLINE
  5
C6
330
17
100
AcDbEntity
  8
A-WALL
100
AcDbPolyline
 90
4
 70
1
 10
6.647368421052632
 20
6.481578947368421
 10
6.678947368421053
 20
6.457894736842105
 10
6.655263157894737
 20
6.410526315789474
 10
6.623684210526316
 20
6.434210526315789
  0
LWPOLYLINE
  5
C7
330
17
100
AcDbEntity
  8
A-WALL
100
AcDbPolyline
 90
5
 70
1
 10
6.505263157894737
 20
6.489473684210527
 10
6.497368421052632
 20
6.4184210526315795
 10
6.528947368421053
 20
6.394736842105264
 10
6.568421052631579
 20
6.402631578947369
 10
6.576315789473685
 20
6.481578947368421
  0
LWPOLYLINE
  5
C8
330
17
100
AcDbEntity
  8
A-WALL
100
AcDbPolyline
 90
4
 70
1
 10
6.536842105263158
 20
6.481578947368421
 10
6.568421052631579
 20
6.465789473684211
 10
6.560526315789474
 20
6.4184210526315795
 10
6.5131578947368425
 20
6.426315789473684
  0
LWPOLYLINE
  5
C9
330
17
100
AcDbEntity
  8
A-WALL
100
AcDbPolyline
 90
5
 70
1
 10
6.481578947368421
 20
6.497368421052632
 10
6.434210526315789
 20
6.489473684210527
 10
6.434210526315789
 20
6.402631578947369
 10
6.457894736842105
 20
6.402631578947369
 10
6.45
 20
6.45
  0
LWPOLYLINE
  5
CA
330
17
100
AcDbEntity
  8
A-WALL
100
AcDbPolyline
 90
6
 70
1
 10
6.268421052631579
 20
6.521052631578947
 10
6.268421052631579
 20
6.410526315789474
 10
6.307894736842106
 20
6.402631578947369
 10
6.28421052631579
 20
6.457894736842105
 10
6.307894736842106
 20
6.489473684210527
 10
6.292105263157895
 20
6.521052631578947
  0
LWPOLYLINE
  5
CB
330
17
100
AcDbEntity
  8
A-WALL
100
AcDbPolyline
 90
9
 70
1
 10
6.331578947368421
 20
6.536842105263158
 10
6.323684210526316
 20
6.410526315789474
 10
6.347368421052632
 20
6.402631578947369
 10
6.339473684210526
 20
6.465789473684211
 10
6.371052631578948
 20
6.481578947368421
 10
6.386842105263158
 20
6.402631578947369
 10
6.410526315789474
 20
6.402631578947369
 10
6.402631578947369
 20
6.481578947368421
 10
6.347368421052632
 20
6.489473684210527
  0
LWPOLYLINE
  5
CC
330
17
100
AcDbEntity
  8
A-WALL
100
AcDbPolyline
 90
12
 70
1
 10
6.031578947368422
 20
6.521052631578947
 10
6.031578947368422
 20
6.402631578947369
 10
6.126315789473685
 20
6.402631578947369
 10
6.15
 20
6.434210526315789
 10
6.189473684210527
 20
6.394736842105264
 10
6.244736842105263
 20
6.410526315789474
 10
6.236842105263158
 20
6.489473684210527
 10
6.165789473684211
 20
6.489473684210527
 10
6.181578947368421
 20
6.45
 10
6.15
 20
6.434210526315789
 10
6.118421052631579
 20
6.528947368421053
 10
6.0473684210526315
 20
6.536842105263158
  0
LWPOLYLINE
  5
CD
330
17
100
AcDbEntity
  8
A-WALL
100
AcDbPolyline
 90
4
 70
1
 10
6.197368421052632
 20
6.45
 10
6.221052631578948
 20
6.442105263157895
 10
6.205263157894737
 20
6.410526315789474
 10
6.181578947368421
 20
6.4184210526315795
  0
LWPOLYLINE
  5
CE
330
17
100
AcDbEntity
  8
A-WALL
100
AcDbPolyline
 90
4
 70
1
 10
6.055263157894737
 20
6.45
 10
6.102631578947369
 20
6.465789473684211
 10
6.118421052631579
 20
6.426315789473684
 10
6.071052631578947
 20
6.410526315789474
  0
LWPOLYLINE
  5
CF
330
17
100
AcDbEntity
  8
A-WALL
100
AcDbPolyline
 90
3
 70
1
 10
6.181578947368421
 20
6.473684210526316
 10
6.221052631578948
 20
6.465789473684211
 10
6.197368421052632
 20
6.45
  0
LWPOLYLINE
  5
D0
330
17
100
AcDbEntity
  8
A-WALL
100
AcDbPolyline
 90
4
 70
1
 10
6.055263157894737
 20
6.505263157894737
 10
6.102631578947369
 20
6.5131578947368425
 10
6.118421052631579
 20
6.481578947368421
 10
6.063157894736842
 20
6.473684210526316
  0
LWPOLYLINE
  5
D1
330
17
100
AcDbEntity
  8
A-WALL
100
AcDbPolyline
 90
5
 70
1
 10
5.2026315789473685
 20
6.568421052631579
 10
5.171052631578948
 20
6.521052631578947
 10
5.2026315789473685
 20
6.5131578947368425
 10
5.218421052631579
 20
6.4184210526315795
 10
5.226315789473684
 20
6.560526315789474
  0
LWPOLYLINE
  5
D2
330
17
100
AcDbEntity
  8
A-WALL
100
AcDbPolyline
 90
11
 70
1
 10
5.431578947368421
 20
6.576315789473685
 10
5.368421052631579
 20
6.544736842105263
 10
5.328947368421053
 20
6.576315789473685
 10
5.281578947368422
 20
6.568421052631579
 10
5.273684210526316
 20
6.442105263157895
 10
5.305263157894737
 20
6.4184210526315795
 10
5.344736842105263
 20
6.426315789473684
 10
5.368421052631579
 20
6.457894736842105
 10
5.368421052631579
 20
6.5131578947368425
 10
5.4
 20
6.536842105263158
 10
5.439473684210527
 20
6.528947368421053
  0
LWPOLYLINE
  5
D3
330
17
100
AcDbEntity
  8
A-WALL
100
AcDbPolyline
 90
5
 70
1
 10
5.313157894736842
 20
6.552631578947369
 10
5.344736842105263
 20
6.505263157894737
 10
5.321052631578947
 20
6.45
 10
5.2894736842105265
 20
6.473684210526316
 10
5.2894736842105265
 20
6.528947368421053
  0
LWPOLYLINE
  5
D4
330
17
100
AcDbEntity
  8
A-WALL
100
AcDbPolyline
 90
3
 70
1
 10
5.123684210526316
 20
6.576315789473685
 10
5.131578947368421
 20
6.5131578947368425
 10
5.139473684210526
 20
6.568421052631579
  0
LWPOLYLINE
  5
D5
330
17
100
AcDbEntity
  8
A-WALL
100
AcDbPolyline
 90
11
 70
1
 10
5.021052631578947
 20
6.576315789473685
 10
5.005263157894737
 20
6.528947368421053
 10
5.021052631578947
 20
6.521052631578947
 10
5.060526315789474
 20
6.560526315789474
 10
5.076315789473685
 20
6.5131578947368425
 10
4.997368421052632
 20
6.434210526315789
 10
5.092105263157895
 20
6.4184210526315795
 10
5.1000000000000005
 20
6.442105263157895
 10
5.052631578947368
 20
6.457894736842105
 10
5.092105263157895
 20
6.497368421052632
 10
5.092105263157895
 20
6.560526315789474
  0
LWPOLYLINE
  5
D6
330
17
100
AcDbEntity
  8
A-WALL
100
AcDbPolyline
 90
3
 70
1
 10
5.218421052631579
 20
6.726315789473684
 10
5.2105263157894735
 20
6.623684210526316
 10
5.234210526315789
 20
6.639473684210526
  0
LWPOLYLINE
  5
D7
330
17
100
AcDbEntity
  8
A-WALL
100
AcDbPolyline
 90
4
 70
1
 10
3.860526315789474
 20
6.710526315789474
 10
4.302631578947368
 20
6.7026315789473685
 10
4.310526315789474
 20
6.718421052631579
 10
3.9157894736842107
 20
6.726315789473684
  0
LWPOLYLINE
  5
D8
330
17
100
AcDbEntity
  8
A-WALL
100
AcDbPolyline
 90
4
 70
1
 10
3.0631578947368423
 20
6.718421052631579
 10
3.0789473684210527
 20
6.7026315789473685
 10
3.4894736842105263
 20
6.710526315789474
 10
3.4815789473684213
 20
6.726315789473684
  0
LWPOLYLINE
  5
D9
330
17
100
AcDbEntity
  8
A-WALL
100
AcDbPolyline
 90
5
 70
1
 10
9.071052631578947
 20
6.726315789473684
 10
9.094736842105263
 20
6.6947368421052635
 10
9.15
 20
6.7026315789473685
 10
9.142105263157895
 20
6.757894736842106
 10
9.094736842105263
 20
6.757894736842106
  0
LWPOLYLINE
  5
DA
330
17
100
AcDbEntity
  8
A-WALL
100
AcDbPolyline
 90
4
 70
1
 10
4.342105263157895
 20
6.742105263157895
 10
4.3500000000000005
 20
6.671052631578948
 10
4.4447368421052635
 20
6.710526315789474
 10
4.36578947368421
 20
6.757894736842106
  0
LWPOLYLINE
  5
DB
330
17
100
AcDbEntity
  8
A-WALL
100
AcDbPolyline
 90
3
 70
1
 10
2.9289473684210527
 20
6.718421052631579
 10
3.0236842105263158
 20
6.671052631578948
 10
3.0236842105263158
 20
6.757894736842106
  0
LWPOLYLINE
  5
DC
330
17
100
AcDbEntity
  8
A-WALL
100
AcDbPolyline
 90
4
 70
1
 10
8.755263157894737
 20
6.765789473684211
 10
8.73157894736842
 20
6.710526315789474
 10
8.778947368421052
 20
6.6947368421052635
 10
8.810526315789474
 20
6.73421052631579
  0
LWPOLYLINE
  5
DD
330
17
100
AcDbEntity
  8
A-WALL
100
AcDbPolyline
 90
29
 70
1
 10
3.5210526315789474
 20
6.678947368421053
 10
3.5368421052631582
 20
6.647368421052632
 10
3.6078947368421055
 20
6.655263157894737
 10
3.6157894736842104
 20
6.726315789473684
 10
3.544736842105263
 20
6.757894736842106
 10
3.560526315789474
 20
6.781578947368422
 10
3.6157894736842104
 20
6.781578947368422
 10
3.6710526315789473
 20
6.742105263157895
 10
3.686842105263158
 20
6.7026315789473685
 10
3.75
 20
6.686842105263158
 10
3.6710526315789473
 20
6.678947368421053
 10
3.6710526315789473
 20
6.663157894736842
 10
3.742105263157895
 20
6.647368421052632
 10
3.7736842105263158
 20
6.686842105263158
 10
3.7736842105263158
 20
6.742105263157895
 10
3.836842105263158
 20
6.75
 10
3.8447368421052635
 20
6.7894736842105265
 10
3.7973684210526315
 20
6.7973684210526315
 10
3.765789473684211
 20
6.757894736842106
 10
3.742105263157895
 20
6.7973684210526315
 10
3.694736842105263
 20
6.7973684210526315
 10
3.6710526315789473
 20
6.765789473684211
 10
3.655263157894737
 20
6.7894736842105265
 10
3.5368421052631582
 20
6.7973684210526315
 10
3.528947368421053
 20
6.726315789473684
 10
3.5842105263157897
 20
6.726315789473684
 10
3.6
 20
6.6947368421052635
 10
3.568421052631579
 20
6.663157894736842
 10
3.544736842105263
 20
6.686842105263158
  0
LWPOLYLINE
  5
DE
330
17
100
AcDbEntity
  8
A-WALL
100
AcDbPolyline
 90
4
 70
1
 10
3.710526315789474
 20
6.773684210526316
 10
3.75
 20
6.757894736842106
 10
3.7342105263157896
 20
6.718421052631579
 10
3.694736842105263
 20
6.73421052631579
  0
LWPOLYLINE
  5
DF
330
17
100
AcDbEntity
  8
A-WALL
100
AcDbPolyline
 90
3
 70
1
 10
5.218421052631579
 20
6.860526315789474
 10
5.178947368421053
 20
6.765789473684211
 10
5.265789473684211
 20
6.765789473684211
  0
LWPOLYLINE
  5
E0
330
17
100
AcDbEntity
  8
A-WALL
100
AcDbPolyline
 90
5
 70
1
 10
8.968421052631578
 20
6.88421052631579
 10
8.968421052631578
 20
6.552631578947369
 10
9.236842105263158
 20
6.552631578947369
 10
9.25263157894737
 20
6.568421052631579
 10
9.244736842105263
 20
6.88421052631579
  0
LWPOLYLINE
  5
E1
330
17
100
AcDbEntity
  8
A-WALL
100
AcDbPolyline
 90
6
 70
1
 10
9.0
 20
6.860526315789474
 10
9.221052631578948
 20
6.852631578947369
 10
9.228947368421053
 20
6.592105263157895
 10
9.213157894736842
 20
6.576315789473685
 10
8.98421052631579
 20
6.58421052631579
 10
8.98421052631579
 20
6.844736842105263
  0
LWPOLYLINE
  5
E2
330
17
100
AcDbEntity
  8
A-WALL
100
AcDbPolyline
 90
6
 70
1
 10
8.636842105263158
 20
6.88421052631579
 10
8.636842105263158
 20
6.552631578947369
 10
8.905263157894737
 20
6.552631578947369
 10
8.921052631578947
 20
6.568421052631579
 10
8.921052631578947
 20
6.876315789473685
 10
8.865789473684211
 20
6.892105263157895
  0
LWPOLYLINE
  5
E3
330
17
100
AcDbEntity
  8
A-WALL
100
AcDbPolyline
 90
7
 70
1
 10
8.660526315789474
 20
6.860526315789474
 10
8.881578947368421
 20
6.860526315789474
 10
8.897368421052631
 20
6.844736842105263
 10
8.897368421052631
 20
6.592105263157895
 10
8.873684210526315
 20
6.568421052631579
 10
8.66842105263158
 20
6.568421052631579
 10
8.65263157894737
 20
6.58421052631579
  0
LWPOLYLINE
  5
E4
330
17
100
AcDbEntity
  8
A-WALL
100
AcDbPolyline
 90
4
 70
1
 10
8.123684210526315
 20
7.097368421052632
 10
8.131578947368421
 20
7.081578947368421
 10
9.765789473684212
 20
7.089473684210526
 10
9.757894736842106
 20
7.105263157894737
  0
LWPOLYLINE
  5
E5
330
17
100
AcDbEntity
  8
A-WALL
100
AcDbPolyline
 90
4
 70
1
 10
6.023684210526316
 20
7.089473684210526
 10
6.805263157894737
 20
7.081578947368421
 10
6.813157894736842
 20
7.097368421052632
 10
6.031578947368422
 20
7.105263157894737
  0
LWPOLYLINE
  5
E6
330
17
100
AcDbEntity
  8
A-WALL
100
AcDbPolyline
 90
4
 70
1
 10
2.968421052631579
 20
7.097368421052632
 10
2.9763157894736842
 20
7.081578947368421
 10
4.4447368421052635
 20
7.089473684210526
 10
4.428947368421053
 20
7.105263157894737
  0
LWPOLYLINE
  5
E7
330
17
100
AcDbEntity
  8
A-WALL
100
AcDbPolyline
 90
96
 70
1
 10
0.6552631578947369
 20
6.6947368421052635
 10
0.6631578947368422
 20
3.947368421052632
 10
0.6394736842105263
 20
3.6789473684210527
 10
0.6473684210526316
 20
3.694736842105263
 10
0.6710526315789473
 20
3.6631578947368424
 10
0.6710526315789473
 20
3.568421052631579
 10
0.6394736842105263
 20
3.4973684210526317
 10
0.6552631578947369
 20
3.505263157894737
 10
0.6789473684210526
 20
3.473684210526316
 10
0.6789473684210526
 20
1.0894736842105264
 10
0.6631578947368422
 20
0.9710526315789474
 10
0.6789473684210526
 20
0.9
 10
0.631578947368421
 20
0.8763157894736843
 10
1.7921052631578949
 20
0.868421052631579
 10
1.7921052631578949
 20
0.8842105263157896
 10
0.8131578947368421
 20
0.8842105263157896
 10
0.7973684210526316
 20
0.9
 10
0.8526315789473684
 20
0.9157894736842106
 10
1.8394736842105264
 20
0.9236842105263158
 10
1.8315789473684212
 20
0.8289473684210527
 10
1.8631578947368421
 20
0.8131578947368421
 10
2.526315789473684
 20
0.8210526315789474
 10
2.6763157894736844
 20
0.8052631578947369
 10
4.113157894736842
 20
0.8210526315789474
 10
10.75263157894737
 20
0.8131578947368421
 10
10.76842105263158
 20
0.8210526315789474
 10
10.76842105263158
 20
2.5973684210526318
 10
10.839473684210526
 20
2.692105263157895
 10
11.21842105263158
 20
3.0631578947368423
 10
11.163157894736843
 20
3.1342105263157896
 10
10.90263157894737
 20
3.2526315789473683
 10
11.107894736842105
 20
3.3394736842105264
 10
11.21842105263158
 20
3.45
 10
10.76842105263158
 20
3.892105263157895
 10
10.75263157894737
 20
7.05
 10
10.76842105263158
 20
7.065789473684211
 10
11.897368421052631
 20
7.065789473684211
 10
11.913157894736843
 20
7.05
 10
11.905263157894737
 20
6.88421052631579
 10
12.086842105263159
 20
6.860526315789474
 10
12.094736842105263
 20
1.1526315789473685
 10
11.913157894736843
 20
1.1368421052631579
 10
11.921052631578947
 20
0.9631578947368421
 10
12.063157894736843
 20
0.9710526315789474
 10
12.078947368421053
 20
0.9394736842105263
 10
10.807894736842105
 20
0.9394736842105263
 10
10.8
 20
0.9236842105263158
 10
12.086842105263159
 20
0.9157894736842106
 10
12.110526315789475
 20
0.9315789473684211
 10
12.110526315789475
 20
7.0736842105263165
 10
10.76842105263158
 20
7.0736842105263165
 10
10.75263157894737
 20
7.097368421052632
 10
10.76842105263158
 20
7.113157894736842
 10
12.15
 20
7.105263157894737
 10
12.15
 20
7.121052631578948
 10
10.76842105263158
 20
7.121052631578948
 10
10.760526315789473
 20
7.176315789473684
 10
9.805263157894737
 20
7.184210526315789
 10
9.789473684210527
 20
7.176315789473684
 10
9.805263157894737
 20
7.144736842105264
 10
9.789473684210527
 20
7.010526315789474
 10
8.092105263157896
 20
7.010526315789474
 10
8.076315789473684
 20
7.05
 10
8.1
 20
7.089473684210526
 10
8.076315789473684
 20
7.113157894736842
 10
8.092105263157896
 20
7.1684210526315795
 10
9.773684210526316
 20
7.176315789473684
 10
9.757894736842106
 20
7.192105263157895
 10
8.131578947368421
 20
7.192105263157895
 10
8.08421052631579
 20
7.176315789473684
 10
6.031578947368422
 20
7.192105263157895
 10
6.015789473684211
 20
7.176315789473684
 10
6.0473684210526315
 20
7.160526315789474
 10
6.828947368421053
 20
7.1684210526315795
 10
6.852631578947369
 20
7.057894736842106
 10
6.828947368421053
 20
7.010526315789474
 10
6.0
 20
7.010526315789474
 10
5.98421052631579
 20
7.042105263157895
 10
6.0
 20
7.176315789473684
 10
5.98421052631579
 20
7.184210526315789
 10
1.8394736842105264
 20
7.176315789473684
 10
1.8473684210526315
 20
6.710526315789474
 10
1.8315789473684212
 20
6.6947368421052635
 10
1.8394736842105264
 20
6.402631578947369
 10
1.8157894736842106
 20
6.197368421052632
 10
1.2789473684210526
 20
6.189473684210527
 10
1.263157894736842
 20
6.213157894736843
 10
1.263157894736842
 20
6.4184210526315795
 10
1.2789473684210526
 20
6.434210526315789
 10
1.8
 20
6.434210526315789
 10
1.7921052631578949
 20
6.45
 10
1.2789473684210526
 20
6.442105263157895
 10
1.263157894736842
 20
6.457894736842105
 10
1.2710526315789474
 20
6.678947368421053
 10
1.7921052631578949
 20
6.678947368421053
 10
1.8078947368421052
 20
6.6947368421052635
  0
LWPOLYLINE
  5
E8
330
17
100
AcDbEntity
  8
A-WALL
100
AcDbPolyline
 90
9
 70
1
 10
4.144736842105264
 20
0.9236842105263158
 10
4.160526315789474
 20
0.9394736842105263
 10
4.705263157894737
 20
0.9394736842105263
 10
4.78421052631579
 20
0.9789473684210527
 10
4.863157894736842
 20
0.9394736842105263
 10
5.86578947368421
 20
0.9394736842105263
 10
5.889473684210526
 20
0.8842105263157896
 10
5.8578947368421055
 20
0.8605263157894737
 10
4.152631578947369
 20
0.868421052631579
  0
LWPOLYLINE
  5
E9
330
17
100
AcDbEntity
  8
A-WALL
100
AcDbPolyline
 90
6
 70
1
 10
10.705263157894738
 20
1.0026315789473685
 10
10.713157894736842
 20
0.8842105263157896
 10
10.618421052631579
 20
0.8605263157894737
 10
10.594736842105263
 20
0.8842105263157896
 10
10.610526315789475
 20
0.9710526315789474
 10
10.657894736842106
 20
1.0105263157894737
  0
LWPOLYLINE
  5
EA
330
17
100
AcDbEntity
  8
A-WALL
100
AcDbPolyline
 90
6
 70
1
 10
0.7105263157894737
 20
1.0657894736842106
 10
0.8131578947368421
 20
1.0657894736842106
 10
0.8368421052631579
 20
1.0421052631578949
 10
0.8131578947368421
 20
0.9157894736842106
 10
0.6947368421052632
 20
0.9315789473684211
 10
0.6868421052631579
 20
1.0421052631578949
  0
LWPOLYLINE
  5
EB
330
17
100
AcDbEntity
  8
A-WALL
100
AcDbPolyline
 90
5
 70
1
 10
1.8789473684210527
 20
1.0894736842105264
 10
1.8631578947368421
 20
0.9394736842105263
 10
1.7131578947368422
 20
0.9552631578947369
 10
1.736842105263158
 20
1.0894736842105264
 10
1.8236842105263158
 20
1.105263157894737
  0
LWPOLYLINE
  5
EC
330
17
100
AcDbEntity
  8
A-WALL
100
AcDbPolyline
 90
4
 70
1
 10
11.952631578947368
 20
1.1289473684210527
 10
12.078947368421053
 20
1.1131578947368421
 10
12.063157894736843
 20
0.9710526315789474
 10
11.936842105263159
 20
0.9947368421052631
  0
LWPOLYLINE
  5
ED
330
17
100
AcDbEntity
  8
A-WALL
100
AcDbPolyline
 90
13
 70
1
 10
1.9026315789473685
 20
1.563157894736842
 10
1.9578947368421054
 20
1.5473684210526317
 10
1.9578947368421054
 20
1.105263157894737
 10
1.981578947368421
 20
0.9710526315789474
 10
2.028947368421053
 20
0.9394736842105263
 10
2.486842105263158
 20
0.9394736842105263
 10
2.5026315789473683
 20
0.9236842105263158
 10
2.486842105263158
 20
0.868421052631579
 10
1.9105263157894739
 20
0.8605263157894737
 10
1.8868421052631579
 20
0.8763157894736843
 10
1.918421052631579
 20
1.0026315789473685
 10
1.8868421052631579
 20
1.1368421052631579
 10
1.8868421052631579
 20
1.5394736842105263
  0
LWPOLYLINE
  5
EE
330
17
100
AcDbEntity
  8
A-WALL
100
AcDbPolyline
 90
12
 70
1
 10
10.626315789473685
 20
2.5973684210526318
 10
10.673684210526316
 20
2.573684210526316
 10
10.673684210526316
 20
1.0736842105263158
 10
10.689473684210526
 20
1.1131578947368421
 10
10.681578947368422
 20
2.573684210526316
 10
10.697368421052632
 20
2.5973684210526318
 10
10.736842105263158
 20
2.5973684210526318
 10
10.75263157894737
 20
2.573684210526316
 10
10.75263157894737
 20
1.0657894736842106
 10
10.728947368421053
 20
1.05
 10
10.602631578947369
 20
1.0657894736842106
 10
10.602631578947369
 20
2.573684210526316
  0
LWPOLYLINE
  5
EF
330
17
100
AcDbEntity
  8
A-WALL
100
AcDbPolyline
 90
5
 70
1
 10
0.7026315789473685
 20
3.655263157894737
 10
0.8368421052631579
 20
3.6315789473684212
 10
0.8210526315789474
 20
3.4894736842105263
 10
0.6947368421052632
 20
3.4973684210526317
 10
0.6868421052631579
 20
3.6315789473684212
  0
LWPOLYLINE
  5
F0
330
17
100
AcDbEntity
  8
A-WALL
100
AcDbPolyline
 90
21
 70
1
 10
1.263157894736842
 20
3.9078947368421053
 10
1.286842105263158
 20
3.923684210526316
 10
1.8236842105263158
 20
3.923684210526316
 10
1.8394736842105264
 20
3.9078947368421053
 10
1.8394736842105264
 20
3.5921052631578947
 10
1.8236842105263158
 20
3.5842105263157897
 10
1.8473684210526315
 20
3.568421052631579
 10
1.8473684210526315
 20
3.5210526315789474
 10
1.8315789473684212
 20
3.505263157894737
 10
1.6736842105263159
 20
3.5210526315789474
 10
1.6736842105263159
 20
3.6394736842105266
 10
1.7842105263157895
 20
3.655263157894737
 10
1.7842105263157895
 20
3.686842105263158
 10
1.3736842105263158
 20
3.694736842105263
 10
1.3026315789473684
 20
3.6789473684210527
 10
1.286842105263158
 20
3.710526315789474
 10
1.381578947368421
 20
3.7578947368421054
 10
1.3894736842105264
 20
3.7894736842105265
 10
1.3421052631578947
 20
3.781578947368421
 10
1.286842105263158
 20
3.718421052631579
 10
1.2710526315789474
 20
3.7263157894736842
  0
LWPOLYLINE
  5
F1
330
17
100
AcDbEntity
  8
A-WALL
100
AcDbPolyline
 90
6
 70
1
 10
1.2473684210526317
 20
3.9078947368421053
 10
1.231578947368421
 20
3.686842105263158
 10
0.6947368421052632
 20
3.6789473684210527
 10
0.6789473684210526
 20
3.694736842105263
 10
0.6868421052631579
 20
3.9157894736842107
 10
1.231578947368421
 20
3.923684210526316
  0
LWPOLYLINE
  5
F2
330
17
100
AcDbEntity
  8
A-WALL
100
AcDbPolyline
 90
11
 70
1
 10
1.2473684210526317
 20
4.413157894736842
 10
1.2473684210526317
 20
3.947368421052632
 10
1.231578947368421
 20
3.931578947368421
 10
0.6868421052631579
 20
3.931578947368421
 10
0.6710526315789473
 20
3.947368421052632
 10
0.6947368421052632
 20
4.1684210526315795
 10
1.2157894736842105
 20
4.1684210526315795
 10
1.1921052631578948
 20
4.192105263157895
 10
0.6868421052631579
 20
4.184210526315789
 10
0.6868421052631579
 20
4.421052631578948
 10
1.231578947368421
 20
4.428947368421053
  0
LWPOLYLINE
  5
F3
330
17
100
AcDbEntity
  8
A-WALL
100
AcDbPolyline
 90
8
 70
1
 10
1.2473684210526317
 20
4.673684210526316
 10
1.2473684210526317
 20
4.4526315789473685
 10
1.231578947368421
 20
4.436842105263158
 10
0.6947368421052632
 20
4.436842105263158
 10
0.6789473684210526
 20
4.4526315789473685
 10
0.6789473684210526
 20
4.66578947368421
 10
0.6947368421052632
 20
4.681578947368421
 10
1.231578947368421
 20
4.689473684210527
  0
LWPOLYLINE
  5
F4
330
17
100
AcDbEntity
  8
A-WALL
100
AcDbPolyline
 90
10
 70
1
 10
1.9105263157894739
 20
4.78421052631579
 10
1.9657894736842105
 20
4.752631578947368
 10
1.9578947368421054
 20
4.389473684210526
 10
1.9657894736842105
 20
4.255263157894737
 10
1.9973684210526317
 20
4.184210526315789
 10
1.9578947368421054
 20
4.073684210526316
 10
1.973684210526316
 20
3.0236842105263158
 10
1.9421052631578948
 20
2.968421052631579
 10
1.8868421052631579
 20
2.992105263157895
 10
1.8789473684210527
 20
4.760526315789474
  0
LWPOLYLINE
  5
F5
330
17
100
AcDbEntity
  8
A-WALL
100
AcDbPolyline
 90
21
 70
1
 10
1.2789473684210526
 20
4.926315789473684
 10
1.8078947368421052
 20
4.926315789473684
 10
1.8236842105263158
 20
4.910526315789474
 10
1.8394736842105264
 20
4.78421052631579
 10
1.8236842105263158
 20
4.697368421052632
 10
1.8394736842105264
 20
4.673684210526316
 10
1.8315789473684212
 20
3.931578947368421
 10
1.2789473684210526
 20
3.931578947368421
 10
1.263157894736842
 20
3.947368421052632
 10
1.2710526315789474
 20
4.421052631578948
 10
1.8
 20
4.428947368421053
 10
1.7921052631578949
 20
4.4447368421052635
 10
1.2789473684210526
 20
4.436842105263158
 10
1.263157894736842
 20
4.4526315789473685
 10
1.263157894736842
 20
4.66578947368421
 10
1.2789473684210526
 20
4.681578947368421
 10
1.8
 20
4.681578947368421
 10
1.7921052631578949
 20
4.705263157894737
 10
1.286842105263158
 20
4.697368421052632
 10
1.263157894736842
 20
4.713157894736843
 10
1.263157894736842
 20
4.910526315789474
  0
LWPOLYLINE
  5
F6
330
17
100
AcDbEntity
  8
A-WALL
100
AcDbPolyline
 90
7
 70
1
 10
1.263157894736842
 20
5.163157894736842
 10
1.2947368421052632
 20
5.178947368421053
 10
1.8157894736842106
 20
5.171052631578948
 10
1.8236842105263158
 20
4.957894736842105
 10
1.8078947368421052
 20
4.942105263157895
 10
1.286842105263158
 20
4.942105263157895
 10
1.263157894736842
 20
4.965789473684211
  0
LWPOLYLINE
  5
F7
330
17
100
AcDbEntity
  8
A-WALL
100
AcDbPolyline
 90
13
 70
1
 10
1.2473684210526317
 20
5.163157894736842
 10
1.2473684210526317
 20
4.713157894736843
 10
1.231578947368421
 20
4.689473684210527
 10
1.2157894736842105
 20
4.705263157894737
 10
0.6789473684210526
 20
4.713157894736843
 10
0.6710526315789473
 20
4.894736842105264
 10
0.6947368421052632
 20
4.926315789473684
 10
1.223684210526316
 20
4.926315789473684
 10
1.2157894736842105
 20
4.95
 10
0.6947368421052632
 20
4.942105263157895
 10
0.6789473684210526
 20
4.957894736842105
 10
0.6868421052631579
 20
5.171052631578948
 10
1.231578947368421
 20
5.178947368421053
  0
LWPOLYLINE
  5
F8
330
17
100
AcDbEntity
  8
A-WALL
100
AcDbPolyline
 90
4
 70
1
 10
7.247368421052632
 20
5.336842105263158
 10
7.255263157894737
 20
5.2105263157894735
 10
7.152631578947369
 20
5.218421052631579
 10
7.144736842105264
 20
5.242105263157895
  0
LWPOLYLINE
  5
F9
330
17
100
AcDbEntity
  8
A-WALL
100
AcDbPolyline
 90
7
 70
1
 10
1.263157894736842
 20
5.4
 10
1.286842105263158
 20
5.423684210526316
 10
1.8078947368421052
 20
5.423684210526316
 10
1.8236842105263158
 20
5.407894736842105
 10
1.8236842105263158
 20
5.2026315789473685
 10
1.286842105263158
 20
5.186842105263158
 10
1.263157894736842
 20
5.2026315789473685
  0
LWPOLYLINE
  5
FA
330
17
100
AcDbEntity
  8
A-WALL
100
AcDbPolyline
 90
6
 70
1
 10
5.968421052631579
 20
5.439473684210527
 10
6.268421052631579
 20
5.447368421052632
 10
6.28421052631579
 20
5.265789473684211
 10
6.268421052631579
 20
5.25
 10
5.976315789473684
 20
5.25
 10
5.9605263157894735
 20
5.265789473684211
  0
LWPOLYLINE
  5
FB
330
17
100
AcDbEntity
  8
A-WALL
100
AcDbPolyline
 90
6
 70
1
 10
10.689473684210526
 20
5.471052631578948
 10
10.736842105263158
 20
5.471052631578948
 10
10.760526315789473
 20
5.447368421052632
 10
10.744736842105263
 20
5.38421052631579
 10
10.744736842105263
 20
3.931578947368421
 10
10.681578947368422
 20
3.9394736842105265
  0
LWPOLYLINE
  5
FC
330
17
100
AcDbEntity
  8
A-WALL
100
AcDbPolyline
 90
6
 70
1
 10
1.263157894736842
 20
5.652631578947369
 10
1.286842105263158
 20
5.676315789473684
 10
1.8157894736842106
 20
5.6684210526315795
 10
1.8236842105263158
 20
5.447368421052632
 10
1.286842105263158
 20
5.431578947368421
 10
1.263157894736842
 20
5.455263157894737
  0
LWPOLYLINE
  5
FD
330
17
100
AcDbEntity
  8
A-WALL
100
AcDbPolyline
 90
10
 70
1
 10
1.2473684210526317
 20
5.660526315789474
 10
1.2473684210526317
 20
5.2026315789473685
 10
1.231578947368421
 20
5.186842105263158
 10
0.6789473684210526
 20
5.2026315789473685
 10
0.6868421052631579
 20
5.41578947368421
 10
1.223684210526316
 20
5.423684210526316
 10
1.2157894736842105
 20
5.439473684210527
 10
0.6868421052631579
 20
5.439473684210527
 10
0.6868421052631579
 20
5.6684210526315795
 10
1.231578947368421
 20
5.676315789473684
  0
LWPOLYLINE
  5
FE
330
17
100
AcDbEntity
  8
A-WALL
100
AcDbPolyline
 90
4
 70
1
 10
7.610526315789474
 20
5.731578947368421
 10
7.65
 20
5.739473684210527
 10
7.665789473684211
 20
5.7
 10
7.626315789473685
 20
5.692105263157895
  0
LWPOLYLINE
  5
FF
330
17
100
AcDbEntity
  8
A-WALL
100
AcDbPolyline
 90
4
 70
1
 10
7.4526315789473685
 20
5.755263157894737
 10
7.460526315789474
 20
5.7
 10
7.413157894736842
 20
5.684210526315789
 10
7.405263157894737
 20
5.723684210526316
  0
LWPOLYLINE
  5
100
330
17
100
AcDbEntity
  8
A-WALL
100
AcDbPolyline
 90
10
 70
1
 10
6.0
 20
5.755263157894737
 10
6.071052631578947
 20
5.786842105263158
 10
6.173684210526316
 20
5.786842105263158
 10
6.268421052631579
 20
5.731578947368421
 10
6.3
 20
5.621052631578948
 10
6.28421052631579
 20
5.455263157894737
 10
6.244736842105263
 20
5.471052631578948
 10
5.9605263157894735
 20
5.463157894736843
 10
5.9447368421052635
 20
5.478947368421053
 10
5.9447368421052635
 20
5.676315789473684
  0
LWPOLYLINE
  5
101
330
17
100
AcDbEntity
  8
A-WALL
100
AcDbPolyline
 90
7
 70
1
 10
1.263157894736842
 20
5.913157894736842
 10
1.2789473684210526
 20
5.928947368421053
 10
1.8157894736842106
 20
5.928947368421053
 10
1.8315789473684212
 20
5.913157894736842
 10
1.8236842105263158
 20
5.7
 10
1.2789473684210526
 20
5.692105263157895
 10
1.263157894736842
 20
5.707894736842105
  0
LWPOLYLINE
  5
102
330
17
100
AcDbEntity
  8
A-WALL
100
AcDbPolyline
 90
7
 70
1
 10
0.6710526315789473
 20
5.913157894736842
 10
0.6868421052631579
 20
5.928947368421053
 10
1.231578947368421
 20
5.928947368421053
 10
1.2473684210526317
 20
5.913157894736842
 10
1.2473684210526317
 20
5.707894736842105
 10
1.231578947368421
 20
5.684210526315789
 10
0.6868421052631579
 20
5.692105263157895
  0
LWPOLYLINE
  5
103
330
17
100
AcDbEntity
  8
A-WALL
100
AcDbPolyline
 90
14
 70
1
 10
7.673684210526316
 20
5.968421052631579
 10
7.744736842105263
 20
5.968421052631579
 10
7.768421052631579
 20
5.936842105263158
 10
7.768421052631579
 20
5.747368421052632
 10
7.744736842105263
 20
5.723684210526316
 10
7.705263157894737
 20
5.723684210526316
 10
7.65
 20
5.771052631578947
 10
7.642105263157895
 20
5.810526315789474
 10
7.665789473684211
 20
5.842105263157895
 10
7.736842105263158
 20
5.842105263157895
 10
7.728947368421053
 20
5.8578947368421055
 10
7.665789473684211
 20
5.8500000000000005
 10
7.642105263157895
 20
5.873684210526316
 10
7.642105263157895
 20
5.9447368421052635
  0
LWPOLYLINE
  5
104
330
17
100
AcDbEntity
  8
A-WALL
100
AcDbPolyline
 90
5
 70
1
 10
7.63421052631579
 20
5.936842105263158
 10
7.602631578947369
 20
5.8500000000000005
 10
7.436842105263158
 20
5.86578947368421
 10
7.4526315789473685
 20
5.9605263157894735
 10
7.602631578947369
 20
5.968421052631579
  0
LWPOLYLINE
  5
105
330
17
100
AcDbEntity
  8
A-WALL
100
AcDbPolyline
 90
5
 70
1
 10
10.097368421052632
 20
5.968421052631579
 10
10.594736842105263
 20
5.968421052631579
 10
10.594736842105263
 20
5.486842105263158
 10
10.571052631578947
 20
5.463157894736843
 10
10.097368421052632
 20
5.478947368421053
  0
LWPOLYLINE
  5
106
330
17
100
AcDbEntity
  8
A-WALL
100
AcDbPolyline
 90
6
 70
1
 10
7.744736842105263
 20
6.094736842105263
 10
7.768421052631579
 20
6.063157894736842
 10
7.760526315789474
 20
5.98421052631579
 10
7.665789473684211
 20
5.976315789473684
 10
7.657894736842105
 20
6.0473684210526315
 10
7.697368421052632
 20
6.086842105263158
  0
LWPOLYLINE
  5
107
330
17
100
AcDbEntity
  8
A-WALL
100
AcDbPolyline
 90
6
 70
1
 10
7.428947368421053
 20
6.0
 10
7.492105263157895
 20
6.094736842105263
 10
7.571052631578947
 20
6.094736842105263
 10
7.626315789473685
 20
6.0394736842105265
 10
7.610526315789474
 20
5.976315789473684
 10
7.4526315789473685
 20
5.976315789473684
  0
LWPOLYLINE
  5
108
330
17
100
AcDbEntity
  8
A-WALL
100
AcDbPolyline
 90
4
 70
1
 10
7.610526315789474
 20
6.126315789473685
 10
7.657894736842105
 20
6.13421052631579
 10
7.665789473684211
 20
6.078947368421053
 10
7.618421052631579
 20
6.071052631578947
  0
LWPOLYLINE
  5
109
330
17
100
AcDbEntity
  8
A-WALL
100
AcDbPolyline
 90
6
 70
1
 10
1.263157894736842
 20
6.157894736842105
 10
1.286842105263158
 20
6.181578947368421
 10
1.8157894736842106
 20
6.173684210526316
 10
1.8315789473684212
 20
5.968421052631579
 10
1.8157894736842106
 20
5.9447368421052635
 10
1.2710526315789474
 20
5.9447368421052635
  0
LWPOLYLINE
  5
10A
330
17
100
AcDbEntity
  8
A-WALL
100
AcDbPolyline
 90
5
 70
1
 10
7.65
 20
6.205263157894737
 10
7.752631578947368
 20
6.221052631578948
 10
7.768421052631579
 20
6.13421052631579
 10
7.752631578947368
 20
6.118421052631579
 10
7.673684210526316
 20
6.126315789473685
  0
LWPOLYLINE
  5
10B
330
17
100
AcDbEntity
  8
A-WALL
100
AcDbPolyline
 90
50
 70
1
 10
7.318421052631579
 20
6.228947368421053
 10
7.618421052631579
 20
6.221052631578948
 10
7.63421052631579
 20
6.205263157894737
 10
7.626315789473685
 20
6.165789473684211
 10
7.578947368421053
 20
6.118421052631579
 10
7.492105263157895
 20
6.110526315789474
 10
7.428947368421053
 20
6.189473684210527
 10
7.413157894736842
 20
6.1421052631578945
 10
7.3578947368421055
 20
6.110526315789474
 10
7.397368421052632
 20
6.071052631578947
 10
7.405263157894737
 20
6.126315789473685
 10
7.4526315789473685
 20
6.13421052631579
 10
7.468421052631579
 20
6.078947368421053
 10
7.421052631578948
 20
6.071052631578947
 10
7.428947368421053
 20
6.0
 10
7.36578947368421
 20
5.976315789473684
 10
7.428947368421053
 20
5.9447368421052635
 10
7.413157894736842
 20
5.8500000000000005
 10
7.36578947368421
 20
5.8500000000000005
 10
7.421052631578948
 20
5.826315789473685
 10
7.421052631578948
 20
5.771052631578947
 10
7.3578947368421055
 20
5.715789473684211
 10
7.428947368421053
 20
5.652631578947369
 10
7.428947368421053
 20
5.628947368421053
 10
7.48421052631579
 20
5.692105263157895
 10
7.476315789473684
 20
5.747368421052632
 10
7.436842105263158
 20
5.778947368421052
 10
7.4447368421052635
 20
5.83421052631579
 10
7.602631578947369
 20
5.8500000000000005
 10
7.626315789473685
 20
5.818421052631579
 10
7.618421052631579
 20
5.7631578947368425
 10
7.578947368421053
 20
5.723684210526316
 10
7.507894736842106
 20
5.731578947368421
 10
7.507894736842106
 20
5.707894736842105
 10
7.586842105263158
 20
5.7
 10
7.626315789473685
 20
5.621052631578948
 10
7.689473684210527
 20
5.7
 10
7.744736842105263
 20
5.707894736842105
 10
7.776315789473684
 20
5.628947368421053
 10
7.776315789473684
 20
6.205263157894737
 10
7.792105263157895
 20
6.221052631578948
 10
7.807894736842106
 20
6.205263157894737
 10
7.8
 20
6.173684210526316
 10
7.831578947368421
 20
6.1421052631578945
 10
7.839473684210526
 20
5.747368421052632
 10
7.8236842105263165
 20
5.6684210526315795
 10
7.8
 20
5.652631578947369
 10
7.815789473684211
 20
5.597368421052631
 10
7.326315789473685
 20
5.589473684210526
 10
7.302631578947369
 20
5.613157894736842
  0
LWPOLYLINE
  5
10C
330
17
100
AcDbEntity
  8
A-WALL
100
AcDbPolyline
 90
15
 70
1
 10
0.6868421052631579
 20
6.678947368421053
 10
1.231578947368421
 20
6.686842105263158
 10
1.2473684210526317
 20
6.671052631578948
 10
1.2473684210526317
 20
5.9526315789473685
 10
1.231578947368421
 20
5.936842105263158
 10
0.6789473684210526
 20
5.9526315789473685
 10
0.6868421052631579
 20
6.173684210526316
 10
1.2157894736842105
 20
6.173684210526316
 10
1.2157894736842105
 20
6.197368421052632
 10
0.6868421052631579
 20
6.197368421052632
 10
0.6868421052631579
 20
6.426315789473684
 10
1.223684210526316
 20
6.434210526315789
 10
1.2157894736842105
 20
6.45
 10
0.6947368421052632
 20
6.442105263157895
 10
0.6789473684210526
 20
6.457894736842105
  0
LWPOLYLINE
  5
10D
330
17
100
AcDbEntity
  8
A-WALL
100
AcDbPolyline
 90
7
 70
1
 10
1.9105263157894739
 20
6.915789473684211
 10
1.9657894736842105
 20
6.88421052631579
 10
1.9657894736842105
 20
6.434210526315789
 10
1.95
 20
6.410526315789474
 10
1.9026315789473685
 20
6.410526315789474
 10
1.8789473684210527
 20
6.434210526315789
 10
1.8868421052631579
 20
6.892105263157895
  0
LWPOLYLINE
  5
10E
330
17
100
AcDbEntity
  8
A-WALL
100
AcDbPolyline
 90
16
 70
1
 10
7.294736842105263
 20
6.994736842105263
 10
7.318421052631579
 20
7.018421052631579
 10
8.1
 20
6.994736842105263
 10
9.757894736842106
 20
6.994736842105263
 10
10.578947368421053
 20
7.018421052631579
 10
10.602631578947369
 20
6.994736842105263
 10
10.594736842105263
 20
5.992105263157895
 10
10.105263157894736
 20
5.98421052631579
 10
10.089473684210526
 20
6.0
 10
10.097368421052632
 20
6.481578947368421
 10
10.073684210526316
 20
6.505263157894737
 10
7.815789473684211
 20
6.505263157894737
 10
7.815789473684211
 20
6.260526315789474
 10
7.792105263157895
 20
6.236842105263158
 10
7.318421052631579
 20
6.236842105263158
 10
7.294736842105263
 20
6.260526315789474
  0
LWPOLYLINE
  5
10F
330
17
100
AcDbEntity
  8
A-WALL
100
AcDbPolyline
 90
42
 70
1
 10
5.628947368421053
 20
7.018421052631579
 10
6.0394736842105265
 20
6.994736842105263
 10
6.805263157894737
 20
6.994736842105263
 10
7.184210526315789
 20
7.018421052631579
 10
7.223684210526316
 20
7.002631578947368
 10
7.215789473684211
 20
5.376315789473685
 10
7.1684210526315795
 20
5.328947368421053
 10
7.081578947368421
 20
5.502631578947368
 10
7.065789473684211
 20
5.494736842105263
 10
7.089473684210526
 20
5.447368421052632
 10
7.081578947368421
 20
5.407894736842105
 10
7.03421052631579
 20
5.471052631578948
 10
7.010526315789474
 20
5.463157894736843
 10
7.065789473684211
 20
5.407894736842105
 10
7.065789473684211
 20
5.352631578947369
 10
7.089473684210526
 20
5.352631578947369
 10
7.081578947368421
 20
5.3921052631578945
 10
7.105263157894737
 20
5.4
 10
7.152631578947369
 20
5.313157894736842
 10
7.097368421052632
 20
5.25
 10
6.307894736842106
 20
5.25
 10
6.292105263157895
 20
5.265789473684211
 10
6.292105263157895
 20
5.423684210526316
 10
6.315789473684211
 20
5.463157894736843
 10
6.315789473684211
 20
5.676315789473684
 10
6.292105263157895
 20
5.747368421052632
 10
6.221052631578948
 20
5.802631578947369
 10
6.15
 20
5.818421052631579
 10
6.023684210526316
 20
5.802631578947369
 10
5.936842105263158
 20
5.715789473684211
 10
5.928947368421053
 20
5.502631578947368
 10
5.9526315789473685
 20
5.265789473684211
 10
5.936842105263158
 20
5.25
 10
5.621052631578948
 20
5.25
 10
5.605263157894737
 20
5.273684210526316
 10
5.613157894736842
 20
6.118421052631579
 10
5.581578947368421
 20
6.086842105263158
 10
5.55
 20
6.110526315789474
 10
5.55
 20
6.844736842105263
 10
5.581578947368421
 20
6.868421052631579
 10
5.613157894736842
 20
6.828947368421053
 10
5.605263157894737
 20
6.986842105263158
  0
LWPOLYLINE
  5
110
330
17
100
AcDbEntity
  8
A-WALL
100
AcDbPolyline
 90
5
 70
1
 10
11.952631578947368
 20
7.042105263157895
 10
12.071052631578947
 20
7.042105263157895
 10
12.078947368421053
 20
6.9
 10
12.063157894736843
 20
6.88421052631579
 10
11.936842105263159
 20
6.9
  0
LWPOLYLINE
  5
111
330
17
100
AcDbEntity
  8
A-WALL
100
AcDbPolyline
 90
13
 70
1
 10
9.860526315789475
 20
7.128947368421053
 10
10.697368421052632
 20
7.128947368421053
 10
10.721052631578948
 20
7.105263157894737
 10
10.713157894736842
 20
5.542105263157895
 10
10.697368421052632
 20
5.510526315789474
 10
10.657894736842106
 20
5.510526315789474
 10
10.63421052631579
 20
5.573684210526316
 10
10.642105263157895
 20
6.963157894736843
 10
10.626315789473685
 20
7.010526315789474
 10
10.571052631578947
 20
7.05
 10
10.460526315789474
 20
7.057894736842106
 10
9.868421052631579
 20
7.05
 10
9.844736842105263
 20
7.0736842105263165
  0
LWPOLYLINE
  5
112
330
17
100
AcDbEntity
  8
A-WALL
100
AcDbPolyline
 90
9
 70
1
 10
6.88421052631579
 20
7.105263157894737
 10
6.907894736842105
 20
7.128947368421053
 10
8.021052631578948
 20
7.128947368421053
 10
8.036842105263158
 20
7.065789473684211
 10
8.013157894736842
 20
7.05
 10
7.326315789473685
 20
7.05
 10
7.2631578947368425
 20
7.010526315789474
 10
7.184210526315789
 20
7.057894736842106
 10
6.907894736842105
 20
7.057894736842106
  0
LWPOLYLINE
  5
113
330
17
100
AcDbEntity
  8
A-WALL
100
AcDbPolyline
 90
9
 70
1
 10
4.515789473684211
 20
7.105263157894737
 10
4.5394736842105265
 20
7.128947368421053
 10
5.928947368421053
 20
7.128947368421053
 10
5.9447368421052635
 20
7.081578947368421
 10
5.928947368421053
 20
7.057894736842106
 10
5.6684210526315795
 20
7.057894736842106
 10
5.573684210526316
 20
7.018421052631579
 10
5.526315789473684
 20
7.05
 10
4.5394736842105265
 20
7.057894736842106
  0
LWPOLYLINE
  5
114
330
17
100
AcDbEntity
  8
A-WALL
100
AcDbPolyline
 90
6
 70
1
 10
2.0842105263157897
 20
7.081578947368421
 10
2.1
 20
7.128947368421053
 10
2.873684210526316
 20
7.128947368421053
 10
2.889473684210526
 20
7.105263157894737
 10
2.8657894736842104
 20
7.057894736842106
 10
2.1
 20
7.057894736842106
  0
LWPOLYLINE
  5
115
330
17
100
AcDbEntity
  8
A-WALL
100
AcDbPolyline
 90
181
 70
1
 10
1.8789473684210527
 20
7.113157894736842
 10
1.8947368421052633
 20
7.128947368421053
 10
2.044736842105263
 20
7.121052631578948
 10
2.036842105263158
 20
6.955263157894737
 10
2.068421052631579
 20
7.010526315789474
 10
4.4447368421052635
 20
6.994736842105263
 10
4.468421052631579
 20
7.010526315789474
 10
5.526315789473684
 20
7.018421052631579
 10
5.542105263157895
 20
7.002631578947368
 10
5.526315789473684
 20
6.805263157894737
 10
5.53421052631579
 20
5.178947368421053
 10
7.215789473684211
 20
5.178947368421053
 10
7.215789473684211
 20
4.081578947368421
 10
7.231578947368421
 20
3.9710526315789476
 10
7.215789473684211
 20
3.955263157894737
 10
7.026315789473684
 20
3.963157894736842
 10
7.026315789473684
 20
3.923684210526316
 10
7.042105263157895
 20
3.955263157894737
 10
7.057894736842106
 20
3.947368421052632
 10
7.065789473684211
 20
3.876315789473684
 10
7.294736842105263
 20
3.876315789473684
 10
7.310526315789474
 20
3.9
 10
7.302631578947369
 20
5.573684210526316
 10
7.807894736842106
 20
5.573684210526316
 10
7.8
 20
5.178947368421053
 10
7.3578947368421055
 20
5.186842105263158
 10
7.342105263157895
 20
5.171052631578948
 10
7.373684210526316
 20
5.155263157894737
 10
7.831578947368421
 20
5.171052631578948
 10
7.8236842105263165
 20
5.621052631578948
 10
7.855263157894737
 20
5.707894736842105
 10
7.855263157894737
 20
6.094736842105263
 10
7.8236842105263165
 20
6.181578947368421
 10
7.839473684210526
 20
6.481578947368421
 10
10.05
 20
6.481578947368421
 10
10.06578947368421
 20
6.465789473684211
 10
10.073684210526316
 20
6.0
 10
10.057894736842105
 20
5.98421052631579
 10
10.073684210526316
 20
5.9605263157894735
 10
10.057894736842105
 20
5.478947368421053
 10
10.073684210526316
 20
5.447368421052632
 10
10.247368421052633
 20
5.455263157894737
 10
10.263157894736842
 20
5.431578947368421
 10
10.23157894736842
 20
5.360526315789474
 10
10.263157894736842
 20
5.344736842105263
 10
10.263157894736842
 20
4.823684210526316
 10
10.278947368421052
 20
4.855263157894737
 10
10.263157894736842
 20
5.336842105263158
 10
10.31842105263158
 20
5.368421052631579
 10
10.278947368421052
 20
5.447368421052632
 10
10.673684210526316
 20
5.463157894736843
 10
10.673684210526316
 20
3.9394736842105265
 10
10.602631578947369
 20
3.9394736842105265
 10
10.602631578947369
 20
5.423684210526316
 10
10.586842105263159
 20
5.423684210526316
 10
10.594736842105263
 20
3.8842105263157896
 10
10.689473684210526
 20
3.892105263157895
 10
10.705263157894738
 20
3.9157894736842107
 10
10.705263157894738
 20
3.892105263157895
 10
10.736842105263158
 20
3.892105263157895
 10
11.178947368421053
 20
3.45
 10
11.147368421052631
 20
3.4026315789473687
 10
11.021052631578948
 20
3.323684210526316
 10
10.886842105263158
 20
3.268421052631579
 10
10.75263157894737
 20
3.2526315789473683
 10
10.973684210526317
 20
3.213157894736842
 10
11.139473684210527
 20
3.118421052631579
 10
11.178947368421053
 20
3.055263157894737
 10
10.736842105263158
 20
2.613157894736842
 10
10.586842105263159
 20
2.6210526315789475
 10
10.594736842105263
 20
0.9947368421052631
 10
10.547368421052632
 20
0.986842105263158
 10
10.555263157894737
 20
0.8447368421052632
 10
10.531578947368422
 20
0.8210526315789474
 10
9.031578947368422
 20
0.8289473684210527
 10
9.015789473684212
 20
0.8447368421052632
 10
9.039473684210527
 20
0.9078947368421053
 10
9.063157894736843
 20
0.8921052631578947
 10
10.5
 20
0.8921052631578947
 10
10.5
 20
0.9157894736842106
 10
9.039473684210527
 20
0.9078947368421053
 10
9.023684210526316
 20
0.9236842105263158
 10
9.039473684210527
 20
0.9789473684210527
 10
10.507894736842106
 20
0.9710526315789474
 10
10.507894736842106
 20
1.0026315789473685
 10
7.5
 20
1.0026315789473685
 10
7.5394736842105265
 20
0.9710526315789474
 10
8.98421052631579
 20
0.9789473684210527
 10
9.0
 20
0.9631578947368421
 10
8.98421052631579
 20
0.9078947368421053
 10
7.515789473684211
 20
0.9157894736842106
 10
7.507894736842106
 20
0.9
 10
8.960526315789474
 20
0.8921052631578947
 10
8.98421052631579
 20
0.9078947368421053
 10
9.007894736842106
 20
0.8526315789473684
 10
8.992105263157894
 20
0.8289473684210527
 10
7.5
 20
0.8210526315789474
 10
7.476315789473684
 20
0.8368421052631579
 10
7.48421052631579
 20
1.0026315789473685
 10
7.460526315789474
 20
0.9947368421052631
 10
7.468421052631579
 20
0.8368421052631579
 10
7.4526315789473685
 20
0.8210526315789474
 10
5.9447368421052635
 20
0.8210526315789474
 10
5.928947368421053
 20
0.8368421052631579
 10
5.928947368421053
 20
0.9947368421052631
 10
4.831578947368421
 20
0.9789473684210527
 10
4.815789473684211
 20
0.9947368421052631
 10
4.823684210526316
 20
2.7394736842105263
 10
4.752631578947368
 20
2.7473684210526317
 10
4.752631578947368
 20
2.778947368421053
 10
4.736842105263158
 20
2.778947368421053
 10
4.744736842105263
 20
0.9947368421052631
 10
4.721052631578948
 20
0.9710526315789474
 10
4.697368421052632
 20
0.986842105263158
 10
4.097368421052631
 20
0.9947368421052631
 10
4.081578947368421
 20
0.986842105263158
 10
4.097368421052631
 20
0.8447368421052632
 10
4.065789473684211
 20
0.8210526315789474
 10
2.581578947368421
 20
0.8210526315789474
 10
2.5500000000000003
 20
0.8447368421052632
 10
2.5500000000000003
 20
0.9947368421052631
 10
2.005263157894737
 20
0.986842105263158
 10
2.013157894736842
 20
1.6105263157894738
 10
1.8394736842105264
 20
1.6105263157894738
 10
1.8394736842105264
 20
1.1131578947368421
 10
1.6973684210526316
 20
1.105263157894737
 10
1.7052631578947368
 20
0.9552631578947369
 10
1.6894736842105265
 20
0.9394736842105263
 10
0.8605263157894737
 20
0.9394736842105263
 10
0.8447368421052632
 20
0.9631578947368421
 10
0.8526315789473684
 20
1.0815789473684212
 10
0.6947368421052632
 20
1.0973684210526315
 10
0.6947368421052632
 20
3.4657894736842105
 10
0.8447368421052632
 20
3.4815789473684213
 10
0.8447368421052632
 20
3.655263157894737
 10
0.8605263157894737
 20
3.6710526315789473
 10
1.6342105263157896
 20
3.6710526315789473
 10
1.6578947368421053
 20
3.6473684210526316
 10
1.6578947368421053
 20
3.4894736842105263
 10
1.855263157894737
 20
3.4894736842105263
 10
1.8473684210526315
 20
3.0
 10
1.8236842105263158
 20
2.8578947368421055
 10
1.8315789473684212
 20
1.6342105263157896
 10
1.8710526315789475
 20
1.6421052631578947
 10
1.8473684210526315
 20
1.6578947368421053
 10
1.8473684210526315
 20
2.8815789473684212
 10
1.8868421052631579
 20
2.936842105263158
 10
1.9578947368421054
 20
2.936842105263158
 10
1.9973684210526317
 20
2.889473684210526
 10
2.013157894736842
 20
2.905263157894737
 10
2.005263157894737
 20
3.0078947368421054
 10
2.028947368421053
 20
3.0710526315789473
 10
2.005263157894737
 20
3.1026315789473684
 10
2.005263157894737
 20
4.144736842105264
 10
2.0210526315789474
 20
4.160526315789474
 10
4.728947368421053
 20
4.160526315789474
 10
4.744736842105263
 20
4.136842105263158
 10
4.736842105263158
 20
3.7342105263157896
 10
4.760526315789474
 20
3.765789473684211
 10
4.792105263157895
 20
3.765789473684211
 10
4.815789473684211
 20
3.7263157894736842
 10
4.807894736842106
 20
2.7710526315789474
 10
4.831578947368421
 20
2.7710526315789474
 10
4.823684210526316
 20
3.8842105263157896
 10
6.292105263157895
 20
3.876315789473684
 10
6.28421052631579
 20
3.9394736842105265
 10
6.315789473684211
 20
3.955263157894737
 10
4.831578947368421
 20
3.955263157894737
 10
4.807894736842106
 20
3.9710526315789476
 10
4.823684210526316
 20
4.231578947368421
 10
2.005263157894737
 20
4.231578947368421
 10
2.013157894736842
 20
6.347368421052632
 10
1.9973684210526317
 20
6.323684210526316
 10
2.005263157894737
 20
4.839473684210526
 10
1.95
 20
4.815789473684211
 10
1.8473684210526315
 20
4.839473684210526
 10
1.8473684210526315
 20
6.355263157894737
 10
1.8631578947368421
 20
6.371052631578948
 10
2.013157894736842
 20
6.363157894736842
 10
2.013157894736842
 20
6.955263157894737
 10
1.8789473684210527
 20
6.971052631578948
  0
LWPOLYLINE
  5
116
330
17
100
AcDbEntity
  8
A-WALL
100
AcDbPolyline
 90
9
 70
1
 10
2.9289473684210527
 20
7.152631578947369
 10
2.9526315789473685
 20
7.176315789473684
 10
2.992105263157895
 20
7.160526315789474
 10
4.4526315789473685
 20
7.176315789473684
 10
4.484210526315789
 20
7.128947368421053
 10
4.468421052631579
 20
7.097368421052632
 10
4.484210526315789
 20
7.057894736842106
 10
4.4605263157894735
 20
7.010526315789474
 10
2.944736842105263
 20
7.010526315789474
  0
LWPOLYLINE
  5
117
330
17
100
AcDbEntity
  8
A-WALL
100
AcDbPolyline
 90
4
 70
1
 10
6.592105263157895
 20
7.4526315789473685
 10
6.6078947368421055
 20
7.436842105263158
 10
6.7026315789473685
 20
7.4447368421052635
 10
6.7026315789473685
 20
7.460526315789474
  0
LWPOLYLINE
  5
118
330
17
100
AcDbEntity
  8
A-WALL
100
AcDbPolyline
 90
7
 70
1
 10
5.992105263157895
 20
7.460526315789474
 10
6.063157894736842
 20
7.405263157894737
 10
6.094736842105263
 20
7.4447368421052635
 10
6.228947368421053
 20
7.4447368421052635
 10
6.221052631578948
 20
7.460526315789474
 10
6.094736842105263
 20
7.4526315789473685
 10
6.078947368421053
 20
7.492105263157895
  0
LWPOLYLINE
  5
119
330
17
100
AcDbEntity
  8
A-WALL
100
AcDbPolyline
 90
8
 70
1
 10
9.789473684210527
 20
7.4526315789473685
 10
9.73421052631579
 20
7.5
 10
9.694736842105263
 20
7.5
 10
9.686842105263159
 20
7.468421052631579
 10
9.126315789473685
 20
7.468421052631579
 10
9.13421052631579
 20
7.4526315789473685
 10
9.686842105263159
 20
7.460526315789474
 10
9.702631578947368
 20
7.421052631578948
  0
LWPOLYLINE
  5
11A
330
17
100
AcDbEntity
  8
A-WALL
100
AcDbPolyline
 90
8
 70
1
 10
8.092105263157896
 20
7.468421052631579
 10
8.163157894736843
 20
7.421052631578948
 10
8.202631578947368
 20
7.460526315789474
 10
8.747368421052633
 20
7.460526315789474
 10
8.739473684210527
 20
7.476315789473684
 10
8.336842105263159
 20
7.476315789473684
 10
8.194736842105263
 20
7.4526315789473685
 10
8.186842105263159
 20
7.5
  0
LWPOLYLINE
  5
11B
330
17
100
AcDbEntity
  8
A-WALL
100
AcDbPolyline
 90
3
 70
1
 10
6.742105263157895
 20
7.5
 10
6.75
 20
7.397368421052632
 10
6.836842105263158
 20
7.4447368421052635
  0
LWPOLYLINE
  5
11C
330
17
100
AcDbEntity
  8
A-WALL
100
AcDbPolyline
 90
13
 70
1
 10
6.410526315789474
 20
7.531578947368422
 10
6.402631578947369
 20
7.492105263157895
 10
6.457894736842105
 20
7.515789473684211
 10
6.465789473684211
 20
7.476315789473684
 10
6.402631578947369
 20
7.389473684210526
 10
6.489473684210527
 20
7.381578947368421
 10
6.497368421052632
 20
7.405263157894737
 10
6.442105263157895
 20
7.421052631578948
 10
6.505263157894737
 20
7.492105263157895
 10
6.568421052631579
 20
7.492105263157895
 10
6.560526315789474
 20
7.531578947368422
 10
6.497368421052632
 20
7.515789473684211
 10
6.457894736842105
 20
7.5394736842105265
  0
LWPOLYLINE
  5
11D
330
17
100
AcDbEntity
  8
A-WALL
100
AcDbPolyline
 90
3
 70
1
 10
6.371052631578948
 20
7.5394736842105265
 10
6.371052631578948
 20
7.48421052631579
 10
6.386842105263158
 20
7.5
  0
LWPOLYLINE
  5
11E
330
17
100
AcDbEntity
  8
A-WALL
100
AcDbPolyline
 90
15
 70
1
 10
6.292105263157895
 20
7.5394736842105265
 10
6.252631578947368
 20
7.523684210526316
 10
6.252631578947368
 20
7.5
 10
6.3
 20
7.523684210526316
 10
6.315789473684211
 20
7.507894736842106
 10
6.28421052631579
 20
7.460526315789474
 10
6.315789473684211
 20
7.4526315789473685
 10
6.323684210526316
 20
7.421052631578948
 10
6.292105263157895
 20
7.405263157894737
 10
6.252631578947368
 20
7.428947368421053
 10
6.244736842105263
 20
7.413157894736842
 10
6.307894736842106
 20
7.373684210526316
 10
6.339473684210526
 20
7.397368421052632
 10
6.347368421052632
 20
7.4447368421052635
 10
6.331578947368421
 20
7.515789473684211
  0
LWPOLYLINE
  5
11F
330
17
100
AcDbEntity
  8
A-WALL
100
AcDbPolyline
 90
12
 70
1
 10
8.960526315789474
 20
7.5473684210526315
 10
8.928947368421053
 20
7.476315789473684
 10
8.992105263157894
 20
7.476315789473684
 10
9.0
 20
7.428947368421053
 10
8.976315789473684
 20
7.413157894736842
 10
8.928947368421053
 20
7.436842105263158
 10
8.928947368421053
 20
7.413157894736842
 10
9.007894736842106
 20
7.397368421052632
 10
9.023684210526316
 20
7.476315789473684
 10
8.952631578947368
 20
7.507894736842106
 10
9.007894736842106
 20
7.523684210526316
 10
9.015789473684212
 20
7.5473684210526315
  0
LWPOLYLINE
  5
120
330
17
100
AcDbEntity
  8
A-WALL
100
AcDbPolyline
 90
6
 70
1
 10
9.047368421052632
 20
7.555263157894737
 10
9.047368421052632
 20
7.5
 10
9.063157894736843
 20
7.515789473684211
 10
9.094736842105263
 20
7.492105263157895
 10
9.094736842105263
 20
7.5473684210526315
 10
9.063157894736843
 20
7.531578947368422
  0
LWPOLYLINE
  5
121
330
17
100
AcDbEntity
  8
A-WALL
100
AcDbPolyline
 90
10
 70
1
 10
8.905263157894737
 20
7.5473684210526315
 10
8.794736842105264
 20
7.5394736842105265
 10
8.771052631578948
 20
7.476315789473684
 10
8.794736842105264
 20
7.397368421052632
 10
8.857894736842105
 20
7.397368421052632
 10
8.881578947368421
 20
7.428947368421053
 10
8.865789473684211
 20
7.48421052631579
 10
8.794736842105264
 20
7.507894736842106
 10
8.810526315789474
 20
7.523684210526316
 10
8.921052631578947
 20
7.515789473684211
  0
LWPOLYLINE
  5
122
330
17
100
AcDbEntity
  8
A-WALL
100
AcDbPolyline
 90
4
 70
1
 10
8.810526315789474
 20
7.476315789473684
 10
8.85
 20
7.460526315789474
 10
8.83421052631579
 20
7.413157894736842
 10
8.802631578947368
 20
7.436842105263158
  0
TEXT
  5
123
330
17
100
AcDbEntity
  8
A-ANNO
100
AcDbText
 10
0.0
 20
-1.0
 30
0.0
 40
0.3
  1
ArchVec v11 | Ref: 6.0m | Scale: 1px = 7.89mm
 11
0.0
 21
-1.0
 31
0.0
100
AcDbText
  0
ENDSEC
  0
SECTION
  2
OBJECTS
  0
DICTIONARY
  5
A
330
0
100
AcDbDictionary
281
1
  3
ACAD_COLOR
350
B
  3
ACAD_GROUP
350
C
  3
ACAD_LAYOUT
350
D
  3
ACAD_MATERIAL
350
E
  3
ACAD_MLEADERSTYLE
350
F
  3
ACAD_MLINESTYLE
350
10
  3
ACAD_PLOTSETTINGS
350
11
  3
ACAD_PLOTSTYLENAME
350
12
  3
ACAD_SCALELIST
350
14
  3
ACAD_TABLESTYLE
350
15
  3
ACAD_VISUALSTYLE
350
16
  3
EZDXF_META
350
2D
  0
DICTIONARY
  5
B
330
A
100
AcDbDictionary
281
1
  0
DICTIONARY
  5
C
330
A
100
AcDbDictionary
281
1
  0
DICTIONARY
  5
D
330
A
100
AcDbDictionary
281
1
  3
Model
350
1A
  3
Layout1
350
1E
  0
DICTIONARY
  5
E
330
A
100
AcDbDictionary
281
1
  3
ByBlock
350
1F
  3
ByLayer
350
20
  3
Global
350
21
  0
DICTIONARY
  5
F
330
A
100
AcDbDictionary
281
1
  3
Standard
350
2C
  0
DICTIONARY
  5
10
330
A
100
AcDbDictionary
281
1
  3
Standard
350
22
  0
DICTIONARY
  5
11
330
A
100
AcDbDictionary
281
1
  0
ACDBDICTIONARYWDFLT
  5
12
330
A
100
AcDbDictionary
281
1
  3
Normal
350
13
100
AcDbDictionaryWithDefault
340
13
  0
ACDBPLACEHOLDER
  5
13
330
12
  0
DICTIONARY
  5
14
330
A
100
AcDbDictionary
281
1
  0
DICTIONARY
  5
15
330
A
100
AcDbDictionary
281
1
  0
DICTIONARY
  5
16
330
A
100
AcDbDictionary
281
1
  0
LAYOUT
  5
1A
330
D
100
AcDbPlotSettings
  1

  4
A3
  6

 40
7.5
 41
20.0
 42
7.5
 43
20.0
 44
420.0
 45
297.0
 46
0.0
 47
0.0
 48
0.0
 49
0.0
140
0.0
141
0.0
142
1.0
143
1.0
 70
1024
 72
1
 73
0
 74
5
  7

 75
16
 76
0
 77
2
 78
300
147
1.0
148
0.0
149
0.0
100
AcDbLayout
  1
Model
 70
1
 71
0
 10
0.0
 20
0.0
 11
420.0
 21
297.0
 12
0.0
 22
0.0
 32
0.0
 14
1e+20
 24
1e+20
 34
1e+20
 15
-1e+20
 25
-1e+20
 35
-1e+20
146
0.0
 13
0.0
 23
0.0
 33
0.0
 16
1.0
 26
0.0
 36
0.0
 17
0.0
 27
1.0
 37
0.0
 76
1
330
17
  0
LAYOUT
  5
1E
330
D
100
AcDbPlotSettings
  1

  4
A3
  6

 40
7.5
 41
20.0
 42
7.5
 43
20.0
 44
420.0
 45
297.0
 46
0.0
 47
0.0
 48
0.0
 49
0.0
140
0.0
141
0.0
142
1.0
143
1.0
 70
0
 72
1
 73
0
 74
5
  7

 75
16
 76
0
 77
2
 78
300
147
1.0
148
0.0
149
0.0
100
AcDbLayout
  1
Layout1
 70
1
 71
1
 10
0.0
 20
0.0
 11
420.0
 21
297.0
 12
0.0
 22
0.0
 32
0.0
 14
1e+20
 24
1e+20
 34
1e+20
 15
-1e+20
 25
-1e+20
 35
-1e+20
146
0.0
 13
0.0
 23
0.0
 33
0.0
 16
1.0
 26
0.0
 36
0.0
 17
0.0
 27
1.0
 37
0.0
 76
1
330
1B
  0
MATERIAL
  5
1F
102
{ACAD_REACTORS
330
E
102
}
330
E
100
AcDbMaterial
  1
ByBlock
  2

 70
0
 40
1.0
 71
1
 41
1.0
 91
-1023410177
 42
1.0
 72
1
  3

 73
1
 74
1
 75
1
 44
0.5
 73
0
 45
1.0
 46
1.0
 77
1
  4

 78
1
 79
1
170
1
 48
1.0
171
1
  6

172
1
173
1
174
1
140
1.0
141
1.0
175
1
  7

176
1
177
1
178
1
143
1.0
179
1
  8

270
1
271
1
272
1
145
1.0
146
1.0
273
1
  9

274
1
275
1
276
1
 42
1.0
 72
1
  3

 73
1
 74
1
 75
1
 94
63
  0
MATERIAL
  5
20
102
{ACAD_REACTORS
330
E
102
}
330
E
100
AcDbMaterial
  1
ByLayer
  2

 70
0
 40
1.0
 71
1
 41
1.0
 91
-1023410177
 42
1.0
 72
1
  3

 73
1
 74
1
 75
1
 44
0.5
 73
0
 45
1.0
 46
1.0
 77
1
  4

 78
1
 79
1
170
1
 48
1.0
171
1
  6

172
1
173
1
174
1
140
1.0
141
1.0
175
1
  7

176
1
177
1
178
1
143
1.0
179
1
  8

270
1
271
1
272
1
145
1.0
146
1.0
273
1
  9

274
1
275
1
276
1
 42
1.0
 72
1
  3

 73
1
 74
1
 75
1
 94
63
  0
MATERIAL
  5
21
102
{ACAD_REACTORS
330
E
102
}
330
E
100
AcDbMaterial
  1
Global
  2

 70
0
 40
1.0
 71
1
 41
1.0
 91
-1023410177
 42
1.0
 72
1
  3

 73
1
 74
1
 75
1
 44
0.5
 73
0
 45
1.0
 46
1.0
 77
1
  4

 78
1
 79
1
170
1
 48
1.0
171
1
  6

172
1
173
1
174
1
140
1.0
141
1.0
175
1
  7

176
1
177
1
178
1
143
1.0
179
1
  8

270
1
271
1
272
1
145
1.0
146
1.0
273
1
  9

274
1
275
1
276
1
 42
1.0
 72
1
  3

 73
1
 74
1
 75
1
 94
63
  0
MLINESTYLE
  5
22
102
{ACAD_REACTORS
330
10
102
}
330
10
100
AcDbMlineStyle
  2
Standard
 70
0
  3

 62
256
 51
90.0
 52
90.0
 71
2
 49
0.5
 62
256
  6
BYLAYER
 49
-0.5
 62
256
  6
BYLAYER
  0
MLEADERSTYLE
  5
2C
102
{ACAD_REACTORS
330
F
102
}
330
F
100
AcDbMLeaderStyle
179
2
170
2
171
1
172
0
 90
2
 40
0.0
 41
0.0
173
1
 91
-1056964608
 92
-2
290
1
 42
2.0
291
1
 43
8.0
  3
Standard
 44
4.0
300

342
29
174
1
175
1
176
0
178
1
 93
-1056964608
 45
4.0
292
0
297
0
 46
4.0
 94
-1056964608
 47
1.0
 49
1.0
140
1.0
294
1
141
0.0
177
0
142
1.0
295
0
296
0
143
3.75
271
0
272
9
273
9
  0
DICTIONARY
  5
2D
330
A
100
AcDbDictionary
280
1
281
1
  3
CREATED_BY_EZDXF
350
2E
  3
WRITTEN_BY_EZDXF
350
126
  0
DICTIONARYVAR
  5
2E
330
2D
100
DictionaryVariables
280
0
  1
1.4.4 @ 2026-08-23T13:19:18.546125+00:00
  0
DICTIONARYVAR
  5
126
330
2D
100
DictionaryVariables
280
0
  1
1.4.4 @ 2026-08-23T13:19:18.553976+00:00
  0
ENDSEC
  0
EOF
