  0
SECTION
  2
HEADER
  9
$ACADVER
  1
AC1024
  9
$ACADMAINTVER
 70
6
  9
$DWGCODEPAGE
  3
ANSI_1252
  9
$LASTSAVEDBY
  1
ezdxf
  9
$INSBASE
 10
0.0
 20
0.0
 30
0.0
  9
$EXTMIN
 10
1e+20
 20
1e+20
 30
1e+20
  9
$EXTMAX
 10
-1e+20
 20
-1e+20
 30
-1e+20
  9
$LIMMIN
 10
0.0
 20
0.0
  9
$LIMMAX
 10
420.0
 20
297.0
  9
$ORTHOMODE
 70
0
  9
$REGENMODE
 70
1
  9
$FILLMODE
 70
1
  9
$QTEXTMODE
 70
0
  9
$MIRRTEXT
 70
1
  9
$LTSCALE
 40
1.0
  9
$ATTMODE
 70
1
  9
$TEXTSIZE
 40
2.5
  9
$TRACEWID
 40
1.0
  9
$TEXTSTYLE
  7
Standard
  9
$CLAYER
  8
0
  9
$CELTYPE
  6
ByLayer
  9
$CECOLOR
 62
256
  9
$CELTSCALE
 40
1.0
  9
$DISPSILH
 70
0
  9
$DIMSCALE
 40
1.0
  9
$DIMASZ
 40
2.5
  9
$DIMEXO
 40
0.625
  9
$DIMDLI
 40
3.75
  9
$DIMRND
 40
0.0
  9
$DIMDLE
 40
0.0
  9
$DIMEXE
 40
1.25
  9
$DIMTP
 40
0.0
  9
$DIMTM
 40
0.0
  9
$DIMTXT
 40
2.5
  9
$DIMCEN
 40
2.5
  9
$DIMTSZ
 40
0.0
  9
$DIMTOL
 70
0
  9
$DIMLIM
 70
0
  9
$DIMTIH
 70
0
  9
$DIMTOH
 70
0
  9
$DIMSE1
 70
0
  9
$DIMSE2
 70
0
  9
$DIMTAD
 70
1
  9
$DIMZIN
 70
8
  9
$DIMBLK
  1

  9
$DIMASO
 70
1
  9
$DIMSHO
 70
1
  9
$DIMPOST
  1

  9
$DIMAPOST
  1

  9
$DIMALT
 70
0
  9
$DIMALTD
 70
3
  9
$DIMALTF
 40
0.03937007874
  9
$DIMLFAC
 40
1.0
  9
$DIMTOFL
 70
1
  9
$DIMTVP
 40
0.0
  9
$DIMTIX
 70
0
  9
$DIMSOXD
 70
0
  9
$DIMSAH
 70
0
  9
$DIMBLK1
  1

  9
$DIMBLK2
  1

  9
$DIMSTYLE
  2
ISO-25
  9
$DIMCLRD
 70
0
  9
$DIMCLRE
 70
0
  9
$DIMCLRT
 70
0
  9
$DIMTFAC
 40
1.0
  9
$DIMGAP
 40
0.625
  9
$DIMJUST
 70
0
  9
$DIMSD1
 70
0
  9
$DIMSD2
 70
0
  9
$DIMTOLJ
 70
0
  9
$DIMTZIN
 70
8
  9
$DIMALTZ
 70
0
  9
$DIMALTTZ
 70
0
  9
$DIMUPT
 70
0
  9
$DIMDEC
 70
2
  9
$DIMTDEC
 70
2
  9
$DIMALTU
 70
2
  9
$DIMALTTD
 70
3
  9
$DIMTXSTY
  7
Standard
  9
$DIMAUNIT
 70
0
  9
$DIMADEC
 70
0
  9
$DIMALTRND
 40
0.0
  9
$DIMAZIN
 70
0
  9
$DIMDSEP
 70
44
  9
$DIMATFIT
 70
3
  9
$DIMFRAC
 70
0
  9
$DIMLDRBLK
  1

  9
$DIMLUNIT
 70
2
  9
$DIMLWD
 70
-2
  9
$DIMLWE
 70
-2
  9
$DIMTMOVE
 70
0
  9
$DIMFXL
 40
1.0
  9
$DIMFXLON
 70
0
  9
$DIMJOGANG
 40
0.785398163397
  9
$DIMTFILL
 70
0
  9
$DIMTFILLCLR
 70
0
  9
$DIMARCSYM
 70
0
  9
$DIMLTYPE
  6

  9
$DIMLTEX1
  6

  9
$DIMLTEX2
  6

  9
$DIMTXTDIRECTION
 70
0
  9
$LUNITS
 70
2
  9
$LUPREC
 70
4
  9
$SKETCHINC
 40
1.0
  9
$FILLETRAD
 40
10.0
  9
$AUNITS
 70
0
  9
$AUPREC
 70
2
  9
$MENU
  1
.
  9
$ELEVATION
 40
0.0
  9
$PELEVATION
 40
0.0
  9
$THICKNESS
 40
0.0
  9
$LIMCHECK
 70
0
  9
$CHAMFERA
 40
0.0
  9
$CHAMFERB
 40
0.0
  9
$CHAMFERC
 40
0.0
  9
$CHAMFERD
 40
0.0
  9
$SKPOLY
 70
0
  9
$TDCREATE
 40
2461276.6990046296
  9
$TDUCREATE
 40
2458532.153996898
  9
$TDUPDATE
 40
2461276.6990046296
  9
$TDUUPDATE
 40
2458532.1544311
  9
$TDINDWG
 40
0.0
  9
$TDUSRTIMER
 40
0.0
  9
$USRTIMER
 70
1
  9
$ANGBASE
 50
0.0
  9
$ANGDIR
 70
0
  9
$PDMODE
 70
0
  9
$PDSIZE
 40
0.0
  9
$PLINEWID
 40
0.0
  9
$SPLFRAME
 70
0
  9
$SPLINETYPE
 70
6
  9
$SPLINESEGS
 70
8
  9
$HANDSEED
  5
17A
  9
$SURFTAB1
 70
6
  9
$SURFTAB2
 70
6
  9
$SURFTYPE
 70
6
  9
$SURFU
 70
6
  9
$SURFV
 70
6
  9
$UCSBASE
  2

  9
$UCSNAME
  2

  9
$UCSORG
 10
0.0
 20
0.0
 30
0.0
  9
$UCSXDIR
 10
1.0
 20
0.0
 30
0.0
  9
$UCSYDIR
 10
0.0
 20
1.0
 30
0.0
  9
$UCSORTHOREF
  2

  9
$UCSORTHOVIEW
 70
0
  9
$UCSORGTOP
 10
0.0
 20
0.0
 30
0.0
  9
$UCSORGBOTTOM
 10
0.0
 20
0.0
 30
0.0
  9
$UCSORGLEFT
 10
0.0
 20
0.0
 30
0.0
  9
$UCSORGRIGHT
 10
0.0
 20
0.0
 30
0.0
  9
$UCSORGFRONT
 10
0.0
 20
0.0
 30
0.0
  9
$UCSORGBACK
 10
0.0
 20
0.0
 30
0.0
  9
$PUCSBASE
  2

  9
$PUCSNAME
  2

  9
$PUCSORG
 10
0.0
 20
0.0
 30
0.0
  9
$PUCSXDIR
 10
1.0
 20
0.0
 30
0.0
  9
$PUCSYDIR
 10
0.0
 20
1.0
 30
0.0
  9
$PUCSORTHOREF
  2

  9
$PUCSORTHOVIEW
 70
0
  9
$PUCSORGTOP
 10
0.0
 20
0.0
 30
0.0
  9
$PUCSORGBOTTOM
 10
0.0
 20
0.0
 30
0.0
  9
$PUCSORGLEFT
 10
0.0
 20
0.0
 30
0.0
  9
$PUCSORGRIGHT
 10
0.0
 20
0.0
 30
0.0
  9
$PUCSORGFRONT
 10
0.0
 20
0.0
 30
0.0
  9
$PUCSORGBACK
 10
0.0
 20
0.0
 30
0.0
  9
$USERI1
 70
0
  9
$USERI2
 70
0
  9
$USERI3
 70
0
  9
$USERI4
 70
0
  9
$USERI5
 70
0
  9
$USERR1
 40
0.0
  9
$USERR2
 40
0.0
  9
$USERR3
 40
0.0
  9
$USERR4
 40
0.0
  9
$USERR5
 40
0.0
  9
$WORLDVIEW
 70
1
  9
$SHADEDGE
 70
3
  9
$SHADEDIF
 70
70
  9
$TILEMODE
 70
1
  9
$MAXACTVP
 70
64
  9
$PINSBASE
 10
0.0
 20
0.0
 30
0.0
  9
$PLIMCHECK
 70
0
  9
$PEXTMIN
 10
1e+20
 20
1e+20
 30
1e+20
  9
$PEXTMAX
 10
-1e+20
 20
-1e+20
 30
-1e+20
  9
$PLIMMIN
 10
0.0
 20
0.0
  9
$PLIMMAX
 10
420.0
 20
297.0
  9
$UNITMODE
 70
0
  9
$VISRETAIN
 70
1
  9
$PLINEGEN
 70
0
  9
$PSLTSCALE
 70
1
  9
$TREEDEPTH
 70
3020
  9
$CMLSTYLE
  2
Standard
  9
$CMLJUST
 70
0
  9
$CMLSCALE
 40
20.0
  9
$PROXYGRAPHICS
 70
1
  9
$MEASUREMENT
 70
1
  9
$CELWEIGHT
370
-1
  9
$ENDCAPS
280
0
  9
$JOINSTYLE
280
0
  9
$LWDISPLAY
290
0
  9
$INSUNITS
 70
6
  9
$HYPERLINKBASE
  1

  9
$STYLESHEET
  1

  9
$XEDIT
290
1
  9
$CEPSNTYPE
380
0
  9
$PSTYLEMODE
290
1
  9
$FINGERPRINTGUID
  2
{DE416BCA-E616-417F-B226-902CD22D154F}
  9
$VERSIONGUID
  2
{21CD3855-AB18-4E34-9446-FC1CAF435373}
  9
$EXTNAMES
290
1
  9
$PSVPSCALE
 40
0.0
  9
$OLESTARTUP
290
0
  9
$SORTENTS
280
127
  9
$INDEXCTL
280
0
  9
$HIDETEXT
280
1
  9
$XCLIPFRAME
280
1
  9
$HALOGAP
280
0
  9
$OBSCOLOR
 70
257
  9
$OBSLTYPE
280
0
  9
$INTERSECTIONDISPLAY
280
0
  9
$INTERSECTIONCOLOR
 70
257
  9
$DIMASSOC
280
2
  9
$PROJECTNAME
  1

  9
$CAMERADISPLAY
290
0
  9
$LENSLENGTH
 40
50.0
  9
$CAMERAHEIGHT
 40
0.0
  9
$STEPSPERSEC
 40
24.0
  9
$STEPSIZE
 40
100.0
  9
$3DDWFPREC
 40
2.0
  9
$PSOLWIDTH
 40
0.005
  9
$PSOLHEIGHT
 40
0.08
  9
$LOFTANG1
 40
1.570796326795
  9
$LOFTANG2
 40
1.570796326795
  9
$LOFTMAG1
 40
0.0
  9
$LOFTMAG2
 40
0.0
  9
$LOFTPARAM
 70
7
  9
$LOFTNORMALS
280
1
  9
$LATITUDE
 40
37.795
  9
$LONGITUDE
 40
-122.394
  9
$NORTHDIRECTION
 40
0.0
  9
$TIMEZONE
 70
-8000
  9
$LIGHTGLYPHDISPLAY
280
1
  9
$TILEMODELIGHTSYNCH
280
1
  9
$CMATERIAL
347
20
  9
$SOLIDHIST
280
0
  9
$SHOWHIST
280
1
  9
$DWFFRAME
280
2
  9
$DGNFRAME
280
2
  9
$REALWORLDSCALE
290
1
  9
$INTERFERECOLOR
 62
256
  9
$CSHADOW
280
0
  9
$SHADOWPLANELOCATION
 40
0.0
  0
ENDSEC
  0
SECTION
  2
CLASSES
  0
CLASS
  1
ACDBDICTIONARYWDFLT
  2
AcDbDictionaryWithDefault
  3
ObjectDBX Classes
 90
0
 91
0
280
0
281
0
  0
CLASS
  1
SUN
  2
AcDbSun
  3
SCENEOE
 90
1153
 91
0
280
0
281
0
  0
CLASS
  1
VISUALSTYLE
  2
AcDbVisualStyle
  3
ObjectDBX Classes
 90
4095
 91
0
280
0
281
0
  0
CLASS
  1
MATERIAL
  2
AcDbMaterial
  3
ObjectDBX Classes
 90
1153
 91
0
280
0
281
0
  0
CLASS
  1
SCALE
  2
AcDbScale
  3
ObjectDBX Classes
 90
1153
 91
0
280
0
281
0
  0
CLASS
  1
TABLESTYLE
  2
AcDbTableStyle
  3
ObjectDBX Classes
 90
4095
 91
0
280
0
281
0
  0
CLASS
  1
MLEADERSTYLE
  2
AcDbMLeaderStyle
  3
ACDB_MLEADERSTYLE_CLASS
 90
4095
 91
0
280
0
281
0
  0
CLASS
  1
DICTIONARYVAR
  2
AcDbDictionaryVar
  3
ObjectDBX Classes
 90
0
 91
0
280
0
281
0
  0
CLASS
  1
CELLSTYLEMAP
  2
AcDbCellStyleMap
  3
ObjectDBX Classes
 90
1152
 91
0
280
0
281
0
  0
CLASS
  1
MENTALRAYRENDERSETTINGS
  2
AcDbMentalRayRenderSettings
  3
SCENEOE
 90
1024
 91
0
280
0
281
0
  0
CLASS
  1
ACDBDETAILVIEWSTYLE
  2
AcDbDetailViewStyle
  3
ObjectDBX Classes
 90
1025
 91
0
280
0
281
0
  0
CLASS
  1
ACDBSECTIONVIEWSTYLE
  2
AcDbSectionViewStyle
  3
ObjectDBX Classes
 90
1025
 91
0
280
0
281
0
  0
CLASS
  1
RASTERVARIABLES
  2
AcDbRasterVariables
  3
ISM
 90
0
 91
0
280
0
281
0
  0
CLASS
  1
ACDBPLACEHOLDER
  2
AcDbPlaceHolder
  3
ObjectDBX Classes
 90
0
 91
0
280
0
281
0
  0
CLASS
  1
LAYOUT
  2
AcDbLayout
  3
ObjectDBX Classes
 90
0
 91
0
280
0
281
0
  0
ENDSEC
  0
SECTION
  2
TABLES
  0
TABLE
  2
VPORT
  5
8
330
0
100
AcDbSymbolTable
 70
1
  0
VPORT
  5
23
330
8
100
AcDbSymbolTableRecord
100
AcDbViewportTableRecord
  2
*Active
 70
0
 10
0.0
 20
0.0
 11
1.0
 21
1.0
 12
0.0
 22
0.0
 13
0.0
 23
0.0
 14
0.5
 24
0.5
 15
0.5
 25
0.5
 16
0.0
 26
0.0
 36
1.0
 17
0.0
 27
0.0
 37
0.0
 40
1000.0
 41
1.34
 42
50.0
 43
0.0
 44
0.0
 50
0.0
 51
0.0
 71
0
 72
1000
 73
1
 74
3
 75
0
 76
0
 77
0
 78
0
281
0
 65
0
146
0.0
  0
ENDTAB
  0
TABLE
  2
LTYPE
  5
2
330
0
100
AcDbSymbolTable
 70
3
  0
LTYPE
  5
24
330
2
100
AcDbSymbolTableRecord
100
AcDbLinetypeTableRecord
  2
ByBlock
 70
0
  3

 72
65
 73
0
 40
0.0
  0
LTYPE
  5
25
330
2
100
AcDbSymbolTableRecord
100
AcDbLinetypeTableRecord
  2
ByLayer
 70
0
  3

 72
65
 73
0
 40
0.0
  0
LTYPE
  5
26
330
2
100
AcDbSymbolTableRecord
100
AcDbLinetypeTableRecord
  2
Continuous
 70
0
  3

 72
65
 73
0
 40
0.0
  0
ENDTAB
  0
TABLE
  2
LAYER
  5
1
330
0
100
AcDbSymbolTable
 70
6
  0
LAYER
  5
27
330
1
100
AcDbSymbolTableRecord
100
AcDbLayerTableRecord
  2
0
 70
0
 62
7
  6
Continuous
370
-3
390
13
347
21
  0
LAYER
  5
28
330
1
100
AcDbSymbolTableRecord
100
AcDbLayerTableRecord
  2
Defpoints
 70
0
 62
7
  6
Continuous
290
0
370
-3
390
13
347
21
  0
LAYER
  5
2F
330
1
100
AcDbSymbolTableRecord
100
AcDbLayerTableRecord
  2
A-WALL
 70
0
 62
7
  6
Continuous
370
-3
390
13
347
21
  0
LAYER
  5
30
330
1
100
AcDbSymbolTableRecord
100
AcDbLayerTableRecord
  2
A-CENTERLINE
 70
0
 62
3
  6
Continuous
370
-3
390
13
347
21
  0
LAYER
  5
31
330
1
100
AcDbSymbolTableRecord
100
AcDbLayerTableRecord
  2
A-DIMS
 70
0
 62
1
  6
Continuous
370
-3
390
13
347
21
  0
LAYER
  5
32
330
1
100
AcDbSymbolTableRecord
100
AcDbLayerTableRecord
  2
A-ANNO
 70
0
 62
6
  6
Continuous
370
-3
390
13
347
21
  0
ENDTAB
  0
TABLE
  2
STYLE
  5
5
330
0
100
AcDbSymbolTable
 70
1
  0
STYLE
  5
29
330
5
100
AcDbSymbolTableRecord
100
AcDbTextStyleTableRecord
  2
Standard
 70
0
 40
0.0
 41
1.0
 50
0.0
 71
0
 42
2.5
  3
txt
  4

  0
ENDTAB
  0
TABLE
  2
VIEW
  5
7
330
0
100
AcDbSymbolTable
 70
0
  0
ENDTAB
  0
TABLE
  2
UCS
  5
6
330
0
100
AcDbSymbolTable
 70
0
  0
ENDTAB
  0
TABLE
  2
APPID
  5
3
330
0
100
AcDbSymbolTable
 70
3
  0
APPID
  5
2A
330
3
100
AcDbSymbolTableRecord
100
AcDbRegAppTableRecord
  2
ACAD
 70
0
  0
APPID
  5
177
330
3
100
AcDbSymbolTableRecord
100
AcDbRegAppTableRecord
  2
HATCHBACKGROUNDCOLOR
 70
0
  0
APPID
  5
178
330
3
100
AcDbSymbolTableRecord
100
AcDbRegAppTableRecord
  2
EZDXF
 70
0
  0
ENDTAB
  0
TABLE
  2
DIMSTYLE
  5
4
330
0
100
AcDbSymbolTable
 70
1
100
AcDbDimStyleTable
  0
DIMSTYLE
105
2B
330
4
100
AcDbSymbolTableRecord
100
AcDbDimStyleTableRecord
  2
Standard
 70
0
 40
1.0
 41
2.5
 42
0.625
 43
3.75
 44
1.25
 45
0.0
 46
0.0
 47
0.0
 48
0.0
 49
2.5
140
2.5
141
2.5
142
0.0
143
0.03937007874
144
1.0
145
0.0
146
1.0
147
0.625
148
0.0
 69
0
 70
0
 71
0
 72
0
 73
0
 74
0
 75
0
 76
0
 77
1
 78
8
 79
3
170
0
171
3
172
1
173
0
174
0
175
0
176
0
177
0
178
0
179
2
271
2
272
2
273
2
274
3
275
0
276
0
277
2
278
44
279
0
280
0
281
0
282
0
283
0
284
8
285
0
286
0
288
0
289
3
290
0
371
-2
372
-2
  0
ENDTAB
  0
TABLE
  2
BLOCK_RECORD
  5
9
330
0
100
AcDbSymbolTable
 70
2
  0
BLOCK_RECORD
  5
17
330
9
100
AcDbSymbolTableRecord
100
AcDbBlockTableRecord
  2
*Model_Space
340
1A
 70
0
280
1
281
0
  0
BLOCK_RECORD
  5
1B
330
9
100
AcDbSymbolTableRecord
100
AcDbBlockTableRecord
  2
*Paper_Space
340
1E
 70
0
280
1
281
0
  0
ENDTAB
  0
ENDSEC
  0
SECTION
  2
BLOCKS
  0
BLOCK
  5
18
330
17
100
AcDbEntity
  8
0
100
AcDbBlockBegin
  2
*Model_Space
 70
0
 10
0.0
 20
0.0
 30
0.0
  3
*Model_Space
  1

  0
ENDBLK
  5
19
330
17
100
AcDbEntity
  8
0
100
AcDbBlockEnd
  0
BLOCK
  5
1C
330
1B
100
AcDbEntity
  8
0
100
AcDbBlockBegin
  2
*Paper_Space
 70
0
 10
0.0
 20
0.0
 30
0.0
  3
*Paper_Space
  1

  0
ENDBLK
  5
1D
330
1B
100
AcDbEntity
  8
0
100
AcDbBlockEnd
  0
ENDSEC
  0
SECTION
  2
ENTITIES
  0
LWPOLYLINE
  5
33
330
17
100
AcDbEntity
  8
A-WALL
100
AcDbPolyline
 90
4
 70
1
 10
5.991789473684211
 20
0.35328947368421054
 10
5.991789473684211
 20
0.3320921052631579
 10
6.14017105263158
 20
0.3320921052631579
 10
6.14017105263158
 20
0.35328947368421054
  0
LWPOLYLINE
  5
34
330
17
100
AcDbEntity
  8
A-WALL
100
AcDbPolyline
 90
4
 70
1
 10
5.991789473684211
 20
0.40981578947368424
 10
5.991789473684211
 20
0.3886184210526316
 10
6.14017105263158
 20
0.3886184210526316
 10
6.14017105263158
 20
0.40981578947368424
  0
LWPOLYLINE
  5
35
330
17
100
AcDbEntity
  8
A-WALL
100
AcDbPolyline
 90
18
 70
1
 10
6.655973684210527
 20
0.4310131578947369
 10
6.655973684210527
 20
0.28263157894736846
 10
6.6771710526315795
 20
0.28969736842105265
 10
6.6771710526315795
 20
0.3956842105263158
 10
6.698368421052632
 20
0.40981578947368424
 10
6.740763157894738
 20
0.3956842105263158
 10
6.740763157894738
 20
0.28263157894736846
 10
6.76196052631579
 20
0.28969736842105265
 10
6.754894736842106
 20
0.3815526315789474
 10
6.783157894736843
 20
0.40981578947368424
 10
6.818486842105264
 20
0.3956842105263158
 10
6.818486842105264
 20
0.28969736842105265
 10
6.84675
 20
0.28969736842105265
 10
6.8396842105263165
 20
0.40981578947368424
 10
6.818486842105264
 20
0.4310131578947369
 10
6.76196052631579
 20
0.40981578947368424
 10
6.733697368421053
 20
0.4310131578947369
 10
6.684236842105264
 20
0.41688157894736844
  0
LWPOLYLINE
  5
36
330
17
100
AcDbEntity
  8
A-WALL
100
AcDbPolyline
 90
9
 70
1
 10
6.882078947368422
 20
0.48047368421052633
 10
6.867947368421053
 20
0.4592763157894737
 10
6.89621052631579
 20
0.46634210526315795
 10
6.910342105263158
 20
0.43807894736842107
 10
6.867947368421053
 20
0.3815526315789474
 10
6.938605263157895
 20
0.3744868421052632
 10
6.89621052631579
 20
0.3886184210526316
 10
6.931539473684211
 20
0.4310131578947369
 10
6.931539473684211
 20
0.46634210526315795
  0
LWPOLYLINE
  5
37
330
17
100
AcDbEntity
  8
A-WALL
100
AcDbPolyline
 90
9
 70
1
 10
6.486394736842105
 20
0.4875394736842106
 10
6.429868421052632
 20
0.46634210526315795
 10
6.429868421052632
 20
0.4451447368421053
 10
6.4651973684210535
 20
0.43807894736842107
 10
6.4651973684210535
 20
0.3108947368421053
 10
6.429868421052632
 20
0.3038289473684211
 10
6.429868421052632
 20
0.28263157894736846
 10
6.521723684210527
 20
0.28969736842105265
 10
6.486394736842105
 20
0.3108947368421053
  0
LWPOLYLINE
  5
38
330
17
100
AcDbEntity
  8
A-WALL
100
AcDbPolyline
 90
6
 70
1
 10
6.380407894736843
 20
0.4875394736842106
 10
6.260289473684211
 20
0.48047368421052633
 10
6.366276315789474
 20
0.4592763157894737
 10
6.274421052631579
 20
0.28263157894736846
 10
6.30975
 20
0.29676315789473684
 10
6.387473684210526
 20
0.4522105263157895
  0
LWPOLYLINE
  5
39
330
17
100
AcDbEntity
  8
A-WALL
100
AcDbPolyline
 90
18
 70
1
 10
5.589039473684211
 20
0.48047368421052633
 10
5.60317105263158
 20
0.28263157894736846
 10
5.737421052631579
 20
0.28263157894736846
 10
5.765684210526317
 20
0.34622368421052635
 10
5.829276315789474
 20
0.34622368421052635
 10
5.8504736842105265
 20
0.28969736842105265
 10
5.878736842105264
 20
0.28969736842105265
 10
5.808078947368421
 20
0.4875394736842106
 10
5.779815789473685
 20
0.48047368421052633
 10
5.716223684210527
 20
0.29676315789473684
 10
5.624368421052632
 20
0.3038289473684211
 10
5.610236842105263
 20
0.3744868421052632
 10
5.702092105263159
 20
0.3886184210526316
 10
5.702092105263159
 20
0.40981578947368424
 10
5.624368421052632
 20
0.40275000000000005
 10
5.610236842105263
 20
0.4522105263157895
 10
5.709157894736842
 20
0.46634210526315795
 10
5.709157894736842
 20
0.4875394736842106
  0
LWPOLYLINE
  5
3A
330
17
100
AcDbEntity
  8
A-WALL
100
AcDbPolyline
 90
4
 70
1
 10
5.793947368421053
 20
0.4522105263157895
 10
5.815144736842106
 20
0.4310131578947369
 10
5.82221052631579
 20
0.3603552631578948
 10
5.765684210526317
 20
0.367421052631579
  0
LWPOLYLINE
  5
3B
330
17
100
AcDbEntity
  8
A-WALL
100
AcDbPolyline
 90
11
 70
1
 10
5.426526315789474
 20
0.4875394736842106
 10
5.426526315789474
 20
0.28969736842105265
 10
5.447723684210526
 20
0.28969736842105265
 10
5.440657894736843
 20
0.35328947368421054
 10
5.4759868421052635
 20
0.367421052631579
 10
5.546644736842105
 20
0.28263157894736846
 10
5.567842105263158
 20
0.28263157894736846
 10
5.504250000000001
 20
0.3603552631578948
 10
5.546644736842105
 20
0.41688157894736844
 10
5.546644736842105
 20
0.4522105263157895
 10
5.504250000000001
 20
0.4875394736842106
  0
LWPOLYLINE
  5
3C
330
17
100
AcDbEntity
  8
A-WALL
100
AcDbPolyline
 90
5
 70
1
 10
5.454789473684211
 20
0.46634210526315795
 10
5.518381578947369
 20
0.4522105263157895
 10
5.525447368421053
 20
0.41688157894736844
 10
5.497184210526316
 20
0.3815526315789474
 10
5.440657894736843
 20
0.3956842105263158
  0
LWPOLYLINE
  5
3D
330
17
100
AcDbEntity
  8
A-WALL
100
AcDbPolyline
 90
8
 70
1
 10
5.306407894736843
 20
0.4875394736842106
 10
5.242815789473685
 20
0.28969736842105265
 10
5.271078947368421
 20
0.28969736842105265
 10
5.292276315789474
 20
0.34622368421052635
 10
5.355868421052632
 20
0.34622368421052635
 10
5.377065789473685
 20
0.28969736842105265
 10
5.398263157894737
 20
0.28263157894736846
 10
5.341736842105264
 20
0.48047368421052633
  0
LWPOLYLINE
  5
3E
330
17
100
AcDbEntity
  8
A-WALL
100
AcDbPolyline
 90
4
 70
1
 10
5.320539473684211
 20
0.4522105263157895
 10
5.355868421052632
 20
0.3815526315789474
 10
5.348802631578947
 20
0.3603552631578948
 10
5.292276315789474
 20
0.367421052631579
  0
LWPOLYLINE
  5
3F
330
17
100
AcDbEntity
  8
A-WALL
100
AcDbPolyline
 90
6
 70
1
 10
5.044973684210527
 20
0.4875394736842106
 10
5.044973684210527
 20
0.28969736842105265
 10
5.15096052631579
 20
0.28263157894736846
 10
5.15096052631579
 20
0.3108947368421053
 10
5.059105263157895
 20
0.3108947368421053
 10
5.06617105263158
 20
0.48047368421052633
  0
LWPOLYLINE
  5
40
330
17
100
AcDbEntity
  8
A-WALL
100
AcDbPolyline
 90
7
 70
1
 10
4.9248552631578955
 20
0.4875394736842106
 10
4.854197368421053
 20
0.28969736842105265
 10
4.889526315789474
 20
0.29676315789473684
 10
4.903657894736843
 20
0.34622368421052635
 10
4.9743157894736845
 20
0.34622368421052635
 10
5.009644736842105
 20
0.28263157894736846
 10
4.960184210526316
 20
0.47340789473684214
  0
LWPOLYLINE
  5
41
330
17
100
AcDbEntity
  8
A-WALL
100
AcDbPolyline
 90
3
 70
1
 10
4.938986842105264
 20
0.4522105263157895
 10
4.96725
 20
0.367421052631579
 10
4.910723684210526
 20
0.3603552631578948
  0
LWPOLYLINE
  5
42
330
17
100
AcDbEntity
  8
A-WALL
100
AcDbPolyline
 90
7
 70
1
 10
4.705815789473685
 20
0.4875394736842106
 10
4.705815789473685
 20
0.46634210526315795
 10
4.769407894736842
 20
0.4592763157894737
 10
4.769407894736842
 20
0.28969736842105265
 10
4.790605263157895
 20
0.28263157894736846
 10
4.790605263157895
 20
0.4592763157894737
 10
4.861263157894737
 20
0.48047368421052633
  0
LWPOLYLINE
  5
43
330
17
100
AcDbEntity
  8
A-WALL
100
AcDbPolyline
 90
8
 70
1
 10
4.578631578947369
 20
0.4875394736842106
 10
4.522105263157895
 20
0.4239473684210527
 10
4.522105263157895
 20
0.35328947368421054
 10
4.557434210526316
 20
0.29676315789473684
 10
4.628092105263158
 20
0.28263157894736846
 10
4.691684210526316
 20
0.35328947368421054
 10
4.691684210526316
 20
0.41688157894736844
 10
4.635157894736842
 20
0.4875394736842106
  0
LWPOLYLINE
  5
44
330
17
100
AcDbEntity
  8
A-WALL
100
AcDbPolyline
 90
8
 70
1
 10
4.585697368421053
 20
0.46634210526315795
 10
4.628092105263158
 20
0.46634210526315795
 10
4.670486842105263
 20
0.40275000000000005
 10
4.66342105263158
 20
0.34622368421052635
 10
4.628092105263158
 20
0.3038289473684211
 10
4.585697368421053
 20
0.3038289473684211
 10
4.543302631578948
 20
0.3603552631578948
 10
4.550368421052632
 20
0.4310131578947369
  0
LWPOLYLINE
  5
45
330
17
100
AcDbEntity
  8
A-WALL
100
AcDbPolyline
 90
8
 70
1
 10
4.352526315789474
 20
0.4875394736842106
 10
4.352526315789474
 20
0.46634210526315795
 10
4.423184210526316
 20
0.4592763157894737
 10
4.416118421052632
 20
0.28969736842105265
 10
4.4373157894736845
 20
0.28263157894736846
 10
4.4373157894736845
 20
0.4592763157894737
 10
4.500907894736843
 20
0.46634210526315795
 10
4.507973684210526
 20
0.4875394736842106
  0
LWPOLYLINE
  5
46
330
17
100
AcDbEntity
  8
A-WALL
100
AcDbPolyline
 90
34
 70
1
 10
1.978421052631579
 20
0.8055000000000001
 10
2.0208157894736845
 20
0.7843026315789474
 10
2.0208157894736845
 20
0.7489736842105263
 10
2.042013157894737
 20
0.7913684210526316
 10
7.16471052631579
 20
0.7913684210526316
 10
7.16471052631579
 20
0.7631052631578948
 10
7.185907894736842
 20
0.7560394736842105
 10
7.192973684210527
 20
0.7913684210526316
 10
10.690539473684211
 20
0.7984342105263158
 10
10.711736842105264
 20
0.7489736842105263
 10
10.74
 20
0.7984342105263158
 10
10.718802631578948
 20
0.8125657894736843
 10
10.718802631578948
 20
0.9397500000000001
 10
10.697605263157895
 20
0.9326842105263159
 10
10.697605263157895
 20
0.8055000000000001
 10
8.754513157894737
 20
0.8055000000000001
 10
8.761578947368422
 20
0.8761578947368421
 10
8.74038157894737
 20
0.8690921052631579
 10
8.74038157894737
 20
0.8055000000000001
 10
7.192973684210527
 20
0.8055000000000001
 10
7.178842105263159
 20
0.8196315789473685
 10
7.185907894736842
 20
0.9397500000000001
 10
7.16471052631579
 20
0.9326842105263159
 10
7.16471052631579
 20
0.8055000000000001
 10
4.409052631578947
 20
0.8055000000000001
 10
4.416118421052632
 20
0.8761578947368421
 10
4.394921052631579
 20
0.8690921052631579
 10
4.409052631578947
 20
0.8408289473684211
 10
4.394921052631579
 20
0.8055000000000001
 10
2.042013157894737
 20
0.8055000000000001
 10
2.0278815789473685
 20
0.8196315789473685
 10
2.0349473684210526
 20
0.9397500000000001
 10
2.0208157894736845
 20
0.9397500000000001
 10
2.0208157894736845
 20
0.8125657894736843
  0
LWPOLYLINE
  5
47
330
17
100
AcDbEntity
  8
A-WALL
100
AcDbPolyline
 90
14
 70
1
 10
4.776473684210527
 20
0.9609473684210527
 10
4.783539473684211
 20
0.8478947368421054
 10
4.804736842105264
 20
0.8549605263157896
 10
4.797671052631579
 20
0.9326842105263159
 10
4.818868421052632
 20
0.9538815789473685
 10
4.847131578947368
 20
0.9397500000000001
 10
4.854197368421053
 20
0.8478947368421054
 10
4.868328947368421
 20
0.8549605263157896
 10
4.868328947368421
 20
0.9326842105263159
 10
4.889526315789474
 20
0.9538815789473685
 10
4.917789473684211
 20
0.9397500000000001
 10
4.917789473684211
 20
0.8549605263157896
 10
4.938986842105264
 20
0.8549605263157896
 10
4.931921052631579
 20
0.9609473684210527
  0
LWPOLYLINE
  5
48
330
17
100
AcDbEntity
  8
A-WALL
100
AcDbPolyline
 90
17
 70
1
 10
9.121934210526316
 20
0.9609473684210527
 10
9.129000000000001
 20
0.8478947368421054
 10
9.143131578947369
 20
0.8549605263157896
 10
9.143131578947369
 20
0.9326842105263159
 10
9.164328947368421
 20
0.9538815789473685
 10
9.19259210526316
 20
0.9397500000000001
 10
9.199657894736843
 20
0.8478947368421054
 10
9.213789473684212
 20
0.8549605263157896
 10
9.206723684210527
 20
0.9256184210526317
 10
9.234986842105263
 20
0.9538815789473685
 10
9.263250000000001
 20
0.9397500000000001
 10
9.263250000000001
 20
0.8549605263157896
 10
9.284447368421054
 20
0.8549605263157896
 10
9.277381578947368
 20
0.9609473684210527
 10
9.249118421052632
 20
0.9750789473684212
 10
9.213789473684212
 20
0.9538815789473685
 10
9.17846052631579
 20
0.9750789473684212
  0
LWPOLYLINE
  5
49
330
17
100
AcDbEntity
  8
A-WALL
100
AcDbPolyline
 90
10
 70
1
 10
8.966486842105263
 20
1.0174736842105263
 10
8.931157894736844
 20
0.9892105263157895
 10
8.94528947368421
 20
0.9468157894736843
 10
8.931157894736844
 20
0.8690921052631579
 10
8.99475
 20
0.8478947368421054
 10
9.030078947368422
 20
0.8761578947368421
 10
9.030078947368422
 20
0.9185526315789474
 10
9.008881578947369
 20
0.9397500000000001
 10
9.030078947368422
 20
0.9750789473684212
 10
9.001815789473685
 20
1.0104078947368422
  0
LWPOLYLINE
  5
4A
330
17
100
AcDbEntity
  8
A-WALL
100
AcDbPolyline
 90
5
 70
1
 10
8.966486842105263
 20
0.9326842105263159
 10
8.99475
 20
0.9326842105263159
 10
9.015947368421052
 20
0.8973552631578948
 10
8.987684210526316
 20
0.8620263157894738
 10
8.94528947368421
 20
0.8832236842105263
  0
LWPOLYLINE
  5
4B
330
17
100
AcDbEntity
  8
A-WALL
100
AcDbPolyline
 90
4
 70
1
 10
8.966486842105263
 20
0.9962763157894737
 10
9.008881578947369
 20
0.9750789473684212
 10
8.987684210526316
 20
0.9468157894736843
 10
8.952355263157896
 20
0.9609473684210527
  0
LWPOLYLINE
  5
4C
330
17
100
AcDbEntity
  8
A-WALL
100
AcDbPolyline
 90
13
 70
1
 10
8.846368421052633
 20
1.0174736842105263
 10
8.803973684210527
 20
0.9821447368421053
 10
8.796907894736842
 20
0.8973552631578948
 10
8.82517105263158
 20
0.8549605263157896
 10
8.867565789473685
 20
0.8478947368421054
 10
8.902894736842105
 20
0.8832236842105263
 10
8.902894736842105
 20
0.9256184210526317
 10
8.867565789473685
 20
0.9538815789473685
 10
8.818105263157895
 20
0.9397500000000001
 10
8.811039473684211
 20
0.9609473684210527
 10
8.839302631578947
 20
0.9962763157894737
 10
8.888763157894738
 20
0.9750789473684212
 10
8.902894736842105
 20
0.9892105263157895
  0
LWPOLYLINE
  5
4D
330
17
100
AcDbEntity
  8
A-WALL
100
AcDbPolyline
 90
4
 70
1
 10
8.846368421052633
 20
0.9397500000000001
 10
8.888763157894738
 20
0.9114868421052632
 10
8.8605
 20
0.8620263157894738
 10
8.818105263157895
 20
0.8902894736842106
  0
LWPOLYLINE
  5
4E
330
17
100
AcDbEntity
  8
A-WALL
100
AcDbPolyline
 90
17
 70
1
 10
8.648526315789475
 20
1.0174736842105263
 10
8.60613157894737
 20
0.9750789473684212
 10
8.627328947368422
 20
0.968013157894737
 10
8.648526315789475
 20
0.9962763157894737
 10
8.683855263157895
 20
0.9821447368421053
 10
8.648526315789475
 20
0.9256184210526317
 10
8.669723684210528
 20
0.9326842105263159
 10
8.69092105263158
 20
0.8832236842105263
 10
8.648526315789475
 20
0.8620263157894738
 10
8.60613157894737
 20
0.8973552631578948
 10
8.60613157894737
 20
0.8761578947368421
 10
8.64146052631579
 20
0.8478947368421054
 10
8.676789473684211
 20
0.8478947368421054
 10
8.712118421052633
 20
0.8832236842105263
 10
8.712118421052633
 20
0.9185526315789474
 10
8.69092105263158
 20
0.9326842105263159
 10
8.705052631578948
 20
0.9821447368421053
  0
LWPOLYLINE
  5
4F
330
17
100
AcDbEntity
  8
A-WALL
100
AcDbPolyline
 90
5
 70
1
 10
4.684618421052632
 20
1.0174736842105263
 10
4.578631578947369
 20
1.0104078947368422
 10
4.656355263157895
 20
0.9892105263157895
 10
4.606894736842106
 20
0.8478947368421054
 10
4.628092105263158
 20
0.8549605263157896
  0
LWPOLYLINE
  5
50
330
17
100
AcDbEntity
  8
A-WALL
100
AcDbPolyline
 90
16
 70
1
 10
4.500907894736843
 20
1.0174736842105263
 10
4.458513157894737
 20
0.9892105263157895
 10
4.458513157894737
 20
0.968013157894737
 10
4.515039473684211
 20
0.9962763157894737
 10
4.5362368421052635
 20
0.9609473684210527
 10
4.493842105263158
 20
0.9326842105263159
 10
4.529171052631579
 20
0.9256184210526317
 10
4.543302631578948
 20
0.8902894736842106
 10
4.515039473684211
 20
0.8620263157894738
 10
4.465578947368422
 20
0.8973552631578948
 10
4.451447368421053
 20
0.8832236842105263
 10
4.472644736842105
 20
0.8549605263157896
 10
4.522105263157895
 20
0.8478947368421054
 10
4.564500000000001
 20
0.904421052631579
 10
4.5362368421052635
 20
0.9397500000000001
 10
4.550368421052632
 20
0.9892105263157895
  0
LWPOLYLINE
  5
51
330
17
100
AcDbEntity
  8
A-WALL
100
AcDbPolyline
 90
15
 70
1
 10
4.288934210526316
 20
1.0174736842105263
 10
4.267736842105263
 20
0.9326842105263159
 10
4.331328947368421
 20
0.9397500000000001
 10
4.352526315789474
 20
0.8902894736842106
 10
4.3242631578947375
 20
0.8620263157894738
 10
4.274802631578948
 20
0.8973552631578948
 10
4.260671052631579
 20
0.8761578947368421
 10
4.296
 20
0.8478947368421054
 10
4.331328947368421
 20
0.8478947368421054
 10
4.3737236842105265
 20
0.8902894736842106
 10
4.3737236842105265
 20
0.9185526315789474
 10
4.331328947368421
 20
0.9609473684210527
 10
4.296
 20
0.9538815789473685
 10
4.288934210526316
 20
0.9821447368421053
 10
4.366657894736843
 20
1.0104078947368422
  0
LWPOLYLINE
  5
52
330
17
100
AcDbEntity
  8
A-WALL
100
AcDbPolyline
 90
10
 70
1
 10
7.934881578947369
 20
1.674592105263158
 10
7.934881578947369
 20
1.307171052631579
 10
7.949013157894737
 20
1.307171052631579
 10
7.949013157894737
 20
1.6533947368421054
 10
7.963144736842106
 20
1.6675263157894737
 10
8.309368421052632
 20
1.6604605263157897
 10
8.323500000000001
 20
1.6463289473684213
 10
8.316434210526316
 20
1.307171052631579
 10
8.330565789473685
 20
1.307171052631579
 10
8.323500000000001
 20
1.6816578947368421
  0
LWPOLYLINE
  5
53
330
17
100
AcDbEntity
  8
A-WALL
100
AcDbPolyline
 90
6
 70
1
 10
9.242052631578948
 20
1.3848947368421054
 10
9.270315789473685
 20
1.3636973684210527
 10
9.89917105263158
 20
1.3636973684210527
 10
9.920368421052633
 20
1.377828947368421
 10
9.913302631578949
 20
1.7099210526315791
 10
9.249118421052632
 20
1.7099210526315791
  0
LWPOLYLINE
  5
54
330
17
100
AcDbEntity
  8
A-WALL
100
AcDbPolyline
 90
4
 70
1
 10
9.263250000000001
 20
1.6887236842105264
 10
9.89917105263158
 20
1.6957894736842107
 10
9.906236842105264
 20
1.3919605263157895
 10
9.270315789473685
 20
1.3848947368421054
  0
LWPOLYLINE
  5
55
330
17
100
AcDbEntity
  8
A-WALL
100
AcDbPolyline
 90
6
 70
1
 10
8.478947368421053
 20
1.7028552631578948
 10
8.478947368421053
 20
1.377828947368421
 10
8.500144736842106
 20
1.3636973684210527
 10
9.129000000000001
 20
1.3636973684210527
 10
9.150197368421054
 20
1.377828947368421
 10
9.143131578947369
 20
1.7099210526315791
  0
LWPOLYLINE
  5
56
330
17
100
AcDbEntity
  8
A-WALL
100
AcDbPolyline
 90
5
 70
1
 10
8.493078947368423
 20
1.6887236842105264
 10
9.121934210526316
 20
1.6957894736842107
 10
9.136065789473685
 20
1.3990263157894738
 10
9.121934210526316
 20
1.3848947368421054
 10
8.500144736842106
 20
1.3848947368421054
  0
LWPOLYLINE
  5
57
330
17
100
AcDbEntity
  8
A-WALL
100
AcDbPolyline
 90
11
 70
1
 10
11.001434210526316
 20
2.310513157894737
 10
11.001434210526316
 20
2.2681184210526317
 10
11.036763157894738
 20
2.232789473684211
 10
11.050894736842107
 20
2.246921052631579
 10
11.015565789473685
 20
2.2963815789473685
 10
11.043828947368421
 20
2.3246447368421053
 10
11.163947368421054
 20
2.232789473684211
 10
11.163947368421054
 20
2.338776315789474
 10
11.142750000000001
 20
2.33171052631579
 10
11.142750000000001
 20
2.2610526315789476
 10
11.05796052631579
 20
2.338776315789474
  0
LWPOLYLINE
  5
58
330
17
100
AcDbEntity
  8
A-WALL
100
AcDbPolyline
 90
18
 70
1
 10
0.09185526315789475
 20
1.8724342105263159
 10
0.49460526315789477
 20
1.512078947368421
 10
0.67125
 20
1.7099210526315791
 10
0.7560394736842105
 20
1.5968684210526316
 10
0.8620263157894738
 20
1.5332763157894738
 10
0.9256184210526317
 20
1.5191447368421054
 10
1.0881315789473684
 20
1.5332763157894738
 10
1.165855263157895
 20
1.5756710526315791
 10
1.2506447368421054
 20
1.6604605263157897
 10
1.406092105263158
 20
1.4484868421052632
 10
1.844171052631579
 20
1.7593815789473686
 10
1.47675
 20
2.275184210526316
 10
1.20825
 20
2.084407894736842
 10
1.031605263157895
 20
2.176263157894737
 10
0.9185526315789474
 20
2.176263157894737
 10
0.7772368421052632
 20
2.1126710526315793
 10
0.5158026315789475
 20
2.345842105263158
 10
0.47340789473684214
 20
2.317578947368421
  0
LWPOLYLINE
  5
59
330
17
100
AcDbEntity
  8
A-WALL
100
AcDbPolyline
 90
4
 70
1
 10
1.7593815789473686
 20
1.8653684210526318
 10
1.8229736842105264
 20
1.7664473684210527
 10
1.4131578947368422
 20
1.469684210526316
 10
1.3425
 20
1.5686052631578948
  0
LWPOLYLINE
  5
5A
330
17
100
AcDbEntity
  8
A-WALL
100
AcDbPolyline
 90
4
 70
1
 10
0.1837105263157895
 20
1.9572236842105264
 10
0.5723289473684211
 20
1.6251315789473686
 10
0.501671052631579
 20
1.5332763157894738
 10
0.10598684210526317
 20
1.8653684210526318
  0
LWPOLYLINE
  5
5B
330
17
100
AcDbEntity
  8
A-WALL
100
AcDbPolyline
 90
15
 70
1
 10
0.8761578947368421
 20
2.148
 10
1.038671052631579
 20
2.155065789473684
 10
1.1234605263157895
 20
2.1268026315789474
 10
1.2435789473684211
 20
2.01375
 10
1.2859736842105265
 20
1.907763157894737
 10
1.2859736842105265
 20
1.7805789473684213
 10
1.2435789473684211
 20
1.6816578947368421
 10
1.1587894736842106
 20
1.5898026315789475
 10
1.0598684210526317
 20
1.540342105263158
 10
0.9326842105263159
 20
1.5332763157894738
 10
0.7984342105263158
 20
1.5827368421052632
 10
0.6783157894736842
 20
1.7311184210526318
 10
0.6641842105263158
 20
1.9006973684210529
 10
0.6853815789473685
 20
1.978421052631579
 10
0.7843026315789474
 20
2.0985394736842107
  0
LWPOLYLINE
  5
5C
330
17
100
AcDbEntity
  8
A-WALL
100
AcDbPolyline
 90
7
 70
1
 10
1.469684210526316
 20
2.2610526315789476
 10
1.7452500000000002
 20
1.8724342105263159
 10
1.335434210526316
 20
1.5756710526315791
 10
1.2577105263157895
 20
1.674592105263158
 10
1.3001052631578949
 20
1.773513157894737
 10
1.3001052631578949
 20
1.9148289473684212
 10
1.2153157894736843
 20
2.077342105263158
  0
LWPOLYLINE
  5
5D
330
17
100
AcDbEntity
  8
A-WALL
100
AcDbPolyline
 90
8
 70
1
 10
0.501671052631579
 20
2.3246447368421053
 10
0.7631052631578948
 20
2.1056052631578948
 10
0.6924473684210527
 20
2.0208157894736845
 10
0.6500526315789474
 20
1.9289605263157896
 10
0.6429868421052632
 20
1.8159078947368423
 10
0.6641842105263158
 20
1.7169868421052632
 10
0.5864605263157895
 20
1.6321973684210527
 10
0.1978421052631579
 20
1.9642894736842107
  0
LWPOLYLINE
  5
5E
330
17
100
AcDbEntity
  8
A-WALL
100
AcDbPolyline
 90
4
 70
1
 10
11.142750000000001
 20
2.3882368421052633
 10
11.149815789473685
 20
2.3670394736842106
 10
11.19221052631579
 20
2.3741052631578947
 10
11.178078947368421
 20
2.3953026315789474
  0
LWPOLYLINE
  5
5F
330
17
100
AcDbEntity
  8
A-WALL
100
AcDbPolyline
 90
8
 70
1
 10
11.001434210526316
 20
2.5295526315789476
 10
11.001434210526316
 20
2.423565789473684
 10
11.022631578947369
 20
2.4306315789473687
 10
11.022631578947369
 20
2.501289473684211
 10
11.079157894736843
 20
2.4659605263157895
 10
11.171013157894738
 20
2.4518289473684214
 10
11.156881578947369
 20
2.473026315789474
 10
11.114486842105263
 20
2.473026315789474
  0
LWPOLYLINE
  5
60
330
17
100
AcDbEntity
  8
A-WALL
100
AcDbPolyline
 90
11
 70
1
 10
10.994368421052632
 20
2.607276315789474
 10
11.015565789473685
 20
2.5648815789473685
 10
11.050894736842107
 20
2.5578157894736844
 10
11.07209210526316
 20
2.579013157894737
 10
11.100355263157896
 20
2.5507500000000003
 10
11.142750000000001
 20
2.5578157894736844
 10
11.171013157894738
 20
2.6002105263157897
 10
11.135684210526316
 20
2.6567368421052633
 10
11.09328947368421
 20
2.6567368421052633
 10
11.079157894736843
 20
2.6355394736842106
 10
11.036763157894738
 20
2.6567368421052633
  0
LWPOLYLINE
  5
61
330
17
100
AcDbEntity
  8
A-WALL
100
AcDbPolyline
 90
4
 70
1
 10
11.036763157894738
 20
2.6355394736842106
 10
11.065026315789474
 20
2.6214078947368424
 10
11.050894736842107
 20
2.579013157894737
 10
11.015565789473685
 20
2.5931447368421057
  0
LWPOLYLINE
  5
62
330
17
100
AcDbEntity
  8
A-WALL
100
AcDbPolyline
 90
4
 70
1
 10
11.09328947368421
 20
2.6355394736842106
 10
11.149815789473685
 20
2.6214078947368424
 10
11.128618421052632
 20
2.571947368421053
 10
11.086223684210527
 20
2.586078947368421
  0
LWPOLYLINE
  5
63
330
17
100
AcDbEntity
  8
A-WALL
100
AcDbPolyline
 90
4
 70
1
 10
5.857539473684211
 20
2.6567368421052633
 10
5.836342105263158
 20
2.649671052631579
 10
5.843407894736843
 20
2.6002105263157897
 10
5.8646052631578955
 20
2.614342105263158
  0
LWPOLYLINE
  5
64
330
17
100
AcDbEntity
  8
A-WALL
100
AcDbPolyline
 90
8
 70
1
 10
7.263631578947369
 20
2.7061973684210527
 10
7.256565789473685
 20
2.6920657894736846
 10
7.807697368421053
 20
2.6920657894736846
 10
7.821828947368422
 20
2.677934210526316
 10
7.814763157894737
 20
1.3636973684210527
 10
7.821828947368422
 20
1.3142368421052633
 10
7.83596052631579
 20
1.3142368421052633
 10
7.83596052631579
 20
2.6991315789473687
  0
LWPOLYLINE
  5
65
330
17
100
AcDbEntity
  8
A-WALL
100
AcDbPolyline
 90
17
 70
1
 10
6.09071052631579
 20
2.748592105263158
 10
6.09071052631579
 20
2.6355394736842106
 10
6.111907894736842
 20
2.6355394736842106
 10
6.111907894736842
 20
2.7203289473684213
 10
6.14017105263158
 20
2.741526315789474
 10
6.161368421052632
 20
2.7273947368421054
 10
6.161368421052632
 20
2.6355394736842106
 10
6.182565789473685
 20
2.6355394736842106
 10
6.182565789473685
 20
2.7203289473684213
 10
6.210828947368421
 20
2.741526315789474
 10
6.232026315789474
 20
2.7273947368421054
 10
6.232026315789474
 20
2.6355394736842106
 10
6.253223684210527
 20
2.6355394736842106
 10
6.2390921052631585
 20
2.748592105263158
 10
6.203763157894738
 20
2.755657894736842
 10
6.182565789473685
 20
2.7344605263157895
 10
6.154302631578948
 20
2.755657894736842
  0
LWPOLYLINE
  5
66
330
17
100
AcDbEntity
  8
A-WALL
100
AcDbPolyline
 90
8
 70
1
 10
5.9635263157894745
 20
2.7980526315789476
 10
5.885802631578948
 20
2.677934210526316
 10
5.949394736842105
 20
2.677934210526316
 10
5.95646052631579
 20
2.6355394736842106
 10
5.977657894736843
 20
2.6355394736842106
 10
5.998855263157895
 20
2.6920657894736846
 10
5.977657894736843
 20
2.6991315789473687
 10
5.977657894736843
 20
2.7980526315789476
  0
LWPOLYLINE
  5
67
330
17
100
AcDbEntity
  8
A-WALL
100
AcDbPolyline
 90
4
 70
1
 10
5.95646052631579
 20
2.755657894736842
 10
5.9635263157894745
 20
2.6991315789473687
 10
5.921131578947369
 20
2.685
 10
5.9140657894736846
 20
2.7061973684210527
  0
LWPOLYLINE
  5
68
330
17
100
AcDbEntity
  8
A-WALL
100
AcDbPolyline
 90
6
 70
1
 10
5.765684210526317
 20
2.7980526315789476
 10
5.716223684210527
 20
2.741526315789474
 10
5.758618421052632
 20
2.748592105263158
 10
5.758618421052632
 20
2.6355394736842106
 10
5.779815789473685
 20
2.6355394736842106
 10
5.779815789473685
 20
2.7980526315789476
  0
LWPOLYLINE
  5
69
330
17
100
AcDbEntity
  8
A-WALL
100
AcDbPolyline
 90
11
 70
1
 10
5.596105263157895
 20
2.7909868421052635
 10
5.5749078947368425
 20
2.748592105263158
 10
5.624368421052632
 20
2.783921052631579
 10
5.666763157894737
 20
2.748592105263158
 10
5.5749078947368425
 20
2.6355394736842106
 10
5.6879605263157895
 20
2.6355394736842106
 10
5.680894736842106
 20
2.6567368421052633
 10
5.610236842105263
 20
2.6567368421052633
 10
5.666763157894737
 20
2.713263157894737
 10
5.680894736842106
 20
2.769789473684211
 10
5.652631578947369
 20
2.7980526315789476
  0
LWPOLYLINE
  5
6A
330
17
100
AcDbEntity
  8
A-WALL
100
AcDbPolyline
 90
8
 70
1
 10
6.3026842105263166
 20
2.8051184210526316
 10
6.274421052631579
 20
2.776855263157895
 10
6.30975
 20
2.7909868421052635
 10
6.323881578947369
 20
2.769789473684211
 10
6.274421052631579
 20
2.7203289473684213
 10
6.338013157894737
 20
2.713263157894737
 10
6.30975
 20
2.7344605263157895
 10
6.338013157894737
 20
2.7909868421052635
  0
LWPOLYLINE
  5
6B
330
17
100
AcDbEntity
  8
A-WALL
100
AcDbPolyline
 90
12
 70
1
 10
11.05796052631579
 20
2.9040394736842106
 10
11.043828947368421
 20
2.8899078947368424
 10
11.05796052631579
 20
2.840447368421053
 10
11.043828947368421
 20
2.748592105263158
 10
11.163947368421054
 20
2.748592105263158
 10
11.163947368421054
 20
2.769789473684211
 10
11.079157894736843
 20
2.769789473684211
 10
11.05796052631579
 20
2.8051184210526316
 10
11.171013157894738
 20
2.8333815789473684
 10
11.079157894736843
 20
2.840447368421053
 10
11.05796052631579
 20
2.875776315789474
 10
11.171013157894738
 20
2.9040394736842106
  0
LWPOLYLINE
  5
6C
330
17
100
AcDbEntity
  8
A-WALL
100
AcDbPolyline
 90
4
 70
1
 10
5.702092105263159
 20
3.010026315789474
 10
5.695026315789474
 20
2.8969736842105265
 10
5.716223684210527
 20
2.8969736842105265
 10
5.716223684210527
 20
3.010026315789474
  0
LWPOLYLINE
  5
6D
330
17
100
AcDbEntity
  8
A-WALL
100
AcDbPolyline
 90
4
 70
1
 10
5.532513157894737
 20
3.010026315789474
 10
5.532513157894737
 20
2.8969736842105265
 10
5.546644736842105
 20
2.8969736842105265
 10
5.546644736842105
 20
3.010026315789474
  0
LWPOLYLINE
  5
6E
330
17
100
AcDbEntity
  8
A-WALL
100
AcDbPolyline
 90
10
 70
1
 10
6.415736842105264
 20
3.00296052631579
 10
6.415736842105264
 20
2.9746973684210527
 10
6.4510657894736845
 20
3.00296052631579
 10
6.486394736842105
 20
2.9746973684210527
 10
6.422802631578948
 20
2.9535
 10
6.408671052631579
 20
2.911105263157895
 10
6.436934210526316
 20
2.8899078947368424
 10
6.507592105263158
 20
2.8969736842105265
 10
6.507592105263158
 20
2.9958947368421054
 10
6.479328947368422
 20
3.017092105263158
  0
LWPOLYLINE
  5
6F
330
17
100
AcDbEntity
  8
A-WALL
100
AcDbPolyline
 90
4
 70
1
 10
6.49346052631579
 20
2.939368421052632
 10
6.4651973684210535
 20
2.911105263157895
 10
6.422802631578948
 20
2.9252368421052632
 10
6.4651973684210535
 20
2.9535
  0
LWPOLYLINE
  5
70
330
17
100
AcDbEntity
  8
A-WALL
100
AcDbPolyline
 90
11
 70
1
 10
6.316815789473685
 20
3.017092105263158
 10
6.2885526315789475
 20
2.9958947368421054
 10
6.274421052631579
 20
2.946434210526316
 10
6.3026842105263166
 20
2.8969736842105265
 10
6.345078947368422
 20
2.8899078947368424
 10
6.380407894736843
 20
2.9252368421052632
 10
6.316815789473685
 20
2.911105263157895
 10
6.295618421052632
 20
2.946434210526316
 10
6.373342105263158
 20
2.9535
 10
6.387473684210526
 20
2.9746973684210527
 10
6.35921052631579
 20
3.010026315789474
  0
LWPOLYLINE
  5
71
330
17
100
AcDbEntity
  8
A-WALL
100
AcDbPolyline
 90
4
 70
1
 10
6.3026842105263166
 20
2.9817631578947372
 10
6.338013157894737
 20
3.00296052631579
 10
6.366276315789474
 20
2.9746973684210527
 10
6.30975
 20
2.9676315789473686
  0
LWPOLYLINE
  5
72
330
17
100
AcDbEntity
  8
A-WALL
100
AcDbPolyline
 90
6
 70
1
 10
6.260289473684211
 20
3.017092105263158
 10
6.203763157894738
 20
3.010026315789474
 10
6.210828947368421
 20
2.8969736842105265
 10
6.22496052631579
 20
2.8969736842105265
 10
6.22496052631579
 20
2.9746973684210527
 10
6.267355263157895
 20
2.9958947368421054
  0
LWPOLYLINE
  5
73
330
17
100
AcDbEntity
  8
A-WALL
100
AcDbPolyline
 90
12
 70
1
 10
5.907
 20
3.017092105263158
 10
5.871671052631579
 20
2.9888289473684213
 10
5.871671052631579
 20
2.9252368421052632
 10
5.899934210526316
 20
2.8969736842105265
 10
5.942328947368422
 20
2.9040394736842106
 10
5.949394736842105
 20
2.8828421052631583
 10
5.928197368421053
 20
2.8616447368421056
 10
5.885802631578948
 20
2.8828421052631583
 10
5.871671052631579
 20
2.8687105263157897
 10
5.935263157894737
 20
2.847513157894737
 10
5.970592105263158
 20
2.8828421052631583
 10
5.970592105263158
 20
3.010026315789474
  0
LWPOLYLINE
  5
74
330
17
100
AcDbEntity
  8
A-WALL
100
AcDbPolyline
 90
5
 70
1
 10
5.9140657894736846
 20
3.00296052631579
 10
5.949394736842105
 20
2.9817631578947372
 10
5.935263157894737
 20
2.911105263157895
 10
5.885802631578948
 20
2.9323026315789478
 10
5.885802631578948
 20
2.9746973684210527
  0
LWPOLYLINE
  5
75
330
17
100
AcDbEntity
  8
A-WALL
100
AcDbPolyline
 90
9
 70
1
 10
5.751552631578948
 20
3.017092105263158
 10
5.744486842105264
 20
2.9040394736842106
 10
5.765684210526317
 20
2.8969736842105265
 10
5.765684210526317
 20
2.9746973684210527
 10
5.8010131578947375
 20
3.00296052631579
 10
5.82221052631579
 20
2.9817631578947372
 10
5.82221052631579
 20
2.8969736842105265
 10
5.836342105263158
 20
2.8969736842105265
 10
5.836342105263158
 20
3.00296052631579
  0
LWPOLYLINE
  5
76
330
17
100
AcDbEntity
  8
A-WALL
100
AcDbPolyline
 90
6
 70
1
 10
5.5749078947368425
 20
3.017092105263158
 10
5.596105263157895
 20
2.9323026315789478
 10
5.631434210526316
 20
2.8969736842105265
 10
5.673828947368421
 20
3.010026315789474
 10
5.652631578947369
 20
3.010026315789474
 10
5.624368421052632
 20
2.9252368421052632
  0
LWPOLYLINE
  5
77
330
17
100
AcDbEntity
  8
A-WALL
100
AcDbPolyline
 90
7
 70
1
 10
6.104842105263159
 20
3.0594868421052634
 10
6.041250000000001
 20
2.8969736842105265
 10
6.069513157894737
 20
2.9040394736842106
 10
6.083644736842106
 20
2.946434210526316
 10
6.14017105263158
 20
2.946434210526316
 10
6.182565789473685
 20
2.8969736842105265
 10
6.133105263157895
 20
3.045355263157895
  0
LWPOLYLINE
  5
78
330
17
100
AcDbEntity
  8
A-WALL
100
AcDbPolyline
 90
4
 70
1
 10
6.111907894736842
 20
3.0312236842105267
 10
6.14017105263158
 20
2.9817631578947372
 10
6.133105263157895
 20
2.9605657894736845
 10
6.083644736842106
 20
2.9746973684210527
  0
LWPOLYLINE
  5
79
330
17
100
AcDbEntity
  8
A-WALL
100
AcDbPolyline
 90
6
 70
1
 10
5.405328947368422
 20
3.0594868421052634
 10
5.405328947368422
 20
2.9040394736842106
 10
5.504250000000001
 20
2.8969736842105265
 10
5.497184210526316
 20
2.918171052631579
 10
5.426526315789474
 20
2.9252368421052632
 10
5.426526315789474
 20
3.0594868421052634
  0
LWPOLYLINE
  5
7A
330
17
100
AcDbEntity
  8
A-WALL
100
AcDbPolyline
 90
3
 70
1
 10
5.539578947368422
 20
3.0665526315789475
 10
5.525447368421053
 20
3.045355263157895
 10
5.55371052631579
 20
3.0382894736842108
  0
LWPOLYLINE
  5
7B
330
17
100
AcDbEntity
  8
A-WALL
100
AcDbPolyline
 90
5
 70
1
 10
4.034565789473684
 20
3.2290657894736845
 10
4.034565789473684
 20
2.571947368421053
 10
5.179223684210527
 20
2.5648815789473685
 10
5.193355263157895
 20
2.579013157894737
 10
5.186289473684211
 20
3.2361315789473686
  0
LWPOLYLINE
  5
7C
330
17
100
AcDbEntity
  8
A-WALL
100
AcDbPolyline
 90
5
 70
1
 10
4.0486973684210525
 20
3.214934210526316
 10
5.165092105263159
 20
3.2220000000000004
 10
5.172157894736842
 20
2.586078947368421
 10
4.062828947368422
 20
2.579013157894737
 10
4.0486973684210525
 20
2.5931447368421057
  0
LWPOLYLINE
  5
7D
330
17
100
AcDbEntity
  8
A-WALL
100
AcDbPolyline
 90
4
 70
1
 10
0.8973552631578948
 20
3.278526315789474
 10
0.8761578947368421
 20
3.27146052631579
 10
0.8761578947368421
 20
3.2220000000000004
 10
0.904421052631579
 20
3.2361315789473686
  0
LWPOLYLINE
  5
7E
330
17
100
AcDbEntity
  8
A-WALL
100
AcDbPolyline
 90
14
 70
1
 10
3.1584078947368424
 20
3.285592105263158
 10
2.5931447368421057
 20
3.0312236842105267
 10
2.5507500000000003
 20
2.9958947368421054
 10
2.515421052631579
 20
2.9252368421052632
 10
2.5224868421052635
 20
2.8333815789473684
 10
2.7909868421052635
 20
2.2610526315789476
 10
2.854578947368421
 20
2.2045263157894737
 10
2.911105263157895
 20
2.1833289473684214
 10
3.024157894736842
 20
2.211592105263158
 10
3.53996052631579
 20
2.4588947368421055
 10
3.4975657894736845
 20
2.5436842105263158
 10
3.5328947368421053
 20
2.6002105263157897
 10
3.2573289473684213
 20
3.186671052631579
 10
3.207868421052632
 20
3.193736842105263
  0
LWPOLYLINE
  5
7F
330
17
100
AcDbEntity
  8
A-WALL
100
AcDbPolyline
 90
4
 70
1
 10
3.2361315789473686
 20
3.179605263157895
 10
3.511697368421053
 20
2.586078947368421
 10
2.9817631578947372
 20
2.345842105263158
 10
2.7061973684210527
 20
2.9323026315789478
  0
LWPOLYLINE
  5
80
330
17
100
AcDbEntity
  8
A-WALL
100
AcDbPolyline
 90
15
 70
1
 10
3.1442763157894738
 20
3.27146052631579
 10
3.186671052631579
 20
3.193736842105263
 10
3.179605263157895
 20
3.172539473684211
 10
2.7273947368421054
 20
2.9676315789473686
 10
2.685
 20
2.9323026315789478
 10
2.9746973684210527
 20
2.3246447368421053
 10
3.4763684210526318
 20
2.5578157894736844
 10
3.518763157894737
 20
2.4659605263157895
 10
3.00296052631579
 20
2.2186578947368423
 10
2.8899078947368424
 20
2.2045263157894737
 10
2.840447368421053
 20
2.232789473684211
 10
2.776855263157895
 20
2.317578947368421
 10
2.5507500000000003
 20
2.8051184210526316
 10
2.5366184210526317
 20
2.9323026315789478
 10
2.6002105263157897
 20
3.017092105263158
  0
LWPOLYLINE
  5
81
330
17
100
AcDbEntity
  8
A-WALL
100
AcDbPolyline
 90
14
 70
1
 10
1.1305263157894738
 20
3.370381578947369
 10
1.1305263157894738
 20
3.2573289473684213
 10
1.1517236842105265
 20
3.2573289473684213
 10
1.1517236842105265
 20
3.342118421052632
 10
1.1799868421052633
 20
3.3633157894736843
 10
1.201184210526316
 20
3.349184210526316
 10
1.201184210526316
 20
3.2573289473684213
 10
1.2223815789473684
 20
3.2573289473684213
 10
1.2223815789473684
 20
3.342118421052632
 10
1.2506447368421054
 20
3.3633157894736843
 10
1.2718421052631579
 20
3.349184210526316
 10
1.2718421052631579
 20
3.2573289473684213
 10
1.2930394736842106
 20
3.2573289473684213
 10
1.2789078947368422
 20
3.370381578947369
  0
LWPOLYLINE
  5
82
330
17
100
AcDbEntity
  8
A-WALL
100
AcDbPolyline
 90
3
 70
1
 10
9.051276315789474
 20
3.3986447368421056
 10
9.030078947368422
 20
3.3986447368421056
 10
9.037144736842105
 20
3.342118421052632
  0
LWPOLYLINE
  5
83
330
17
100
AcDbEntity
  8
A-WALL
100
AcDbPolyline
 90
10
 70
1
 10
0.968013157894737
 20
3.4198421052631582
 10
0.9397500000000001
 20
3.3915789473684215
 10
0.9538815789473685
 20
3.342118421052632
 10
0.9326842105263159
 20
3.2926578947368426
 10
0.9609473684210527
 20
3.2573289473684213
 10
0.9962763157894737
 20
3.250263157894737
 10
1.038671052631579
 20
3.285592105263158
 10
1.0174736842105263
 20
3.342118421052632
 10
1.038671052631579
 20
3.384513157894737
 10
1.0174736842105263
 20
3.412776315789474
  0
LWPOLYLINE
  5
84
330
17
100
AcDbEntity
  8
A-WALL
100
AcDbPolyline
 90
4
 70
1
 10
0.9750789473684212
 20
3.342118421052632
 10
1.0245394736842106
 20
3.3067894736842107
 10
0.9892105263157895
 20
3.2643947368421053
 10
0.9538815789473685
 20
3.2926578947368426
  0
LWPOLYLINE
  5
85
330
17
100
AcDbEntity
  8
A-WALL
100
AcDbPolyline
 90
4
 70
1
 10
0.9538815789473685
 20
3.384513157894737
 10
0.9962763157894737
 20
3.4057105263157896
 10
1.0174736842105263
 20
3.370381578947369
 10
0.9750789473684212
 20
3.35625
  0
LWPOLYLINE
  5
86
330
17
100
AcDbEntity
  8
A-WALL
100
AcDbPolyline
 90
14
 70
1
 10
0.7772368421052632
 20
3.4198421052631582
 10
0.7419078947368422
 20
3.384513157894737
 10
0.7489736842105263
 20
3.3350526315789475
 10
0.7772368421052632
 20
3.313855263157895
 10
0.8196315789473685
 20
3.3279868421052634
 10
0.8337631578947369
 20
3.313855263157895
 10
0.7913684210526316
 20
3.2643947368421053
 10
0.7489736842105263
 20
3.2997236842105266
 10
0.7419078947368422
 20
3.285592105263158
 10
0.7631052631578948
 20
3.2573289473684213
 10
0.7984342105263158
 20
3.250263157894737
 10
0.8408289473684211
 20
3.285592105263158
 10
0.8478947368421054
 20
3.377447368421053
 10
0.8125657894736843
 20
3.4198421052631582
  0
LWPOLYLINE
  5
87
330
17
100
AcDbEntity
  8
A-WALL
100
AcDbPolyline
 90
6
 70
1
 10
0.7913684210526316
 20
3.4057105263157896
 10
0.8266973684210527
 20
3.384513157894737
 10
0.8266973684210527
 20
3.349184210526316
 10
0.7984342105263158
 20
3.3279868421052634
 10
0.7631052631578948
 20
3.349184210526316
 10
0.7631052631578948
 20
3.384513157894737
  0
LWPOLYLINE
  5
88
330
17
100
AcDbEntity
  8
A-WALL
100
AcDbPolyline
 90
8
 70
1
 10
1.3425
 20
3.4269078947368423
 10
1.3142368421052633
 20
3.3986447368421056
 10
1.3566315789473684
 20
3.4057105263157896
 10
1.3636973684210527
 20
3.3915789473684215
 10
1.3142368421052633
 20
3.342118421052632
 10
1.377828947368421
 20
3.3350526315789475
 10
1.3495657894736843
 20
3.35625
 10
1.377828947368421
 20
3.412776315789474
  0
LWPOLYLINE
  5
89
330
17
100
AcDbEntity
  8
A-WALL
100
AcDbPolyline
 90
17
 70
1
 10
9.284447368421054
 20
3.4975657894736845
 10
9.284447368421054
 20
3.370381578947369
 10
9.305644736842106
 20
3.377447368421053
 10
9.298578947368421
 20
3.455171052631579
 10
9.319776315789474
 20
3.4763684210526318
 10
9.355105263157895
 20
3.4622368421052636
 10
9.355105263157895
 20
3.370381578947369
 10
9.376302631578948
 20
3.377447368421053
 10
9.390434210526317
 20
3.4763684210526318
 10
9.425763157894737
 20
3.4622368421052636
 10
9.425763157894737
 20
3.370381578947369
 10
9.44696052631579
 20
3.377447368421053
 10
9.432828947368423
 20
3.4905000000000004
 10
9.3975
 20
3.4975657894736845
 10
9.369236842105265
 20
3.4763684210526318
 10
9.340973684210526
 20
3.4975657894736845
 10
9.31271052631579
 20
3.483434210526316
  0
LWPOLYLINE
  5
8A
330
17
100
AcDbEntity
  8
A-WALL
100
AcDbPolyline
 90
8
 70
1
 10
9.475223684210526
 20
3.53996052631579
 10
9.468157894736843
 20
3.518763157894737
 10
9.503486842105264
 20
3.5258289473684212
 10
9.510552631578948
 20
3.5046315789473685
 10
9.468157894736843
 20
3.4622368421052636
 10
9.53175
 20
3.455171052631579
 10
9.503486842105264
 20
3.4763684210526318
 10
9.53175
 20
3.5258289473684212
  0
LWPOLYLINE
  5
8B
330
17
100
AcDbEntity
  8
A-WALL
100
AcDbPolyline
 90
13
 70
1
 10
9.129000000000001
 20
3.53996052631579
 10
9.086605263157896
 20
3.4975657894736845
 10
9.086605263157896
 20
3.412776315789474
 10
9.114868421052632
 20
3.377447368421053
 10
9.157263157894738
 20
3.370381578947369
 10
9.19259210526316
 20
3.4057105263157896
 10
9.185526315789474
 20
3.4622368421052636
 10
9.150197368421054
 20
3.483434210526316
 10
9.100736842105263
 20
3.4763684210526318
 10
9.136065789473685
 20
3.5258289473684212
 10
9.171394736842107
 20
3.4975657894736845
 10
9.19259210526316
 20
3.5046315789473685
 10
9.164328947368421
 20
3.53996052631579
  0
LWPOLYLINE
  5
8C
330
17
100
AcDbEntity
  8
A-WALL
100
AcDbPolyline
 90
4
 70
1
 10
9.114868421052632
 20
3.455171052631579
 10
9.171394736842107
 20
3.448105263157895
 10
9.157263157894738
 20
3.3915789473684215
 10
9.107802631578949
 20
3.412776315789474
  0
LWPOLYLINE
  5
8D
330
17
100
AcDbEntity
  8
A-WALL
100
AcDbPolyline
 90
13
 70
1
 10
8.931157894736844
 20
3.53996052631579
 10
8.895828947368422
 20
3.511697368421053
 10
8.895828947368422
 20
3.4622368421052636
 10
8.931157894736844
 20
3.4339736842105264
 10
8.973552631578949
 20
3.448105263157895
 10
8.987684210526316
 20
3.4339736842105264
 10
8.95942105263158
 20
3.3915789473684215
 10
8.902894736842105
 20
3.4198421052631582
 10
8.895828947368422
 20
3.3986447368421056
 10
8.95942105263158
 20
3.370381578947369
 10
8.99475
 20
3.4057105263157896
 10
9.001815789473685
 20
3.483434210526316
 10
8.966486842105263
 20
3.53996052631579
  0
LWPOLYLINE
  5
8E
330
17
100
AcDbEntity
  8
A-WALL
100
AcDbPolyline
 90
5
 70
1
 10
8.94528947368421
 20
3.5258289473684212
 10
8.980618421052633
 20
3.4975657894736845
 10
8.95942105263158
 20
3.448105263157895
 10
8.917026315789474
 20
3.4693026315789477
 10
8.917026315789474
 20
3.5046315789473685
  0
LWPOLYLINE
  5
8F
330
17
100
AcDbEntity
  8
A-WALL
100
AcDbPolyline
 90
9
 70
1
 10
1.4626184210526316
 20
3.6388815789473687
 10
1.4343552631578949
 20
3.62475
 10
1.4131578947368422
 20
3.554092105263158
 10
1.3919605263157895
 20
3.5682236842105266
 10
1.377828947368421
 20
3.6318157894736847
 10
1.3566315789473684
 20
3.6388815789473687
 10
1.3990263157894738
 20
3.5258289473684212
 10
1.3636973684210527
 20
3.4693026315789477
 10
1.406092105263158
 20
3.483434210526316
  0
LWPOLYLINE
  5
90
330
17
100
AcDbEntity
  8
A-WALL
100
AcDbPolyline
 90
9
 70
1
 10
1.2435789473684211
 20
3.6388815789473687
 10
1.236513157894737
 20
3.5258289473684212
 10
1.2577105263157895
 20
3.518763157894737
 10
1.2577105263157895
 20
3.5964868421052634
 10
1.2930394736842106
 20
3.62475
 10
1.3142368421052633
 20
3.6035526315789475
 10
1.3142368421052633
 20
3.518763157894737
 10
1.335434210526316
 20
3.518763157894737
 10
1.3283684210526316
 20
3.62475
  0
LWPOLYLINE
  5
91
330
17
100
AcDbEntity
  8
A-WALL
100
AcDbPolyline
 90
8
 70
1
 10
1.1446578947368422
 20
3.6388815789473687
 10
1.1093289473684211
 20
3.6035526315789475
 10
1.1093289473684211
 20
3.547026315789474
 10
1.1305263157894738
 20
3.518763157894737
 10
1.165855263157895
 20
3.511697368421053
 10
1.20825
 20
3.53996052631579
 10
1.2153157894736843
 20
3.5894210526315793
 10
1.1870526315789474
 20
3.6318157894736847
  0
LWPOLYLINE
  5
92
330
17
100
AcDbEntity
  8
A-WALL
100
AcDbPolyline
 90
5
 70
1
 10
1.1517236842105265
 20
3.62475
 10
1.201184210526316
 20
3.582355263157895
 10
1.172921052631579
 20
3.5328947368421053
 10
1.1234605263157895
 20
3.554092105263158
 10
1.1234605263157895
 20
3.5964868421052634
  0
LWPOLYLINE
  5
93
330
17
100
AcDbEntity
  8
A-WALL
100
AcDbPolyline
 90
11
 70
1
 10
1.031605263157895
 20
3.6388815789473687
 10
0.9962763157894737
 20
3.610618421052632
 10
0.9962763157894737
 20
3.53996052631579
 10
1.0528026315789474
 20
3.511697368421053
 10
1.0881315789473684
 20
3.554092105263158
 10
1.031605263157895
 20
3.5328947368421053
 10
1.0104078947368422
 20
3.554092105263158
 10
1.0104078947368422
 20
3.5964868421052634
 10
1.038671052631579
 20
3.62475
 10
1.074
 20
3.5964868421052634
 10
1.0881315789473684
 20
3.617684210526316
  0
LWPOLYLINE
  5
94
330
17
100
AcDbEntity
  8
A-WALL
100
AcDbPolyline
 90
10
 70
1
 10
0.8337631578947369
 20
3.6318157894736847
 10
0.8196315789473685
 20
3.5964868421052634
 10
0.8549605263157896
 20
3.62475
 10
0.8902894736842106
 20
3.617684210526316
 10
0.8973552631578948
 20
3.5964868421052634
 10
0.8196315789473685
 20
3.5682236842105266
 10
0.8196315789473685
 20
3.5258289473684212
 10
0.9185526315789474
 20
3.518763157894737
 10
0.9114868421052632
 20
3.617684210526316
 10
0.8832236842105263
 20
3.6388815789473687
  0
LWPOLYLINE
  5
95
330
17
100
AcDbEntity
  8
A-WALL
100
AcDbPolyline
 90
4
 70
1
 10
0.8973552631578948
 20
3.5682236842105266
 10
0.8620263157894738
 20
3.5258289473684212
 10
0.8337631578947369
 20
3.53996052631579
 10
0.8478947368421054
 20
3.5682236842105266
  0
LWPOLYLINE
  5
96
330
17
100
AcDbEntity
  8
A-WALL
100
AcDbPolyline
 90
4
 70
1
 10
0.9468157894736843
 20
3.681276315789474
 10
0.9468157894736843
 20
3.518763157894737
 10
0.968013157894737
 20
3.518763157894737
 10
0.968013157894737
 20
3.681276315789474
  0
LWPOLYLINE
  5
97
330
17
100
AcDbEntity
  8
A-WALL
100
AcDbPolyline
 90
7
 70
1
 10
0.67125
 20
3.681276315789474
 10
0.6641842105263158
 20
3.5258289473684212
 10
0.7631052631578948
 20
3.518763157894737
 10
0.7913684210526316
 20
3.5611578947368425
 10
0.7631052631578948
 20
3.6035526315789475
 10
0.7843026315789474
 20
3.653013157894737
 10
0.7489736842105263
 20
3.681276315789474
  0
LWPOLYLINE
  5
98
330
17
100
AcDbEntity
  8
A-WALL
100
AcDbPolyline
 90
4
 70
1
 10
0.6853815789473685
 20
3.5894210526315793
 10
0.7489736842105263
 20
3.5964868421052634
 10
0.770171052631579
 20
3.554092105263158
 10
0.6995131578947369
 20
3.5328947368421053
  0
LWPOLYLINE
  5
99
330
17
100
AcDbEntity
  8
A-WALL
100
AcDbPolyline
 90
4
 70
1
 10
0.6853815789473685
 20
3.653013157894737
 10
0.734842105263158
 20
3.6671447368421055
 10
0.7631052631578948
 20
3.62475
 10
0.6924473684210527
 20
3.610618421052632
  0
LWPOLYLINE
  5
9A
330
17
100
AcDbEntity
  8
A-WALL
100
AcDbPolyline
 90
16
 70
1
 10
9.496421052631579
 20
3.7519342105263163
 10
9.503486842105264
 20
3.6318157894736847
 10
9.517618421052632
 20
3.6388815789473687
 10
9.517618421052632
 20
3.716605263157895
 10
9.538815789473684
 20
3.7378026315789477
 10
9.574144736842106
 20
3.723671052631579
 10
9.574144736842106
 20
3.6318157894736847
 10
9.588276315789475
 20
3.6318157894736847
 10
9.602407894736842
 20
3.7378026315789477
 10
9.644802631578948
 20
3.723671052631579
 10
9.637736842105264
 20
3.6388815789473687
 10
9.666
 20
3.6388815789473687
 10
9.644802631578948
 20
3.7519342105263163
 10
9.616539473684211
 20
3.7590000000000003
 10
9.588276315789475
 20
3.7378026315789477
 10
9.560013157894737
 20
3.7590000000000003
  0
LWPOLYLINE
  5
9B
330
17
100
AcDbEntity
  8
A-WALL
100
AcDbPolyline
 90
7
 70
1
 10
9.404565789473684
 20
3.7590000000000003
 10
9.369236842105265
 20
3.7307368421052636
 10
9.369236842105265
 20
3.6671447368421055
 10
9.390434210526317
 20
3.6388815789473687
 10
9.432828947368423
 20
3.6318157894736847
 10
9.468157894736843
 20
3.6600789473684214
 10
9.468157894736843
 20
3.7307368421052636
  0
LWPOLYLINE
  5
9C
330
17
100
AcDbEntity
  8
A-WALL
100
AcDbPolyline
 90
6
 70
1
 10
9.404565789473684
 20
3.7378026315789477
 10
9.454026315789474
 20
3.716605263157895
 10
9.454026315789474
 20
3.6742105263157896
 10
9.432828947368423
 20
3.653013157894737
 10
9.404565789473684
 20
3.653013157894737
 10
9.383368421052632
 20
3.681276315789474
  0
LWPOLYLINE
  5
9D
330
17
100
AcDbEntity
  8
A-WALL
100
AcDbPolyline
 90
7
 70
1
 10
9.277381578947368
 20
3.7590000000000003
 10
9.242052631578948
 20
3.723671052631579
 10
9.234986842105263
 20
3.681276315789474
 10
9.263250000000001
 20
3.6388815789473687
 10
9.305644736842106
 20
3.6318157894736847
 10
9.340973684210526
 20
3.6600789473684214
 10
9.340973684210526
 20
3.7307368421052636
  0
LWPOLYLINE
  5
9E
330
17
100
AcDbEntity
  8
A-WALL
100
AcDbPolyline
 90
5
 70
1
 10
9.277381578947368
 20
3.7378026315789477
 10
9.32684210526316
 20
3.716605263157895
 10
9.32684210526316
 20
3.6671447368421055
 10
9.277381578947368
 20
3.653013157894737
 10
9.256184210526316
 20
3.681276315789474
  0
LWPOLYLINE
  5
9F
330
17
100
AcDbEntity
  8
A-WALL
100
AcDbPolyline
 90
6
 70
1
 10
9.220855263157896
 20
3.7590000000000003
 10
9.171394736842107
 20
3.7519342105263163
 10
9.171394736842107
 20
3.6318157894736847
 10
9.19259210526316
 20
3.6388815789473687
 10
9.185526315789474
 20
3.716605263157895
 10
9.22792105263158
 20
3.7378026315789477
  0
LWPOLYLINE
  5
A0
330
17
100
AcDbEntity
  8
A-WALL
100
AcDbPolyline
 90
11
 70
1
 10
8.94528947368421
 20
3.7590000000000003
 10
8.90996052631579
 20
3.716605263157895
 10
8.90996052631579
 20
3.6742105263157896
 10
8.94528947368421
 20
3.6318157894736847
 10
8.980618421052633
 20
3.6318157894736847
 10
9.008881578947369
 20
3.6742105263157896
 10
8.94528947368421
 20
3.653013157894737
 10
8.924092105263158
 20
3.681276315789474
 10
9.008881578947369
 20
3.6954078947368423
 10
9.015947368421052
 20
3.716605263157895
 10
8.980618421052633
 20
3.7590000000000003
  0
LWPOLYLINE
  5
A1
330
17
100
AcDbEntity
  8
A-WALL
100
AcDbPolyline
 90
4
 70
1
 10
8.931157894736844
 20
3.723671052631579
 10
8.980618421052633
 20
3.7378026315789477
 10
8.99475
 20
3.709539473684211
 10
8.938223684210527
 20
3.702473684210527
  0
LWPOLYLINE
  5
A2
330
17
100
AcDbEntity
  8
A-WALL
100
AcDbPolyline
 90
8
 70
1
 10
9.136065789473685
 20
3.8013947368421057
 10
9.114868421052632
 20
3.794328947368421
 10
9.114868421052632
 20
3.7448684210526317
 10
9.072473684210527
 20
3.7590000000000003
 10
9.04421052631579
 20
3.7378026315789477
 10
9.037144736842105
 20
3.6742105263157896
 10
9.072473684210527
 20
3.6318157894736847
 10
9.136065789473685
 20
3.6388815789473687
  0
LWPOLYLINE
  5
A3
330
17
100
AcDbEntity
  8
A-WALL
100
AcDbPolyline
 90
6
 70
1
 10
9.072473684210527
 20
3.7378026315789477
 10
9.100736842105263
 20
3.7378026315789477
 10
9.121934210526316
 20
3.709539473684211
 10
9.100736842105263
 20
3.653013157894737
 10
9.072473684210527
 20
3.653013157894737
 10
9.051276315789474
 20
3.681276315789474
  0
LWPOLYLINE
  5
A4
330
17
100
AcDbEntity
  8
A-WALL
100
AcDbPolyline
 90
9
 70
1
 10
8.761578947368422
 20
3.8013947368421057
 10
8.761578947368422
 20
3.6388815789473687
 10
8.8605
 20
3.6388815789473687
 10
8.881697368421053
 20
3.6600789473684214
 10
8.881697368421053
 20
3.702473684210527
 10
8.8605
 20
3.723671052631579
 10
8.881697368421053
 20
3.7519342105263163
 10
8.874631578947369
 20
3.780197368421053
 10
8.846368421052633
 20
3.8013947368421057
  0
LWPOLYLINE
  5
A5
330
17
100
AcDbEntity
  8
A-WALL
100
AcDbPolyline
 90
5
 70
1
 10
8.782776315789475
 20
3.709539473684211
 10
8.853434210526316
 20
3.709539473684211
 10
8.867565789473685
 20
3.6742105263157896
 10
8.839302631578947
 20
3.653013157894737
 10
8.789842105263158
 20
3.653013157894737
  0
LWPOLYLINE
  5
A6
330
17
100
AcDbEntity
  8
A-WALL
100
AcDbPolyline
 90
5
 70
1
 10
8.782776315789475
 20
3.7731315789473685
 10
8.846368421052633
 20
3.780197368421053
 10
8.8605
 20
3.7519342105263163
 10
8.846368421052633
 20
3.7307368421052636
 10
8.789842105263158
 20
3.7307368421052636
  0
LWPOLYLINE
  5
A7
330
17
100
AcDbEntity
  8
A-WALL
100
AcDbPolyline
 90
6
 70
1
 10
4.677552631578948
 20
4.260671052631579
 10
4.677552631578948
 20
3.518763157894737
 10
5.546644736842105
 20
3.511697368421053
 10
5.560776315789474
 20
3.5258289473684212
 10
5.560776315789474
 20
4.253605263157895
 10
5.546644736842105
 20
4.267736842105263
  0
LWPOLYLINE
  5
A8
330
17
100
AcDbEntity
  8
A-WALL
100
AcDbPolyline
 90
7
 70
1
 10
4.691684210526316
 20
4.239473684210527
 10
4.705815789473685
 20
4.253605263157895
 10
5.539578947368422
 20
4.246539473684211
 10
5.55371052631579
 20
4.232407894736842
 10
5.55371052631579
 20
3.547026315789474
 10
5.539578947368422
 20
3.5328947368421053
 10
4.69875
 20
3.5328947368421053
  0
LWPOLYLINE
  5
A9
330
17
100
AcDbEntity
  8
A-WALL
100
AcDbPolyline
 90
6
 70
1
 10
3.7378026315789477
 20
4.253605263157895
 10
3.7378026315789477
 20
3.5258289473684212
 10
3.7519342105263163
 20
3.511697368421053
 10
4.621026315789474
 20
3.518763157894737
 10
4.61396052631579
 20
4.267736842105263
 10
3.7519342105263163
 20
4.267736842105263
  0
LWPOLYLINE
  5
AA
330
17
100
AcDbEntity
  8
A-WALL
100
AcDbPolyline
 90
6
 70
1
 10
3.7519342105263163
 20
4.239473684210527
 10
3.7660657894736844
 20
4.253605263157895
 10
4.5998289473684215
 20
4.246539473684211
 10
4.61396052631579
 20
3.547026315789474
 10
4.5998289473684215
 20
3.5328947368421053
 10
3.7590000000000003
 20
3.5328947368421053
  0
LWPOLYLINE
  5
AB
330
17
100
AcDbEntity
  8
A-WALL
100
AcDbPolyline
 90
3
 70
1
 10
9.121934210526316
 20
4.458513157894737
 10
9.107802631578949
 20
4.401986842105264
 10
9.136065789473685
 20
4.416118421052632
  0
LWPOLYLINE
  5
AC
330
17
100
AcDbEntity
  8
A-WALL
100
AcDbPolyline
 90
14
 70
1
 10
9.355105263157895
 20
4.543302631578948
 10
9.36217105263158
 20
4.43025
 10
9.383368421052632
 20
4.4373157894736845
 10
9.376302631578948
 20
4.515039473684211
 10
9.404565789473684
 20
4.5362368421052635
 10
9.432828947368423
 20
4.515039473684211
 10
9.432828947368423
 20
4.43025
 10
9.454026315789474
 20
4.4373157894736845
 10
9.44696052631579
 20
4.507973684210526
 10
9.475223684210526
 20
4.5362368421052635
 10
9.503486842105264
 20
4.515039473684211
 10
9.503486842105264
 20
4.43025
 10
9.524684210526317
 20
4.4373157894736845
 10
9.510552631578948
 20
4.543302631578948
  0
LWPOLYLINE
  5
AD
330
17
100
AcDbEntity
  8
A-WALL
100
AcDbPolyline
 90
14
 70
1
 10
9.19259210526316
 20
4.592763157894737
 10
9.164328947368421
 20
4.564500000000001
 10
9.171394736842107
 20
4.543302631578948
 10
9.206723684210527
 20
4.578631578947369
 10
9.22792105263158
 20
4.578631578947369
 10
9.249118421052632
 20
4.543302631578948
 10
9.164328947368421
 20
4.43025
 10
9.263250000000001
 20
4.43025
 10
9.263250000000001
 20
4.451447368421053
 10
9.199657894736843
 20
4.444381578947369
 10
9.19259210526316
 20
4.458513157894737
 10
9.256184210526316
 20
4.515039473684211
 10
9.270315789473685
 20
4.564500000000001
 10
9.242052631578948
 20
4.592763157894737
  0
LWPOLYLINE
  5
AE
330
17
100
AcDbEntity
  8
A-WALL
100
AcDbPolyline
 90
13
 70
1
 10
9.051276315789474
 20
4.592763157894737
 10
9.001815789473685
 20
4.592763157894737
 10
8.973552631578949
 20
4.557434210526316
 10
8.973552631578949
 20
4.458513157894737
 10
9.023013157894738
 20
4.423184210526316
 10
9.065407894736843
 20
4.444381578947369
 10
9.07953947368421
 20
4.500907894736843
 10
9.04421052631579
 20
4.5362368421052635
 10
8.99475
 20
4.522105263157895
 10
8.987684210526316
 20
4.543302631578948
 10
9.030078947368422
 20
4.585697368421053
 10
9.065407894736843
 20
4.550368421052632
 10
9.072473684210527
 20
4.571565789473684
  0
LWPOLYLINE
  5
AF
330
17
100
AcDbEntity
  8
A-WALL
100
AcDbPolyline
 90
5
 70
1
 10
9.001815789473685
 20
4.515039473684211
 10
9.030078947368422
 20
4.522105263157895
 10
9.058342105263158
 20
4.500907894736843
 10
9.037144736842105
 20
4.444381578947369
 10
8.99475
 20
4.465578947368422
  0
LWPOLYLINE
  5
B0
330
17
100
AcDbEntity
  8
A-WALL
100
AcDbPolyline
 90
9
 70
1
 10
9.567078947368422
 20
4.5998289473684215
 10
9.54588157894737
 20
4.571565789473684
 10
9.58121052631579
 20
4.585697368421053
 10
9.588276315789475
 20
4.564500000000001
 10
9.54588157894737
 20
4.515039473684211
 10
9.602407894736842
 20
4.507973684210526
 10
9.609473684210528
 20
4.522105263157895
 10
9.574144736842106
 20
4.5362368421052635
 10
9.609473684210528
 20
4.585697368421053
  0
LWPOLYLINE
  5
B1
330
17
100
AcDbEntity
  8
A-WALL
100
AcDbPolyline
 90
9
 70
1
 10
9.588276315789475
 20
4.804736842105264
 10
9.574144736842106
 20
4.776473684210527
 10
9.637736842105264
 20
4.797671052631579
 10
9.651868421052633
 20
4.769407894736842
 10
9.58121052631579
 20
4.748210526315789
 10
9.574144736842106
 20
4.705815789473685
 10
9.609473684210528
 20
4.684618421052632
 10
9.673065789473686
 20
4.691684210526316
 10
9.666
 20
4.797671052631579
  0
LWPOLYLINE
  5
B2
330
17
100
AcDbEntity
  8
A-WALL
100
AcDbPolyline
 90
4
 70
1
 10
9.658934210526317
 20
4.741144736842106
 10
9.63067105263158
 20
4.705815789473685
 10
9.588276315789475
 20
4.719947368421053
 10
9.637736842105264
 20
4.755276315789474
  0
LWPOLYLINE
  5
B3
330
17
100
AcDbEntity
  8
A-WALL
100
AcDbPolyline
 90
12
 70
1
 10
9.157263157894738
 20
4.804736842105264
 10
9.157263157894738
 20
4.691684210526316
 10
9.17846052631579
 20
4.69875
 10
9.17846052631579
 20
4.783539473684211
 10
9.213789473684212
 20
4.797671052631579
 10
9.263250000000001
 20
4.705815789473685
 10
9.22792105263158
 20
4.6492894736842105
 10
9.263250000000001
 20
4.6492894736842105
 10
9.32684210526316
 20
4.804736842105264
 10
9.305644736842106
 20
4.8118026315789475
 10
9.277381578947368
 20
4.727013157894737
 10
9.234986842105263
 20
4.8118026315789475
  0
LWPOLYLINE
  5
B4
330
17
100
AcDbEntity
  8
A-WALL
100
AcDbPolyline
 90
9
 70
1
 10
8.966486842105263
 20
4.8118026315789475
 10
8.95942105263158
 20
4.69875
 10
8.980618421052633
 20
4.691684210526316
 10
8.980618421052633
 20
4.776473684210527
 10
9.015947368421052
 20
4.797671052631579
 10
9.037144736842105
 20
4.776473684210527
 10
9.037144736842105
 20
4.69875
 10
9.051276315789474
 20
4.691684210526316
 10
9.051276315789474
 20
4.797671052631579
  0
LWPOLYLINE
  5
B5
330
17
100
AcDbEntity
  8
A-WALL
100
AcDbPolyline
 90
4
 70
1
 10
9.750789473684211
 20
4.854197368421053
 10
9.750789473684211
 20
4.69875
 10
9.771986842105264
 20
4.691684210526316
 10
9.771986842105264
 20
4.854197368421053
  0
LWPOLYLINE
  5
B6
330
17
100
AcDbEntity
  8
A-WALL
100
AcDbPolyline
 90
7
 70
1
 10
9.107802631578949
 20
4.854197368421053
 10
9.07953947368421
 20
4.797671052631579
 10
9.09367105263158
 20
4.705815789473685
 10
9.121934210526316
 20
4.684618421052632
 10
9.107802631578949
 20
4.790605263157895
 10
9.129000000000001
 20
4.804736842105264
 10
9.107802631578949
 20
4.818868421052632
  0
LWPOLYLINE
  5
B7
330
17
100
AcDbEntity
  8
A-WALL
100
AcDbPolyline
 90
13
 70
1
 10
10.994368421052632
 20
4.8118026315789475
 10
11.022631578947369
 20
4.7623421052631585
 10
11.050894736842107
 20
4.7623421052631585
 10
11.015565789473685
 20
4.804736842105264
 10
11.043828947368421
 20
4.847131578947368
 10
11.135684210526316
 20
4.7623421052631585
 10
11.171013157894738
 20
4.7623421052631585
 10
11.163947368421054
 20
4.861263157894737
 10
11.142750000000001
 20
4.861263157894737
 10
11.149815789473685
 20
4.797671052631579
 10
11.135684210526316
 20
4.783539473684211
 10
11.065026315789474
 20
4.861263157894737
 10
11.022631578947369
 20
4.861263157894737
  0
LWPOLYLINE
  5
B8
330
17
100
AcDbEntity
  8
A-WALL
100
AcDbPolyline
 90
4
 70
1
 10
9.71546052631579
 20
4.861263157894737
 10
9.701328947368422
 20
4.854197368421053
 10
9.701328947368422
 20
4.691684210526316
 10
9.722526315789475
 20
4.69875
  0
LWPOLYLINE
  5
B9
330
17
100
AcDbEntity
  8
A-WALL
100
AcDbPolyline
 90
12
 70
1
 10
9.418697368421054
 20
4.861263157894737
 10
9.41163157894737
 20
4.69875
 10
9.439894736842106
 20
4.69875
 10
9.439894736842106
 20
4.769407894736842
 10
9.510552631578948
 20
4.769407894736842
 10
9.517618421052632
 20
4.69875
 10
9.538815789473684
 20
4.691684210526316
 10
9.54588157894737
 20
4.847131578947368
 10
9.517618421052632
 20
4.854197368421053
 10
9.510552631578948
 20
4.783539473684211
 10
9.44696052631579
 20
4.783539473684211
 10
9.439894736842106
 20
4.847131578947368
  0
LWPOLYLINE
  5
BA
330
17
100
AcDbEntity
  8
A-WALL
100
AcDbPolyline
 90
13
 70
1
 10
8.924092105263158
 20
4.861263157894737
 10
8.811039473684211
 20
4.854197368421053
 10
8.818105263157895
 20
4.691684210526316
 10
8.931157894736844
 20
4.691684210526316
 10
8.924092105263158
 20
4.712881578947369
 10
8.82517105263158
 20
4.727013157894737
 10
8.839302631578947
 20
4.769407894736842
 10
8.924092105263158
 20
4.769407894736842
 10
8.917026315789474
 20
4.790605263157895
 10
8.839302631578947
 20
4.783539473684211
 10
8.82517105263158
 20
4.8259342105263165
 10
8.839302631578947
 20
4.840065789473685
 10
8.924092105263158
 20
4.833
  0
LWPOLYLINE
  5
BB
330
17
100
AcDbEntity
  8
A-WALL
100
AcDbPolyline
 90
7
 70
1
 10
11.171013157894738
 20
5.030842105263158
 10
11.10742105263158
 20
5.052039473684211
 10
11.100355263157896
 20
5.030842105263158
 10
11.001434210526316
 20
5.0379078947368425
 10
10.994368421052632
 20
5.023776315789474
 10
11.121552631578949
 20
4.938986842105264
 10
11.121552631578949
 20
5.002578947368422
  0
LWPOLYLINE
  5
BC
330
17
100
AcDbEntity
  8
A-WALL
100
AcDbPolyline
 90
3
 70
1
 10
11.043828947368421
 20
5.009644736842105
 10
11.100355263157896
 20
5.01671052631579
 10
11.10742105263158
 20
4.9743157894736845
  0
LWPOLYLINE
  5
BD
330
17
100
AcDbEntity
  8
A-WALL
100
AcDbPolyline
 90
11
 70
1
 10
10.994368421052632
 20
5.129763157894737
 10
11.029697368421054
 20
5.080302631578948
 10
11.079157894736843
 20
5.080302631578948
 10
11.100355263157896
 20
5.101500000000001
 10
11.100355263157896
 20
5.165092105263159
 10
11.149815789473685
 20
5.136828947368421
 10
11.128618421052632
 20
5.080302631578948
 10
11.171013157894738
 20
5.115631578947369
 10
11.163947368421054
 20
5.15096052631579
 10
11.10742105263158
 20
5.186289473684211
 10
11.029697368421054
 20
5.179223684210527
  0
LWPOLYLINE
  5
BE
330
17
100
AcDbEntity
  8
A-WALL
100
AcDbPolyline
 90
4
 70
1
 10
11.043828947368421
 20
5.165092105263159
 10
11.09328947368421
 20
5.136828947368421
 10
11.065026315789474
 20
5.094434210526316
 10
11.015565789473685
 20
5.122697368421053
  0
LWPOLYLINE
  5
BF
330
17
100
AcDbEntity
  8
A-WALL
100
AcDbPolyline
 90
4
 70
1
 10
6.860881578947369
 20
5.306407894736843
 10
6.84675
 20
5.299342105263158
 10
6.84675
 20
5.207486842105263
 10
6.860881578947369
 20
5.207486842105263
  0
LWPOLYLINE
  5
C0
330
17
100
AcDbEntity
  8
A-WALL
100
AcDbPolyline
 90
14
 70
1
 10
11.050894736842107
 20
5.426526315789474
 10
11.043828947368421
 20
5.278144736842106
 10
11.171013157894738
 20
5.278144736842106
 10
11.163947368421054
 20
5.292276315789474
 10
11.086223684210527
 20
5.292276315789474
 10
11.05796052631579
 20
5.320539473684211
 10
11.079157894736843
 20
5.348802631578947
 10
11.171013157894738
 20
5.348802631578947
 10
11.156881578947369
 20
5.37
 10
11.07209210526316
 20
5.37
 10
11.05796052631579
 20
5.398263157894737
 10
11.079157894736843
 20
5.41946052631579
 10
11.171013157894738
 20
5.426526315789474
 10
11.156881578947369
 20
5.440657894736843
  0
LWPOLYLINE
  5
C1
330
17
100
AcDbEntity
  8
A-WALL
100
AcDbPolyline
 90
4
 70
1
 10
6.84675
 20
5.497184210526316
 10
6.84675
 20
5.405328947368422
 10
6.860881578947369
 20
5.398263157894737
 10
6.860881578947369
 20
5.497184210526316
  0
LWPOLYLINE
  5
C2
330
17
100
AcDbEntity
  8
A-WALL
100
AcDbPolyline
 90
4
 70
1
 10
9.129000000000001
 20
5.666763157894737
 10
10.626947368421053
 20
5.666763157894737
 10
10.634013157894737
 20
5.680894736842106
 10
9.136065789473685
 20
5.680894736842106
  0
LWPOLYLINE
  5
C3
330
17
100
AcDbEntity
  8
A-WALL
100
AcDbPolyline
 90
4
 70
1
 10
6.84675
 20
5.6879605263157895
 10
6.84675
 20
5.596105263157895
 10
6.860881578947369
 20
5.589039473684211
 10
6.860881578947369
 20
5.6879605263157895
  0
LWPOLYLINE
  5
C4
330
17
100
AcDbEntity
  8
A-WALL
100
AcDbPolyline
 90
4
 70
1
 10
5.228684210526316
 20
5.970592105263158
 10
5.221618421052632
 20
5.9140657894736846
 10
5.242815789473685
 20
5.9140657894736846
 10
5.2498815789473685
 20
5.9635263157894745
  0
LWPOLYLINE
  5
C5
330
17
100
AcDbEntity
  8
A-WALL
100
AcDbPolyline
 90
15
 70
1
 10
5.4759868421052635
 20
6.055381578947369
 10
5.4759868421052635
 20
5.942328947368422
 10
5.497184210526316
 20
5.942328947368422
 10
5.497184210526316
 20
6.027118421052632
 10
5.518381578947369
 20
6.048315789473684
 10
5.55371052631579
 20
6.027118421052632
 10
5.55371052631579
 20
5.942328947368422
 10
5.567842105263158
 20
5.942328947368422
 10
5.567842105263158
 20
6.027118421052632
 10
5.589039473684211
 20
6.048315789473684
 10
5.624368421052632
 20
6.027118421052632
 10
5.617302631578948
 20
5.942328947368422
 10
5.6385000000000005
 20
5.942328947368422
 10
5.6385000000000005
 20
6.041250000000001
 10
5.617302631578948
 20
6.062447368421053
  0
LWPOLYLINE
  5
C6
330
17
100
AcDbEntity
  8
A-WALL
100
AcDbPolyline
 90
3
 70
1
 10
6.853815789473685
 20
6.0765789473684215
 10
6.84675
 20
5.977657894736843
 10
6.860881578947369
 20
5.970592105263158
  0
LWPOLYLINE
  5
C7
330
17
100
AcDbEntity
  8
A-WALL
100
AcDbPolyline
 90
10
 70
1
 10
5.306407894736843
 20
6.104842105263159
 10
5.28521052631579
 20
6.0765789473684215
 10
5.306407894736843
 20
6.034184210526316
 10
5.278144736842106
 20
5.977657894736843
 10
5.313473684210527
 20
5.942328947368422
 10
5.355868421052632
 20
5.942328947368422
 10
5.391197368421053
 20
5.977657894736843
 10
5.3629342105263165
 20
6.034184210526316
 10
5.377065789473685
 20
6.083644736842106
 10
5.355868421052632
 20
6.104842105263159
  0
LWPOLYLINE
  5
C8
330
17
100
AcDbEntity
  8
A-WALL
100
AcDbPolyline
 90
4
 70
1
 10
5.320539473684211
 20
6.027118421052632
 10
5.37
 20
6.00592105263158
 10
5.348802631578947
 20
5.95646052631579
 10
5.299342105263158
 20
5.977657894736843
  0
LWPOLYLINE
  5
C9
330
17
100
AcDbEntity
  8
A-WALL
100
AcDbPolyline
 90
4
 70
1
 10
5.320539473684211
 20
6.09071052631579
 10
5.3629342105263165
 20
6.069513157894737
 10
5.341736842105264
 20
6.041250000000001
 10
5.306407894736843
 20
6.055381578947369
  0
LWPOLYLINE
  5
CA
330
17
100
AcDbEntity
  8
A-WALL
100
AcDbPolyline
 90
8
 70
1
 10
5.158026315789474
 20
6.104842105263159
 10
5.080302631578948
 20
5.991789473684211
 10
5.143894736842106
 20
5.984723684210527
 10
5.15096052631579
 20
5.949394736842105
 10
5.172157894736842
 20
5.942328947368422
 10
5.193355263157895
 20
5.998855263157895
 10
5.172157894736842
 20
6.00592105263158
 10
5.172157894736842
 20
6.104842105263159
  0
LWPOLYLINE
  5
CB
330
17
100
AcDbEntity
  8
A-WALL
100
AcDbPolyline
 90
4
 70
1
 10
5.15096052631579
 20
6.062447368421053
 10
5.158026315789474
 20
6.00592105263158
 10
5.115631578947369
 20
5.998855263157895
 10
5.108565789473684
 20
6.020052631578948
  0
LWPOLYLINE
  5
CC
330
17
100
AcDbEntity
  8
A-WALL
100
AcDbPolyline
 90
7
 70
1
 10
5.023776315789474
 20
6.104842105263159
 10
4.9743157894736845
 20
6.048315789473684
 10
5.009644736842105
 20
6.069513157894737
 10
5.023776315789474
 20
6.055381578947369
 10
5.01671052631579
 20
5.942328947368422
 10
5.0379078947368425
 20
5.942328947368422
 10
5.0379078947368425
 20
6.104842105263159
  0
LWPOLYLINE
  5
CD
330
17
100
AcDbEntity
  8
A-WALL
100
AcDbPolyline
 90
9
 70
1
 10
5.666763157894737
 20
6.104842105263159
 10
5.666763157894737
 20
6.083644736842106
 10
5.709157894736842
 20
6.09071052631579
 10
5.666763157894737
 20
6.027118421052632
 10
5.723289473684211
 20
6.020052631578948
 10
5.730355263157895
 20
6.034184210526316
 10
5.695026315789474
 20
6.048315789473684
 10
5.730355263157895
 20
6.09071052631579
 10
5.702092105263159
 20
6.111907894736842
  0
LWPOLYLINE
  5
CE
330
17
100
AcDbEntity
  8
A-WALL
100
AcDbPolyline
 90
5
 70
1
 10
6.995131578947369
 20
6.147236842105263
 10
6.959802631578948
 20
6.097776315789474
 10
6.981000000000001
 20
6.069513157894737
 10
7.016328947368422
 20
6.069513157894737
 10
7.03046052631579
 20
6.126039473684211
  0
LWPOLYLINE
  5
CF
330
17
100
AcDbEntity
  8
A-WALL
100
AcDbPolyline
 90
4
 70
1
 10
6.973934210526316
 20
6.111907894736842
 10
7.0021973684210534
 20
6.126039473684211
 10
7.023394736842106
 20
6.097776315789474
 10
6.995131578947369
 20
6.083644736842106
  0
LWPOLYLINE
  5
D0
330
17
100
AcDbEntity
  8
A-WALL
100
AcDbPolyline
 90
3
 70
1
 10
6.860881578947369
 20
6.267355263157895
 10
6.84675
 20
6.260289473684211
 10
6.853815789473685
 20
6.161368421052632
  0
LWPOLYLINE
  5
D1
330
17
100
AcDbEntity
  8
A-WALL
100
AcDbPolyline
 90
4
 70
1
 10
5.631434210526316
 20
6.316815789473685
 10
5.631434210526316
 20
6.203763157894738
 10
5.645565789473685
 20
6.203763157894738
 10
5.652631578947369
 20
6.30975
  0
LWPOLYLINE
  5
D2
330
17
100
AcDbEntity
  8
A-WALL
100
AcDbPolyline
 90
4
 70
1
 10
5.454789473684211
 20
6.316815789473685
 10
5.454789473684211
 20
6.203763157894738
 10
5.468921052631579
 20
6.203763157894738
 10
5.4759868421052635
 20
6.316815789473685
  0
LWPOLYLINE
  5
D3
330
17
100
AcDbEntity
  8
A-WALL
100
AcDbPolyline
 90
4
 70
1
 10
4.394921052631579
 20
6.316815789473685
 10
4.394921052631579
 20
6.210828947368421
 10
4.416118421052632
 20
6.203763157894738
 10
4.416118421052632
 20
6.316815789473685
  0
LWPOLYLINE
  5
D4
330
17
100
AcDbEntity
  8
A-WALL
100
AcDbPolyline
 90
4
 70
1
 10
8.210447368421054
 20
6.323881578947369
 10
8.189250000000001
 20
6.316815789473685
 10
8.189250000000001
 20
6.267355263157895
 10
8.217513157894738
 20
6.2885526315789475
  0
LWPOLYLINE
  5
D5
330
17
100
AcDbEntity
  8
A-WALL
100
AcDbPolyline
 90
9
 70
1
 10
6.35921052631579
 20
6.316815789473685
 10
6.345078947368422
 20
6.2885526315789475
 10
6.4016052631578955
 20
6.30975
 10
6.422802631578948
 20
6.281486842105264
 10
6.352144736842106
 20
6.260289473684211
 10
6.345078947368422
 20
6.217894736842106
 10
6.373342105263158
 20
6.196697368421053
 10
6.444000000000001
 20
6.203763157894738
 10
6.436934210526316
 20
6.30975
  0
LWPOLYLINE
  5
D6
330
17
100
AcDbEntity
  8
A-WALL
100
AcDbPolyline
 90
4
 70
1
 10
6.35921052631579
 20
6.232026315789474
 10
6.373342105263158
 20
6.253223684210527
 10
6.422802631578948
 20
6.253223684210527
 10
6.4016052631578955
 20
6.217894736842106
  0
LWPOLYLINE
  5
D7
330
17
100
AcDbEntity
  8
A-WALL
100
AcDbPolyline
 90
11
 70
1
 10
6.2885526315789475
 20
6.323881578947369
 10
6.253223684210527
 20
6.323881578947369
 10
6.217894736842106
 20
6.295618421052632
 10
6.217894736842106
 20
6.232026315789474
 10
6.267355263157895
 20
6.196697368421053
 10
6.316815789473685
 20
6.22496052631579
 10
6.3026842105263166
 20
6.2390921052631585
 10
6.253223684210527
 20
6.217894736842106
 10
6.232026315789474
 20
6.2390921052631585
 10
6.2390921052631585
 20
6.260289473684211
 10
6.323881578947369
 20
6.274421052631579
  0
LWPOLYLINE
  5
D8
330
17
100
AcDbEntity
  8
A-WALL
100
AcDbPolyline
 90
4
 70
1
 10
6.232026315789474
 20
6.2885526315789475
 10
6.274421052631579
 20
6.30975
 10
6.3026842105263166
 20
6.281486842105264
 10
6.2390921052631585
 20
6.274421052631579
  0
LWPOLYLINE
  5
D9
330
17
100
AcDbEntity
  8
A-WALL
100
AcDbPolyline
 90
6
 70
1
 10
6.196697368421053
 20
6.323881578947369
 10
6.14017105263158
 20
6.316815789473685
 10
6.147236842105263
 20
6.203763157894738
 10
6.161368421052632
 20
6.203763157894738
 10
6.161368421052632
 20
6.281486842105264
 10
6.203763157894738
 20
6.30975
  0
LWPOLYLINE
  5
DA
330
17
100
AcDbEntity
  8
A-WALL
100
AcDbPolyline
 90
12
 70
1
 10
5.836342105263158
 20
6.323881578947369
 10
5.808078947368421
 20
6.3026842105263166
 10
5.8010131578947375
 20
6.246157894736842
 10
5.843407894736843
 20
6.203763157894738
 10
5.878736842105264
 20
6.217894736842106
 10
5.892868421052632
 20
6.203763157894738
 10
5.871671052631579
 20
6.1755
 10
5.82221052631579
 20
6.189631578947369
 10
5.808078947368421
 20
6.1755
 10
5.871671052631579
 20
6.154302631578948
 10
5.907
 20
6.196697368421053
 10
5.907
 20
6.316815789473685
  0
LWPOLYLINE
  5
DB
330
17
100
AcDbEntity
  8
A-WALL
100
AcDbPolyline
 90
5
 70
1
 10
5.843407894736843
 20
6.30975
 10
5.885802631578948
 20
6.281486842105264
 10
5.885802631578948
 20
6.2390921052631585
 10
5.8646052631578955
 20
6.217894736842106
 10
5.815144736842106
 20
6.253223684210527
  0
LWPOLYLINE
  5
DC
330
17
100
AcDbEntity
  8
A-WALL
100
AcDbPolyline
 90
9
 70
1
 10
5.680894736842106
 20
6.316815789473685
 10
5.680894736842106
 20
6.203763157894738
 10
5.702092105263159
 20
6.203763157894738
 10
5.702092105263159
 20
6.2885526315789475
 10
5.723289473684211
 20
6.30975
 10
5.758618421052632
 20
6.2885526315789475
 10
5.758618421052632
 20
6.203763157894738
 10
5.77275
 20
6.203763157894738
 10
5.77275
 20
6.30975
  0
LWPOLYLINE
  5
DD
330
17
100
AcDbEntity
  8
A-WALL
100
AcDbPolyline
 90
9
 70
1
 10
5.504250000000001
 20
6.316815789473685
 10
5.504250000000001
 20
6.203763157894738
 10
5.525447368421053
 20
6.203763157894738
 10
5.525447368421053
 20
6.2885526315789475
 10
5.546644736842105
 20
6.30975
 10
5.581973684210527
 20
6.295618421052632
 10
5.581973684210527
 20
6.203763157894738
 10
5.596105263157895
 20
6.203763157894738
 10
5.596105263157895
 20
6.30975
  0
LWPOLYLINE
  5
DE
330
17
100
AcDbEntity
  8
A-WALL
100
AcDbPolyline
 90
10
 70
1
 10
4.875394736842106
 20
6.316815789473685
 10
4.875394736842106
 20
6.210828947368421
 10
4.903657894736843
 20
6.210828947368421
 10
4.896592105263158
 20
6.2885526315789475
 10
4.931921052631579
 20
6.30975
 10
4.953118421052632
 20
6.295618421052632
 10
4.953118421052632
 20
6.210828947368421
 10
4.9743157894736845
 20
6.203763157894738
 10
4.9743157894736845
 20
6.3026842105263166
 10
4.953118421052632
 20
6.323881578947369
  0
LWPOLYLINE
  5
DF
330
17
100
AcDbEntity
  8
A-WALL
100
AcDbPolyline
 90
10
 70
1
 10
4.783539473684211
 20
6.323881578947369
 10
4.748210526315789
 20
6.2885526315789475
 10
4.748210526315789
 20
6.2390921052631585
 10
4.804736842105264
 20
6.196697368421053
 10
4.847131578947368
 20
6.2390921052631585
 10
4.790605263157895
 20
6.217894736842106
 10
4.7623421052631585
 20
6.253223684210527
 10
4.840065789473685
 20
6.260289473684211
 10
4.854197368421053
 20
6.281486842105264
 10
4.833
 20
6.316815789473685
  0
LWPOLYLINE
  5
E0
330
17
100
AcDbEntity
  8
A-WALL
100
AcDbPolyline
 90
4
 70
1
 10
4.769407894736842
 20
6.295618421052632
 10
4.8118026315789475
 20
6.30975
 10
4.833
 20
6.281486842105264
 10
4.776473684210527
 20
6.274421052631579
  0
LWPOLYLINE
  5
E1
330
17
100
AcDbEntity
  8
A-WALL
100
AcDbPolyline
 90
10
 70
1
 10
4.5362368421052635
 20
6.323881578947369
 10
4.507973684210526
 20
6.295618421052632
 10
4.507973684210526
 20
6.232026315789474
 10
4.564500000000001
 20
6.196697368421053
 10
4.5998289473684215
 20
6.246157894736842
 10
4.543302631578948
 20
6.217894736842106
 10
4.522105263157895
 20
6.274421052631579
 10
4.550368421052632
 20
6.30975
 10
4.585697368421053
 20
6.2885526315789475
 10
4.5998289473684215
 20
6.3026842105263166
  0
LWPOLYLINE
  5
E2
330
17
100
AcDbEntity
  8
A-WALL
100
AcDbPolyline
 90
8
 70
1
 10
4.451447368421053
 20
6.35921052631579
 10
4.4373157894736845
 20
6.316815789473685
 10
4.451447368421053
 20
6.210828947368421
 10
4.47971052631579
 20
6.196697368421053
 10
4.465578947368422
 20
6.295618421052632
 10
4.4867763157894744
 20
6.316815789473685
 10
4.465578947368422
 20
6.330947368421053
 10
4.472644736842105
 20
6.35921052631579
  0
LWPOLYLINE
  5
E3
330
17
100
AcDbEntity
  8
A-WALL
100
AcDbPolyline
 90
8
 70
1
 10
6.041250000000001
 20
6.366276315789474
 10
5.977657894736843
 20
6.203763157894738
 10
5.998855263157895
 20
6.203763157894738
 10
6.020052631578948
 20
6.253223684210527
 10
6.083644736842106
 20
6.253223684210527
 10
6.097776315789474
 20
6.210828947368421
 10
6.118973684210527
 20
6.203763157894738
 10
6.069513157894737
 20
6.352144736842106
  0
LWPOLYLINE
  5
E4
330
17
100
AcDbEntity
  8
A-WALL
100
AcDbPolyline
 90
4
 70
1
 10
6.048315789473684
 20
6.338013157894737
 10
6.0765789473684215
 20
6.2885526315789475
 10
6.062447368421053
 20
6.267355263157895
 10
6.020052631578948
 20
6.281486842105264
  0
LWPOLYLINE
  5
E5
330
17
100
AcDbEntity
  8
A-WALL
100
AcDbPolyline
 90
6
 70
1
 10
5.292276315789474
 20
6.366276315789474
 10
5.292276315789474
 20
6.210828947368421
 10
5.391197368421053
 20
6.210828947368421
 10
5.426526315789474
 20
6.267355263157895
 10
5.4123947368421055
 20
6.345078947368422
 10
5.384131578947369
 20
6.366276315789474
  0
LWPOLYLINE
  5
E6
330
17
100
AcDbEntity
  8
A-WALL
100
AcDbPolyline
 90
7
 70
1
 10
5.320539473684211
 20
6.352144736842106
 10
5.384131578947369
 20
6.345078947368422
 10
5.405328947368422
 20
6.316815789473685
 10
5.405328947368422
 20
6.253223684210527
 10
5.377065789473685
 20
6.22496052631579
 10
5.313473684210527
 20
6.22496052631579
 10
5.306407894736843
 20
6.338013157894737
  0
LWPOLYLINE
  5
E7
330
17
100
AcDbEntity
  8
A-WALL
100
AcDbPolyline
 90
3
 70
1
 10
5.6385000000000005
 20
6.373342105263158
 10
5.624368421052632
 20
6.352144736842106
 10
5.652631578947369
 20
6.345078947368422
  0
LWPOLYLINE
  5
E8
330
17
100
AcDbEntity
  8
A-WALL
100
AcDbPolyline
 90
14
 70
1
 10
5.101500000000001
 20
6.366276315789474
 10
5.0873684210526315
 20
6.345078947368422
 10
5.101500000000001
 20
6.295618421052632
 10
5.06617105263158
 20
6.260289473684211
 10
5.073236842105263
 20
6.22496052631579
 10
5.101500000000001
 20
6.203763157894738
 10
5.158026315789474
 20
6.22496052631579
 10
5.2004210526315795
 20
6.203763157894738
 10
5.179223684210527
 20
6.2390921052631585
 10
5.193355263157895
 20
6.274421052631579
 10
5.158026315789474
 20
6.260289473684211
 10
5.136828947368421
 20
6.281486842105264
 10
5.165092105263159
 20
6.323881578947369
 10
5.158026315789474
 20
6.35921052631579
  0
LWPOLYLINE
  5
E9
330
17
100
AcDbEntity
  8
A-WALL
100
AcDbPolyline
 90
4
 70
1
 10
5.108565789473684
 20
6.2885526315789475
 10
5.15096052631579
 20
6.246157894736842
 10
5.129763157894737
 20
6.217894736842106
 10
5.080302631578948
 20
6.246157894736842
  0
LWPOLYLINE
  5
EA
330
17
100
AcDbEntity
  8
A-WALL
100
AcDbPolyline
 90
4
 70
1
 10
5.108565789473684
 20
6.345078947368422
 10
5.136828947368421
 20
6.352144736842106
 10
5.143894736842106
 20
6.323881578947369
 10
5.115631578947369
 20
6.30975
  0
LWPOLYLINE
  5
EB
330
17
100
AcDbEntity
  8
A-WALL
100
AcDbPolyline
 90
12
 70
1
 10
4.635157894736842
 20
6.373342105263158
 10
4.621026315789474
 20
6.35921052631579
 10
4.621026315789474
 20
6.210828947368421
 10
4.642223684210527
 20
6.203763157894738
 10
4.642223684210527
 20
6.281486842105264
 10
4.684618421052632
 20
6.30975
 10
4.705815789473685
 20
6.2885526315789475
 10
4.69875
 20
6.210828947368421
 10
4.719947368421053
 20
6.203763157894738
 10
4.719947368421053
 20
6.3026842105263166
 10
4.69875
 20
6.323881578947369
 10
4.6492894736842105
 20
6.30975
  0
LWPOLYLINE
  5
EC
330
17
100
AcDbEntity
  8
A-WALL
100
AcDbPolyline
 90
12
 70
1
 10
4.366657894736843
 20
6.373342105263158
 10
4.274802631578948
 20
6.2885526315789475
 10
4.260671052631579
 20
6.295618421052632
 10
4.267736842105263
 20
6.35921052631579
 10
4.239473684210527
 20
6.35921052631579
 10
4.246539473684211
 20
6.203763157894738
 10
4.267736842105263
 20
6.210828947368421
 10
4.260671052631579
 20
6.260289473684211
 10
4.288934210526316
 20
6.2885526315789475
 10
4.338394736842106
 20
6.217894736842106
 10
4.3737236842105265
 20
6.203763157894738
 10
4.310131578947368
 20
6.295618421052632
  0
LWPOLYLINE
  5
ED
330
17
100
AcDbEntity
  8
A-WALL
100
AcDbPolyline
 90
15
 70
1
 10
8.443618421052632
 20
6.415736842105264
 10
8.450684210526317
 20
6.295618421052632
 10
8.478947368421053
 20
6.4016052631578955
 10
8.514276315789475
 20
6.387473684210526
 10
8.514276315789475
 20
6.295618421052632
 10
8.535473684210526
 20
6.3026842105263166
 10
8.528407894736842
 20
6.380407894736843
 10
8.549605263157895
 20
6.4016052631578955
 10
8.584934210526317
 20
6.387473684210526
 10
8.577868421052631
 20
6.30975
 10
8.60613157894737
 20
6.3026842105263166
 10
8.599065789473684
 20
6.4016052631578955
 10
8.577868421052631
 20
6.422802631578948
 10
8.528407894736842
 20
6.4016052631578955
 10
8.50721052631579
 20
6.422802631578948
  0
LWPOLYLINE
  5
EE
330
17
100
AcDbEntity
  8
A-WALL
100
AcDbPolyline
 90
16
 70
1
 10
8.266973684210527
 20
6.4651973684210535
 10
8.25284210526316
 20
6.380407894736843
 10
8.309368421052632
 20
6.394539473684211
 10
8.330565789473685
 20
6.338013157894737
 10
8.309368421052632
 20
6.316815789473685
 10
8.281105263157896
 20
6.316815789473685
 10
8.259907894736843
 20
6.345078947368422
 10
8.245776315789474
 20
6.330947368421053
 10
8.266973684210527
 20
6.3026842105263166
 10
8.309368421052632
 20
6.295618421052632
 10
8.351763157894737
 20
6.330947368421053
 10
8.351763157894737
 20
6.380407894736843
 10
8.316434210526316
 20
6.408671052631579
 10
8.281105263157896
 20
6.4016052631578955
 10
8.274039473684212
 20
6.436934210526316
 10
8.351763157894737
 20
6.458131578947369
  0
LWPOLYLINE
  5
EF
330
17
100
AcDbEntity
  8
A-WALL
100
AcDbPolyline
 90
7
 70
1
 10
8.118592105263158
 20
6.4651973684210535
 10
8.047934210526316
 20
6.345078947368422
 10
8.111526315789474
 20
6.338013157894737
 10
8.132723684210527
 20
6.295618421052632
 10
8.160986842105263
 20
6.352144736842106
 10
8.132723684210527
 20
6.366276315789474
 10
8.13978947368421
 20
6.458131578947369
  0
LWPOLYLINE
  5
F0
330
17
100
AcDbEntity
  8
A-WALL
100
AcDbPolyline
 90
3
 70
1
 10
8.111526315789474
 20
6.422802631578948
 10
8.118592105263158
 20
6.35921052631579
 10
8.076197368421052
 20
6.352144736842106
  0
LWPOLYLINE
  5
F1
330
17
100
AcDbEntity
  8
A-WALL
100
AcDbPolyline
 90
9
 70
1
 10
8.634394736842106
 20
6.4651973684210535
 10
8.627328947368422
 20
6.444000000000001
 10
8.662657894736842
 20
6.4510657894736845
 10
8.669723684210528
 20
6.429868421052632
 10
8.627328947368422
 20
6.380407894736843
 10
8.69092105263158
 20
6.380407894736843
 10
8.662657894736842
 20
6.4016052631578955
 10
8.69092105263158
 20
6.4510657894736845
 10
8.662657894736842
 20
6.472263157894737
  0
LWPOLYLINE
  5
F2
330
17
100
AcDbEntity
  8
A-WALL
100
AcDbPolyline
 90
4
 70
1
 10
6.84675
 20
6.648907894736842
 10
6.84675
 20
6.549986842105263
 10
6.860881578947369
 20
6.549986842105263
 10
6.860881578947369
 20
6.648907894736842
  0
LWPOLYLINE
  5
F3
330
17
100
AcDbEntity
  8
A-WALL
100
AcDbPolyline
 90
4
 70
1
 10
6.995131578947369
 20
6.655973684210527
 10
6.959802631578948
 20
6.606513157894737
 10
7.009263157894737
 20
6.578250000000001
 10
7.03046052631579
 20
6.634776315789474
  0
LWPOLYLINE
  5
F4
330
17
100
AcDbEntity
  8
A-WALL
100
AcDbPolyline
 90
4
 70
1
 10
6.988065789473684
 20
6.634776315789474
 10
7.023394736842106
 20
6.620644736842106
 10
7.0021973684210534
 20
6.592381578947369
 10
6.973934210526316
 20
6.6135789473684214
  0
LWPOLYLINE
  5
F5
330
17
100
AcDbEntity
  8
A-WALL
100
AcDbPolyline
 90
17
 70
1
 10
8.69092105263158
 20
6.684236842105264
 10
8.69092105263158
 20
6.557052631578948
 10
8.712118421052633
 20
6.564118421052632
 10
8.719184210526317
 20
6.663039473684211
 10
8.761578947368422
 20
6.648907894736842
 10
8.761578947368422
 20
6.557052631578948
 10
8.782776315789475
 20
6.564118421052632
 10
8.77571052631579
 20
6.641842105263159
 10
8.796907894736842
 20
6.663039473684211
 10
8.832236842105264
 20
6.648907894736842
 10
8.82517105263158
 20
6.564118421052632
 10
8.853434210526316
 20
6.564118421052632
 10
8.846368421052633
 20
6.663039473684211
 10
8.82517105263158
 20
6.684236842105264
 10
8.782776315789475
 20
6.663039473684211
 10
8.754513157894737
 20
6.684236842105264
 10
8.719184210526317
 20
6.670105263157895
  0
LWPOLYLINE
  5
F6
330
17
100
AcDbEntity
  8
A-WALL
100
AcDbPolyline
 90
8
 70
1
 10
8.599065789473684
 20
6.684236842105264
 10
8.563736842105264
 20
6.663039473684211
 10
8.556671052631579
 20
6.592381578947369
 10
8.577868421052631
 20
6.564118421052632
 10
8.627328947368422
 20
6.557052631578948
 10
8.655592105263159
 20
6.578250000000001
 10
8.662657894736842
 20
6.641842105263159
 10
8.634394736842106
 20
6.6771710526315795
  0
LWPOLYLINE
  5
F7
330
17
100
AcDbEntity
  8
A-WALL
100
AcDbPolyline
 90
6
 70
1
 10
8.592
 20
6.663039473684211
 10
8.627328947368422
 20
6.663039473684211
 10
8.648526315789475
 20
6.634776315789474
 10
8.64146052631579
 20
6.592381578947369
 10
8.613197368421053
 20
6.571184210526316
 10
8.570802631578948
 20
6.606513157894737
  0
LWPOLYLINE
  5
F8
330
17
100
AcDbEntity
  8
A-WALL
100
AcDbPolyline
 90
8
 70
1
 10
8.47188157894737
 20
6.684236842105264
 10
8.429486842105264
 20
6.641842105263159
 10
8.429486842105264
 20
6.592381578947369
 10
8.450684210526317
 20
6.564118421052632
 10
8.500144736842106
 20
6.557052631578948
 10
8.528407894736842
 20
6.578250000000001
 10
8.535473684210526
 20
6.641842105263159
 10
8.521342105263159
 20
6.670105263157895
  0
LWPOLYLINE
  5
F9
330
17
100
AcDbEntity
  8
A-WALL
100
AcDbPolyline
 90
6
 70
1
 10
8.464815789473684
 20
6.663039473684211
 10
8.500144736842106
 20
6.663039473684211
 10
8.521342105263159
 20
6.634776315789474
 10
8.500144736842106
 20
6.578250000000001
 10
8.450684210526317
 20
6.592381578947369
 10
8.443618421052632
 20
6.62771052631579
  0
LWPOLYLINE
  5
FA
330
17
100
AcDbEntity
  8
A-WALL
100
AcDbPolyline
 90
6
 70
1
 10
8.408289473684212
 20
6.684236842105264
 10
8.358828947368421
 20
6.6771710526315795
 10
8.365894736842106
 20
6.557052631578948
 10
8.380026315789474
 20
6.564118421052632
 10
8.37296052631579
 20
6.634776315789474
 10
8.415355263157895
 20
6.663039473684211
  0
LWPOLYLINE
  5
FB
330
17
100
AcDbEntity
  8
A-WALL
100
AcDbPolyline
 90
12
 70
1
 10
8.069131578947369
 20
6.684236842105264
 10
8.040868421052632
 20
6.641842105263159
 10
8.069131578947369
 20
6.663039473684211
 10
8.10446052631579
 20
6.663039473684211
 10
8.118592105263158
 20
6.641842105263159
 10
8.062065789473685
 20
6.62771052631579
 10
8.033802631578949
 20
6.585315789473685
 10
8.055
 20
6.557052631578948
 10
8.10446052631579
 20
6.571184210526316
 10
8.132723684210527
 20
6.557052631578948
 10
8.132723684210527
 20
6.655973684210527
 10
8.10446052631579
 20
6.684236842105264
  0
LWPOLYLINE
  5
FC
330
17
100
AcDbEntity
  8
A-WALL
100
AcDbPolyline
 90
4
 70
1
 10
8.055
 20
6.585315789473685
 10
8.083263157894738
 20
6.620644736842106
 10
8.118592105263158
 20
6.6135789473684214
 10
8.083263157894738
 20
6.571184210526316
  0
LWPOLYLINE
  5
FD
330
17
100
AcDbEntity
  8
A-WALL
100
AcDbPolyline
 90
5
 70
1
 10
8.175118421052632
 20
6.719565789473685
 10
8.168052631578949
 20
6.578250000000001
 10
8.203381578947369
 20
6.557052631578948
 10
8.189250000000001
 20
6.585315789473685
 10
8.203381578947369
 20
6.6771710526315795
  0
LWPOLYLINE
  5
FE
330
17
100
AcDbEntity
  8
A-WALL
100
AcDbPolyline
 90
11
 70
1
 10
8.231644736842107
 20
6.7266315789473685
 10
8.231644736842107
 20
6.564118421052632
 10
8.25284210526316
 20
6.564118421052632
 10
8.25284210526316
 20
6.648907894736842
 10
8.295236842105263
 20
6.663039473684211
 10
8.309368421052632
 20
6.557052631578948
 10
8.323500000000001
 20
6.557052631578948
 10
8.323500000000001
 20
6.663039473684211
 10
8.295236842105263
 20
6.684236842105264
 10
8.25284210526316
 20
6.670105263157895
 10
8.25284210526316
 20
6.719565789473685
  0
LWPOLYLINE
  5
FF
330
17
100
AcDbEntity
  8
A-WALL
100
AcDbPolyline
 90
7
 70
1
 10
7.892486842105264
 20
6.7266315789473685
 10
7.885421052631579
 20
6.564118421052632
 10
7.984342105263159
 20
6.564118421052632
 10
8.012605263157896
 20
6.599447368421053
 10
7.984342105263159
 20
6.648907894736842
 10
7.998473684210527
 20
6.705434210526317
 10
7.97021052631579
 20
6.7266315789473685
  0
LWPOLYLINE
  5
100
330
17
100
AcDbEntity
  8
A-WALL
100
AcDbPolyline
 90
5
 70
1
 10
7.906618421052632
 20
6.634776315789474
 10
7.963144736842106
 20
6.641842105263159
 10
7.9914078947368425
 20
6.599447368421053
 10
7.97021052631579
 20
6.578250000000001
 10
7.913684210526316
 20
6.578250000000001
  0
LWPOLYLINE
  5
101
330
17
100
AcDbEntity
  8
A-WALL
100
AcDbPolyline
 90
4
 70
1
 10
7.906618421052632
 20
6.698368421052632
 10
7.97021052631579
 20
6.705434210526317
 10
7.984342105263159
 20
6.670105263157895
 10
7.913684210526316
 20
6.655973684210527
  0
LWPOLYLINE
  5
102
330
17
100
AcDbEntity
  8
A-WALL
100
AcDbPolyline
 90
6
 70
1
 10
10.994368421052632
 20
6.804355263157896
 10
11.036763157894738
 20
6.747828947368421
 10
11.05796052631579
 20
6.747828947368421
 10
11.050894736842107
 20
6.790223684210527
 10
11.171013157894738
 20
6.790223684210527
 10
11.156881578947369
 20
6.811421052631579
  0
LWPOLYLINE
  5
103
330
17
100
AcDbEntity
  8
A-WALL
100
AcDbPolyline
 90
30
 70
1
 10
7.094052631578948
 20
6.867947368421053
 10
6.7125
 20
6.867947368421053
 10
6.698368421052632
 20
6.853815789473685
 10
6.698368421052632
 20
6.380407894736843
 10
6.853815789473685
 20
6.35921052631579
 10
6.698368421052632
 20
6.338013157894737
 10
6.705434210526317
 20
5.857539473684211
 10
6.8396842105263165
 20
5.857539473684211
 10
6.853815789473685
 20
5.779815789473685
 10
6.867947368421053
 20
5.857539473684211
 10
7.101118421052632
 20
5.8646052631578955
 10
7.101118421052632
 20
6.345078947368422
 10
6.875013157894737
 20
6.345078947368422
 10
6.860881578947369
 20
6.458131578947369
 10
6.84675
 20
6.458131578947369
 10
6.8396842105263165
 20
6.380407894736843
 10
6.719565789473685
 20
6.394539473684211
 10
6.7125
 20
6.832618421052632
 10
6.733697368421053
 20
6.853815789473685
 10
6.84675
 20
6.853815789473685
 10
6.84675
 20
6.747828947368421
 10
6.860881578947369
 20
6.740763157894738
 10
6.867947368421053
 20
6.853815789473685
 10
7.072855263157895
 20
6.853815789473685
 10
7.086986842105263
 20
6.8396842105263165
 10
7.086986842105263
 20
6.394539473684211
 10
7.065789473684211
 20
6.380407894736843
 10
6.8891447368421055
 20
6.387473684210526
 10
6.882078947368422
 20
6.373342105263158
 10
7.094052631578948
 20
6.373342105263158
  0
LWPOLYLINE
  5
104
330
17
100
AcDbEntity
  8
A-WALL
100
AcDbPolyline
 90
5
 70
1
 10
6.7266315789473685
 20
6.338013157894737
 10
7.072855263157895
 20
6.338013157894737
 10
7.086986842105263
 20
6.323881578947369
 10
7.07992105263158
 20
5.871671052631579
 10
6.719565789473685
 20
5.878736842105264
  0
LWPOLYLINE
  5
105
330
17
100
AcDbEntity
  8
A-WALL
100
AcDbPolyline
 90
4
 70
1
 10
11.142750000000001
 20
6.8891447368421055
 10
11.142750000000001
 20
6.867947368421053
 10
11.19221052631579
 20
6.875013157894737
 10
11.171013157894738
 20
6.89621052631579
  0
LWPOLYLINE
  5
106
330
17
100
AcDbEntity
  8
A-WALL
100
AcDbPolyline
 90
12
 70
1
 10
11.171013157894738
 20
6.988065789473684
 10
11.142750000000001
 20
7.023394736842106
 10
11.09328947368421
 20
7.03046052631579
 10
11.05796052631579
 20
6.995131578947369
 10
11.065026315789474
 20
6.938605263157895
 10
11.015565789473685
 20
6.966868421052632
 10
11.043828947368421
 20
7.023394736842106
 10
11.022631578947369
 20
7.023394736842106
 10
10.994368421052632
 20
6.981000000000001
 10
11.029697368421054
 20
6.931539473684211
 10
11.121552631578949
 20
6.924473684210527
 10
11.156881578947369
 20
6.945671052631579
  0
LWPOLYLINE
  5
107
330
17
100
AcDbEntity
  8
A-WALL
100
AcDbPolyline
 90
4
 70
1
 10
11.121552631578949
 20
7.016328947368422
 10
11.149815789473685
 20
6.966868421052632
 10
11.10742105263158
 20
6.938605263157895
 10
11.07209210526316
 20
6.988065789473684
  0
LWPOLYLINE
  5
108
330
17
100
AcDbEntity
  8
A-WALL
100
AcDbPolyline
 90
3
 70
1
 10
6.853815789473685
 20
7.037526315789474
 10
6.84675
 20
6.938605263157895
 10
6.860881578947369
 20
6.931539473684211
  0
LWPOLYLINE
  5
109
330
17
100
AcDbEntity
  8
A-WALL
100
AcDbPolyline
 90
18
 70
1
 10
11.171013157894738
 20
7.108184210526316
 10
11.142750000000001
 20
7.150578947368421
 10
11.100355263157896
 20
7.157644736842106
 10
11.079157894736843
 20
7.136447368421053
 10
11.029697368421054
 20
7.150578947368421
 10
10.994368421052632
 20
7.094052631578948
 10
11.036763157894738
 20
7.0516578947368425
 10
11.043828947368421
 20
7.072855263157895
 10
11.015565789473685
 20
7.094052631578948
 10
11.029697368421054
 20
7.129381578947369
 10
11.050894736842107
 20
7.129381578947369
 10
11.079157894736843
 20
7.086986842105263
 10
11.086223684210527
 20
7.122315789473685
 10
11.128618421052632
 20
7.136447368421053
 10
11.149815789473685
 20
7.1152500000000005
 10
11.149815789473685
 20
7.086986842105263
 10
11.121552631578949
 20
7.072855263157895
 10
11.135684210526316
 20
7.0516578947368425
  0
LWPOLYLINE
  5
10A
330
17
100
AcDbEntity
  8
A-WALL
100
AcDbPolyline
 90
3
 70
1
 10
6.853815789473685
 20
7.228302631578948
 10
6.84675
 20
7.129381578947369
 10
6.860881578947369
 20
7.122315789473685
  0
LWPOLYLINE
  5
10B
330
17
100
AcDbEntity
  8
A-WALL
100
AcDbPolyline
 90
15
 70
1
 10
11.171013157894738
 20
7.404947368421054
 10
11.043828947368421
 20
7.390815789473685
 10
11.05796052631579
 20
7.3413552631578955
 10
11.043828947368421
 20
7.2495
 10
11.171013157894738
 20
7.256565789473685
 10
11.163947368421054
 20
7.270697368421053
 10
11.079157894736843
 20
7.270697368421053
 10
11.05796052631579
 20
7.291894736842106
 10
11.07209210526316
 20
7.320157894736843
 10
11.156881578947369
 20
7.313092105263158
 10
11.171013157894738
 20
7.334289473684211
 10
11.086223684210527
 20
7.334289473684211
 10
11.05796052631579
 20
7.369618421052632
 10
11.079157894736843
 20
7.390815789473685
 10
11.156881578947369
 20
7.383750000000001
  0
LWPOLYLINE
  5
10C
330
17
100
AcDbEntity
  8
A-WALL
100
AcDbPolyline
 90
4
 70
1
 10
6.84675
 20
7.419078947368422
 10
6.84675
 20
7.320157894736843
 10
6.860881578947369
 20
7.313092105263158
 10
6.860881578947369
 20
7.419078947368422
  0
LWPOLYLINE
  5
10D
330
17
100
AcDbEntity
  8
A-WALL
100
AcDbPolyline
 90
35
 70
1
 10
3.0594868421052634
 20
7.426144736842105
 10
3.0382894736842108
 20
7.412013157894737
 10
3.024157894736842
 20
7.122315789473685
 10
2.7980526315789476
 20
7.1152500000000005
 10
2.783921052631579
 20
7.101118421052632
 10
2.7909868421052635
 20
6.769026315789474
 10
2.473026315789474
 20
6.7266315789473685
 10
2.473026315789474
 20
6.323881578947369
 10
2.7909868421052635
 20
6.2885526315789475
 10
2.7909868421052635
 20
6.133105263157895
 10
2.776855263157895
 20
6.118973684210527
 10
2.473026315789474
 20
6.097776315789474
 10
2.473026315789474
 20
5.695026315789474
 10
2.7909868421052635
 20
5.659697368421053
 10
2.783921052631579
 20
5.327605263157895
 10
2.7980526315789476
 20
5.313473684210527
 10
3.024157894736842
 20
5.306407894736843
 10
3.0382894736842108
 20
5.009644736842105
 10
3.0524210526315794
 20
4.995513157894737
 10
3.448105263157895
 20
4.995513157894737
 10
3.4693026315789477
 20
5.059105263157895
 10
3.4763684210526318
 20
5.299342105263158
 10
3.716605263157895
 20
5.327605263157895
 10
3.709539473684211
 20
5.659697368421053
 10
4.034565789473684
 20
5.695026315789474
 10
4.034565789473684
 20
6.097776315789474
 10
3.709539473684211
 20
6.126039473684211
 10
3.709539473684211
 20
6.2885526315789475
 10
3.723671052631579
 20
6.3026842105263166
 10
4.034565789473684
 20
6.323881578947369
 10
4.034565789473684
 20
6.7266315789473685
 10
3.709539473684211
 20
6.76196052631579
 10
3.716605263157895
 20
7.101118421052632
 10
3.4763684210526318
 20
7.129381578947369
 10
3.455171052631579
 20
7.419078947368422
  0
LWPOLYLINE
  5
10E
330
17
100
AcDbEntity
  8
A-WALL
100
AcDbPolyline
 90
5
 70
1
 10
3.0524210526315794
 20
5.080302631578948
 10
3.441039473684211
 20
5.0873684210526315
 10
3.448105263157895
 20
5.023776315789474
 10
3.4339736842105264
 20
5.009644736842105
 10
3.0665526315789475
 20
5.01671052631579
  0
LWPOLYLINE
  5
10F
330
17
100
AcDbEntity
  8
A-WALL
100
AcDbPolyline
 90
4
 70
1
 10
3.0382894736842108
 20
5.306407894736843
 10
3.455171052631579
 20
5.313473684210527
 10
3.455171052631579
 20
5.108565789473684
 10
3.0594868421052634
 20
5.101500000000001
  0
LWPOLYLINE
  5
110
330
17
100
AcDbEntity
  8
A-WALL
100
AcDbPolyline
 90
6
 70
1
 10
3.956842105263158
 20
6.097776315789474
 10
4.020434210526316
 20
6.0765789473684215
 10
4.020434210526316
 20
5.709157894736842
 10
3.9639078947368422
 20
5.695026315789474
 10
3.9427105263157896
 20
5.709157894736842
 10
3.9427105263157896
 20
6.083644736842106
  0
LWPOLYLINE
  5
111
330
17
100
AcDbEntity
  8
A-WALL
100
AcDbPolyline
 90
6
 70
1
 10
2.5366184210526317
 20
6.097776315789474
 10
2.5648815789473685
 20
6.083644736842106
 10
2.5648815789473685
 20
5.709157894736842
 10
2.5507500000000003
 20
5.695026315789474
 10
2.480092105263158
 20
5.716223684210527
 10
2.480092105263158
 20
6.069513157894737
  0
LWPOLYLINE
  5
112
330
17
100
AcDbEntity
  8
A-WALL
100
AcDbPolyline
 90
5
 70
1
 10
3.716605263157895
 20
6.104842105263159
 10
3.9285789473684214
 20
6.09071052631579
 10
3.9215131578947373
 20
5.695026315789474
 10
3.7307368421052636
 20
5.680894736842106
 10
3.709539473684211
 20
5.695026315789474
  0
LWPOLYLINE
  5
113
330
17
100
AcDbEntity
  8
A-WALL
100
AcDbPolyline
 90
6
 70
1
 10
2.586078947368421
 20
6.097776315789474
 10
2.7909868421052635
 20
6.097776315789474
 10
2.7909868421052635
 20
5.695026315789474
 10
2.776855263157895
 20
5.680894736842106
 10
2.579013157894737
 20
5.702092105263159
 10
2.571947368421053
 20
6.083644736842106
  0
LWPOLYLINE
  5
114
330
17
100
AcDbEntity
  8
A-WALL
100
AcDbPolyline
 90
6
 70
1
 10
3.956842105263158
 20
6.7266315789473685
 10
4.020434210526316
 20
6.7125
 10
4.020434210526316
 20
6.345078947368422
 10
4.006302631578948
 20
6.330947368421053
 10
3.9427105263157896
 20
6.345078947368422
 10
3.9427105263157896
 20
6.7125
  0
LWPOLYLINE
  5
115
330
17
100
AcDbEntity
  8
A-WALL
100
AcDbPolyline
 90
5
 70
1
 10
2.5507500000000003
 20
6.7266315789473685
 10
2.5578157894736844
 20
6.338013157894737
 10
2.501289473684211
 20
6.330947368421053
 10
2.480092105263158
 20
6.345078947368422
 10
2.480092105263158
 20
6.705434210526317
  0
LWPOLYLINE
  5
116
330
17
100
AcDbEntity
  8
A-WALL
100
AcDbPolyline
 90
5
 70
1
 10
3.723671052631579
 20
6.740763157894738
 10
3.9285789473684214
 20
6.719565789473685
 10
3.9215131578947373
 20
6.323881578947369
 10
3.709539473684211
 20
6.323881578947369
 10
3.709539473684211
 20
6.7266315789473685
  0
LWPOLYLINE
  5
117
330
17
100
AcDbEntity
  8
A-WALL
100
AcDbPolyline
 90
6
 70
1
 10
2.776855263157895
 20
6.740763157894738
 10
2.7909868421052635
 20
6.7266315789473685
 10
2.7909868421052635
 20
6.323881578947369
 10
2.769789473684211
 20
6.30975
 10
2.586078947368421
 20
6.323881578947369
 10
2.579013157894737
 20
6.719565789473685
  0
LWPOLYLINE
  5
118
330
17
100
AcDbEntity
  8
A-WALL
100
AcDbPolyline
 90
6
 70
1
 10
2.812184210526316
 20
7.101118421052632
 10
3.688342105263158
 20
7.101118421052632
 10
3.702473684210527
 20
7.086986842105263
 10
3.702473684210527
 20
5.341736842105264
 10
3.688342105263158
 20
5.327605263157895
 10
2.8051184210526316
 20
5.334671052631579
  0
LWPOLYLINE
  5
119
330
17
100
AcDbEntity
  8
A-WALL
100
AcDbPolyline
 90
4
 70
1
 10
3.0524210526315794
 20
7.320157894736843
 10
3.441039473684211
 20
7.3272236842105265
 10
3.4622368421052636
 20
7.122315789473685
 10
3.045355263157895
 20
7.1152500000000005
  0
LWPOLYLINE
  5
11A
330
17
100
AcDbEntity
  8
A-WALL
100
AcDbPolyline
 90
5
 70
1
 10
3.0524210526315794
 20
7.397881578947369
 10
3.0736184210526316
 20
7.412013157894737
 10
3.4339736842105264
 20
7.412013157894737
 10
3.448105263157895
 20
7.3413552631578955
 10
3.0594868421052634
 20
7.334289473684211
  0
LWPOLYLINE
  5
11B
330
17
100
AcDbEntity
  8
A-WALL
100
AcDbPolyline
 90
4
 70
1
 10
6.7125
 20
7.475605263157895
 10
6.7125
 20
7.454407894736843
 10
6.804355263157896
 20
7.454407894736843
 10
6.804355263157896
 20
7.475605263157895
  0
LWPOLYLINE
  5
11C
330
17
100
AcDbEntity
  8
A-WALL
100
AcDbPolyline
 90
4
 70
1
 10
6.521723684210527
 20
7.475605263157895
 10
6.521723684210527
 20
7.454407894736843
 10
6.6135789473684214
 20
7.454407894736843
 10
6.6135789473684214
 20
7.475605263157895
  0
LWPOLYLINE
  5
11D
330
17
100
AcDbEntity
  8
A-WALL
100
AcDbPolyline
 90
18
 70
1
 10
4.797671052631579
 20
7.468539473684211
 10
4.8118026315789475
 20
7.461473684210527
 10
4.8259342105263165
 20
7.5038684210526325
 10
4.868328947368421
 20
7.461473684210527
 10
4.889526315789474
 20
7.468539473684211
 10
4.910723684210526
 20
7.532131578947369
 10
4.917789473684211
 20
7.468539473684211
 10
4.931921052631579
 20
7.468539473684211
 10
4.931921052631579
 20
7.496802631578948
 10
4.96725
 20
7.518000000000001
 10
4.9248552631578955
 20
7.532131578947369
 10
4.9743157894736845
 20
7.539197368421053
 10
4.9743157894736845
 20
7.5533289473684215
 10
4.903657894736843
 20
7.546263157894737
 10
4.875394736842106
 20
7.48267105263158
 10
4.854197368421053
 20
7.496802631578948
 10
4.868328947368421
 20
7.539197368421053
 10
4.804736842105264
 20
7.5533289473684215
  0
LWPOLYLINE
  5
11E
330
17
100
AcDbEntity
  8
A-WALL
100
AcDbPolyline
 90
4
 70
1
 10
4.8118026315789475
 20
7.532131578947369
 10
4.833
 20
7.546263157894737
 10
4.854197368421053
 20
7.518000000000001
 10
4.8259342105263165
 20
7.510934210526316
  0
LWPOLYLINE
  5
11F
330
17
100
AcDbEntity
  8
A-WALL
100
AcDbPolyline
 90
12
 70
1
 10
8.599065789473684
 20
7.609855263157895
 10
8.613197368421053
 20
7.532131578947369
 10
8.634394736842106
 20
7.525065789473685
 10
8.655592105263159
 20
7.581592105263159
 10
8.683855263157895
 20
7.525065789473685
 10
8.705052631578948
 20
7.602789473684211
 10
8.69092105263158
 20
7.609855263157895
 10
8.69092105263158
 20
7.581592105263159
 10
8.669723684210528
 20
7.574526315789474
 10
8.648526315789475
 20
7.609855263157895
 10
8.620263157894737
 20
7.560394736842106
 10
8.613197368421053
 20
7.609855263157895
  0
LWPOLYLINE
  5
120
330
17
100
AcDbEntity
  8
A-WALL
100
AcDbPolyline
 90
8
 70
1
 10
8.811039473684211
 20
7.588657894736842
 10
8.77571052631579
 20
7.61692105263158
 10
8.733315789473686
 20
7.609855263157895
 10
8.705052631578948
 20
7.525065789473685
 10
8.74038157894737
 20
7.588657894736842
 10
8.74038157894737
 20
7.532131578947369
 10
8.782776315789475
 20
7.518000000000001
 10
8.811039473684211
 20
7.539197368421053
  0
LWPOLYLINE
  5
121
330
17
100
AcDbEntity
  8
A-WALL
100
AcDbPolyline
 90
4
 70
1
 10
8.761578947368422
 20
7.595723684210527
 10
8.803973684210527
 20
7.56746052631579
 10
8.77571052631579
 20
7.532131578947369
 10
8.754513157894737
 20
7.546263157894737
  0
LWPOLYLINE
  5
122
330
17
100
AcDbEntity
  8
A-WALL
100
AcDbPolyline
 90
5
 70
1
 10
6.062447368421053
 20
7.779434210526317
 10
6.048315789473684
 20
7.7653026315789475
 10
6.048315789473684
 20
7.291894736842106
 10
6.3026842105263166
 20
7.284828947368422
 10
6.3026842105263166
 20
7.772368421052632
  0
LWPOLYLINE
  5
123
330
17
100
AcDbEntity
  8
A-WALL
100
AcDbPolyline
 90
5
 70
1
 10
6.210828947368421
 20
7.397881578947369
 10
6.295618421052632
 20
7.390815789473685
 10
6.281486842105264
 20
7.291894736842106
 10
6.182565789473685
 20
7.29896052631579
 10
6.182565789473685
 20
7.362552631578948
  0
LWPOLYLINE
  5
124
330
17
100
AcDbEntity
  8
A-WALL
100
AcDbPolyline
 90
5
 70
1
 10
6.133105263157895
 20
7.404947368421054
 10
6.1755
 20
7.355486842105264
 10
6.1755
 20
7.306026315789474
 10
6.0765789473684215
 20
7.291894736842106
 10
6.062447368421053
 20
7.390815789473685
  0
LWPOLYLINE
  5
125
330
17
100
AcDbEntity
  8
A-WALL
100
AcDbPolyline
 90
4
 70
1
 10
6.1755
 20
7.43321052631579
 10
6.203763157894738
 20
7.412013157894737
 10
6.182565789473685
 20
7.383750000000001
 10
6.154302631578948
 20
7.397881578947369
  0
LWPOLYLINE
  5
126
330
17
100
AcDbEntity
  8
A-WALL
100
AcDbPolyline
 90
9
 70
1
 10
6.22496052631579
 20
7.623986842105264
 10
6.295618421052632
 20
7.609855263157895
 10
6.295618421052632
 20
7.426144736842105
 10
6.274421052631579
 20
7.412013157894737
 10
6.210828947368421
 20
7.419078947368422
 10
6.182565789473685
 20
7.447342105263158
 10
6.232026315789474
 20
7.461473684210527
 10
6.182565789473685
 20
7.48267105263158
 10
6.182565789473685
 20
7.581592105263159
  0
LWPOLYLINE
  5
127
330
17
100
AcDbEntity
  8
A-WALL
100
AcDbPolyline
 90
9
 70
1
 10
6.0765789473684215
 20
7.623986842105264
 10
6.133105263157895
 20
7.623986842105264
 10
6.168434210526316
 20
7.581592105263159
 10
6.1755
 20
7.4897368421052635
 10
6.133105263157895
 20
7.468539473684211
 10
6.168434210526316
 20
7.4402763157894745
 10
6.133105263157895
 20
7.412013157894737
 10
6.062447368421053
 20
7.426144736842105
 10
6.055381578947369
 20
7.609855263157895
  0
LWPOLYLINE
  5
128
330
17
100
AcDbEntity
  8
A-WALL
100
AcDbPolyline
 90
4
 70
1
 10
6.1755
 20
7.666381578947369
 10
6.203763157894738
 20
7.645184210526316
 10
6.182565789473685
 20
7.602789473684211
 10
6.147236842105263
 20
7.631052631578948
  0
LWPOLYLINE
  5
129
330
17
100
AcDbEntity
  8
A-WALL
100
AcDbPolyline
 90
6
 70
1
 10
6.069513157894737
 20
7.7653026315789475
 10
6.1755
 20
7.751171052631579
 10
6.168434210526316
 20
7.680513157894738
 10
6.133105263157895
 20
7.638118421052632
 10
6.062447368421053
 20
7.65225
 10
6.055381578947369
 20
7.751171052631579
  0
LWPOLYLINE
  5
12A
330
17
100
AcDbEntity
  8
A-WALL
100
AcDbPolyline
 90
5
 70
1
 10
6.196697368421053
 20
7.772368421052632
 10
6.295618421052632
 20
7.758236842105264
 10
6.281486842105264
 20
7.638118421052632
 10
6.22496052631579
 20
7.638118421052632
 10
6.182565789473685
 20
7.680513157894738
  0
LWPOLYLINE
  5
12B
330
17
100
AcDbEntity
  8
A-WALL
100
AcDbPolyline
 90
23
 70
1
 10
5.511315789473684
 20
7.772368421052632
 10
5.511315789473684
 20
7.284828947368422
 10
5.765684210526317
 20
7.291894736842106
 10
5.758618421052632
 20
7.447342105263158
 10
5.843407894736843
 20
7.454407894736843
 10
5.843407894736843
 20
7.475605263157895
 10
5.786881578947368
 20
7.48267105263158
 10
5.793947368421053
 20
7.623986842105264
 10
5.82221052631579
 20
7.609855263157895
 10
5.829276315789474
 20
7.56746052631579
 10
5.899934210526316
 20
7.518000000000001
 10
5.899934210526316
 20
7.43321052631579
 10
5.885802631578948
 20
7.419078947368422
 10
5.779815789473685
 20
7.426144736842105
 10
5.786881578947368
 20
7.404947368421054
 10
6.027118421052632
 20
7.404947368421054
 10
6.034184210526316
 20
7.758236842105264
 10
6.020052631578948
 20
7.779434210526317
 10
5.786881578947368
 20
7.779434210526317
 10
5.786881578947368
 20
7.4897368421052635
 10
5.77275
 20
7.475605263157895
 10
5.758618421052632
 20
7.48267105263158
 10
5.758618421052632
 20
7.772368421052632
  0
LWPOLYLINE
  5
12C
330
17
100
AcDbEntity
  8
A-WALL
100
AcDbPolyline
 90
5
 70
1
 10
5.518381578947369
 20
7.390815789473685
 10
5.596105263157895
 20
7.397881578947369
 10
5.624368421052632
 20
7.369618421052632
 10
5.624368421052632
 20
7.29896052631579
 10
5.532513157894737
 20
7.291894736842106
  0
LWPOLYLINE
  5
12D
330
17
100
AcDbEntity
  8
A-WALL
100
AcDbPolyline
 90
5
 70
1
 10
5.737421052631579
 20
7.404947368421054
 10
5.751552631578948
 20
7.306026315789474
 10
5.652631578947369
 20
7.291894736842106
 10
5.6385000000000005
 20
7.362552631578948
 10
5.673828947368421
 20
7.397881578947369
  0
LWPOLYLINE
  5
12E
330
17
100
AcDbEntity
  8
A-WALL
100
AcDbPolyline
 90
4
 70
1
 10
5.631434210526316
 20
7.43321052631579
 10
5.652631578947369
 20
7.419078947368422
 10
5.6385000000000005
 20
7.383750000000001
 10
5.617302631578948
 20
7.397881578947369
  0
LWPOLYLINE
  5
12F
330
17
100
AcDbEntity
  8
A-WALL
100
AcDbPolyline
 90
7
 70
1
 10
5.6879605263157895
 20
7.623986842105264
 10
5.751552631578948
 20
7.61692105263158
 10
5.751552631578948
 20
7.426144736842105
 10
5.737421052631579
 20
7.412013157894737
 10
5.666763157894737
 20
7.419078947368422
 10
5.645565789473685
 20
7.4402763157894745
 10
5.6385000000000005
 20
7.56746052631579
  0
LWPOLYLINE
  5
130
330
17
100
AcDbEntity
  8
A-WALL
100
AcDbPolyline
 90
9
 70
1
 10
5.525447368421053
 20
7.623986842105264
 10
5.581973684210527
 20
7.623986842105264
 10
5.624368421052632
 20
7.574526315789474
 10
5.624368421052632
 20
7.48267105263158
 10
5.560776315789474
 20
7.475605263157895
 10
5.567842105263158
 20
7.454407894736843
 10
5.624368421052632
 20
7.454407894736843
 10
5.589039473684211
 20
7.412013157894737
 10
5.518381578947369
 20
7.426144736842105
  0
LWPOLYLINE
  5
131
330
17
100
AcDbEntity
  8
A-WALL
100
AcDbPolyline
 90
9
 70
1
 10
6.0129868421052635
 20
7.631052631578948
 10
6.027118421052632
 20
7.61692105263158
 10
6.020052631578948
 20
7.48267105263158
 10
5.942328947368422
 20
7.461473684210527
 10
6.00592105263158
 20
7.461473684210527
 10
6.027118421052632
 20
7.43321052631579
 10
5.921131578947369
 20
7.419078947368422
 10
5.9140657894736846
 20
7.518000000000001
 10
5.977657894736843
 20
7.560394736842106
  0
LWPOLYLINE
  5
132
330
17
100
AcDbEntity
  8
A-WALL
100
AcDbPolyline
 90
5
 70
1
 10
5.977657894736843
 20
7.631052631578948
 10
5.991789473684211
 20
7.61692105263158
 10
5.977657894736843
 20
7.581592105263159
 10
5.921131578947369
 20
7.546263157894737
 10
5.9140657894736846
 20
7.574526315789474
  0
LWPOLYLINE
  5
133
330
17
100
AcDbEntity
  8
A-WALL
100
AcDbPolyline
 90
5
 70
1
 10
5.836342105263158
 20
7.631052631578948
 10
5.899934210526316
 20
7.574526315789474
 10
5.892868421052632
 20
7.546263157894737
 10
5.836342105263158
 20
7.581592105263159
 10
5.82221052631579
 20
7.609855263157895
  0
LWPOLYLINE
  5
134
330
17
100
AcDbEntity
  8
A-WALL
100
AcDbPolyline
 90
4
 70
1
 10
5.899934210526316
 20
7.673447368421053
 10
5.942328947368422
 20
7.638118421052632
 10
5.9140657894736846
 20
7.595723684210527
 10
5.871671052631579
 20
7.61692105263158
  0
LWPOLYLINE
  5
135
330
17
100
AcDbEntity
  8
A-WALL
100
AcDbPolyline
 90
4
 70
1
 10
5.631434210526316
 20
7.673447368421053
 10
5.673828947368421
 20
7.631052631578948
 10
5.6385000000000005
 20
7.588657894736842
 10
5.596105263157895
 20
7.631052631578948
  0
LWPOLYLINE
  5
136
330
17
100
AcDbEntity
  8
A-WALL
100
AcDbPolyline
 90
4
 70
1
 10
5.921131578947369
 20
7.722907894736843
 10
5.991789473684211
 20
7.659315789473685
 10
5.977657894736843
 20
7.638118421052632
 10
5.9140657894736846
 20
7.687578947368421
  0
LWPOLYLINE
  5
137
330
17
100
AcDbEntity
  8
A-WALL
100
AcDbPolyline
 90
5
 70
1
 10
5.892868421052632
 20
7.722907894736843
 10
5.899934210526316
 20
7.694644736842106
 10
5.836342105263158
 20
7.638118421052632
 10
5.829276315789474
 20
7.673447368421053
 10
5.871671052631579
 20
7.722907894736843
  0
LWPOLYLINE
  5
138
330
17
100
AcDbEntity
  8
A-WALL
100
AcDbPolyline
 90
6
 70
1
 10
5.928197368421053
 20
7.772368421052632
 10
6.020052631578948
 20
7.758236842105264
 10
6.027118421052632
 20
7.65225
 10
6.0129868421052635
 20
7.638118421052632
 10
5.970592105263158
 20
7.7158421052631585
 10
5.907
 20
7.751171052631579
  0
LWPOLYLINE
  5
139
330
17
100
AcDbEntity
  8
A-WALL
100
AcDbPolyline
 90
6
 70
1
 10
5.892868421052632
 20
7.7653026315789475
 10
5.907
 20
7.751171052631579
 10
5.8504736842105265
 20
7.722907894736843
 10
5.82221052631579
 20
7.659315789473685
 10
5.793947368421053
 20
7.645184210526316
 10
5.786881578947368
 20
7.758236842105264
  0
LWPOLYLINE
  5
13A
330
17
100
AcDbEntity
  8
A-WALL
100
AcDbPolyline
 90
5
 70
1
 10
5.737421052631579
 20
7.772368421052632
 10
5.751552631578948
 20
7.645184210526316
 10
5.6879605263157895
 20
7.638118421052632
 10
5.6385000000000005
 20
7.694644736842106
 10
5.6385000000000005
 20
7.758236842105264
  0
LWPOLYLINE
  5
13B
330
17
100
AcDbEntity
  8
A-WALL
100
AcDbPolyline
 90
5
 70
1
 10
5.610236842105263
 20
7.772368421052632
 10
5.624368421052632
 20
7.687578947368421
 10
5.581973684210527
 20
7.638118421052632
 10
5.532513157894737
 20
7.638118421052632
 10
5.518381578947369
 20
7.758236842105264
  0
LWPOLYLINE
  5
13C
330
17
100
AcDbEntity
  8
A-WALL
100
AcDbPolyline
 90
39
 70
1
 10
11.213407894736843
 20
7.899552631578948
 10
11.199276315789474
 20
7.857157894736843
 10
11.07209210526316
 20
7.857157894736843
 10
11.079157894736843
 20
7.843026315789475
 10
11.199276315789474
 20
7.850092105263158
 10
11.213407894736843
 20
7.83596052631579
 10
11.213407894736843
 20
6.30975
 10
11.19221052631579
 20
6.295618421052632
 10
11.07209210526316
 20
6.3026842105263166
 10
11.07209210526316
 20
6.281486842105264
 10
11.199276315789474
 20
6.2885526315789475
 10
11.213407894736843
 20
6.274421052631579
 10
11.213407894736843
 20
4.903657894736843
 10
11.142750000000001
 20
4.917789473684211
 10
11.142750000000001
 20
4.896592105263158
 10
11.213407894736843
 20
4.889526315789474
 10
11.213407894736843
 20
3.9215131578947373
 10
11.07209210526316
 20
3.9073815789473687
 10
11.07209210526316
 20
3.89325
 10
11.213407894736843
 20
3.886184210526316
 10
11.213407894736843
 20
1.2577105263157895
 10
11.199276315789474
 20
1.2435789473684211
 10
11.079157894736843
 20
1.2506447368421054
 10
11.07209210526316
 20
1.236513157894737
 10
11.199276315789474
 20
1.236513157894737
 10
11.20634210526316
 20
1.1941184210526317
 10
11.227539473684212
 20
1.1870526315789474
 10
11.227539473684212
 20
1.2294473684210527
 10
11.262868421052632
 20
1.236513157894737
 10
11.227539473684212
 20
1.2506447368421054
 10
11.227539473684212
 20
3.886184210526316
 10
11.262868421052632
 20
3.9003157894736846
 10
11.227539473684212
 20
3.914447368421053
 10
11.227539473684212
 20
6.281486842105264
 10
11.262868421052632
 20
6.2885526315789475
 10
11.227539473684212
 20
6.30975
 10
11.227539473684212
 20
7.843026315789475
 10
11.262868421052632
 20
7.857157894736843
 10
11.234605263157896
 20
7.857157894736843
  0
LWPOLYLINE
  5
13D
330
17
100
AcDbEntity
  8
A-WALL
100
AcDbPolyline
 90
20
 70
1
 10
0.007065789473684211
 20
5.878736842105264
 10
0.007065789473684211
 20
1.2153157894736843
 10
0.028263157894736844
 20
1.201184210526316
 10
1.9642894736842107
 20
1.2153157894736843
 10
1.9854868421052634
 20
1.1870526315789474
 10
10.761197368421053
 20
1.1941184210526317
 10
10.761197368421053
 20
4.084026315789474
 10
10.669342105263159
 20
4.084026315789474
 10
9.955697368421053
 20
4.274802631578948
 10
9.9345
 20
4.296
 10
10.047552631578949
 20
4.529171052631579
 10
10.195934210526316
 20
4.684618421052632
 10
10.414973684210526
 20
4.804736842105264
 10
10.549223684210528
 20
4.840065789473685
 10
10.761197368421053
 20
4.854197368421053
 10
10.761197368421053
 20
6.330947368421053
 10
9.100736842105263
 20
6.330947368421053
 10
9.09367105263158
 20
7.899552631578948
 10
1.9854868421052634
 20
7.899552631578948
 10
1.9854868421052634
 20
5.885802631578948
  0
LWPOLYLINE
  5
13E
330
17
100
AcDbEntity
  8
A-WALL
100
AcDbPolyline
 90
10
 70
1
 10
4.507973684210526
 20
1.2647763157894738
 10
4.522105263157895
 20
1.2789078947368422
 10
6.034184210526316
 20
1.2789078947368422
 10
6.048315789473684
 20
1.2577105263157895
 10
6.027118421052632
 20
1.236513157894737
 10
4.529171052631579
 20
1.236513157894737
 10
6.034184210526316
 20
1.236513157894737
 10
6.048315789473684
 20
1.2153157894736843
 10
6.034184210526316
 20
1.201184210526316
 10
4.515039473684211
 20
1.201184210526316
  0
LWPOLYLINE
  5
13F
330
17
100
AcDbEntity
  8
A-WALL
100
AcDbPolyline
 90
10
 70
1
 10
2.685
 20
1.2647763157894738
 10
2.6991315789473687
 20
1.2789078947368422
 10
4.2112105263157895
 20
1.2789078947368422
 10
4.225342105263159
 20
1.2153157894736843
 10
4.2112105263157895
 20
1.201184210526316
 10
2.6920657894736846
 20
1.201184210526316
 10
2.6920657894736846
 20
1.236513157894737
 10
4.182947368421053
 20
1.2294473684210527
 10
4.197078947368421
 20
1.2435789473684211
 10
2.6991315789473687
 20
1.236513157894737
  0
LWPOLYLINE
  5
140
330
17
100
AcDbEntity
  8
A-WALL
100
AcDbPolyline
 90
4
 70
1
 10
2.0208157894736845
 20
1.2789078947368422
 10
2.0349473684210526
 20
1.2859736842105265
 10
2.077342105263158
 20
1.2435789473684211
 10
2.042013157894737
 20
1.2294473684210527
  0
LWPOLYLINE
  5
141
330
17
100
AcDbEntity
  8
A-WALL
100
AcDbPolyline
 90
4
 70
1
 10
10.70467105263158
 20
1.2930394736842106
 10
10.718802631578948
 20
1.2577105263157895
 10
10.683473684210528
 20
1.2294473684210527
 10
10.669342105263159
 20
1.2506447368421054
  0
LWPOLYLINE
  5
142
330
17
100
AcDbEntity
  8
A-WALL
100
AcDbPolyline
 90
3
 70
1
 10
7.178842105263159
 20
1.3142368421052633
 10
7.221236842105264
 20
1.2294473684210527
 10
7.129381578947369
 20
1.236513157894737
  0
LWPOLYLINE
  5
143
330
17
100
AcDbEntity
  8
A-WALL
100
AcDbPolyline
 90
6
 70
1
 10
3.6318157894736847
 20
1.4555526315789475
 10
3.645947368421053
 20
1.469684210526316
 10
5.490118421052632
 20
1.469684210526316
 10
5.511315789473684
 20
1.307171052631579
 10
5.497184210526316
 20
1.2930394736842106
 10
3.6388815789473687
 20
1.2930394736842106
  0
LWPOLYLINE
  5
144
330
17
100
AcDbEntity
  8
A-WALL
100
AcDbPolyline
 90
6
 70
1
 10
10.104078947368421
 20
1.6463289473684213
 10
10.11821052631579
 20
1.6604605263157897
 10
10.464434210526317
 20
1.6604605263157897
 10
10.478565789473684
 20
1.6463289473684213
 10
10.478565789473684
 20
1.307171052631579
 10
10.111144736842107
 20
1.3001052631578949
  0
LWPOLYLINE
  5
145
330
17
100
AcDbEntity
  8
A-WALL
100
AcDbPolyline
 90
4
 70
1
 10
8.394157894736843
 20
2.042013157894737
 10
8.592
 20
2.0278815789473685
 10
8.584934210526317
 20
1.8229736842105264
 10
8.387092105263159
 20
2.0208157894736845
  0
LWPOLYLINE
  5
146
330
17
100
AcDbEntity
  8
A-WALL
100
AcDbPolyline
 90
5
 70
1
 10
5.532513157894737
 20
2.1126710526315793
 10
5.631434210526316
 20
2.0985394736842107
 10
5.624368421052632
 20
1.2930394736842106
 10
5.518381578947369
 20
1.3001052631578949
 10
5.518381578947369
 20
2.0985394736842107
  0
LWPOLYLINE
  5
147
330
17
100
AcDbEntity
  8
A-WALL
100
AcDbPolyline
 90
6
 70
1
 10
3.518763157894737
 20
2.1126710526315793
 10
3.617684210526316
 20
2.0985394736842107
 10
3.617684210526316
 20
1.3001052631578949
 10
3.6035526315789475
 20
1.2859736842105265
 10
3.5046315789473685
 20
1.3001052631578949
 10
3.5046315789473685
 20
2.0985394736842107
  0
LWPOLYLINE
  5
148
330
17
100
AcDbEntity
  8
A-WALL
100
AcDbPolyline
 90
5
 70
1
 10
4.896592105263158
 20
2.148
 10
5.504250000000001
 20
2.140934210526316
 10
5.511315789473684
 20
1.4979473684210527
 10
5.497184210526316
 20
1.4838157894736843
 10
4.889526315789474
 20
1.4908815789473686
  0
LWPOLYLINE
  5
149
330
17
100
AcDbEntity
  8
A-WALL
100
AcDbPolyline
 90
5
 70
1
 10
4.267736842105263
 20
2.148
 10
4.875394736842106
 20
2.140934210526316
 10
4.868328947368421
 20
1.4838157894736843
 10
4.274802631578948
 20
1.47675
 10
4.260671052631579
 20
1.4908815789473686
  0
LWPOLYLINE
  5
14A
330
17
100
AcDbEntity
  8
A-WALL
100
AcDbPolyline
 90
5
 70
1
 10
3.6388815789473687
 20
2.148
 10
4.246539473684211
 20
2.140934210526316
 10
4.253605263157895
 20
1.4979473684210527
 10
4.239473684210527
 20
1.4838157894736843
 10
3.6318157894736847
 20
1.4908815789473686
  0
LWPOLYLINE
  5
14B
330
17
100
AcDbEntity
  8
A-WALL
100
AcDbPolyline
 90
6
 70
1
 10
2.042013157894737
 20
3.024157894736842
 10
2.070276315789474
 20
3.00296052631579
 10
2.070276315789474
 20
1.505013157894737
 10
2.0561447368421053
 20
1.4838157894736843
 10
2.0278815789473685
 20
1.4979473684210527
 10
2.0278815789473685
 20
3.010026315789474
  0
LWPOLYLINE
  5
14C
330
17
100
AcDbEntity
  8
A-WALL
100
AcDbPolyline
 90
6
 70
1
 10
2.006684210526316
 20
3.024157894736842
 10
2.0278815789473685
 20
3.010026315789474
 10
2.0278815789473685
 20
1.4979473684210527
 10
2.01375
 20
1.4838157894736843
 10
1.9854868421052634
 20
1.4979473684210527
 10
1.9854868421052634
 20
3.00296052631579
  0
LWPOLYLINE
  5
14D
330
17
100
AcDbEntity
  8
A-WALL
100
AcDbPolyline
 90
5
 70
1
 10
7.07992105263158
 20
3.179605263157895
 10
7.136447368421053
 20
3.116013157894737
 10
7.136447368421053
 20
2.169197368421053
 10
7.086986842105263
 20
2.1126710526315793
 10
7.072855263157895
 20
2.1197368421052634
  0
LWPOLYLINE
  5
14E
330
17
100
AcDbEntity
  8
A-WALL
100
AcDbPolyline
 90
4
 70
1
 10
1.9854868421052634
 20
3.172539473684211
 10
1.9996184210526318
 20
3.186671052631579
 10
2.06321052631579
 20
3.179605263157895
 10
2.0561447368421053
 20
3.1584078947368424
  0
LWPOLYLINE
  5
14F
330
17
100
AcDbEntity
  8
A-WALL
100
AcDbPolyline
 90
6
 70
1
 10
10.725868421052633
 20
3.2220000000000004
 10
10.75413157894737
 20
3.207868421052632
 10
10.75413157894737
 20
1.7028552631578948
 10
10.732934210526317
 20
1.6816578947368421
 10
10.711736842105264
 20
1.6957894736842107
 10
10.711736842105264
 20
3.207868421052632
  0
LWPOLYLINE
  5
150
330
17
100
AcDbEntity
  8
A-WALL
100
AcDbPolyline
 90
6
 70
1
 10
10.683473684210528
 20
3.2220000000000004
 10
10.711736842105264
 20
3.207868421052632
 10
10.711736842105264
 20
1.7028552631578948
 10
10.690539473684211
 20
1.6816578947368421
 10
10.669342105263159
 20
1.6957894736842107
 10
10.669342105263159
 20
3.207868421052632
  0
LWPOLYLINE
  5
151
330
17
100
AcDbEntity
  8
A-WALL
100
AcDbPolyline
 90
8
 70
1
 10
8.37296052631579
 20
3.3067894736842107
 10
10.01928947368421
 20
3.313855263157895
 10
10.026355263157896
 20
1.8159078947368423
 10
10.012223684210527
 20
1.8017763157894737
 10
8.613197368421053
 20
1.8017763157894737
 10
8.599065789473684
 20
1.8159078947368423
 10
8.60613157894737
 20
2.042013157894737
 10
8.37296052631579
 20
2.0561447368421053
  0
LWPOLYLINE
  5
152
330
17
100
AcDbEntity
  8
A-WALL
100
AcDbPolyline
 90
12
 70
1
 10
6.719565789473685
 20
3.53996052631579
 10
7.136447368421053
 20
3.5328947368421053
 10
7.136447368421053
 20
3.1513421052631583
 10
7.122315789473685
 20
3.1442763157894738
 10
7.07992105263158
 20
3.207868421052632
 10
7.058723684210527
 20
3.207868421052632
 10
7.065789473684211
 20
2.070276315789474
 10
7.129381578947369
 20
2.148
 10
7.129381578947369
 20
1.6957894736842107
 10
6.719565789473685
 20
1.6957894736842107
 10
6.705434210526317
 20
1.7099210526315791
 10
6.705434210526317
 20
3.5258289473684212
  0
LWPOLYLINE
  5
153
330
17
100
AcDbEntity
  8
A-WALL
100
AcDbPolyline
 90
40
 70
1
 10
7.221236842105264
 20
3.850855263157895
 10
7.419078947368422
 20
3.8579210526315793
 10
7.447342105263158
 20
3.8367236842105266
 10
7.623986842105264
 20
3.1442763157894738
 10
7.645184210526316
 20
3.108947368421053
 10
7.673447368421053
 20
3.108947368421053
 10
7.899552631578948
 20
3.2220000000000004
 10
8.062065789473685
 20
3.377447368421053
 10
8.189250000000001
 20
3.610618421052632
 10
8.231644736842107
 20
3.850855263157895
 10
10.662276315789475
 20
3.8579210526315793
 10
10.65521052631579
 20
1.7099210526315791
 10
10.669342105263159
 20
1.2930394736842106
 10
10.65521052631579
 20
1.2789078947368422
 10
10.478565789473684
 20
1.2859736842105265
 10
10.492697368421053
 20
1.3142368421052633
 10
10.492697368421053
 20
1.6675263157894737
 10
10.478565789473684
 20
1.6816578947368421
 10
10.104078947368421
 20
1.6816578947368421
 10
10.089947368421054
 20
1.6675263157894737
 10
10.089947368421054
 20
1.3142368421052633
 10
10.104078947368421
 20
1.2859736842105265
 10
10.03342105263158
 20
1.2930394736842106
 10
10.03342105263158
 20
3.3279868421052634
 10
8.365894736842106
 20
3.3279868421052634
 10
8.358828947368421
 20
1.3213026315789476
 10
8.37296052631579
 20
1.3142368421052633
 10
8.365894736842106
 20
2.006684210526316
 10
8.380026315789474
 20
2.01375
 10
8.60613157894737
 20
1.7876447368421053
 10
10.01928947368421
 20
1.7876447368421053
 10
10.03342105263158
 20
1.3001052631578949
 10
10.01928947368421
 20
1.2859736842105265
 10
8.365894736842106
 20
1.2930394736842106
 10
8.358828947368421
 20
1.2789078947368422
 10
7.284828947368422
 20
1.2859736842105265
 10
7.235368421052632
 20
1.2718421052631579
 10
7.221236842105264
 20
1.2859736842105265
 10
7.235368421052632
 20
2.6920657894736846
 10
7.221236842105264
 20
2.7061973684210527
  0
LWPOLYLINE
  5
154
330
17
100
AcDbEntity
  8
A-WALL
100
AcDbPolyline
 90
3
 70
1
 10
7.221236842105264
 20
3.9073815789473687
 10
7.178842105263159
 20
3.8579210526315793
 10
7.171776315789474
 20
3.886184210526316
  0
LWPOLYLINE
  5
155
330
17
100
AcDbEntity
  8
A-WALL
100
AcDbPolyline
 90
4
 70
1
 10
8.224578947368421
 20
3.9356447368421055
 10
8.245776315789474
 20
3.9285789473684214
 10
8.231644736842107
 20
3.8579210526315793
 10
8.217513157894738
 20
3.872052631578948
  0
LWPOLYLINE
  5
156
330
17
100
AcDbEntity
  8
A-WALL
100
AcDbPolyline
 90
4
 70
1
 10
7.426144736842105
 20
3.9356447368421055
 10
7.447342105263158
 20
3.9215131578947373
 10
7.43321052631579
 20
3.8649868421052633
 10
7.412013157894737
 20
3.879118421052632
  0
LWPOLYLINE
  5
157
330
17
100
AcDbEntity
  8
A-WALL
100
AcDbPolyline
 90
4
 70
1
 10
10.70467105263158
 20
3.956842105263158
 10
10.718802631578948
 20
3.9427105263157896
 10
10.711736842105264
 20
3.850855263157895
 10
10.648144736842106
 20
3.9003157894736846
  0
LWPOLYLINE
  5
158
330
17
100
AcDbEntity
  8
A-WALL
100
AcDbPolyline
 90
4
 70
1
 10
10.669342105263159
 20
4.062828947368422
 10
10.683473684210528
 20
4.07696052631579
 10
10.747065789473686
 20
4.069894736842105
 10
10.732934210526317
 20
4.0486973684210525
  0
LWPOLYLINE
  5
159
330
17
100
AcDbEntity
  8
A-WALL
100
AcDbPolyline
 90
4
 70
1
 10
10.676407894736842
 20
4.868328947368421
 10
10.74
 20
4.875394736842106
 10
10.747065789473686
 20
4.861263157894737
 10
10.690539473684211
 20
4.847131578947368
  0
LWPOLYLINE
  5
15A
330
17
100
AcDbEntity
  8
A-WALL
100
AcDbPolyline
 90
4
 70
1
 10
1.9854868421052634
 20
5.06617105263158
 10
1.9996184210526318
 20
5.080302631578948
 10
2.06321052631579
 20
5.073236842105263
 10
2.0561447368421053
 20
5.052039473684211
  0
LWPOLYLINE
  5
15B
330
17
100
AcDbEntity
  8
A-WALL
100
AcDbPolyline
 90
4
 70
1
 10
8.097394736842105
 20
5.193355263157895
 10
8.118592105263158
 20
5.179223684210527
 10
8.10446052631579
 20
5.115631578947369
 10
8.090328947368421
 20
5.129763157894737
  0
LWPOLYLINE
  5
15C
330
17
100
AcDbEntity
  8
A-WALL
100
AcDbPolyline
 90
4
 70
1
 10
9.051276315789474
 20
5.2004210526315795
 10
9.051276315789474
 20
5.165092105263159
 10
9.015947368421052
 20
5.15096052631579
 10
9.001815789473685
 20
5.165092105263159
  0
LWPOLYLINE
  5
15D
330
17
100
AcDbEntity
  8
A-WALL
100
AcDbPolyline
 90
6
 70
1
 10
10.725868421052633
 20
5.271078947368421
 10
10.75413157894737
 20
5.2498815789473685
 10
10.75413157894737
 20
4.903657894736843
 10
10.74
 20
4.889526315789474
 10
10.711736842105264
 20
4.903657894736843
 10
10.711736842105264
 20
5.256947368421053
  0
LWPOLYLINE
  5
15E
330
17
100
AcDbEntity
  8
A-WALL
100
AcDbPolyline
 90
5
 70
1
 10
10.690539473684211
 20
5.271078947368421
 10
10.711736842105264
 20
5.256947368421053
 10
10.711736842105264
 20
4.903657894736843
 10
10.676407894736842
 20
4.889526315789474
 10
10.669342105263159
 20
5.256947368421053
  0
LWPOLYLINE
  5
15F
330
17
100
AcDbEntity
  8
A-WALL
100
AcDbPolyline
 90
4
 70
1
 10
7.48267105263158
 20
5.645565789473685
 10
7.539197368421053
 20
5.659697368421053
 10
7.609855263157895
 20
5.6385000000000005
 10
7.496802631578948
 20
5.624368421052632
  0
LWPOLYLINE
  5
160
330
17
100
AcDbEntity
  8
A-WALL
100
AcDbPolyline
 90
25
 70
1
 10
0.03532894736842106
 20
5.871671052631579
 10
1.9854868421052634
 20
5.8646052631578955
 10
1.9713552631578948
 20
5.829276315789474
 10
0.05652631578947369
 20
5.829276315789474
 10
0.05652631578947369
 20
1.2577105263157895
 10
1.9218947368421053
 20
1.2506447368421054
 10
1.9642894736842107
 20
1.2647763157894738
 10
0.07772368421052632
 20
1.2647763157894738
 10
0.0635921052631579
 20
1.2789078947368422
 10
0.0635921052631579
 20
5.815144736842106
 10
0.07772368421052632
 20
5.829276315789474
 10
1.9713552631578948
 20
5.829276315789474
 10
1.9854868421052634
 20
5.815144736842106
 10
1.978421052631579
 20
5.044973684210527
 10
1.512078947368421
 20
4.246539473684211
 10
1.6675263157894737
 20
4.1617500000000005
 10
1.8371052631578948
 20
4.119355263157895
 10
1.6180657894736843
 20
4.055763157894737
 10
1.512078947368421
 20
3.985105263157895
 10
1.978421052631579
 20
3.193736842105263
 10
1.9854868421052634
 20
1.2294473684210527
 10
1.9713552631578948
 20
1.2153157894736843
 10
0.03532894736842106
 20
1.2153157894736843
 10
0.02119736842105263
 20
1.2294473684210527
 10
0.02119736842105263
 20
5.857539473684211
  0
LWPOLYLINE
  5
161
330
17
100
AcDbEntity
  8
A-WALL
100
AcDbPolyline
 90
12
 70
1
 10
7.546263157894737
 20
5.907
 10
7.828894736842106
 20
5.907
 10
7.843026315789475
 20
5.892868421052632
 10
7.843026315789475
 20
5.37
 10
7.828894736842106
 20
5.355868421052632
 10
7.5533289473684215
 20
5.355868421052632
 10
7.539197368421053
 20
5.37
 10
7.539197368421053
 20
5.596105263157895
 10
7.609855263157895
 20
5.610236842105263
 10
7.631052631578948
 20
5.6385000000000005
 10
7.609855263157895
 20
5.666763157894737
 10
7.539197368421053
 20
5.673828947368421
  0
LWPOLYLINE
  5
162
330
17
100
AcDbEntity
  8
A-WALL
100
AcDbPolyline
 90
10
 70
1
 10
7.4402763157894745
 20
5.9140657894736846
 10
7.525065789473685
 20
5.899934210526316
 10
7.532131578947369
 20
5.680894736842106
 10
7.468539473684211
 20
5.645565789473685
 10
7.4897368421052635
 20
5.610236842105263
 10
7.525065789473685
 20
5.60317105263158
 10
7.525065789473685
 20
5.37
 10
7.461473684210527
 20
5.355868421052632
 10
7.426144736842105
 20
5.37
 10
7.426144736842105
 20
5.899934210526316
  0
LWPOLYLINE
  5
163
330
17
100
AcDbEntity
  8
A-WALL
100
AcDbPolyline
 90
12
 70
1
 10
7.4402763157894745
 20
6.055381578947369
 10
7.864223684210527
 20
6.055381578947369
 10
7.8783552631578955
 20
6.041250000000001
 10
7.8783552631578955
 20
5.221618421052632
 10
7.864223684210527
 20
5.207486842105263
 10
7.426144736842105
 20
5.214552631578948
 10
7.43321052631579
 20
5.348802631578947
 10
7.850092105263158
 20
5.348802631578947
 10
7.857157894736843
 20
5.3629342105263165
 10
7.850092105263158
 20
5.921131578947369
 10
7.4402763157894745
 20
5.9140657894736846
 10
7.426144736842105
 20
5.928197368421053
  0
LWPOLYLINE
  5
164
330
17
100
AcDbEntity
  8
A-WALL
100
AcDbPolyline
 90
4
 70
1
 10
10.648144736842106
 20
6.281486842105264
 10
10.697605263157895
 20
6.295618421052632
 10
10.718802631578948
 20
6.260289473684211
 10
10.70467105263158
 20
6.2390921052631585
  0
LWPOLYLINE
  5
165
330
17
100
AcDbEntity
  8
A-WALL
100
AcDbPolyline
 90
4
 70
1
 10
9.058342105263158
 20
6.330947368421053
 10
9.121934210526316
 20
6.2885526315789475
 10
9.051276315789474
 20
6.232026315789474
 10
9.04421052631579
 20
6.316815789473685
  0
LWPOLYLINE
  5
166
330
17
100
AcDbEntity
  8
A-WALL
100
AcDbPolyline
 90
10
 70
1
 10
7.560394736842106
 20
6.578250000000001
 10
7.737039473684211
 20
6.578250000000001
 10
7.793565789473685
 20
6.557052631578948
 10
7.850092105263158
 20
6.500526315789474
 10
7.871289473684211
 20
6.429868421052632
 10
7.864223684210527
 20
6.35921052631579
 10
7.800631578947369
 20
6.274421052631579
 10
7.595723684210527
 20
6.253223684210527
 10
7.546263157894737
 20
6.267355263157895
 10
7.546263157894737
 20
6.564118421052632
  0
LWPOLYLINE
  5
167
330
17
100
AcDbEntity
  8
A-WALL
100
AcDbPolyline
 90
5
 70
1
 10
2.042013157894737
 20
7.588657894736842
 10
2.070276315789474
 20
7.56746052631579
 10
2.0561447368421053
 20
6.048315789473684
 10
2.0278815789473685
 20
6.062447368421053
 10
2.0278815789473685
 20
7.574526315789474
  0
LWPOLYLINE
  5
168
330
17
100
AcDbEntity
  8
A-WALL
100
AcDbPolyline
 90
6
 70
1
 10
1.9996184210526318
 20
7.588657894736842
 10
2.0278815789473685
 20
7.574526315789474
 10
2.0278815789473685
 20
6.062447368421053
 10
2.01375
 20
6.048315789473684
 10
1.9854868421052634
 20
6.062447368421053
 10
1.9854868421052634
 20
7.574526315789474
  0
LWPOLYLINE
  5
169
330
17
100
AcDbEntity
  8
A-WALL
100
AcDbPolyline
 90
3
 70
1
 10
7.850092105263158
 20
7.772368421052632
 10
7.892486842105264
 20
7.687578947368421
 10
7.807697368421053
 20
7.694644736842106
  0
LWPOLYLINE
  5
16A
330
17
100
AcDbEntity
  8
A-WALL
100
AcDbPolyline
 90
7
 70
1
 10
8.429486842105264
 20
7.779434210526317
 10
8.443618421052632
 20
7.793565789473685
 10
8.99475
 20
7.793565789473685
 10
9.001815789473685
 20
7.334289473684211
 10
8.987684210526316
 20
7.320157894736843
 10
8.443618421052632
 20
7.3272236842105265
 10
8.429486842105264
 20
7.3413552631578955
  0
LWPOLYLINE
  5
16B
330
17
100
AcDbEntity
  8
A-WALL
100
AcDbPolyline
 90
14
 70
1
 10
7.4402763157894745
 20
7.800631578947369
 10
7.83596052631579
 20
7.800631578947369
 10
7.850092105263158
 20
7.779434210526317
 10
7.779434210526317
 20
7.687578947368421
 10
7.83596052631579
 20
7.666381578947369
 10
7.920750000000001
 20
7.673447368421053
 10
7.857157894736843
 20
7.779434210526317
 10
7.871289473684211
 20
7.800631578947369
 10
8.281105263157896
 20
7.7865
 10
8.266973684210527
 20
7.313092105263158
 10
7.920750000000001
 20
6.966868421052632
 10
7.475605263157895
 20
6.945671052631579
 10
7.426144736842105
 20
6.959802631578948
 10
7.426144736842105
 20
7.7865
  0
LWPOLYLINE
  5
16C
330
17
100
AcDbEntity
  8
A-WALL
100
AcDbPolyline
 90
39
 70
1
 10
8.295236842105263
 20
7.807697368421053
 10
8.422421052631579
 20
7.800631578947369
 10
8.422421052631579
 20
7.313092105263158
 10
9.008881578947369
 20
7.306026315789474
 10
9.008881578947369
 20
5.207486842105263
 10
8.917026315789474
 20
5.2004210526315795
 10
8.924092105263158
 20
5.129763157894737
 10
8.90996052631579
 20
5.115631578947369
 10
8.895828947368422
 20
5.122697368421053
 10
8.902894736842105
 20
5.207486842105263
 10
8.697986842105264
 20
5.949394736842105
 10
8.584934210526317
 20
5.921131578947369
 10
8.45775
 20
5.8504736842105265
 10
8.259907894736843
 20
5.659697368421053
 10
8.15392105263158
 20
5.461855263157895
 10
8.10446052631579
 20
5.2004210526315795
 10
7.892486842105264
 20
5.2004210526315795
 10
7.892486842105264
 20
6.062447368421053
 10
7.419078947368422
 20
6.069513157894737
 10
7.419078947368422
 20
6.549986842105263
 10
7.43321052631579
 20
6.564118421052632
 10
7.539197368421053
 20
6.549986842105263
 10
7.539197368421053
 20
6.281486842105264
 10
7.447342105263158
 20
6.267355263157895
 10
7.454407894736843
 20
6.253223684210527
 10
7.758236842105264
 20
6.2390921052631585
 10
7.857157894736843
 20
6.30975
 10
7.885421052631579
 20
6.394539473684211
 10
7.871289473684211
 20
6.49346052631579
 10
7.821828947368422
 20
6.557052631578948
 10
7.772368421052632
 20
6.585315789473685
 10
7.419078947368422
 20
6.578250000000001
 10
7.419078947368422
 20
6.931539473684211
 10
7.871289473684211
 20
6.931539473684211
 10
7.9278157894736845
 20
6.9527368421052635
 10
8.01967105263158
 20
7.03046052631579
 10
8.28817105263158
 20
7.320157894736843
 10
8.295236842105263
 20
7.751171052631579
 10
8.281105263157896
 20
7.793565789473685
  0
LWPOLYLINE
  5
16D
330
17
100
AcDbEntity
  8
A-WALL
100
AcDbPolyline
 90
13
 70
1
 10
6.345078947368422
 20
7.807697368421053
 10
7.178842105263159
 20
7.807697368421053
 10
7.192973684210527
 20
7.793565789473685
 10
7.192973684210527
 20
5.143894736842106
 10
7.178842105263159
 20
5.129763157894737
 10
6.620644736842106
 20
5.143894736842106
 10
6.620644736842106
 20
7.228302631578948
 10
6.330947368421053
 20
7.242434210526317
 10
6.338013157894737
 20
7.447342105263158
 10
6.422802631578948
 20
7.461473684210527
 10
6.422802631578948
 20
7.475605263157895
 10
6.352144736842106
 20
7.468539473684211
 10
6.338013157894737
 20
7.48267105263158
  0
LWPOLYLINE
  5
16E
330
17
100
AcDbEntity
  8
A-WALL
100
AcDbPolyline
 90
7
 70
1
 10
5.4759868421052635
 20
7.793565789473685
 10
5.490118421052632
 20
7.807697368421053
 10
6.316815789473685
 20
7.807697368421053
 10
6.330947368421053
 20
7.793565789473685
 10
6.330947368421053
 20
7.263631578947369
 10
6.316815789473685
 20
7.2495
 10
5.490118421052632
 20
7.256565789473685
  0
LWPOLYLINE
  5
16F
330
17
100
AcDbEntity
  8
A-WALL
100
AcDbPolyline
 90
16
 70
1
 10
5.193355263157895
 20
7.807697368421053
 10
5.454789473684211
 20
7.807697368421053
 10
5.468921052631579
 20
7.793565789473685
 10
5.468921052631579
 20
7.48267105263158
 10
5.454789473684211
 20
7.468539473684211
 10
5.37
 20
7.475605263157895
 10
5.37
 20
7.454407894736843
 10
5.454789473684211
 20
7.461473684210527
 10
5.468921052631579
 20
7.447342105263158
 10
5.461855263157895
 20
7.235368421052632
 10
5.186289473684211
 20
7.242434210526317
 10
5.179223684210527
 20
7.4402763157894745
 10
5.271078947368421
 20
7.461473684210527
 10
5.271078947368421
 20
7.475605263157895
 10
5.179223684210527
 20
7.4897368421052635
 10
5.179223684210527
 20
7.793565789473685
  0
LWPOLYLINE
  5
170
330
17
100
AcDbEntity
  8
A-WALL
100
AcDbPolyline
 90
6
 70
1
 10
4.606894736842106
 20
7.800631578947369
 10
5.165092105263159
 20
7.807697368421053
 10
5.172157894736842
 20
7.2495
 10
5.158026315789474
 20
7.235368421052632
 10
4.621026315789474
 20
7.235368421052632
 10
4.606894736842106
 20
7.2495
  0
LWPOLYLINE
  5
171
330
17
100
AcDbEntity
  8
A-WALL
100
AcDbPolyline
 90
8
 70
1
 10
4.175881578947369
 20
7.807697368421053
 10
4.585697368421053
 20
7.807697368421053
 10
4.5998289473684215
 20
7.793565789473685
 10
4.585697368421053
 20
7.235368421052632
 10
4.182947368421053
 20
7.235368421052632
 10
4.168815789473684
 20
7.2495
 10
4.175881578947369
 20
7.744105263157896
 10
4.1617500000000005
 20
7.793565789473685
  0
LWPOLYLINE
  5
172
330
17
100
AcDbEntity
  8
A-WALL
100
AcDbPolyline
 90
75
 70
1
 10
2.070276315789474
 20
7.800631578947369
 10
4.154684210526316
 20
7.807697368421053
 10
4.1617500000000005
 20
7.221236842105264
 10
5.483052631578948
 20
7.221236842105264
 10
5.497184210526316
 20
7.235368421052632
 10
5.504250000000001
 20
7.221236842105264
 10
6.592381578947369
 20
7.221236842105264
 10
6.606513157894737
 20
7.207105263157895
 10
6.6135789473684214
 20
5.122697368421053
 10
8.118592105263158
 20
5.108565789473684
 10
8.160986842105263
 20
5.433592105263158
 10
8.28817105263158
 20
5.673828947368421
 10
8.408289473684212
 20
5.793947368421053
 10
8.521342105263159
 20
5.871671052631579
 10
8.683855263157895
 20
5.935263157894737
 10
8.881697368421053
 20
5.221618421052632
 10
8.881697368421053
 20
5.115631578947369
 10
9.09367105263158
 20
5.108565789473684
 10
9.100736842105263
 20
6.246157894736842
 10
10.662276315789475
 20
6.2390921052631585
 10
10.662276315789475
 20
4.875394736842106
 10
10.641078947368422
 20
4.854197368421053
 10
10.542157894736842
 20
4.854197368421053
 10
10.38671052631579
 20
4.8118026315789475
 10
10.188868421052632
 20
4.69875
 10
10.089947368421054
 20
4.606894736842106
 10
9.991026315789474
 20
4.472644736842105
 10
9.920368421052633
 20
4.317197368421053
 10
9.920368421052633
 20
4.274802631578948
 10
10.648144736842106
 20
4.084026315789474
 10
10.669342105263159
 20
3.956842105263158
 10
10.65521052631579
 20
3.9427105263157896
 10
8.217513157894738
 20
3.949776315789474
 10
8.189250000000001
 20
3.6742105263157896
 10
8.097394736842105
 20
3.455171052631579
 10
7.920750000000001
 20
3.2573289473684213
 10
7.673447368421053
 20
3.123078947368421
 10
7.638118421052632
 20
3.1372105263157897
 10
7.623986842105264
 20
3.2431973684210527
 10
7.454407894736843
 20
3.8437894736842106
 10
7.454407894736843
 20
3.9427105263157896
 10
7.136447368421053
 20
3.949776315789474
 10
7.136447368421053
 20
3.5611578947368425
 10
7.122315789473685
 20
3.547026315789474
 10
6.698368421052632
 20
3.554092105263158
 10
6.698368421052632
 20
1.6887236842105264
 10
7.122315789473685
 20
1.6887236842105264
 10
7.136447368421053
 20
1.674592105263158
 10
7.129381578947369
 20
1.2789078947368422
 10
5.652631578947369
 20
1.2859736842105265
 10
5.645565789473685
 20
2.1197368421052634
 10
5.525447368421053
 20
2.1268026315789474
 10
5.511315789473684
 20
2.1621315789473687
 10
3.62475
 20
2.1621315789473687
 10
3.610618421052632
 20
2.1268026315789474
 10
3.4905000000000004
 20
2.1126710526315793
 10
3.483434210526316
 20
1.2859736842105265
 10
2.084407894736842
 20
1.2789078947368422
 10
2.070276315789474
 20
1.2930394736842106
 10
2.084407894736842
 20
1.5474078947368421
 10
2.077342105263158
 20
3.186671052631579
 10
1.978421052631579
 20
3.207868421052632
 10
1.5332763157894738
 20
3.978039473684211
 10
1.540342105263158
 20
3.9992368421052635
 10
1.7028552631578948
 20
4.069894736842105
 10
1.844171052631579
 20
4.105223684210527
 10
1.9854868421052634
 20
4.112289473684211
 10
1.9854868421052634
 20
4.12642105263158
 10
1.8583026315789475
 20
4.12642105263158
 10
1.674592105263158
 20
4.175881578947369
 10
1.5474078947368421
 20
4.232407894736842
 10
1.5332763157894738
 20
4.260671052631579
 10
1.9996184210526318
 20
5.044973684210527
 10
2.077342105263158
 20
5.044973684210527
 10
2.084407894736842
 20
7.532131578947369
  0
LWPOLYLINE
  5
173
330
17
100
AcDbEntity
  8
A-WALL
100
AcDbPolyline
 90
8
 70
1
 10
8.429486842105264
 20
7.843026315789475
 10
8.45775
 20
7.857157894736843
 10
9.037144736842105
 20
7.857157894736843
 10
9.058342105263158
 20
7.83596052631579
 10
9.058342105263158
 20
7.793565789473685
 10
9.04421052631579
 20
7.772368421052632
 10
8.987684210526316
 20
7.828894736842106
 10
8.464815789473684
 20
7.828894736842106
  0
LWPOLYLINE
  5
174
330
17
100
AcDbEntity
  8
A-WALL
100
AcDbPolyline
 90
13
 70
1
 10
8.266973684210527
 20
7.850092105263158
 10
8.266973684210527
 20
7.83596052631579
 10
7.871289473684211
 20
7.828894736842106
 10
7.461473684210527
 20
7.83596052631579
 10
7.397881578947369
 20
7.793565789473685
 10
7.390815789473685
 20
5.23575
 10
7.404947368421054
 20
5.2004210526315795
 10
7.454407894736843
 20
5.165092105263159
 10
7.4402763157894745
 20
5.15096052631579
 10
7.242434210526317
 20
5.15096052631579
 10
7.228302631578948
 20
5.165092105263159
 10
7.228302631578948
 20
7.7865
 10
7.178842105263159
 20
7.850092105263158
  0
LWPOLYLINE
  5
175
330
17
100
AcDbEntity
  8
A-WALL
100
AcDbPolyline
 90
4
 70
1
 10
2.070276315789474
 20
7.857157894736843
 10
2.077342105263158
 20
7.843026315789475
 10
2.0349473684210526
 20
7.800631578947369
 10
2.0278815789473685
 20
7.843026315789475
  0
TEXT
  5
176
330
17
100
AcDbEntity
  8
A-ANNO
100
AcDbText
 10
0.0
 20
-1.0
 30
0.0
 40
0.3
  1
ArchVec v11 | Ref: 5.37m | Scale: 1px = 7.07mm
 11
0.0
 21
-1.0
 31
0.0
100
AcDbText
  0
ENDSEC
  0
SECTION
  2
OBJECTS
  0
DICTIONARY
  5
A
330
0
100
AcDbDictionary
281
1
  3
ACAD_COLOR
350
B
  3
ACAD_GROUP
350
C
  3
ACAD_LAYOUT
350
D
  3
ACAD_MATERIAL
350
E
  3
ACAD_MLEADERSTYLE
350
F
  3
ACAD_MLINESTYLE
350
10
  3
ACAD_PLOTSETTINGS
350
11
  3
ACAD_PLOTSTYLENAME
350
12
  3
ACAD_SCALELIST
350
14
  3
ACAD_TABLESTYLE
350
15
  3
ACAD_VISUALSTYLE
350
16
  3
EZDXF_META
350
2D
  0
DICTIONARY
  5
B
330
A
100
AcDbDictionary
281
1
  0
DICTIONARY
  5
C
330
A
100
AcDbDictionary
281
1
  0
DICTIONARY
  5
D
330
A
100
AcDbDictionary
281
1
  3
Model
350
1A
  3
Layout1
350
1E
  0
DICTIONARY
  5
E
330
A
100
AcDbDictionary
281
1
  3
ByBlock
350
1F
  3
ByLayer
350
20
  3
Global
350
21
  0
DICTIONARY
  5
F
330
A
100
AcDbDictionary
281
1
  3
Standard
350
2C
  0
DICTIONARY
  5
10
330
A
100
AcDbDictionary
281
1
  3
Standard
350
22
  0
DICTIONARY
  5
11
330
A
100
AcDbDictionary
281
1
  0
ACDBDICTIONARYWDFLT
  5
12
330
A
100
AcDbDictionary
281
1
  3
Normal
350
13
100
AcDbDictionaryWithDefault
340
13
  0
ACDBPLACEHOLDER
  5
13
330
12
  0
DICTIONARY
  5
14
330
A
100
AcDbDictionary
281
1
  0
DICTIONARY
  5
15
330
A
100
AcDbDictionary
281
1
  0
DICTIONARY
  5
16
330
A
100
AcDbDictionary
281
1
  0
LAYOUT
  5
1A
330
D
100
AcDbPlotSettings
  1

  4
A3
  6

 40
7.5
 41
20.0
 42
7.5
 43
20.0
 44
420.0
 45
297.0
 46
0.0
 47
0.0
 48
0.0
 49
0.0
140
0.0
141
0.0
142
1.0
143
1.0
 70
1024
 72
1
 73
0
 74
5
  7

 75
16
 76
0
 77
2
 78
300
147
1.0
148
0.0
149
0.0
100
AcDbLayout
  1
Model
 70
1
 71
0
 10
0.0
 20
0.0
 11
420.0
 21
297.0
 12
0.0
 22
0.0
 32
0.0
 14
1e+20
 24
1e+20
 34
1e+20
 15
-1e+20
 25
-1e+20
 35
-1e+20
146
0.0
 13
0.0
 23
0.0
 33
0.0
 16
1.0
 26
0.0
 36
0.0
 17
0.0
 27
1.0
 37
0.0
 76
1
330
17
  0
LAYOUT
  5
1E
330
D
100
AcDbPlotSettings
  1

  4
A3
  6

 40
7.5
 41
20.0
 42
7.5
 43
20.0
 44
420.0
 45
297.0
 46
0.0
 47
0.0
 48
0.0
 49
0.0
140
0.0
141
0.0
142
1.0
143
1.0
 70
0
 72
1
 73
0
 74
5
  7

 75
16
 76
0
 77
2
 78
300
147
1.0
148
0.0
149
0.0
100
AcDbLayout
  1
Layout1
 70
1
 71
1
 10
0.0
 20
0.0
 11
420.0
 21
297.0
 12
0.0
 22
0.0
 32
0.0
 14
1e+20
 24
1e+20
 34
1e+20
 15
-1e+20
 25
-1e+20
 35
-1e+20
146
0.0
 13
0.0
 23
0.0
 33
0.0
 16
1.0
 26
0.0
 36
0.0
 17
0.0
 27
1.0
 37
0.0
 76
1
330
1B
  0
MATERIAL
  5
1F
102
{ACAD_REACTORS
330
E
102
}
330
E
100
AcDbMaterial
  1
ByBlock
  2

 70
0
 40
1.0
 71
1
 41
1.0
 91
-1023410177
 42
1.0
 72
1
  3

 73
1
 74
1
 75
1
 44
0.5
 73
0
 45
1.0
 46
1.0
 77
1
  4

 78
1
 79
1
170
1
 48
1.0
171
1
  6

172
1
173
1
174
1
140
1.0
141
1.0
175
1
  7

176
1
177
1
178
1
143
1.0
179
1
  8

270
1
271
1
272
1
145
1.0
146
1.0
273
1
  9

274
1
275
1
276
1
 42
1.0
 72
1
  3

 73
1
 74
1
 75
1
 94
63
  0
MATERIAL
  5
20
102
{ACAD_REACTORS
330
E
102
}
330
E
100
AcDbMaterial
  1
ByLayer
  2

 70
0
 40
1.0
 71
1
 41
1.0
 91
-1023410177
 42
1.0
 72
1
  3

 73
1
 74
1
 75
1
 44
0.5
 73
0
 45
1.0
 46
1.0
 77
1
  4

 78
1
 79
1
170
1
 48
1.0
171
1
  6

172
1
173
1
174
1
140
1.0
141
1.0
175
1
  7

176
1
177
1
178
1
143
1.0
179
1
  8

270
1
271
1
272
1
145
1.0
146
1.0
273
1
  9

274
1
275
1
276
1
 42
1.0
 72
1
  3

 73
1
 74
1
 75
1
 94
63
  0
MATERIAL
  5
21
102
{ACAD_REACTORS
330
E
102
}
330
E
100
AcDbMaterial
  1
Global
  2

 70
0
 40
1.0
 71
1
 41
1.0
 91
-1023410177
 42
1.0
 72
1
  3

 73
1
 74
1
 75
1
 44
0.5
 73
0
 45
1.0
 46
1.0
 77
1
  4

 78
1
 79
1
170
1
 48
1.0
171
1
  6

172
1
173
1
174
1
140
1.0
141
1.0
175
1
  7

176
1
177
1
178
1
143
1.0
179
1
  8

270
1
271
1
272
1
145
1.0
146
1.0
273
1
  9

274
1
275
1
276
1
 42
1.0
 72
1
  3

 73
1
 74
1
 75
1
 94
63
  0
MLINESTYLE
  5
22
102
{ACAD_REACTORS
330
10
102
}
330
10
100
AcDbMlineStyle
  2
Standard
 70
0
  3

 62
256
 51
90.0
 52
90.0
 71
2
 49
0.5
 62
256
  6
BYLAYER
 49
-0.5
 62
256
  6
BYLAYER
  0
MLEADERSTYLE
  5
2C
102
{ACAD_REACTORS
330
F
102
}
330
F
100
AcDbMLeaderStyle
179
2
170
2
171
1
172
0
 90
2
 40
0.0
 41
0.0
173
1
 91
-1056964608
 92
-2
290
1
 42
2.0
291
1
 43
8.0
  3
Standard
 44
4.0
300

342
29
174
1
175
1
176
0
178
1
 93
-1056964608
 45
4.0
292
0
297
0
 46
4.0
 94
-1056964608
 47
1.0
 49
1.0
140
1.0
294
1
141
0.0
177
0
142
1.0
295
0
296
0
143
3.75
271
0
272
9
273
9
  0
DICTIONARY
  5
2D
330
A
100
AcDbDictionary
280
1
281
1
  3
CREATED_BY_EZDXF
350
2E
  3
WRITTEN_BY_EZDXF
350
179
  0
DICTIONARYVAR
  5
2E
330
2D
100
DictionaryVariables
280
0
  1
1.4.4 @ 2026-08-23T13:16:34.756391+00:00
  0
DICTIONARYVAR
  5
179
330
2D
100
DictionaryVariables
280
0
  1
1.4.4 @ 2026-08-23T13:16:34.764739+00:00
  0
ENDSEC
  0
EOF
