  0
SECTION
  2
HEADER
  9
$ACADVER
  1
AC1024
  9
$ACADMAINTVER
 70
6
  9
$DWGCODEPAGE
  3
ANSI_1252
  9
$LASTSAVEDBY
  1
ezdxf
  9
$INSBASE
 10
0.0
 20
0.0
 30
0.0
  9
$EXTMIN
 10
1e+20
 20
1e+20
 30
1e+20
  9
$EXTMAX
 10
-1e+20
 20
-1e+20
 30
-1e+20
  9
$LIMMIN
 10
0.0
 20
0.0
  9
$LIMMAX
 10
420.0
 20
297.0
  9
$ORTHOMODE
 70
0
  9
$REGENMODE
 70
1
  9
$FILLMODE
 70
1
  9
$QTEXTMODE
 70
0
  9
$MIRRTEXT
 70
1
  9
$LTSCALE
 40
1.0
  9
$ATTMODE
 70
1
  9
$TEXTSIZE
 40
2.5
  9
$TRACEWID
 40
1.0
  9
$TEXTSTYLE
  7
Standard
  9
$CLAYER
  8
0
  9
$CELTYPE
  6
ByLayer
  9
$CECOLOR
 62
256
  9
$CELTSCALE
 40
1.0
  9
$DISPSILH
 70
0
  9
$DIMSCALE
 40
1.0
  9
$DIMASZ
 40
2.5
  9
$DIMEXO
 40
0.625
  9
$DIMDLI
 40
3.75
  9
$DIMRND
 40
0.0
  9
$DIMDLE
 40
0.0
  9
$DIMEXE
 40
1.25
  9
$DIMTP
 40
0.0
  9
$DIMTM
 40
0.0
  9
$DIMTXT
 40
2.5
  9
$DIMCEN
 40
2.5
  9
$DIMTSZ
 40
0.0
  9
$DIMTOL
 70
0
  9
$DIMLIM
 70
0
  9
$DIMTIH
 70
0
  9
$DIMTOH
 70
0
  9
$DIMSE1
 70
0
  9
$DIMSE2
 70
0
  9
$DIMTAD
 70
1
  9
$DIMZIN
 70
8
  9
$DIMBLK
  1

  9
$DIMASO
 70
1
  9
$DIMSHO
 70
1
  9
$DIMPOST
  1

  9
$DIMAPOST
  1

  9
$DIMALT
 70
0
  9
$DIMALTD
 70
3
  9
$DIMALTF
 40
0.03937007874
  9
$DIMLFAC
 40
1.0
  9
$DIMTOFL
 70
1
  9
$DIMTVP
 40
0.0
  9
$DIMTIX
 70
0
  9
$DIMSOXD
 70
0
  9
$DIMSAH
 70
0
  9
$DIMBLK1
  1

  9
$DIMBLK2
  1

  9
$DIMSTYLE
  2
ISO-25
  9
$DIMCLRD
 70
0
  9
$DIMCLRE
 70
0
  9
$DIMCLRT
 70
0
  9
$DIMTFAC
 40
1.0
  9
$DIMGAP
 40
0.625
  9
$DIMJUST
 70
0
  9
$DIMSD1
 70
0
  9
$DIMSD2
 70
0
  9
$DIMTOLJ
 70
0
  9
$DIMTZIN
 70
8
  9
$DIMALTZ
 70
0
  9
$DIMALTTZ
 70
0
  9
$DIMUPT
 70
0
  9
$DIMDEC
 70
2
  9
$DIMTDEC
 70
2
  9
$DIMALTU
 70
2
  9
$DIMALTTD
 70
3
  9
$DIMTXSTY
  7
Standard
  9
$DIMAUNIT
 70
0
  9
$DIMADEC
 70
0
  9
$DIMALTRND
 40
0.0
  9
$DIMAZIN
 70
0
  9
$DIMDSEP
 70
44
  9
$DIMATFIT
 70
3
  9
$DIMFRAC
 70
0
  9
$DIMLDRBLK
  1

  9
$DIMLUNIT
 70
2
  9
$DIMLWD
 70
-2
  9
$DIMLWE
 70
-2
  9
$DIMTMOVE
 70
0
  9
$DIMFXL
 40
1.0
  9
$DIMFXLON
 70
0
  9
$DIMJOGANG
 40
0.785398163397
  9
$DIMTFILL
 70
0
  9
$DIMTFILLCLR
 70
0
  9
$DIMARCSYM
 70
0
  9
$DIMLTYPE
  6

  9
$DIMLTEX1
  6

  9
$DIMLTEX2
  6

  9
$DIMTXTDIRECTION
 70
0
  9
$LUNITS
 70
2
  9
$LUPREC
 70
4
  9
$SKETCHINC
 40
1.0
  9
$FILLETRAD
 40
10.0
  9
$AUNITS
 70
0
  9
$AUPREC
 70
2
  9
$MENU
  1
.
  9
$ELEVATION
 40
0.0
  9
$PELEVATION
 40
0.0
  9
$THICKNESS
 40
0.0
  9
$LIMCHECK
 70
0
  9
$CHAMFERA
 40
0.0
  9
$CHAMFERB
 40
0.0
  9
$CHAMFERC
 40
0.0
  9
$CHAMFERD
 40
0.0
  9
$SKPOLY
 70
0
  9
$TDCREATE
 40
2461276.6968055554
  9
$TDUCREATE
 40
2458532.153996898
  9
$TDUPDATE
 40
2461276.6968055554
  9
$TDUUPDATE
 40
2458532.1544311
  9
$TDINDWG
 40
0.0
  9
$TDUSRTIMER
 40
0.0
  9
$USRTIMER
 70
1
  9
$ANGBASE
 50
0.0
  9
$ANGDIR
 70
0
  9
$PDMODE
 70
0
  9
$PDSIZE
 40
0.0
  9
$PLINEWID
 40
0.0
  9
$SPLFRAME
 70
0
  9
$SPLINETYPE
 70
6
  9
$SPLINESEGS
 70
8
  9
$HANDSEED
  5
174
  9
$SURFTAB1
 70
6
  9
$SURFTAB2
 70
6
  9
$SURFTYPE
 70
6
  9
$SURFU
 70
6
  9
$SURFV
 70
6
  9
$UCSBASE
  2

  9
$UCSNAME
  2

  9
$UCSORG
 10
0.0
 20
0.0
 30
0.0
  9
$UCSXDIR
 10
1.0
 20
0.0
 30
0.0
  9
$UCSYDIR
 10
0.0
 20
1.0
 30
0.0
  9
$UCSORTHOREF
  2

  9
$UCSORTHOVIEW
 70
0
  9
$UCSORGTOP
 10
0.0
 20
0.0
 30
0.0
  9
$UCSORGBOTTOM
 10
0.0
 20
0.0
 30
0.0
  9
$UCSORGLEFT
 10
0.0
 20
0.0
 30
0.0
  9
$UCSORGRIGHT
 10
0.0
 20
0.0
 30
0.0
  9
$UCSORGFRONT
 10
0.0
 20
0.0
 30
0.0
  9
$UCSORGBACK
 10
0.0
 20
0.0
 30
0.0
  9
$PUCSBASE
  2

  9
$PUCSNAME
  2

  9
$PUCSORG
 10
0.0
 20
0.0
 30
0.0
  9
$PUCSXDIR
 10
1.0
 20
0.0
 30
0.0
  9
$PUCSYDIR
 10
0.0
 20
1.0
 30
0.0
  9
$PUCSORTHOREF
  2

  9
$PUCSORTHOVIEW
 70
0
  9
$PUCSORGTOP
 10
0.0
 20
0.0
 30
0.0
  9
$PUCSORGBOTTOM
 10
0.0
 20
0.0
 30
0.0
  9
$PUCSORGLEFT
 10
0.0
 20
0.0
 30
0.0
  9
$PUCSORGRIGHT
 10
0.0
 20
0.0
 30
0.0
  9
$PUCSORGFRONT
 10
0.0
 20
0.0
 30
0.0
  9
$PUCSORGBACK
 10
0.0
 20
0.0
 30
0.0
  9
$USERI1
 70
0
  9
$USERI2
 70
0
  9
$USERI3
 70
0
  9
$USERI4
 70
0
  9
$USERI5
 70
0
  9
$USERR1
 40
0.0
  9
$USERR2
 40
0.0
  9
$USERR3
 40
0.0
  9
$USERR4
 40
0.0
  9
$USERR5
 40
0.0
  9
$WORLDVIEW
 70
1
  9
$SHADEDGE
 70
3
  9
$SHADEDIF
 70
70
  9
$TILEMODE
 70
1
  9
$MAXACTVP
 70
64
  9
$PINSBASE
 10
0.0
 20
0.0
 30
0.0
  9
$PLIMCHECK
 70
0
  9
$PEXTMIN
 10
1e+20
 20
1e+20
 30
1e+20
  9
$PEXTMAX
 10
-1e+20
 20
-1e+20
 30
-1e+20
  9
$PLIMMIN
 10
0.0
 20
0.0
  9
$PLIMMAX
 10
420.0
 20
297.0
  9
$UNITMODE
 70
0
  9
$VISRETAIN
 70
1
  9
$PLINEGEN
 70
0
  9
$PSLTSCALE
 70
1
  9
$TREEDEPTH
 70
3020
  9
$CMLSTYLE
  2
Standard
  9
$CMLJUST
 70
0
  9
$CMLSCALE
 40
20.0
  9
$PROXYGRAPHICS
 70
1
  9
$MEASUREMENT
 70
1
  9
$CELWEIGHT
370
-1
  9
$ENDCAPS
280
0
  9
$JOINSTYLE
280
0
  9
$LWDISPLAY
290
0
  9
$INSUNITS
 70
6
  9
$HYPERLINKBASE
  1

  9
$STYLESHEET
  1

  9
$XEDIT
290
1
  9
$CEPSNTYPE
380
0
  9
$PSTYLEMODE
290
1
  9
$FINGERPRINTGUID
  2
{2128D680-EDEF-4B33-A3CB-F30041384FEA}
  9
$VERSIONGUID
  2
{A18C1475-C6A1-4E28-A025-B5E65C85ACC1}
  9
$EXTNAMES
290
1
  9
$PSVPSCALE
 40
0.0
  9
$OLESTARTUP
290
0
  9
$SORTENTS
280
127
  9
$INDEXCTL
280
0
  9
$HIDETEXT
280
1
  9
$XCLIPFRAME
280
1
  9
$HALOGAP
280
0
  9
$OBSCOLOR
 70
257
  9
$OBSLTYPE
280
0
  9
$INTERSECTIONDISPLAY
280
0
  9
$INTERSECTIONCOLOR
 70
257
  9
$DIMASSOC
280
2
  9
$PROJECTNAME
  1

  9
$CAMERADISPLAY
290
0
  9
$LENSLENGTH
 40
50.0
  9
$CAMERAHEIGHT
 40
0.0
  9
$STEPSPERSEC
 40
24.0
  9
$STEPSIZE
 40
100.0
  9
$3DDWFPREC
 40
2.0
  9
$PSOLWIDTH
 40
0.005
  9
$PSOLHEIGHT
 40
0.08
  9
$LOFTANG1
 40
1.570796326795
  9
$LOFTANG2
 40
1.570796326795
  9
$LOFTMAG1
 40
0.0
  9
$LOFTMAG2
 40
0.0
  9
$LOFTPARAM
 70
7
  9
$LOFTNORMALS
280
1
  9
$LATITUDE
 40
37.795
  9
$LONGITUDE
 40
-122.394
  9
$NORTHDIRECTION
 40
0.0
  9
$TIMEZONE
 70
-8000
  9
$LIGHTGLYPHDISPLAY
280
1
  9
$TILEMODELIGHTSYNCH
280
1
  9
$CMATERIAL
347
20
  9
$SOLIDHIST
280
0
  9
$SHOWHIST
280
1
  9
$DWFFRAME
280
2
  9
$DGNFRAME
280
2
  9
$REALWORLDSCALE
290
1
  9
$INTERFERECOLOR
 62
256
  9
$CSHADOW
280
0
  9
$SHADOWPLANELOCATION
 40
0.0
  0
ENDSEC
  0
SECTION
  2
CLASSES
  0
CLASS
  1
ACDBDICTIONARYWDFLT
  2
AcDbDictionaryWithDefault
  3
ObjectDBX Classes
 90
0
 91
0
280
0
281
0
  0
CLASS
  1
SUN
  2
AcDbSun
  3
SCENEOE
 90
1153
 91
0
280
0
281
0
  0
CLASS
  1
VISUALSTYLE
  2
AcDbVisualStyle
  3
ObjectDBX Classes
 90
4095
 91
0
280
0
281
0
  0
CLASS
  1
MATERIAL
  2
AcDbMaterial
  3
ObjectDBX Classes
 90
1153
 91
0
280
0
281
0
  0
CLASS
  1
SCALE
  2
AcDbScale
  3
ObjectDBX Classes
 90
1153
 91
0
280
0
281
0
  0
CLASS
  1
TABLESTYLE
  2
AcDbTableStyle
  3
ObjectDBX Classes
 90
4095
 91
0
280
0
281
0
  0
CLASS
  1
MLEADERSTYLE
  2
AcDbMLeaderStyle
  3
ACDB_MLEADERSTYLE_CLASS
 90
4095
 91
0
280
0
281
0
  0
CLASS
  1
DICTIONARYVAR
  2
AcDbDictionaryVar
  3
ObjectDBX Classes
 90
0
 91
0
280
0
281
0
  0
CLASS
  1
CELLSTYLEMAP
  2
AcDbCellStyleMap
  3
ObjectDBX Classes
 90
1152
 91
0
280
0
281
0
  0
CLASS
  1
MENTALRAYRENDERSETTINGS
  2
AcDbMentalRayRenderSettings
  3
SCENEOE
 90
1024
 91
0
280
0
281
0
  0
CLASS
  1
ACDBDETAILVIEWSTYLE
  2
AcDbDetailViewStyle
  3
ObjectDBX Classes
 90
1025
 91
0
280
0
281
0
  0
CLASS
  1
ACDBSECTIONVIEWSTYLE
  2
AcDbSectionViewStyle
  3
ObjectDBX Classes
 90
1025
 91
0
280
0
281
0
  0
CLASS
  1
RASTERVARIABLES
  2
AcDbRasterVariables
  3
ISM
 90
0
 91
0
280
0
281
0
  0
CLASS
  1
LAYOUT
  2
AcDbLayout
  3
ObjectDBX Classes
 90
0
 91
0
280
0
281
0
  0
CLASS
  1
ACDBPLACEHOLDER
  2
AcDbPlaceHolder
  3
ObjectDBX Classes
 90
0
 91
0
280
0
281
0
  0
ENDSEC
  0
SECTION
  2
TABLES
  0
TABLE
  2
VPORT
  5
8
330
0
100
AcDbSymbolTable
 70
1
  0
VPORT
  5
23
330
8
100
AcDbSymbolTableRecord
100
AcDbViewportTableRecord
  2
*Active
 70
0
 10
0.0
 20
0.0
 11
1.0
 21
1.0
 12
0.0
 22
0.0
 13
0.0
 23
0.0
 14
0.5
 24
0.5
 15
0.5
 25
0.5
 16
0.0
 26
0.0
 36
1.0
 17
0.0
 27
0.0
 37
0.0
 40
1000.0
 41
1.34
 42
50.0
 43
0.0
 44
0.0
 50
0.0
 51
0.0
 71
0
 72
1000
 73
1
 74
3
 75
0
 76
0
 77
0
 78
0
281
0
 65
0
146
0.0
  0
ENDTAB
  0
TABLE
  2
LTYPE
  5
2
330
0
100
AcDbSymbolTable
 70
3
  0
LTYPE
  5
24
330
2
100
AcDbSymbolTableRecord
100
AcDbLinetypeTableRecord
  2
ByBlock
 70
0
  3

 72
65
 73
0
 40
0.0
  0
LTYPE
  5
25
330
2
100
AcDbSymbolTableRecord
100
AcDbLinetypeTableRecord
  2
ByLayer
 70
0
  3

 72
65
 73
0
 40
0.0
  0
LTYPE
  5
26
330
2
100
AcDbSymbolTableRecord
100
AcDbLinetypeTableRecord
  2
Continuous
 70
0
  3

 72
65
 73
0
 40
0.0
  0
ENDTAB
  0
TABLE
  2
LAYER
  5
1
330
0
100
AcDbSymbolTable
 70
3
  0
LAYER
  5
27
330
1
100
AcDbSymbolTableRecord
100
AcDbLayerTableRecord
  2
0
 70
0
 62
7
  6
Continuous
370
-3
390
13
347
21
  0
LAYER
  5
28
330
1
100
AcDbSymbolTableRecord
100
AcDbLayerTableRecord
  2
Defpoints
 70
0
 62
7
  6
Continuous
290
0
370
-3
390
13
347
21
  0
LAYER
  5
2F
330
1
100
AcDbSymbolTableRecord
100
AcDbLayerTableRecord
  2
A-WALL
 70
0
 62
7
  6
Continuous
370
-3
390
13
347
21
  0
ENDTAB
  0
TABLE
  2
STYLE
  5
5
330
0
100
AcDbSymbolTable
 70
1
  0
STYLE
  5
29
330
5
100
AcDbSymbolTableRecord
100
AcDbTextStyleTableRecord
  2
Standard
 70
0
 40
0.0
 41
1.0
 50
0.0
 71
0
 42
2.5
  3
txt
  4

  0
ENDTAB
  0
TABLE
  2
VIEW
  5
7
330
0
100
AcDbSymbolTable
 70
0
  0
ENDTAB
  0
TABLE
  2
UCS
  5
6
330
0
100
AcDbSymbolTable
 70
0
  0
ENDTAB
  0
TABLE
  2
APPID
  5
3
330
0
100
AcDbSymbolTable
 70
3
  0
APPID
  5
2A
330
3
100
AcDbSymbolTableRecord
100
AcDbRegAppTableRecord
  2
ACAD
 70
0
  0
APPID
  5
171
330
3
100
AcDbSymbolTableRecord
100
AcDbRegAppTableRecord
  2
HATCHBACKGROUNDCOLOR
 70
0
  0
APPID
  5
172
330
3
100
AcDbSymbolTableRecord
100
AcDbRegAppTableRecord
  2
EZDXF
 70
0
  0
ENDTAB
  0
TABLE
  2
DIMSTYLE
  5
4
330
0
100
AcDbSymbolTable
 70
1
100
AcDbDimStyleTable
  0
DIMSTYLE
105
2B
330
4
100
AcDbSymbolTableRecord
100
AcDbDimStyleTableRecord
  2
Standard
 70
0
 40
1.0
 41
2.5
 42
0.625
 43
3.75
 44
1.25
 45
0.0
 46
0.0
 47
0.0
 48
0.0
 49
2.5
140
2.5
141
2.5
142
0.0
143
0.03937007874
144
1.0
145
0.0
146
1.0
147
0.625
148
0.0
 69
0
 70
0
 71
0
 72
0
 73
0
 74
0
 75
0
 76
0
 77
1
 78
8
 79
3
170
0
171
3
172
1
173
0
174
0
175
0
176
0
177
0
178
0
179
2
271
2
272
2
273
2
274
3
275
0
276
0
277
2
278
44
279
0
280
0
281
0
282
0
283
0
284
8
285
0
286
0
288
0
289
3
290
0
371
-2
372
-2
  0
ENDTAB
  0
TABLE
  2
BLOCK_RECORD
  5
9
330
0
100
AcDbSymbolTable
 70
2
  0
BLOCK_RECORD
  5
17
330
9
100
AcDbSymbolTableRecord
100
AcDbBlockTableRecord
  2
*Model_Space
340
1A
 70
0
280
1
281
0
  0
BLOCK_RECORD
  5
1B
330
9
100
AcDbSymbolTableRecord
100
AcDbBlockTableRecord
  2
*Paper_Space
340
1E
 70
0
280
1
281
0
  0
ENDTAB
  0
ENDSEC
  0
SECTION
  2
BLOCKS
  0
BLOCK
  5
18
330
17
100
AcDbEntity
  8
0
100
AcDbBlockBegin
  2
*Model_Space
 70
0
 10
0.0
 20
0.0
 30
0.0
  3
*Model_Space
  1

  0
ENDBLK
  5
19
330
17
100
AcDbEntity
  8
0
100
AcDbBlockEnd
  0
BLOCK
  5
1C
330
1B
100
AcDbEntity
  8
0
100
AcDbBlockBegin
  2
*Paper_Space
 70
0
 10
0.0
 20
0.0
 30
0.0
  3
*Paper_Space
  1

  0
ENDBLK
  5
1D
330
1B
100
AcDbEntity
  8
0
100
AcDbBlockEnd
  0
ENDSEC
  0
SECTION
  2
ENTITIES
  0
LWPOLYLINE
  5
30
330
17
100
AcDbEntity
  8
A-WALL
100
AcDbPolyline
 90
4
 70
1
 10
5.9604188481675395
 20
0.35143979057591623
 10
5.967447643979058
 20
0.33035340314136125
 10
6.108023560209424
 20
0.33035340314136125
 10
6.100994764397906
 20
0.35143979057591623
  0
LWPOLYLINE
  5
31
330
17
100
AcDbEntity
  8
A-WALL
100
AcDbPolyline
 90
4
 70
1
 10
5.9604188481675395
 20
0.4076701570680628
 10
5.967447643979058
 20
0.3865837696335079
 10
6.108023560209424
 20
0.3865837696335079
 10
6.100994764397906
 20
0.4076701570680628
  0
LWPOLYLINE
  5
32
330
17
100
AcDbEntity
  8
A-WALL
100
AcDbPolyline
 90
17
 70
1
 10
6.621125654450262
 20
0.42172774869109947
 10
6.621125654450262
 20
0.2881806282722513
 10
6.642212041884817
 20
0.2881806282722513
 10
6.642212041884817
 20
0.3936125654450262
 10
6.663298429319372
 20
0.4076701570680628
 10
6.705471204188481
 20
0.3936125654450262
 10
6.705471204188481
 20
0.281151832460733
 10
6.7265575916230365
 20
0.29520942408376966
 10
6.719528795811518
 20
0.37955497382198955
 10
6.7476439790575915
 20
0.4076701570680628
 10
6.7827879581151835
 20
0.3936125654450262
 10
6.7827879581151835
 20
0.2881806282722513
 10
6.810903141361257
 20
0.29520942408376966
 10
6.810903141361257
 20
0.4076701570680628
 10
6.7827879581151835
 20
0.4287565445026178
 10
6.7265575916230365
 20
0.4076701570680628
 10
6.698442408376963
 20
0.4287565445026178
  0
LWPOLYLINE
  5
33
330
17
100
AcDbEntity
  8
A-WALL
100
AcDbPolyline
 90
9
 70
1
 10
6.853075916230367
 20
0.4779581151832461
 10
6.831989528795812
 20
0.4568717277486911
 10
6.860104712041885
 20
0.46390052356020944
 10
6.874162303664922
 20
0.4287565445026178
 10
6.831989528795812
 20
0.37955497382198955
 10
6.895248691099477
 20
0.3725261780104712
 10
6.860104712041885
 20
0.3936125654450262
 10
6.895248691099477
 20
0.4287565445026178
 10
6.895248691099477
 20
0.4568717277486911
  0
LWPOLYLINE
  5
34
330
17
100
AcDbEntity
  8
A-WALL
100
AcDbPolyline
 90
8
 70
1
 10
6.452434554973822
 20
0.48498691099476443
 10
6.396204188481676
 20
0.4568717277486911
 10
6.431348167539267
 20
0.4357853403141361
 10
6.431348167539267
 20
0.3092670157068063
 10
6.396204188481676
 20
0.302238219895288
 10
6.403232984293194
 20
0.281151832460733
 10
6.487578534031414
 20
0.2881806282722513
 10
6.452434554973822
 20
0.3092670157068063
  0
LWPOLYLINE
  5
35
330
17
100
AcDbEntity
  8
A-WALL
100
AcDbPolyline
 90
5
 70
1
 10
6.3470026178010475
 20
0.48498691099476443
 10
6.227513089005236
 20
0.48498691099476443
 10
6.3329450261780105
 20
0.4568717277486911
 10
6.255628272251309
 20
0.281151832460733
 10
6.3329450261780105
 20
0.4076701570680628
  0
LWPOLYLINE
  5
36
330
17
100
AcDbEntity
  8
A-WALL
100
AcDbPolyline
 90
17
 70
1
 10
5.5668062827225135
 20
0.4779581151832461
 10
5.5668062827225135
 20
0.2881806282722513
 10
5.700353403141361
 20
0.2881806282722513
 10
5.735497382198953
 20
0.3444109947643979
 10
5.798756544502618
 20
0.3444109947643979
 10
5.819842931937173
 20
0.2881806282722513
 10
5.847958115183246
 20
0.2881806282722513
 10
5.770641361256545
 20
0.48498691099476443
 10
5.74955497382199
 20
0.4779581151832461
 10
5.686295811518325
 20
0.29520942408376966
 10
5.594921465968587
 20
0.302238219895288
 10
5.58086387434555
 20
0.3725261780104712
 10
5.672238219895288
 20
0.3865837696335079
 10
5.672238219895288
 20
0.40064136125654454
 10
5.594921465968587
 20
0.4076701570680628
 10
5.58086387434555
 20
0.4498429319371728
 10
5.679267015706807
 20
0.4779581151832461
  0
LWPOLYLINE
  5
37
330
17
100
AcDbEntity
  8
A-WALL
100
AcDbPolyline
 90
4
 70
1
 10
5.763612565445026
 20
0.44281413612565446
 10
5.784698952879581
 20
0.4287565445026178
 10
5.791727748691099
 20
0.35846858638743456
 10
5.735497382198953
 20
0.3654973821989529
  0
LWPOLYLINE
  5
38
330
17
100
AcDbEntity
  8
A-WALL
100
AcDbPolyline
 90
11
 70
1
 10
5.405143979057592
 20
0.48498691099476443
 10
5.405143979057592
 20
0.2881806282722513
 10
5.419201570680628
 20
0.2881806282722513
 10
5.426230366492146
 20
0.3654973821989529
 10
5.447316753926701
 20
0.3654973821989529
 10
5.5105759162303665
 20
0.2881806282722513
 10
5.53869109947644
 20
0.2881806282722513
 10
5.475431937172775
 20
0.3654973821989529
 10
5.5176047120418845
 20
0.41469895287958114
 10
5.5105759162303665
 20
0.4568717277486911
 10
5.475431937172775
 20
0.48498691099476443
  0
LWPOLYLINE
  5
39
330
17
100
AcDbEntity
  8
A-WALL
100
AcDbPolyline
 90
5
 70
1
 10
5.426230366492146
 20
0.46390052356020944
 10
5.468403141361256
 20
0.46390052356020944
 10
5.49651832460733
 20
0.4357853403141361
 10
5.468403141361256
 20
0.37955497382198955
 10
5.419201570680628
 20
0.3865837696335079
  0
LWPOLYLINE
  5
3A
330
17
100
AcDbEntity
  8
A-WALL
100
AcDbPolyline
 90
8
 70
1
 10
5.28565445026178
 20
0.48498691099476443
 10
5.215366492146597
 20
0.2881806282722513
 10
5.24348167539267
 20
0.29520942408376966
 10
5.264568062827225
 20
0.3444109947643979
 10
5.32782722513089
 20
0.3444109947643979
 10
5.348913612565445
 20
0.2881806282722513
 10
5.37
 20
0.2881806282722513
 10
5.320798429319372
 20
0.4568717277486911
  0
LWPOLYLINE
  5
3B
330
17
100
AcDbEntity
  8
A-WALL
100
AcDbPolyline
 90
4
 70
1
 10
5.292683246073299
 20
0.44281413612565446
 10
5.32782722513089
 20
0.37955497382198955
 10
5.320798429319372
 20
0.35846858638743456
 10
5.264568062827225
 20
0.3654973821989529
  0
LWPOLYLINE
  5
3C
330
17
100
AcDbEntity
  8
A-WALL
100
AcDbPolyline
 90
6
 70
1
 10
5.018560209424084
 20
0.48498691099476443
 10
5.018560209424084
 20
0.2881806282722513
 10
5.1169633507853405
 20
0.281151832460733
 10
5.1239921465968585
 20
0.302238219895288
 10
5.03261780104712
 20
0.3162958115183246
 10
5.03261780104712
 20
0.4709293193717278
  0
LWPOLYLINE
  5
3D
330
17
100
AcDbEntity
  8
A-WALL
100
AcDbPolyline
 90
8
 70
1
 10
4.906099476439791
 20
0.48498691099476443
 10
4.835811518324608
 20
0.2881806282722513
 10
4.856897905759163
 20
0.2881806282722513
 10
4.885013089005236
 20
0.3444109947643979
 10
4.941243455497382
 20
0.3444109947643979
 10
4.962329842931937
 20
0.29520942408376966
 10
4.99044502617801
 20
0.2881806282722513
 10
4.941243455497382
 20
0.4498429319371728
  0
LWPOLYLINE
  5
3E
330
17
100
AcDbEntity
  8
A-WALL
100
AcDbPolyline
 90
4
 70
1
 10
4.906099476439791
 20
0.44281413612565446
 10
4.927185863874346
 20
0.4357853403141361
 10
4.934214659685864
 20
0.35846858638743456
 10
4.877984293193717
 20
0.3725261780104712
  0
LWPOLYLINE
  5
3F
330
17
100
AcDbEntity
  8
A-WALL
100
AcDbPolyline
 90
7
 70
1
 10
4.681178010471204
 20
0.4779581151832461
 10
4.681178010471204
 20
0.46390052356020944
 10
4.7444371727748695
 20
0.4568717277486911
 10
4.7444371727748695
 20
0.2881806282722513
 10
4.765523560209425
 20
0.2881806282722513
 10
4.765523560209425
 20
0.4568717277486911
 10
4.835811518324608
 20
0.4779581151832461
  0
LWPOLYLINE
  5
40
330
17
100
AcDbEntity
  8
A-WALL
100
AcDbPolyline
 90
8
 70
1
 10
4.554659685863874
 20
0.48498691099476443
 10
4.498429319371728
 20
0.42172774869109947
 10
4.498429319371728
 20
0.35143979057591623
 10
4.547630890052356
 20
0.2881806282722513
 10
4.610890052356021
 20
0.2881806282722513
 10
4.660091623036649
 20
0.3373821989528796
 10
4.667120418848167
 20
0.4076701570680628
 10
4.639005235602094
 20
0.46390052356020944
  0
LWPOLYLINE
  5
41
330
17
100
AcDbEntity
  8
A-WALL
100
AcDbPolyline
 90
8
 70
1
 10
4.561688481675393
 20
0.46390052356020944
 10
4.603861256544502
 20
0.46390052356020944
 10
4.646034031413612
 20
0.40064136125654454
 10
4.639005235602094
 20
0.3444109947643979
 10
4.603861256544502
 20
0.302238219895288
 10
4.561688481675393
 20
0.302238219895288
 10
4.519515706806283
 20
0.35846858638743456
 10
4.526544502617801
 20
0.4287565445026178
  0
LWPOLYLINE
  5
42
330
17
100
AcDbEntity
  8
A-WALL
100
AcDbPolyline
 90
8
 70
1
 10
4.329738219895288
 20
0.4779581151832461
 10
4.329738219895288
 20
0.46390052356020944
 10
4.400026178010472
 20
0.4568717277486911
 10
4.400026178010472
 20
0.29520942408376966
 10
4.40705497382199
 20
0.281151832460733
 10
4.421112565445026
 20
0.2881806282722513
 10
4.421112565445026
 20
0.4568717277486911
 10
4.484371727748691
 20
0.4779581151832461
  0
LWPOLYLINE
  5
43
330
17
100
AcDbEntity
  8
A-WALL
100
AcDbPolyline
 90
33
 70
1
 10
1.968062827225131
 20
0.8012827225130891
 10
2.010235602094241
 20
0.780196335078534
 10
2.010235602094241
 20
0.7520811518324607
 10
2.031321989528796
 20
0.7872251308900524
 10
7.120170157068063
 20
0.7872251308900524
 10
7.134227748691099
 20
0.7520811518324607
 10
7.1553141361256545
 20
0.7872251308900524
 10
10.634568062827226
 20
0.7872251308900524
 10
10.662683246073298
 20
0.7520811518324607
 10
10.683769633507854
 20
0.7942539267015707
 10
10.662683246073298
 20
0.8083115183246073
 10
10.662683246073298
 20
0.9348298429319372
 10
10.641596858638744
 20
0.9278010471204189
 10
10.641596858638744
 20
0.8153403141361256
 10
10.634568062827226
 20
0.8012827225130891
 10
8.715706806282723
 20
0.8012827225130891
 10
8.715706806282723
 20
0.864541884816754
 10
8.694620418848167
 20
0.8575130890052356
 10
8.694620418848167
 20
0.8012827225130891
 10
7.1553141361256545
 20
0.8012827225130891
 10
7.141256544502618
 20
0.8153403141361256
 10
7.141256544502618
 20
0.9348298429319372
 10
7.127198952879581
 20
0.9278010471204189
 10
7.127198952879581
 20
0.8153403141361256
 10
7.120170157068063
 20
0.8012827225130891
 10
4.392997382198953
 20
0.8012827225130891
 10
4.400026178010472
 20
0.864541884816754
 10
4.371910994764398
 20
0.8575130890052356
 10
4.385968586387435
 20
0.8293979057591623
 10
4.36488219895288
 20
0.8012827225130891
 10
2.031321989528796
 20
0.8012827225130891
 10
2.0172643979057594
 20
0.9348298429319372
 10
2.0172643979057594
 20
0.8083115183246073
  0
LWPOLYLINE
  5
44
330
17
100
AcDbEntity
  8
A-WALL
100
AcDbPolyline
 90
15
 70
1
 10
9.074175392670158
 20
0.9629450261780105
 10
9.074175392670158
 20
0.8504842931937173
 10
9.095261780104712
 20
0.8504842931937173
 10
9.095261780104712
 20
0.9278010471204189
 10
9.116348167539266
 20
0.9488874345549738
 10
9.14446335078534
 20
0.9348298429319372
 10
9.14446335078534
 20
0.8504842931937173
 10
9.165549738219896
 20
0.8504842931937173
 10
9.158520942408376
 20
0.9207722513089005
 10
9.18663612565445
 20
0.9488874345549738
 10
9.214751308900524
 20
0.9348298429319372
 10
9.214751308900524
 20
0.8504842931937173
 10
9.235837696335079
 20
0.8504842931937173
 10
9.235837696335079
 20
0.9348298429319372
 10
9.214751308900524
 20
0.9629450261780105
  0
LWPOLYLINE
  5
45
330
17
100
AcDbEntity
  8
A-WALL
100
AcDbPolyline
 90
15
 70
1
 10
4.751465968586388
 20
0.9488874345549738
 10
4.758494764397906
 20
0.8504842931937173
 10
4.772552356020943
 20
0.8504842931937173
 10
4.772552356020943
 20
0.9278010471204189
 10
4.793638743455498
 20
0.9488874345549738
 10
4.821753926701571
 20
0.9348298429319372
 10
4.821753926701571
 20
0.8504842931937173
 10
4.842840314136126
 20
0.8504842931937173
 10
4.842840314136126
 20
0.9278010471204189
 10
4.863926701570681
 20
0.9488874345549738
 10
4.892041884816754
 20
0.9348298429319372
 10
4.892041884816754
 20
0.8504842931937173
 10
4.913128272251309
 20
0.8504842931937173
 10
4.913128272251309
 20
0.9418586387434555
 10
4.892041884816754
 20
0.9629450261780105
  0
LWPOLYLINE
  5
46
330
17
100
AcDbEntity
  8
A-WALL
100
AcDbPolyline
 90
9
 70
1
 10
8.926570680628272
 20
1.0121465968586387
 10
8.884397905759162
 20
0.9770026178010471
 10
8.8984554973822
 20
0.9418586387434555
 10
8.884397905759162
 20
0.864541884816754
 10
8.947657068062828
 20
0.8434554973821989
 10
8.98280104712042
 20
0.8715706806282723
 10
8.98280104712042
 20
0.9137434554973822
 10
8.961714659685864
 20
0.9348298429319372
 10
8.9757722513089
 20
0.9840314136125655
  0
LWPOLYLINE
  5
47
330
17
100
AcDbEntity
  8
A-WALL
100
AcDbPolyline
 90
5
 70
1
 10
8.919541884816754
 20
0.9278010471204189
 10
8.954685863874346
 20
0.9207722513089005
 10
8.968743455497382
 20
0.8926570680628273
 10
8.94062827225131
 20
0.8575130890052356
 10
8.8984554973822
 20
0.8785994764397906
  0
LWPOLYLINE
  5
48
330
17
100
AcDbEntity
  8
A-WALL
100
AcDbPolyline
 90
4
 70
1
 10
8.919541884816754
 20
0.9910602094240838
 10
8.961714659685864
 20
0.9699738219895289
 10
8.94062827225131
 20
0.9418586387434555
 10
8.905484293193718
 20
0.9559162303664922
  0
LWPOLYLINE
  5
49
330
17
100
AcDbEntity
  8
A-WALL
100
AcDbPolyline
 90
12
 70
1
 10
8.81410994764398
 20
1.0121465968586387
 10
8.785994764397905
 20
1.0051178010471205
 10
8.750850785340313
 20
0.9559162303664922
 10
8.757879581151833
 20
0.8715706806282723
 10
8.793023560209424
 20
0.8434554973821989
 10
8.835196335078534
 20
0.8504842931937173
 10
8.85628272251309
 20
0.8785994764397906
 10
8.835196335078534
 20
0.9418586387434555
 10
8.764908376963351
 20
0.9488874345549738
 10
8.793023560209424
 20
0.9910602094240838
 10
8.849253926701572
 20
0.9699738219895289
 10
8.849253926701572
 20
0.9910602094240838
  0
LWPOLYLINE
  5
4A
330
17
100
AcDbEntity
  8
A-WALL
100
AcDbPolyline
 90
4
 70
1
 10
8.800052356020943
 20
0.9348298429319372
 10
8.842225130890052
 20
0.9067146596858638
 10
8.81410994764398
 20
0.8575130890052356
 10
8.77193717277487
 20
0.8856282722513089
  0
LWPOLYLINE
  5
4B
330
17
100
AcDbEntity
  8
A-WALL
100
AcDbPolyline
 90
16
 70
1
 10
8.610274869109947
 20
1.0121465968586387
 10
8.568102094240837
 20
0.9840314136125655
 10
8.568102094240837
 20
0.9629450261780105
 10
8.603246073298429
 20
0.9910602094240838
 10
8.638390052356021
 20
0.9770026178010471
 10
8.603246073298429
 20
0.9278010471204189
 10
8.64541884816754
 20
0.9067146596858638
 10
8.64541884816754
 20
0.8785994764397906
 10
8.624332460732985
 20
0.8575130890052356
 10
8.582159685863875
 20
0.8856282722513089
 10
8.561073298429319
 20
0.8785994764397906
 10
8.582159685863875
 20
0.8504842931937173
 10
8.631361256544503
 20
0.8434554973821989
 10
8.666505235602095
 20
0.8785994764397906
 10
8.64541884816754
 20
0.9278010471204189
 10
8.659476439790575
 20
0.9770026178010471
  0
LWPOLYLINE
  5
4C
330
17
100
AcDbEntity
  8
A-WALL
100
AcDbPolyline
 90
7
 70
1
 10
4.568717277486911
 20
1.0121465968586387
 10
4.561688481675393
 20
0.9910602094240838
 10
4.631976439790576
 20
0.9840314136125655
 10
4.589803664921466
 20
0.8996858638743456
 10
4.582774869109948
 20
0.8504842931937173
 10
4.603861256544502
 20
0.8504842931937173
 10
4.660091623036649
 20
1.0051178010471205
  0
LWPOLYLINE
  5
4D
330
17
100
AcDbEntity
  8
A-WALL
100
AcDbPolyline
 90
14
 70
1
 10
4.477342931937173
 20
1.0121465968586387
 10
4.435170157068063
 20
0.9699738219895289
 10
4.49140052356021
 20
0.9910602094240838
 10
4.512486910994764
 20
0.9559162303664922
 10
4.477342931937173
 20
0.9278010471204189
 10
4.505458115183246
 20
0.9207722513089005
 10
4.519515706806283
 20
0.8856282722513089
 10
4.49140052356021
 20
0.8575130890052356
 10
4.4492277486911
 20
0.8856282722513089
 10
4.435170157068063
 20
0.8715706806282723
 10
4.498429319371728
 20
0.8434554973821989
 10
4.540602094240838
 20
0.8996858638743456
 10
4.512486910994764
 20
0.9348298429319372
 10
4.526544502617801
 20
0.9840314136125655
  0
LWPOLYLINE
  5
4E
330
17
100
AcDbEntity
  8
A-WALL
100
AcDbPolyline
 90
16
 70
1
 10
4.273507853403141
 20
1.0121465968586387
 10
4.245392670157068
 20
0.9278010471204189
 10
4.3086518324607335
 20
0.9348298429319372
 10
4.329738219895288
 20
0.8856282722513089
 10
4.3016230366492145
 20
0.8575130890052356
 10
4.259450261780104
 20
0.8856282722513089
 10
4.238363874345549
 20
0.8785994764397906
 10
4.259450261780104
 20
0.8504842931937173
 10
4.3086518324607335
 20
0.8434554973821989
 10
4.336767015706807
 20
0.864541884816754
 10
4.350824607329843
 20
0.9137434554973822
 10
4.3086518324607335
 20
0.9559162303664922
 10
4.273507853403141
 20
0.9488874345549738
 10
4.266479057591623
 20
0.9770026178010471
 10
4.336767015706807
 20
0.9910602094240838
 10
4.336767015706807
 20
1.0051178010471205
  0
LWPOLYLINE
  5
4F
330
17
100
AcDbEntity
  8
A-WALL
100
AcDbPolyline
 90
3
 70
1
 10
2.6990575916230366
 20
1.2230104712041885
 10
2.72717277486911
 20
1.2230104712041885
 10
4.168075916230366
 20
1.2230104712041885
  0
LWPOLYLINE
  5
50
330
17
100
AcDbEntity
  8
A-WALL
100
AcDbPolyline
 90
10
 70
1
 10
7.893337696335078
 20
1.6728534031413613
 10
7.893337696335078
 20
1.3354712041884818
 10
7.900366492146597
 20
1.3003272251308902
 10
7.900366492146597
 20
1.644738219895288
 10
7.921452879581152
 20
1.6587958115183246
 10
8.26586387434555
 20
1.6587958115183246
 10
8.279921465968586
 20
1.6377094240837697
 10
8.279921465968586
 20
1.3003272251308902
 10
8.286950261780104
 20
1.3073560209424084
 10
8.286950261780104
 20
1.6728534031413613
  0
LWPOLYLINE
  5
51
330
17
100
AcDbEntity
  8
A-WALL
100
AcDbPolyline
 90
7
 70
1
 10
9.193664921465968
 20
1.6798821989528796
 10
9.193664921465968
 20
1.38467277486911
 10
9.207722513089005
 20
1.363586387434555
 10
9.833285340314136
 20
1.363586387434555
 10
9.868429319371728
 20
1.3776439790575916
 10
9.868429319371728
 20
1.7009685863874346
 10
9.207722513089005
 20
1.7009685863874346
  0
LWPOLYLINE
  5
52
330
17
100
AcDbEntity
  8
A-WALL
100
AcDbPolyline
 90
6
 70
1
 10
9.221780104712042
 20
1.6798821989528796
 10
9.840314136125654
 20
1.6798821989528796
 10
9.854371727748692
 20
1.6728534031413613
 10
9.854371727748692
 20
1.3917015706806284
 10
9.840314136125654
 20
1.3776439790575916
 10
9.221780104712042
 20
1.3776439790575916
  0
LWPOLYLINE
  5
53
330
17
100
AcDbEntity
  8
A-WALL
100
AcDbPolyline
 90
5
 70
1
 10
8.43455497382199
 20
1.7009685863874346
 10
8.43455497382199
 20
1.363586387434555
 10
9.06011780104712
 20
1.363586387434555
 10
9.10229057591623
 20
1.3706151832460733
 10
9.10229057591623
 20
1.7009685863874346
  0
LWPOLYLINE
  5
54
330
17
100
AcDbEntity
  8
A-WALL
100
AcDbPolyline
 90
5
 70
1
 10
8.455641361256545
 20
1.6798821989528796
 10
9.074175392670158
 20
1.6798821989528796
 10
9.074175392670158
 20
1.3917015706806284
 10
9.074175392670158
 20
1.3776439790575916
 10
8.455641361256545
 20
1.3776439790575916
  0
LWPOLYLINE
  5
55
330
17
100
AcDbEntity
  8
A-WALL
100
AcDbPolyline
 90
3
 70
1
 10
8.315065445026178
 20
1.9891492146596859
 10
8.315065445026178
 20
1.3143848167539267
 10
8.315065445026178
 20
1.9821204188481676
  0
LWPOLYLINE
  5
56
330
17
100
AcDbEntity
  8
A-WALL
100
AcDbPolyline
 90
11
 70
1
 10
10.94383507853403
 20
2.291387434554974
 10
10.94383507853403
 20
2.256243455497382
 10
10.978979057591623
 20
2.2210994764397904
 10
10.99303664921466
 20
2.2351570680628274
 10
10.957892670157069
 20
2.2843586387434556
 10
10.986007853403141
 20
2.3124738219895287
 10
11.105497382198953
 20
2.2210994764397904
 10
11.105497382198953
 20
2.3265314136125657
 10
11.084410994764399
 20
2.249214659685864
 10
11.000065445026179
 20
2.3265314136125657
 10
10.964921465968587
 20
2.319502617801047
  0
LWPOLYLINE
  5
57
330
17
100
AcDbEntity
  8
A-WALL
100
AcDbPolyline
 90
16
 70
1
 10
0.09137434554973822
 20
1.862630890052356
 10
0.48498691099476443
 20
1.51119109947644
 10
0.6607068062827225
 20
1.6939397905759164
 10
0.780196335078534
 20
1.5674214659685863
 10
0.9207722513089005
 20
1.51119109947644
 10
1.082434554973822
 20
1.5252486910994765
 10
1.1667801047120419
 20
1.5744502617801048
 10
1.2440968586387435
 20
1.6517670157068063
 10
1.405759162303665
 20
1.4409031413612565
 10
1.8345157068062827
 20
1.7501701570680628
 10
1.4690183246073298
 20
2.2632722513089005
 10
1.2019240837696334
 20
2.0734947643979056
 10
1.0262041884816755
 20
2.164869109947644
 10
0.9137434554973822
 20
2.164869109947644
 10
0.7731675392670158
 20
2.101609947643979
 10
0.5060732984293194
 20
2.3335602094240837
  0
LWPOLYLINE
  5
58
330
17
100
AcDbEntity
  8
A-WALL
100
AcDbPolyline
 90
4
 70
1
 10
1.7501701570680628
 20
1.8556020942408378
 10
1.8134293193717277
 20
1.7571989528795813
 10
1.405759162303665
 20
1.4619895287958116
 10
1.3354712041884818
 20
1.560392670157068
  0
LWPOLYLINE
  5
59
330
17
100
AcDbEntity
  8
A-WALL
100
AcDbPolyline
 90
4
 70
1
 10
0.18274869109947645
 20
1.946976439790576
 10
0.5693324607329843
 20
1.6166230366492147
 10
0.49904450261780103
 20
1.5252486910994765
 10
0.1124607329842932
 20
1.8485732984293195
  0
LWPOLYLINE
  5
5A
330
17
100
AcDbEntity
  8
A-WALL
100
AcDbPolyline
 90
16
 70
1
 10
0.8715706806282723
 20
2.1367539267015707
 10
1.0332329842931938
 20
2.1367539267015707
 10
1.1175785340314137
 20
2.1156675392670157
 10
1.2370680628272253
 20
2.0032068062827224
 10
1.2792408376963351
 20
1.8977748691099476
 10
1.2792408376963351
 20
1.7712565445026178
 10
1.2300392670157068
 20
1.6587958115183246
 10
1.1527225130890053
 20
1.581479057591623
 10
1.0543193717277488
 20
1.5322774869109947
 10
0.9278010471204189
 20
1.5322774869109947
 10
0.8504842931937173
 20
1.5463350785340315
 10
0.7591099476439791
 20
1.6025654450261781
 10
0.6747643979057592
 20
1.7220549738219895
 10
0.6607068062827225
 20
1.8907460732984294
 10
0.6817931937172775
 20
1.968062827225131
 10
0.780196335078534
 20
2.0875523560209426
  0
LWPOLYLINE
  5
5B
330
17
100
AcDbEntity
  8
A-WALL
100
AcDbPolyline
 90
7
 70
1
 10
1.4619895287958116
 20
2.249214659685864
 10
1.7361125654450262
 20
1.862630890052356
 10
1.3284424083769635
 20
1.5674214659685863
 10
1.2511256544502618
 20
1.665824607329843
 10
1.2932984293193717
 20
1.7712565445026178
 10
1.2932984293193717
 20
1.904803664921466
 10
1.208952879581152
 20
2.0664659685863875
  0
LWPOLYLINE
  5
5C
330
17
100
AcDbEntity
  8
A-WALL
100
AcDbPolyline
 90
8
 70
1
 10
0.49904450261780103
 20
2.3124738219895287
 10
0.7591099476439791
 20
2.0945811518324606
 10
0.6888219895287958
 20
2.010235602094241
 10
0.6466492146596858
 20
1.9188612565445027
 10
0.6466492146596858
 20
1.8064005235602094
 10
0.6607068062827225
 20
1.707997382198953
 10
0.5833900523560209
 20
1.6306806282722512
 10
0.1968062827225131
 20
1.9610340314136125
  0
LWPOLYLINE
  5
5D
330
17
100
AcDbEntity
  8
A-WALL
100
AcDbPolyline
 90
3
 70
1
 10
11.084410994764399
 20
2.375732984293194
 10
11.091439790575917
 20
2.3546465968586388
 10
11.133612565445027
 20
2.3687041884816753
  0
LWPOLYLINE
  5
5E
330
17
100
AcDbEntity
  8
A-WALL
100
AcDbPolyline
 90
5
 70
1
 10
10.94383507853403
 20
2.51630890052356
 10
10.94383507853403
 20
2.4108769633507854
 10
10.964921465968587
 20
2.488193717277487
 10
11.105497382198953
 20
2.4389921465968585
 10
11.091439790575917
 20
2.4600785340314135
  0
LWPOLYLINE
  5
5F
330
17
100
AcDbEntity
  8
A-WALL
100
AcDbPolyline
 90
10
 70
1
 10
11.105497382198953
 20
2.614712041884817
 10
11.07738219895288
 20
2.64282722513089
 10
11.035209424083769
 20
2.64282722513089
 10
11.014123036649215
 20
2.621740837696335
 10
10.964921465968587
 20
2.635798429319372
 10
10.94383507853403
 20
2.572539267015707
 10
10.971950261780105
 20
2.5444240837696337
 10
11.014123036649215
 20
2.5655104712041887
 10
11.070353403141361
 20
2.537395287958115
 10
11.105497382198953
 20
2.572539267015707
  0
LWPOLYLINE
  5
60
330
17
100
AcDbEntity
  8
A-WALL
100
AcDbPolyline
 90
4
 70
1
 10
10.978979057591623
 20
2.621740837696335
 10
11.007094240837697
 20
2.6076832460732984
 10
10.99303664921466
 20
2.5655104712041887
 10
10.957892670157069
 20
2.5795680628272253
  0
LWPOLYLINE
  5
61
330
17
100
AcDbEntity
  8
A-WALL
100
AcDbPolyline
 90
5
 70
1
 10
11.035209424083769
 20
2.621740837696335
 10
11.084410994764399
 20
2.614712041884817
 10
11.091439790575917
 20
2.5795680628272253
 10
11.070353403141361
 20
2.5584816753926702
 10
11.028180628272251
 20
2.572539267015707
  0
LWPOLYLINE
  5
62
330
17
100
AcDbEntity
  8
A-WALL
100
AcDbPolyline
 90
4
 70
1
 10
5.812814136125654
 20
2.64282722513089
 10
5.812814136125654
 20
2.593625654450262
 10
5.826871727748691
 20
2.593625654450262
 10
5.833900523560209
 20
2.635798429319372
  0
LWPOLYLINE
  5
63
330
17
100
AcDbEntity
  8
A-WALL
100
AcDbPolyline
 90
7
 70
1
 10
7.239659685863875
 20
2.685
 10
7.225602094240838
 20
2.685
 10
7.759790575916231
 20
2.685
 10
7.780876963350786
 20
2.656884816753927
 10
7.780876963350786
 20
1.3425
 10
7.787905759162304
 20
1.3073560209424084
 10
7.787905759162304
 20
2.685
  0
LWPOLYLINE
  5
64
330
17
100
AcDbEntity
  8
A-WALL
100
AcDbPolyline
 90
14
 70
1
 10
6.058821989528796
 20
2.734201570680628
 10
6.058821989528796
 20
2.621740837696335
 10
6.079908376963351
 20
2.621740837696335
 10
6.079908376963351
 20
2.706086387434555
 10
6.108023560209424
 20
2.72717277486911
 10
6.129109947643979
 20
2.713115183246073
 10
6.136138743455498
 20
2.621740837696335
 10
6.150196335078534
 20
2.621740837696335
 10
6.150196335078534
 20
2.706086387434555
 10
6.178311518324607
 20
2.72717277486911
 10
6.199397905759162
 20
2.713115183246073
 10
6.199397905759162
 20
2.6287696335078534
 10
6.220484293193717
 20
2.621740837696335
 10
6.206426701570681
 20
2.734201570680628
  0
LWPOLYLINE
  5
65
330
17
100
AcDbEntity
  8
A-WALL
100
AcDbPolyline
 90
7
 70
1
 10
5.932303664921466
 20
2.7834031413612568
 10
5.862015706806283
 20
2.663913612565445
 10
5.9252748691099475
 20
2.656884816753927
 10
5.9393324607329845
 20
2.621740837696335
 10
5.967447643979058
 20
2.6709424083769635
 10
5.9463612565445025
 20
2.685
 10
5.9463612565445025
 20
2.7763743455497383
  0
LWPOLYLINE
  5
66
330
17
100
AcDbEntity
  8
A-WALL
100
AcDbPolyline
 90
4
 70
1
 10
5.9252748691099475
 20
2.7412303664921467
 10
5.932303664921466
 20
2.685
 10
5.9041884816753925
 20
2.6709424083769635
 10
5.883102094240837
 20
2.6920287958115185
  0
LWPOLYLINE
  5
67
330
17
100
AcDbEntity
  8
A-WALL
100
AcDbPolyline
 90
5
 70
1
 10
5.74955497382199
 20
2.7834031413612568
 10
5.686295811518325
 20
2.734201570680628
 10
5.728468586387435
 20
2.734201570680628
 10
5.728468586387435
 20
2.621740837696335
 10
5.74955497382199
 20
2.6287696335078534
  0
LWPOLYLINE
  5
68
330
17
100
AcDbEntity
  8
A-WALL
100
AcDbPolyline
 90
11
 70
1
 10
5.58086387434555
 20
2.7834031413612568
 10
5.5527486910994766
 20
2.7623167539267017
 10
5.5527486910994766
 20
2.734201570680628
 10
5.594921465968587
 20
2.76934554973822
 10
5.637094240837697
 20
2.734201570680628
 10
5.5457198952879585
 20
2.621740837696335
 10
5.651151832460733
 20
2.621740837696335
 10
5.644123036649215
 20
2.64282722513089
 10
5.58086387434555
 20
2.64282722513089
 10
5.651151832460733
 20
2.72717277486911
 10
5.62303664921466
 20
2.7834031413612568
  0
LWPOLYLINE
  5
69
330
17
100
AcDbEntity
  8
A-WALL
100
AcDbPolyline
 90
10
 70
1
 10
6.255628272251309
 20
2.7834031413612568
 10
6.241570680628272
 20
2.7623167539267017
 10
6.283743455497382
 20
2.76934554973822
 10
6.2907722513089
 20
2.7552879581151832
 10
6.241570680628272
 20
2.706086387434555
 10
6.297801047120419
 20
2.6990575916230366
 10
6.304829842931937
 20
2.713115183246073
 10
6.276714659685864
 20
2.72717277486911
 10
6.304829842931937
 20
2.748259162303665
 10
6.304829842931937
 20
2.7763743455497383
  0
LWPOLYLINE
  5
6A
330
17
100
AcDbEntity
  8
A-WALL
100
AcDbPolyline
 90
14
 70
1
 10
11.000065445026179
 20
2.8888350785340315
 10
10.986007853403141
 20
2.7412303664921467
 10
11.105497382198953
 20
2.7412303664921467
 10
11.105497382198953
 20
2.7552879581151832
 10
11.021151832460733
 20
2.7552879581151832
 10
11.000065445026179
 20
2.7834031413612568
 10
11.014123036649215
 20
2.8044895287958114
 10
11.105497382198953
 20
2.8044895287958114
 10
11.098468586387435
 20
2.8255759162303664
 10
11.021151832460733
 20
2.8255759162303664
 10
11.000065445026179
 20
2.85369109947644
 10
11.014123036649215
 20
2.874777486910995
 10
11.105497382198953
 20
2.874777486910995
 10
11.105497382198953
 20
2.8888350785340315
  0
LWPOLYLINE
  5
6B
330
17
100
AcDbEntity
  8
A-WALL
100
AcDbPolyline
 90
4
 70
1
 10
5.672238219895288
 20
2.9942670157068063
 10
5.672238219895288
 20
2.8888350785340315
 10
5.686295811518325
 20
2.881806282722513
 10
5.686295811518325
 20
2.9942670157068063
  0
LWPOLYLINE
  5
6C
330
17
100
AcDbEntity
  8
A-WALL
100
AcDbPolyline
 90
7
 70
1
 10
5.5457198952879585
 20
2.9942670157068063
 10
5.58086387434555
 20
2.8888350785340315
 10
5.601950261780105
 20
2.881806282722513
 10
5.644123036649215
 20
2.9942670157068063
 10
5.62303664921466
 20
2.987238219895288
 10
5.594921465968587
 20
2.9169502617801046
 10
5.5668062827225135
 20
2.987238219895288
  0
LWPOLYLINE
  5
6D
330
17
100
AcDbEntity
  8
A-WALL
100
AcDbPolyline
 90
4
 70
1
 10
5.503547120418848
 20
2.9942670157068063
 10
5.503547120418848
 20
2.8888350785340315
 10
5.5176047120418845
 20
2.881806282722513
 10
5.5176047120418845
 20
2.9942670157068063
  0
LWPOLYLINE
  5
6E
330
17
100
AcDbEntity
  8
A-WALL
100
AcDbPolyline
 90
9
 70
1
 10
6.396204188481676
 20
2.9942670157068063
 10
6.382146596858639
 20
2.9591230366492147
 10
6.417290575916231
 20
2.987238219895288
 10
6.452434554973822
 20
2.9591230366492147
 10
6.3891753926701575
 20
2.9380366492146597
 10
6.375117801047121
 20
2.8958638743455496
 10
6.410261780104713
 20
2.874777486910995
 10
6.473520942408377
 20
2.881806282722513
 10
6.473520942408377
 20
2.987238219895288
  0
LWPOLYLINE
  5
6F
330
17
100
AcDbEntity
  8
A-WALL
100
AcDbPolyline
 90
4
 70
1
 10
6.452434554973822
 20
2.9310078534031416
 10
6.431348167539267
 20
2.8958638743455496
 10
6.3891753926701575
 20
2.9099214659685866
 10
6.403232984293194
 20
2.9310078534031416
  0
LWPOLYLINE
  5
70
330
17
100
AcDbEntity
  8
A-WALL
100
AcDbPolyline
 90
9
 70
1
 10
6.2907722513089
 20
3.001295811518325
 10
6.24859947643979
 20
2.9591230366492147
 10
6.24859947643979
 20
2.9099214659685866
 10
6.304829842931937
 20
2.874777486910995
 10
6.3470026178010475
 20
2.9099214659685866
 10
6.283743455497382
 20
2.8958638743455496
 10
6.262657068062827
 20
2.9310078534031416
 10
6.3399738219895285
 20
2.9380366492146597
 10
6.3470026178010475
 20
2.9731806282722513
  0
LWPOLYLINE
  5
71
330
17
100
AcDbEntity
  8
A-WALL
100
AcDbPolyline
 90
4
 70
1
 10
6.269685863874345
 20
2.966151832460733
 10
6.304829842931937
 20
2.987238219895288
 10
6.3329450261780105
 20
2.9591230366492147
 10
6.276714659685864
 20
2.9520942408376962
  0
LWPOLYLINE
  5
72
330
17
100
AcDbEntity
  8
A-WALL
100
AcDbPolyline
 90
6
 70
1
 10
6.227513089005236
 20
3.001295811518325
 10
6.171282722513089
 20
2.987238219895288
 10
6.171282722513089
 20
2.881806282722513
 10
6.192369109947644
 20
2.881806282722513
 10
6.192369109947644
 20
2.9591230366492147
 10
6.234541884816754
 20
2.9802094240837698
  0
LWPOLYLINE
  5
73
330
17
100
AcDbEntity
  8
A-WALL
100
AcDbPolyline
 90
12
 70
1
 10
5.876073298429319
 20
3.001295811518325
 10
5.847958115183246
 20
2.9802094240837698
 10
5.833900523560209
 20
2.9310078534031416
 10
5.847958115183246
 20
2.8958638743455496
 10
5.911217277486911
 20
2.8888350785340315
 10
5.918246073298429
 20
2.8677486910994765
 10
5.897159685863874
 20
2.8466623036649215
 10
5.854986910994764
 20
2.8677486910994765
 10
5.840929319371728
 20
2.85369109947644
 10
5.9041884816753925
 20
2.832604712041885
 10
5.9393324607329845
 20
2.874777486910995
 10
5.9393324607329845
 20
2.9942670157068063
  0
LWPOLYLINE
  5
74
330
17
100
AcDbEntity
  8
A-WALL
100
AcDbPolyline
 90
6
 70
1
 10
5.883102094240837
 20
2.987238219895288
 10
5.918246073298429
 20
2.966151832460733
 10
5.918246073298429
 20
2.9169502617801046
 10
5.897159685863874
 20
2.8958638743455496
 10
5.854986910994764
 20
2.9169502617801046
 10
5.854986910994764
 20
2.9591230366492147
  0
LWPOLYLINE
  5
75
330
17
100
AcDbEntity
  8
A-WALL
100
AcDbPolyline
 90
9
 70
1
 10
5.791727748691099
 20
2.9942670157068063
 10
5.714410994764398
 20
2.987238219895288
 10
5.714410994764398
 20
2.881806282722513
 10
5.735497382198953
 20
2.9591230366492147
 10
5.763612565445026
 20
2.987238219895288
 10
5.791727748691099
 20
2.966151832460733
 10
5.791727748691099
 20
2.881806282722513
 10
5.812814136125654
 20
2.8888350785340315
 10
5.812814136125654
 20
2.9731806282722513
  0
LWPOLYLINE
  5
76
330
17
100
AcDbEntity
  8
A-WALL
100
AcDbPolyline
 90
6
 70
1
 10
6.072879581151833
 20
3.0434685863874344
 10
6.009620418848168
 20
2.881806282722513
 10
6.051793193717278
 20
2.9310078534031416
 10
6.108023560209424
 20
2.9310078534031416
 10
6.150196335078534
 20
2.881806282722513
 10
6.115052356020943
 20
2.9942670157068063
  0
LWPOLYLINE
  5
77
330
17
100
AcDbEntity
  8
A-WALL
100
AcDbPolyline
 90
4
 70
1
 10
6.072879581151833
 20
3.008324607329843
 10
6.093965968586388
 20
3.001295811518325
 10
6.100994764397906
 20
2.945065445026178
 10
6.051793193717278
 20
2.9591230366492147
  0
LWPOLYLINE
  5
78
330
17
100
AcDbEntity
  8
A-WALL
100
AcDbPolyline
 90
6
 70
1
 10
5.384057591623037
 20
3.0434685863874344
 10
5.384057591623037
 20
2.8888350785340315
 10
5.475431937172775
 20
2.881806282722513
 10
5.468403141361256
 20
2.902892670157068
 10
5.398115183246073
 20
2.9099214659685866
 10
5.398115183246073
 20
3.0364397905759164
  0
LWPOLYLINE
  5
79
330
17
100
AcDbEntity
  8
A-WALL
100
AcDbPolyline
 90
6
 70
1
 10
4.013442408376964
 20
3.219188481675393
 10
4.013442408376964
 20
2.5655104712041887
 10
4.0275
 20
2.5514528795811517
 10
5.152107329842932
 20
2.5514528795811517
 10
5.166164921465969
 20
2.5655104712041887
 10
5.166164921465969
 20
3.219188481675393
  0
LWPOLYLINE
  5
7A
330
17
100
AcDbEntity
  8
A-WALL
100
AcDbPolyline
 90
6
 70
1
 10
4.0275
 20
3.198102094240838
 10
5.1380497382198955
 20
3.198102094240838
 10
5.1380497382198955
 20
2.5795680628272253
 10
5.1310209424083775
 20
2.5655104712041887
 10
4.041557591623037
 20
2.5655104712041887
 10
4.0275
 20
2.5795680628272253
  0
LWPOLYLINE
  5
7B
330
17
100
AcDbEntity
  8
A-WALL
100
AcDbPolyline
 90
4
 70
1
 10
0.8785994764397906
 20
3.2613612565445025
 10
0.8715706806282723
 20
3.2121596858638743
 10
0.8926570680628273
 20
3.2121596858638743
 10
0.8996858638743456
 20
3.247303664921466
  0
LWPOLYLINE
  5
7C
330
17
100
AcDbEntity
  8
A-WALL
100
AcDbPolyline
 90
14
 70
1
 10
3.1348429319371727
 20
3.268390052356021
 10
2.593625654450262
 20
3.02238219895288
 10
2.5444240837696337
 20
2.987238219895288
 10
2.5022513089005236
 20
2.9099214659685866
 10
2.51630890052356
 20
2.8044895287958114
 10
2.76934554973822
 20
2.2632722513089005
 10
2.8185471204188484
 20
2.207041884816754
 10
2.8958638743455496
 20
2.1718979057591623
 10
3.008324607329843
 20
2.200013089005236
 10
3.5214267015706806
 20
2.446020942408377
 10
3.479253926701571
 20
2.537395287958115
 10
3.5143979057591626
 20
2.5795680628272253
 10
3.226217277486911
 20
3.1840445026178013
 10
3.1770157068062828
 20
3.1910732984293193
  0
LWPOLYLINE
  5
7D
330
17
100
AcDbEntity
  8
A-WALL
100
AcDbPolyline
 90
4
 70
1
 10
3.219188481675393
 20
3.162958115183246
 10
3.4933115183246075
 20
2.5795680628272253
 10
2.966151832460733
 20
2.3335602094240837
 10
2.6920287958115185
 20
2.9169502617801046
  0
LWPOLYLINE
  5
7E
330
17
100
AcDbEntity
  8
A-WALL
100
AcDbPolyline
 90
16
 70
1
 10
3.120785340314136
 20
3.2543324607329844
 10
3.1489005235602097
 20
3.226217277486911
 10
3.162958115183246
 20
3.1559293193717277
 10
2.6709424083769635
 20
2.923979057591623
 10
2.9520942408376962
 20
2.319502617801047
 10
2.9802094240837698
 20
2.3124738219895287
 10
3.4511387434554974
 20
2.537395287958115
 10
3.4722251308900525
 20
2.5303664921465967
 10
3.5003403141361256
 20
2.4530497382198955
 10
2.987238219895288
 20
2.207041884816754
 10
2.874777486910995
 20
2.1929842931937173
 10
2.832604712041885
 20
2.2140706806282724
 10
2.7623167539267017
 20
2.3054450261780106
 10
2.5303664921465967
 20
2.8044895287958114
 10
2.5303664921465967
 20
2.923979057591623
 10
2.5865968586387433
 20
3.001295811518325
  0
LWPOLYLINE
  5
7F
330
17
100
AcDbEntity
  8
A-WALL
100
AcDbPolyline
 90
14
 70
1
 10
1.124607329842932
 20
3.3527356020942407
 10
1.124607329842932
 20
3.240274869109948
 10
1.145693717277487
 20
3.247303664921466
 10
1.145693717277487
 20
3.3246204188481676
 10
1.1738089005235601
 20
3.3457068062827227
 10
1.1948952879581152
 20
3.331649214659686
 10
1.1948952879581152
 20
3.240274869109948
 10
1.2159816753926702
 20
3.247303664921466
 10
1.2159816753926702
 20
3.3246204188481676
 10
1.2440968586387435
 20
3.3457068062827227
 10
1.2651832460732984
 20
3.331649214659686
 10
1.2651832460732984
 20
3.247303664921466
 10
1.2862696335078534
 20
3.240274869109948
 10
1.2722120418848168
 20
3.3527356020942407
  0
LWPOLYLINE
  5
80
330
17
100
AcDbEntity
  8
A-WALL
100
AcDbPolyline
 90
3
 70
1
 10
8.996858638743456
 20
3.3808507853403142
 10
8.98280104712042
 20
3.3246204188481676
 10
9.003887434554974
 20
3.338678010471204
  0
LWPOLYLINE
  5
81
330
17
100
AcDbEntity
  8
A-WALL
100
AcDbPolyline
 90
9
 70
1
 10
0.9629450261780105
 20
3.4019371727748693
 10
0.9348298429319372
 20
3.3738219895287958
 10
0.9488874345549738
 20
3.3246204188481676
 10
0.9278010471204189
 20
3.2754188481675395
 10
0.9840314136125655
 20
3.2332460732984294
 10
1.0332329842931938
 20
3.268390052356021
 10
1.0121465968586387
 20
3.3246204188481676
 10
1.0262041884816755
 20
3.3738219895287958
 10
0.9980890052356021
 20
3.4019371727748693
  0
LWPOLYLINE
  5
82
330
17
100
AcDbEntity
  8
A-WALL
100
AcDbPolyline
 90
5
 70
1
 10
0.9699738219895289
 20
3.3246204188481676
 10
1.0121465968586387
 20
3.3035340314136126
 10
1.0121465968586387
 20
3.268390052356021
 10
0.9840314136125655
 20
3.247303664921466
 10
0.9488874345549738
 20
3.2754188481675395
  0
LWPOLYLINE
  5
83
330
17
100
AcDbEntity
  8
A-WALL
100
AcDbPolyline
 90
4
 70
1
 10
0.9488874345549738
 20
3.3667931937172777
 10
0.9910602094240838
 20
3.3878795811518327
 10
1.0121465968586387
 20
3.3527356020942407
 10
0.9699738219895289
 20
3.338678010471204
  0
LWPOLYLINE
  5
84
330
17
100
AcDbEntity
  8
A-WALL
100
AcDbPolyline
 90
10
 70
1
 10
0.8083115183246073
 20
3.4019371727748693
 10
0.7731675392670158
 20
3.4019371727748693
 10
0.7380235602094241
 20
3.3667931937172777
 10
0.7591099476439791
 20
3.3035340314136126
 10
0.8293979057591623
 20
3.2965052356020945
 10
0.7872251308900524
 20
3.247303664921466
 10
0.7450523560209424
 20
3.2754188481675395
 10
0.7872251308900524
 20
3.2332460732984294
 10
0.8364267015706807
 20
3.268390052356021
 10
0.8434554973821989
 20
3.3527356020942407
  0
LWPOLYLINE
  5
85
330
17
100
AcDbEntity
  8
A-WALL
100
AcDbPolyline
 90
6
 70
1
 10
0.7942539267015707
 20
3.3878795811518327
 10
0.822369109947644
 20
3.3667931937172777
 10
0.822369109947644
 20
3.331649214659686
 10
0.7872251308900524
 20
3.310562827225131
 10
0.7591099476439791
 20
3.331649214659686
 10
0.7591099476439791
 20
3.3667931937172777
  0
LWPOLYLINE
  5
86
330
17
100
AcDbEntity
  8
A-WALL
100
AcDbPolyline
 90
9
 70
1
 10
1.3354712041884818
 20
3.4089659685863873
 10
1.3073560209424084
 20
3.3808507853403142
 10
1.3425
 20
3.3878795811518327
 10
1.3495287958115183
 20
3.3667931937172777
 10
1.3073560209424084
 20
3.3246204188481676
 10
1.363586387434555
 20
3.317591623036649
 10
1.3706151832460733
 20
3.331649214659686
 10
1.3425
 20
3.3457068062827227
 10
1.3706151832460733
 20
3.394908376963351
  0
LWPOLYLINE
  5
87
330
17
100
AcDbEntity
  8
A-WALL
100
AcDbPolyline
 90
14
 70
1
 10
9.235837696335079
 20
3.4722251308900525
 10
9.235837696335079
 20
3.3527356020942407
 10
9.249895287958115
 20
3.4300523560209424
 10
9.27098167539267
 20
3.458167539267016
 10
9.306125654450263
 20
3.444109947643979
 10
9.31315445026178
 20
3.3527356020942407
 10
9.341269633507853
 20
3.458167539267016
 10
9.376413612565445
 20
3.444109947643979
 10
9.376413612565445
 20
3.359764397905759
 10
9.3975
 20
3.359764397905759
 10
9.3975
 20
3.444109947643979
 10
9.376413612565445
 20
3.4722251308900525
 10
9.327212041884817
 20
3.458167539267016
 10
9.292068062827225
 20
3.479253926701571
  0
LWPOLYLINE
  5
88
330
17
100
AcDbEntity
  8
A-WALL
100
AcDbPolyline
 90
9
 70
1
 10
9.425615183246073
 20
3.5214267015706806
 10
9.418586387434555
 20
3.5003403141361256
 10
9.453730366492147
 20
3.507369109947644
 10
9.460759162303665
 20
3.486282722513089
 10
9.418586387434555
 20
3.444109947643979
 10
9.474816753926701
 20
3.437081151832461
 10
9.48184554973822
 20
3.4511387434554974
 10
9.453730366492147
 20
3.465196335078534
 10
9.48184554973822
 20
3.507369109947644
  0
LWPOLYLINE
  5
89
330
17
100
AcDbEntity
  8
A-WALL
100
AcDbPolyline
 90
12
 70
1
 10
9.081204188481676
 20
3.5214267015706806
 10
9.039031413612566
 20
3.479253926701571
 10
9.039031413612566
 20
3.394908376963351
 10
9.10229057591623
 20
3.3527356020942407
 10
9.137434554973822
 20
3.3808507853403142
 10
9.14446335078534
 20
3.4230235602094243
 10
9.10229057591623
 20
3.465196335078534
 10
9.067146596858638
 20
3.4511387434554974
 10
9.06011780104712
 20
3.479253926701571
 10
9.088232984293194
 20
3.507369109947644
 10
9.137434554973822
 20
3.479253926701571
 10
9.137434554973822
 20
3.5003403141361256
  0
LWPOLYLINE
  5
8A
330
17
100
AcDbEntity
  8
A-WALL
100
AcDbPolyline
 90
4
 70
1
 10
9.067146596858638
 20
3.437081151832461
 10
9.123376963350786
 20
3.4300523560209424
 10
9.109319371727748
 20
3.3738219895287958
 10
9.06011780104712
 20
3.394908376963351
  0
LWPOLYLINE
  5
8B
330
17
100
AcDbEntity
  8
A-WALL
100
AcDbPolyline
 90
13
 70
1
 10
8.884397905759162
 20
3.5214267015706806
 10
8.849253926701572
 20
3.486282722513089
 10
8.849253926701572
 20
3.444109947643979
 10
8.884397905759162
 20
3.415994764397906
 10
8.926570680628272
 20
3.4300523560209424
 10
8.93359947643979
 20
3.4019371727748693
 10
8.912513089005236
 20
3.3738219895287958
 10
8.863311518324608
 20
3.394908376963351
 10
8.849253926701572
 20
3.3808507853403142
 10
8.905484293193718
 20
3.3527356020942407
 10
8.947657068062828
 20
3.3878795811518327
 10
8.954685863874346
 20
3.465196335078534
 10
8.926570680628272
 20
3.5143979057591626
  0
LWPOLYLINE
  5
8C
330
17
100
AcDbEntity
  8
A-WALL
100
AcDbPolyline
 90
4
 70
1
 10
8.8984554973822
 20
3.507369109947644
 10
8.93359947643979
 20
3.479253926701571
 10
8.912513089005236
 20
3.4300523560209424
 10
8.863311518324608
 20
3.458167539267016
  0
LWPOLYLINE
  5
8D
330
17
100
AcDbEntity
  8
A-WALL
100
AcDbPolyline
 90
7
 70
1
 10
1.4479319371727748
 20
3.612801047120419
 10
1.3987303664921467
 20
3.535484293193717
 10
1.3706151832460733
 20
3.6057722513089008
 10
1.3495287958115183
 20
3.612801047120419
 10
1.3917015706806284
 20
3.507369109947644
 10
1.363586387434555
 20
3.4511387434554974
 10
1.3987303664921467
 20
3.465196335078534
  0
LWPOLYLINE
  5
8E
330
17
100
AcDbEntity
  8
A-WALL
100
AcDbPolyline
 90
10
 70
1
 10
1.3073560209424084
 20
3.612801047120419
 10
1.2370680628272253
 20
3.612801047120419
 10
1.2370680628272253
 20
3.5003403141361256
 10
1.2511256544502618
 20
3.5003403141361256
 10
1.2511256544502618
 20
3.5776570680628272
 10
1.2792408376963351
 20
3.6057722513089008
 10
1.3073560209424084
 20
3.5846858638743457
 10
1.3073560209424084
 20
3.5003403141361256
 10
1.3284424083769635
 20
3.507369109947644
 10
1.3284424083769635
 20
3.5846858638743457
  0
LWPOLYLINE
  5
8F
330
17
100
AcDbEntity
  8
A-WALL
100
AcDbPolyline
 90
7
 70
1
 10
1.145693717277487
 20
3.6198298429319373
 10
1.103520942408377
 20
3.5846858638743457
 10
1.103520942408377
 20
3.528455497382199
 10
1.1597513089005236
 20
3.4933115183246075
 10
1.2019240837696334
 20
3.5214267015706806
 10
1.208952879581152
 20
3.570628272251309
 10
1.1808376963350786
 20
3.612801047120419
  0
LWPOLYLINE
  5
90
330
17
100
AcDbEntity
  8
A-WALL
100
AcDbPolyline
 90
5
 70
1
 10
1.145693717277487
 20
3.6057722513089008
 10
1.1948952879581152
 20
3.5635994764397907
 10
1.1667801047120419
 20
3.5143979057591626
 10
1.1175785340314137
 20
3.535484293193717
 10
1.1175785340314137
 20
3.5776570680628272
  0
LWPOLYLINE
  5
91
330
17
100
AcDbEntity
  8
A-WALL
100
AcDbPolyline
 90
12
 70
1
 10
1.0262041884816755
 20
3.6198298429319373
 10
0.9910602094240838
 20
3.591714659685864
 10
0.9910602094240838
 20
3.528455497382199
 10
1.0121465968586387
 20
3.5003403141361256
 10
1.0472905759162303
 20
3.4933115183246075
 10
1.082434554973822
 20
3.535484293193717
 10
1.0262041884816755
 20
3.5143979057591626
 10
1.0051178010471205
 20
3.535484293193717
 10
1.0051178010471205
 20
3.5776570680628272
 10
1.0332329842931938
 20
3.6057722513089008
 10
1.0754057591623036
 20
3.5776570680628272
 10
1.082434554973822
 20
3.591714659685864
  0
LWPOLYLINE
  5
92
330
17
100
AcDbEntity
  8
A-WALL
100
AcDbPolyline
 90
9
 70
1
 10
0.822369109947644
 20
3.6057722513089008
 10
0.8153403141361256
 20
3.5846858638743457
 10
0.8715706806282723
 20
3.6057722513089008
 10
0.8926570680628273
 20
3.5776570680628272
 10
0.8153403141361256
 20
3.549541884816754
 10
0.8153403141361256
 20
3.507369109947644
 10
0.9067146596858638
 20
3.5003403141361256
 10
0.9067146596858638
 20
3.5987434554973823
 10
0.8785994764397906
 20
3.6198298429319373
  0
LWPOLYLINE
  5
93
330
17
100
AcDbEntity
  8
A-WALL
100
AcDbPolyline
 90
4
 70
1
 10
0.8926570680628273
 20
3.549541884816754
 10
0.8715706806282723
 20
3.5143979057591626
 10
0.8293979057591623
 20
3.528455497382199
 10
0.8434554973821989
 20
3.549541884816754
  0
LWPOLYLINE
  5
94
330
17
100
AcDbEntity
  8
A-WALL
100
AcDbPolyline
 90
4
 70
1
 10
0.9418586387434555
 20
3.6620026178010474
 10
0.9418586387434555
 20
3.507369109947644
 10
0.9559162303664922
 20
3.5003403141361256
 10
0.9559162303664922
 20
3.654973821989529
  0
LWPOLYLINE
  5
95
330
17
100
AcDbEntity
  8
A-WALL
100
AcDbPolyline
 90
7
 70
1
 10
0.6677356020942409
 20
3.6620026178010474
 10
0.6677356020942409
 20
3.507369109947644
 10
0.7591099476439791
 20
3.5003403141361256
 10
0.7872251308900524
 20
3.5425130890052356
 10
0.7661387434554974
 20
3.5776570680628272
 10
0.7731675392670158
 20
3.6409162303664924
 10
0.7450523560209424
 20
3.6620026178010474
  0
LWPOLYLINE
  5
96
330
17
100
AcDbEntity
  8
A-WALL
100
AcDbPolyline
 90
4
 70
1
 10
0.6817931937172775
 20
3.5635994764397907
 10
0.7380235602094241
 20
3.5776570680628272
 10
0.7661387434554974
 20
3.535484293193717
 10
0.6958507853403142
 20
3.5143979057591626
  0
LWPOLYLINE
  5
97
330
17
100
AcDbEntity
  8
A-WALL
100
AcDbPolyline
 90
4
 70
1
 10
0.6817931937172775
 20
3.633887434554974
 10
0.7309947643979058
 20
3.6479450261780104
 10
0.7591099476439791
 20
3.6057722513089008
 10
0.6888219895287958
 20
3.591714659685864
  0
LWPOLYLINE
  5
98
330
17
100
AcDbEntity
  8
A-WALL
100
AcDbPolyline
 90
5
 70
1
 10
9.179607329842932
 20
3.7322905759162306
 10
9.123376963350786
 20
3.7322905759162306
 10
9.123376963350786
 20
3.6198298429319373
 10
9.137434554973822
 20
3.6198298429319373
 10
9.137434554973822
 20
3.697146596858639
  0
LWPOLYLINE
  5
99
330
17
100
AcDbEntity
  8
A-WALL
100
AcDbPolyline
 90
14
 70
1
 10
9.446701570680629
 20
3.7322905759162306
 10
9.446701570680629
 20
3.6198298429319373
 10
9.467787958115183
 20
3.6198298429319373
 10
9.467787958115183
 20
3.697146596858639
 10
9.488874345549739
 20
3.7182329842931936
 10
9.52401832460733
 20
3.697146596858639
 10
9.516989528795811
 20
3.6198298429319373
 10
9.538075916230367
 20
3.6198298429319373
 10
9.538075916230367
 20
3.697146596858639
 10
9.559162303664921
 20
3.7182329842931936
 10
9.587277486910995
 20
3.7112041884816755
 10
9.587277486910995
 20
3.6268586387434554
 10
9.60836387434555
 20
3.6198298429319373
 10
9.594306282722513
 20
3.7322905759162306
  0
LWPOLYLINE
  5
9A
330
17
100
AcDbEntity
  8
A-WALL
100
AcDbPolyline
 90
8
 70
1
 10
9.362356020942409
 20
3.7393193717277486
 10
9.320183246073299
 20
3.704175392670157
 10
9.320183246073299
 20
3.6479450261780104
 10
9.341269633507853
 20
3.6198298429319373
 10
9.383442408376963
 20
3.612801047120419
 10
9.418586387434555
 20
3.6409162303664924
 10
9.425615183246073
 20
3.683089005235602
 10
9.3975
 20
3.7322905759162306
  0
LWPOLYLINE
  5
9B
330
17
100
AcDbEntity
  8
A-WALL
100
AcDbPolyline
 90
6
 70
1
 10
9.35532722513089
 20
3.7182329842931936
 10
9.404528795811519
 20
3.697146596858639
 10
9.404528795811519
 20
3.654973821989529
 10
9.383442408376963
 20
3.633887434554974
 10
9.35532722513089
 20
3.633887434554974
 10
9.334240837696335
 20
3.6620026178010474
  0
LWPOLYLINE
  5
9C
330
17
100
AcDbEntity
  8
A-WALL
100
AcDbPolyline
 90
7
 70
1
 10
9.235837696335079
 20
3.7393193717277486
 10
9.193664921465968
 20
3.704175392670157
 10
9.18663612565445
 20
3.6690314136125655
 10
9.207722513089005
 20
3.6268586387434554
 10
9.256924083769634
 20
3.612801047120419
 10
9.292068062827225
 20
3.6409162303664924
 10
9.292068062827225
 20
3.7112041884816755
  0
LWPOLYLINE
  5
9D
330
17
100
AcDbEntity
  8
A-WALL
100
AcDbPolyline
 90
5
 70
1
 10
9.22880890052356
 20
3.7182329842931936
 10
9.278010471204189
 20
3.697146596858639
 10
9.278010471204189
 20
3.6479450261780104
 10
9.256924083769634
 20
3.633887434554974
 10
9.207722513089005
 20
3.654973821989529
  0
LWPOLYLINE
  5
9E
330
17
100
AcDbEntity
  8
A-WALL
100
AcDbPolyline
 90
12
 70
1
 10
8.905484293193718
 20
3.7393193717277486
 10
8.870340314136126
 20
3.7112041884816755
 10
8.863311518324608
 20
3.654973821989529
 10
8.891426701570682
 20
3.6198298429319373
 10
8.926570680628272
 20
3.612801047120419
 10
8.961714659685864
 20
3.633887434554974
 10
8.961714659685864
 20
3.654973821989529
 10
8.8984554973822
 20
3.633887434554974
 10
8.877369109947644
 20
3.6620026178010474
 10
8.961714659685864
 20
3.676060209424084
 10
8.968743455497382
 20
3.697146596858639
 10
8.94062827225131
 20
3.7322905759162306
  0
LWPOLYLINE
  5
9F
330
17
100
AcDbEntity
  8
A-WALL
100
AcDbPolyline
 90
4
 70
1
 10
8.884397905759162
 20
3.704175392670157
 10
8.93359947643979
 20
3.7182329842931936
 10
8.947657068062828
 20
3.697146596858639
 10
8.891426701570682
 20
3.6901178010471205
  0
LWPOLYLINE
  5
A0
330
17
100
AcDbEntity
  8
A-WALL
100
AcDbPolyline
 90
8
 70
1
 10
9.088232984293194
 20
3.7814921465968587
 10
9.067146596858638
 20
3.7744633507853402
 10
9.067146596858638
 20
3.7322905759162306
 10
9.032002617801048
 20
3.7393193717277486
 10
8.996858638743456
 20
3.7182329842931936
 10
8.989829842931938
 20
3.654973821989529
 10
9.032002617801048
 20
3.612801047120419
 10
9.088232984293194
 20
3.6198298429319373
  0
LWPOLYLINE
  5
A1
330
17
100
AcDbEntity
  8
A-WALL
100
AcDbPolyline
 90
6
 70
1
 10
9.024973821989528
 20
3.7182329842931936
 10
9.053089005235602
 20
3.7182329842931936
 10
9.074175392670158
 20
3.6901178010471205
 10
9.053089005235602
 20
3.633887434554974
 10
9.024973821989528
 20
3.633887434554974
 10
9.003887434554974
 20
3.6620026178010474
  0
LWPOLYLINE
  5
A2
330
17
100
AcDbEntity
  8
A-WALL
100
AcDbPolyline
 90
8
 70
1
 10
8.722735602094241
 20
3.7814921465968587
 10
8.722735602094241
 20
3.6268586387434554
 10
8.81410994764398
 20
3.6198298429319373
 10
8.835196335078534
 20
3.6409162303664924
 10
8.835196335078534
 20
3.683089005235602
 10
8.81410994764398
 20
3.704175392670157
 10
8.835196335078534
 20
3.7393193717277486
 10
8.821138743455498
 20
3.767434554973822
  0
LWPOLYLINE
  5
A3
330
17
100
AcDbEntity
  8
A-WALL
100
AcDbPolyline
 90
5
 70
1
 10
8.736793193717277
 20
3.683089005235602
 10
8.807081151832461
 20
3.6901178010471205
 10
8.821138743455498
 20
3.654973821989529
 10
8.793023560209424
 20
3.633887434554974
 10
8.743821989528795
 20
3.633887434554974
  0
LWPOLYLINE
  5
A4
330
17
100
AcDbEntity
  8
A-WALL
100
AcDbPolyline
 90
5
 70
1
 10
8.736793193717277
 20
3.7533769633507856
 10
8.800052356020943
 20
3.7604057591623037
 10
8.81410994764398
 20
3.7322905759162306
 10
8.800052356020943
 20
3.7112041884816755
 10
8.743821989528795
 20
3.7112041884816755
  0
LWPOLYLINE
  5
A5
330
17
100
AcDbEntity
  8
A-WALL
100
AcDbPolyline
 90
6
 70
1
 10
4.653062827225131
 20
4.245392670157068
 10
4.653062827225131
 20
3.5003403141361256
 10
5.5176047120418845
 20
3.5003403141361256
 10
5.5316623036649215
 20
3.507369109947644
 10
5.5316623036649215
 20
4.231335078534031
 10
5.5176047120418845
 20
4.245392670157068
  0
LWPOLYLINE
  5
A6
330
17
100
AcDbEntity
  8
A-WALL
100
AcDbPolyline
 90
6
 70
1
 10
4.674149214659686
 20
4.217277486910995
 10
5.5105759162303665
 20
4.217277486910995
 10
5.5246335078534035
 20
4.210248691099476
 10
5.5246335078534035
 20
3.528455497382199
 10
5.5105759162303665
 20
3.5143979057591626
 10
4.674149214659686
 20
3.5143979057591626
  0
LWPOLYLINE
  5
A7
330
17
100
AcDbEntity
  8
A-WALL
100
AcDbPolyline
 90
7
 70
1
 10
3.7182329842931936
 20
4.231335078534031
 10
3.7182329842931936
 20
3.5003403141361256
 10
4.582774869109948
 20
3.5003403141361256
 10
4.596832460732984
 20
3.507369109947644
 10
4.596832460732984
 20
4.175104712041885
 10
4.582774869109948
 20
4.245392670157068
 10
3.7322905759162306
 20
4.245392670157068
  0
LWPOLYLINE
  5
A8
330
17
100
AcDbEntity
  8
A-WALL
100
AcDbPolyline
 90
6
 70
1
 10
3.7393193717277486
 20
4.217277486910995
 10
3.746348167539267
 20
4.231335078534031
 10
4.575746073298429
 20
4.231335078534031
 10
4.575746073298429
 20
3.528455497382199
 10
4.575746073298429
 20
3.5143979057591626
 10
3.7393193717277486
 20
3.5143979057591626
  0
LWPOLYLINE
  5
A9
330
17
100
AcDbEntity
  8
A-WALL
100
AcDbPolyline
 90
4
 70
1
 10
9.06011780104712
 20
4.428141361256545
 10
9.06011780104712
 20
4.378939790575917
 10
9.074175392670158
 20
4.378939790575917
 10
9.088232984293194
 20
4.40705497382199
  0
LWPOLYLINE
  5
AA
330
17
100
AcDbEntity
  8
A-WALL
100
AcDbPolyline
 90
14
 70
1
 10
9.31315445026178
 20
4.519515706806283
 10
9.31315445026178
 20
4.40705497382199
 10
9.327212041884817
 20
4.40705497382199
 10
9.327212041884817
 20
4.484371727748691
 10
9.35532722513089
 20
4.512486910994764
 10
9.383442408376963
 20
4.49140052356021
 10
9.383442408376963
 20
4.40705497382199
 10
9.3975
 20
4.40705497382199
 10
9.3975
 20
4.484371727748691
 10
9.425615183246073
 20
4.512486910994764
 10
9.453730366492147
 20
4.49140052356021
 10
9.453730366492147
 20
4.414083769633508
 10
9.474816753926701
 20
4.414083769633508
 10
9.460759162303665
 20
4.519515706806283
  0
LWPOLYLINE
  5
AB
330
17
100
AcDbEntity
  8
A-WALL
100
AcDbPolyline
 90
11
 70
1
 10
9.14446335078534
 20
4.568717277486911
 10
9.116348167539266
 20
4.526544502617801
 10
9.179607329842932
 20
4.554659685863874
 10
9.200693717277487
 20
4.519515706806283
 10
9.116348167539266
 20
4.40705497382199
 10
9.214751308900524
 20
4.40705497382199
 10
9.214751308900524
 20
4.428141361256545
 10
9.14446335078534
 20
4.435170157068063
 10
9.214751308900524
 20
4.505458115183246
 10
9.214751308900524
 20
4.547630890052356
 10
9.193664921465968
 20
4.568717277486911
  0
LWPOLYLINE
  5
AC
330
17
100
AcDbEntity
  8
A-WALL
100
AcDbPolyline
 90
13
 70
1
 10
8.961714659685864
 20
4.568717277486911
 10
8.926570680628272
 20
4.533573298429319
 10
8.926570680628272
 20
4.442198952879581
 10
8.947657068062828
 20
4.414083769633508
 10
8.996858638743456
 20
4.40705497382199
 10
9.024973821989528
 20
4.435170157068063
 10
9.024973821989528
 20
4.484371727748691
 10
8.996858638743456
 20
4.512486910994764
 10
8.94062827225131
 20
4.512486910994764
 10
8.968743455497382
 20
4.554659685863874
 10
9.010916230366492
 20
4.533573298429319
 10
9.024973821989528
 20
4.547630890052356
 10
9.003887434554974
 20
4.568717277486911
  0
LWPOLYLINE
  5
AD
330
17
100
AcDbEntity
  8
A-WALL
100
AcDbPolyline
 90
5
 70
1
 10
8.9757722513089
 20
4.498429319371728
 10
9.010916230366492
 20
4.477342931937173
 10
8.989829842931938
 20
4.421112565445026
 10
8.947657068062828
 20
4.442198952879581
 10
8.947657068062828
 20
4.477342931937173
  0
LWPOLYLINE
  5
AE
330
17
100
AcDbEntity
  8
A-WALL
100
AcDbPolyline
 90
9
 70
1
 10
9.502931937172775
 20
4.568717277486911
 10
9.495903141361257
 20
4.547630890052356
 10
9.53104712041885
 20
4.561688481675393
 10
9.538075916230367
 20
4.540602094240838
 10
9.495903141361257
 20
4.49140052356021
 10
9.552133507853403
 20
4.49140052356021
 10
9.52401832460733
 20
4.505458115183246
 10
9.559162303664921
 20
4.547630890052356
 10
9.552133507853403
 20
4.568717277486911
  0
LWPOLYLINE
  5
AF
330
17
100
AcDbEntity
  8
A-WALL
100
AcDbPolyline
 90
8
 70
1
 10
9.538075916230367
 20
4.779581151832461
 10
9.53104712041885
 20
4.751465968586388
 10
9.580248691099477
 20
4.772552356020943
 10
9.601335078534031
 20
4.7444371727748695
 10
9.53104712041885
 20
4.7233507853403145
 10
9.52401832460733
 20
4.681178010471204
 10
9.615392670157068
 20
4.667120418848167
 10
9.615392670157068
 20
4.772552356020943
  0
LWPOLYLINE
  5
B0
330
17
100
AcDbEntity
  8
A-WALL
100
AcDbPolyline
 90
4
 70
1
 10
9.587277486910995
 20
4.7303795811518325
 10
9.601335078534031
 20
4.7022643979057595
 10
9.552133507853403
 20
4.681178010471204
 10
9.538075916230367
 20
4.7022643979057595
  0
LWPOLYLINE
  5
B1
330
17
100
AcDbEntity
  8
A-WALL
100
AcDbPolyline
 90
12
 70
1
 10
9.109319371727748
 20
4.779581151832461
 10
9.109319371727748
 20
4.667120418848167
 10
9.130405759162304
 20
4.758494764397906
 10
9.165549738219896
 20
4.772552356020943
 10
9.214751308900524
 20
4.681178010471204
 10
9.214751308900524
 20
4.660091623036649
 10
9.179607329842932
 20
4.639005235602094
 10
9.200693717277487
 20
4.617918848167539
 10
9.22880890052356
 20
4.646034031413612
 10
9.27098167539267
 20
4.786609947643979
 10
9.22880890052356
 20
4.7022643979057595
 10
9.193664921465968
 20
4.779581151832461
  0
LWPOLYLINE
  5
B2
330
17
100
AcDbEntity
  8
A-WALL
100
AcDbPolyline
 90
9
 70
1
 10
8.912513089005236
 20
4.779581151832461
 10
8.912513089005236
 20
4.674149214659686
 10
8.93359947643979
 20
4.674149214659686
 10
8.93359947643979
 20
4.751465968586388
 10
8.968743455497382
 20
4.772552356020943
 10
8.989829842931938
 20
4.751465968586388
 10
8.989829842931938
 20
4.674149214659686
 10
9.003887434554974
 20
4.667120418848167
 10
9.003887434554974
 20
4.772552356020943
  0
LWPOLYLINE
  5
B3
330
17
100
AcDbEntity
  8
A-WALL
100
AcDbPolyline
 90
7
 70
1
 10
9.053089005235602
 20
4.821753926701571
 10
9.032002617801048
 20
4.779581151832461
 10
9.046060209424084
 20
4.681178010471204
 10
9.081204188481676
 20
4.667120418848167
 10
9.06011780104712
 20
4.6952356020942405
 10
9.06011780104712
 20
4.765523560209425
 10
9.081204188481676
 20
4.779581151832461
  0
LWPOLYLINE
  5
B4
330
17
100
AcDbEntity
  8
A-WALL
100
AcDbPolyline
 90
4
 70
1
 10
9.720824607329844
 20
4.828782722513089
 10
9.699738219895288
 20
4.821753926701571
 10
9.699738219895288
 20
4.667120418848167
 10
9.720824607329844
 20
4.674149214659686
  0
LWPOLYLINE
  5
B5
330
17
100
AcDbEntity
  8
A-WALL
100
AcDbPolyline
 90
4
 70
1
 10
9.65053664921466
 20
4.828782722513089
 10
9.65053664921466
 20
4.674149214659686
 10
9.664594240837696
 20
4.667120418848167
 10
9.664594240837696
 20
4.814725130890053
  0
LWPOLYLINE
  5
B6
330
17
100
AcDbEntity
  8
A-WALL
100
AcDbPolyline
 90
11
 70
1
 10
9.369384816753927
 20
4.828782722513089
 10
9.369384816753927
 20
4.674149214659686
 10
9.383442408376963
 20
4.667120418848167
 10
9.3975
 20
4.7444371727748695
 10
9.460759162303665
 20
4.7444371727748695
 10
9.48184554973822
 20
4.667120418848167
 10
9.48184554973822
 20
4.828782722513089
 10
9.467787958115183
 20
4.821753926701571
 10
9.460759162303665
 20
4.758494764397906
 10
9.3975
 20
4.758494764397906
 10
9.383442408376963
 20
4.828782722513089
  0
LWPOLYLINE
  5
B7
330
17
100
AcDbEntity
  8
A-WALL
100
AcDbPolyline
 90
12
 70
1
 10
8.77193717277487
 20
4.828782722513089
 10
8.77193717277487
 20
4.674149214659686
 10
8.877369109947644
 20
4.674149214659686
 10
8.877369109947644
 20
4.6882068062827225
 10
8.778965968586387
 20
4.7022643979057595
 10
8.793023560209424
 20
4.7444371727748695
 10
8.877369109947644
 20
4.7444371727748695
 10
8.85628272251309
 20
4.765523560209425
 10
8.793023560209424
 20
4.758494764397906
 10
8.785994764397905
 20
4.807696335078534
 10
8.870340314136126
 20
4.807696335078534
 10
8.877369109947644
 20
4.828782722513089
  0
LWPOLYLINE
  5
B8
330
17
100
AcDbEntity
  8
A-WALL
100
AcDbPolyline
 90
13
 70
1
 10
10.94383507853403
 20
4.807696335078534
 10
10.94383507853403
 20
4.765523560209425
 10
10.971950261780105
 20
4.737408376963351
 10
10.99303664921466
 20
4.751465968586388
 10
10.964921465968587
 20
4.765523560209425
 10
10.957892670157069
 20
4.800667539267016
 10
10.986007853403141
 20
4.821753926701571
 10
11.105497382198953
 20
4.737408376963351
 10
11.105497382198953
 20
4.835811518324608
 10
11.084410994764399
 20
4.821753926701571
 10
11.084410994764399
 20
4.765523560209425
 10
11.007094240837697
 20
4.835811518324608
 10
10.971950261780105
 20
4.835811518324608
  0
LWPOLYLINE
  5
B9
330
17
100
AcDbEntity
  8
A-WALL
100
AcDbPolyline
 90
7
 70
1
 10
11.105497382198953
 20
5.004502617801047
 10
11.056295811518325
 20
5.025589005235602
 10
11.035209424083769
 20
5.004502617801047
 10
10.94383507853403
 20
5.004502617801047
 10
10.94383507853403
 20
4.99044502617801
 10
11.063324607329843
 20
4.920157068062827
 10
11.063324607329843
 20
4.976387434554974
  0
LWPOLYLINE
  5
BA
330
17
100
AcDbEntity
  8
A-WALL
100
AcDbPolyline
 90
3
 70
1
 10
10.986007853403141
 20
4.983416230366492
 10
11.042238219895289
 20
4.99044502617801
 10
11.049267015706807
 20
4.948272251308901
  0
LWPOLYLINE
  5
BB
330
17
100
AcDbEntity
  8
A-WALL
100
AcDbPolyline
 90
12
 70
1
 10
10.94383507853403
 20
5.1169633507853405
 10
10.94383507853403
 20
5.0818193717277484
 10
10.971950261780105
 20
5.053704188481675
 10
11.021151832460733
 20
5.053704188481675
 10
11.042238219895289
 20
5.07479057591623
 10
11.042238219895289
 20
5.1380497382198955
 10
11.091439790575917
 20
5.109934554973822
 10
11.070353403141361
 20
5.053704188481675
 10
11.105497382198953
 20
5.0818193717277484
 10
11.098468586387435
 20
5.1310209424083775
 10
11.042238219895289
 20
5.159136125654451
 10
10.971950261780105
 20
5.152107329842932
  0
LWPOLYLINE
  5
BC
330
17
100
AcDbEntity
  8
A-WALL
100
AcDbPolyline
 90
4
 70
1
 10
10.986007853403141
 20
5.1380497382198955
 10
11.035209424083769
 20
5.109934554973822
 10
11.000065445026179
 20
5.067761780104712
 10
10.957892670157069
 20
5.095876963350785
  0
LWPOLYLINE
  5
BD
330
17
100
AcDbEntity
  8
A-WALL
100
AcDbPolyline
 90
4
 70
1
 10
6.810903141361257
 20
5.271596858638744
 10
6.810903141361257
 20
5.187251308900524
 10
6.824960732984294
 20
5.180222513089006
 10
6.824960732984294
 20
5.271596858638744
  0
LWPOLYLINE
  5
BE
330
17
100
AcDbEntity
  8
A-WALL
100
AcDbPolyline
 90
15
 70
1
 10
11.098468586387435
 20
5.41217277486911
 10
11.007094240837697
 20
5.405143979057592
 10
10.986007853403141
 20
5.384057591623037
 10
11.000065445026179
 20
5.24348167539267
 10
11.105497382198953
 20
5.24348167539267
 10
11.105497382198953
 20
5.264568062827225
 10
11.028180628272251
 20
5.264568062827225
 10
11.000065445026179
 20
5.292683246073299
 10
11.021151832460733
 20
5.320798429319372
 10
11.105497382198953
 20
5.320798429319372
 10
11.091439790575917
 20
5.341884816753927
 10
11.028180628272251
 20
5.334856020942408
 10
11.000065445026179
 20
5.362971204188482
 10
11.021151832460733
 20
5.391086387434555
 10
11.105497382198953
 20
5.391086387434555
  0
LWPOLYLINE
  5
BF
330
17
100
AcDbEntity
  8
A-WALL
100
AcDbPolyline
 90
3
 70
1
 10
6.817931937172775
 20
5.468403141361256
 10
6.810903141361257
 20
5.377028795811518
 10
6.824960732984294
 20
5.37
  0
LWPOLYLINE
  5
C0
330
17
100
AcDbEntity
  8
A-WALL
100
AcDbPolyline
 90
3
 70
1
 10
9.095261780104712
 20
5.637094240837697
 10
9.095261780104712
 20
5.637094240837697
 10
10.57130890052356
 20
5.637094240837697
  0
LWPOLYLINE
  5
C1
330
17
100
AcDbEntity
  8
A-WALL
100
AcDbPolyline
 90
3
 70
1
 10
6.817931937172775
 20
5.658180628272252
 10
6.810903141361257
 20
5.5668062827225135
 10
6.824960732984294
 20
5.559777486910995
  0
LWPOLYLINE
  5
C2
330
17
100
AcDbEntity
  8
A-WALL
100
AcDbPolyline
 90
4
 70
1
 10
5.201308900523561
 20
5.932303664921466
 10
5.201308900523561
 20
5.883102094240837
 10
5.215366492146597
 20
5.883102094240837
 10
5.222395287958116
 20
5.9252748691099475
  0
LWPOLYLINE
  5
C3
330
17
100
AcDbEntity
  8
A-WALL
100
AcDbPolyline
 90
16
 70
1
 10
5.45434554973822
 20
6.030706806282723
 10
5.45434554973822
 20
5.911217277486911
 10
5.468403141361256
 20
5.911217277486911
 10
5.468403141361256
 20
5.995562827225131
 10
5.49651832460733
 20
6.016649214659686
 10
5.5246335078534035
 20
5.995562827225131
 10
5.5246335078534035
 20
5.911217277486911
 10
5.53869109947644
 20
5.911217277486911
 10
5.53869109947644
 20
5.995562827225131
 10
5.5668062827225135
 20
6.016649214659686
 10
5.594921465968587
 20
5.988534031413613
 10
5.587892670157069
 20
5.918246073298429
 10
5.608979057591623
 20
5.918246073298429
 10
5.608979057591623
 20
6.009620418848168
 10
5.587892670157069
 20
6.030706806282723
 10
5.5457198952879585
 20
6.016649214659686
  0
LWPOLYLINE
  5
C4
330
17
100
AcDbEntity
  8
A-WALL
100
AcDbPolyline
 90
4
 70
1
 10
6.810903141361257
 20
6.037735602094241
 10
6.810903141361257
 20
5.9463612565445025
 10
6.824960732984294
 20
5.9463612565445025
 10
6.824960732984294
 20
6.037735602094241
  0
LWPOLYLINE
  5
C5
330
17
100
AcDbEntity
  8
A-WALL
100
AcDbPolyline
 90
10
 70
1
 10
5.28565445026178
 20
6.072879581151833
 10
5.257539267015707
 20
6.037735602094241
 10
5.278625654450262
 20
6.00259162303665
 10
5.250510471204189
 20
5.9533900523560215
 10
5.28565445026178
 20
5.911217277486911
 10
5.32782722513089
 20
5.911217277486911
 10
5.362971204188482
 20
5.9533900523560215
 10
5.334856020942408
 20
6.00259162303665
 10
5.348913612565445
 20
6.051793193717278
 10
5.32782722513089
 20
6.072879581151833
  0
LWPOLYLINE
  5
C6
330
17
100
AcDbEntity
  8
A-WALL
100
AcDbPolyline
 90
5
 70
1
 10
5.292683246073299
 20
5.995562827225131
 10
5.320798429319372
 20
5.995562827225131
 10
5.341884816753927
 20
5.967447643979058
 10
5.313769633507854
 20
5.9252748691099475
 10
5.271596858638744
 20
5.9463612565445025
  0
LWPOLYLINE
  5
C7
330
17
100
AcDbEntity
  8
A-WALL
100
AcDbPolyline
 90
4
 70
1
 10
5.292683246073299
 20
6.058821989528796
 10
5.334856020942408
 20
6.037735602094241
 10
5.313769633507854
 20
6.009620418848168
 10
5.278625654450262
 20
6.023678010471205
  0
LWPOLYLINE
  5
C8
330
17
100
AcDbEntity
  8
A-WALL
100
AcDbPolyline
 90
7
 70
1
 10
5.145078534031414
 20
6.072879581151833
 10
5.1169633507853405
 20
6.058821989528796
 10
5.053704188481675
 20
5.9604188481675395
 10
5.1169633507853405
 20
5.9533900523560215
 10
5.1310209424083775
 20
5.911217277486911
 10
5.166164921465969
 20
5.9533900523560215
 10
5.145078534031414
 20
5.974476439790576
  0
LWPOLYLINE
  5
C9
330
17
100
AcDbEntity
  8
A-WALL
100
AcDbPolyline
 90
4
 70
1
 10
5.1239921465968585
 20
6.030706806282723
 10
5.1310209424083775
 20
5.981505235602095
 10
5.088848167539267
 20
5.967447643979058
 10
5.0818193717277484
 20
5.988534031413613
  0
LWPOLYLINE
  5
CA
330
17
100
AcDbEntity
  8
A-WALL
100
AcDbPolyline
 90
5
 70
1
 10
4.948272251308901
 20
6.023678010471205
 10
4.99044502617801
 20
6.030706806282723
 10
4.99044502617801
 20
5.918246073298429
 10
5.011531413612565
 20
5.911217277486911
 10
5.011531413612565
 20
6.072879581151833
  0
LWPOLYLINE
  5
CB
330
17
100
AcDbEntity
  8
A-WALL
100
AcDbPolyline
 90
8
 70
1
 10
5.637094240837697
 20
6.072879581151833
 10
5.637094240837697
 20
6.051793193717278
 10
5.679267015706807
 20
6.058821989528796
 10
5.637094240837697
 20
5.995562827225131
 10
5.700353403141361
 20
5.995562827225131
 10
5.66520942408377
 20
6.009620418848168
 10
5.700353403141361
 20
6.058821989528796
 10
5.66520942408377
 20
6.079908376963351
  0
LWPOLYLINE
  5
CC
330
17
100
AcDbEntity
  8
A-WALL
100
AcDbPolyline
 90
4
 70
1
 10
6.937421465968587
 20
6.100994764397906
 10
6.92336387434555
 20
6.065850785340314
 10
6.979594240837696
 20
6.037735602094241
 10
6.986623036649215
 20
6.100994764397906
  0
LWPOLYLINE
  5
CD
330
17
100
AcDbEntity
  8
A-WALL
100
AcDbPolyline
 90
4
 70
1
 10
6.937421465968587
 20
6.065850785340314
 10
6.958507853403142
 20
6.093965968586388
 10
6.986623036649215
 20
6.072879581151833
 10
6.96553664921466
 20
6.051793193717278
  0
LWPOLYLINE
  5
CE
330
17
100
AcDbEntity
  8
A-WALL
100
AcDbPolyline
 90
4
 70
1
 10
6.810903141361257
 20
6.227513089005236
 10
6.810903141361257
 20
6.136138743455498
 10
6.824960732984294
 20
6.136138743455498
 10
6.824960732984294
 20
6.227513089005236
  0
LWPOLYLINE
  5
CF
330
17
100
AcDbEntity
  8
A-WALL
100
AcDbPolyline
 90
4
 70
1
 10
5.601950261780105
 20
6.283743455497382
 10
5.601950261780105
 20
6.178311518324607
 10
5.616007853403142
 20
6.171282722513089
 10
5.616007853403142
 20
6.276714659685864
  0
LWPOLYLINE
  5
D0
330
17
100
AcDbEntity
  8
A-WALL
100
AcDbPolyline
 90
4
 70
1
 10
5.426230366492146
 20
6.283743455497382
 10
5.426230366492146
 20
6.178311518324607
 10
5.440287958115183
 20
6.171282722513089
 10
5.440287958115183
 20
6.283743455497382
  0
LWPOLYLINE
  5
D1
330
17
100
AcDbEntity
  8
A-WALL
100
AcDbPolyline
 90
4
 70
1
 10
4.371910994764398
 20
6.283743455497382
 10
4.371910994764398
 20
6.178311518324607
 10
4.385968586387435
 20
6.171282722513089
 10
4.385968586387435
 20
6.283743455497382
  0
LWPOLYLINE
  5
D2
330
17
100
AcDbEntity
  8
A-WALL
100
AcDbPolyline
 90
4
 70
1
 10
8.153403141361256
 20
6.2907722513089
 10
8.146374345549738
 20
6.241570680628272
 10
8.160431937172776
 20
6.234541884816754
 10
8.174489528795812
 20
6.276714659685864
  0
LWPOLYLINE
  5
D3
330
17
100
AcDbEntity
  8
A-WALL
100
AcDbPolyline
 90
8
 70
1
 10
6.325916230366492
 20
6.283743455497382
 10
6.311858638743455
 20
6.255628272251309
 10
6.3680890052356025
 20
6.276714659685864
 10
6.3891753926701575
 20
6.24859947643979
 10
6.318887434554974
 20
6.227513089005236
 10
6.311858638743455
 20
6.185340314136126
 10
6.403232984293194
 20
6.171282722513089
 10
6.403232984293194
 20
6.276714659685864
  0
LWPOLYLINE
  5
D4
330
17
100
AcDbEntity
  8
A-WALL
100
AcDbPolyline
 90
4
 70
1
 10
6.325916230366492
 20
6.199397905759162
 10
6.3399738219895285
 20
6.220484293193717
 10
6.3891753926701575
 20
6.220484293193717
 10
6.3680890052356025
 20
6.185340314136126
  0
LWPOLYLINE
  5
D5
330
17
100
AcDbEntity
  8
A-WALL
100
AcDbPolyline
 90
11
 70
1
 10
6.220484293193717
 20
6.2907722513089
 10
6.185340314136126
 20
6.262657068062827
 10
6.185340314136126
 20
6.199397905759162
 10
6.220484293193717
 20
6.171282722513089
 10
6.255628272251309
 20
6.171282722513089
 10
6.283743455497382
 20
6.192369109947644
 10
6.276714659685864
 20
6.206426701570681
 10
6.220484293193717
 20
6.185340314136126
 10
6.199397905759162
 20
6.220484293193717
 10
6.269685863874345
 20
6.227513089005236
 10
6.283743455497382
 20
6.262657068062827
  0
LWPOLYLINE
  5
D6
330
17
100
AcDbEntity
  8
A-WALL
100
AcDbPolyline
 90
3
 70
1
 10
6.199397905759162
 20
6.24859947643979
 10
6.227513089005236
 20
6.276714659685864
 10
6.269685863874345
 20
6.255628272251309
  0
LWPOLYLINE
  5
D7
330
17
100
AcDbEntity
  8
A-WALL
100
AcDbPolyline
 90
5
 70
1
 10
6.164253926701571
 20
6.2907722513089
 10
6.108023560209424
 20
6.283743455497382
 10
6.108023560209424
 20
6.171282722513089
 10
6.129109947643979
 20
6.24859947643979
 10
6.171282722513089
 20
6.276714659685864
  0
LWPOLYLINE
  5
D8
330
17
100
AcDbEntity
  8
A-WALL
100
AcDbPolyline
 90
12
 70
1
 10
5.805785340314136
 20
6.2907722513089
 10
5.770641361256545
 20
6.24859947643979
 10
5.770641361256545
 20
6.213455497382199
 10
5.798756544502618
 20
6.178311518324607
 10
5.847958115183246
 20
6.178311518324607
 10
5.854986910994764
 20
6.157225130890052
 10
5.840929319371728
 20
6.143167539267016
 10
5.777670157068063
 20
6.157225130890052
 10
5.777670157068063
 20
6.143167539267016
 10
5.833900523560209
 20
6.122081151832461
 10
5.876073298429319
 20
6.171282722513089
 10
5.876073298429319
 20
6.283743455497382
  0
LWPOLYLINE
  5
D9
330
17
100
AcDbEntity
  8
A-WALL
100
AcDbPolyline
 90
4
 70
1
 10
5.812814136125654
 20
6.276714659685864
 10
5.854986910994764
 20
6.24859947643979
 10
5.833900523560209
 20
6.185340314136126
 10
5.784698952879581
 20
6.220484293193717
  0
LWPOLYLINE
  5
DA
330
17
100
AcDbEntity
  8
A-WALL
100
AcDbPolyline
 90
9
 70
1
 10
5.651151832460733
 20
6.283743455497382
 10
5.651151832460733
 20
6.178311518324607
 10
5.672238219895288
 20
6.178311518324607
 10
5.672238219895288
 20
6.255628272251309
 10
5.70738219895288
 20
6.276714659685864
 10
5.728468586387435
 20
6.255628272251309
 10
5.728468586387435
 20
6.178311518324607
 10
5.742526178010471
 20
6.171282722513089
 10
5.742526178010471
 20
6.283743455497382
  0
LWPOLYLINE
  5
DB
330
17
100
AcDbEntity
  8
A-WALL
100
AcDbPolyline
 90
9
 70
1
 10
5.475431937172775
 20
6.283743455497382
 10
5.475431937172775
 20
6.178311518324607
 10
5.49651832460733
 20
6.178311518324607
 10
5.49651832460733
 20
6.255628272251309
 10
5.5316623036649215
 20
6.276714659685864
 10
5.5527486910994766
 20
6.255628272251309
 10
5.5527486910994766
 20
6.178311518324607
 10
5.5668062827225135
 20
6.171282722513089
 10
5.5668062827225135
 20
6.283743455497382
  0
LWPOLYLINE
  5
DC
330
17
100
AcDbEntity
  8
A-WALL
100
AcDbPolyline
 90
9
 70
1
 10
4.934214659685864
 20
6.283743455497382
 10
4.856897905759163
 20
6.283743455497382
 10
4.856897905759163
 20
6.171282722513089
 10
4.870955497382199
 20
6.171282722513089
 10
4.870955497382199
 20
6.24859947643979
 10
4.899070680628272
 20
6.276714659685864
 10
4.927185863874346
 20
6.262657068062827
 10
4.927185863874346
 20
6.178311518324607
 10
4.948272251308901
 20
6.178311518324607
  0
LWPOLYLINE
  5
DD
330
17
100
AcDbEntity
  8
A-WALL
100
AcDbPolyline
 90
10
 70
1
 10
4.758494764397906
 20
6.2907722513089
 10
4.7233507853403145
 20
6.255628272251309
 10
4.7233507853403145
 20
6.206426701570681
 10
4.7444371727748695
 20
6.178311518324607
 10
4.793638743455498
 20
6.171282722513089
 10
4.821753926701571
 20
6.206426701570681
 10
4.765523560209425
 20
6.185340314136126
 10
4.737408376963351
 20
6.213455497382199
 10
4.828782722513089
 20
6.24859947643979
 10
4.807696335078534
 20
6.283743455497382
  0
LWPOLYLINE
  5
DE
330
17
100
AcDbEntity
  8
A-WALL
100
AcDbPolyline
 90
4
 70
1
 10
4.7444371727748695
 20
6.262657068062827
 10
4.786609947643979
 20
6.276714659685864
 10
4.807696335078534
 20
6.24859947643979
 10
4.751465968586388
 20
6.241570680628272
  0
LWPOLYLINE
  5
DF
330
17
100
AcDbEntity
  8
A-WALL
100
AcDbPolyline
 90
10
 70
1
 10
4.519515706806283
 20
6.2907722513089
 10
4.484371727748691
 20
6.262657068062827
 10
4.484371727748691
 20
6.199397905759162
 10
4.547630890052356
 20
6.171282722513089
 10
4.575746073298429
 20
6.213455497382199
 10
4.519515706806283
 20
6.185340314136126
 10
4.498429319371728
 20
6.241570680628272
 10
4.526544502617801
 20
6.276714659685864
 10
4.561688481675393
 20
6.255628272251309
 10
4.575746073298429
 20
6.269685863874345
  0
LWPOLYLINE
  5
E0
330
17
100
AcDbEntity
  8
A-WALL
100
AcDbPolyline
 90
7
 70
1
 10
4.435170157068063
 20
6.325916230366492
 10
4.414083769633508
 20
6.283743455497382
 10
4.428141361256545
 20
6.185340314136126
 10
4.463285340314136
 20
6.171282722513089
 10
4.442198952879581
 20
6.199397905759162
 10
4.442198952879581
 20
6.262657068062827
 10
4.463285340314136
 20
6.283743455497382
  0
LWPOLYLINE
  5
E1
330
17
100
AcDbEntity
  8
A-WALL
100
AcDbPolyline
 90
6
 70
1
 10
6.009620418848168
 20
6.3329450261780105
 10
5.9463612565445025
 20
6.171282722513089
 10
5.988534031413613
 20
6.220484293193717
 10
6.051793193717278
 20
6.220484293193717
 10
6.086937172774869
 20
6.171282722513089
 10
6.037735602094241
 20
6.318887434554974
  0
LWPOLYLINE
  5
E2
330
17
100
AcDbEntity
  8
A-WALL
100
AcDbPolyline
 90
4
 70
1
 10
6.016649214659686
 20
6.304829842931937
 10
6.04476439790576
 20
6.255628272251309
 10
6.030706806282723
 20
6.234541884816754
 10
5.988534031413613
 20
6.24859947643979
  0
LWPOLYLINE
  5
E3
330
17
100
AcDbEntity
  8
A-WALL
100
AcDbPolyline
 90
6
 70
1
 10
5.271596858638744
 20
6.3329450261780105
 10
5.271596858638744
 20
6.178311518324607
 10
5.362971204188482
 20
6.178311518324607
 10
5.398115183246073
 20
6.234541884816754
 10
5.391086387434555
 20
6.297801047120419
 10
5.355942408376963
 20
6.3329450261780105
  0
LWPOLYLINE
  5
E4
330
17
100
AcDbEntity
  8
A-WALL
100
AcDbPolyline
 90
7
 70
1
 10
5.292683246073299
 20
6.318887434554974
 10
5.355942408376963
 20
6.311858638743455
 10
5.377028795811518
 20
6.283743455497382
 10
5.377028795811518
 20
6.220484293193717
 10
5.348913612565445
 20
6.192369109947644
 10
5.28565445026178
 20
6.199397905759162
 10
5.278625654450262
 20
6.297801047120419
  0
LWPOLYLINE
  5
E5
330
17
100
AcDbEntity
  8
A-WALL
100
AcDbPolyline
 90
12
 70
1
 10
4.603861256544502
 20
6.3329450261780105
 10
4.603861256544502
 20
6.171282722513089
 10
4.617918848167539
 20
6.171282722513089
 10
4.617918848167539
 20
6.24859947643979
 10
4.646034031413612
 20
6.276714659685864
 10
4.681178010471204
 20
6.255628272251309
 10
4.674149214659686
 20
6.185340314136126
 10
4.6882068062827225
 20
6.171282722513089
 10
4.6952356020942405
 20
6.269685863874345
 10
4.667120418848167
 20
6.2907722513089
 10
4.624947643979057
 20
6.283743455497382
 10
4.617918848167539
 20
6.3329450261780105
  0
LWPOLYLINE
  5
E6
330
17
100
AcDbEntity
  8
A-WALL
100
AcDbPolyline
 90
12
 70
1
 10
4.224306282722513
 20
6.3329450261780105
 10
4.224306282722513
 20
6.178311518324607
 10
4.238363874345549
 20
6.171282722513089
 10
4.238363874345549
 20
6.227513089005236
 10
4.266479057591623
 20
6.255628272251309
 10
4.343795811518325
 20
6.171282722513089
 10
4.287565445026178
 20
6.262657068062827
 10
4.343795811518325
 20
6.3329450261780105
 10
4.32270942408377
 20
6.3329450261780105
 10
4.252421465968586
 20
6.262657068062827
 10
4.238363874345549
 20
6.269685863874345
 10
4.245392670157068
 20
6.318887434554974
  0
LWPOLYLINE
  5
E7
330
17
100
AcDbEntity
  8
A-WALL
100
AcDbPolyline
 90
12
 70
1
 10
5.095876963350785
 20
6.3399738219895285
 10
5.060732984293193
 20
6.311858638743455
 10
5.07479057591623
 20
6.262657068062827
 10
5.046675392670157
 20
6.241570680628272
 10
5.039646596858639
 20
6.206426701570681
 10
5.07479057591623
 20
6.171282722513089
 10
5.1310209424083775
 20
6.192369109947644
 10
5.166164921465969
 20
6.171282722513089
 10
5.159136125654451
 20
6.241570680628272
 10
5.1310209424083775
 20
6.227513089005236
 10
5.109934554973822
 20
6.255628272251309
 10
5.1380497382198955
 20
6.311858638743455
  0
LWPOLYLINE
  5
E8
330
17
100
AcDbEntity
  8
A-WALL
100
AcDbPolyline
 90
4
 70
1
 10
5.053704188481675
 20
6.220484293193717
 10
5.095876963350785
 20
6.24859947643979
 10
5.1239921465968585
 20
6.199397905759162
 10
5.0818193717277484
 20
6.185340314136126
  0
LWPOLYLINE
  5
E9
330
17
100
AcDbEntity
  8
A-WALL
100
AcDbPolyline
 90
4
 70
1
 10
5.0818193717277484
 20
6.311858638743455
 10
5.109934554973822
 20
6.318887434554974
 10
5.1169633507853405
 20
6.2907722513089
 10
5.095876963350785
 20
6.276714659685864
  0
LWPOLYLINE
  5
EA
330
17
100
AcDbEntity
  8
A-WALL
100
AcDbPolyline
 90
14
 70
1
 10
8.399410994764398
 20
6.382146596858639
 10
8.399410994764398
 20
6.262657068062827
 10
8.43455497382199
 20
6.3680890052356025
 10
8.46969895287958
 20
6.3540314136125655
 10
8.476727748691099
 20
6.262657068062827
 10
8.483756544502619
 20
6.3470026178010475
 10
8.504842931937173
 20
6.3680890052356025
 10
8.539986910994765
 20
6.3540314136125655
 10
8.539986910994765
 20
6.269685863874345
 10
8.561073298429319
 20
6.276714659685864
 10
8.539986910994765
 20
6.382146596858639
 10
8.51187172774869
 20
6.3891753926701575
 10
8.483756544502619
 20
6.3680890052356025
 10
8.455641361256545
 20
6.3891753926701575
  0
LWPOLYLINE
  5
EB
330
17
100
AcDbEntity
  8
A-WALL
100
AcDbPolyline
 90
15
 70
1
 10
8.22369109947644
 20
6.431348167539267
 10
8.209633507853404
 20
6.3470026178010475
 10
8.26586387434555
 20
6.361060209424084
 10
8.286950261780104
 20
6.304829842931937
 10
8.26586387434555
 20
6.283743455497382
 10
8.216662303664922
 20
6.311858638743455
 10
8.202604712041884
 20
6.297801047120419
 10
8.26586387434555
 20
6.262657068062827
 10
8.301007853403142
 20
6.2907722513089
 10
8.30803664921466
 20
6.3399738219895285
 10
8.272892670157068
 20
6.375117801047121
 10
8.237748691099476
 20
6.3680890052356025
 10
8.230719895287958
 20
6.403232984293194
 10
8.293979057591622
 20
6.410261780104713
 10
8.301007853403142
 20
6.431348167539267
  0
LWPOLYLINE
  5
EC
330
17
100
AcDbEntity
  8
A-WALL
100
AcDbPolyline
 90
7
 70
1
 10
8.090143979057592
 20
6.431348167539267
 10
8.005798429319372
 20
6.325916230366492
 10
8.01282722513089
 20
6.304829842931937
 10
8.069057591623038
 20
6.304829842931937
 10
8.083115183246074
 20
6.262657068062827
 10
8.118259162303666
 20
6.311858638743455
 10
8.090143979057592
 20
6.3329450261780105
  0
LWPOLYLINE
  5
ED
330
17
100
AcDbEntity
  8
A-WALL
100
AcDbPolyline
 90
4
 70
1
 10
8.069057591623038
 20
6.3891753926701575
 10
8.076086387434556
 20
6.3329450261780105
 10
8.040942408376964
 20
6.318887434554974
 10
8.026884816753928
 20
6.3329450261780105
  0
LWPOLYLINE
  5
EE
330
17
100
AcDbEntity
  8
A-WALL
100
AcDbPolyline
 90
8
 70
1
 10
8.617303664921467
 20
6.438376963350786
 10
8.582159685863875
 20
6.424319371727749
 10
8.582159685863875
 20
6.410261780104713
 10
8.624332460732985
 20
6.410261780104713
 10
8.582159685863875
 20
6.3470026178010475
 10
8.64541884816754
 20
6.3540314136125655
 10
8.617303664921467
 20
6.3680890052356025
 10
8.64541884816754
 20
6.403232984293194
  0
LWPOLYLINE
  5
EF
330
17
100
AcDbEntity
  8
A-WALL
100
AcDbPolyline
 90
3
 70
1
 10
6.817931937172775
 20
6.614096858638743
 10
6.810903141361257
 20
6.522722513089005
 10
6.824960732984294
 20
6.515693717277487
  0
LWPOLYLINE
  5
F0
330
17
100
AcDbEntity
  8
A-WALL
100
AcDbPolyline
 90
4
 70
1
 10
6.958507853403142
 20
6.621125654450262
 10
6.92336387434555
 20
6.578952879581152
 10
6.972565445026178
 20
6.54380890052356
 10
6.993651832460733
 20
6.600039267015707
  0
LWPOLYLINE
  5
F1
330
17
100
AcDbEntity
  8
A-WALL
100
AcDbPolyline
 90
4
 70
1
 10
6.937421465968587
 20
6.58598167539267
 10
6.951479057591623
 20
6.600039267015707
 10
6.986623036649215
 20
6.58598167539267
 10
6.972565445026178
 20
6.564895287958115
  0
LWPOLYLINE
  5
F2
330
17
100
AcDbEntity
  8
A-WALL
100
AcDbPolyline
 90
16
 70
1
 10
8.64541884816754
 20
6.642212041884817
 10
8.64541884816754
 20
6.529751308900524
 10
8.666505235602095
 20
6.536780104712042
 10
8.659476439790575
 20
6.600039267015707
 10
8.680562827225131
 20
6.62815445026178
 10
8.715706806282723
 20
6.614096858638743
 10
8.715706806282723
 20
6.529751308900524
 10
8.736793193717277
 20
6.536780104712042
 10
8.736793193717277
 20
6.614096858638743
 10
8.77193717277487
 20
6.62815445026178
 10
8.785994764397905
 20
6.529751308900524
 10
8.800052356020943
 20
6.529751308900524
 10
8.785994764397905
 20
6.642212041884817
 10
8.757879581151833
 20
6.649240837696335
 10
8.736793193717277
 20
6.62815445026178
 10
8.701649214659685
 20
6.649240837696335
  0
LWPOLYLINE
  5
F3
330
17
100
AcDbEntity
  8
A-WALL
100
AcDbPolyline
 90
8
 70
1
 10
8.554044502617801
 20
6.649240837696335
 10
8.518900523560209
 20
6.621125654450262
 10
8.51187172774869
 20
6.564895287958115
 10
8.518900523560209
 20
6.54380890052356
 10
8.575130890052357
 20
6.522722513089005
 10
8.610274869109947
 20
6.550837696335079
 10
8.617303664921467
 20
6.607068062827225
 10
8.589188481675393
 20
6.642212041884817
  0
LWPOLYLINE
  5
F4
330
17
100
AcDbEntity
  8
A-WALL
100
AcDbPolyline
 90
6
 70
1
 10
8.547015706806283
 20
6.62815445026178
 10
8.582159685863875
 20
6.62815445026178
 10
8.603246073298429
 20
6.600039267015707
 10
8.582159685863875
 20
6.54380890052356
 10
8.532958115183247
 20
6.557866492146597
 10
8.525929319371729
 20
6.593010471204189
  0
LWPOLYLINE
  5
F5
330
17
100
AcDbEntity
  8
A-WALL
100
AcDbPolyline
 90
8
 70
1
 10
8.42752617801047
 20
6.649240837696335
 10
8.39238219895288
 20
6.621125654450262
 10
8.38535340314136
 20
6.564895287958115
 10
8.39238219895288
 20
6.54380890052356
 10
8.448612565445027
 20
6.522722513089005
 10
8.483756544502619
 20
6.54380890052356
 10
8.490785340314137
 20
6.607068062827225
 10
8.462670157068063
 20
6.642212041884817
  0
LWPOLYLINE
  5
F6
330
17
100
AcDbEntity
  8
A-WALL
100
AcDbPolyline
 90
6
 70
1
 10
8.420497382198953
 20
6.62815445026178
 10
8.46969895287958
 20
6.614096858638743
 10
8.476727748691099
 20
6.571924083769634
 10
8.455641361256545
 20
6.54380890052356
 10
8.406439790575917
 20
6.557866492146597
 10
8.399410994764398
 20
6.593010471204189
  0
LWPOLYLINE
  5
F7
330
17
100
AcDbEntity
  8
A-WALL
100
AcDbPolyline
 90
6
 70
1
 10
8.364267015706806
 20
6.649240837696335
 10
8.315065445026178
 20
6.642212041884817
 10
8.315065445026178
 20
6.529751308900524
 10
8.336151832460732
 20
6.536780104712042
 10
8.329123036649214
 20
6.600039267015707
 10
8.371295811518324
 20
6.62815445026178
  0
LWPOLYLINE
  5
F8
330
17
100
AcDbEntity
  8
A-WALL
100
AcDbPolyline
 90
10
 70
1
 10
8.005798429319372
 20
6.635183246073298
 10
8.005798429319372
 20
6.607068062827225
 10
8.026884816753928
 20
6.62815445026178
 10
8.062028795811518
 20
6.62815445026178
 10
8.076086387434556
 20
6.607068062827225
 10
7.9987696335078535
 20
6.578952879581152
 10
7.9987696335078535
 20
6.536780104712042
 10
8.090143979057592
 20
6.529751308900524
 10
8.090143979057592
 20
6.635183246073298
 10
8.062028795811518
 20
6.649240837696335
  0
LWPOLYLINE
  5
F9
330
17
100
AcDbEntity
  8
A-WALL
100
AcDbPolyline
 90
4
 70
1
 10
8.01282722513089
 20
6.550837696335079
 10
8.040942408376964
 20
6.58598167539267
 10
8.076086387434556
 20
6.571924083769634
 10
8.040942408376964
 20
6.536780104712042
  0
LWPOLYLINE
  5
FA
330
17
100
AcDbEntity
  8
A-WALL
100
AcDbPolyline
 90
6
 70
1
 10
8.132316753926702
 20
6.677356020942408
 10
8.132316753926702
 20
6.550837696335079
 10
8.153403141361256
 20
6.522722513089005
 10
8.167460732984294
 20
6.529751308900524
 10
8.146374345549738
 20
6.550837696335079
 10
8.160431937172776
 20
6.642212041884817
  0
LWPOLYLINE
  5
FB
330
17
100
AcDbEntity
  8
A-WALL
100
AcDbPolyline
 90
11
 70
1
 10
8.188547120418848
 20
6.691413612565445
 10
8.188547120418848
 20
6.529751308900524
 10
8.209633507853404
 20
6.536780104712042
 10
8.202604712041884
 20
6.600039267015707
 10
8.22369109947644
 20
6.62815445026178
 10
8.26586387434555
 20
6.614096858638743
 10
8.26586387434555
 20
6.529751308900524
 10
8.279921465968586
 20
6.529751308900524
 10
8.279921465968586
 20
6.62815445026178
 10
8.251806282722514
 20
6.649240837696335
 10
8.216662303664922
 20
6.635183246073298
  0
LWPOLYLINE
  5
FC
330
17
100
AcDbEntity
  8
A-WALL
100
AcDbPolyline
 90
7
 70
1
 10
7.851164921465969
 20
6.691413612565445
 10
7.851164921465969
 20
6.536780104712042
 10
7.949568062827225
 20
6.536780104712042
 10
7.97065445026178
 20
6.571924083769634
 10
7.942539267015707
 20
6.614096858638743
 10
7.956596858638743
 20
6.67032722513089
 10
7.92848167539267
 20
6.691413612565445
  0
LWPOLYLINE
  5
FD
330
17
100
AcDbEntity
  8
A-WALL
100
AcDbPolyline
 90
5
 70
1
 10
7.865222513089005
 20
6.593010471204189
 10
7.921452879581152
 20
6.607068062827225
 10
7.949568062827225
 20
6.564895287958115
 10
7.92848167539267
 20
6.54380890052356
 10
7.879280104712042
 20
6.54380890052356
  0
LWPOLYLINE
  5
FE
330
17
100
AcDbEntity
  8
A-WALL
100
AcDbPolyline
 90
4
 70
1
 10
7.865222513089005
 20
6.663298429319372
 10
7.92848167539267
 20
6.67032722513089
 10
7.942539267015707
 20
6.635183246073298
 10
7.872251308900524
 20
6.621125654450262
  0
LWPOLYLINE
  5
FF
330
17
100
AcDbEntity
  8
A-WALL
100
AcDbPolyline
 90
6
 70
1
 10
10.94383507853403
 20
6.7687303664921465
 10
10.986007853403141
 20
6.7125
 10
11.000065445026179
 20
6.719528795811518
 10
10.99303664921466
 20
6.75467277486911
 10
11.105497382198953
 20
6.75467277486911
 10
11.105497382198953
 20
6.7687303664921465
  0
LWPOLYLINE
  5
100
330
17
100
AcDbEntity
  8
A-WALL
100
AcDbPolyline
 90
16
 70
1
 10
7.04988219895288
 20
6.831989528795812
 10
6.677356020942408
 20
6.831989528795812
 10
6.663298429319372
 20
6.817931937172775
 10
6.663298429319372
 20
6.3540314136125655
 10
6.7125
 20
6.325916230366492
 10
6.663298429319372
 20
6.304829842931937
 10
6.663298429319372
 20
5.840929319371728
 10
6.803874345549739
 20
5.826871727748691
 10
6.810903141361257
 20
5.756583769633508
 10
6.824960732984294
 20
5.756583769633508
 10
6.831989528795812
 20
5.826871727748691
 10
7.063939790575916
 20
5.826871727748691
 10
7.063939790575916
 20
6.311858638743455
 10
7.014738219895288
 20
6.325916230366492
 10
7.063939790575916
 20
6.3470026178010475
 10
7.063939790575916
 20
6.817931937172775
  0
LWPOLYLINE
  5
101
330
17
100
AcDbEntity
  8
A-WALL
100
AcDbPolyline
 90
6
 70
1
 10
6.684384816753927
 20
6.304829842931937
 10
7.035824607329843
 20
6.304829842931937
 10
7.04988219895288
 20
6.2907722513089
 10
7.04988219895288
 20
5.854986910994764
 10
7.035824607329843
 20
5.840929319371728
 10
6.684384816753927
 20
5.840929319371728
  0
LWPOLYLINE
  5
102
330
17
100
AcDbEntity
  8
A-WALL
100
AcDbPolyline
 90
14
 70
1
 10
6.698442408376963
 20
6.817931937172775
 10
6.810903141361257
 20
6.817931937172775
 10
6.810903141361257
 20
6.705471204188481
 10
6.83901832460733
 20
6.817931937172775
 10
7.04988219895288
 20
6.817931937172775
 10
7.04988219895288
 20
6.3680890052356025
 10
7.028795811518325
 20
6.3470026178010475
 10
6.853075916230367
 20
6.3470026178010475
 10
6.867133507853404
 20
6.325916230366492
 10
6.831989528795812
 20
6.318887434554974
 10
6.831989528795812
 20
6.424319371727749
 10
6.79684554973822
 20
6.3470026178010475
 10
6.684384816753927
 20
6.361060209424084
 10
6.684384816753927
 20
6.803874345549739
  0
LWPOLYLINE
  5
103
330
17
100
AcDbEntity
  8
A-WALL
100
AcDbPolyline
 90
4
 70
1
 10
11.084410994764399
 20
6.853075916230367
 10
11.091439790575917
 20
6.831989528795812
 10
11.133612565445027
 20
6.83901832460733
 10
11.112526178010471
 20
6.860104712041885
  0
LWPOLYLINE
  5
104
330
17
100
AcDbEntity
  8
A-WALL
100
AcDbPolyline
 90
13
 70
1
 10
11.098468586387435
 20
6.972565445026178
 10
11.070353403141361
 20
6.993651832460733
 10
11.021151832460733
 20
6.986623036649215
 10
11.000065445026179
 20
6.958507853403142
 10
11.014123036649215
 20
6.909306282722513
 10
10.99303664921466
 20
6.902277486910995
 10
10.957892670157069
 20
6.930392670157068
 10
10.986007853403141
 20
6.979594240837696
 10
10.964921465968587
 20
6.986623036649215
 10
10.94383507853403
 20
6.92336387434555
 10
10.99303664921466
 20
6.888219895287958
 10
11.063324607329843
 20
6.888219895287958
 10
11.105497382198953
 20
6.92336387434555
  0
LWPOLYLINE
  5
105
330
17
100
AcDbEntity
  8
A-WALL
100
AcDbPolyline
 90
5
 70
1
 10
11.049267015706807
 20
6.979594240837696
 10
11.091439790575917
 20
6.951479057591623
 10
11.070353403141361
 20
6.909306282722513
 10
11.035209424083769
 20
6.909306282722513
 10
11.014123036649215
 20
6.937421465968587
  0
LWPOLYLINE
  5
106
330
17
100
AcDbEntity
  8
A-WALL
100
AcDbPolyline
 90
4
 70
1
 10
6.810903141361257
 20
6.993651832460733
 10
6.810903141361257
 20
6.902277486910995
 10
6.824960732984294
 20
6.895248691099477
 10
6.824960732984294
 20
6.993651832460733
  0
LWPOLYLINE
  5
107
330
17
100
AcDbEntity
  8
A-WALL
100
AcDbPolyline
 90
15
 70
1
 10
11.098468586387435
 20
7.099083769633508
 10
11.070353403141361
 20
7.120170157068063
 10
11.021151832460733
 20
7.099083769633508
 10
10.978979057591623
 20
7.113141361256544
 10
10.94383507853403
 20
7.085026178010471
 10
10.94383507853403
 20
7.04988219895288
 10
10.986007853403141
 20
7.021767015706806
 10
10.957892670157069
 20
7.056910994764398
 10
10.971950261780105
 20
7.092054973821989
 10
11.028180628272251
 20
7.056910994764398
 10
11.028180628272251
 20
7.085026178010471
 10
11.070353403141361
 20
7.099083769633508
 10
11.091439790575917
 20
7.077997382198953
 10
11.070353403141361
 20
7.014738219895288
 10
11.105497382198953
 20
7.042853403141361
  0
LWPOLYLINE
  5
108
330
17
100
AcDbEntity
  8
A-WALL
100
AcDbPolyline
 90
4
 70
1
 10
6.810903141361257
 20
7.183429319371728
 10
6.810903141361257
 20
7.092054973821989
 10
6.824960732984294
 20
7.092054973821989
 10
6.824960732984294
 20
7.183429319371728
  0
LWPOLYLINE
  5
109
330
17
100
AcDbEntity
  8
A-WALL
100
AcDbPolyline
 90
14
 70
1
 10
11.105497382198953
 20
7.366178010471204
 10
10.99303664921466
 20
7.366178010471204
 10
10.99303664921466
 20
7.2115445026178016
 10
11.105497382198953
 20
7.2115445026178016
 10
11.098468586387435
 20
7.232630890052357
 10
11.035209424083769
 20
7.225602094240838
 10
11.000065445026179
 20
7.253717277486911
 10
11.014123036649215
 20
7.281832460732985
 10
11.105497382198953
 20
7.281832460732985
 10
11.091439790575917
 20
7.30291884816754
 10
11.028180628272251
 20
7.295890052356021
 10
11.000065445026179
 20
7.324005235602095
 10
11.021151832460733
 20
7.352120418848168
 10
11.105497382198953
 20
7.352120418848168
  0
LWPOLYLINE
  5
10A
330
17
100
AcDbEntity
  8
A-WALL
100
AcDbPolyline
 90
4
 70
1
 10
6.824960732984294
 20
7.380235602094241
 10
6.810903141361257
 20
7.373206806282723
 10
6.810903141361257
 20
7.281832460732985
 10
6.824960732984294
 20
7.281832460732985
  0
LWPOLYLINE
  5
10B
330
17
100
AcDbEntity
  8
A-WALL
100
AcDbPolyline
 90
36
 70
1
 10
3.029410994764398
 20
7.380235602094241
 10
3.008324607329843
 20
7.085026178010471
 10
2.7763743455497383
 20
7.085026178010471
 10
2.7763743455497383
 20
6.733586387434555
 10
2.4600785340314135
 20
6.691413612565445
 10
2.4600785340314135
 20
6.297801047120419
 10
2.537395287958115
 20
6.276714659685864
 10
2.7552879581151832
 20
6.276714659685864
 10
2.7763743455497383
 20
6.24859947643979
 10
2.7763743455497383
 20
6.100994764397906
 10
2.7623167539267017
 20
6.086937172774869
 10
2.467107329842932
 20
6.086937172774869
 10
2.467107329842932
 20
5.66520942408377
 10
2.7552879581151832
 20
5.644123036649215
 10
2.7763743455497383
 20
5.62303664921466
 10
2.7763743455497383
 20
5.292683246073299
 10
3.008324607329843
 20
5.292683246073299
 10
3.008324607329843
 20
4.983416230366492
 10
3.0364397905759164
 20
4.969358638743455
 10
3.4300523560209424
 20
4.969358638743455
 10
3.4511387434554974
 20
5.039646596858639
 10
3.4511387434554974
 20
5.278625654450262
 10
3.6901178010471205
 20
5.278625654450262
 10
3.6901178010471205
 20
5.62303664921466
 10
3.7112041884816755
 20
5.644123036649215
 10
4.013442408376964
 20
5.644123036649215
 10
4.013442408376964
 20
6.058821989528796
 10
3.6901178010471205
 20
6.100994764397906
 10
3.6901178010471205
 20
6.262657068062827
 10
4.013442408376964
 20
6.297801047120419
 10
4.013442408376964
 20
6.691413612565445
 10
3.6901178010471205
 20
6.7265575916230365
 10
3.6901178010471205
 20
7.070968586387434
 10
3.4722251308900525
 20
7.070968586387434
 10
3.458167539267016
 20
7.092054973821989
 10
3.437081151832461
 20
7.380235602094241
  0
LWPOLYLINE
  5
10C
330
17
100
AcDbEntity
  8
A-WALL
100
AcDbPolyline
 90
5
 70
1
 10
3.0364397905759164
 20
5.053704188481675
 10
3.4230235602094243
 20
5.053704188481675
 10
3.4300523560209424
 20
4.997473821989529
 10
3.415994764397906
 20
4.983416230366492
 10
3.050497382198953
 20
4.983416230366492
  0
LWPOLYLINE
  5
10D
330
17
100
AcDbEntity
  8
A-WALL
100
AcDbPolyline
 90
5
 70
1
 10
3.02238219895288
 20
5.271596858638744
 10
3.0364397905759164
 20
5.28565445026178
 10
3.437081151832461
 20
5.28565445026178
 10
3.437081151832461
 20
5.0818193717277484
 10
3.0434685863874344
 20
5.0818193717277484
  0
LWPOLYLINE
  5
10E
330
17
100
AcDbEntity
  8
A-WALL
100
AcDbPolyline
 90
6
 70
1
 10
3.936125654450262
 20
6.065850785340314
 10
3.9993848167539268
 20
6.04476439790576
 10
3.9993848167539268
 20
5.679267015706807
 10
3.94315445026178
 20
5.66520942408377
 10
3.922068062827225
 20
5.686295811518325
 10
3.922068062827225
 20
6.051793193717278
  0
LWPOLYLINE
  5
10F
330
17
100
AcDbEntity
  8
A-WALL
100
AcDbPolyline
 90
6
 70
1
 10
2.51630890052356
 20
6.065850785340314
 10
2.5514528795811517
 20
6.051793193717278
 10
2.5514528795811517
 20
5.679267015706807
 10
2.5303664921465967
 20
5.66520942408377
 10
2.4741361256544505
 20
5.679267015706807
 10
2.4741361256544505
 20
6.051793193717278
  0
LWPOLYLINE
  5
110
330
17
100
AcDbEntity
  8
A-WALL
100
AcDbPolyline
 90
6
 70
1
 10
3.6901178010471205
 20
6.072879581151833
 10
3.9080104712041885
 20
6.051793193717278
 10
3.9080104712041885
 20
5.679267015706807
 10
3.893952879581152
 20
5.66520942408377
 10
3.704175392670157
 20
5.66520942408377
 10
3.6901178010471205
 20
5.672238219895288
  0
LWPOLYLINE
  5
111
330
17
100
AcDbEntity
  8
A-WALL
100
AcDbPolyline
 90
7
 70
1
 10
2.5795680628272253
 20
6.065850785340314
 10
2.7623167539267017
 20
6.065850785340314
 10
2.7763743455497383
 20
6.058821989528796
 10
2.7763743455497383
 20
5.672238219895288
 10
2.7552879581151832
 20
5.651151832460733
 10
2.5655104712041887
 20
5.672238219895288
 10
2.5655104712041887
 20
6.051793193717278
  0
LWPOLYLINE
  5
112
330
17
100
AcDbEntity
  8
A-WALL
100
AcDbPolyline
 90
6
 70
1
 10
3.936125654450262
 20
6.691413612565445
 10
3.9993848167539268
 20
6.67032722513089
 10
3.9993848167539268
 20
6.311858638743455
 10
3.98532722513089
 20
6.297801047120419
 10
3.922068062827225
 20
6.311858638743455
 10
3.922068062827225
 20
6.677356020942408
  0
LWPOLYLINE
  5
113
330
17
100
AcDbEntity
  8
A-WALL
100
AcDbPolyline
 90
5
 70
1
 10
2.537395287958115
 20
6.691413612565445
 10
2.537395287958115
 20
6.304829842931937
 10
2.488193717277487
 20
6.297801047120419
 10
2.467107329842932
 20
6.311858638743455
 10
2.467107329842932
 20
6.677356020942408
  0
LWPOLYLINE
  5
114
330
17
100
AcDbEntity
  8
A-WALL
100
AcDbPolyline
 90
7
 70
1
 10
3.704175392670157
 20
6.705471204188481
 10
3.9080104712041885
 20
6.684384816753927
 10
3.9080104712041885
 20
6.304829842931937
 10
3.893952879581152
 20
6.2907722513089
 10
3.704175392670157
 20
6.2907722513089
 10
3.6901178010471205
 20
6.297801047120419
 10
3.6901178010471205
 20
6.691413612565445
  0
LWPOLYLINE
  5
115
330
17
100
AcDbEntity
  8
A-WALL
100
AcDbPolyline
 90
6
 70
1
 10
2.7623167539267017
 20
6.705471204188481
 10
2.7763743455497383
 20
6.691413612565445
 10
2.7763743455497383
 20
6.297801047120419
 10
2.7623167539267017
 20
6.283743455497382
 10
2.572539267015707
 20
6.283743455497382
 10
2.572539267015707
 20
6.684384816753927
  0
LWPOLYLINE
  5
116
330
17
100
AcDbEntity
  8
A-WALL
100
AcDbPolyline
 90
8
 70
1
 10
2.8044895287958114
 20
7.063939790575916
 10
3.6690314136125655
 20
7.063939790575916
 10
3.683089005235602
 20
7.04988219895288
 10
3.683089005235602
 20
5.313769633507854
 10
3.6690314136125655
 20
5.299712041884817
 10
2.8044895287958114
 20
5.299712041884817
 10
2.790431937172775
 20
5.313769633507854
 10
2.790431937172775
 20
7.04988219895288
  0
LWPOLYLINE
  5
117
330
17
100
AcDbEntity
  8
A-WALL
100
AcDbPolyline
 90
7
 70
1
 10
3.0364397905759164
 20
7.274803664921466
 10
3.050497382198953
 20
7.288861256544503
 10
3.415994764397906
 20
7.288861256544503
 10
3.437081151832461
 20
7.274803664921466
 10
3.437081151832461
 20
7.085026178010471
 10
3.0364397905759164
 20
7.085026178010471
 10
3.02238219895288
 20
7.092054973821989
  0
LWPOLYLINE
  5
118
330
17
100
AcDbEntity
  8
A-WALL
100
AcDbPolyline
 90
6
 70
1
 10
3.4300523560209424
 20
7.359149214659686
 10
3.415994764397906
 20
7.295890052356021
 10
3.050497382198953
 20
7.295890052356021
 10
3.0364397905759164
 20
7.309947643979058
 10
3.050497382198953
 20
7.366178010471204
 10
3.415994764397906
 20
7.366178010471204
  0
LWPOLYLINE
  5
119
330
17
100
AcDbEntity
  8
A-WALL
100
AcDbPolyline
 90
4
 70
1
 10
6.677356020942408
 20
7.436465968586387
 10
6.684384816753927
 20
7.415379581151833
 10
6.7687303664921465
 20
7.415379581151833
 10
6.7687303664921465
 20
7.436465968586387
  0
LWPOLYLINE
  5
11A
330
17
100
AcDbEntity
  8
A-WALL
100
AcDbPolyline
 90
4
 70
1
 10
6.487578534031414
 20
7.436465968586387
 10
6.494607329842932
 20
7.415379581151833
 10
6.578952879581152
 20
7.422408376963351
 10
6.571924083769634
 20
7.436465968586387
  0
LWPOLYLINE
  5
11B
330
17
100
AcDbEntity
  8
A-WALL
100
AcDbPolyline
 90
16
 70
1
 10
4.948272251308901
 20
7.506753926701571
 10
4.934214659685864
 20
7.520811518324607
 10
4.870955497382199
 20
7.499725130890052
 10
4.842840314136126
 20
7.443494764397906
 10
4.828782722513089
 20
7.457552356020942
 10
4.842840314136126
 20
7.499725130890052
 10
4.786609947643979
 20
7.513782722513089
 10
4.779581151832461
 20
7.429437172774869
 10
4.800667539267016
 20
7.464581151832461
 10
4.835811518324608
 20
7.429437172774869
 10
4.863926701570681
 20
7.429437172774869
 10
4.877984293193717
 20
7.478638743455497
 10
4.899070680628272
 20
7.429437172774869
 10
4.913128272251309
 20
7.464581151832461
 10
4.941243455497382
 20
7.464581151832461
 10
4.906099476439791
 20
7.492696335078534
  0
LWPOLYLINE
  5
11C
330
17
100
AcDbEntity
  8
A-WALL
100
AcDbPolyline
 90
4
 70
1
 10
4.800667539267016
 20
7.506753926701571
 10
4.828782722513089
 20
7.492696335078534
 10
4.814725130890053
 20
7.471609947643979
 10
4.786609947643979
 20
7.485667539267016
  0
LWPOLYLINE
  5
11D
330
17
100
AcDbEntity
  8
A-WALL
100
AcDbPolyline
 90
10
 70
1
 10
8.561073298429319
 20
7.5700130890052355
 10
8.568102094240837
 20
7.492696335078534
 10
8.589188481675393
 20
7.492696335078534
 10
8.603246073298429
 20
7.534869109947644
 10
8.631361256544503
 20
7.485667539267016
 10
8.659476439790575
 20
7.5629842931937175
 10
8.64541884816754
 20
7.5700130890052355
 10
8.631361256544503
 20
7.534869109947644
 10
8.603246073298429
 20
7.5700130890052355
 10
8.582159685863875
 20
7.520811518324607
  0
LWPOLYLINE
  5
11E
330
17
100
AcDbEntity
  8
A-WALL
100
AcDbPolyline
 90
7
 70
1
 10
8.764908376963351
 20
7.5489267015706805
 10
8.72976439790576
 20
7.5770418848167544
 10
8.680562827225131
 20
7.5629842931937175
 10
8.659476439790575
 20
7.485667539267016
 10
8.68759162303665
 20
7.5489267015706805
 10
8.701649214659685
 20
7.485667539267016
 10
8.757879581151833
 20
7.492696335078534
  0
LWPOLYLINE
  5
11F
330
17
100
AcDbEntity
  8
A-WALL
100
AcDbPolyline
 90
4
 70
1
 10
8.715706806282723
 20
7.555955497382199
 10
8.750850785340313
 20
7.541897905759162
 10
8.72976439790576
 20
7.492696335078534
 10
8.708678010471205
 20
7.506753926701571
  0
LWPOLYLINE
  5
120
330
17
100
AcDbEntity
  8
A-WALL
100
AcDbPolyline
 90
17
 70
1
 10
5.482460732984293
 20
7.738704188481676
 10
5.482460732984293
 20
7.246688481675393
 10
5.728468586387435
 20
7.246688481675393
 10
5.728468586387435
 20
7.415379581151833
 10
5.756583769633508
 20
7.401321989528796
 10
5.756583769633508
 20
7.366178010471204
 10
5.988534031413613
 20
7.366178010471204
 10
6.009620418848168
 20
7.422408376963351
 10
6.023678010471205
 20
7.246688481675393
 10
6.269685863874345
 20
7.246688481675393
 10
6.269685863874345
 20
7.738704188481676
 10
6.037735602094241
 20
7.738704188481676
 10
6.009620418848168
 20
7.710589005235602
 10
5.988534031413613
 20
7.738704188481676
 10
5.763612565445026
 20
7.738704188481676
 10
5.742526178010471
 20
7.689502617801048
 10
5.721439790575916
 20
7.738704188481676
  0
LWPOLYLINE
  5
121
330
17
100
AcDbEntity
  8
A-WALL
100
AcDbPolyline
 90
5
 70
1
 10
6.178311518324607
 20
7.359149214659686
 10
6.262657068062827
 20
7.345091623036649
 10
6.24859947643979
 20
7.253717277486911
 10
6.150196335078534
 20
7.267774869109948
 10
6.150196335078534
 20
7.324005235602095
  0
LWPOLYLINE
  5
122
330
17
100
AcDbEntity
  8
A-WALL
100
AcDbPolyline
 90
5
 70
1
 10
6.030706806282723
 20
7.352120418848168
 10
6.108023560209424
 20
7.359149214659686
 10
6.143167539267016
 20
7.316976439790576
 10
6.143167539267016
 20
7.267774869109948
 10
6.04476439790576
 20
7.253717277486911
  0
LWPOLYLINE
  5
123
330
17
100
AcDbEntity
  8
A-WALL
100
AcDbPolyline
 90
5
 70
1
 10
5.637094240837697
 20
7.359149214659686
 10
5.721439790575916
 20
7.352120418848168
 10
5.70738219895288
 20
7.253717277486911
 10
5.608979057591623
 20
7.267774869109948
 10
5.608979057591623
 20
7.324005235602095
  0
LWPOLYLINE
  5
124
330
17
100
AcDbEntity
  8
A-WALL
100
AcDbPolyline
 90
5
 70
1
 10
5.503547120418848
 20
7.359149214659686
 10
5.5668062827225135
 20
7.359149214659686
 10
5.594921465968587
 20
7.331034031413613
 10
5.58086387434555
 20
7.253717277486911
 10
5.489489528795811
 20
7.267774869109948
  0
LWPOLYLINE
  5
125
330
17
100
AcDbEntity
  8
A-WALL
100
AcDbPolyline
 90
4
 70
1
 10
6.143167539267016
 20
7.394293193717278
 10
6.164253926701571
 20
7.380235602094241
 10
6.150196335078534
 20
7.345091623036649
 10
6.122081151832461
 20
7.366178010471204
  0
LWPOLYLINE
  5
126
330
17
100
AcDbEntity
  8
A-WALL
100
AcDbPolyline
 90
4
 70
1
 10
5.601950261780105
 20
7.394293193717278
 10
5.62303664921466
 20
7.380235602094241
 10
5.608979057591623
 20
7.345091623036649
 10
5.587892670157069
 20
7.359149214659686
  0
LWPOLYLINE
  5
127
330
17
100
AcDbEntity
  8
A-WALL
100
AcDbPolyline
 90
9
 70
1
 10
6.192369109947644
 20
7.5840706806282725
 10
6.262657068062827
 20
7.5700130890052355
 10
6.262657068062827
 20
7.394293193717278
 10
6.24859947643979
 20
7.380235602094241
 10
6.178311518324607
 20
7.380235602094241
 10
6.150196335078534
 20
7.408350785340314
 10
6.192369109947644
 20
7.422408376963351
 10
6.150196335078534
 20
7.443494764397906
 10
6.150196335078534
 20
7.541897905759162
  0
LWPOLYLINE
  5
128
330
17
100
AcDbEntity
  8
A-WALL
100
AcDbPolyline
 90
9
 70
1
 10
6.04476439790576
 20
7.5840706806282725
 10
6.100994764397906
 20
7.5840706806282725
 10
6.136138743455498
 20
7.5489267015706805
 10
6.143167539267016
 20
7.450523560209424
 10
6.108023560209424
 20
7.436465968586387
 10
6.136138743455498
 20
7.401321989528796
 10
6.100994764397906
 20
7.373206806282723
 10
6.030706806282723
 20
7.387264397905759
 10
6.030706806282723
 20
7.5700130890052355
  0
LWPOLYLINE
  5
129
330
17
100
AcDbEntity
  8
A-WALL
100
AcDbPolyline
 90
10
 70
1
 10
5.756583769633508
 20
7.5840706806282725
 10
5.791727748691099
 20
7.5700130890052355
 10
5.805785340314136
 20
7.520811518324607
 10
5.869044502617801
 20
7.478638743455497
 10
5.854986910994764
 20
7.380235602094241
 10
5.74955497382199
 20
7.394293193717278
 10
5.763612565445026
 20
7.415379581151833
 10
5.812814136125654
 20
7.422408376963351
 10
5.812814136125654
 20
7.436465968586387
 10
5.756583769633508
 20
7.443494764397906
  0
LWPOLYLINE
  5
12A
330
17
100
AcDbEntity
  8
A-WALL
100
AcDbPolyline
 90
7
 70
1
 10
5.658180628272252
 20
7.5840706806282725
 10
5.721439790575916
 20
7.5770418848167544
 10
5.721439790575916
 20
7.387264397905759
 10
5.70738219895288
 20
7.373206806282723
 10
5.637094240837697
 20
7.380235602094241
 10
5.616007853403142
 20
7.401321989528796
 10
5.616007853403142
 20
7.527840314136125
  0
LWPOLYLINE
  5
12B
330
17
100
AcDbEntity
  8
A-WALL
100
AcDbPolyline
 90
9
 70
1
 10
5.503547120418848
 20
7.5840706806282725
 10
5.5527486910994766
 20
7.5840706806282725
 10
5.594921465968587
 20
7.534869109947644
 10
5.594921465968587
 20
7.443494764397906
 10
5.5316623036649215
 20
7.429437172774869
 10
5.594921465968587
 20
7.415379581151833
 10
5.573835078534032
 20
7.380235602094241
 10
5.489489528795811
 20
7.387264397905759
 10
5.489489528795811
 20
7.5700130890052355
  0
LWPOLYLINE
  5
12C
330
17
100
AcDbEntity
  8
A-WALL
100
AcDbPolyline
 90
10
 70
1
 10
5.981505235602095
 20
7.5910994764397905
 10
5.995562827225131
 20
7.5700130890052355
 10
5.995562827225131
 20
7.443494764397906
 10
5.918246073298429
 20
7.436465968586387
 10
5.918246073298429
 20
7.415379581151833
 10
5.974476439790576
 20
7.422408376963351
 10
5.995562827225131
 20
7.394293193717278
 10
5.890130890052356
 20
7.380235602094241
 10
5.883102094240837
 20
7.478638743455497
 10
5.9393324607329845
 20
7.513782722513089
  0
LWPOLYLINE
  5
12D
330
17
100
AcDbEntity
  8
A-WALL
100
AcDbPolyline
 90
5
 70
1
 10
5.9463612565445025
 20
7.5910994764397905
 10
5.9604188481675395
 20
7.5770418848167544
 10
5.9463612565445025
 20
7.541897905759162
 10
5.890130890052356
 20
7.506753926701571
 10
5.883102094240837
 20
7.534869109947644
  0
LWPOLYLINE
  5
12E
330
17
100
AcDbEntity
  8
A-WALL
100
AcDbPolyline
 90
4
 70
1
 10
5.812814136125654
 20
7.5910994764397905
 10
5.869044502617801
 20
7.534869109947644
 10
5.862015706806283
 20
7.506753926701571
 10
5.805785340314136
 20
7.541897905759162
  0
LWPOLYLINE
  5
12F
330
17
100
AcDbEntity
  8
A-WALL
100
AcDbPolyline
 90
4
 70
1
 10
6.143167539267016
 20
7.626243455497383
 10
6.171282722513089
 20
7.6051570680628275
 10
6.150196335078534
 20
7.5629842931937175
 10
6.115052356020943
 20
7.5910994764397905
  0
LWPOLYLINE
  5
130
330
17
100
AcDbEntity
  8
A-WALL
100
AcDbPolyline
 90
4
 70
1
 10
6.009620418848168
 20
7.626243455497383
 10
6.023678010471205
 20
7.6051570680628275
 10
6.009620418848168
 20
7.555955497382199
 10
5.995562827225131
 20
7.5700130890052355
  0
LWPOLYLINE
  5
131
330
17
100
AcDbEntity
  8
A-WALL
100
AcDbPolyline
 90
4
 70
1
 10
5.869044502617801
 20
7.633272251308901
 10
5.911217277486911
 20
7.5981282722513095
 10
5.883102094240837
 20
7.555955497382199
 10
5.840929319371728
 20
7.5840706806282725
  0
LWPOLYLINE
  5
132
330
17
100
AcDbEntity
  8
A-WALL
100
AcDbPolyline
 90
6
 70
1
 10
5.608979057591623
 20
7.633272251308901
 10
5.637094240837697
 20
7.612185863874346
 10
5.637094240837697
 20
7.5770418848167544
 10
5.601950261780105
 20
7.5489267015706805
 10
5.573835078534032
 20
7.5770418848167544
 10
5.573835078534032
 20
7.612185863874346
  0
LWPOLYLINE
  5
133
330
17
100
AcDbEntity
  8
A-WALL
100
AcDbPolyline
 90
3
 70
1
 10
5.742526178010471
 20
7.647329842931938
 10
5.742526178010471
 20
7.527840314136125
 10
5.728468586387435
 20
7.5629842931937175
  0
LWPOLYLINE
  5
134
330
17
100
AcDbEntity
  8
A-WALL
100
AcDbPolyline
 90
5
 70
1
 10
5.890130890052356
 20
7.682473821989529
 10
5.932303664921466
 20
7.661387434554974
 10
5.9604188481675395
 20
7.619214659685864
 10
5.9463612565445025
 20
7.5981282722513095
 10
5.883102094240837
 20
7.647329842931938
  0
LWPOLYLINE
  5
135
330
17
100
AcDbEntity
  8
A-WALL
100
AcDbPolyline
 90
5
 70
1
 10
5.862015706806283
 20
7.682473821989529
 10
5.869044502617801
 20
7.654358638743456
 10
5.819842931937173
 20
7.5981282722513095
 10
5.798756544502618
 20
7.6051570680628275
 10
5.805785340314136
 20
7.647329842931938
  0
LWPOLYLINE
  5
136
330
17
100
AcDbEntity
  8
A-WALL
100
AcDbPolyline
 90
5
 70
1
 10
6.157225130890052
 20
7.724646596858639
 10
6.262657068062827
 20
7.710589005235602
 10
6.24859947643979
 20
7.5981282722513095
 10
6.192369109947644
 20
7.5981282722513095
 10
6.150196335078534
 20
7.640301047120419
  0
LWPOLYLINE
  5
137
330
17
100
AcDbEntity
  8
A-WALL
100
AcDbPolyline
 90
7
 70
1
 10
6.037735602094241
 20
7.724646596858639
 10
6.143167539267016
 20
7.710589005235602
 10
6.136138743455498
 20
7.640301047120419
 10
6.108023560209424
 20
7.6051570680628275
 10
6.04476439790576
 20
7.5981282722513095
 10
6.030706806282723
 20
7.612185863874346
 10
6.023678010471205
 20
7.710589005235602
  0
LWPOLYLINE
  5
138
330
17
100
AcDbEntity
  8
A-WALL
100
AcDbPolyline
 90
6
 70
1
 10
5.62303664921466
 20
7.724646596858639
 10
5.721439790575916
 20
7.717617801047121
 10
5.70738219895288
 20
7.5981282722513095
 10
5.658180628272252
 20
7.5981282722513095
 10
5.616007853403142
 20
7.647329842931938
 10
5.608979057591623
 20
7.710589005235602
  0
LWPOLYLINE
  5
139
330
17
100
AcDbEntity
  8
A-WALL
100
AcDbPolyline
 90
5
 70
1
 10
5.489489528795811
 20
7.724646596858639
 10
5.594921465968587
 20
7.717617801047121
 10
5.594921465968587
 20
7.647329842931938
 10
5.5527486910994766
 20
7.5981282722513095
 10
5.489489528795811
 20
7.612185863874346
  0
LWPOLYLINE
  5
13A
330
17
100
AcDbEntity
  8
A-WALL
100
AcDbPolyline
 90
6
 70
1
 10
5.897159685863874
 20
7.731675392670157
 10
5.988534031413613
 20
7.717617801047121
 10
5.995562827225131
 20
7.619214659685864
 10
5.981505235602095
 20
7.5981282722513095
 10
5.9533900523560215
 20
7.654358638743456
 10
5.883102094240837
 20
7.703560209424084
  0
LWPOLYLINE
  5
13B
330
17
100
AcDbEntity
  8
A-WALL
100
AcDbPolyline
 90
6
 70
1
 10
5.862015706806283
 20
7.724646596858639
 10
5.869044502617801
 20
7.703560209424084
 10
5.812814136125654
 20
7.675445026178011
 10
5.791727748691099
 20
7.619214659685864
 10
5.763612565445026
 20
7.6051570680628275
 10
5.763612565445026
 20
7.710589005235602
  0
LWPOLYLINE
  5
13C
330
17
100
AcDbEntity
  8
A-WALL
100
AcDbPolyline
 90
37
 70
1
 10
11.154698952879581
 20
7.858193717277487
 10
11.140641361256545
 20
7.816020942408377
 10
11.014123036649215
 20
7.816020942408377
 10
11.154698952879581
 20
7.794934554973822
 10
11.154698952879581
 20
6.276714659685864
 10
11.014123036649215
 20
6.262657068062827
 10
11.021151832460733
 20
6.24859947643979
 10
11.133612565445027
 20
6.24859947643979
 10
11.154698952879581
 20
6.234541884816754
 10
11.154698952879581
 20
4.892041884816754
 10
11.140641361256545
 20
4.877984293193717
 10
11.084410994764399
 20
4.892041884816754
 10
11.091439790575917
 20
4.870955497382199
 10
11.126583769633507
 20
4.877984293193717
 10
11.154698952879581
 20
4.849869109947644
 10
11.154698952879581
 20
3.9080104712041885
 10
11.140641361256545
 20
3.8869240837696335
 10
11.014123036649215
 20
3.8869240837696335
 10
11.014123036649215
 20
3.872866492146597
 10
11.154698952879581
 20
3.8588089005235604
 10
11.154698952879581
 20
1.2511256544502618
 10
11.014123036649215
 20
1.2300392670157068
 10
11.140641361256545
 20
1.2300392670157068
 10
11.147670157068063
 20
1.187866492146597
 10
11.168756544502617
 20
1.1808376963350786
 10
11.168756544502617
 20
1.2159816753926702
 10
11.196871727748691
 20
1.2300392670157068
 10
11.168756544502617
 20
1.2440968586387435
 10
11.168756544502617
 20
3.8658376963350785
 10
11.196871727748691
 20
3.872866492146597
 10
11.168756544502617
 20
3.90098167539267
 10
11.168756544502617
 20
6.241570680628272
 10
11.196871727748691
 20
6.24859947643979
 10
11.196871727748691
 20
6.269685863874345
 10
11.168756544502617
 20
6.276714659685864
 10
11.168756544502617
 20
7.794934554973822
 10
11.196871727748691
 20
7.816020942408377
  0
LWPOLYLINE
  5
13D
330
17
100
AcDbEntity
  8
A-WALL
100
AcDbPolyline
 90
42
 70
1
 10
0.007028795811518325
 20
5.854986910994764
 10
0.007028795811518325
 20
1.2019240837696334
 10
1.946976439790576
 20
1.2019240837696334
 10
1.9329188481675392
 20
1.2159816753926702
 10
0.035143979057591625
 20
1.2159816753926702
 10
0.021086387434554973
 20
1.2230104712041885
 10
0.021086387434554973
 20
5.826871727748691
 10
0.035143979057591625
 20
5.840929319371728
 10
1.968062827225131
 20
5.840929319371728
 10
1.9610340314136125
 20
5.798756544502618
 10
0.0562303664921466
 20
5.798756544502618
 10
0.0562303664921466
 20
1.2511256544502618
 10
1.946976439790576
 20
1.2511256544502618
 10
1.9399476439790577
 20
1.2651832460732984
 10
0.06325916230366492
 20
1.2651832460732984
 10
0.06325916230366492
 20
5.777670157068063
 10
0.07731675392670158
 20
5.791727748691099
 10
1.9610340314136125
 20
5.791727748691099
 10
1.9750916230366493
 20
5.784698952879581
 10
1.9750916230366493
 20
5.018560209424084
 10
1.5041623036649214
 20
4.224306282722513
 10
1.6587958115183246
 20
4.139960732984293
 10
1.8204581151832462
 20
4.097787958115183
 10
1.581479057591623
 20
4.020471204188482
 10
1.5182198952879582
 20
3.98532722513089
 10
1.51119109947644
 20
3.9572120418848167
 10
1.968062827225131
 20
3.1770157068062828
 10
1.968062827225131
 20
1.187866492146597
 10
10.704856020942408
 20
1.187866492146597
 10
10.704856020942408
 20
4.062643979057592
 10
10.61348167539267
 20
4.062643979057592
 10
9.882486910994764
 20
4.273507853403141
 10
10.009005235602094
 20
4.526544502617801
 10
10.19175392670157
 20
4.6952356020942405
 10
10.430732984293194
 20
4.800667539267016
 10
10.704856020942408
 20
4.828782722513089
 10
10.704856020942408
 20
6.297801047120419
 10
9.06011780104712
 20
6.297801047120419
 10
9.046060209424084
 20
6.311858638743455
 10
9.046060209424084
 20
7.858193717277487
 10
1.9750916230366493
 20
7.858193717277487
 10
1.9750916230366493
 20
5.854986910994764
  0
LWPOLYLINE
  5
13E
330
17
100
AcDbEntity
  8
A-WALL
100
AcDbPolyline
 90
7
 70
1
 10
4.484371727748691
 20
1.25815445026178
 10
4.498429319371728
 20
1.2722120418848168
 10
6.00259162303665
 20
1.2722120418848168
 10
6.016649214659686
 20
1.208952879581152
 10
6.00259162303665
 20
1.1948952879581152
 10
4.505458115183246
 20
1.1948952879581152
 10
4.484371727748691
 20
1.2019240837696334
  0
LWPOLYLINE
  5
13F
330
17
100
AcDbEntity
  8
A-WALL
100
AcDbPolyline
 90
7
 70
1
 10
2.6709424083769635
 20
1.25815445026178
 10
2.685
 20
1.2722120418848168
 10
4.189162303664921
 20
1.2722120418848168
 10
4.203219895287958
 20
1.208952879581152
 10
4.189162303664921
 20
1.1948952879581152
 10
2.6920287958115185
 20
1.1948952879581152
 10
2.6709424083769635
 20
1.2019240837696334
  0
LWPOLYLINE
  5
140
330
17
100
AcDbEntity
  8
A-WALL
100
AcDbPolyline
 90
4
 70
1
 10
10.648625654450262
 20
1.2792408376963351
 10
10.662683246073298
 20
1.2440968586387435
 10
10.61348167539267
 20
1.2230104712041885
 10
10.606452879581152
 20
1.2370680628272253
  0
LWPOLYLINE
  5
141
330
17
100
AcDbEntity
  8
A-WALL
100
AcDbPolyline
 90
4
 70
1
 10
2.0242931937172775
 20
1.2792408376963351
 10
2.059437172774869
 20
1.2440968586387435
 10
2.052408376963351
 20
1.2300392670157068
 10
2.0172643979057594
 20
1.2300392670157068
  0
LWPOLYLINE
  5
142
330
17
100
AcDbEntity
  8
A-WALL
100
AcDbPolyline
 90
3
 70
1
 10
7.092054973821989
 20
1.2300392670157068
 10
7.141256544502618
 20
1.3003272251308902
 10
7.1904581151832465
 20
1.2300392670157068
  0
LWPOLYLINE
  5
143
330
17
100
AcDbEntity
  8
A-WALL
100
AcDbPolyline
 90
6
 70
1
 10
3.6198298429319373
 20
1.4479319371727748
 10
3.633887434554974
 20
1.4619895287958116
 10
5.461374345549738
 20
1.4619895287958116
 10
5.482460732984293
 20
1.3003272251308902
 10
5.468403141361256
 20
1.2862696335078534
 10
3.6198298429319373
 20
1.2862696335078534
  0
LWPOLYLINE
  5
144
330
17
100
AcDbEntity
  8
A-WALL
100
AcDbPolyline
 90
8
 70
1
 10
10.058206806282723
 20
1.6377094240837697
 10
10.06523560209424
 20
1.6517670157068063
 10
10.40964659685864
 20
1.6517670157068063
 10
10.423704188481675
 20
1.6377094240837697
 10
10.423704188481675
 20
1.3003272251308902
 10
10.058206806282723
 20
1.3003272251308902
 10
10.044149214659686
 20
1.3073560209424084
 10
10.058206806282723
 20
1.3425
  0
LWPOLYLINE
  5
145
330
17
100
AcDbEntity
  8
A-WALL
100
AcDbPolyline
 90
4
 70
1
 10
8.343180628272252
 20
2.0172643979057594
 10
8.539986910994765
 20
2.0172643979057594
 10
8.539986910994765
 20
1.8274869109947645
 10
8.532958115183247
 20
1.8204581151832462
  0
LWPOLYLINE
  5
146
330
17
100
AcDbEntity
  8
A-WALL
100
AcDbPolyline
 90
5
 70
1
 10
5.503547120418848
 20
2.101609947643979
 10
5.601950261780105
 20
2.0875523560209426
 10
5.601950261780105
 20
1.2862696335078534
 10
5.489489528795811
 20
1.2862696335078534
 10
5.489489528795811
 20
2.0875523560209426
  0
LWPOLYLINE
  5
147
330
17
100
AcDbEntity
  8
A-WALL
100
AcDbPolyline
 90
5
 70
1
 10
3.507369109947644
 20
2.101609947643979
 10
3.5987434554973823
 20
2.0875523560209426
 10
3.5987434554973823
 20
1.2862696335078534
 10
3.486282722513089
 20
1.2862696335078534
 10
3.486282722513089
 20
2.0875523560209426
  0
LWPOLYLINE
  5
148
330
17
100
AcDbEntity
  8
A-WALL
100
AcDbPolyline
 90
5
 70
1
 10
4.863926701570681
 20
2.1367539267015707
 10
5.475431937172775
 20
2.1367539267015707
 10
5.475431937172775
 20
1.4760471204188481
 10
4.877984293193717
 20
1.4760471204188481
 10
4.863926701570681
 20
1.4901047120418849
  0
LWPOLYLINE
  5
149
330
17
100
AcDbEntity
  8
A-WALL
100
AcDbPolyline
 90
4
 70
1
 10
4.238363874345549
 20
2.1367539267015707
 10
4.849869109947644
 20
2.1367539267015707
 10
4.849869109947644
 20
1.4760471204188481
 10
4.238363874345549
 20
1.4760471204188481
  0
LWPOLYLINE
  5
14A
330
17
100
AcDbEntity
  8
A-WALL
100
AcDbPolyline
 90
5
 70
1
 10
3.612801047120419
 20
2.1367539267015707
 10
4.224306282722513
 20
2.1367539267015707
 10
4.224306282722513
 20
1.4901047120418849
 10
4.217277486910995
 20
1.4760471204188481
 10
3.612801047120419
 20
1.4760471204188481
  0
LWPOLYLINE
  5
14B
330
17
100
AcDbEntity
  8
A-WALL
100
AcDbPolyline
 90
6
 70
1
 10
2.038350785340314
 20
3.008324607329843
 10
2.059437172774869
 20
2.987238219895288
 10
2.059437172774869
 20
1.4901047120418849
 10
2.0453795811518325
 20
1.4760471204188481
 10
2.0172643979057594
 20
1.4901047120418849
 10
2.0172643979057594
 20
2.9942670157068063
  0
LWPOLYLINE
  5
14C
330
17
100
AcDbEntity
  8
A-WALL
100
AcDbPolyline
 90
6
 70
1
 10
1.9961780104712041
 20
3.008324607329843
 10
2.0172643979057594
 20
2.987238219895288
 10
2.0172643979057594
 20
1.4901047120418849
 10
2.0032068062827224
 20
1.4760471204188481
 10
1.9750916230366493
 20
1.4901047120418849
 10
1.9750916230366493
 20
2.9942670157068063
  0
LWPOLYLINE
  5
14D
330
17
100
AcDbEntity
  8
A-WALL
100
AcDbPolyline
 90
5
 70
1
 10
7.035824607329843
 20
3.1559293193717277
 10
7.099083769633508
 20
3.099698952879581
 10
7.099083769633508
 20
2.164869109947644
 10
7.04988219895288
 20
2.101609947643979
 10
7.035824607329843
 20
2.1086387434554976
  0
LWPOLYLINE
  5
14E
330
17
100
AcDbEntity
  8
A-WALL
100
AcDbPolyline
 90
4
 70
1
 10
1.9750916230366493
 20
3.1559293193717277
 10
1.9891492146596859
 20
3.1699869109947643
 10
2.052408376963351
 20
3.162958115183246
 10
2.0453795811518325
 20
3.141871727748691
  0
LWPOLYLINE
  5
14F
330
17
100
AcDbEntity
  8
A-WALL
100
AcDbPolyline
 90
6
 70
1
 10
10.627539267015708
 20
3.2051308900523563
 10
10.69782722513089
 20
3.1910732984293193
 10
10.69782722513089
 20
1.6939397905759164
 10
10.683769633507854
 20
1.6798821989528796
 10
10.61348167539267
 20
1.6869109947643979
 10
10.61348167539267
 20
3.1910732984293193
  0
LWPOLYLINE
  5
150
330
17
100
AcDbEntity
  8
A-WALL
100
AcDbPolyline
 90
10
 70
1
 10
8.329123036649214
 20
3.2824476439790575
 10
8.343180628272252
 20
3.2965052356020945
 10
9.959803664921466
 20
3.2965052356020945
 10
9.973861256544502
 20
3.2824476439790575
 10
9.973861256544502
 20
1.8064005235602094
 10
9.959803664921466
 20
1.7923429319371729
 10
8.568102094240837
 20
1.7923429319371729
 10
8.554044502617801
 20
1.8134293193717277
 10
8.554044502617801
 20
2.038350785340314
 10
8.329123036649214
 20
2.038350785340314
  0
LWPOLYLINE
  5
151
330
17
100
AcDbEntity
  8
A-WALL
100
AcDbPolyline
 90
11
 70
1
 10
6.684384816753927
 20
3.5214267015706806
 10
7.099083769633508
 20
3.5214267015706806
 10
7.099083769633508
 20
3.1348429319371727
 10
7.085026178010471
 20
3.1278141361256546
 10
7.028795811518325
 20
3.198102094240838
 10
7.028795811518325
 20
2.0664659685863875
 10
7.092054973821989
 20
2.1367539267015707
 10
7.092054973821989
 20
1.6869109947643979
 10
6.691413612565445
 20
1.6869109947643979
 10
6.677356020942408
 20
1.7009685863874346
 10
6.677356020942408
 20
3.507369109947644
  0
LWPOLYLINE
  5
152
330
17
100
AcDbEntity
  8
A-WALL
100
AcDbPolyline
 90
33
 70
1
 10
7.183429319371728
 20
3.830693717277487
 10
7.380235602094241
 20
3.830693717277487
 10
7.408350785340314
 20
3.8166361256544503
 10
7.5981282722513095
 20
3.099698952879581
 10
7.626243455497383
 20
3.092670157068063
 10
7.858193717277487
 20
3.2051308900523563
 10
8.019856020942408
 20
3.359764397905759
 10
8.146374345549738
 20
3.591714659685864
 10
8.174489528795812
 20
3.7112041884816755
 10
8.174489528795812
 20
3.8166361256544503
 10
8.202604712041884
 20
3.8377225130890054
 10
10.599424083769634
 20
3.8377225130890054
 10
10.61348167539267
 20
3.823664921465969
 10
10.61348167539267
 20
3.1770157068062828
 10
10.61348167539267
 20
1.2862696335078534
 10
10.599424083769634
 20
1.2722120418848168
 10
10.423704188481675
 20
1.2722120418848168
 10
10.437761780104712
 20
1.3073560209424084
 10
10.437761780104712
 20
1.6587958115183246
 10
10.416675392670157
 20
1.6728534031413613
 10
10.044149214659686
 20
1.6728534031413613
 10
10.044149214659686
 20
1.3143848167539267
 10
10.051178010471205
 20
1.2792408376963351
 10
9.98089005235602
 20
1.2862696335078534
 10
9.98089005235602
 20
3.310562827225131
 10
8.322094240837696
 20
3.310562827225131
 10
8.322094240837696
 20
2.010235602094241
 10
8.561073298429319
 20
1.778285340314136
 10
9.966832460732984
 20
1.778285340314136
 10
9.966832460732984
 20
1.2932984293193717
 10
9.966832460732984
 20
1.2792408376963351
 10
7.197486910994765
 20
1.2792408376963351
 10
7.183429319371728
 20
1.2862696335078534
  0
LWPOLYLINE
  5
153
330
17
100
AcDbEntity
  8
A-WALL
100
AcDbPolyline
 90
4
 70
1
 10
7.183429319371728
 20
3.8869240837696335
 10
7.1764005235602095
 20
3.8588089005235604
 10
7.141256544502618
 20
3.8377225130890054
 10
7.134227748691099
 20
3.8658376963350785
  0
LWPOLYLINE
  5
154
330
17
100
AcDbEntity
  8
A-WALL
100
AcDbPolyline
 90
4
 70
1
 10
8.18151832460733
 20
3.915039267015707
 10
8.202604712041884
 20
3.9080104712041885
 10
8.188547120418848
 20
3.8377225130890054
 10
8.174489528795812
 20
3.851780104712042
  0
LWPOLYLINE
  5
155
330
17
100
AcDbEntity
  8
A-WALL
100
AcDbPolyline
 90
4
 70
1
 10
7.380235602094241
 20
3.915039267015707
 10
7.408350785340314
 20
3.90098167539267
 10
7.394293193717278
 20
3.844751308900524
 10
7.373206806282723
 20
3.8588089005235604
  0
LWPOLYLINE
  5
156
330
17
100
AcDbEntity
  8
A-WALL
100
AcDbPolyline
 90
4
 70
1
 10
10.648625654450262
 20
3.9290968586387436
 10
10.662683246073298
 20
3.922068062827225
 10
10.65565445026178
 20
3.830693717277487
 10
10.592395287958116
 20
3.8798952879581154
  0
LWPOLYLINE
  5
157
330
17
100
AcDbEntity
  8
A-WALL
100
AcDbPolyline
 90
4
 70
1
 10
10.61348167539267
 20
4.048586387434555
 10
10.683769633507854
 20
4.055615183246073
 10
10.690798429319372
 20
4.041557591623037
 10
10.634568062827226
 20
4.0275
  0
LWPOLYLINE
  5
158
330
17
100
AcDbEntity
  8
A-WALL
100
AcDbPolyline
 90
4
 70
1
 10
10.627539267015708
 20
4.842840314136126
 10
10.669712041884816
 20
4.849869109947644
 10
10.676740837696336
 20
4.835811518324608
 10
10.634568062827226
 20
4.828782722513089
  0
LWPOLYLINE
  5
159
330
17
100
AcDbEntity
  8
A-WALL
100
AcDbPolyline
 90
4
 70
1
 10
1.9750916230366493
 20
5.039646596858639
 10
1.9891492146596859
 20
5.053704188481675
 10
2.052408376963351
 20
5.046675392670157
 10
2.010235602094241
 20
5.018560209424084
  0
LWPOLYLINE
  5
15A
330
17
100
AcDbEntity
  8
A-WALL
100
AcDbPolyline
 90
4
 70
1
 10
8.055
 20
5.166164921465969
 10
8.076086387434556
 20
5.152107329842932
 10
8.062028795811518
 20
5.088848167539267
 10
8.047971204188482
 20
5.095876963350785
  0
LWPOLYLINE
  5
15B
330
17
100
AcDbEntity
  8
A-WALL
100
AcDbPolyline
 90
4
 70
1
 10
9.003887434554974
 20
5.173193717277487
 10
9.010916230366492
 20
5.145078534031414
 10
8.9757722513089
 20
5.1239921465968585
 10
8.961714659685864
 20
5.1380497382198955
  0
LWPOLYLINE
  5
15C
330
17
100
AcDbEntity
  8
A-WALL
100
AcDbPolyline
 90
4
 70
1
 10
8.863311518324608
 20
5.173193717277487
 10
8.877369109947644
 20
5.1029057591623035
 10
8.85628272251309
 20
5.088848167539267
 10
8.849253926701572
 20
5.159136125654451
  0
LWPOLYLINE
  5
15D
330
17
100
AcDbEntity
  8
A-WALL
100
AcDbPolyline
 90
12
 70
1
 10
10.634568062827226
 20
5.24348167539267
 10
10.65565445026178
 20
5.229424083769634
 10
10.676740837696336
 20
5.24348167539267
 10
10.69782722513089
 20
5.222395287958116
 10
10.69782722513089
 20
4.877984293193717
 10
10.683769633507854
 20
4.863926701570681
 10
10.65565445026178
 20
4.877984293193717
 10
10.65565445026178
 20
5.215366492146597
 10
10.65565445026178
 20
4.877984293193717
 10
10.641596858638744
 20
4.863926701570681
 10
10.61348167539267
 20
4.877984293193717
 10
10.61348167539267
 20
5.229424083769634
  0
LWPOLYLINE
  5
15E
330
17
100
AcDbEntity
  8
A-WALL
100
AcDbPolyline
 90
4
 70
1
 10
7.443494764397906
 20
5.616007853403142
 10
7.499725130890052
 20
5.630065445026178
 10
7.5700130890052355
 20
5.608979057591623
 10
7.457552356020942
 20
5.594921465968587
  0
LWPOLYLINE
  5
15F
330
17
100
AcDbEntity
  8
A-WALL
100
AcDbPolyline
 90
12
 70
1
 10
7.513782722513089
 20
5.876073298429319
 10
7.787905759162304
 20
5.876073298429319
 10
7.80196335078534
 20
5.862015706806283
 10
7.80196335078534
 20
5.341884816753927
 10
7.787905759162304
 20
5.32782722513089
 10
7.513782722513089
 20
5.32782722513089
 10
7.499725130890052
 20
5.341884816753927
 10
7.499725130890052
 20
5.5668062827225135
 10
7.5840706806282725
 20
5.601950261780105
 10
7.5700130890052355
 20
5.637094240837697
 10
7.499725130890052
 20
5.644123036649215
 10
7.499725130890052
 20
5.862015706806283
  0
LWPOLYLINE
  5
160
330
17
100
AcDbEntity
  8
A-WALL
100
AcDbPolyline
 90
21
 70
1
 10
7.401321989528796
 20
6.023678010471205
 10
7.816020942408377
 20
6.023678010471205
 10
7.837107329842932
 20
6.00259162303665
 10
7.837107329842932
 20
5.194280104712042
 10
7.823049738219895
 20
5.180222513089006
 10
7.401321989528796
 20
5.180222513089006
 10
7.387264397905759
 20
5.194280104712042
 10
7.401321989528796
 20
5.320798429319372
 10
7.816020942408377
 20
5.320798429319372
 10
7.816020942408377
 20
5.890130890052356
 10
7.415379581151833
 20
5.890130890052356
 10
7.485667539267016
 20
5.869044502617801
 10
7.485667539267016
 20
5.651151832460733
 10
7.429437172774869
 20
5.616007853403142
 10
7.450523560209424
 20
5.58086387434555
 10
7.485667539267016
 20
5.573835078534032
 10
7.485667539267016
 20
5.341884816753927
 10
7.394293193717278
 20
5.334856020942408
 10
7.394293193717278
 20
5.862015706806283
 10
7.401321989528796
 20
5.883102094240837
 10
7.387264397905759
 20
5.9041884816753925
  0
LWPOLYLINE
  5
161
330
17
100
AcDbEntity
  8
A-WALL
100
AcDbPolyline
 90
4
 70
1
 10
10.592395287958116
 20
6.24859947643979
 10
10.641596858638744
 20
6.262657068062827
 10
10.662683246073298
 20
6.220484293193717
 10
10.648625654450262
 20
6.206426701570681
  0
LWPOLYLINE
  5
162
330
17
100
AcDbEntity
  8
A-WALL
100
AcDbPolyline
 90
4
 70
1
 10
9.010916230366492
 20
6.297801047120419
 10
9.074175392670158
 20
6.255628272251309
 10
9.010916230366492
 20
6.192369109947644
 10
8.996858638743456
 20
6.213455497382199
  0
LWPOLYLINE
  5
163
330
17
100
AcDbEntity
  8
A-WALL
100
AcDbPolyline
 90
9
 70
1
 10
7.506753926701571
 20
6.54380890052356
 10
7.689502617801048
 20
6.54380890052356
 10
7.787905759162304
 20
6.494607329842932
 10
7.823049738219895
 20
6.438376963350786
 10
7.830078534031414
 20
6.3680890052356025
 10
7.80196335078534
 20
6.283743455497382
 10
7.759790575916231
 20
6.241570680628272
 10
7.534869109947644
 20
6.220484293193717
 10
7.506753926701571
 20
6.241570680628272
  0
LWPOLYLINE
  5
164
330
17
100
AcDbEntity
  8
A-WALL
100
AcDbPolyline
 90
6
 70
1
 10
2.031321989528796
 20
7.5489267015706805
 10
2.059437172774869
 20
7.527840314136125
 10
2.059437172774869
 20
6.030706806282723
 10
2.0453795811518325
 20
6.016649214659686
 10
2.0172643979057594
 20
6.030706806282723
 10
2.0172643979057594
 20
7.534869109947644
  0
LWPOLYLINE
  5
165
330
17
100
AcDbEntity
  8
A-WALL
100
AcDbPolyline
 90
6
 70
1
 10
1.9961780104712041
 20
7.5489267015706805
 10
2.0172643979057594
 20
7.527840314136125
 10
2.0172643979057594
 20
6.030706806282723
 10
2.0032068062827224
 20
6.016649214659686
 10
1.9750916230366493
 20
6.030706806282723
 10
1.9750916230366493
 20
7.534869109947644
  0
LWPOLYLINE
  5
166
330
17
100
AcDbEntity
  8
A-WALL
100
AcDbPolyline
 90
3
 70
1
 10
7.808992146596859
 20
7.731675392670157
 10
7.851164921465969
 20
7.647329842931938
 10
7.766819371727749
 20
7.654358638743456
  0
LWPOLYLINE
  5
167
330
17
100
AcDbEntity
  8
A-WALL
100
AcDbPolyline
 90
7
 70
1
 10
8.38535340314136
 20
7.738704188481676
 10
8.399410994764398
 20
7.752761780104712
 10
8.947657068062828
 20
7.752761780104712
 10
8.947657068062828
 20
7.295890052356021
 10
8.94062827225131
 20
7.281832460732985
 10
8.399410994764398
 20
7.281832460732985
 10
8.38535340314136
 20
7.30291884816754
  0
LWPOLYLINE
  5
168
330
17
100
AcDbEntity
  8
A-WALL
100
AcDbPolyline
 90
49
 70
1
 10
7.401321989528796
 20
7.752761780104712
 10
7.794934554973822
 20
7.752761780104712
 10
7.808992146596859
 20
7.738704188481676
 10
7.738704188481676
 20
7.647329842931938
 10
7.794934554973822
 20
7.626243455497383
 10
7.879280104712042
 20
7.633272251308901
 10
7.823049738219895
 20
7.752761780104712
 10
8.237748691099476
 20
7.752761780104712
 10
8.237748691099476
 20
7.295890052356021
 10
8.040942408376964
 20
7.077997382198953
 10
7.851164921465969
 20
6.916335078534032
 10
7.436465968586387
 20
6.916335078534032
 10
7.415379581151833
 20
6.895248691099477
 10
7.851164921465969
 20
6.895248691099477
 10
7.907395287958115
 20
6.930392670157068
 10
8.244777486910994
 20
7.281832460732985
 10
8.244777486910994
 20
7.703560209424084
 10
8.237748691099476
 20
7.752761780104712
 10
8.251806282722514
 20
7.766819371727749
 10
8.378324607329843
 20
7.766819371727749
 10
8.378324607329843
 20
7.274803664921466
 10
8.961714659685864
 20
7.274803664921466
 10
8.961714659685864
 20
5.187251308900524
 10
8.947657068062828
 20
5.173193717277487
 10
8.849253926701572
 20
5.187251308900524
 10
8.64541884816754
 20
5.918246073298429
 10
8.539986910994765
 20
5.890130890052356
 10
8.413468586387435
 20
5.819842931937173
 10
8.216662303664922
 20
5.630065445026178
 10
8.111230366492146
 20
5.433259162303665
 10
8.055
 20
5.173193717277487
 10
7.84413612565445
 20
5.173193717277487
 10
7.84413612565445
 20
6.023678010471205
 10
7.837107329842932
 20
6.037735602094241
 10
7.394293193717278
 20
6.037735602094241
 10
7.380235602094241
 20
6.04476439790576
 10
7.380235602094241
 20
6.529751308900524
 10
7.499725130890052
 20
6.508664921465969
 10
7.499725130890052
 20
6.255628272251309
 10
7.478638743455497
 20
6.234541884816754
 10
7.415379581151833
 20
6.234541884816754
 10
7.415379581151833
 20
6.220484293193717
 10
7.717617801047121
 20
6.220484293193717
 10
7.80196335078534
 20
6.262657068062827
 10
7.84413612565445
 20
6.361060209424084
 10
7.816020942408377
 20
6.480549738219896
 10
7.731675392670157
 20
6.550837696335079
 10
7.380235602094241
 20
6.550837696335079
 10
7.380235602094241
 20
7.738704188481676
  0
LWPOLYLINE
  5
169
330
17
100
AcDbEntity
  8
A-WALL
100
AcDbPolyline
 90
12
 70
1
 10
6.318887434554974
 20
7.766819371727749
 10
7.134227748691099
 20
7.766819371727749
 10
7.1553141361256545
 20
7.752761780104712
 10
7.1553141361256545
 20
5.1169633507853405
 10
7.141256544502618
 20
5.1029057591623035
 10
6.58598167539267
 20
5.1029057591623035
 10
6.58598167539267
 20
7.1904581151832465
 10
6.304829842931937
 20
7.1904581151832465
 10
6.304829842931937
 20
7.408350785340314
 10
6.3891753926701575
 20
7.422408376963351
 10
6.304829842931937
 20
7.443494764397906
 10
6.304829842931937
 20
7.752761780104712
  0
LWPOLYLINE
  5
16A
330
17
100
AcDbEntity
  8
A-WALL
100
AcDbPolyline
 90
5
 70
1
 10
5.461374345549738
 20
7.759790575916231
 10
6.283743455497382
 20
7.759790575916231
 10
6.297801047120419
 20
7.752761780104712
 10
6.297801047120419
 20
7.225602094240838
 10
5.461374345549738
 20
7.225602094240838
  0
LWPOLYLINE
  5
16B
330
17
100
AcDbEntity
  8
A-WALL
100
AcDbPolyline
 90
16
 70
1
 10
5.173193717277487
 20
7.766819371727749
 10
5.426230366492146
 20
7.766819371727749
 10
5.440287958115183
 20
7.752761780104712
 10
5.440287958115183
 20
7.443494764397906
 10
5.426230366492146
 20
7.429437172774869
 10
5.341884816753927
 20
7.436465968586387
 10
5.341884816753927
 20
7.415379581151833
 10
5.426230366492146
 20
7.422408376963351
 10
5.440287958115183
 20
7.408350785340314
 10
5.440287958115183
 20
7.2115445026178016
 10
5.426230366492146
 20
7.197486910994765
 10
5.159136125654451
 20
7.197486910994765
 10
5.159136125654451
 20
7.408350785340314
 10
5.24348167539267
 20
7.422408376963351
 10
5.152107329842932
 20
7.450523560209424
 10
5.152107329842932
 20
7.752761780104712
  0
LWPOLYLINE
  5
16C
330
17
100
AcDbEntity
  8
A-WALL
100
AcDbPolyline
 90
6
 70
1
 10
4.582774869109948
 20
7.759790575916231
 10
5.145078534031414
 20
7.759790575916231
 10
5.145078534031414
 20
7.2115445026178016
 10
5.1310209424083775
 20
7.197486910994765
 10
4.596832460732984
 20
7.197486910994765
 10
4.582774869109948
 20
7.2115445026178016
  0
LWPOLYLINE
  5
16D
330
17
100
AcDbEntity
  8
A-WALL
100
AcDbPolyline
 90
78
 70
1
 10
2.0664659685863875
 20
7.752761780104712
 10
2.0734947643979056
 20
7.766819371727749
 10
4.554659685863874
 20
7.766819371727749
 10
4.575746073298429
 20
7.752761780104712
 10
4.575746073298429
 20
7.2115445026178016
 10
4.554659685863874
 20
7.197486910994765
 10
4.161047120418848
 20
7.197486910994765
 10
4.146989528795811
 20
7.2115445026178016
 10
4.146989528795811
 20
7.703560209424084
 10
4.139960732984293
 20
7.745732984293194
 10
4.139960732984293
 20
7.183429319371728
 10
6.276714659685864
 20
7.183429319371728
 10
6.564895287958115
 20
7.183429319371728
 10
6.564895287958115
 20
5.095876963350785
 10
8.076086387434556
 20
5.095876963350785
 10
8.104201570680628
 20
5.355942408376963
 10
8.209633507853404
 20
5.594921465968587
 10
8.399410994764398
 20
5.791727748691099
 10
8.631361256544503
 20
5.9041884816753925
 10
8.81410994764398
 20
5.278625654450262
 10
8.842225130890052
 20
5.0818193717277484
 10
9.046060209424084
 20
5.0818193717277484
 10
9.046060209424084
 20
6.206426701570681
 10
10.599424083769634
 20
6.206426701570681
 10
10.61348167539267
 20
6.192369109947644
 10
10.61348167539267
 20
4.849869109947644
 10
10.353416230366493
 20
4.793638743455498
 10
10.128494764397907
 20
4.667120418848167
 10
9.952774869109948
 20
4.470314136125655
 10
9.868429319371728
 20
4.2945942408376965
 10
9.868429319371728
 20
4.252421465968586
 10
10.585366492146598
 20
4.062643979057592
 10
10.606452879581152
 20
4.041557591623037
 10
10.606452879581152
 20
3.936125654450262
 10
10.599424083769634
 20
3.922068062827225
 10
8.174489528795812
 20
3.922068062827225
 10
8.153403141361256
 20
3.683089005235602
 10
8.055
 20
3.437081151832461
 10
7.9847120418848165
 20
3.338678010471204
 10
7.879280104712042
 20
3.240274869109948
 10
7.633272251308901
 20
3.1067277486910996
 10
7.5981282722513095
 20
3.1278141361256546
 10
7.408350785340314
 20
3.851780104712042
 10
7.408350785340314
 20
3.9290968586387436
 10
7.106112565445026
 20
3.9290968586387436
 10
7.106112565445026
 20
3.535484293193717
 10
6.663298429319372
 20
3.535484293193717
 10
6.663298429319372
 20
1.6798821989528796
 10
7.085026178010471
 20
1.6798821989528796
 10
7.099083769633508
 20
1.665824607329843
 10
7.099083769633508
 20
1.2862696335078534
 10
7.085026178010471
 20
1.2722120418848168
 10
5.630065445026178
 20
1.2722120418848168
 10
5.616007853403142
 20
1.2932984293193717
 10
5.616007853403142
 20
2.1086387434554976
 10
5.49651832460733
 20
2.1086387434554976
 10
5.482460732984293
 20
2.1508115183246073
 10
3.6057722513089008
 20
2.1508115183246073
 10
3.591714659685864
 20
2.1156675392670157
 10
3.4722251308900525
 20
2.101609947643979
 10
3.4722251308900525
 20
1.2792408376963351
 10
2.0734947643979056
 20
1.2792408376963351
 10
2.059437172774869
 20
1.2862696335078534
 10
2.059437172774869
 20
1.5252486910994765
 10
2.059437172774869
 20
3.1699869109947643
 10
1.968062827225131
 20
3.1910732984293193
 10
1.5252486910994765
 20
3.9572120418848167
 10
1.5463350785340315
 20
3.98532722513089
 10
1.6939397905759164
 20
4.048586387434555
 10
1.8345157068062827
 20
4.083730366492147
 10
1.9750916230366493
 20
4.083730366492147
 10
1.9750916230366493
 20
4.104816753926702
 10
1.8485732984293195
 20
4.104816753926702
 10
1.665824607329843
 20
4.15401832460733
 10
1.5252486910994765
 20
4.231335078534031
 10
1.9891492146596859
 20
5.018560209424084
 10
2.0664659685863875
 20
5.025589005235602
 10
2.0664659685863875
 20
7.499725130890052
  0
LWPOLYLINE
  5
16E
330
17
100
AcDbEntity
  8
A-WALL
100
AcDbPolyline
 90
7
 70
1
 10
8.39238219895288
 20
7.808992146596859
 10
8.989829842931938
 20
7.808992146596859
 10
9.010916230366492
 20
7.794934554973822
 10
9.010916230366492
 20
7.752761780104712
 10
8.996858638743456
 20
7.731675392670157
 10
8.94062827225131
 20
7.787905759162304
 10
8.42752617801047
 20
7.787905759162304
  0
LWPOLYLINE
  5
16F
330
17
100
AcDbEntity
  8
A-WALL
100
AcDbPolyline
 90
12
 70
1
 10
8.202604712041884
 20
7.816020942408377
 10
8.230719895287958
 20
7.80196335078534
 10
7.415379581151833
 20
7.80196335078534
 10
7.359149214659686
 20
7.752761780104712
 10
7.359149214659686
 20
5.208337696335079
 10
7.366178010471204
 20
5.173193717277487
 10
7.415379581151833
 20
5.1380497382198955
 10
7.2115445026178016
 20
5.1380497382198955
 10
7.1904581151832465
 20
5.145078534031414
 10
7.1904581151832465
 20
7.745732984293194
 10
7.141256544502618
 20
7.80196335078534
 10
7.1553141361256545
 20
7.816020942408377
  0
LWPOLYLINE
  5
170
330
17
100
AcDbEntity
  8
A-WALL
100
AcDbPolyline
 90
4
 70
1
 10
2.052408376963351
 20
7.816020942408377
 10
2.0664659685863875
 20
7.80196335078534
 10
2.0242931937172775
 20
7.766819371727749
 10
2.010235602094241
 20
7.794934554973822
  0
ENDSEC
  0
SECTION
  2
OBJECTS
  0
DICTIONARY
  5
A
330
0
100
AcDbDictionary
281
1
  3
ACAD_COLOR
350
B
  3
ACAD_GROUP
350
C
  3
ACAD_LAYOUT
350
D
  3
ACAD_MATERIAL
350
E
  3
ACAD_MLEADERSTYLE
350
F
  3
ACAD_MLINESTYLE
350
10
  3
ACAD_PLOTSETTINGS
350
11
  3
ACAD_PLOTSTYLENAME
350
12
  3
ACAD_SCALELIST
350
14
  3
ACAD_TABLESTYLE
350
15
  3
ACAD_VISUALSTYLE
350
16
  3
EZDXF_META
350
2D
  0
DICTIONARY
  5
B
330
A
100
AcDbDictionary
281
1
  0
DICTIONARY
  5
C
330
A
100
AcDbDictionary
281
1
  0
DICTIONARY
  5
D
330
A
100
AcDbDictionary
281
1
  3
Model
350
1A
  3
Layout1
350
1E
  0
DICTIONARY
  5
E
330
A
100
AcDbDictionary
281
1
  3
ByBlock
350
1F
  3
ByLayer
350
20
  3
Global
350
21
  0
DICTIONARY
  5
F
330
A
100
AcDbDictionary
281
1
  3
Standard
350
2C
  0
DICTIONARY
  5
10
330
A
100
AcDbDictionary
281
1
  3
Standard
350
22
  0
DICTIONARY
  5
11
330
A
100
AcDbDictionary
281
1
  0
ACDBDICTIONARYWDFLT
  5
12
330
A
100
AcDbDictionary
281
1
  3
Normal
350
13
100
AcDbDictionaryWithDefault
340
13
  0
ACDBPLACEHOLDER
  5
13
330
12
  0
DICTIONARY
  5
14
330
A
100
AcDbDictionary
281
1
  0
DICTIONARY
  5
15
330
A
100
AcDbDictionary
281
1
  0
DICTIONARY
  5
16
330
A
100
AcDbDictionary
281
1
  0
LAYOUT
  5
1A
330
D
100
AcDbPlotSettings
  1

  4
A3
  6

 40
7.5
 41
20.0
 42
7.5
 43
20.0
 44
420.0
 45
297.0
 46
0.0
 47
0.0
 48
0.0
 49
0.0
140
0.0
141
0.0
142
1.0
143
1.0
 70
1024
 72
1
 73
0
 74
5
  7

 75
16
 76
0
 77
2
 78
300
147
1.0
148
0.0
149
0.0
100
AcDbLayout
  1
Model
 70
1
 71
0
 10
0.0
 20
0.0
 11
420.0
 21
297.0
 12
0.0
 22
0.0
 32
0.0
 14
1e+20
 24
1e+20
 34
1e+20
 15
-1e+20
 25
-1e+20
 35
-1e+20
146
0.0
 13
0.0
 23
0.0
 33
0.0
 16
1.0
 26
0.0
 36
0.0
 17
0.0
 27
1.0
 37
0.0
 76
1
330
17
  0
LAYOUT
  5
1E
330
D
100
AcDbPlotSettings
  1

  4
A3
  6

 40
7.5
 41
20.0
 42
7.5
 43
20.0
 44
420.0
 45
297.0
 46
0.0
 47
0.0
 48
0.0
 49
0.0
140
0.0
141
0.0
142
1.0
143
1.0
 70
0
 72
1
 73
0
 74
5
  7

 75
16
 76
0
 77
2
 78
300
147
1.0
148
0.0
149
0.0
100
AcDbLayout
  1
Layout1
 70
1
 71
1
 10
0.0
 20
0.0
 11
420.0
 21
297.0
 12
0.0
 22
0.0
 32
0.0
 14
1e+20
 24
1e+20
 34
1e+20
 15
-1e+20
 25
-1e+20
 35
-1e+20
146
0.0
 13
0.0
 23
0.0
 33
0.0
 16
1.0
 26
0.0
 36
0.0
 17
0.0
 27
1.0
 37
0.0
 76
1
330
1B
  0
MATERIAL
  5
1F
102
{ACAD_REACTORS
330
E
102
}
330
E
100
AcDbMaterial
  1
ByBlock
  2

 70
0
 40
1.0
 71
1
 41
1.0
 91
-1023410177
 42
1.0
 72
1
  3

 73
1
 74
1
 75
1
 44
0.5
 73
0
 45
1.0
 46
1.0
 77
1
  4

 78
1
 79
1
170
1
 48
1.0
171
1
  6

172
1
173
1
174
1
140
1.0
141
1.0
175
1
  7

176
1
177
1
178
1
143
1.0
179
1
  8

270
1
271
1
272
1
145
1.0
146
1.0
273
1
  9

274
1
275
1
276
1
 42
1.0
 72
1
  3

 73
1
 74
1
 75
1
 94
63
  0
MATERIAL
  5
20
102
{ACAD_REACTORS
330
E
102
}
330
E
100
AcDbMaterial
  1
ByLayer
  2

 70
0
 40
1.0
 71
1
 41
1.0
 91
-1023410177
 42
1.0
 72
1
  3

 73
1
 74
1
 75
1
 44
0.5
 73
0
 45
1.0
 46
1.0
 77
1
  4

 78
1
 79
1
170
1
 48
1.0
171
1
  6

172
1
173
1
174
1
140
1.0
141
1.0
175
1
  7

176
1
177
1
178
1
143
1.0
179
1
  8

270
1
271
1
272
1
145
1.0
146
1.0
273
1
  9

274
1
275
1
276
1
 42
1.0
 72
1
  3

 73
1
 74
1
 75
1
 94
63
  0
MATERIAL
  5
21
102
{ACAD_REACTORS
330
E
102
}
330
E
100
AcDbMaterial
  1
Global
  2

 70
0
 40
1.0
 71
1
 41
1.0
 91
-1023410177
 42
1.0
 72
1
  3

 73
1
 74
1
 75
1
 44
0.5
 73
0
 45
1.0
 46
1.0
 77
1
  4

 78
1
 79
1
170
1
 48
1.0
171
1
  6

172
1
173
1
174
1
140
1.0
141
1.0
175
1
  7

176
1
177
1
178
1
143
1.0
179
1
  8

270
1
271
1
272
1
145
1.0
146
1.0
273
1
  9

274
1
275
1
276
1
 42
1.0
 72
1
  3

 73
1
 74
1
 75
1
 94
63
  0
MLINESTYLE
  5
22
102
{ACAD_REACTORS
330
10
102
}
330
10
100
AcDbMlineStyle
  2
Standard
 70
0
  3

 62
256
 51
90.0
 52
90.0
 71
2
 49
0.5
 62
256
  6
BYLAYER
 49
-0.5
 62
256
  6
BYLAYER
  0
MLEADERSTYLE
  5
2C
102
{ACAD_REACTORS
330
F
102
}
330
F
100
AcDbMLeaderStyle
179
2
170
2
171
1
172
0
 90
2
 40
0.0
 41
0.0
173
1
 91
-1056964608
 92
-2
290
1
 42
2.0
291
1
 43
8.0
  3
Standard
 44
4.0
300

342
29
174
1
175
1
176
0
178
1
 93
-1056964608
 45
4.0
292
0
297
0
 46
4.0
 94
-1056964608
 47
1.0
 49
1.0
140
1.0
294
1
141
0.0
177
0
142
1.0
295
0
296
0
143
3.75
271
0
272
9
273
9
  0
DICTIONARY
  5
2D
330
A
100
AcDbDictionary
280
1
281
1
  3
CREATED_BY_EZDXF
350
2E
  3
WRITTEN_BY_EZDXF
350
173
  0
DICTIONARYVAR
  5
2E
330
2D
100
DictionaryVariables
280
0
  1
1.4.4 @ 2026-08-23T13:13:24.010175+00:00
  0
DICTIONARYVAR
  5
173
330
2D
100
DictionaryVariables
280
0
  1
1.4.4 @ 2026-08-23T13:13:24.023738+00:00
  0
ENDSEC
  0
EOF
